<svg width="1200" height="630" viewBox="0 0 1200 630" fill="none" xmlns="http://www.w3.org/2000/svg">
<g clip-path="url(#clip0_134_2)">
<rect width="1200" height="630" fill="black"/>
<rect x="-427.809" y="-32.4841" width="729.486" height="376.173" transform="rotate(-19.4848 -427.809 -32.4841)" stroke="url(#paint0_linear_134_2)" stroke-width="5"/>
<rect x="883" y="695.827" width="580" height="273.616" transform="rotate(-35.26 883 695.827)" fill="url(#paint1_linear_134_2)"/>
<circle cx="882.5" cy="724.5" r="193" stroke="url(#paint2_linear_134_2)" stroke-width="3"/>
<path opacity="0.49" d="M415 58.3636C414.121 58.3636 413.367 58.0568 412.739 57.4432C412.117 56.822 411.811 56.0682 411.818 55.1818C411.811 54.3182 412.117 53.5795 412.739 52.9659C413.367 52.3523 414.121 52.0455 415 52.0455C415.833 52.0455 416.568 52.3523 417.205 52.9659C417.848 53.5795 418.174 54.3182 418.182 55.1818C418.174 55.7727 418.019 56.3106 417.716 56.7955C417.42 57.2727 417.034 57.6553 416.557 57.9432C416.08 58.2235 415.561 58.3636 415 58.3636ZM459.003 58.3636C458.124 58.3636 457.37 58.0568 456.741 57.4432C456.12 56.822 455.813 56.0682 455.821 55.1818C455.813 54.3182 456.12 53.5795 456.741 52.9659C457.37 52.3523 458.124 52.0455 459.003 52.0455C459.836 52.0455 460.571 52.3523 461.207 52.9659C461.851 53.5795 462.177 54.3182 462.184 55.1818C462.177 55.7727 462.021 56.3106 461.718 56.7955C461.423 57.2727 461.037 57.6553 460.559 57.9432C460.082 58.2235 459.563 58.3636 459.003 58.3636ZM503.005 58.3636C502.126 58.3636 501.372 58.0568 500.744 57.4432C500.122 56.822 499.816 56.0682 499.823 55.1818C499.816 54.3182 500.122 53.5795 500.744 52.9659C501.372 52.3523 502.126 52.0455 503.005 52.0455C503.838 52.0455 504.573 52.3523 505.21 52.9659C505.853 53.5795 506.179 54.3182 506.187 55.1818C506.179 55.7727 506.024 56.3106 505.721 56.7955C505.425 57.2727 505.039 57.6553 504.562 57.9432C504.085 58.2235 503.566 58.3636 503.005 58.3636ZM547.008 58.3636C546.129 58.3636 545.375 58.0568 544.746 57.4432C544.125 56.822 543.818 56.0682 543.826 55.1818C543.818 54.3182 544.125 53.5795 544.746 52.9659C545.375 52.3523 546.129 52.0455 547.008 52.0455C547.841 52.0455 548.576 52.3523 549.212 52.9659C549.856 53.5795 550.182 54.3182 550.189 55.1818C550.182 55.7727 550.026 56.3106 549.723 56.7955C549.428 57.2727 549.042 57.6553 548.564 57.9432C548.087 58.2235 547.568 58.3636 547.008 58.3636ZM415 91.3636C414.121 91.3636 413.367 91.0568 412.739 90.4432C412.117 89.822 411.811 89.0682 411.818 88.1818C411.811 87.3182 412.117 86.5795 412.739 85.9659C413.367 85.3523 414.121 85.0455 415 85.0455C415.833 85.0455 416.568 85.3523 417.205 85.9659C417.848 86.5795 418.174 87.3182 418.182 88.1818C418.174 88.7727 418.019 89.3106 417.716 89.7955C417.42 90.2727 417.034 90.6553 416.557 90.9432C416.08 91.2235 415.561 91.3636 415 91.3636ZM459.003 91.3636C458.124 91.3636 457.37 91.0568 456.741 90.4432C456.12 89.822 455.813 89.0682 455.821 88.1818C455.813 87.3182 456.12 86.5795 456.741 85.9659C457.37 85.3523 458.124 85.0455 459.003 85.0455C459.836 85.0455 460.571 85.3523 461.207 85.9659C461.851 86.5795 462.177 87.3182 462.184 88.1818C462.177 88.7727 462.021 89.3106 461.718 89.7955C461.423 90.2727 461.037 90.6553 460.559 90.9432C460.082 91.2235 459.563 91.3636 459.003 91.3636ZM503.005 91.3636C502.126 91.3636 501.372 91.0568 500.744 90.4432C500.122 89.822 499.816 89.0682 499.823 88.1818C499.816 87.3182 500.122 86.5795 500.744 85.9659C501.372 85.3523 502.126 85.0455 503.005 85.0455C503.838 85.0455 504.573 85.3523 505.21 85.9659C505.853 86.5795 506.179 87.3182 506.187 88.1818C506.179 88.7727 506.024 89.3106 505.721 89.7955C505.425 90.2727 505.039 90.6553 504.562 90.9432C504.085 91.2235 503.566 91.3636 503.005 91.3636ZM547.008 91.3636C546.129 91.3636 545.375 91.0568 544.746 90.4432C544.125 89.822 543.818 89.0682 543.826 88.1818C543.818 87.3182 544.125 86.5795 544.746 85.9659C545.375 85.3523 546.129 85.0455 547.008 85.0455C547.841 85.0455 548.576 85.3523 549.212 85.9659C549.856 86.5795 550.182 87.3182 550.189 88.1818C550.182 88.7727 550.026 89.3106 549.723 89.7955C549.428 90.2727 549.042 90.6553 548.564 90.9432C548.087 91.2235 547.568 91.3636 547.008 91.3636ZM415 124.364C414.121 124.364 413.367 124.057 412.739 123.443C412.117 122.822 411.811 122.068 411.818 121.182C411.811 120.318 412.117 119.58 412.739 118.966C413.367 118.352 414.121 118.045 415 118.045C415.833 118.045 416.568 118.352 417.205 118.966C417.848 119.58 418.174 120.318 418.182 121.182C418.174 121.773 418.019 122.311 417.716 122.795C417.42 123.273 417.034 123.655 416.557 123.943C416.08 124.223 415.561 124.364 415 124.364ZM459.003 124.364C458.124 124.364 457.37 124.057 456.741 123.443C456.12 122.822 455.813 122.068 455.821 121.182C455.813 120.318 456.12 119.58 456.741 118.966C457.37 118.352 458.124 118.045 459.003 118.045C459.836 118.045 460.571 118.352 461.207 118.966C461.851 119.58 462.177 120.318 462.184 121.182C462.177 121.773 462.021 122.311 461.718 122.795C461.423 123.273 461.037 123.655 460.559 123.943C460.082 124.223 459.563 124.364 459.003 124.364ZM503.005 124.364C502.126 124.364 501.372 124.057 500.744 123.443C500.122 122.822 499.816 122.068 499.823 121.182C499.816 120.318 500.122 119.58 500.744 118.966C501.372 118.352 502.126 118.045 503.005 118.045C503.838 118.045 504.573 118.352 505.21 118.966C505.853 119.58 506.179 120.318 506.187 121.182C506.179 121.773 506.024 122.311 505.721 122.795C505.425 123.273 505.039 123.655 504.562 123.943C504.085 124.223 503.566 124.364 503.005 124.364ZM547.008 124.364C546.129 124.364 545.375 124.057 544.746 123.443C544.125 122.822 543.818 122.068 543.826 121.182C543.818 120.318 544.125 119.58 544.746 118.966C545.375 118.352 546.129 118.045 547.008 118.045C547.841 118.045 548.576 118.352 549.212 118.966C549.856 119.58 550.182 120.318 550.189 121.182C550.182 121.773 550.026 122.311 549.723 122.795C549.428 123.273 549.042 123.655 548.564 123.943C548.087 124.223 547.568 124.364 547.008 124.364ZM415 157.364C414.121 157.364 413.367 157.057 412.739 156.443C412.117 155.822 411.811 155.068 411.818 154.182C411.811 153.318 412.117 152.58 412.739 151.966C413.367 151.352 414.121 151.045 415 151.045C415.833 151.045 416.568 151.352 417.205 151.966C417.848 152.58 418.174 153.318 418.182 154.182C418.174 154.773 418.019 155.311 417.716 155.795C417.42 156.273 417.034 156.655 416.557 156.943C416.08 157.223 415.561 157.364 415 157.364ZM459.003 157.364C458.124 157.364 457.37 157.057 456.741 156.443C456.12 155.822 455.813 155.068 455.821 154.182C455.813 153.318 456.12 152.58 456.741 151.966C457.37 151.352 458.124 151.045 459.003 151.045C459.836 151.045 460.571 151.352 461.207 151.966C461.851 152.58 462.177 153.318 462.184 154.182C462.177 154.773 462.021 155.311 461.718 155.795C461.423 156.273 461.037 156.655 460.559 156.943C460.082 157.223 459.563 157.364 459.003 157.364ZM503.005 157.364C502.126 157.364 501.372 157.057 500.744 156.443C500.122 155.822 499.816 155.068 499.823 154.182C499.816 153.318 500.122 152.58 500.744 151.966C501.372 151.352 502.126 151.045 503.005 151.045C503.838 151.045 504.573 151.352 505.21 151.966C505.853 152.58 506.179 153.318 506.187 154.182C506.179 154.773 506.024 155.311 505.721 155.795C505.425 156.273 505.039 156.655 504.562 156.943C504.085 157.223 503.566 157.364 503.005 157.364ZM547.008 157.364C546.129 157.364 545.375 157.057 544.746 156.443C544.125 155.822 543.818 155.068 543.826 154.182C543.818 153.318 544.125 152.58 544.746 151.966C545.375 151.352 546.129 151.045 547.008 151.045C547.841 151.045 548.576 151.352 549.212 151.966C549.856 152.58 550.182 153.318 550.189 154.182C550.182 154.773 550.026 155.311 549.723 155.795C549.428 156.273 549.042 156.655 548.564 156.943C548.087 157.223 547.568 157.364 547.008 157.364Z" fill="url(#paint3_linear_134_2)"/>
<mask id="path-5-outside-1_134_2" maskUnits="userSpaceOnUse" x="272" y="236" width="654" height="106" fill="black">
<rect fill="white" x="272" y="236" width="654" height="106"/>
<path d="M307.182 335H279.909L310.636 241.909H345.182L375.909 335H348.636L328.273 267.545H327.545L307.182 335ZM302.091 298.273H353.364V317.182H302.091V298.273ZM446.307 287.909H423.216C423.095 286.485 422.595 285.258 421.716 284.227C420.837 283.197 419.701 282.409 418.307 281.864C416.943 281.288 415.428 281 413.761 281C411.61 281 409.761 281.394 408.216 282.182C406.67 282.97 405.913 284.091 405.943 285.545C405.913 286.576 406.352 287.53 407.261 288.409C408.201 289.288 410.004 289.97 412.67 290.455L426.852 293C434.004 294.303 439.322 296.5 442.807 299.591C446.322 302.652 448.095 306.758 448.125 311.909C448.095 316.879 446.61 321.197 443.67 324.864C440.761 328.5 436.777 331.318 431.716 333.318C426.686 335.288 420.943 336.273 414.489 336.273C403.822 336.273 395.473 334.091 389.443 329.727C383.443 325.364 380.095 319.606 379.398 312.455H404.307C404.64 314.667 405.731 316.379 407.58 317.591C409.458 318.773 411.822 319.364 414.67 319.364C416.973 319.364 418.867 318.97 420.352 318.182C421.867 317.394 422.64 316.273 422.67 314.818C422.64 313.485 421.973 312.424 420.67 311.636C419.398 310.848 417.398 310.212 414.67 309.727L402.307 307.545C395.186 306.303 389.852 303.939 386.307 300.455C382.761 296.97 381.004 292.485 381.034 287C381.004 282.152 382.277 278.045 384.852 274.682C387.458 271.288 391.17 268.712 395.989 266.955C400.837 265.167 406.58 264.273 413.216 264.273C423.307 264.273 431.261 266.364 437.08 270.545C442.928 274.727 446.004 280.515 446.307 287.909ZM491.375 336.273C483.799 336.273 477.314 334.773 471.92 331.773C466.527 328.742 462.39 324.53 459.511 319.136C456.633 313.712 455.193 307.424 455.193 300.273C455.193 293.121 456.633 286.848 459.511 281.455C462.39 276.03 466.527 271.818 471.92 268.818C477.314 265.788 483.799 264.273 491.375 264.273C498.223 264.273 504.148 265.515 509.148 268C514.178 270.455 518.072 273.939 520.83 278.455C523.587 282.939 524.981 288.212 525.011 294.273H501.739C501.405 290.606 500.345 287.818 498.557 285.909C496.799 283.97 494.527 283 491.739 283C489.557 283 487.648 283.636 486.011 284.909C484.375 286.152 483.102 288.045 482.193 290.591C481.284 293.106 480.83 296.273 480.83 300.091C480.83 303.909 481.284 307.091 482.193 309.636C483.102 312.152 484.375 314.045 486.011 315.318C487.648 316.561 489.557 317.182 491.739 317.182C493.587 317.182 495.223 316.758 496.648 315.909C498.072 315.03 499.223 313.758 500.102 312.091C501.011 310.394 501.557 308.333 501.739 305.909H525.011C524.92 312.061 523.511 317.424 520.784 322C518.057 326.545 514.193 330.061 509.193 332.545C504.223 335.03 498.284 336.273 491.375 336.273ZM568.818 336.273C561.364 336.273 554.939 334.848 549.545 332C544.182 329.121 540.045 325 537.136 319.636C534.258 314.242 532.818 307.788 532.818 300.273C532.818 293.061 534.273 286.758 537.182 281.364C540.091 275.97 544.197 271.773 549.5 268.773C554.803 265.773 561.061 264.273 568.273 264.273C573.545 264.273 578.318 265.091 582.591 266.727C586.864 268.364 590.515 270.742 593.545 273.864C596.576 276.955 598.909 280.712 600.545 285.136C602.182 289.561 603 294.545 603 300.091V305.909H540.636V292.091H579.909C579.879 290.091 579.364 288.333 578.364 286.818C577.394 285.273 576.076 284.076 574.409 283.227C572.773 282.348 570.909 281.909 568.818 281.909C566.788 281.909 564.924 282.348 563.227 283.227C561.53 284.076 560.167 285.258 559.136 286.773C558.136 288.288 557.606 290.061 557.545 292.091V307C557.545 309.242 558.015 311.242 558.955 313C559.894 314.758 561.242 316.136 563 317.136C564.758 318.136 566.879 318.636 569.364 318.636C571.091 318.636 572.667 318.394 574.091 317.909C575.545 317.424 576.788 316.727 577.818 315.818C578.848 314.879 579.606 313.758 580.091 312.455H603C602.212 317.303 600.348 321.515 597.409 325.091C594.47 328.636 590.576 331.394 585.727 333.364C580.909 335.303 575.273 336.273 568.818 336.273ZM638.33 295.727V335H613.239V265.182H637.057V278.455H637.784C639.299 274.03 641.966 270.561 645.784 268.045C649.633 265.53 654.117 264.273 659.239 264.273C664.178 264.273 668.466 265.409 672.102 267.682C675.769 269.924 678.602 273.015 680.602 276.955C682.633 280.894 683.633 285.394 683.602 290.455V335H658.511V295.727C658.542 292.273 657.663 289.561 655.875 287.591C654.117 285.621 651.663 284.636 648.511 284.636C646.451 284.636 644.648 285.091 643.102 286C641.587 286.879 640.42 288.152 639.602 289.818C638.784 291.455 638.36 293.424 638.33 295.727ZM721.261 335.909C716.292 335.909 711.716 334.606 707.534 332C703.383 329.394 700.049 325.439 697.534 320.136C695.049 314.833 693.807 308.152 693.807 300.091C693.807 291.667 695.11 284.818 697.716 279.545C700.352 274.273 703.746 270.409 707.898 267.955C712.08 265.5 716.473 264.273 721.08 264.273C724.534 264.273 727.564 264.879 730.17 266.091C732.777 267.273 734.958 268.864 736.716 270.864C738.473 272.833 739.807 275 740.716 277.364H741.08V241.909H766.17V335H741.261V323.545H740.716C739.746 325.909 738.352 328.03 736.534 329.909C734.746 331.758 732.564 333.227 729.989 334.318C727.443 335.379 724.534 335.909 721.261 335.909ZM730.534 316.636C732.837 316.636 734.807 315.97 736.443 314.636C738.11 313.273 739.383 311.364 740.261 308.909C741.17 306.424 741.625 303.485 741.625 300.091C741.625 296.636 741.17 293.682 740.261 291.227C739.383 288.742 738.11 286.848 736.443 285.545C734.807 284.212 732.837 283.545 730.534 283.545C728.231 283.545 726.261 284.212 724.625 285.545C723.019 286.848 721.777 288.742 720.898 291.227C720.049 293.682 719.625 296.636 719.625 300.091C719.625 303.545 720.049 306.515 720.898 309C721.777 311.455 723.019 313.348 724.625 314.682C726.261 315.985 728.231 316.636 730.534 316.636ZM824.307 288.455V307.364H780.67V288.455H824.307ZM864.148 241.909V335H838.875V241.909H864.148ZM918.125 265.182V283.364H872.125V265.182H918.125ZM881.034 248.455H906.125V312.545C906.125 313.515 906.292 314.333 906.625 315C906.958 315.636 907.473 316.121 908.17 316.455C908.867 316.758 909.761 316.909 910.852 316.909C911.61 316.909 912.489 316.818 913.489 316.636C914.519 316.455 915.277 316.303 915.761 316.182L919.398 333.818C918.277 334.152 916.67 334.561 914.58 335.045C912.519 335.53 910.064 335.848 907.216 336C901.458 336.303 896.625 335.712 892.716 334.227C888.807 332.712 885.867 330.333 883.898 327.091C881.928 323.848 880.973 319.788 881.034 314.909V248.455Z"/>
</mask>
<path d="M307.182 335V340H310.895L311.968 336.445L307.182 335ZM279.909 335L275.161 333.433L272.993 340H279.909V335ZM310.636 241.909V236.909H307.021L305.888 240.342L310.636 241.909ZM345.182 241.909L349.93 240.342L348.797 236.909H345.182V241.909ZM375.909 335V340H382.825L380.657 333.433L375.909 335ZM348.636 335L343.85 336.445L344.923 340H348.636V335ZM328.273 267.545L333.059 266.1L331.986 262.545H328.273V267.545ZM327.545 267.545V262.545H323.832L322.759 266.1L327.545 267.545ZM302.091 298.273V293.273H297.091V298.273H302.091ZM353.364 298.273H358.364V293.273H353.364V298.273ZM353.364 317.182V322.182H358.364V317.182H353.364ZM302.091 317.182H297.091V322.182H302.091V317.182ZM307.182 330H279.909V340H307.182V330ZM284.657 336.567L315.384 243.476L305.888 240.342L275.161 333.433L284.657 336.567ZM310.636 246.909H345.182V236.909H310.636V246.909ZM340.434 243.476L371.161 336.567L380.657 333.433L349.93 240.342L340.434 243.476ZM375.909 330H348.636V340H375.909V330ZM353.423 333.555L333.059 266.1L323.486 268.99L343.85 336.445L353.423 333.555ZM328.273 262.545H327.545V272.545H328.273V262.545ZM322.759 266.1L302.395 333.555L311.968 336.445L332.332 268.99L322.759 266.1ZM302.091 303.273H353.364V293.273H302.091V303.273ZM348.364 298.273V317.182H358.364V298.273H348.364ZM353.364 312.182H302.091V322.182H353.364V312.182ZM307.091 317.182V298.273H297.091V317.182H307.091ZM446.307 287.909V292.909H451.516L451.303 287.704L446.307 287.909ZM423.216 287.909L418.234 288.333L418.623 292.909H423.216V287.909ZM421.716 284.227L425.52 280.983L421.716 284.227ZM418.307 281.864L416.362 286.47L416.423 286.496L416.485 286.52L418.307 281.864ZM408.216 282.182L405.945 277.727L408.216 282.182ZM405.943 285.545L410.941 285.692L410.945 285.567L410.942 285.441L405.943 285.545ZM407.261 288.409L403.786 292.004L403.816 292.032L403.846 292.06L407.261 288.409ZM412.67 290.455L411.776 295.374L411.787 295.376L412.67 290.455ZM426.852 293L427.749 288.081L427.736 288.079L426.852 293ZM442.807 299.591L439.489 303.332L439.506 303.347L439.524 303.362L442.807 299.591ZM448.125 311.909L453.125 311.94L453.125 311.91L453.125 311.88L448.125 311.909ZM443.67 324.864L439.769 321.736L439.766 321.74L443.67 324.864ZM431.716 333.318L433.539 337.974L433.546 337.971L433.554 337.968L431.716 333.318ZM389.443 329.727L386.502 333.771L386.512 333.778L389.443 329.727ZM379.398 312.455V307.455H373.887L374.421 312.94L379.398 312.455ZM404.307 312.455L409.251 311.71L408.61 307.455H404.307V312.455ZM407.58 317.591L404.838 321.772L404.877 321.798L404.917 321.823L407.58 317.591ZM420.352 318.182L418.046 313.746L418.027 313.755L418.009 313.765L420.352 318.182ZM422.67 314.818L427.669 314.922L427.672 314.813L427.669 314.705L422.67 314.818ZM420.67 311.636L418.039 315.888L418.061 315.901L418.083 315.915L420.67 311.636ZM414.67 309.727L415.546 304.804L415.539 304.803L414.67 309.727ZM402.307 307.545L403.176 302.622L403.166 302.62L402.307 307.545ZM386.307 300.455L389.812 296.889L386.307 300.455ZM381.034 287L386.034 287.028L386.034 286.998L386.034 286.969L381.034 287ZM384.852 274.682L380.887 271.637L380.883 271.642L384.852 274.682ZM395.989 266.955L397.702 271.652L397.71 271.649L397.719 271.646L395.989 266.955ZM437.08 270.545L434.161 274.606L434.171 274.613L437.08 270.545ZM446.307 282.909H423.216V292.909H446.307V282.909ZM428.198 287.485C427.993 285.082 427.115 282.853 425.52 280.983L417.912 287.472C418.074 287.662 418.196 287.888 418.234 288.333L428.198 287.485ZM425.52 280.983C424.052 279.262 422.207 278.021 420.129 277.207L416.485 286.52C417.194 286.797 417.622 287.132 417.912 287.472L425.52 280.983ZM420.252 277.257C418.2 276.391 416.012 276 413.761 276V286C414.844 286 415.687 286.185 416.362 286.47L420.252 277.257ZM413.761 276C411.006 276 408.343 276.505 405.945 277.727L410.487 286.636C411.18 286.283 412.213 286 413.761 286V276ZM405.945 277.727C404.626 278.4 403.314 279.382 402.346 280.814C401.344 282.297 400.909 283.971 400.944 285.65L410.942 285.441C410.944 285.529 410.935 285.682 410.88 285.876C410.825 286.072 410.737 286.257 410.632 286.413C410.421 286.724 410.261 286.752 410.487 286.636L405.945 277.727ZM400.945 285.398C400.865 288.145 402.113 290.387 403.786 292.004L410.736 284.814C410.639 284.72 410.706 284.756 410.792 284.943C410.888 285.153 410.949 285.421 410.941 285.692L400.945 285.398ZM403.846 292.06C405.921 294.002 409.004 294.87 411.776 295.374L413.565 285.535C412.42 285.327 411.617 285.103 411.087 284.903C410.52 284.689 410.494 284.586 410.677 284.758L403.846 292.06ZM411.787 295.376L425.969 297.921L427.736 288.079L413.554 285.533L411.787 295.376ZM425.956 297.919C432.669 299.142 436.97 301.097 439.489 303.332L446.125 295.85C441.674 291.903 435.338 289.464 427.749 288.081L425.956 297.919ZM439.524 303.362C441.834 305.374 443.102 308.053 443.125 311.938L453.125 311.88C453.087 305.462 450.81 299.929 446.09 295.82L439.524 303.362ZM443.125 311.879C443.101 315.791 441.962 319.001 439.769 321.736L447.572 327.991C451.258 323.393 453.088 317.966 453.125 311.94L443.125 311.879ZM439.766 321.74C437.487 324.589 434.266 326.934 429.878 328.668L433.554 337.968C439.287 335.702 444.036 332.411 447.575 327.987L439.766 321.74ZM429.893 328.662C425.545 330.365 420.438 331.273 414.489 331.273V341.273C421.448 341.273 427.827 340.211 433.539 337.974L429.893 328.662ZM414.489 331.273C404.436 331.273 397.254 329.208 392.374 325.677L386.512 333.778C393.693 338.974 403.208 341.273 414.489 341.273V331.273ZM392.384 325.684C387.497 322.13 384.927 317.647 384.374 311.97L374.421 312.94C375.262 321.566 379.389 328.598 386.502 333.771L392.384 325.684ZM379.398 317.455H404.307V307.455H379.398V317.455ZM399.363 313.2C399.905 316.799 401.783 319.769 404.838 321.772L410.321 313.41C409.679 312.988 409.375 312.535 409.251 311.71L399.363 313.2ZM404.917 321.823C407.79 323.631 411.143 324.364 414.67 324.364V314.364C412.5 314.364 411.126 313.915 410.242 313.359L404.917 321.823ZM414.67 324.364C417.503 324.364 420.272 323.885 422.696 322.599L418.009 313.765C417.463 314.055 416.444 314.364 414.67 314.364V324.364ZM422.659 322.618C425.457 321.163 427.594 318.557 427.669 314.922L417.672 314.714C417.673 314.645 417.685 314.519 417.735 314.358C417.786 314.196 417.862 314.043 417.951 313.913C418.132 313.651 418.259 313.635 418.046 313.746L422.659 322.618ZM427.669 314.705C427.594 311.395 425.78 308.883 423.258 307.358L418.083 315.915C418.209 315.991 418.076 315.941 417.915 315.684C417.836 315.558 417.771 315.415 417.728 315.267C417.685 315.121 417.673 315.003 417.672 314.932L427.669 314.705ZM423.302 307.385C421.212 306.091 418.458 305.322 415.546 304.804L413.795 314.65C416.338 315.102 417.584 315.606 418.039 315.888L423.302 307.385ZM415.539 304.803L403.176 302.622L401.438 312.469L413.802 314.651L415.539 304.803ZM403.166 302.62C396.612 301.476 392.374 299.407 389.812 296.889L382.802 304.02C387.331 308.472 393.759 311.13 401.447 312.471L403.166 302.62ZM389.812 296.889C387.334 294.453 386.01 291.316 386.034 287.028L376.034 286.972C375.997 293.654 378.189 299.486 382.802 304.02L389.812 296.889ZM386.034 286.969C386.01 283.062 387.016 280.08 388.822 277.722L380.883 271.642C377.537 276.011 375.998 281.241 376.034 287.031L386.034 286.969ZM388.818 277.727C390.739 275.225 393.597 273.149 397.702 271.652L394.275 262.257C388.744 264.275 384.177 267.351 380.887 271.637L388.818 277.727ZM397.719 271.646C401.881 270.111 407.01 269.273 413.216 269.273V259.273C406.149 259.273 399.793 260.222 394.259 262.263L397.719 271.646ZM413.216 269.273C422.674 269.273 429.477 271.239 434.161 274.606L439.998 266.485C433.045 261.488 423.94 259.273 413.216 259.273V269.273ZM434.171 274.613C438.723 277.868 441.069 282.208 441.311 288.114L451.303 287.704C450.939 278.823 447.133 271.587 439.988 266.478L434.171 274.613ZM471.92 331.773L469.471 336.132L469.481 336.137L469.49 336.142L471.92 331.773ZM459.511 319.136L455.095 321.48L455.1 321.491L459.511 319.136ZM459.511 281.455L463.922 283.809L463.928 283.799L459.511 281.455ZM471.92 268.818L474.351 273.188L474.36 273.183L474.369 273.177L471.92 268.818ZM509.148 268L506.923 272.478L506.939 272.486L506.955 272.494L509.148 268ZM520.83 278.455L516.562 281.061L516.566 281.067L516.57 281.073L520.83 278.455ZM525.011 294.273V299.273H530.036L530.011 294.248L525.011 294.273ZM501.739 294.273L496.759 294.725L497.173 299.273H501.739V294.273ZM498.557 285.909L494.852 289.267L494.879 289.297L494.907 289.327L498.557 285.909ZM486.011 284.909L489.035 288.891L489.058 288.874L489.081 288.856L486.011 284.909ZM482.193 290.591L486.895 292.291L486.899 292.282L486.902 292.273L482.193 290.591ZM482.193 309.636L477.484 311.318L477.488 311.327L477.491 311.336L482.193 309.636ZM486.011 315.318L482.942 319.265L482.965 319.283L482.988 319.3L486.011 315.318ZM496.648 315.909L499.207 320.205L499.24 320.185L499.273 320.164L496.648 315.909ZM500.102 312.091L495.695 309.73L495.687 309.744L495.679 309.759L500.102 312.091ZM501.739 305.909V300.909H497.1L496.753 305.535L501.739 305.909ZM525.011 305.909L530.011 305.983L530.086 300.909H525.011V305.909ZM520.784 322L525.072 324.572L525.075 324.566L525.079 324.56L520.784 322ZM509.193 332.545L506.968 328.068L506.957 328.073L509.193 332.545ZM491.375 331.273C484.458 331.273 478.85 329.906 474.351 327.403L469.49 336.142C475.779 339.64 483.14 341.273 491.375 341.273V331.273ZM474.369 327.414C469.797 324.845 466.346 321.324 463.922 316.782L455.1 321.491C458.434 327.737 463.256 332.64 469.471 336.132L474.369 327.414ZM463.928 316.792C461.491 312.201 460.193 306.742 460.193 300.273H450.193C450.193 308.107 451.774 315.224 455.095 321.48L463.928 316.792ZM460.193 300.273C460.193 293.803 461.491 288.364 463.922 283.809L455.1 279.1C451.774 285.333 450.193 292.44 450.193 300.273H460.193ZM463.928 283.799C466.352 279.232 469.796 275.721 474.351 273.188L469.49 264.449C463.257 267.915 458.429 272.829 455.095 279.111L463.928 283.799ZM474.369 273.177C478.865 270.652 484.466 269.273 491.375 269.273V259.273C483.133 259.273 475.764 260.924 469.471 264.459L474.369 273.177ZM491.375 269.273C497.623 269.273 502.753 270.405 506.923 272.478L511.373 263.522C505.542 260.625 498.824 259.273 491.375 259.273V269.273ZM506.955 272.494C511.18 274.555 514.331 277.408 516.562 281.061L525.097 275.848C521.812 270.471 517.176 266.354 511.34 263.506L506.955 272.494ZM516.57 281.073C518.779 284.666 519.985 289.012 520.011 294.298L530.011 294.248C529.977 287.412 528.395 281.213 525.089 275.836L516.57 281.073ZM525.011 289.273H501.739V299.273H525.011V289.273ZM506.718 293.82C506.324 289.487 505.012 285.487 502.206 282.491L494.907 289.327C495.678 290.15 496.486 291.725 496.759 294.725L506.718 293.82ZM502.262 282.551C499.489 279.492 495.834 278 491.739 278V288C493.219 288 494.11 288.448 494.852 289.267L502.262 282.551ZM491.739 278C488.508 278 485.504 278.97 482.942 280.962L489.081 288.856C489.792 288.303 490.606 288 491.739 288V278ZM482.988 280.927C480.369 282.915 478.619 285.733 477.484 288.909L486.902 292.273C487.586 290.358 488.381 289.388 489.035 288.891L482.988 280.927ZM477.491 288.891C476.32 292.131 475.83 295.92 475.83 300.091H485.83C485.83 296.625 486.248 294.082 486.895 292.291L477.491 288.891ZM475.83 300.091C475.83 304.265 476.321 308.06 477.484 311.318L486.902 307.955C486.247 306.121 485.83 303.553 485.83 300.091H475.83ZM477.491 311.336C478.629 314.485 480.372 317.266 482.942 319.265L489.081 311.371C488.378 310.825 487.575 309.818 486.895 307.937L477.491 311.336ZM482.988 319.3C485.55 321.246 488.537 322.182 491.739 322.182V312.182C490.577 312.182 489.746 311.876 489.035 311.336L482.988 319.3ZM491.739 322.182C494.382 322.182 496.922 321.566 499.207 320.205L494.089 311.614C493.525 311.949 492.793 312.182 491.739 312.182V322.182ZM499.273 320.164C501.55 318.76 503.283 316.778 504.525 314.423L495.679 309.759C495.164 310.737 494.594 311.301 494.022 311.654L499.273 320.164ZM504.51 314.452C505.823 312.001 506.504 309.226 506.725 306.283L496.753 305.535C496.61 307.44 496.2 308.787 495.695 309.73L504.51 314.452ZM501.739 310.909H525.011V300.909H501.739V310.909ZM520.012 305.835C519.932 311.248 518.702 315.727 516.489 319.44L525.079 324.56C528.32 319.122 529.909 312.873 530.011 305.983L520.012 305.835ZM516.497 319.428C514.288 323.109 511.161 325.984 506.968 328.068L511.418 337.023C517.226 334.137 521.826 329.982 525.072 324.572L516.497 319.428ZM506.957 328.073C502.83 330.137 497.693 331.273 491.375 331.273V341.273C498.875 341.273 505.617 339.924 511.429 337.018L506.957 328.073ZM549.545 332L547.181 336.406L547.196 336.413L547.211 336.421L549.545 332ZM537.136 319.636L532.725 321.991L532.733 322.005L532.741 322.02L537.136 319.636ZM537.182 281.364L541.583 283.737L537.182 281.364ZM549.5 268.773L551.962 273.125L549.5 268.773ZM582.591 266.727L584.379 262.058L582.591 266.727ZM593.545 273.864L589.958 277.347L589.967 277.355L589.975 277.364L593.545 273.864ZM600.545 285.136L595.856 286.871L600.545 285.136ZM603 305.909V310.909H608V305.909H603ZM540.636 305.909H535.636V310.909H540.636V305.909ZM540.636 292.091V287.091H535.636V292.091H540.636ZM579.909 292.091V297.091H584.985L584.909 292.015L579.909 292.091ZM578.364 286.818L574.128 289.476L574.159 289.524L574.191 289.572L578.364 286.818ZM574.409 283.227L572.043 287.632L572.092 287.658L572.141 287.683L574.409 283.227ZM563.227 283.227L565.463 287.699L565.495 287.684L565.527 287.667L563.227 283.227ZM559.136 286.773L555.002 283.961L554.982 283.99L554.963 284.019L559.136 286.773ZM557.545 292.091L552.548 291.942L552.545 292.016V292.091H557.545ZM558.955 313L554.545 315.357L558.955 313ZM563 317.136L560.527 321.482L563 317.136ZM574.091 317.909L572.51 313.166L572.495 313.171L572.48 313.176L574.091 317.909ZM577.818 315.818L581.126 319.567L581.157 319.54L581.187 319.513L577.818 315.818ZM580.091 312.455V307.455H576.616L575.405 310.711L580.091 312.455ZM603 312.455L607.935 313.257L608.878 307.455H603V312.455ZM597.409 325.091L601.258 328.282L601.265 328.274L601.272 328.266L597.409 325.091ZM585.727 333.364L587.594 338.002L587.602 337.999L587.609 337.996L585.727 333.364ZM568.818 331.273C561.999 331.273 556.412 329.972 551.88 327.579L547.211 336.421C553.467 339.725 560.728 341.273 568.818 341.273V331.273ZM551.91 327.594C547.408 325.178 543.977 321.761 541.532 317.253L532.741 322.02C536.114 328.239 540.955 333.064 547.181 336.406L551.91 327.594ZM541.547 317.282C539.134 312.761 537.818 307.152 537.818 300.273H527.818C527.818 308.423 529.381 315.724 532.725 321.991L541.547 317.282ZM537.818 300.273C537.818 293.742 539.131 288.283 541.583 283.737L532.781 278.99C529.414 285.232 527.818 292.379 527.818 300.273H537.818ZM541.583 283.737C544.047 279.167 547.484 275.658 551.962 273.125L547.038 264.421C540.91 267.887 536.134 272.772 532.781 278.99L541.583 283.737ZM551.962 273.125C556.387 270.621 561.764 269.273 568.273 269.273V259.273C560.357 259.273 553.219 260.924 547.038 264.421L551.962 273.125ZM568.273 269.273C573.026 269.273 577.181 270.009 580.803 271.397L584.379 262.058C579.456 260.172 574.065 259.273 568.273 259.273V269.273ZM580.803 271.397C584.432 272.787 587.46 274.774 589.958 277.347L597.133 270.381C593.57 266.711 589.295 263.941 584.379 262.058L580.803 271.397ZM589.975 277.364C592.469 279.908 594.442 283.048 595.856 286.871L605.235 283.402C603.376 278.377 600.682 274.001 597.116 270.363L589.975 277.364ZM595.856 286.871C597.254 290.652 598 295.036 598 300.091H608C608 294.055 607.109 288.469 605.235 283.402L595.856 286.871ZM598 300.091V305.909H608V300.091H598ZM603 300.909H540.636V310.909H603V300.909ZM545.636 305.909V292.091H535.636V305.909H545.636ZM540.636 297.091H579.909V287.091H540.636V297.091ZM584.909 292.015C584.865 289.162 584.115 286.455 582.537 284.064L574.191 289.572C574.613 290.212 574.892 291.019 574.91 292.167L584.909 292.015ZM582.599 284.161C581.136 281.829 579.129 280.02 576.678 278.771L572.141 287.683C573.022 288.132 573.652 288.716 574.128 289.476L582.599 284.161ZM576.775 278.822C574.324 277.506 571.629 276.909 568.818 276.909V286.909C570.189 286.909 571.222 287.191 572.043 287.632L576.775 278.822ZM568.818 276.909C566.039 276.909 563.38 277.518 560.928 278.787L565.527 287.667C566.469 287.179 567.537 286.909 568.818 286.909V276.909ZM560.991 278.755C558.558 279.972 556.53 281.714 555.002 283.961L563.271 289.584C563.803 288.801 564.503 288.18 565.463 287.699L560.991 278.755ZM554.963 284.019C553.393 286.398 552.633 289.097 552.548 291.942L562.543 292.24C562.58 291.024 562.88 290.178 563.309 289.527L554.963 284.019ZM552.545 292.091V307H562.545V292.091H552.545ZM552.545 307C552.545 309.96 553.172 312.787 554.545 315.357L563.364 310.643C562.859 309.697 562.545 308.525 562.545 307H552.545ZM554.545 315.357C555.936 317.96 557.962 320.023 560.527 321.482L565.473 312.791C564.523 312.25 563.852 311.555 563.364 310.643L554.545 315.357ZM560.527 321.482C563.193 322.999 566.209 323.636 569.364 323.636V313.636C567.549 313.636 566.322 313.274 565.473 312.791L560.527 321.482ZM569.364 323.636C571.559 323.636 573.689 323.328 575.702 322.642L572.48 313.176C571.645 313.46 570.623 313.636 569.364 313.636V323.636ZM575.672 322.653C577.689 321.98 579.538 320.969 581.126 319.567L574.51 312.069C574.038 312.485 573.402 312.868 572.51 313.166L575.672 322.653ZM581.187 319.513C582.804 318.039 584.014 316.249 584.777 314.198L575.405 310.711C575.198 311.266 574.893 311.719 574.449 312.123L581.187 319.513ZM580.091 317.455H603V307.455H580.091V317.455ZM598.065 311.653C597.41 315.685 595.89 319.065 593.547 321.916L601.272 328.266C604.807 323.966 607.015 318.922 607.935 313.257L598.065 311.653ZM593.56 321.9C591.215 324.728 588.035 327.029 583.845 328.731L587.609 337.996C593.117 335.758 597.724 332.545 601.258 328.282L593.56 321.9ZM583.86 328.725C579.76 330.376 574.783 331.273 568.818 331.273V341.273C575.762 341.273 582.058 340.231 587.594 338.002L583.86 328.725ZM638.33 295.727L633.33 295.661L633.33 295.694V295.727H638.33ZM638.33 335V340H643.33V335H638.33ZM613.239 335H608.239V340H613.239V335ZM613.239 265.182V260.182H608.239V265.182H613.239ZM637.057 265.182H642.057V260.182H637.057V265.182ZM637.057 278.455H632.057V283.455H637.057V278.455ZM637.784 278.455V283.455H641.357L642.514 280.075L637.784 278.455ZM645.784 268.045L643.049 263.86L643.041 263.865L643.034 263.87L645.784 268.045ZM672.102 267.682L669.452 271.922L669.473 271.935L669.494 271.947L672.102 267.682ZM680.602 276.955L676.144 279.218L676.151 279.232L676.158 279.245L680.602 276.955ZM683.602 290.455L678.602 290.425L678.602 290.44V290.455H683.602ZM683.602 335V340H688.602V335H683.602ZM658.511 335H653.511V340H658.511V335ZM658.511 295.727L653.512 295.683L653.511 295.705V295.727H658.511ZM655.875 287.591L652.144 290.92L652.158 290.936L652.173 290.951L655.875 287.591ZM643.102 286L645.611 290.325L645.624 290.317L645.637 290.31L643.102 286ZM639.602 289.818L644.074 292.054L644.083 292.038L644.091 292.022L639.602 289.818ZM633.33 295.727V335H643.33V295.727H633.33ZM638.33 330H613.239V340H638.33V330ZM618.239 335V265.182H608.239V335H618.239ZM613.239 270.182H637.057V260.182H613.239V270.182ZM632.057 265.182V278.455H642.057V265.182H632.057ZM637.057 283.455H637.784V273.455H637.057V283.455ZM642.514 280.075C643.68 276.672 645.664 274.112 648.535 272.221L643.034 263.87C638.268 267.009 634.919 271.389 633.054 276.835L642.514 280.075ZM648.519 272.231C651.464 270.307 654.974 269.273 659.239 269.273V259.273C653.26 259.273 647.801 260.754 643.049 263.86L648.519 272.231ZM659.239 269.273C663.386 269.273 666.725 270.218 669.452 271.922L674.752 263.442C670.206 260.601 664.97 259.273 659.239 259.273V269.273ZM669.494 271.947C672.347 273.693 674.551 276.08 676.144 279.218L685.061 274.691C682.654 269.95 679.191 266.156 674.711 263.416L669.494 271.947ZM676.158 279.245C677.769 282.371 678.629 286.056 678.602 290.425L688.602 290.484C688.637 284.732 687.496 279.417 685.047 274.664L676.158 279.245ZM678.602 290.455V335H688.602V290.455H678.602ZM683.602 330H658.511V340H683.602V330ZM663.511 335V295.727H653.511V335H663.511ZM663.511 295.771C663.549 291.446 662.439 287.383 659.577 284.23L652.173 290.951C652.887 291.738 653.534 293.099 653.512 295.683L663.511 295.771ZM659.606 284.262C656.716 281.023 652.786 279.636 648.511 279.636V289.636C650.54 289.636 651.519 290.219 652.144 290.92L659.606 284.262ZM648.511 279.636C645.694 279.636 642.99 280.265 640.567 281.69L645.637 290.31C646.306 289.917 647.207 289.636 648.511 289.636V279.636ZM640.594 281.675C638.171 283.08 636.34 285.117 635.114 287.615L644.091 292.022C644.501 291.186 645.003 290.678 645.611 290.325L640.594 281.675ZM635.13 287.582C633.899 290.044 633.368 292.794 633.33 295.661L643.329 295.793C643.352 294.054 643.669 292.865 644.074 292.054L635.13 287.582ZM707.534 332L704.876 336.235L704.883 336.239L704.89 336.243L707.534 332ZM697.534 320.136L693.007 322.258L693.011 322.268L693.016 322.279L697.534 320.136ZM697.716 279.545L693.244 277.309L693.239 277.32L693.234 277.33L697.716 279.545ZM707.898 267.955L705.367 263.642L705.36 263.646L705.353 263.651L707.898 267.955ZM730.17 266.091L728.062 270.625L728.084 270.635L728.105 270.645L730.17 266.091ZM736.716 270.864L732.96 274.164L732.973 274.178L732.985 274.193L736.716 270.864ZM740.716 277.364L736.049 279.159L737.282 282.364H740.716V277.364ZM741.08 277.364V282.364H746.08V277.364H741.08ZM741.08 241.909V236.909H736.08V241.909H741.08ZM766.17 241.909H771.17V236.909H766.17V241.909ZM766.17 335V340H771.17V335H766.17ZM741.261 335H736.261V340H741.261V335ZM741.261 323.545H746.261V318.545H741.261V323.545ZM740.716 323.545V318.545H737.363L736.09 321.648L740.716 323.545ZM736.534 329.909L732.941 326.432L732.94 326.433L736.534 329.909ZM729.989 334.318L731.912 338.934L731.925 338.928L731.939 338.922L729.989 334.318ZM736.443 314.636L739.602 318.513L739.609 318.506L736.443 314.636ZM740.261 308.909L735.566 307.191L735.56 307.207L735.554 307.224L740.261 308.909ZM740.261 291.227L735.547 292.894L735.56 292.929L735.573 292.964L740.261 291.227ZM736.443 285.545L733.285 289.422L733.324 289.453L733.364 289.484L736.443 285.545ZM724.625 285.545L727.775 289.428L727.783 289.422L724.625 285.545ZM720.898 291.227L716.184 289.56L716.178 289.577L716.172 289.594L720.898 291.227ZM720.898 309L716.166 310.616L716.178 310.651L716.19 310.685L720.898 309ZM724.625 314.682L721.431 318.529L721.47 318.561L721.51 318.593L724.625 314.682ZM721.261 330.909C717.218 330.909 713.56 329.864 710.179 327.757L704.89 336.243C709.872 339.348 715.365 340.909 721.261 340.909V330.909ZM710.192 327.765C706.994 325.758 704.24 322.608 702.052 317.994L693.016 322.279C695.858 328.271 699.771 333.03 704.876 336.235L710.192 327.765ZM702.062 318.015C699.982 313.577 698.807 307.678 698.807 300.091H688.807C688.807 308.625 690.116 316.09 693.007 322.258L702.062 318.015ZM698.807 300.091C698.807 292.126 700.047 286.113 702.198 281.761L693.234 277.33C690.172 283.524 688.807 291.208 688.807 300.091H698.807ZM702.188 281.782C704.49 277.177 707.286 274.125 710.442 272.259L705.353 263.651C700.206 266.694 696.214 271.369 693.244 277.309L702.188 281.782ZM710.429 272.267C713.885 270.238 717.411 269.273 721.08 269.273V259.273C715.536 259.273 710.274 260.762 705.367 263.642L710.429 272.267ZM721.08 269.273C723.95 269.273 726.236 269.775 728.062 270.625L732.279 261.557C728.893 259.982 725.118 259.273 721.08 259.273V269.273ZM728.105 270.645C730.114 271.556 731.705 272.736 732.96 274.164L740.472 267.563C738.212 264.991 735.439 262.99 732.235 261.537L728.105 270.645ZM732.985 274.193C734.358 275.731 735.366 277.382 736.049 279.159L745.383 275.569C744.248 272.618 742.589 269.936 740.447 267.535L732.985 274.193ZM740.716 282.364H741.08V272.364H740.716V282.364ZM746.08 277.364V241.909H736.08V277.364H746.08ZM741.08 246.909H766.17V236.909H741.08V246.909ZM761.17 241.909V335H771.17V241.909H761.17ZM766.17 330H741.261V340H766.17V330ZM746.261 335V323.545H736.261V335H746.261ZM741.261 318.545H740.716V328.545H741.261V318.545ZM736.09 321.648C735.367 323.41 734.328 324.998 732.941 326.432L740.127 333.386C742.376 331.062 744.125 328.408 745.342 325.443L736.09 321.648ZM732.94 326.433C731.659 327.758 730.051 328.862 728.039 329.714L731.939 338.922C735.078 337.593 737.834 335.757 740.128 333.385L732.94 326.433ZM728.066 329.703C726.232 330.467 723.995 330.909 721.261 330.909V340.909C725.073 340.909 728.654 340.291 731.912 338.934L728.066 329.703ZM730.534 321.636C733.876 321.636 736.99 320.641 739.602 318.513L733.285 310.76C732.624 311.299 731.798 311.636 730.534 311.636V321.636ZM739.609 318.506C742.113 316.457 743.849 313.723 744.969 310.594L735.554 307.224C734.917 309.004 734.106 310.088 733.277 310.767L739.609 318.506ZM744.957 310.627C746.115 307.461 746.625 303.913 746.625 300.091H736.625C736.625 303.057 736.226 305.388 735.566 307.191L744.957 310.627ZM746.625 300.091C746.625 296.222 746.119 292.647 744.95 289.491L735.573 292.964C736.222 294.716 736.625 297.05 736.625 300.091H746.625ZM744.975 289.56C743.857 286.398 742.104 283.625 739.523 281.606L733.364 289.484C734.115 290.072 734.908 291.087 735.547 292.894L744.975 289.56ZM739.602 281.669C736.99 279.541 733.876 278.545 730.534 278.545V288.545C731.798 288.545 732.624 288.883 733.285 289.422L739.602 281.669ZM730.534 278.545C727.192 278.545 724.078 279.541 721.467 281.669L727.783 289.422C728.444 288.883 729.27 288.545 730.534 288.545V278.545ZM721.475 281.663C718.982 283.685 717.287 286.442 716.184 289.56L725.612 292.894C726.266 291.043 727.056 290.012 727.775 289.428L721.475 281.663ZM716.172 289.594C715.093 292.715 714.625 296.253 714.625 300.091H724.625C724.625 297.02 725.005 294.649 725.623 292.861L716.172 289.594ZM714.625 300.091C714.625 303.932 715.094 307.476 716.166 310.616L725.629 307.384C725.005 305.554 724.625 303.159 724.625 300.091H714.625ZM716.19 310.685C717.297 313.775 718.984 316.497 721.431 318.529L727.819 310.835C727.054 310.2 726.257 309.134 725.605 307.315L716.19 310.685ZM721.51 318.593C724.122 320.673 727.221 321.636 730.534 321.636V311.636C729.241 311.636 728.4 311.297 727.74 310.77L721.51 318.593ZM824.307 288.455H829.307V283.455H824.307V288.455ZM824.307 307.364V312.364H829.307V307.364H824.307ZM780.67 307.364H775.67V312.364H780.67V307.364ZM780.67 288.455V283.455H775.67V288.455H780.67ZM819.307 288.455V307.364H829.307V288.455H819.307ZM824.307 302.364H780.67V312.364H824.307V302.364ZM785.67 307.364V288.455H775.67V307.364H785.67ZM780.67 293.455H824.307V283.455H780.67V293.455ZM864.148 241.909H869.148V236.909H864.148V241.909ZM864.148 335V340H869.148V335H864.148ZM838.875 335H833.875V340H838.875V335ZM838.875 241.909V236.909H833.875V241.909H838.875ZM859.148 241.909V335H869.148V241.909H859.148ZM864.148 330H838.875V340H864.148V330ZM843.875 335V241.909H833.875V335H843.875ZM838.875 246.909H864.148V236.909H838.875V246.909ZM918.125 265.182H923.125V260.182H918.125V265.182ZM918.125 283.364V288.364H923.125V283.364H918.125ZM872.125 283.364H867.125V288.364H872.125V283.364ZM872.125 265.182V260.182H867.125V265.182H872.125ZM881.034 248.455V243.455H876.034V248.455H881.034ZM906.125 248.455H911.125V243.455H906.125V248.455ZM906.625 315L902.153 317.236L902.174 317.278L902.196 317.32L906.625 315ZM908.17 316.455L906.013 320.965L906.094 321.004L906.177 321.04L908.17 316.455ZM913.489 316.636L912.62 311.712L912.607 311.715L912.594 311.717L913.489 316.636ZM915.761 316.182L920.658 315.172L919.606 310.067L914.549 311.331L915.761 316.182ZM919.398 333.818L920.823 338.611L925.221 337.303L924.295 332.808L919.398 333.818ZM914.58 335.045L913.45 330.175L913.442 330.177L913.434 330.178L914.58 335.045ZM907.216 336L907.479 340.993L907.482 340.993L907.216 336ZM892.716 334.227L890.909 338.889L890.925 338.895L890.94 338.901L892.716 334.227ZM883.898 327.091L879.624 329.687L883.898 327.091ZM881.034 314.909L886.034 314.971L886.034 314.94V314.909H881.034ZM913.125 265.182V283.364H923.125V265.182H913.125ZM918.125 278.364H872.125V288.364H918.125V278.364ZM877.125 283.364V265.182H867.125V283.364H877.125ZM872.125 270.182H918.125V260.182H872.125V270.182ZM881.034 253.455H906.125V243.455H881.034V253.455ZM901.125 248.455V312.545H911.125V248.455H901.125ZM901.125 312.545C901.125 314.066 901.384 315.698 902.153 317.236L911.097 312.764C911.148 312.867 911.156 312.919 911.149 312.888C911.143 312.855 911.125 312.747 911.125 312.545H901.125ZM902.196 317.32C903.069 318.987 904.42 320.203 906.013 320.965L910.328 311.944C910.402 311.979 910.537 312.058 910.688 312.2C910.842 312.345 910.967 312.513 911.054 312.68L902.196 317.32ZM906.177 321.04C907.714 321.708 909.351 321.909 910.852 321.909V311.909C910.533 311.909 910.321 311.886 910.199 311.866C910.077 311.845 910.079 311.832 910.164 311.869L906.177 321.04ZM910.852 321.909C911.991 321.909 913.181 321.774 914.383 321.556L912.594 311.717C911.796 311.862 911.228 311.909 910.852 311.909V321.909ZM914.358 321.56C915.407 321.375 916.309 321.199 916.974 321.033L914.549 311.331C914.244 311.407 913.631 311.534 912.62 311.712L914.358 321.56ZM910.864 317.192L914.501 334.828L924.295 332.808L920.658 315.172L910.864 317.192ZM917.973 329.025C916.998 329.315 915.509 329.697 913.45 330.175L915.709 339.916C917.832 339.424 919.555 338.988 920.823 338.611L917.973 329.025ZM913.434 330.178C911.742 330.576 909.597 330.866 906.95 331.007L907.482 340.993C910.532 340.831 913.296 340.484 915.725 339.913L913.434 330.178ZM906.953 331.007C901.643 331.286 897.554 330.716 894.491 329.553L890.94 338.901C895.696 340.708 901.273 341.32 907.479 340.993L906.953 331.007ZM894.523 329.565C891.527 328.404 889.508 326.696 888.171 324.495L879.624 329.687C882.227 333.97 886.087 337.02 890.909 338.889L894.523 329.565ZM888.171 324.495C886.809 322.252 885.981 319.178 886.034 314.971L876.034 314.847C875.966 320.398 877.047 325.445 879.624 329.687L888.171 324.495ZM886.034 314.909V248.455H876.034V314.909H886.034Z" fill="url(#paint4_linear_134_2)" mask="url(#path-5-outside-1_134_2)"/>
<path d="M63.5234 34.8515L56 54.625H64.0948L67.8088 43.9341L63.5234 34.8515Z" fill="white"/>
<path d="M74.4751 54.625L64.8566 34H72.7609L82.3794 54.625H74.4751Z" fill="white"/>
<path d="M79.1073 39.0143L76.917 34H84.5356L87.0116 39.0143H79.1073Z" fill="white"/>
<path d="M86.2498 54.625L79.4883 40.3389H87.4878L94.4398 54.625H86.2498Z" fill="white"/>
<path d="M90.882 39.0143L88.6916 34H101.643L104.024 39.0143H90.882Z" fill="white"/>
<path d="M100.405 54.625L93.8342 40.3389H101.643L108.5 54.625H100.405Z" fill="white"/>
<path d="M140.648 39.3636V35.5455H155.818V39.3636H150.568V53H145.898V39.3636H140.648ZM157.602 53V35.5455H170.181V39.3636H162.34V42.3636H169.533V46.1818H162.34V49.1818H170.147V53H157.602ZM188.827 42.0909H184.02C183.986 41.6932 183.895 41.3324 183.747 41.0085C183.605 40.6847 183.406 40.4062 183.151 40.1733C182.901 39.9347 182.597 39.7528 182.239 39.6278C181.881 39.4972 181.474 39.4318 181.02 39.4318C180.224 39.4318 179.551 39.625 179 40.0114C178.455 40.3977 178.04 40.9517 177.756 41.6733C177.477 42.3949 177.338 43.2614 177.338 44.2727C177.338 45.3409 177.48 46.2358 177.764 46.9574C178.054 47.6733 178.472 48.2131 179.017 48.5767C179.563 48.9347 180.219 49.1136 180.986 49.1136C181.423 49.1136 181.815 49.0597 182.162 48.9517C182.509 48.8381 182.81 48.6761 183.065 48.4659C183.321 48.2557 183.528 48.0028 183.688 47.7074C183.852 47.4062 183.963 47.0682 184.02 46.6932L188.827 46.7273C188.77 47.4659 188.563 48.2187 188.205 48.9858C187.847 49.7472 187.338 50.4517 186.679 51.0994C186.026 51.7415 185.216 52.2585 184.25 52.6506C183.284 53.0426 182.162 53.2386 180.884 53.2386C179.281 53.2386 177.844 52.8949 176.571 52.2074C175.304 51.5199 174.301 50.5085 173.562 49.1733C172.83 47.8381 172.463 46.2045 172.463 44.2727C172.463 42.3295 172.838 40.6932 173.588 39.3636C174.338 38.0284 175.349 37.0199 176.622 36.3381C177.895 35.6506 179.315 35.3068 180.884 35.3068C181.986 35.3068 183 35.4574 183.926 35.7585C184.852 36.0597 185.665 36.5 186.364 37.0795C187.063 37.6534 187.625 38.3608 188.051 39.2017C188.477 40.0426 188.736 41.0057 188.827 42.0909ZM190.977 53V35.5455H195.715V42.3636H201.988V35.5455H206.727V53H201.988V46.1818H195.715V53H190.977ZM224.079 35.5455V53H220.124L213.817 43.8295H213.715V53H208.977V35.5455H212.999L219.204 44.6818H219.34V35.5455H224.079ZM243.229 44.2727C243.229 46.2159 242.852 47.8551 242.096 49.1903C241.34 50.5199 240.32 51.5284 239.036 52.2159C237.752 52.8977 236.32 53.2386 234.741 53.2386C233.15 53.2386 231.712 52.8949 230.428 52.2074C229.15 51.5142 228.133 50.5028 227.377 49.1733C226.627 47.8381 226.252 46.2045 226.252 44.2727C226.252 42.3295 226.627 40.6932 227.377 39.3636C228.133 38.0284 229.15 37.0199 230.428 36.3381C231.712 35.6506 233.15 35.3068 234.741 35.3068C236.32 35.3068 237.752 35.6506 239.036 36.3381C240.32 37.0199 241.34 38.0284 242.096 39.3636C242.852 40.6932 243.229 42.3295 243.229 44.2727ZM238.354 44.2727C238.354 43.2273 238.215 42.3466 237.937 41.6307C237.664 40.9091 237.258 40.3636 236.718 39.9943C236.184 39.6193 235.525 39.4318 234.741 39.4318C233.957 39.4318 233.295 39.6193 232.755 39.9943C232.221 40.3636 231.815 40.9091 231.536 41.6307C231.263 42.3466 231.127 43.2273 231.127 44.2727C231.127 45.3182 231.263 46.2017 231.536 46.9233C231.815 47.6392 232.221 48.1847 232.755 48.5597C233.295 48.929 233.957 49.1136 234.741 49.1136C235.525 49.1136 236.184 48.929 236.718 48.5597C237.258 48.1847 237.664 47.6392 237.937 46.9233C238.215 46.2017 238.354 45.3182 238.354 44.2727ZM254.831 41C254.786 40.4318 254.572 39.9886 254.192 39.6705C253.817 39.3523 253.246 39.1932 252.479 39.1932C251.99 39.1932 251.589 39.2528 251.277 39.3722C250.97 39.4858 250.743 39.642 250.595 39.8409C250.447 40.0398 250.371 40.267 250.365 40.5227C250.354 40.733 250.391 40.9233 250.476 41.0938C250.567 41.2585 250.709 41.4091 250.902 41.5455C251.095 41.6761 251.342 41.7955 251.643 41.9034C251.945 42.0114 252.303 42.108 252.717 42.1932L254.149 42.5C255.115 42.7045 255.942 42.9744 256.629 43.3097C257.317 43.6449 257.879 44.0398 258.317 44.4943C258.754 44.9432 259.075 45.4489 259.28 46.0114C259.49 46.5739 259.598 47.1875 259.604 47.8523C259.598 49 259.311 49.9716 258.743 50.767C258.175 51.5625 257.362 52.1676 256.305 52.5824C255.254 52.9972 253.99 53.2045 252.513 53.2045C250.996 53.2045 249.672 52.9801 248.541 52.5312C247.416 52.0824 246.541 51.392 245.916 50.4602C245.297 49.5227 244.984 48.3239 244.979 46.8636H249.479C249.507 47.3977 249.641 47.8466 249.879 48.2102C250.118 48.5739 250.453 48.8494 250.885 49.0369C251.322 49.2244 251.842 49.3182 252.445 49.3182C252.95 49.3182 253.374 49.2557 253.714 49.1307C254.055 49.0057 254.314 48.8324 254.49 48.6108C254.666 48.3892 254.757 48.1364 254.763 47.8523C254.757 47.5852 254.669 47.3523 254.499 47.1534C254.334 46.9489 254.061 46.767 253.68 46.608C253.3 46.4432 252.786 46.2898 252.138 46.1477L250.399 45.7727C248.854 45.4375 247.635 44.8778 246.743 44.0938C245.857 43.304 245.416 42.2273 245.422 40.8636C245.416 39.7557 245.712 38.7869 246.308 37.9574C246.911 37.1222 247.743 36.4716 248.805 36.0057C249.874 35.5398 251.098 35.3068 252.479 35.3068C253.888 35.3068 255.107 35.5426 256.135 36.0142C257.163 36.4858 257.956 37.1506 258.513 38.0085C259.075 38.8608 259.359 39.858 259.365 41H254.831ZM261.406 53V35.5455H268.94C270.236 35.5455 271.369 35.8011 272.341 36.3125C273.313 36.8239 274.068 37.5426 274.608 38.4688C275.148 39.3949 275.418 40.4773 275.418 41.7159C275.418 42.9659 275.139 44.0483 274.582 44.9631C274.031 45.8778 273.256 46.5824 272.256 47.0767C271.261 47.571 270.099 47.8182 268.77 47.8182H264.27V44.1364H267.815C268.372 44.1364 268.847 44.0398 269.239 43.8466C269.636 43.6477 269.94 43.3665 270.151 43.0028C270.366 42.6392 270.474 42.2102 270.474 41.7159C270.474 41.2159 270.366 40.7898 270.151 40.4375C269.94 40.0795 269.636 39.8068 269.239 39.6193C268.847 39.4261 268.372 39.3295 267.815 39.3295H266.145V53H261.406ZM279.511 53H274.397L280.158 35.5455H286.636L292.397 53H287.283L283.465 40.3523H283.329L279.511 53ZM278.556 46.1136H288.17V49.6591H278.556V46.1136ZM294.078 53V35.5455H301.612C302.908 35.5455 304.041 35.7812 305.013 36.2528C305.984 36.7244 306.74 37.4034 307.28 38.2898C307.82 39.1761 308.089 40.2386 308.089 41.4773C308.089 42.7273 307.811 43.7812 307.254 44.6392C306.703 45.4972 305.928 46.1449 304.928 46.5824C303.933 47.0199 302.771 47.2386 301.442 47.2386H296.942V43.5568H300.487C301.044 43.5568 301.518 43.4886 301.911 43.3523C302.308 43.2102 302.612 42.9858 302.822 42.679C303.038 42.3722 303.146 41.9716 303.146 41.4773C303.146 40.9773 303.038 40.571 302.822 40.2585C302.612 39.9403 302.308 39.7074 301.911 39.5597C301.518 39.4062 301.044 39.3295 300.487 39.3295H298.817V53H294.078ZM304.305 44.9886L308.669 53H303.521L299.26 44.9886H304.305ZM315.189 35.5455L318.053 40.625H318.189L321.087 35.5455H326.371L321.155 44.2727L326.575 53H321.155L318.189 47.8182H318.053L315.087 53H309.7L315.053 44.2727L309.871 35.5455H315.189Z" fill="white"/>
<g opacity="0.45" clip-path="url(#clip1_134_2)">
<path d="M1117.25 111.266V143.007H1057.61V117.756L1000.01 158.878L1057.61 200V174.749H1151.05V111.266H1117.25ZM1145.08 169.147H1051.65V188.708L1009.86 158.878L1051.65 129.048V148.609H1123.22V116.867H1145.08V169.147H1145.08Z" fill="url(#paint5_linear_134_2)" fill-opacity="0.77"/>
<path d="M1026.65 156.673L1022.99 161.095L1040.89 174.165L1044.55 169.743L1026.65 156.673Z" fill="url(#paint6_linear_134_2)" fill-opacity="0.77"/>
<path d="M1152.99 71.1221L1095.39 30V55.2513H1001.95V118.734H1035.75V86.9928H1095.39V112.244L1152.99 71.1221ZM1029.78 81.3915V113.133H1007.92V60.8527H1101.35V41.2924L1143.14 71.1221L1101.35 100.952V81.3915H1029.78Z" fill="url(#paint7_linear_134_2)" fill-opacity="0.77"/>
<path d="M1112.14 55.8395L1108.48 60.2612L1126.37 73.3309L1130.03 68.9091L1112.14 55.8395Z" fill="url(#paint8_linear_134_2)" fill-opacity="0.77"/>
</g>
<g clip-path="url(#clip2_134_2)">
<path d="M211.25 592.774C201.297 592.774 193.074 586.975 192.039 579.555H167.211C166.176 586.975 157.959 592.774 148 592.774C137.345 592.774 128.68 586.129 128.68 577.969C128.68 570.341 136.247 564.04 145.93 563.247V544.221C136.247 543.428 128.68 537.131 128.68 529.5C128.68 521.873 136.247 515.572 145.93 514.779V495.752C136.925 495.017 129.755 489.518 128.789 482.617H103.961C102.926 490.037 94.7032 495.836 84.7499 495.836C74.0952 495.836 65.4299 489.196 65.4299 481.031C65.4299 472.866 74.0952 466.226 84.7499 466.226C94.7032 466.226 102.926 472.025 103.961 479.445H128.789C129.824 472.025 138.047 466.226 148 466.226C158.655 466.226 167.32 472.866 167.32 481.031C167.32 488.658 159.753 494.959 150.07 495.752V514.779C159.753 515.572 167.32 521.873 167.32 529.5C167.32 537.127 159.753 543.428 150.07 544.221V563.247C159.074 563.983 166.25 569.482 167.211 576.378H192.039C193.074 568.958 201.291 563.159 211.25 563.159C221.905 563.159 230.57 569.804 230.57 577.964C230.57 586.125 221.905 592.774 211.25 592.774ZM211.25 566.336C202.878 566.336 196.07 571.553 196.07 577.969C196.07 584.384 202.878 589.601 211.25 589.601C219.622 589.601 226.43 584.384 226.43 577.969C226.43 571.553 219.622 566.336 211.25 566.336ZM148 566.336C139.628 566.336 132.82 571.553 132.82 577.969C132.82 584.384 139.634 589.601 148 589.601C156.372 589.601 163.18 584.384 163.18 577.969C163.18 571.553 156.372 566.336 148 566.336ZM148 517.867C139.628 517.867 132.82 523.089 132.82 529.5C132.82 535.915 139.634 541.132 148 541.132C156.372 541.132 163.18 535.915 163.18 529.5C163.18 523.084 156.372 517.867 148 517.867ZM148 469.399C139.628 469.399 132.82 474.62 132.82 481.031C132.82 487.442 139.628 492.664 148 492.664C156.372 492.664 163.18 487.442 163.18 481.031C163.18 474.62 156.372 469.399 148 469.399ZM84.7499 469.399C76.3779 469.399 69.5699 474.616 69.5699 481.031C69.5699 487.447 76.3779 492.664 84.7499 492.664C93.1219 492.664 99.9299 487.447 99.9299 481.031C99.9299 474.616 93.1219 469.399 84.7499 469.399ZM84.7499 592.774C74.0952 592.774 65.4299 586.129 65.4299 577.969C65.4299 569.808 74.0952 563.164 84.7499 563.164C95.4047 563.164 104.07 569.804 104.07 577.969C104.07 586.133 95.4047 592.774 84.7499 592.774ZM84.7499 566.336C76.3779 566.336 69.5699 571.553 69.5699 577.969C69.5699 584.384 76.3779 589.601 84.7499 589.601C93.1219 589.601 99.9299 584.384 99.9299 577.969C99.9299 571.553 93.1219 566.336 84.7499 566.336ZM211.25 544.305C200.595 544.305 191.93 537.66 191.93 529.5C191.93 521.339 200.601 514.695 211.25 514.695C221.899 514.695 230.57 521.335 230.57 529.5C230.57 537.665 221.905 544.305 211.25 544.305ZM211.25 517.867C202.878 517.867 196.07 523.089 196.07 529.5C196.07 535.915 202.878 541.132 211.25 541.132C219.622 541.132 226.43 535.915 226.43 529.5C226.43 523.084 219.622 517.867 211.25 517.867ZM84.7499 544.305C74.0952 544.305 65.4299 537.66 65.4299 529.5C65.4299 521.339 74.0952 514.695 84.7499 514.695C95.4047 514.695 104.07 521.335 104.07 529.5C104.07 537.665 95.4047 544.305 84.7499 544.305ZM84.7499 517.867C76.3779 517.867 69.5699 523.089 69.5699 529.5C69.5699 535.915 76.3837 541.132 84.7499 541.132C93.1162 541.132 99.9299 535.915 99.9299 529.5C99.9299 523.084 93.1219 517.867 84.7499 517.867ZM211.25 495.836C200.595 495.836 191.93 489.196 191.93 481.031C191.93 472.866 200.595 466.226 211.25 466.226C221.905 466.226 230.57 472.866 230.57 481.031C230.57 489.196 221.905 495.836 211.25 495.836ZM211.25 469.399C202.878 469.399 196.07 474.62 196.07 481.031C196.07 487.442 202.878 492.664 211.25 492.664C219.622 492.664 226.43 487.447 226.43 481.031C226.43 474.616 219.622 469.399 211.25 469.399Z" fill="url(#paint9_linear_134_2)" fill-opacity="0.45"/>
</g>
</g>
<defs>
<linearGradient id="paint0_linear_134_2" x1="-63.757" y1="-34.0071" x2="-63.757" y2="347.166" gradientUnits="userSpaceOnUse">
<stop stop-color="#FF9E0B"/>
<stop offset="1" stop-color="#EC4899"/>
</linearGradient>
<linearGradient id="paint1_linear_134_2" x1="1173" y1="695.827" x2="1173" y2="969.442" gradientUnits="userSpaceOnUse">
<stop stop-color="#FF9E0B"/>
<stop offset="1" stop-color="#F24E52"/>
</linearGradient>
<linearGradient id="paint2_linear_134_2" x1="882.5" y1="530" x2="882.5" y2="919" gradientUnits="userSpaceOnUse">
<stop stop-color="#FF9E0B"/>
<stop offset="1" stop-color="#9C67E7"/>
</linearGradient>
<linearGradient id="paint3_linear_134_2" x1="491" y1="30" x2="491" y2="162" gradientUnits="userSpaceOnUse">
<stop stop-color="#FF9E0B"/>
<stop offset="1" stop-color="#DA46EB"/>
</linearGradient>
<linearGradient id="paint4_linear_134_2" x1="599.5" y1="211" x2="599.5" y2="378" gradientUnits="userSpaceOnUse">
<stop stop-color="#FF9E0B"/>
<stop offset="0.49" stop-color="#F24E52"/>
</linearGradient>
<linearGradient id="paint5_linear_134_2" x1="1075.53" y1="111.266" x2="1075.53" y2="200" gradientUnits="userSpaceOnUse">
<stop stop-color="#FD9314"/>
<stop offset="1" stop-color="#DA46EB" stop-opacity="0.57"/>
</linearGradient>
<linearGradient id="paint6_linear_134_2" x1="1024.82" y1="158.884" x2="1041.86" y2="172.99" gradientUnits="userSpaceOnUse">
<stop stop-color="#FD9314"/>
<stop offset="1" stop-color="#DA46EB" stop-opacity="0.57"/>
</linearGradient>
<linearGradient id="paint7_linear_134_2" x1="1077.47" y1="30" x2="1077.47" y2="118.734" gradientUnits="userSpaceOnUse">
<stop stop-color="#FD9314"/>
<stop offset="1" stop-color="#DA46EB" stop-opacity="0.57"/>
</linearGradient>
<linearGradient id="paint8_linear_134_2" x1="1110.31" y1="58.0504" x2="1127.34" y2="72.1559" gradientUnits="userSpaceOnUse">
<stop stop-color="#FD9314"/>
<stop offset="1" stop-color="#DA46EB" stop-opacity="0.57"/>
</linearGradient>
<linearGradient id="paint9_linear_134_2" x1="148" y1="466.226" x2="148" y2="592.774" gradientUnits="userSpaceOnUse">
<stop stop-color="#F24E52"/>
<stop offset="1" stop-color="#EC4898"/>
</linearGradient>
<clipPath id="clip0_134_2">
<rect width="1200" height="630" fill="white"/>
</clipPath>
<clipPath id="clip1_134_2">
<rect width="181" height="170" fill="white" transform="translate(986 30)"/>
</clipPath>
<clipPath id="clip2_134_2">
<rect width="184" height="141" fill="white" transform="translate(56 459)"/>
</clipPath>
</defs>
</svg>
