<svg width="1200" height="630" viewBox="0 0 1200 630" fill="none" xmlns="http://www.w3.org/2000/svg">
<g clip-path="url(#clip0_148_109)">
<rect width="1200" height="630" fill="black"/>
<rect x="-427.809" y="-32.4841" width="729.486" height="376.173" transform="rotate(-19.4848 -427.809 -32.4841)" stroke="url(#paint0_linear_148_109)" stroke-width="5"/>
<rect x="883" y="695.827" width="580" height="273.616" transform="rotate(-35.26 883 695.827)" fill="url(#paint1_linear_148_109)"/>
<circle cx="882.5" cy="724.5" r="193" stroke="url(#paint2_linear_148_109)" stroke-width="3"/>
<path opacity="0.49" d="M415 58.3636C414.121 58.3636 413.367 58.0568 412.739 57.4432C412.117 56.822 411.811 56.0682 411.818 55.1818C411.811 54.3182 412.117 53.5795 412.739 52.9659C413.367 52.3523 414.121 52.0455 415 52.0455C415.833 52.0455 416.568 52.3523 417.205 52.9659C417.848 53.5795 418.174 54.3182 418.182 55.1818C418.174 55.7727 418.019 56.3106 417.716 56.7955C417.42 57.2727 417.034 57.6553 416.557 57.9432C416.08 58.2235 415.561 58.3636 415 58.3636ZM459.003 58.3636C458.124 58.3636 457.37 58.0568 456.741 57.4432C456.12 56.822 455.813 56.0682 455.821 55.1818C455.813 54.3182 456.12 53.5795 456.741 52.9659C457.37 52.3523 458.124 52.0455 459.003 52.0455C459.836 52.0455 460.571 52.3523 461.207 52.9659C461.851 53.5795 462.177 54.3182 462.184 55.1818C462.177 55.7727 462.021 56.3106 461.718 56.7955C461.423 57.2727 461.037 57.6553 460.559 57.9432C460.082 58.2235 459.563 58.3636 459.003 58.3636ZM503.005 58.3636C502.126 58.3636 501.372 58.0568 500.744 57.4432C500.122 56.822 499.816 56.0682 499.823 55.1818C499.816 54.3182 500.122 53.5795 500.744 52.9659C501.372 52.3523 502.126 52.0455 503.005 52.0455C503.838 52.0455 504.573 52.3523 505.21 52.9659C505.853 53.5795 506.179 54.3182 506.187 55.1818C506.179 55.7727 506.024 56.3106 505.721 56.7955C505.425 57.2727 505.039 57.6553 504.562 57.9432C504.085 58.2235 503.566 58.3636 503.005 58.3636ZM547.008 58.3636C546.129 58.3636 545.375 58.0568 544.746 57.4432C544.125 56.822 543.818 56.0682 543.826 55.1818C543.818 54.3182 544.125 53.5795 544.746 52.9659C545.375 52.3523 546.129 52.0455 547.008 52.0455C547.841 52.0455 548.576 52.3523 549.212 52.9659C549.856 53.5795 550.182 54.3182 550.189 55.1818C550.182 55.7727 550.026 56.3106 549.723 56.7955C549.428 57.2727 549.042 57.6553 548.564 57.9432C548.087 58.2235 547.568 58.3636 547.008 58.3636ZM415 91.3636C414.121 91.3636 413.367 91.0568 412.739 90.4432C412.117 89.822 411.811 89.0682 411.818 88.1818C411.811 87.3182 412.117 86.5795 412.739 85.9659C413.367 85.3523 414.121 85.0455 415 85.0455C415.833 85.0455 416.568 85.3523 417.205 85.9659C417.848 86.5795 418.174 87.3182 418.182 88.1818C418.174 88.7727 418.019 89.3106 417.716 89.7955C417.42 90.2727 417.034 90.6553 416.557 90.9432C416.08 91.2235 415.561 91.3636 415 91.3636ZM459.003 91.3636C458.124 91.3636 457.37 91.0568 456.741 90.4432C456.12 89.822 455.813 89.0682 455.821 88.1818C455.813 87.3182 456.12 86.5795 456.741 85.9659C457.37 85.3523 458.124 85.0455 459.003 85.0455C459.836 85.0455 460.571 85.3523 461.207 85.9659C461.851 86.5795 462.177 87.3182 462.184 88.1818C462.177 88.7727 462.021 89.3106 461.718 89.7955C461.423 90.2727 461.037 90.6553 460.559 90.9432C460.082 91.2235 459.563 91.3636 459.003 91.3636ZM503.005 91.3636C502.126 91.3636 501.372 91.0568 500.744 90.4432C500.122 89.822 499.816 89.0682 499.823 88.1818C499.816 87.3182 500.122 86.5795 500.744 85.9659C501.372 85.3523 502.126 85.0455 503.005 85.0455C503.838 85.0455 504.573 85.3523 505.21 85.9659C505.853 86.5795 506.179 87.3182 506.187 88.1818C506.179 88.7727 506.024 89.3106 505.721 89.7955C505.425 90.2727 505.039 90.6553 504.562 90.9432C504.085 91.2235 503.566 91.3636 503.005 91.3636ZM547.008 91.3636C546.129 91.3636 545.375 91.0568 544.746 90.4432C544.125 89.822 543.818 89.0682 543.826 88.1818C543.818 87.3182 544.125 86.5795 544.746 85.9659C545.375 85.3523 546.129 85.0455 547.008 85.0455C547.841 85.0455 548.576 85.3523 549.212 85.9659C549.856 86.5795 550.182 87.3182 550.189 88.1818C550.182 88.7727 550.026 89.3106 549.723 89.7955C549.428 90.2727 549.042 90.6553 548.564 90.9432C548.087 91.2235 547.568 91.3636 547.008 91.3636ZM415 124.364C414.121 124.364 413.367 124.057 412.739 123.443C412.117 122.822 411.811 122.068 411.818 121.182C411.811 120.318 412.117 119.58 412.739 118.966C413.367 118.352 414.121 118.045 415 118.045C415.833 118.045 416.568 118.352 417.205 118.966C417.848 119.58 418.174 120.318 418.182 121.182C418.174 121.773 418.019 122.311 417.716 122.795C417.42 123.273 417.034 123.655 416.557 123.943C416.08 124.223 415.561 124.364 415 124.364ZM459.003 124.364C458.124 124.364 457.37 124.057 456.741 123.443C456.12 122.822 455.813 122.068 455.821 121.182C455.813 120.318 456.12 119.58 456.741 118.966C457.37 118.352 458.124 118.045 459.003 118.045C459.836 118.045 460.571 118.352 461.207 118.966C461.851 119.58 462.177 120.318 462.184 121.182C462.177 121.773 462.021 122.311 461.718 122.795C461.423 123.273 461.037 123.655 460.559 123.943C460.082 124.223 459.563 124.364 459.003 124.364ZM503.005 124.364C502.126 124.364 501.372 124.057 500.744 123.443C500.122 122.822 499.816 122.068 499.823 121.182C499.816 120.318 500.122 119.58 500.744 118.966C501.372 118.352 502.126 118.045 503.005 118.045C503.838 118.045 504.573 118.352 505.21 118.966C505.853 119.58 506.179 120.318 506.187 121.182C506.179 121.773 506.024 122.311 505.721 122.795C505.425 123.273 505.039 123.655 504.562 123.943C504.085 124.223 503.566 124.364 503.005 124.364ZM547.008 124.364C546.129 124.364 545.375 124.057 544.746 123.443C544.125 122.822 543.818 122.068 543.826 121.182C543.818 120.318 544.125 119.58 544.746 118.966C545.375 118.352 546.129 118.045 547.008 118.045C547.841 118.045 548.576 118.352 549.212 118.966C549.856 119.58 550.182 120.318 550.189 121.182C550.182 121.773 550.026 122.311 549.723 122.795C549.428 123.273 549.042 123.655 548.564 123.943C548.087 124.223 547.568 124.364 547.008 124.364ZM415 157.364C414.121 157.364 413.367 157.057 412.739 156.443C412.117 155.822 411.811 155.068 411.818 154.182C411.811 153.318 412.117 152.58 412.739 151.966C413.367 151.352 414.121 151.045 415 151.045C415.833 151.045 416.568 151.352 417.205 151.966C417.848 152.58 418.174 153.318 418.182 154.182C418.174 154.773 418.019 155.311 417.716 155.795C417.42 156.273 417.034 156.655 416.557 156.943C416.08 157.223 415.561 157.364 415 157.364ZM459.003 157.364C458.124 157.364 457.37 157.057 456.741 156.443C456.12 155.822 455.813 155.068 455.821 154.182C455.813 153.318 456.12 152.58 456.741 151.966C457.37 151.352 458.124 151.045 459.003 151.045C459.836 151.045 460.571 151.352 461.207 151.966C461.851 152.58 462.177 153.318 462.184 154.182C462.177 154.773 462.021 155.311 461.718 155.795C461.423 156.273 461.037 156.655 460.559 156.943C460.082 157.223 459.563 157.364 459.003 157.364ZM503.005 157.364C502.126 157.364 501.372 157.057 500.744 156.443C500.122 155.822 499.816 155.068 499.823 154.182C499.816 153.318 500.122 152.58 500.744 151.966C501.372 151.352 502.126 151.045 503.005 151.045C503.838 151.045 504.573 151.352 505.21 151.966C505.853 152.58 506.179 153.318 506.187 154.182C506.179 154.773 506.024 155.311 505.721 155.795C505.425 156.273 505.039 156.655 504.562 156.943C504.085 157.223 503.566 157.364 503.005 157.364ZM547.008 157.364C546.129 157.364 545.375 157.057 544.746 156.443C544.125 155.822 543.818 155.068 543.826 154.182C543.818 153.318 544.125 152.58 544.746 151.966C545.375 151.352 546.129 151.045 547.008 151.045C547.841 151.045 548.576 151.352 549.212 151.966C549.856 152.58 550.182 153.318 550.189 154.182C550.182 154.773 550.026 155.311 549.723 155.795C549.428 156.273 549.042 156.655 548.564 156.943C548.087 157.223 547.568 157.364 547.008 157.364Z" fill="url(#paint3_linear_148_109)"/>
<mask id="path-5-outside-1_148_109" maskUnits="userSpaceOnUse" x="364" y="263" width="480" height="131" fill="black">
<rect fill="white" x="364" y="263" width="480" height="131"/>
<path d="M369 362V268.909H409.364C416.455 268.909 422.409 269.864 427.227 271.773C432.076 273.682 435.727 276.379 438.182 279.864C440.667 283.348 441.909 287.455 441.909 292.182C441.909 295.606 441.152 298.727 439.636 301.545C438.152 304.364 436.061 306.727 433.364 308.636C430.667 310.515 427.515 311.818 423.909 312.545V313.455C427.909 313.606 431.545 314.621 434.818 316.5C438.091 318.348 440.697 320.909 442.636 324.182C444.576 327.424 445.545 331.242 445.545 335.636C445.545 340.727 444.212 345.258 441.545 349.227C438.909 353.197 435.152 356.318 430.273 358.591C425.394 360.864 419.576 362 412.818 362H369ZM394.273 341.818H406.091C410.333 341.818 413.515 341.03 415.636 339.455C417.758 337.848 418.818 335.485 418.818 332.364C418.818 330.182 418.318 328.333 417.318 326.818C416.318 325.303 414.894 324.152 413.045 323.364C411.227 322.576 409.03 322.182 406.455 322.182H394.273V341.818ZM394.273 306.545H404.636C406.848 306.545 408.803 306.197 410.5 305.5C412.197 304.803 413.515 303.803 414.455 302.5C415.424 301.167 415.909 299.545 415.909 297.636C415.909 294.758 414.879 292.561 412.818 291.045C410.758 289.5 408.152 288.727 405 288.727H394.273V306.545ZM479.955 268.909V362H454.864V268.909H479.955ZM526.375 363.273C518.799 363.273 512.314 361.773 506.92 358.773C501.527 355.742 497.39 351.53 494.511 346.136C491.633 340.712 490.193 334.424 490.193 327.273C490.193 320.121 491.633 313.848 494.511 308.455C497.39 303.03 501.527 298.818 506.92 295.818C512.314 292.788 518.799 291.273 526.375 291.273C533.951 291.273 540.436 292.788 545.83 295.818C551.223 298.818 555.36 303.03 558.239 308.455C561.117 313.848 562.557 320.121 562.557 327.273C562.557 334.424 561.117 340.712 558.239 346.136C555.36 351.53 551.223 355.742 545.83 358.773C540.436 361.773 533.951 363.273 526.375 363.273ZM526.557 344.727C528.678 344.727 530.511 344.015 532.057 342.591C533.602 341.167 534.799 339.136 535.648 336.5C536.496 333.864 536.92 330.727 536.92 327.091C536.92 323.424 536.496 320.288 535.648 317.682C534.799 315.045 533.602 313.015 532.057 311.591C530.511 310.167 528.678 309.455 526.557 309.455C524.314 309.455 522.39 310.167 520.784 311.591C519.178 313.015 517.951 315.045 517.102 317.682C516.254 320.288 515.83 323.424 515.83 327.091C515.83 330.727 516.254 333.864 517.102 336.5C517.951 339.136 519.178 341.167 520.784 342.591C522.39 344.015 524.314 344.727 526.557 344.727ZM606.375 363.273C598.799 363.273 592.314 361.773 586.92 358.773C581.527 355.742 577.39 351.53 574.511 346.136C571.633 340.712 570.193 334.424 570.193 327.273C570.193 320.121 571.633 313.848 574.511 308.455C577.39 303.03 581.527 298.818 586.92 295.818C592.314 292.788 598.799 291.273 606.375 291.273C613.223 291.273 619.148 292.515 624.148 295C629.178 297.455 633.072 300.939 635.83 305.455C638.587 309.939 639.981 315.212 640.011 321.273H616.739C616.405 317.606 615.345 314.818 613.557 312.909C611.799 310.97 609.527 310 606.739 310C604.557 310 602.648 310.636 601.011 311.909C599.375 313.152 598.102 315.045 597.193 317.591C596.284 320.106 595.83 323.273 595.83 327.091C595.83 330.909 596.284 334.091 597.193 336.636C598.102 339.152 599.375 341.045 601.011 342.318C602.648 343.561 604.557 344.182 606.739 344.182C608.587 344.182 610.223 343.758 611.648 342.909C613.072 342.03 614.223 340.758 615.102 339.091C616.011 337.394 616.557 335.333 616.739 332.909H640.011C639.92 339.061 638.511 344.424 635.784 349C633.057 353.545 629.193 357.061 624.193 359.545C619.223 362.03 613.284 363.273 606.375 363.273ZM672.909 345.455L673.091 315.636H676.364L693.273 292.182H721.455L693.091 328.727H686L672.909 345.455ZM650.364 362V268.909H675.455V362H650.364ZM693.455 362L677.455 334.364L693.818 316.545L722.182 362H693.455ZM753.08 268.909V362H727.989V268.909H753.08ZM781.136 388.182C778.258 388.182 775.515 387.955 772.909 387.5C770.303 387.076 768.015 386.485 766.045 385.727L771.5 367.909C773.561 368.636 775.439 369.106 777.136 369.318C778.864 369.53 780.333 369.409 781.545 368.955C782.788 368.5 783.682 367.636 784.227 366.364L784.773 365.091L760.227 292.182H786.409L797.682 340.545H798.409L809.864 292.182H836.227L810.773 367.818C809.5 371.667 807.652 375.121 805.227 378.182C802.833 381.273 799.682 383.712 795.773 385.5C791.864 387.288 786.985 388.182 781.136 388.182Z"/>
</mask>
<path d="M369 362H364V367H369V362ZM369 268.909V263.909H364V268.909H369ZM427.227 271.773L425.385 276.421L425.395 276.425L427.227 271.773ZM438.182 279.864L434.094 282.743L434.102 282.755L434.111 282.766L438.182 279.864ZM439.636 301.545L435.232 299.178L435.223 299.196L435.213 299.215L439.636 301.545ZM433.364 308.636L436.222 312.739L436.237 312.728L436.252 312.717L433.364 308.636ZM423.909 312.545L422.921 307.644L418.909 308.453V312.545H423.909ZM423.909 313.455H418.909V318.269L423.72 318.451L423.909 313.455ZM434.818 316.5L432.329 320.836L432.344 320.845L432.359 320.854L434.818 316.5ZM442.636 324.182L438.335 326.731L438.34 326.74L438.345 326.748L442.636 324.182ZM441.545 349.227L437.395 346.439L437.388 346.45L437.38 346.461L441.545 349.227ZM430.273 358.591L428.161 354.059L428.161 354.059L430.273 358.591ZM394.273 341.818H389.273V346.818H394.273V341.818ZM415.636 339.455L418.618 343.468L418.636 343.455L418.655 343.441L415.636 339.455ZM413.045 323.364L411.057 327.951L411.071 327.957L411.085 327.963L413.045 323.364ZM394.273 322.182V317.182H389.273V322.182H394.273ZM394.273 306.545H389.273V311.545H394.273V306.545ZM410.5 305.5L412.4 310.125L412.4 310.125L410.5 305.5ZM414.455 302.5L410.411 299.559L410.405 299.568L410.399 299.576L414.455 302.5ZM412.818 291.045L409.818 295.045L409.837 295.06L409.856 295.074L412.818 291.045ZM394.273 288.727V283.727H389.273V288.727H394.273ZM374 362V268.909H364V362H374ZM369 273.909H409.364V263.909H369V273.909ZM409.364 273.909C416.041 273.909 421.326 274.813 425.385 276.421L429.069 267.124C423.492 264.915 416.868 263.909 409.364 263.909V273.909ZM425.395 276.425C429.539 278.056 432.316 280.219 434.094 282.743L442.27 276.984C439.138 272.539 434.613 269.307 429.059 267.12L425.395 276.425ZM434.111 282.766C435.928 285.316 436.909 288.381 436.909 292.182H446.909C446.909 286.528 445.405 281.381 442.253 276.961L434.111 282.766ZM436.909 292.182C436.909 294.839 436.329 297.138 435.232 299.178L444.04 303.913C445.974 300.316 446.909 296.373 446.909 292.182H436.909ZM435.213 299.215C434.109 301.311 432.554 303.083 430.475 304.555L436.252 312.717C439.567 310.371 442.194 307.417 444.06 303.876L435.213 299.215ZM430.506 304.534C428.434 305.977 425.935 307.036 422.921 307.644L424.898 317.447C429.095 316.6 432.899 315.053 436.222 312.739L430.506 304.534ZM418.909 312.545V313.455H428.909V312.545H418.909ZM423.72 318.451C426.962 318.574 429.801 319.385 432.329 320.836L437.308 312.164C433.29 309.858 428.857 308.638 424.098 308.458L423.72 318.451ZM432.359 320.854C434.861 322.267 436.836 324.201 438.335 326.731L446.938 321.633C444.558 317.617 441.321 314.43 437.277 312.146L432.359 320.854ZM438.345 326.748C439.75 329.096 440.545 331.997 440.545 335.636H450.545C450.545 330.488 449.402 325.752 446.927 321.615L438.345 326.748ZM440.545 335.636C440.545 339.802 439.471 343.348 437.395 346.439L445.696 352.015C448.953 347.167 450.545 341.653 450.545 335.636H440.545ZM437.38 346.461C435.317 349.569 432.317 352.123 428.161 354.059L432.384 363.123C437.986 360.514 442.502 356.825 445.711 351.993L437.38 346.461ZM428.161 354.059C424.09 355.955 419.027 357 412.818 357V367C420.124 367 426.698 365.772 432.384 363.123L428.161 354.059ZM412.818 357H369V367H412.818V357ZM394.273 346.818H406.091V336.818H394.273V346.818ZM406.091 346.818C410.807 346.818 415.253 345.968 418.618 343.468L412.655 335.441C411.778 336.092 409.86 336.818 406.091 336.818V346.818ZM418.655 343.441C422.25 340.719 423.818 336.744 423.818 332.364H413.818C413.818 334.225 413.266 334.978 412.618 335.468L418.655 343.441ZM423.818 332.364C423.818 329.403 423.131 326.549 421.491 324.064L413.145 329.572C413.505 330.118 413.818 330.961 413.818 332.364H423.818ZM421.491 324.064C419.894 321.644 417.657 319.894 415.006 318.764L411.085 327.963C412.131 328.409 412.743 328.963 413.145 329.572L421.491 324.064ZM415.033 318.776C412.43 317.648 409.518 317.182 406.455 317.182V327.182C408.542 327.182 410.025 327.504 411.057 327.951L415.033 318.776ZM406.455 317.182H394.273V327.182H406.455V317.182ZM389.273 322.182V341.818H399.273V322.182H389.273ZM394.273 311.545H404.636V301.545H394.273V311.545ZM404.636 311.545C407.369 311.545 409.99 311.115 412.4 310.125L408.6 300.875C407.617 301.279 406.328 301.545 404.636 301.545V311.545ZM412.4 310.125C414.835 309.125 416.951 307.587 418.51 305.424L410.399 299.576C410.079 300.019 409.559 300.481 408.6 300.875L412.4 310.125ZM418.498 305.441C420.184 303.123 420.909 300.429 420.909 297.636H410.909C410.909 298.662 410.665 299.21 410.411 299.559L418.498 305.441ZM420.909 297.636C420.909 293.397 419.297 289.603 415.78 287.017L409.856 295.074C410.461 295.518 410.909 296.118 410.909 297.636H420.909ZM415.818 287.045C412.713 284.717 408.986 283.727 405 283.727V293.727C407.317 293.727 408.802 294.283 409.818 295.045L415.818 287.045ZM405 283.727H394.273V293.727H405V283.727ZM389.273 288.727V306.545H399.273V288.727H389.273ZM479.955 268.909H484.955V263.909H479.955V268.909ZM479.955 362V367H484.955V362H479.955ZM454.864 362H449.864V367H454.864V362ZM454.864 268.909V263.909H449.864V268.909H454.864ZM474.955 268.909V362H484.955V268.909H474.955ZM479.955 357H454.864V367H479.955V357ZM459.864 362V268.909H449.864V362H459.864ZM454.864 273.909H479.955V263.909H454.864V273.909ZM506.92 358.773L504.471 363.132L504.481 363.137L504.49 363.142L506.92 358.773ZM494.511 346.136L490.095 348.48L490.1 348.491L494.511 346.136ZM494.511 308.455L498.922 310.809L498.928 310.799L494.511 308.455ZM506.92 295.818L509.351 300.188L509.36 300.183L509.369 300.177L506.92 295.818ZM545.83 295.818L543.381 300.177L543.39 300.183L543.399 300.188L545.83 295.818ZM558.239 308.455L553.822 310.799L553.828 310.809L558.239 308.455ZM558.239 346.136L562.65 348.491L562.655 348.48L558.239 346.136ZM545.83 358.773L548.26 363.142L548.269 363.137L548.279 363.132L545.83 358.773ZM532.057 342.591L535.445 346.268L535.445 346.268L532.057 342.591ZM535.648 336.5L540.407 338.032L540.407 338.032L535.648 336.5ZM535.648 317.682L530.888 319.214L530.891 319.222L530.893 319.23L535.648 317.682ZM532.057 311.591L535.445 307.914L535.445 307.914L532.057 311.591ZM517.102 317.682L521.857 319.23L521.859 319.222L521.862 319.214L517.102 317.682ZM517.102 336.5L521.862 334.968L521.862 334.968L517.102 336.5ZM526.375 358.273C519.458 358.273 513.85 356.906 509.351 354.403L504.49 363.142C510.779 366.64 518.14 368.273 526.375 368.273V358.273ZM509.369 354.414C504.797 351.845 501.346 348.324 498.922 343.782L490.1 348.491C493.434 354.737 498.256 359.64 504.471 363.132L509.369 354.414ZM498.928 343.792C496.491 339.201 495.193 333.742 495.193 327.273H485.193C485.193 335.107 486.774 342.224 490.095 348.48L498.928 343.792ZM495.193 327.273C495.193 320.803 496.491 315.364 498.922 310.809L490.1 306.1C486.774 312.333 485.193 319.44 485.193 327.273H495.193ZM498.928 310.799C501.352 306.232 504.796 302.721 509.351 300.188L504.49 291.449C498.257 294.915 493.429 299.829 490.095 306.111L498.928 310.799ZM509.369 300.177C513.865 297.652 519.466 296.273 526.375 296.273V286.273C518.133 286.273 510.764 287.924 504.471 291.459L509.369 300.177ZM526.375 296.273C533.284 296.273 538.885 297.652 543.381 300.177L548.279 291.459C541.986 287.924 534.617 286.273 526.375 286.273V296.273ZM543.399 300.188C547.954 302.721 551.398 306.232 553.822 310.799L562.655 306.111C559.321 299.829 554.493 294.915 548.26 291.449L543.399 300.188ZM553.828 310.809C556.259 315.364 557.557 320.803 557.557 327.273H567.557C567.557 319.44 565.976 312.333 562.65 306.1L553.828 310.809ZM557.557 327.273C557.557 333.742 556.259 339.201 553.822 343.792L562.655 348.48C565.976 342.224 567.557 335.107 567.557 327.273H557.557ZM553.828 343.782C551.404 348.324 547.953 351.845 543.381 354.414L548.279 363.132C554.494 359.64 559.316 354.737 562.65 348.491L553.828 343.782ZM543.399 354.403C538.9 356.906 533.292 358.273 526.375 358.273V368.273C534.61 368.273 541.971 366.64 548.26 363.142L543.399 354.403ZM526.557 349.727C529.921 349.727 532.967 348.552 535.445 346.268L528.668 338.914C528.056 339.479 527.435 339.727 526.557 339.727V349.727ZM535.445 346.268C537.795 344.102 539.376 341.237 540.407 338.032L530.888 334.968C530.223 337.036 529.409 338.232 528.668 338.914L535.445 346.268ZM540.407 338.032C541.456 334.773 541.92 331.094 541.92 327.091H531.92C531.92 330.36 531.536 332.954 530.888 334.968L540.407 338.032ZM541.92 327.091C541.92 323.065 541.458 319.376 540.402 316.134L530.893 319.23C531.535 321.199 531.92 323.784 531.92 327.091H541.92ZM540.407 316.15C539.376 312.945 537.795 310.08 535.445 307.914L528.668 315.268C529.409 315.95 530.223 317.146 530.888 319.214L540.407 316.15ZM535.445 307.914C532.967 305.63 529.921 304.455 526.557 304.455V314.455C527.435 314.455 528.056 314.703 528.668 315.268L535.445 307.914ZM526.557 304.455C523.152 304.455 520.031 305.576 517.467 307.85L524.102 315.332C524.749 314.758 525.477 314.455 526.557 314.455V304.455ZM517.467 307.85C515.023 310.017 513.387 312.904 512.343 316.15L521.862 319.214C522.514 317.187 523.333 316.013 524.102 315.332L517.467 307.85ZM512.348 316.134C511.292 319.376 510.83 323.065 510.83 327.091H520.83C520.83 323.784 521.215 321.199 521.857 319.23L512.348 316.134ZM510.83 327.091C510.83 331.094 511.294 334.773 512.343 338.032L521.862 334.968C521.214 332.954 520.83 330.36 520.83 327.091H510.83ZM512.343 338.032C513.387 341.278 515.023 344.165 517.467 346.332L524.102 338.85C523.333 338.168 522.514 336.995 521.862 334.968L512.343 338.032ZM517.467 346.332C520.031 348.606 523.152 349.727 526.557 349.727V339.727C525.477 339.727 524.749 339.424 524.102 338.85L517.467 346.332ZM586.92 358.773L584.471 363.132L584.481 363.137L584.49 363.142L586.92 358.773ZM574.511 346.136L570.095 348.48L570.1 348.491L574.511 346.136ZM574.511 308.455L578.922 310.809L578.928 310.799L574.511 308.455ZM586.92 295.818L589.351 300.188L589.36 300.183L589.369 300.177L586.92 295.818ZM624.148 295L621.923 299.478L621.939 299.486L621.955 299.494L624.148 295ZM635.83 305.455L631.562 308.061L631.566 308.067L631.57 308.073L635.83 305.455ZM640.011 321.273V326.273H645.036L645.011 321.248L640.011 321.273ZM616.739 321.273L611.759 321.725L612.173 326.273H616.739V321.273ZM613.557 312.909L609.852 316.267L609.879 316.297L609.907 316.327L613.557 312.909ZM601.011 311.909L604.035 315.891L604.058 315.874L604.081 315.856L601.011 311.909ZM597.193 317.591L601.895 319.291L601.899 319.282L601.902 319.273L597.193 317.591ZM597.193 336.636L592.484 338.318L592.488 338.327L592.491 338.336L597.193 336.636ZM601.011 342.318L597.942 346.265L597.965 346.283L597.988 346.3L601.011 342.318ZM611.648 342.909L614.207 347.205L614.24 347.185L614.273 347.164L611.648 342.909ZM615.102 339.091L610.695 336.73L610.687 336.744L610.679 336.759L615.102 339.091ZM616.739 332.909V327.909H612.1L611.753 332.535L616.739 332.909ZM640.011 332.909L645.011 332.983L645.086 327.909H640.011V332.909ZM635.784 349L640.072 351.572L640.075 351.566L640.079 351.56L635.784 349ZM624.193 359.545L621.968 355.068L621.957 355.073L624.193 359.545ZM606.375 358.273C599.458 358.273 593.85 356.906 589.351 354.403L584.49 363.142C590.779 366.64 598.14 368.273 606.375 368.273V358.273ZM589.369 354.414C584.797 351.845 581.346 348.324 578.922 343.782L570.1 348.491C573.434 354.737 578.256 359.64 584.471 363.132L589.369 354.414ZM578.928 343.792C576.491 339.201 575.193 333.742 575.193 327.273H565.193C565.193 335.107 566.774 342.224 570.095 348.48L578.928 343.792ZM575.193 327.273C575.193 320.803 576.491 315.364 578.922 310.809L570.1 306.1C566.774 312.333 565.193 319.44 565.193 327.273H575.193ZM578.928 310.799C581.352 306.232 584.796 302.721 589.351 300.188L584.49 291.449C578.257 294.915 573.429 299.829 570.095 306.111L578.928 310.799ZM589.369 300.177C593.865 297.652 599.466 296.273 606.375 296.273V286.273C598.133 286.273 590.764 287.924 584.471 291.459L589.369 300.177ZM606.375 296.273C612.623 296.273 617.753 297.405 621.923 299.478L626.373 290.522C620.542 287.625 613.824 286.273 606.375 286.273V296.273ZM621.955 299.494C626.18 301.555 629.331 304.408 631.562 308.061L640.097 302.848C636.812 297.471 632.176 293.354 626.34 290.506L621.955 299.494ZM631.57 308.073C633.779 311.666 634.985 316.012 635.011 321.298L645.011 321.248C644.977 314.412 643.395 308.213 640.089 302.836L631.57 308.073ZM640.011 316.273H616.739V326.273H640.011V316.273ZM621.718 320.82C621.324 316.487 620.011 312.487 617.206 309.491L609.907 316.327C610.678 317.15 611.486 318.725 611.759 321.725L621.718 320.82ZM617.262 309.551C614.489 306.492 610.834 305 606.739 305V315C608.219 315 609.11 315.448 609.852 316.267L617.262 309.551ZM606.739 305C603.508 305 600.504 305.97 597.942 307.962L604.081 315.856C604.792 315.303 605.606 315 606.739 315V305ZM597.988 307.927C595.369 309.915 593.619 312.733 592.484 315.909L601.902 319.273C602.586 317.358 603.381 316.388 604.035 315.891L597.988 307.927ZM592.491 315.891C591.32 319.13 590.83 322.92 590.83 327.091H600.83C600.83 323.625 601.248 321.082 601.895 319.291L592.491 315.891ZM590.83 327.091C590.83 331.265 591.321 335.06 592.484 338.318L601.902 334.955C601.247 333.121 600.83 330.553 600.83 327.091H590.83ZM592.491 338.336C593.629 341.485 595.372 344.266 597.942 346.265L604.081 338.371C603.378 337.825 602.575 336.818 601.895 334.937L592.491 338.336ZM597.988 346.3C600.55 348.246 603.537 349.182 606.739 349.182V339.182C605.577 339.182 604.746 338.876 604.035 338.336L597.988 346.3ZM606.739 349.182C609.382 349.182 611.922 348.566 614.207 347.205L609.089 338.614C608.525 338.949 607.793 339.182 606.739 339.182V349.182ZM614.273 347.164C616.55 345.76 618.283 343.778 619.525 341.423L610.679 336.759C610.164 337.737 609.594 338.301 609.022 338.654L614.273 347.164ZM619.51 341.452C620.823 339.001 621.504 336.226 621.725 333.283L611.753 332.535C611.61 334.44 611.2 335.787 610.695 336.73L619.51 341.452ZM616.739 337.909H640.011V327.909H616.739V337.909ZM635.012 332.835C634.932 338.248 633.702 342.727 631.489 346.44L640.079 351.56C643.32 346.122 644.909 339.873 645.011 332.983L635.012 332.835ZM631.497 346.428C629.288 350.109 626.161 352.984 621.968 355.068L626.418 364.023C632.226 361.137 636.826 356.982 640.072 351.572L631.497 346.428ZM621.957 355.073C617.83 357.137 612.693 358.273 606.375 358.273V368.273C613.875 368.273 620.617 366.924 626.429 364.018L621.957 355.073ZM672.909 345.455L667.909 345.424L667.82 360.07L676.847 348.536L672.909 345.455ZM673.091 315.636V310.636H668.121L668.091 315.606L673.091 315.636ZM676.364 315.636V320.636H678.923L680.42 318.56L676.364 315.636ZM693.273 292.182V287.182H690.713L689.217 289.258L693.273 292.182ZM721.455 292.182L725.404 295.247L731.664 287.182H721.455V292.182ZM693.091 328.727V333.727H695.54L697.041 331.793L693.091 328.727ZM686 328.727V323.727H683.564L682.062 325.646L686 328.727ZM650.364 362H645.364V367H650.364V362ZM650.364 268.909V263.909H645.364V268.909H650.364ZM675.455 268.909H680.455V263.909H675.455V268.909ZM675.455 362V367H680.455V362H675.455ZM693.455 362L689.127 364.505L690.572 367H693.455V362ZM677.455 334.364L673.772 330.982L671.286 333.688L673.127 336.869L677.455 334.364ZM693.818 316.545L698.06 313.899L694.581 308.323L690.136 313.163L693.818 316.545ZM722.182 362V367H731.195L726.424 359.353L722.182 362ZM677.909 345.485L678.091 315.667L668.091 315.606L667.909 345.424L677.909 345.485ZM673.091 320.636H676.364V310.636H673.091V320.636ZM680.42 318.56L697.329 295.106L689.217 289.258L672.308 312.712L680.42 318.56ZM693.273 297.182H721.455V287.182H693.273V297.182ZM717.505 289.116L689.141 325.662L697.041 331.793L725.404 295.247L717.505 289.116ZM693.091 323.727H686V333.727H693.091V323.727ZM682.062 325.646L668.972 342.373L676.847 348.536L689.938 331.809L682.062 325.646ZM655.364 362V268.909H645.364V362H655.364ZM650.364 273.909H675.455V263.909H650.364V273.909ZM670.455 268.909V362H680.455V268.909H670.455ZM675.455 357H650.364V367H675.455V357ZM697.782 359.495L681.782 331.858L673.127 336.869L689.127 364.505L697.782 359.495ZM681.137 337.746L697.501 319.927L690.136 313.163L673.772 330.982L681.137 337.746ZM689.576 319.192L717.94 364.647L726.424 359.353L698.06 313.899L689.576 319.192ZM722.182 357H693.455V367H722.182V357ZM753.08 268.909H758.08V263.909H753.08V268.909ZM753.08 362V367H758.08V362H753.08ZM727.989 362H722.989V367H727.989V362ZM727.989 268.909V263.909H722.989V268.909H727.989ZM748.08 268.909V362H758.08V268.909H748.08ZM753.08 357H727.989V367H753.08V357ZM732.989 362V268.909H722.989V362H732.989ZM727.989 273.909H753.08V263.909H727.989V273.909ZM772.909 387.5L773.768 382.574L773.74 382.57L773.712 382.565L772.909 387.5ZM766.045 385.727L761.264 384.264L759.9 388.721L764.251 390.394L766.045 385.727ZM771.5 367.909L773.164 363.194L768.246 361.458L766.719 366.446L771.5 367.909ZM777.136 369.318L776.516 374.28L776.527 374.281L777.136 369.318ZM781.545 368.955L779.828 364.259L779.809 364.266L779.79 364.273L781.545 368.955ZM784.227 366.364L788.823 368.333L788.823 368.333L784.227 366.364ZM784.773 365.091L789.368 367.061L790.121 365.305L789.511 363.496L784.773 365.091ZM760.227 292.182V287.182H753.268L755.489 293.777L760.227 292.182ZM786.409 292.182L791.279 291.047L790.378 287.182H786.409V292.182ZM797.682 340.545L792.812 341.68L793.713 345.545H797.682V340.545ZM798.409 340.545V345.545H802.363L803.274 341.698L798.409 340.545ZM809.864 292.182V287.182H805.91L804.998 291.029L809.864 292.182ZM836.227 292.182L840.966 293.777L843.186 287.182H836.227V292.182ZM810.773 367.818L806.034 366.223L806.03 366.236L806.026 366.248L810.773 367.818ZM805.227 378.182L801.308 375.077L801.291 375.099L801.274 375.12L805.227 378.182ZM795.773 385.5L793.693 380.953L793.693 380.953L795.773 385.5ZM781.136 383.182C778.521 383.182 776.067 382.975 773.768 382.574L772.05 392.426C774.963 392.934 777.995 393.182 781.136 393.182V383.182ZM773.712 382.565C771.365 382.183 769.422 381.669 767.84 381.061L764.251 390.394C766.609 391.301 769.241 391.969 772.106 392.435L773.712 382.565ZM770.826 387.191L776.281 369.373L766.719 366.446L761.264 384.264L770.826 387.191ZM769.836 372.624C772.146 373.44 774.381 374.013 776.516 374.28L777.757 364.357C776.498 364.199 774.975 363.833 773.164 363.194L769.836 372.624ZM776.527 374.281C778.79 374.559 781.12 374.454 783.301 373.636L779.79 364.273C779.546 364.364 778.937 364.502 777.746 364.355L776.527 374.281ZM783.263 373.65C785.866 372.698 787.763 370.806 788.823 368.333L779.632 364.394C779.61 364.445 779.598 364.459 779.606 364.448C779.615 364.435 779.637 364.406 779.674 364.37C779.711 364.334 779.751 364.304 779.786 364.282C779.821 364.26 779.839 364.255 779.828 364.259L783.263 373.65ZM788.823 368.333L789.368 367.061L780.177 363.121L779.632 364.394L788.823 368.333ZM789.511 363.496L764.966 290.587L755.489 293.777L780.034 366.686L789.511 363.496ZM760.227 297.182H786.409V287.182H760.227V297.182ZM781.54 293.317L792.812 341.68L802.551 339.41L791.279 291.047L781.54 293.317ZM797.682 345.545H798.409V335.545H797.682V345.545ZM803.274 341.698L814.729 293.334L804.998 291.029L793.544 339.393L803.274 341.698ZM809.864 297.182H836.227V287.182H809.864V297.182ZM831.488 290.587L806.034 366.223L815.512 369.413L840.966 293.777L831.488 290.587ZM806.026 366.248C804.93 369.562 803.355 372.493 801.308 375.077L809.147 381.286C811.948 377.749 814.07 373.771 815.52 369.388L806.026 366.248ZM801.274 375.12C799.423 377.51 796.941 379.467 793.693 380.953L797.852 390.047C802.422 387.957 806.243 385.036 809.18 381.243L801.274 375.12ZM793.693 380.953C790.627 382.355 786.511 383.182 781.136 383.182V393.182C787.458 393.182 793.1 392.221 797.852 390.047L793.693 380.953Z" fill="url(#paint4_linear_148_109)" mask="url(#path-5-outside-1_148_109)"/>
<path d="M63.5234 34.8515L56 54.625H64.0948L67.8088 43.9341L63.5234 34.8515Z" fill="white"/>
<path d="M74.4751 54.625L64.8566 34H72.7609L82.3794 54.625H74.4751Z" fill="white"/>
<path d="M79.1073 39.0143L76.917 34H84.5356L87.0116 39.0143H79.1073Z" fill="white"/>
<path d="M86.2498 54.625L79.4883 40.3389H87.4878L94.4398 54.625H86.2498Z" fill="white"/>
<path d="M90.882 39.0143L88.6916 34H101.643L104.024 39.0143H90.882Z" fill="white"/>
<path d="M100.405 54.625L93.8342 40.3389H101.643L108.5 54.625H100.405Z" fill="white"/>
<path d="M140.648 39.3636V35.5455H155.818V39.3636H150.568V53H145.898V39.3636H140.648ZM157.602 53V35.5455H170.181V39.3636H162.34V42.3636H169.533V46.1818H162.34V49.1818H170.147V53H157.602ZM188.827 42.0909H184.02C183.986 41.6932 183.895 41.3324 183.747 41.0085C183.605 40.6847 183.406 40.4062 183.151 40.1733C182.901 39.9347 182.597 39.7528 182.239 39.6278C181.881 39.4972 181.474 39.4318 181.02 39.4318C180.224 39.4318 179.551 39.625 179 40.0114C178.455 40.3977 178.04 40.9517 177.756 41.6733C177.477 42.3949 177.338 43.2614 177.338 44.2727C177.338 45.3409 177.48 46.2358 177.764 46.9574C178.054 47.6733 178.472 48.2131 179.017 48.5767C179.563 48.9347 180.219 49.1136 180.986 49.1136C181.423 49.1136 181.815 49.0597 182.162 48.9517C182.509 48.8381 182.81 48.6761 183.065 48.4659C183.321 48.2557 183.528 48.0028 183.688 47.7074C183.852 47.4062 183.963 47.0682 184.02 46.6932L188.827 46.7273C188.77 47.4659 188.563 48.2187 188.205 48.9858C187.847 49.7472 187.338 50.4517 186.679 51.0994C186.026 51.7415 185.216 52.2585 184.25 52.6506C183.284 53.0426 182.162 53.2386 180.884 53.2386C179.281 53.2386 177.844 52.8949 176.571 52.2074C175.304 51.5199 174.301 50.5085 173.562 49.1733C172.83 47.8381 172.463 46.2045 172.463 44.2727C172.463 42.3295 172.838 40.6932 173.588 39.3636C174.338 38.0284 175.349 37.0199 176.622 36.3381C177.895 35.6506 179.315 35.3068 180.884 35.3068C181.986 35.3068 183 35.4574 183.926 35.7585C184.852 36.0597 185.665 36.5 186.364 37.0795C187.063 37.6534 187.625 38.3608 188.051 39.2017C188.477 40.0426 188.736 41.0057 188.827 42.0909ZM190.977 53V35.5455H195.715V42.3636H201.988V35.5455H206.727V53H201.988V46.1818H195.715V53H190.977ZM224.079 35.5455V53H220.124L213.817 43.8295H213.715V53H208.977V35.5455H212.999L219.204 44.6818H219.34V35.5455H224.079ZM243.229 44.2727C243.229 46.2159 242.852 47.8551 242.096 49.1903C241.34 50.5199 240.32 51.5284 239.036 52.2159C237.752 52.8977 236.32 53.2386 234.741 53.2386C233.15 53.2386 231.712 52.8949 230.428 52.2074C229.15 51.5142 228.133 50.5028 227.377 49.1733C226.627 47.8381 226.252 46.2045 226.252 44.2727C226.252 42.3295 226.627 40.6932 227.377 39.3636C228.133 38.0284 229.15 37.0199 230.428 36.3381C231.712 35.6506 233.15 35.3068 234.741 35.3068C236.32 35.3068 237.752 35.6506 239.036 36.3381C240.32 37.0199 241.34 38.0284 242.096 39.3636C242.852 40.6932 243.229 42.3295 243.229 44.2727ZM238.354 44.2727C238.354 43.2273 238.215 42.3466 237.937 41.6307C237.664 40.9091 237.258 40.3636 236.718 39.9943C236.184 39.6193 235.525 39.4318 234.741 39.4318C233.957 39.4318 233.295 39.6193 232.755 39.9943C232.221 40.3636 231.815 40.9091 231.536 41.6307C231.263 42.3466 231.127 43.2273 231.127 44.2727C231.127 45.3182 231.263 46.2017 231.536 46.9233C231.815 47.6392 232.221 48.1847 232.755 48.5597C233.295 48.929 233.957 49.1136 234.741 49.1136C235.525 49.1136 236.184 48.929 236.718 48.5597C237.258 48.1847 237.664 47.6392 237.937 46.9233C238.215 46.2017 238.354 45.3182 238.354 44.2727ZM254.831 41C254.786 40.4318 254.572 39.9886 254.192 39.6705C253.817 39.3523 253.246 39.1932 252.479 39.1932C251.99 39.1932 251.589 39.2528 251.277 39.3722C250.97 39.4858 250.743 39.642 250.595 39.8409C250.447 40.0398 250.371 40.267 250.365 40.5227C250.354 40.733 250.391 40.9233 250.476 41.0938C250.567 41.2585 250.709 41.4091 250.902 41.5455C251.095 41.6761 251.342 41.7955 251.643 41.9034C251.945 42.0114 252.303 42.108 252.717 42.1932L254.149 42.5C255.115 42.7045 255.942 42.9744 256.629 43.3097C257.317 43.6449 257.879 44.0398 258.317 44.4943C258.754 44.9432 259.075 45.4489 259.28 46.0114C259.49 46.5739 259.598 47.1875 259.604 47.8523C259.598 49 259.311 49.9716 258.743 50.767C258.175 51.5625 257.362 52.1676 256.305 52.5824C255.254 52.9972 253.99 53.2045 252.513 53.2045C250.996 53.2045 249.672 52.9801 248.541 52.5312C247.416 52.0824 246.541 51.392 245.916 50.4602C245.297 49.5227 244.984 48.3239 244.979 46.8636H249.479C249.507 47.3977 249.641 47.8466 249.879 48.2102C250.118 48.5739 250.453 48.8494 250.885 49.0369C251.322 49.2244 251.842 49.3182 252.445 49.3182C252.95 49.3182 253.374 49.2557 253.714 49.1307C254.055 49.0057 254.314 48.8324 254.49 48.6108C254.666 48.3892 254.757 48.1364 254.763 47.8523C254.757 47.5852 254.669 47.3523 254.499 47.1534C254.334 46.9489 254.061 46.767 253.68 46.608C253.3 46.4432 252.786 46.2898 252.138 46.1477L250.399 45.7727C248.854 45.4375 247.635 44.8778 246.743 44.0938C245.857 43.304 245.416 42.2273 245.422 40.8636C245.416 39.7557 245.712 38.7869 246.308 37.9574C246.911 37.1222 247.743 36.4716 248.805 36.0057C249.874 35.5398 251.098 35.3068 252.479 35.3068C253.888 35.3068 255.107 35.5426 256.135 36.0142C257.163 36.4858 257.956 37.1506 258.513 38.0085C259.075 38.8608 259.359 39.858 259.365 41H254.831ZM261.406 53V35.5455H268.94C270.236 35.5455 271.369 35.8011 272.341 36.3125C273.313 36.8239 274.068 37.5426 274.608 38.4688C275.148 39.3949 275.418 40.4773 275.418 41.7159C275.418 42.9659 275.139 44.0483 274.582 44.9631C274.031 45.8778 273.256 46.5824 272.256 47.0767C271.261 47.571 270.099 47.8182 268.77 47.8182H264.27V44.1364H267.815C268.372 44.1364 268.847 44.0398 269.239 43.8466C269.636 43.6477 269.94 43.3665 270.151 43.0028C270.366 42.6392 270.474 42.2102 270.474 41.7159C270.474 41.2159 270.366 40.7898 270.151 40.4375C269.94 40.0795 269.636 39.8068 269.239 39.6193C268.847 39.4261 268.372 39.3295 267.815 39.3295H266.145V53H261.406ZM279.511 53H274.397L280.158 35.5455H286.636L292.397 53H287.283L283.465 40.3523H283.329L279.511 53ZM278.556 46.1136H288.17V49.6591H278.556V46.1136ZM294.078 53V35.5455H301.612C302.908 35.5455 304.041 35.7812 305.013 36.2528C305.984 36.7244 306.74 37.4034 307.28 38.2898C307.82 39.1761 308.089 40.2386 308.089 41.4773C308.089 42.7273 307.811 43.7812 307.254 44.6392C306.703 45.4972 305.928 46.1449 304.928 46.5824C303.933 47.0199 302.771 47.2386 301.442 47.2386H296.942V43.5568H300.487C301.044 43.5568 301.518 43.4886 301.911 43.3523C302.308 43.2102 302.612 42.9858 302.822 42.679C303.038 42.3722 303.146 41.9716 303.146 41.4773C303.146 40.9773 303.038 40.571 302.822 40.2585C302.612 39.9403 302.308 39.7074 301.911 39.5597C301.518 39.4062 301.044 39.3295 300.487 39.3295H298.817V53H294.078ZM304.305 44.9886L308.669 53H303.521L299.26 44.9886H304.305ZM315.189 35.5455L318.053 40.625H318.189L321.087 35.5455H326.371L321.155 44.2727L326.575 53H321.155L318.189 47.8182H318.053L315.087 53H309.7L315.053 44.2727L309.871 35.5455H315.189Z" fill="white"/>
<g opacity="0.2">
<path d="M185.671 550.454H161.043C160.916 550.445 160.816 550.381 160.689 550.381C156.928 550.381 153.875 553.433 153.875 557.194C153.875 557.212 153.875 557.231 153.875 557.249C153.875 567.278 145.745 575.418 135.707 575.418C125.668 575.418 117.538 567.287 117.538 557.249C117.538 557.231 117.538 557.212 117.538 557.185C117.538 553.424 114.485 550.372 110.724 550.372C110.597 550.372 110.497 550.435 110.37 550.445H92.5918V538.362C106.982 535.146 117.574 522.483 117.574 507.339C117.574 492.195 106.982 479.54 92.8008 476.361L92.5918 476.325V457.293C92.5918 453.532 89.5394 450.479 85.7785 450.479H-14.1412C-17.9022 450.479 -20.9546 453.532 -20.9546 457.293V557.003L-21 557.222V657.15C-21 660.911 -17.9476 663.964 -14.1867 663.964L185.662 664C189.423 664 192.475 660.948 192.475 657.187V557.258C192.475 553.497 189.423 550.445 185.662 550.445L185.671 550.454ZM-7.31884 464.115H78.9742V482.375C78.9742 486.136 82.0266 489.188 85.7876 489.188C95.8259 489.188 103.956 497.319 103.956 507.357C103.956 517.395 95.8259 525.526 85.7876 525.526C82.0266 525.526 78.9742 528.578 78.9742 532.339V550.417H66.8829C63.6942 535.991 51.0214 525.362 35.8595 525.362C20.6976 525.362 8.02478 535.991 4.87248 550.199L4.83614 550.408H-7.31884V464.115ZM-7.36426 564.044H10.414C10.5684 564.053 10.6956 564.135 10.85 564.135C14.6292 564.08 17.6725 561.019 17.6997 557.24C17.727 547.238 25.8394 539.134 35.8504 539.134C45.8705 539.134 54.0011 547.256 54.0011 557.285C54.0011 557.303 54.0011 557.312 54.0011 557.331C54.0011 561.092 57.0535 564.144 60.8145 564.144C60.9689 564.144 61.0961 564.062 61.2505 564.053H78.947V576.153C64.5572 579.378 53.9648 592.051 53.9648 607.186C53.9648 620.286 61.8955 631.541 73.2238 636.392L73.4327 636.474C74.9862 637.146 76.8303 637.737 78.738 638.164L78.947 638.2V650.355H-7.35517L-7.36426 564.044ZM178.858 650.382H92.5646V632.577C92.5736 632.441 92.6463 632.323 92.6463 632.186C92.5918 628.407 89.5304 625.364 85.7603 625.337C75.7493 625.309 67.6459 617.197 67.6459 607.186C67.6459 597.157 75.7765 589.035 85.7967 589.035C85.8148 589.035 85.8239 589.035 85.8421 589.035C89.603 589.035 92.6554 585.983 92.6554 582.222C92.6554 582.086 92.5827 581.968 92.5737 581.831V564.089H104.729C107.972 578.443 120.617 588.999 135.725 588.999C150.832 588.999 163.478 578.443 166.675 564.298L166.712 564.089H178.867L178.858 650.382ZM240.178 396H140.267C136.506 396 133.454 399.052 133.454 402.813V427.359C133.445 427.514 133.363 427.641 133.363 427.796C133.363 431.556 136.415 434.609 140.176 434.609C150.214 434.609 158.345 442.739 158.345 452.778C158.345 462.816 150.214 470.947 140.176 470.947C136.415 470.947 133.363 473.999 133.363 477.76C133.363 477.914 133.445 478.042 133.454 478.196V502.742C133.454 506.503 136.506 509.555 140.267 509.555H159.126C162.342 523.945 175.006 534.538 190.15 534.538C205.293 534.538 217.948 523.945 221.128 509.764L221.164 509.555H240.178C243.939 509.555 246.991 506.503 246.991 502.742V402.813C246.991 399.052 243.939 396 240.178 396ZM233.364 495.929H215.123C211.362 495.929 208.309 498.981 208.309 502.742C208.309 512.78 200.179 520.911 190.141 520.911C180.102 520.911 171.972 512.78 171.972 502.742C171.972 498.981 168.919 495.929 165.158 495.929H147.08V483.774C161.425 480.522 171.972 467.885 171.972 452.778C171.972 437.67 161.425 425.034 147.289 421.827L147.08 421.791V409.636H233.364V495.929Z" fill="url(#paint5_linear_148_109)"/>
</g>
<g opacity="0.32">
<path d="M998.946 99.0551H943.891V44H998.946V99.0551ZM1120.29 170.824C1104.45 170.824 1091.57 183.705 1091.57 199.538C1091.57 215.371 1104.45 228.252 1120.29 228.252C1136.12 228.252 1149 215.371 1149 199.538C1149 183.705 1136.12 170.824 1120.29 170.824ZM966.677 108.456V134.425H966.673V163.217H976.165V139.464H1001.91V129.971H976.169V108.456H966.677ZM1115.54 163.217H1125.03V134.425H1124.93V129.971H1086.39V139.464H1115.54L1115.54 163.217ZM954.228 169.702L937 199.538L954.228 229.38H988.682L1005.91 199.538L988.682 169.7L954.228 169.702ZM1011.39 129.085L1024.32 168.897H1066.18L1079.12 129.085L1045.25 104.479L1011.39 129.085Z" fill="url(#paint6_linear_148_109)"/>
</g>
</g>
<defs>
<linearGradient id="paint0_linear_148_109" x1="-63.757" y1="-34.0071" x2="-63.757" y2="347.166" gradientUnits="userSpaceOnUse">
<stop stop-color="#FF9E0B"/>
<stop offset="1" stop-color="#EC4899"/>
</linearGradient>
<linearGradient id="paint1_linear_148_109" x1="1173" y1="695.827" x2="1173" y2="969.442" gradientUnits="userSpaceOnUse">
<stop stop-color="#FF9E0B"/>
<stop offset="1" stop-color="#F24E52"/>
</linearGradient>
<linearGradient id="paint2_linear_148_109" x1="882.5" y1="530" x2="882.5" y2="919" gradientUnits="userSpaceOnUse">
<stop stop-color="#FF9E0B"/>
<stop offset="1" stop-color="#9C67E7"/>
</linearGradient>
<linearGradient id="paint3_linear_148_109" x1="491" y1="30" x2="491" y2="162" gradientUnits="userSpaceOnUse">
<stop stop-color="#FF9E0B"/>
<stop offset="1" stop-color="#DA46EB"/>
</linearGradient>
<linearGradient id="paint4_linear_148_109" x1="600" y1="238" x2="600" y2="393" gradientUnits="userSpaceOnUse">
<stop stop-color="#FF9E0B"/>
<stop offset="0.49" stop-color="#F24E52"/>
</linearGradient>
<linearGradient id="paint5_linear_148_109" x1="112.995" y1="396" x2="112.995" y2="664" gradientUnits="userSpaceOnUse">
<stop stop-color="#F24E52"/>
<stop offset="1" stop-color="#FF9E0B"/>
</linearGradient>
<linearGradient id="paint6_linear_148_109" x1="1043" y1="44" x2="1043" y2="229.38" gradientUnits="userSpaceOnUse">
<stop stop-color="#F24E52"/>
<stop offset="1" stop-color="#9C67E7"/>
</linearGradient>
<clipPath id="clip0_148_109">
<rect width="1200" height="630" fill="white"/>
</clipPath>
</defs>
</svg>
