<svg width="1200" height="630" viewBox="0 0 1200 630" fill="none" xmlns="http://www.w3.org/2000/svg">
<g clip-path="url(#clip0_146_95)">
<rect width="1200" height="630" fill="black"/>
<rect x="-427.809" y="-32.4844" width="729.486" height="376.173" transform="rotate(-19.4848 -427.809 -32.4844)" stroke="url(#paint0_linear_146_95)" stroke-width="5"/>
<rect x="883" y="695.827" width="580" height="273.616" transform="rotate(-35.26 883 695.827)" fill="url(#paint1_linear_146_95)"/>
<circle cx="882.5" cy="724.5" r="193" stroke="url(#paint2_linear_146_95)" stroke-width="3"/>
<path opacity="0.49" d="M415 58.3636C414.121 58.3636 413.367 58.0568 412.739 57.4432C412.117 56.822 411.811 56.0682 411.818 55.1818C411.811 54.3182 412.117 53.5795 412.739 52.9659C413.367 52.3523 414.121 52.0455 415 52.0455C415.833 52.0455 416.568 52.3523 417.205 52.9659C417.848 53.5795 418.174 54.3182 418.182 55.1818C418.174 55.7727 418.019 56.3106 417.716 56.7955C417.42 57.2727 417.034 57.6553 416.557 57.9432C416.08 58.2235 415.561 58.3636 415 58.3636ZM459.003 58.3636C458.124 58.3636 457.37 58.0568 456.741 57.4432C456.12 56.822 455.813 56.0682 455.821 55.1818C455.813 54.3182 456.12 53.5795 456.741 52.9659C457.37 52.3523 458.124 52.0455 459.003 52.0455C459.836 52.0455 460.571 52.3523 461.207 52.9659C461.851 53.5795 462.177 54.3182 462.184 55.1818C462.177 55.7727 462.021 56.3106 461.718 56.7955C461.423 57.2727 461.037 57.6553 460.559 57.9432C460.082 58.2235 459.563 58.3636 459.003 58.3636ZM503.005 58.3636C502.126 58.3636 501.372 58.0568 500.744 57.4432C500.122 56.822 499.816 56.0682 499.823 55.1818C499.816 54.3182 500.122 53.5795 500.744 52.9659C501.372 52.3523 502.126 52.0455 503.005 52.0455C503.838 52.0455 504.573 52.3523 505.21 52.9659C505.853 53.5795 506.179 54.3182 506.187 55.1818C506.179 55.7727 506.024 56.3106 505.721 56.7955C505.425 57.2727 505.039 57.6553 504.562 57.9432C504.085 58.2235 503.566 58.3636 503.005 58.3636ZM547.008 58.3636C546.129 58.3636 545.375 58.0568 544.746 57.4432C544.125 56.822 543.818 56.0682 543.826 55.1818C543.818 54.3182 544.125 53.5795 544.746 52.9659C545.375 52.3523 546.129 52.0455 547.008 52.0455C547.841 52.0455 548.576 52.3523 549.212 52.9659C549.856 53.5795 550.182 54.3182 550.189 55.1818C550.182 55.7727 550.026 56.3106 549.723 56.7955C549.428 57.2727 549.042 57.6553 548.564 57.9432C548.087 58.2235 547.568 58.3636 547.008 58.3636ZM415 91.3636C414.121 91.3636 413.367 91.0568 412.739 90.4432C412.117 89.822 411.811 89.0682 411.818 88.1818C411.811 87.3182 412.117 86.5795 412.739 85.9659C413.367 85.3523 414.121 85.0455 415 85.0455C415.833 85.0455 416.568 85.3523 417.205 85.9659C417.848 86.5795 418.174 87.3182 418.182 88.1818C418.174 88.7727 418.019 89.3106 417.716 89.7955C417.42 90.2727 417.034 90.6553 416.557 90.9432C416.08 91.2235 415.561 91.3636 415 91.3636ZM459.003 91.3636C458.124 91.3636 457.37 91.0568 456.741 90.4432C456.12 89.822 455.813 89.0682 455.821 88.1818C455.813 87.3182 456.12 86.5795 456.741 85.9659C457.37 85.3523 458.124 85.0455 459.003 85.0455C459.836 85.0455 460.571 85.3523 461.207 85.9659C461.851 86.5795 462.177 87.3182 462.184 88.1818C462.177 88.7727 462.021 89.3106 461.718 89.7955C461.423 90.2727 461.037 90.6553 460.559 90.9432C460.082 91.2235 459.563 91.3636 459.003 91.3636ZM503.005 91.3636C502.126 91.3636 501.372 91.0568 500.744 90.4432C500.122 89.822 499.816 89.0682 499.823 88.1818C499.816 87.3182 500.122 86.5795 500.744 85.9659C501.372 85.3523 502.126 85.0455 503.005 85.0455C503.838 85.0455 504.573 85.3523 505.21 85.9659C505.853 86.5795 506.179 87.3182 506.187 88.1818C506.179 88.7727 506.024 89.3106 505.721 89.7955C505.425 90.2727 505.039 90.6553 504.562 90.9432C504.085 91.2235 503.566 91.3636 503.005 91.3636ZM547.008 91.3636C546.129 91.3636 545.375 91.0568 544.746 90.4432C544.125 89.822 543.818 89.0682 543.826 88.1818C543.818 87.3182 544.125 86.5795 544.746 85.9659C545.375 85.3523 546.129 85.0455 547.008 85.0455C547.841 85.0455 548.576 85.3523 549.212 85.9659C549.856 86.5795 550.182 87.3182 550.189 88.1818C550.182 88.7727 550.026 89.3106 549.723 89.7955C549.428 90.2727 549.042 90.6553 548.564 90.9432C548.087 91.2235 547.568 91.3636 547.008 91.3636ZM415 124.364C414.121 124.364 413.367 124.057 412.739 123.443C412.117 122.822 411.811 122.068 411.818 121.182C411.811 120.318 412.117 119.58 412.739 118.966C413.367 118.352 414.121 118.045 415 118.045C415.833 118.045 416.568 118.352 417.205 118.966C417.848 119.58 418.174 120.318 418.182 121.182C418.174 121.773 418.019 122.311 417.716 122.795C417.42 123.273 417.034 123.655 416.557 123.943C416.08 124.223 415.561 124.364 415 124.364ZM459.003 124.364C458.124 124.364 457.37 124.057 456.741 123.443C456.12 122.822 455.813 122.068 455.821 121.182C455.813 120.318 456.12 119.58 456.741 118.966C457.37 118.352 458.124 118.045 459.003 118.045C459.836 118.045 460.571 118.352 461.207 118.966C461.851 119.58 462.177 120.318 462.184 121.182C462.177 121.773 462.021 122.311 461.718 122.795C461.423 123.273 461.037 123.655 460.559 123.943C460.082 124.223 459.563 124.364 459.003 124.364ZM503.005 124.364C502.126 124.364 501.372 124.057 500.744 123.443C500.122 122.822 499.816 122.068 499.823 121.182C499.816 120.318 500.122 119.58 500.744 118.966C501.372 118.352 502.126 118.045 503.005 118.045C503.838 118.045 504.573 118.352 505.21 118.966C505.853 119.58 506.179 120.318 506.187 121.182C506.179 121.773 506.024 122.311 505.721 122.795C505.425 123.273 505.039 123.655 504.562 123.943C504.085 124.223 503.566 124.364 503.005 124.364ZM547.008 124.364C546.129 124.364 545.375 124.057 544.746 123.443C544.125 122.822 543.818 122.068 543.826 121.182C543.818 120.318 544.125 119.58 544.746 118.966C545.375 118.352 546.129 118.045 547.008 118.045C547.841 118.045 548.576 118.352 549.212 118.966C549.856 119.58 550.182 120.318 550.189 121.182C550.182 121.773 550.026 122.311 549.723 122.795C549.428 123.273 549.042 123.655 548.564 123.943C548.087 124.223 547.568 124.364 547.008 124.364ZM415 157.364C414.121 157.364 413.367 157.057 412.739 156.443C412.117 155.822 411.811 155.068 411.818 154.182C411.811 153.318 412.117 152.58 412.739 151.966C413.367 151.352 414.121 151.045 415 151.045C415.833 151.045 416.568 151.352 417.205 151.966C417.848 152.58 418.174 153.318 418.182 154.182C418.174 154.773 418.019 155.311 417.716 155.795C417.42 156.273 417.034 156.655 416.557 156.943C416.08 157.223 415.561 157.364 415 157.364ZM459.003 157.364C458.124 157.364 457.37 157.057 456.741 156.443C456.12 155.822 455.813 155.068 455.821 154.182C455.813 153.318 456.12 152.58 456.741 151.966C457.37 151.352 458.124 151.045 459.003 151.045C459.836 151.045 460.571 151.352 461.207 151.966C461.851 152.58 462.177 153.318 462.184 154.182C462.177 154.773 462.021 155.311 461.718 155.795C461.423 156.273 461.037 156.655 460.559 156.943C460.082 157.223 459.563 157.364 459.003 157.364ZM503.005 157.364C502.126 157.364 501.372 157.057 500.744 156.443C500.122 155.822 499.816 155.068 499.823 154.182C499.816 153.318 500.122 152.58 500.744 151.966C501.372 151.352 502.126 151.045 503.005 151.045C503.838 151.045 504.573 151.352 505.21 151.966C505.853 152.58 506.179 153.318 506.187 154.182C506.179 154.773 506.024 155.311 505.721 155.795C505.425 156.273 505.039 156.655 504.562 156.943C504.085 157.223 503.566 157.364 503.005 157.364ZM547.008 157.364C546.129 157.364 545.375 157.057 544.746 156.443C544.125 155.822 543.818 155.068 543.826 154.182C543.818 153.318 544.125 152.58 544.746 151.966C545.375 151.352 546.129 151.045 547.008 151.045C547.841 151.045 548.576 151.352 549.212 151.966C549.856 152.58 550.182 153.318 550.189 154.182C550.182 154.773 550.026 155.311 549.723 155.795C549.428 156.273 549.042 156.655 548.564 156.943C548.087 157.223 547.568 157.364 547.008 157.364Z" fill="url(#paint3_linear_146_95)"/>
<mask id="path-5-outside-1_146_95" maskUnits="userSpaceOnUse" x="234" y="261" width="780" height="132" fill="black">
<rect fill="white" x="234" y="261" width="780" height="132"/>
<path d="M326.909 302.818H301.273C301.091 300.697 300.606 298.773 299.818 297.045C299.061 295.318 298 293.833 296.636 292.591C295.303 291.318 293.682 290.348 291.773 289.682C289.864 288.985 287.697 288.636 285.273 288.636C281.03 288.636 277.439 289.667 274.5 291.727C271.591 293.788 269.379 296.742 267.864 300.591C266.379 304.439 265.636 309.061 265.636 314.455C265.636 320.152 266.394 324.924 267.909 328.773C269.455 332.591 271.682 335.47 274.591 337.409C277.5 339.318 281 340.273 285.091 340.273C287.424 340.273 289.515 339.985 291.364 339.409C293.212 338.803 294.818 337.939 296.182 336.818C297.545 335.697 298.652 334.348 299.5 332.773C300.379 331.167 300.97 329.364 301.273 327.364L326.909 327.545C326.606 331.485 325.5 335.5 323.591 339.591C321.682 343.652 318.97 347.409 315.455 350.864C311.97 354.288 307.652 357.045 302.5 359.136C297.348 361.227 291.364 362.273 284.545 362.273C276 362.273 268.333 360.439 261.545 356.773C254.788 353.106 249.439 347.712 245.5 340.591C241.591 333.47 239.636 324.758 239.636 314.455C239.636 304.091 241.636 295.364 245.636 288.273C249.636 281.152 255.03 275.773 261.818 272.136C268.606 268.47 276.182 266.636 284.545 266.636C290.424 266.636 295.833 267.439 300.773 269.045C305.712 270.652 310.045 273 313.773 276.091C317.5 279.152 320.5 282.924 322.773 287.409C325.045 291.894 326.424 297.03 326.909 302.818ZM363.83 321.727V361H338.739V267.909H362.92V304.455H363.648C365.223 300 367.845 296.53 371.511 294.045C375.178 291.53 379.587 290.273 384.739 290.273C389.678 290.273 393.966 291.394 397.602 293.636C401.269 295.879 404.102 298.97 406.102 302.909C408.133 306.848 409.133 311.364 409.102 316.455V361H384.011V321.727C384.042 318.273 383.178 315.561 381.42 313.591C379.693 311.621 377.223 310.636 374.011 310.636C371.981 310.636 370.193 311.091 368.648 312C367.133 312.879 365.951 314.152 365.102 315.818C364.284 317.455 363.86 319.424 363.83 321.727ZM440.943 362.091C436.489 362.091 432.549 361.364 429.125 359.909C425.731 358.424 423.064 356.182 421.125 353.182C419.186 350.182 418.216 346.364 418.216 341.727C418.216 337.909 418.867 334.652 420.17 331.955C421.473 329.227 423.292 327 425.625 325.273C427.958 323.545 430.67 322.227 433.761 321.318C436.883 320.409 440.246 319.818 443.852 319.545C447.761 319.242 450.898 318.879 453.261 318.455C455.655 318 457.383 317.379 458.443 316.591C459.504 315.773 460.034 314.697 460.034 313.364V313.182C460.034 311.364 459.337 309.97 457.943 309C456.549 308.03 454.761 307.545 452.58 307.545C450.186 307.545 448.231 308.076 446.716 309.136C445.231 310.167 444.337 311.758 444.034 313.909H420.943C421.246 309.667 422.595 305.758 424.989 302.182C427.413 298.576 430.943 295.697 435.58 293.545C440.216 291.364 446.004 290.273 452.943 290.273C457.943 290.273 462.428 290.864 466.398 292.045C470.367 293.197 473.746 294.818 476.534 296.909C479.322 298.97 481.443 301.394 482.898 304.182C484.383 306.939 485.125 309.939 485.125 313.182V361H461.67V351.182H461.125C459.731 353.788 458.034 355.894 456.034 357.5C454.064 359.106 451.807 360.273 449.261 361C446.746 361.727 443.973 362.091 440.943 362.091ZM449.125 346.273C451.034 346.273 452.822 345.879 454.489 345.091C456.186 344.303 457.564 343.167 458.625 341.682C459.686 340.197 460.216 338.394 460.216 336.273V330.455C459.549 330.727 458.837 330.985 458.08 331.227C457.352 331.47 456.564 331.697 455.716 331.909C454.898 332.121 454.019 332.318 453.08 332.5C452.17 332.682 451.216 332.848 450.216 333C448.277 333.303 446.686 333.803 445.443 334.5C444.231 335.167 443.322 336 442.716 337C442.14 337.97 441.852 339.061 441.852 340.273C441.852 342.212 442.534 343.697 443.898 344.727C445.261 345.758 447.004 346.273 449.125 346.273ZM519.659 344.455L519.841 314.636H523.114L540.023 291.182H568.205L539.841 327.727H532.75L519.659 344.455ZM497.114 361V267.909H522.205V361H497.114ZM540.205 361L524.205 333.364L540.568 315.545L568.932 361H540.205ZM574.739 361V291.182H599.102V304.455H599.83C601.102 299.545 603.117 295.955 605.875 293.682C608.663 291.409 611.92 290.273 615.648 290.273C616.739 290.273 617.814 290.364 618.875 290.545C619.966 290.697 621.011 290.924 622.011 291.227V312.636C620.769 312.212 619.239 311.894 617.42 311.682C615.602 311.47 614.042 311.364 612.739 311.364C610.284 311.364 608.072 311.924 606.102 313.045C604.163 314.136 602.633 315.682 601.511 317.682C600.39 319.652 599.83 321.97 599.83 324.636V361H574.739ZM646.443 362.091C641.989 362.091 638.049 361.364 634.625 359.909C631.231 358.424 628.564 356.182 626.625 353.182C624.686 350.182 623.716 346.364 623.716 341.727C623.716 337.909 624.367 334.652 625.67 331.955C626.973 329.227 628.792 327 631.125 325.273C633.458 323.545 636.17 322.227 639.261 321.318C642.383 320.409 645.746 319.818 649.352 319.545C653.261 319.242 656.398 318.879 658.761 318.455C661.155 318 662.883 317.379 663.943 316.591C665.004 315.773 665.534 314.697 665.534 313.364V313.182C665.534 311.364 664.837 309.97 663.443 309C662.049 308.03 660.261 307.545 658.08 307.545C655.686 307.545 653.731 308.076 652.216 309.136C650.731 310.167 649.837 311.758 649.534 313.909H626.443C626.746 309.667 628.095 305.758 630.489 302.182C632.913 298.576 636.443 295.697 641.08 293.545C645.716 291.364 651.504 290.273 658.443 290.273C663.443 290.273 667.928 290.864 671.898 292.045C675.867 293.197 679.246 294.818 682.034 296.909C684.822 298.97 686.943 301.394 688.398 304.182C689.883 306.939 690.625 309.939 690.625 313.182V361H667.17V351.182H666.625C665.231 353.788 663.534 355.894 661.534 357.5C659.564 359.106 657.307 360.273 654.761 361C652.246 361.727 649.473 362.091 646.443 362.091ZM654.625 346.273C656.534 346.273 658.322 345.879 659.989 345.091C661.686 344.303 663.064 343.167 664.125 341.682C665.186 340.197 665.716 338.394 665.716 336.273V330.455C665.049 330.727 664.337 330.985 663.58 331.227C662.852 331.47 662.064 331.697 661.216 331.909C660.398 332.121 659.519 332.318 658.58 332.5C657.67 332.682 656.716 332.848 655.716 333C653.777 333.303 652.186 333.803 650.943 334.5C649.731 335.167 648.822 336 648.216 337C647.64 337.97 647.352 339.061 647.352 340.273C647.352 342.212 648.034 343.697 649.398 344.727C650.761 345.758 652.504 346.273 654.625 346.273ZM770.477 291.182L747.023 361H717.932L694.477 291.182H720.841L732.114 337.364H732.841L744.114 291.182H770.477ZM792.886 387.182C790.008 387.182 787.265 386.955 784.659 386.5C782.053 386.076 779.765 385.485 777.795 384.727L783.25 366.909C785.311 367.636 787.189 368.106 788.886 368.318C790.614 368.53 792.083 368.409 793.295 367.955C794.538 367.5 795.432 366.636 795.977 365.364L796.523 364.091L771.977 291.182H798.159L809.432 339.545H810.159L821.614 291.182H847.977L822.523 366.818C821.25 370.667 819.402 374.121 816.977 377.182C814.583 380.273 811.432 382.712 807.523 384.5C803.614 386.288 798.735 387.182 792.886 387.182ZM900.386 330.455V291.182H925.477V361H901.659V347.727H900.932C899.417 352.182 896.765 355.667 892.977 358.182C889.189 360.667 884.689 361.909 879.477 361.909C874.598 361.909 870.326 360.788 866.659 358.545C863.023 356.303 860.189 353.212 858.159 349.273C856.159 345.333 855.144 340.818 855.114 335.727V291.182H880.205V330.455C880.235 333.909 881.114 336.621 882.841 338.591C884.598 340.561 887.053 341.545 890.205 341.545C892.295 341.545 894.098 341.106 895.614 340.227C897.159 339.318 898.341 338.045 899.159 336.409C900.008 334.742 900.417 332.758 900.386 330.455ZM963.33 321.727V361H938.239V267.909H962.42V304.455H963.148C964.723 300 967.345 296.53 971.011 294.045C974.678 291.53 979.087 290.273 984.239 290.273C989.178 290.273 993.466 291.394 997.102 293.636C1000.77 295.879 1003.6 298.97 1005.6 302.909C1007.63 306.848 1008.63 311.364 1008.6 316.455V361H983.511V321.727C983.542 318.273 982.678 315.561 980.92 313.591C979.193 311.621 976.723 310.636 973.511 310.636C971.481 310.636 969.693 311.091 968.148 312C966.633 312.879 965.451 314.152 964.602 315.818C963.784 317.455 963.36 319.424 963.33 321.727Z"/>
</mask>
<path d="M326.909 302.818V307.818H332.345L331.892 302.401L326.909 302.818ZM301.273 302.818L296.291 303.245L296.683 307.818H301.273V302.818ZM299.818 297.045L295.239 299.054L295.254 299.087L295.269 299.12L299.818 297.045ZM296.636 292.591L293.184 296.208L293.226 296.248L293.269 296.287L296.636 292.591ZM291.773 289.682L290.058 294.379L290.091 294.391L290.124 294.402L291.773 289.682ZM274.5 291.727L271.63 287.633L271.62 287.64L271.61 287.647L274.5 291.727ZM267.864 300.591L263.211 298.759L263.205 298.775L263.199 298.791L267.864 300.591ZM267.909 328.773L263.257 330.604L263.265 330.627L263.274 330.649L267.909 328.773ZM274.591 337.409L271.817 341.569L271.832 341.579L271.848 341.589L274.591 337.409ZM291.364 339.409L292.851 344.183L292.886 344.172L292.921 344.16L291.364 339.409ZM296.182 336.818L299.357 340.68L299.357 340.68L296.182 336.818ZM299.5 332.773L295.114 330.373L295.106 330.387L295.098 330.402L299.5 332.773ZM301.273 327.364L301.308 322.364L296.978 322.333L296.329 326.615L301.273 327.364ZM326.909 327.545L331.894 327.929L332.306 322.584L326.945 322.546L326.909 327.545ZM323.591 339.591L328.116 341.718L328.119 341.712L328.122 341.705L323.591 339.591ZM315.455 350.864L318.959 354.43L318.959 354.43L315.455 350.864ZM302.5 359.136L300.62 354.503L302.5 359.136ZM261.545 356.773L259.161 361.167L259.169 361.172L261.545 356.773ZM245.5 340.591L241.117 342.997L241.121 343.004L241.125 343.011L245.5 340.591ZM245.636 288.273L249.991 290.729L249.996 290.721L245.636 288.273ZM261.818 272.136L264.179 276.544L264.187 276.54L264.195 276.536L261.818 272.136ZM300.773 269.045L302.319 264.29V264.29L300.773 269.045ZM313.773 276.091L310.581 279.94L310.59 279.947L310.6 279.955L313.773 276.091ZM322.773 287.409L318.313 289.669V289.669L322.773 287.409ZM326.909 297.818H301.273V307.818H326.909V297.818ZM306.254 302.391C306.03 299.769 305.42 297.277 304.367 294.97L295.269 299.12C295.793 300.268 296.152 301.625 296.291 303.245L306.254 302.391ZM304.397 295.037C303.365 292.683 301.897 290.62 300.004 288.895L293.269 296.287C294.103 297.047 294.756 297.953 295.239 299.054L304.397 295.037ZM300.089 288.974C298.191 287.163 295.937 285.84 293.421 284.961L290.124 294.402C291.426 294.857 292.415 295.473 293.184 296.208L300.089 288.974ZM293.487 284.985C290.934 284.053 288.172 283.636 285.273 283.636V293.636C287.222 293.636 288.793 293.917 290.058 294.379L293.487 284.985ZM285.273 283.636C280.195 283.636 275.554 284.882 271.63 287.633L277.37 295.821C279.324 294.451 281.866 293.636 285.273 293.636V283.636ZM271.61 287.647C267.786 290.355 265.024 294.154 263.211 298.759L272.516 302.423C273.733 299.331 275.395 297.22 277.39 295.807L271.61 287.647ZM263.199 298.791C261.436 303.36 260.636 308.625 260.636 314.455H270.636C270.636 309.497 271.322 305.518 272.528 302.391L263.199 298.791ZM260.636 314.455C260.636 320.558 261.443 325.998 263.257 330.604L272.562 326.941C271.345 323.851 270.636 319.745 270.636 314.455H260.636ZM263.274 330.649C265.128 335.228 267.932 338.979 271.817 341.569L277.364 333.249C275.431 331.96 273.781 329.954 272.544 326.897L263.274 330.649ZM271.848 341.589C275.706 344.122 280.2 345.273 285.091 345.273V335.273C281.8 335.273 279.294 334.515 277.334 333.229L271.848 341.589ZM285.091 345.273C287.829 345.273 290.434 344.936 292.851 344.183L289.877 334.635C288.597 335.034 287.02 335.273 285.091 335.273V345.273ZM292.921 344.16C295.3 343.381 297.468 342.234 299.357 340.68L293.006 332.956C292.169 333.645 291.125 334.226 289.806 334.658L292.921 344.16ZM299.357 340.68C301.23 339.141 302.75 337.283 303.902 335.143L295.098 330.402C294.553 331.414 293.861 332.253 293.006 332.956L299.357 340.68ZM303.886 335.173C305.074 333.002 305.835 330.631 306.216 328.113L296.329 326.615C296.105 328.096 295.684 329.331 295.114 330.373L303.886 335.173ZM301.237 332.364L326.874 332.545L326.945 322.546L301.308 322.364L301.237 332.364ZM321.924 327.162C321.673 330.423 320.751 333.854 319.06 337.476L328.122 341.705C330.249 337.146 331.539 332.547 331.894 327.929L321.924 327.162ZM319.066 337.464C317.433 340.938 315.084 344.217 311.95 347.297L318.959 354.43C322.855 350.601 325.931 346.365 328.116 341.718L319.066 337.464ZM311.95 347.297C308.992 350.204 305.248 352.625 300.62 354.503L304.38 363.769C310.055 361.466 314.948 358.371 318.959 354.43L311.95 347.297ZM300.62 354.503C296.184 356.304 290.861 357.273 284.545 357.273V367.273C291.867 367.273 298.513 366.151 304.38 363.769L300.62 354.503ZM284.545 357.273C276.739 357.273 269.904 355.605 263.922 352.374L259.169 361.172C266.763 365.274 275.261 367.273 284.545 367.273V357.273ZM263.93 352.378C258.061 349.193 253.381 344.508 249.875 338.171L241.125 343.011C245.498 350.916 251.515 357.019 259.161 361.167L263.93 352.378ZM249.883 338.185C246.473 331.973 244.636 324.137 244.636 314.455H234.636C234.636 325.378 236.709 334.966 241.117 342.997L249.883 338.185ZM244.636 314.455C244.636 304.721 246.514 296.893 249.991 290.729L241.281 285.816C236.758 293.835 234.636 303.46 234.636 314.455H244.636ZM249.996 290.721C253.559 284.377 258.282 279.703 264.179 276.544L259.457 267.729C251.779 271.842 245.713 277.926 241.277 285.824L249.996 290.721ZM264.195 276.536C270.192 273.296 276.94 271.636 284.545 271.636V261.636C275.424 261.636 267.02 263.644 259.442 267.737L264.195 276.536ZM284.545 271.636C289.967 271.636 294.848 272.377 299.227 273.8L302.319 264.29C296.819 262.502 290.881 261.636 284.545 261.636V271.636ZM299.227 273.8C303.609 275.225 307.375 277.281 310.581 279.94L316.964 272.242C312.716 268.719 307.815 266.078 302.319 264.29L299.227 273.8ZM310.6 279.955C313.769 282.557 316.34 285.776 318.313 289.669L327.233 285.149C324.66 280.073 321.231 275.746 316.946 272.227L310.6 279.955ZM318.313 289.669C320.253 293.497 321.487 297.991 321.927 303.236L331.892 302.401C331.361 296.069 329.838 290.291 327.233 285.149L318.313 289.669ZM363.83 321.727L358.83 321.661L358.83 321.694V321.727H363.83ZM363.83 361V366H368.83V361H363.83ZM338.739 361H333.739V366H338.739V361ZM338.739 267.909V262.909H333.739V267.909H338.739ZM362.92 267.909H367.92V262.909H362.92V267.909ZM362.92 304.455H357.92V309.455H362.92V304.455ZM363.648 304.455V309.455H367.183L368.361 306.122L363.648 304.455ZM371.511 294.045L374.316 298.185L374.328 298.177L374.34 298.169L371.511 294.045ZM397.602 293.636L394.978 297.892L394.986 297.897L394.994 297.902L397.602 293.636ZM406.102 302.909L401.644 305.173L401.651 305.186L401.658 305.2L406.102 302.909ZM409.102 316.455L404.102 316.425L404.102 316.44V316.455H409.102ZM409.102 361V366H414.102V361H409.102ZM384.011 361H379.011V366H384.011V361ZM384.011 321.727L379.012 321.683L379.011 321.705V321.727H384.011ZM381.42 313.591L377.661 316.888L377.675 316.904L377.69 316.92L381.42 313.591ZM368.648 312L371.156 316.325L371.17 316.317L371.183 316.31L368.648 312ZM365.102 315.818L360.646 313.55L360.638 313.566L360.63 313.582L365.102 315.818ZM358.83 321.727V361H368.83V321.727H358.83ZM363.83 356H338.739V366H363.83V356ZM343.739 361V267.909H333.739V361H343.739ZM338.739 272.909H362.92V262.909H338.739V272.909ZM357.92 267.909V304.455H367.92V267.909H357.92ZM362.92 309.455H363.648V299.455H362.92V309.455ZM368.361 306.122C369.606 302.603 371.594 300.029 374.316 298.185L368.706 289.906C364.095 293.031 360.841 297.397 358.934 302.787L368.361 306.122ZM374.34 298.169C377.047 296.311 380.432 295.273 384.739 295.273V285.273C378.742 285.273 373.309 286.749 368.683 289.922L374.34 298.169ZM384.739 295.273C388.899 295.273 392.247 296.208 394.978 297.892L400.227 289.381C395.685 286.58 390.457 285.273 384.739 285.273V295.273ZM394.994 297.902C397.847 299.647 400.051 302.035 401.644 305.173L410.561 300.646C408.154 295.905 404.691 292.11 400.211 289.371L394.994 297.902ZM401.658 305.2C403.267 308.322 404.129 312.02 404.102 316.425L414.102 316.484C414.137 310.707 412.998 305.375 410.547 300.618L401.658 305.2ZM404.102 316.455V361H414.102V316.455H404.102ZM409.102 356H384.011V366H409.102V356ZM389.011 361V321.727H379.011V361H389.011ZM389.011 321.771C389.049 317.467 387.965 313.416 385.151 310.262L377.69 316.92C378.391 317.705 379.034 319.079 379.012 321.683L389.011 321.771ZM385.18 310.294C382.293 307.002 378.31 305.636 374.011 305.636V315.636C376.137 315.636 377.094 316.241 377.661 316.888L385.18 310.294ZM374.011 305.636C371.21 305.636 368.524 306.272 366.113 307.69L371.183 316.31C371.862 315.91 372.752 315.636 374.011 315.636V305.636ZM366.139 307.675C363.733 309.07 361.901 311.085 360.646 313.55L369.558 318.087C370 317.218 370.532 316.687 371.156 316.325L366.139 307.675ZM360.63 313.582C359.399 316.044 358.868 318.794 358.83 321.661L368.829 321.793C368.852 320.054 369.169 318.865 369.574 318.054L360.63 313.582ZM429.125 359.909L427.121 364.49L427.145 364.501L427.17 364.511L429.125 359.909ZM421.125 353.182L416.926 355.896L421.125 353.182ZM420.17 331.955L424.673 334.13L424.677 334.12L424.682 334.11L420.17 331.955ZM425.625 325.273L428.6 329.291L425.625 325.273ZM433.761 321.318L432.363 316.518L432.351 316.521L433.761 321.318ZM443.852 319.545L444.229 324.531L444.239 324.53L443.852 319.545ZM453.261 318.455L454.145 323.376L454.169 323.371L454.194 323.367L453.261 318.455ZM458.443 316.591L461.425 320.605L461.461 320.578L461.497 320.55L458.443 316.591ZM457.943 309L455.088 313.105V313.105L457.943 309ZM446.716 309.136L449.566 313.244L449.575 313.238L449.583 313.233L446.716 309.136ZM444.034 313.909V318.909H448.379L448.985 314.606L444.034 313.909ZM420.943 313.909L415.956 313.553L415.573 318.909H420.943V313.909ZM424.989 302.182L420.839 299.392L420.834 299.4L424.989 302.182ZM435.58 293.545L437.684 298.081L437.696 298.075L437.709 298.07L435.58 293.545ZM466.398 292.045L464.971 296.838L464.988 296.843L465.005 296.848L466.398 292.045ZM476.534 296.909L473.534 300.909L473.548 300.92L473.562 300.93L476.534 296.909ZM482.898 304.182L478.465 306.495L478.48 306.524L478.495 306.552L482.898 304.182ZM485.125 361V366H490.125V361H485.125ZM461.67 361H456.67V366H461.67V361ZM461.67 351.182H466.67V346.182H461.67V351.182ZM461.125 351.182V346.182H458.129L456.716 348.824L461.125 351.182ZM456.034 357.5L452.903 353.601L452.889 353.613L452.874 353.625L456.034 357.5ZM449.261 361L447.888 356.192L447.88 356.195L447.872 356.197L449.261 361ZM454.489 345.091L452.383 340.556L452.367 340.563L452.352 340.571L454.489 345.091ZM458.625 341.682L454.556 338.776L458.625 341.682ZM460.216 330.455H465.216V323.007L458.323 325.827L460.216 330.455ZM458.08 331.227L456.556 326.465L456.527 326.474L456.498 326.484L458.08 331.227ZM455.716 331.909L454.503 327.058L454.482 327.064L454.461 327.069L455.716 331.909ZM453.08 332.5L452.129 327.591L452.114 327.594L452.099 327.597L453.08 332.5ZM450.216 333L449.467 328.056L449.455 328.058L449.444 328.06L450.216 333ZM445.443 334.5L447.853 338.881L447.871 338.871L447.889 338.861L445.443 334.5ZM442.716 337L438.44 334.408L438.428 334.428L438.417 334.447L442.716 337ZM443.898 344.727L446.912 340.738L443.898 344.727ZM440.943 357.091C437.03 357.091 433.776 356.453 431.08 355.307L427.17 364.511C431.322 366.275 435.947 367.091 440.943 367.091V357.091ZM431.129 355.328C428.599 354.221 426.71 352.612 425.324 350.467L416.926 355.896C419.419 359.752 422.863 362.627 427.121 364.49L431.129 355.328ZM425.324 350.467C424.042 348.485 423.216 345.683 423.216 341.727H413.216C413.216 347.044 414.329 351.879 416.926 355.896L425.324 350.467ZM423.216 341.727C423.216 338.462 423.774 335.988 424.673 334.13L415.668 329.779C413.96 333.315 413.216 337.356 413.216 341.727H423.216ZM424.682 334.11C425.648 332.089 426.951 330.512 428.6 329.291L422.65 321.254C419.633 323.488 417.299 326.366 415.659 329.799L424.682 334.11ZM428.6 329.291C430.413 327.95 432.583 326.877 435.172 326.115L432.351 316.521C428.758 317.578 425.504 319.141 422.65 321.254L428.6 329.291ZM435.16 326.119C437.913 325.317 440.931 324.781 444.229 324.531L443.475 314.56C439.561 314.856 435.852 315.501 432.363 316.518L435.16 326.119ZM444.239 324.53C448.225 324.222 451.547 323.842 454.145 323.376L452.378 313.533C450.249 313.915 447.298 314.263 443.466 314.56L444.239 324.53ZM454.194 323.367C456.806 322.871 459.44 322.079 461.425 320.605L455.462 312.577C455.462 312.577 455.406 312.618 455.267 312.688C455.13 312.758 454.932 312.845 454.66 312.943C454.109 313.141 453.346 313.349 452.329 313.542L454.194 323.367ZM461.497 320.55C463.778 318.79 465.034 316.255 465.034 313.364H455.034C455.034 313.364 455.034 313.32 455.052 313.24C455.069 313.159 455.101 313.062 455.152 312.96C455.202 312.857 455.259 312.774 455.311 312.713C455.361 312.653 455.394 312.629 455.389 312.632L461.497 320.55ZM465.034 313.364V313.182H455.034V313.364H465.034ZM465.034 313.182C465.034 309.863 463.644 306.875 460.799 304.895L455.088 313.105C455.134 313.137 455.135 313.144 455.113 313.12C455.103 313.108 455.09 313.092 455.076 313.071C455.062 313.051 455.05 313.03 455.039 313.009C455.029 312.988 455.022 312.971 455.019 312.961C455.015 312.95 455.015 312.949 455.017 312.958C455.021 312.977 455.034 313.047 455.034 313.182H465.034ZM460.799 304.895C458.356 303.197 455.492 302.545 452.58 302.545V312.545C454.031 312.545 454.742 312.864 455.088 313.105L460.799 304.895ZM452.58 302.545C449.46 302.545 446.421 303.24 443.849 305.04L449.583 313.233C450.041 312.912 450.911 312.545 452.58 312.545V302.545ZM443.866 305.028C441.007 307.012 439.538 309.983 439.083 313.212L448.985 314.606C449.136 313.533 449.455 313.321 449.566 313.244L443.866 305.028ZM444.034 308.909H420.943V318.909H444.034V308.909ZM425.93 314.265C426.171 310.901 427.227 307.826 429.143 304.963L420.834 299.4C417.962 303.689 416.322 308.433 415.956 313.553L425.93 314.265ZM429.138 304.971C430.969 302.248 433.728 299.917 437.684 298.081L433.475 289.01C428.158 291.477 423.857 294.904 420.839 299.392L429.138 304.971ZM437.709 298.07C441.487 296.292 446.493 295.273 452.943 295.273V285.273C445.515 285.273 438.945 286.436 433.451 289.021L437.709 298.07ZM452.943 295.273C457.557 295.273 461.549 295.819 464.971 296.838L467.824 287.253C463.308 285.909 458.33 285.273 452.943 285.273V295.273ZM465.005 296.848C468.5 297.861 471.31 299.241 473.534 300.909L479.534 292.909C476.183 290.396 472.235 288.532 467.791 287.243L465.005 296.848ZM473.562 300.93C475.803 302.586 477.396 304.446 478.465 306.495L487.331 301.869C485.49 298.342 482.841 295.353 479.506 292.888L473.562 300.93ZM478.495 306.552C479.574 308.555 480.125 310.737 480.125 313.182H490.125C490.125 309.142 489.191 305.324 487.3 301.811L478.495 306.552ZM480.125 313.182V361H490.125V313.182H480.125ZM485.125 356H461.67V366H485.125V356ZM466.67 361V351.182H456.67V361H466.67ZM461.67 346.182H461.125V356.182H461.67V346.182ZM456.716 348.824C455.592 350.925 454.304 352.477 452.903 353.601L459.165 361.399C461.764 359.311 463.87 356.651 465.534 353.54L456.716 348.824ZM452.874 353.625C451.453 354.784 449.808 355.644 447.888 356.192L450.635 365.808C453.805 364.902 456.676 363.428 459.194 361.375L452.874 353.625ZM447.872 356.197C445.873 356.775 443.576 357.091 440.943 357.091V367.091C444.371 367.091 447.619 366.68 450.65 365.803L447.872 356.197ZM449.125 351.273C451.746 351.273 454.267 350.726 456.626 349.611L452.352 340.571C451.377 341.031 450.322 341.273 449.125 341.273V351.273ZM456.594 349.626C459.055 348.484 461.117 346.795 462.694 344.588L454.556 338.776C454.011 339.539 453.317 340.122 452.383 340.556L456.594 349.626ZM462.694 344.588C464.454 342.123 465.216 339.261 465.216 336.273H455.216C455.216 337.527 454.917 338.271 454.556 338.776L462.694 344.588ZM465.216 336.273V330.455H455.216V336.273H465.216ZM458.323 325.827C457.789 326.045 457.201 326.259 456.556 326.465L459.603 335.989C460.473 335.711 461.309 335.409 462.109 335.082L458.323 325.827ZM456.498 326.484C455.908 326.681 455.244 326.873 454.503 327.058L456.929 336.76C457.884 336.521 458.797 336.259 459.661 335.971L456.498 326.484ZM454.461 327.069C453.756 327.252 452.98 327.427 452.129 327.591L454.03 337.409C455.058 337.21 456.04 336.99 456.971 336.749L454.461 327.069ZM452.099 327.597C451.273 327.762 450.396 327.916 449.467 328.056L450.965 337.944C452.036 337.781 453.068 337.601 454.06 337.403L452.099 327.597ZM449.444 328.06C447.123 328.423 444.914 329.064 442.997 330.139L447.889 338.861C448.457 338.542 449.43 338.183 450.988 337.94L449.444 328.06ZM443.034 330.119C441.195 331.13 439.577 332.532 438.44 334.408L446.992 339.592C447.067 339.468 447.268 339.203 447.853 338.881L443.034 330.119ZM438.417 334.447C437.348 336.247 436.852 338.232 436.852 340.273H446.852C446.852 339.889 446.932 339.692 447.015 339.553L438.417 334.447ZM436.852 340.273C436.852 343.538 438.089 346.605 440.884 348.717L446.912 340.738C446.874 340.71 446.871 340.701 446.882 340.715C446.894 340.73 446.904 340.746 446.908 340.754C446.918 340.777 446.852 340.655 446.852 340.273H436.852ZM440.884 348.717C443.307 350.547 446.183 351.273 449.125 351.273V341.273C447.825 341.273 447.216 340.968 446.912 340.738L440.884 348.717ZM519.659 344.455L514.659 344.424L514.57 359.07L523.597 347.536L519.659 344.455ZM519.841 314.636V309.636H514.871L514.841 314.606L519.841 314.636ZM523.114 314.636V319.636H525.673L527.17 317.56L523.114 314.636ZM540.023 291.182V286.182H537.464L535.967 288.258L540.023 291.182ZM568.205 291.182L572.154 294.247L578.414 286.182H568.205V291.182ZM539.841 327.727V332.727H542.29L543.791 330.793L539.841 327.727ZM532.75 327.727V322.727H530.314L528.812 324.646L532.75 327.727ZM497.114 361H492.114V366H497.114V361ZM497.114 267.909V262.909H492.114V267.909H497.114ZM522.205 267.909H527.205V262.909H522.205V267.909ZM522.205 361V366H527.205V361H522.205ZM540.205 361L535.877 363.505L537.322 366H540.205V361ZM524.205 333.364L520.522 329.982L518.036 332.688L519.877 335.869L524.205 333.364ZM540.568 315.545L544.81 312.899L541.331 307.323L536.886 312.163L540.568 315.545ZM568.932 361V366H577.945L573.174 358.353L568.932 361ZM524.659 344.485L524.841 314.667L514.841 314.606L514.659 344.424L524.659 344.485ZM519.841 319.636H523.114V309.636H519.841V319.636ZM527.17 317.56L544.079 294.106L535.967 288.258L519.058 311.712L527.17 317.56ZM540.023 296.182H568.205V286.182H540.023V296.182ZM564.255 288.116L535.891 324.662L543.791 330.793L572.154 294.247L564.255 288.116ZM539.841 322.727H532.75V332.727H539.841V322.727ZM528.812 324.646L515.722 341.373L523.597 347.536L536.688 330.809L528.812 324.646ZM502.114 361V267.909H492.114V361H502.114ZM497.114 272.909H522.205V262.909H497.114V272.909ZM517.205 267.909V361H527.205V267.909H517.205ZM522.205 356H497.114V366H522.205V356ZM544.532 358.495L528.532 330.858L519.877 335.869L535.877 363.505L544.532 358.495ZM527.887 336.746L544.251 318.927L536.886 312.163L520.522 329.982L527.887 336.746ZM536.326 318.192L564.69 363.647L573.174 358.353L544.81 312.899L536.326 318.192ZM568.932 356H540.205V366H568.932V356ZM574.739 361H569.739V366H574.739V361ZM574.739 291.182V286.182H569.739V291.182H574.739ZM599.102 291.182H604.102V286.182H599.102V291.182ZM599.102 304.455H594.102V309.455H599.102V304.455ZM599.83 304.455V309.455H603.699L604.67 305.709L599.83 304.455ZM605.875 293.682L602.716 289.806L602.705 289.815L602.695 289.823L605.875 293.682ZM618.875 290.545L618.03 295.474L618.108 295.487L618.187 295.498L618.875 290.545ZM622.011 291.227H627.011V287.518L623.461 286.442L622.011 291.227ZM622.011 312.636L620.396 317.368L627.011 319.627V312.636H622.011ZM617.42 311.682L618 306.715H618L617.42 311.682ZM606.102 313.045L608.554 317.403L608.565 317.397L608.576 317.391L606.102 313.045ZM601.511 317.682L605.857 320.155L605.865 320.141L605.873 320.127L601.511 317.682ZM599.83 361V366H604.83V361H599.83ZM579.739 361V291.182H569.739V361H579.739ZM574.739 296.182H599.102V286.182H574.739V296.182ZM594.102 291.182V304.455H604.102V291.182H594.102ZM599.102 309.455H599.83V299.455H599.102V309.455ZM604.67 305.709C605.785 301.407 607.389 298.913 609.055 297.54L602.695 289.823C598.846 292.996 596.42 297.683 594.99 303.2L604.67 305.709ZM609.034 297.557C610.895 296.04 613.026 295.273 615.648 295.273V285.273C610.815 285.273 606.43 286.778 602.716 289.806L609.034 297.557ZM615.648 295.273C616.459 295.273 617.252 295.34 618.03 295.474L619.72 285.617C618.376 285.387 617.018 285.273 615.648 285.273V295.273ZM618.187 295.498C619.034 295.616 619.824 295.789 620.561 296.012L623.461 286.442C622.199 286.06 620.898 285.778 619.563 285.593L618.187 295.498ZM617.011 291.227V312.636H627.011V291.227H617.011ZM623.627 307.905C621.946 307.331 620.044 306.954 618 306.715L616.841 316.648C618.433 316.834 619.592 317.094 620.396 317.368L623.627 307.905ZM618 306.715C616.06 306.489 614.295 306.364 612.739 306.364V316.364C613.788 316.364 615.145 316.45 616.841 316.648L618 306.715ZM612.739 306.364C609.491 306.364 606.414 307.115 603.629 308.7L608.576 317.391C609.73 316.734 611.077 316.364 612.739 316.364V306.364ZM603.651 308.688C600.886 310.243 598.706 312.461 597.15 315.237L605.873 320.127C606.559 318.902 607.44 318.03 608.554 317.403L603.651 308.688ZM597.166 315.208C595.546 318.055 594.83 321.256 594.83 324.636H604.83C604.83 322.683 605.235 321.248 605.857 320.155L597.166 315.208ZM594.83 324.636V361H604.83V324.636H594.83ZM599.83 356H574.739V366H599.83V356ZM634.625 359.909L632.621 364.49L632.645 364.501L632.67 364.511L634.625 359.909ZM626.625 353.182L622.426 355.896L626.625 353.182ZM625.67 331.955L630.173 334.13L630.177 334.12L630.182 334.11L625.67 331.955ZM631.125 325.273L634.1 329.291L631.125 325.273ZM639.261 321.318L637.863 316.518L637.851 316.521L639.261 321.318ZM649.352 319.545L649.729 324.531L649.739 324.53L649.352 319.545ZM658.761 318.455L659.645 323.376L659.669 323.371L659.694 323.367L658.761 318.455ZM663.943 316.591L666.925 320.605L666.961 320.578L666.997 320.55L663.943 316.591ZM663.443 309L660.588 313.105V313.105L663.443 309ZM652.216 309.136L655.066 313.244L655.075 313.238L655.083 313.233L652.216 309.136ZM649.534 313.909V318.909H653.879L654.485 314.606L649.534 313.909ZM626.443 313.909L621.456 313.553L621.073 318.909H626.443V313.909ZM630.489 302.182L626.339 299.392L626.334 299.4L630.489 302.182ZM641.08 293.545L643.184 298.081L643.196 298.075L643.209 298.07L641.08 293.545ZM671.898 292.045L670.471 296.838L670.488 296.843L670.505 296.848L671.898 292.045ZM682.034 296.909L679.034 300.909L679.048 300.92L679.062 300.93L682.034 296.909ZM688.398 304.182L683.965 306.495L683.98 306.524L683.995 306.552L688.398 304.182ZM690.625 361V366H695.625V361H690.625ZM667.17 361H662.17V366H667.17V361ZM667.17 351.182H672.17V346.182H667.17V351.182ZM666.625 351.182V346.182H663.629L662.216 348.824L666.625 351.182ZM661.534 357.5L658.403 353.601L658.389 353.613L658.374 353.625L661.534 357.5ZM654.761 361L653.388 356.192L653.38 356.195L653.372 356.197L654.761 361ZM659.989 345.091L657.883 340.556L657.867 340.563L657.852 340.571L659.989 345.091ZM664.125 341.682L660.056 338.776L664.125 341.682ZM665.716 330.455H670.716V323.007L663.823 325.827L665.716 330.455ZM663.58 331.227L662.056 326.465L662.027 326.474L661.998 326.484L663.58 331.227ZM661.216 331.909L660.003 327.058L659.982 327.064L659.961 327.069L661.216 331.909ZM658.58 332.5L657.629 327.591L657.614 327.594L657.599 327.597L658.58 332.5ZM655.716 333L654.967 328.056L654.955 328.058L654.944 328.06L655.716 333ZM650.943 334.5L653.353 338.881L653.371 338.871L653.389 338.861L650.943 334.5ZM648.216 337L643.94 334.408L643.928 334.428L643.917 334.447L648.216 337ZM649.398 344.727L652.412 340.738L649.398 344.727ZM646.443 357.091C642.53 357.091 639.276 356.453 636.58 355.307L632.67 364.511C636.822 366.275 641.447 367.091 646.443 367.091V357.091ZM636.629 355.328C634.099 354.221 632.21 352.612 630.824 350.467L622.426 355.896C624.919 359.752 628.363 362.627 632.621 364.49L636.629 355.328ZM630.824 350.467C629.542 348.485 628.716 345.683 628.716 341.727H618.716C618.716 347.044 619.829 351.879 622.426 355.896L630.824 350.467ZM628.716 341.727C628.716 338.462 629.274 335.988 630.173 334.13L621.168 329.779C619.46 333.315 618.716 337.356 618.716 341.727H628.716ZM630.182 334.11C631.148 332.089 632.451 330.512 634.1 329.291L628.15 321.254C625.133 323.488 622.799 326.366 621.159 329.799L630.182 334.11ZM634.1 329.291C635.913 327.95 638.083 326.877 640.672 326.115L637.851 316.521C634.258 317.578 631.004 319.141 628.15 321.254L634.1 329.291ZM640.66 326.119C643.413 325.317 646.431 324.781 649.729 324.531L648.975 314.56C645.061 314.856 641.352 315.501 637.863 316.518L640.66 326.119ZM649.739 324.53C653.725 324.222 657.047 323.842 659.645 323.376L657.878 313.533C655.749 313.915 652.798 314.263 648.966 314.56L649.739 324.53ZM659.694 323.367C662.306 322.871 664.94 322.079 666.925 320.605L660.962 312.577C660.962 312.577 660.906 312.618 660.767 312.688C660.63 312.758 660.432 312.845 660.16 312.943C659.609 313.141 658.846 313.349 657.829 313.542L659.694 323.367ZM666.997 320.55C669.278 318.79 670.534 316.255 670.534 313.364H660.534C660.534 313.364 660.534 313.32 660.552 313.24C660.569 313.159 660.601 313.062 660.652 312.96C660.702 312.857 660.759 312.774 660.811 312.713C660.861 312.653 660.894 312.629 660.889 312.632L666.997 320.55ZM670.534 313.364V313.182H660.534V313.364H670.534ZM670.534 313.182C670.534 309.863 669.144 306.875 666.298 304.895L660.588 313.105C660.634 313.137 660.635 313.144 660.613 313.12C660.603 313.108 660.59 313.092 660.576 313.071C660.562 313.051 660.55 313.03 660.539 313.009C660.529 312.988 660.522 312.971 660.519 312.961C660.515 312.95 660.515 312.949 660.517 312.958C660.521 312.977 660.534 313.047 660.534 313.182H670.534ZM666.298 304.895C663.856 303.197 660.992 302.545 658.08 302.545V312.545C659.531 312.545 660.242 312.864 660.588 313.105L666.298 304.895ZM658.08 302.545C654.96 302.545 651.921 303.24 649.349 305.04L655.083 313.233C655.541 312.912 656.411 312.545 658.08 312.545V302.545ZM649.366 305.028C646.507 307.012 645.038 309.983 644.583 313.212L654.485 314.606C654.636 313.533 654.955 313.321 655.066 313.244L649.366 305.028ZM649.534 308.909H626.443V318.909H649.534V308.909ZM631.43 314.265C631.671 310.901 632.727 307.826 634.643 304.963L626.334 299.4C623.462 303.689 621.822 308.433 621.456 313.553L631.43 314.265ZM634.638 304.971C636.469 302.248 639.228 299.917 643.184 298.081L638.975 289.01C633.658 291.477 629.357 294.904 626.339 299.392L634.638 304.971ZM643.209 298.07C646.987 296.292 651.993 295.273 658.443 295.273V285.273C651.015 285.273 644.445 286.436 638.951 289.021L643.209 298.07ZM658.443 295.273C663.057 295.273 667.049 295.819 670.471 296.838L673.324 287.253C668.808 285.909 663.83 285.273 658.443 285.273V295.273ZM670.505 296.848C674 297.861 676.81 299.241 679.034 300.909L685.034 292.909C681.683 290.396 677.735 288.532 673.291 287.243L670.505 296.848ZM679.062 300.93C681.303 302.586 682.896 304.446 683.965 306.495L692.831 301.869C690.99 298.342 688.341 295.353 685.006 292.888L679.062 300.93ZM683.995 306.552C685.074 308.555 685.625 310.737 685.625 313.182H695.625C695.625 309.142 694.691 305.324 692.8 301.811L683.995 306.552ZM685.625 313.182V361H695.625V313.182H685.625ZM690.625 356H667.17V366H690.625V356ZM672.17 361V351.182H662.17V361H672.17ZM667.17 346.182H666.625V356.182H667.17V346.182ZM662.216 348.824C661.092 350.925 659.804 352.477 658.403 353.601L664.665 361.399C667.264 359.311 669.37 356.651 671.034 353.54L662.216 348.824ZM658.374 353.625C656.953 354.784 655.308 355.644 653.388 356.192L656.135 365.808C659.305 364.902 662.176 363.428 664.694 361.375L658.374 353.625ZM653.372 356.197C651.373 356.775 649.076 357.091 646.443 357.091V367.091C649.871 367.091 653.119 366.68 656.15 365.803L653.372 356.197ZM654.625 351.273C657.246 351.273 659.767 350.726 662.126 349.611L657.852 340.571C656.877 341.031 655.822 341.273 654.625 341.273V351.273ZM662.094 349.626C664.555 348.484 666.617 346.795 668.194 344.588L660.056 338.776C659.511 339.539 658.817 340.122 657.883 340.556L662.094 349.626ZM668.194 344.588C669.954 342.123 670.716 339.261 670.716 336.273H660.716C660.716 337.527 660.417 338.271 660.056 338.776L668.194 344.588ZM670.716 336.273V330.455H660.716V336.273H670.716ZM663.823 325.827C663.289 326.045 662.701 326.259 662.056 326.465L665.103 335.989C665.973 335.711 666.809 335.409 667.609 335.082L663.823 325.827ZM661.998 326.484C661.408 326.681 660.744 326.873 660.003 327.058L662.429 336.76C663.384 336.521 664.297 336.259 665.161 335.971L661.998 326.484ZM659.961 327.069C659.256 327.252 658.48 327.427 657.629 327.591L659.53 337.409C660.558 337.21 661.54 336.99 662.471 336.749L659.961 327.069ZM657.599 327.597C656.773 327.762 655.896 327.916 654.967 328.056L656.465 337.944C657.536 337.781 658.568 337.601 659.56 337.403L657.599 327.597ZM654.944 328.06C652.623 328.423 650.414 329.064 648.497 330.139L653.389 338.861C653.957 338.542 654.93 338.183 656.488 337.94L654.944 328.06ZM648.534 330.119C646.695 331.13 645.077 332.532 643.94 334.408L652.492 339.592C652.567 339.468 652.768 339.203 653.353 338.881L648.534 330.119ZM643.917 334.447C642.848 336.247 642.352 338.232 642.352 340.273H652.352C652.352 339.889 652.432 339.692 652.515 339.553L643.917 334.447ZM642.352 340.273C642.352 343.538 643.589 346.605 646.384 348.717L652.412 340.738C652.374 340.71 652.371 340.701 652.382 340.715C652.394 340.73 652.404 340.746 652.408 340.754C652.418 340.777 652.352 340.655 652.352 340.273H642.352ZM646.384 348.717C648.807 350.547 651.683 351.273 654.625 351.273V341.273C653.325 341.273 652.716 340.968 652.412 340.738L646.384 348.717ZM770.477 291.182L775.217 292.774L777.432 286.182H770.477V291.182ZM747.023 361V366H750.618L751.762 362.592L747.023 361ZM717.932 361L713.192 362.592L714.337 366H717.932V361ZM694.477 291.182V286.182H687.523L689.738 292.774L694.477 291.182ZM720.841 291.182L725.698 289.996L724.767 286.182H720.841V291.182ZM732.114 337.364L727.256 338.549L728.187 342.364H732.114V337.364ZM732.841 337.364V342.364H736.767L737.698 338.549L732.841 337.364ZM744.114 291.182V286.182H740.187L739.256 289.996L744.114 291.182ZM765.738 289.59L742.283 359.408L751.762 362.592L775.217 292.774L765.738 289.59ZM747.023 356H717.932V366H747.023V356ZM722.672 359.408L699.217 289.59L689.738 292.774L713.192 362.592L722.672 359.408ZM694.477 296.182H720.841V286.182H694.477V296.182ZM715.984 292.367L727.256 338.549L736.971 336.178L725.698 289.996L715.984 292.367ZM732.114 342.364H732.841V332.364H732.114V342.364ZM737.698 338.549L748.971 292.367L739.256 289.996L727.984 336.178L737.698 338.549ZM744.114 296.182H770.477V286.182H744.114V296.182ZM784.659 386.5L785.518 381.574L785.49 381.57L785.462 381.565L784.659 386.5ZM777.795 384.727L773.014 383.264L771.65 387.721L776.001 389.394L777.795 384.727ZM783.25 366.909L784.914 362.194L779.996 360.458L778.469 365.446L783.25 366.909ZM788.886 368.318L788.266 373.28L788.277 373.281L788.886 368.318ZM793.295 367.955L791.578 363.259L791.559 363.266L791.54 363.273L793.295 367.955ZM795.977 365.364L800.573 367.333L795.977 365.364ZM796.523 364.091L801.118 366.061L801.871 364.305L801.261 362.496L796.523 364.091ZM771.977 291.182V286.182H765.018L767.239 292.777L771.977 291.182ZM798.159 291.182L803.029 290.047L802.128 286.182H798.159V291.182ZM809.432 339.545L804.562 340.68L805.463 344.545H809.432V339.545ZM810.159 339.545V344.545H814.113L815.024 340.698L810.159 339.545ZM821.614 291.182V286.182H817.66L816.748 290.029L821.614 291.182ZM847.977 291.182L852.716 292.777L854.936 286.182H847.977V291.182ZM822.523 366.818L817.784 365.223L817.78 365.236L817.776 365.248L822.523 366.818ZM816.977 377.182L813.058 374.077L813.041 374.099L813.024 374.12L816.977 377.182ZM807.523 384.5L805.443 379.953L807.523 384.5ZM792.886 382.182C790.271 382.182 787.817 381.975 785.518 381.574L783.8 391.426C786.713 391.934 789.745 392.182 792.886 392.182V382.182ZM785.462 381.565C783.115 381.183 781.172 380.669 779.59 380.061L776.001 389.394C778.359 390.301 780.991 390.969 783.856 391.435L785.462 381.565ZM782.576 386.191L788.031 368.373L778.469 365.446L773.014 383.264L782.576 386.191ZM781.586 371.624C783.896 372.44 786.131 373.013 788.266 373.28L789.507 363.357C788.248 363.199 786.725 362.833 784.914 362.194L781.586 371.624ZM788.277 373.281C790.54 373.559 792.87 373.454 795.051 372.636L791.54 363.273C791.296 363.364 790.687 363.502 789.496 363.355L788.277 373.281ZM795.013 372.65C797.616 371.698 799.513 369.806 800.573 367.333L791.382 363.394C791.36 363.445 791.348 363.459 791.356 363.448C791.365 363.435 791.387 363.406 791.424 363.37C791.461 363.334 791.501 363.304 791.536 363.282C791.571 363.26 791.589 363.255 791.578 363.259L795.013 372.65ZM800.573 367.333L801.118 366.061L791.927 362.121L791.382 363.394L800.573 367.333ZM801.261 362.496L776.716 289.587L767.239 292.777L791.784 365.686L801.261 362.496ZM771.977 296.182H798.159V286.182H771.977V296.182ZM793.29 292.317L804.562 340.68L814.301 338.41L803.029 290.047L793.29 292.317ZM809.432 344.545H810.159V334.545H809.432V344.545ZM815.024 340.698L826.479 292.334L816.748 290.029L805.294 338.393L815.024 340.698ZM821.614 296.182H847.977V286.182H821.614V296.182ZM843.238 289.587L817.784 365.223L827.262 368.413L852.716 292.777L843.238 289.587ZM817.776 365.248C816.68 368.562 815.105 371.493 813.058 374.077L820.897 380.286C823.698 376.749 825.82 372.771 827.27 368.388L817.776 365.248ZM813.024 374.12C811.173 376.51 808.691 378.467 805.443 379.953L809.602 389.047C814.172 386.957 817.993 384.036 820.93 380.243L813.024 374.12ZM805.443 379.953C802.377 381.355 798.261 382.182 792.886 382.182V392.182C799.208 392.182 804.85 391.221 809.602 389.047L805.443 379.953ZM900.386 330.455H895.386V330.487L895.387 330.52L900.386 330.455ZM900.386 291.182V286.182H895.386V291.182H900.386ZM925.477 291.182H930.477V286.182H925.477V291.182ZM925.477 361V366H930.477V361H925.477ZM901.659 361H896.659V366H901.659V361ZM901.659 347.727H906.659V342.727H901.659V347.727ZM900.932 347.727V342.727H897.351L896.198 346.117L900.932 347.727ZM892.977 358.182L895.72 362.363L895.732 362.355L895.743 362.347L892.977 358.182ZM866.659 358.545L864.035 362.801L864.043 362.806L864.05 362.811L866.659 358.545ZM858.159 349.273L853.701 351.536L853.708 351.55L853.715 351.563L858.159 349.273ZM855.114 335.727H850.114V335.742L850.114 335.757L855.114 335.727ZM855.114 291.182V286.182H850.114V291.182H855.114ZM880.205 291.182H885.205V286.182H880.205V291.182ZM880.205 330.455H875.205V330.476L875.205 330.498L880.205 330.455ZM882.841 338.591L879.082 341.888L879.096 341.904L879.11 341.92L882.841 338.591ZM895.614 340.227L898.122 344.552L898.135 344.545L898.149 344.537L895.614 340.227ZM899.159 336.409L894.703 334.141L894.695 334.157L894.687 334.173L899.159 336.409ZM905.386 330.455V291.182H895.386V330.455H905.386ZM900.386 296.182H925.477V286.182H900.386V296.182ZM920.477 291.182V361H930.477V291.182H920.477ZM925.477 356H901.659V366H925.477V356ZM906.659 361V347.727H896.659V361H906.659ZM901.659 342.727H900.932V352.727H901.659V342.727ZM896.198 346.117C895.025 349.565 893.045 352.135 890.211 354.016L895.743 362.347C900.485 359.199 903.808 354.798 905.665 349.337L896.198 346.117ZM890.235 354.001C887.379 355.874 883.865 356.909 879.477 356.909V366.909C885.513 366.909 891 365.459 895.72 362.363L890.235 354.001ZM879.477 356.909C875.392 356.909 872.047 355.98 869.268 354.28L864.05 362.811C868.604 365.596 873.805 366.909 879.477 366.909V356.909ZM869.284 354.29C866.451 352.543 864.234 350.145 862.604 346.982L853.715 351.563C856.145 356.279 859.594 360.063 864.035 362.801L869.284 354.29ZM862.617 347.009C861.019 343.861 860.14 340.13 860.114 335.698L850.114 335.757C850.148 341.506 851.299 346.806 853.701 351.536L862.617 347.009ZM860.114 335.727V291.182H850.114V335.727H860.114ZM855.114 296.182H880.205V286.182H855.114V296.182ZM875.205 291.182V330.455H885.205V291.182H875.205ZM875.205 330.498C875.242 334.763 876.342 338.763 879.082 341.888L886.6 335.294C885.885 334.479 885.228 333.055 885.204 330.411L875.205 330.498ZM879.11 341.92C882 345.159 885.93 346.545 890.205 346.545V336.545C888.176 336.545 887.197 335.963 886.572 335.262L879.11 341.92ZM890.205 346.545C893.005 346.545 895.709 345.952 898.122 344.552L893.105 335.902C892.488 336.26 891.586 336.545 890.205 336.545V346.545ZM898.149 344.537C900.544 343.128 902.391 341.127 903.631 338.645L894.687 334.173C894.291 334.964 893.774 335.509 893.079 335.918L898.149 344.537ZM903.615 338.678C904.907 336.14 905.424 333.318 905.386 330.389L895.387 330.52C895.409 332.198 895.108 333.345 894.703 334.141L903.615 338.678ZM963.33 321.727L958.33 321.661L958.33 321.694V321.727H963.33ZM963.33 361V366H968.33V361H963.33ZM938.239 361H933.239V366H938.239V361ZM938.239 267.909V262.909H933.239V267.909H938.239ZM962.42 267.909H967.42V262.909H962.42V267.909ZM962.42 304.455H957.42V309.455H962.42V304.455ZM963.148 304.455V309.455H966.683L967.862 306.122L963.148 304.455ZM971.011 294.045L973.816 298.185L973.828 298.177L973.84 298.169L971.011 294.045ZM997.102 293.636L994.478 297.892L994.486 297.897L994.494 297.902L997.102 293.636ZM1005.6 302.909L1001.14 305.173L1001.15 305.186L1001.16 305.2L1005.6 302.909ZM1008.6 316.455L1003.6 316.425L1003.6 316.44V316.455H1008.6ZM1008.6 361V366H1013.6V361H1008.6ZM983.511 361H978.511V366H983.511V361ZM983.511 321.727L978.512 321.683L978.511 321.705V321.727H983.511ZM980.92 313.591L977.161 316.888L977.175 316.904L977.19 316.92L980.92 313.591ZM968.148 312L970.656 316.325L970.67 316.317L970.683 316.31L968.148 312ZM964.602 315.818L960.146 313.55L960.138 313.566L960.13 313.582L964.602 315.818ZM958.33 321.727V361H968.33V321.727H958.33ZM963.33 356H938.239V366H963.33V356ZM943.239 361V267.909H933.239V361H943.239ZM938.239 272.909H962.42V262.909H938.239V272.909ZM957.42 267.909V304.455H967.42V267.909H957.42ZM962.42 309.455H963.148V299.455H962.42V309.455ZM967.862 306.122C969.106 302.603 971.094 300.029 973.816 298.185L968.206 289.906C963.595 293.031 960.341 297.397 958.434 302.787L967.862 306.122ZM973.84 298.169C976.547 296.311 979.932 295.273 984.239 295.273V285.273C978.242 285.273 972.809 286.749 968.183 289.922L973.84 298.169ZM984.239 295.273C988.399 295.273 991.747 296.208 994.478 297.892L999.727 289.381C995.185 286.58 989.957 285.273 984.239 285.273V295.273ZM994.494 297.902C997.347 299.647 999.551 302.035 1001.14 305.173L1010.06 300.646C1007.65 295.905 1004.19 292.11 999.711 289.371L994.494 297.902ZM1001.16 305.2C1002.77 308.322 1003.63 312.02 1003.6 316.425L1013.6 316.484C1013.64 310.707 1012.5 305.375 1010.05 300.618L1001.16 305.2ZM1003.6 316.455V361H1013.6V316.455H1003.6ZM1008.6 356H983.511V366H1008.6V356ZM988.511 361V321.727H978.511V361H988.511ZM988.511 321.771C988.549 317.467 987.465 313.416 984.651 310.262L977.19 316.92C977.891 317.705 978.534 319.079 978.512 321.683L988.511 321.771ZM984.68 310.294C981.793 307.002 977.81 305.636 973.511 305.636V315.636C975.637 315.636 976.594 316.241 977.161 316.888L984.68 310.294ZM973.511 305.636C970.71 305.636 968.024 306.272 965.613 307.69L970.683 316.31C971.362 315.91 972.252 315.636 973.511 315.636V305.636ZM965.639 307.675C963.233 309.07 961.401 311.085 960.146 313.55L969.058 318.087C969.5 317.218 970.032 316.687 970.656 316.325L965.639 307.675ZM960.13 313.582C958.899 316.044 958.368 318.794 958.33 321.661L968.329 321.793C968.352 320.054 968.669 318.865 969.074 318.054L960.13 313.582Z" fill="url(#paint4_linear_146_95)" mask="url(#path-5-outside-1_146_95)"/>
<path d="M63.5234 34.8515L56 54.625H64.0948L67.8088 43.9341L63.5234 34.8515Z" fill="white"/>
<path d="M74.4751 54.625L64.8566 34H72.7609L82.3794 54.625H74.4751Z" fill="white"/>
<path d="M79.1073 39.0143L76.917 34H84.5356L87.0116 39.0143H79.1073Z" fill="white"/>
<path d="M86.2498 54.625L79.4883 40.3389H87.4878L94.4398 54.625H86.2498Z" fill="white"/>
<path d="M90.882 39.0143L88.6916 34H101.643L104.024 39.0143H90.882Z" fill="white"/>
<path d="M100.405 54.625L93.8342 40.3389H101.643L108.5 54.625H100.405Z" fill="white"/>
<path d="M140.648 39.3636V35.5455H155.818V39.3636H150.568V53H145.898V39.3636H140.648ZM157.602 53V35.5455H170.181V39.3636H162.34V42.3636H169.533V46.1818H162.34V49.1818H170.147V53H157.602ZM188.827 42.0909H184.02C183.986 41.6932 183.895 41.3324 183.747 41.0085C183.605 40.6847 183.406 40.4062 183.151 40.1733C182.901 39.9347 182.597 39.7528 182.239 39.6278C181.881 39.4972 181.474 39.4318 181.02 39.4318C180.224 39.4318 179.551 39.625 179 40.0114C178.455 40.3977 178.04 40.9517 177.756 41.6733C177.477 42.3949 177.338 43.2614 177.338 44.2727C177.338 45.3409 177.48 46.2358 177.764 46.9574C178.054 47.6733 178.472 48.2131 179.017 48.5767C179.563 48.9347 180.219 49.1136 180.986 49.1136C181.423 49.1136 181.815 49.0597 182.162 48.9517C182.509 48.8381 182.81 48.6761 183.065 48.4659C183.321 48.2557 183.528 48.0028 183.688 47.7074C183.852 47.4062 183.963 47.0682 184.02 46.6932L188.827 46.7273C188.77 47.4659 188.563 48.2187 188.205 48.9858C187.847 49.7472 187.338 50.4517 186.679 51.0994C186.026 51.7415 185.216 52.2585 184.25 52.6506C183.284 53.0426 182.162 53.2386 180.884 53.2386C179.281 53.2386 177.844 52.8949 176.571 52.2074C175.304 51.5199 174.301 50.5085 173.562 49.1733C172.83 47.8381 172.463 46.2045 172.463 44.2727C172.463 42.3295 172.838 40.6932 173.588 39.3636C174.338 38.0284 175.349 37.0199 176.622 36.3381C177.895 35.6506 179.315 35.3068 180.884 35.3068C181.986 35.3068 183 35.4574 183.926 35.7585C184.852 36.0597 185.665 36.5 186.364 37.0795C187.063 37.6534 187.625 38.3608 188.051 39.2017C188.477 40.0426 188.736 41.0057 188.827 42.0909ZM190.977 53V35.5455H195.715V42.3636H201.988V35.5455H206.727V53H201.988V46.1818H195.715V53H190.977ZM224.079 35.5455V53H220.124L213.817 43.8295H213.715V53H208.977V35.5455H212.999L219.204 44.6818H219.34V35.5455H224.079ZM243.229 44.2727C243.229 46.2159 242.852 47.8551 242.096 49.1903C241.34 50.5199 240.32 51.5284 239.036 52.2159C237.752 52.8977 236.32 53.2386 234.741 53.2386C233.15 53.2386 231.712 52.8949 230.428 52.2074C229.15 51.5142 228.133 50.5028 227.377 49.1733C226.627 47.8381 226.252 46.2045 226.252 44.2727C226.252 42.3295 226.627 40.6932 227.377 39.3636C228.133 38.0284 229.15 37.0199 230.428 36.3381C231.712 35.6506 233.15 35.3068 234.741 35.3068C236.32 35.3068 237.752 35.6506 239.036 36.3381C240.32 37.0199 241.34 38.0284 242.096 39.3636C242.852 40.6932 243.229 42.3295 243.229 44.2727ZM238.354 44.2727C238.354 43.2273 238.215 42.3466 237.937 41.6307C237.664 40.9091 237.258 40.3636 236.718 39.9943C236.184 39.6193 235.525 39.4318 234.741 39.4318C233.957 39.4318 233.295 39.6193 232.755 39.9943C232.221 40.3636 231.815 40.9091 231.536 41.6307C231.263 42.3466 231.127 43.2273 231.127 44.2727C231.127 45.3182 231.263 46.2017 231.536 46.9233C231.815 47.6392 232.221 48.1847 232.755 48.5597C233.295 48.929 233.957 49.1136 234.741 49.1136C235.525 49.1136 236.184 48.929 236.718 48.5597C237.258 48.1847 237.664 47.6392 237.937 46.9233C238.215 46.2017 238.354 45.3182 238.354 44.2727ZM254.831 41C254.786 40.4318 254.572 39.9886 254.192 39.6705C253.817 39.3523 253.246 39.1932 252.479 39.1932C251.99 39.1932 251.589 39.2528 251.277 39.3722C250.97 39.4858 250.743 39.642 250.595 39.8409C250.447 40.0398 250.371 40.267 250.365 40.5227C250.354 40.733 250.391 40.9233 250.476 41.0938C250.567 41.2585 250.709 41.4091 250.902 41.5455C251.095 41.6761 251.342 41.7955 251.643 41.9034C251.945 42.0114 252.303 42.108 252.717 42.1932L254.149 42.5C255.115 42.7045 255.942 42.9744 256.629 43.3097C257.317 43.6449 257.879 44.0398 258.317 44.4943C258.754 44.9432 259.075 45.4489 259.28 46.0114C259.49 46.5739 259.598 47.1875 259.604 47.8523C259.598 49 259.311 49.9716 258.743 50.767C258.175 51.5625 257.362 52.1676 256.305 52.5824C255.254 52.9972 253.99 53.2045 252.513 53.2045C250.996 53.2045 249.672 52.9801 248.541 52.5312C247.416 52.0824 246.541 51.392 245.916 50.4602C245.297 49.5227 244.984 48.3239 244.979 46.8636H249.479C249.507 47.3977 249.641 47.8466 249.879 48.2102C250.118 48.5739 250.453 48.8494 250.885 49.0369C251.322 49.2244 251.842 49.3182 252.445 49.3182C252.95 49.3182 253.374 49.2557 253.714 49.1307C254.055 49.0057 254.314 48.8324 254.49 48.6108C254.666 48.3892 254.757 48.1364 254.763 47.8523C254.757 47.5852 254.669 47.3523 254.499 47.1534C254.334 46.9489 254.061 46.767 253.68 46.608C253.3 46.4432 252.786 46.2898 252.138 46.1477L250.399 45.7727C248.854 45.4375 247.635 44.8778 246.743 44.0938C245.857 43.304 245.416 42.2273 245.422 40.8636C245.416 39.7557 245.712 38.7869 246.308 37.9574C246.911 37.1222 247.743 36.4716 248.805 36.0057C249.874 35.5398 251.098 35.3068 252.479 35.3068C253.888 35.3068 255.107 35.5426 256.135 36.0142C257.163 36.4858 257.956 37.1506 258.513 38.0085C259.075 38.8608 259.359 39.858 259.365 41H254.831ZM261.406 53V35.5455H268.94C270.236 35.5455 271.369 35.8011 272.341 36.3125C273.313 36.8239 274.068 37.5426 274.608 38.4688C275.148 39.3949 275.418 40.4773 275.418 41.7159C275.418 42.9659 275.139 44.0483 274.582 44.9631C274.031 45.8778 273.256 46.5824 272.256 47.0767C271.261 47.571 270.099 47.8182 268.77 47.8182H264.27V44.1364H267.815C268.372 44.1364 268.847 44.0398 269.239 43.8466C269.636 43.6477 269.94 43.3665 270.151 43.0028C270.366 42.6392 270.474 42.2102 270.474 41.7159C270.474 41.2159 270.366 40.7898 270.151 40.4375C269.94 40.0795 269.636 39.8068 269.239 39.6193C268.847 39.4261 268.372 39.3295 267.815 39.3295H266.145V53H261.406ZM279.511 53H274.397L280.158 35.5455H286.636L292.397 53H287.283L283.465 40.3523H283.329L279.511 53ZM278.556 46.1136H288.17V49.6591H278.556V46.1136ZM294.078 53V35.5455H301.612C302.908 35.5455 304.041 35.7812 305.013 36.2528C305.984 36.7244 306.74 37.4034 307.28 38.2898C307.82 39.1761 308.089 40.2386 308.089 41.4773C308.089 42.7273 307.811 43.7812 307.254 44.6392C306.703 45.4972 305.928 46.1449 304.928 46.5824C303.933 47.0199 302.771 47.2386 301.442 47.2386H296.942V43.5568H300.487C301.044 43.5568 301.518 43.4886 301.911 43.3523C302.308 43.2102 302.612 42.9858 302.822 42.679C303.038 42.3722 303.146 41.9716 303.146 41.4773C303.146 40.9773 303.038 40.571 302.822 40.2585C302.612 39.9403 302.308 39.7074 301.911 39.5597C301.518 39.4062 301.044 39.3295 300.487 39.3295H298.817V53H294.078ZM304.305 44.9886L308.669 53H303.521L299.26 44.9886H304.305ZM315.189 35.5455L318.053 40.625H318.189L321.087 35.5455H326.371L321.155 44.2727L326.575 53H321.155L318.189 47.8182H318.053L315.087 53H309.7L315.053 44.2727L309.871 35.5455H315.189Z" fill="white"/>
<g opacity="0.25">
<path d="M1011.67 188.448L1009.8 197.049H1020.2L1018.33 188.448C1020.12 187.611 1021.31 186.127 1021.31 184.434C1021.31 181.823 1018.48 179.704 1015 179.704C1011.52 179.704 1008.69 181.823 1008.69 184.434C1008.69 186.127 1009.88 187.611 1011.67 188.448Z" fill="url(#paint5_linear_146_95)"/>
<path d="M1003.97 140.323L1019.24 149.801L1026.25 148.088L1004.73 134.025L1003.97 140.323Z" fill="url(#paint6_linear_146_95)"/>
<path d="M1043.61 142.708L1050.55 148.955L1053.8 145.482L1048.71 141.317L1043.61 142.708Z" fill="url(#paint7_linear_146_95)"/>
<path d="M1037.13 153.467L1035.74 158.675L1053.34 154.162L1047.32 150.69L1037.13 153.467Z" fill="url(#paint8_linear_146_95)"/>
<path d="M972.784 153.818L982.506 147.913L972.784 145.482V153.818Z" fill="url(#paint9_linear_146_95)"/>
<path d="M994.311 152.772L991.881 156.68H1006.46L1004.73 152.772H994.311Z" fill="url(#paint10_linear_146_95)"/>
<path d="M990.408 113.035C991.523 109.121 993.767 104.82 997.049 102.357C1000.33 99.8964 1006.06 98.2127 1011.28 97.3728C1006.06 96.5387 1000.33 94.8551 997.047 92.3918C993.767 89.9315 991.52 85.6312 990.406 81.7202C989.29 85.6312 987.045 89.9319 983.761 92.3952C980.48 94.8555 974.746 96.5391 969.532 97.3761C974.748 98.2132 980.481 99.8964 983.763 102.357C987.043 104.82 989.292 109.121 990.408 113.035Z" fill="url(#paint11_linear_146_95)"/>
<path d="M1058.43 119.853C1059.1 117.502 1060.45 114.917 1062.42 113.436C1064.39 111.959 1067.83 110.946 1070.97 110.441C1067.83 109.94 1064.39 108.927 1062.42 107.449C1060.44 105.971 1059.1 103.387 1058.42 101.036C1057.76 103.387 1056.4 105.972 1054.43 107.449C1052.46 108.93 1049.02 109.94 1045.88 110.444C1049.02 110.946 1052.46 111.959 1054.43 113.44C1056.4 114.917 1057.76 117.501 1058.43 119.853Z" fill="url(#paint12_linear_146_95)"/>
<path d="M1101.85 122.975L1117.09 67.8836L1104.68 49.2628C1098.44 39.9087 1085.69 34 1071.75 34H958.257C944.31 34 931.563 39.9087 925.327 49.2628L912.911 67.8836L928.156 122.975L896.609 166.179V247H1133.39V166.179L1101.85 122.975ZM1101.91 144.258C1099.56 144.636 1096.97 145.395 1095.49 146.507C1094.01 147.616 1093 149.556 1092.49 151.321C1091.99 149.556 1090.97 147.616 1089.5 146.507C1088.01 145.394 1085.42 144.636 1083.08 144.258C1085.42 143.881 1088.01 143.119 1089.5 142.01C1090.97 140.897 1091.99 138.957 1092.49 137.195C1092.99 138.957 1094.01 140.898 1095.49 142.01C1096.97 143.119 1099.56 143.881 1101.91 144.258ZM940.558 159.784L948.891 154.447L954.098 148.441H966.596L968.679 143.106L981.177 136.433L997.841 137.766L999.924 131.096L1021.8 127.756L1037.42 137.766L1047.83 135.098L1061.37 144.44L1072.83 148.441L1089.09 159.784H1074.89L1067.57 154.078L1066.25 159.784H940.558ZM1040.24 172.638V203.478H989.762V172.638H1040.24ZM936.522 136.482C939.395 136.022 942.555 135.091 944.364 133.738C946.171 132.381 947.409 130.014 948.023 127.856C948.637 130.011 949.875 132.381 951.682 133.738C953.491 135.091 956.651 136.02 959.526 136.482C956.651 136.941 953.491 137.872 951.684 139.226C949.877 140.583 948.639 142.952 948.023 145.107C947.408 142.952 946.171 140.583 944.364 139.226C942.556 137.872 939.397 136.941 936.522 136.482ZM938.369 54.1535C942.134 48.5073 949.834 44.935 958.256 44.935H1071.75C1080.17 44.935 1087.87 48.5073 1091.63 54.1535L1098.68 64.7257H1044.16V49.5473H985.841V64.7257H931.319L938.369 54.1535ZM1035.83 55.7971V64.7253H994.174V55.7971H1035.83ZM1100.91 72.538L1087.51 120.971H942.494L929.091 72.538H1100.91ZM911.191 171.484H981.43V188.412H911.191V171.484ZM1118.81 236.062H911.191V221.742H1118.81V236.062H1118.81ZM1118.81 215.492H911.191V194.659H981.43V209.725H1048.57V206.603V194.659H1118.81V215.492H1118.81ZM1118.81 188.412H1048.57V171.484H1118.81V188.412Z" fill="url(#paint13_linear_146_95)"/>
</g>
<g opacity="0.25" clip-path="url(#clip1_146_95)">
<path d="M130.603 463.785C131.061 463.762 131.504 463.667 131.907 463.507C133.512 462.868 134.596 461.232 134.481 459.378C134.002 451.557 133.168 446.503 133.138 446.292C132.753 443.996 130.613 442.421 128.356 442.774C126.124 443.135 124.579 445.277 124.956 447.577C124.969 447.622 125.757 452.439 126.206 459.782C126.349 462.107 128.316 463.896 130.603 463.785Z" fill="url(#paint14_linear_146_95)"/>
<path d="M126.169 480.308C125.887 484.506 125.415 488.584 124.769 492.437C124.387 494.72 125.904 496.92 128.162 497.34C128.951 497.489 129.725 497.399 130.413 497.125C131.699 496.613 132.692 495.454 132.946 493.967C133.631 489.845 134.138 485.484 134.445 481.013C134.599 478.698 132.877 476.661 130.592 476.466C128.311 476.278 126.329 477.994 126.169 480.308Z" fill="url(#paint15_linear_146_95)"/>
<path d="M192.519 524.867C193.572 525.334 194.708 525.327 195.691 524.935C196.675 524.544 197.505 523.768 197.949 522.705C198.84 520.573 197.853 518.094 195.74 517.158L174.132 507.581C172.019 506.645 169.592 507.611 168.701 509.742L161.198 527.696L154.212 524.6C152.1 523.663 149.673 524.63 148.782 526.762L139.668 548.57C138.777 550.702 139.764 553.181 141.876 554.117C143.989 555.053 146.416 554.087 147.307 551.955L154.81 534.002L172.599 541.886C173.653 542.353 174.789 542.346 175.772 541.955C176.755 541.563 177.585 540.787 178.03 539.724C178.921 537.592 177.934 535.113 175.821 534.177L168.836 531.081L174.729 516.982L192.519 524.867Z" fill="url(#paint16_linear_146_95)"/>
<path d="M124.505 594.992L90.4786 620.999C88.1543 622.693 85.8799 623.194 83.5579 622.491C80.2788 621.497 77.0503 618.069 75.3323 613.753L32.2488 505.53L36.1367 496.22C36.5628 495.2 36.5731 494.042 36.1591 493.002C35.7436 491.959 34.9397 491.124 33.9298 490.677L24.7084 486.59L16.7402 466.574C13.1403 457.531 21.3146 449.823 23.8115 447.747L70.2768 411.479L95.3825 410.897C97.6877 410.843 99.4567 408.916 99.3706 406.587C99.2859 404.262 97.3578 402.426 95.0734 402.476L68.6229 403.089C67.7514 403.113 66.9119 403.407 66.2242 403.949L18.6104 441.119C8.91421 449.151 5.2563 460.079 9.05914 469.632L17.674 491.272C18.0878 492.311 18.8879 493.147 19.9033 493.597L26.8887 496.693L23.9423 503.743C23.5125 504.764 23.5075 505.925 23.9213 506.965L67.6515 616.812C70.3362 623.556 75.565 628.823 81.3009 630.557C83.8139 631.315 87.3418 631.706 91.3284 630.119C92.661 629.589 94.0401 628.84 95.454 627.809L129.553 601.75C131.37 600.358 131.709 597.723 130.316 595.856C128.925 593.992 126.297 593.615 124.505 594.992Z" fill="url(#paint17_linear_146_95)"/>
<path d="M124.361 435.165C126.485 434.32 127.502 431.879 126.64 429.713L106.337 378.713L142.368 364.369L141.455 376.336C141.352 377.654 141.869 378.952 142.851 379.843L151.739 387.908L127.229 397.666C125.105 398.511 124.088 400.952 124.95 403.117C125.812 405.283 128.229 406.357 130.352 405.512L161.076 393.28C162.409 392.75 163.36 391.553 163.604 390.12C163.842 388.684 163.333 387.214 162.25 386.237L149.879 375.013L151.151 358.359C151.266 356.905 150.626 355.487 149.466 354.608C148.304 353.734 146.791 353.518 145.458 354.049L99.3728 372.395C97.249 373.241 96.2322 375.682 97.0942 377.847L118.959 432.771C119.821 434.937 122.238 436.011 124.361 435.165Z" fill="url(#paint18_linear_146_95)"/>
<path d="M226.366 520.482C228.478 521.418 230.905 520.452 231.796 518.32L234.742 511.27L241.728 514.366C242.781 514.833 243.918 514.826 244.9 514.434C245.884 514.043 246.714 513.267 247.158 512.204C248.049 510.072 247.062 507.593 244.95 506.657L234.145 501.869C232.033 500.932 229.606 501.899 228.715 504.031L224.157 514.934C223.266 517.066 224.253 519.546 226.366 520.482Z" fill="url(#paint19_linear_146_95)"/>
<path d="M217.654 453.896L213.097 464.799C212.206 466.931 213.193 469.411 215.305 470.346C217.417 471.283 219.845 470.316 220.736 468.185L223.682 461.135L230.667 464.231C231.721 464.698 232.857 464.691 233.84 464.299C234.823 463.908 235.653 463.132 236.098 462.069C236.989 459.937 236.002 457.458 233.889 456.522L223.085 451.733C220.972 450.797 218.545 451.764 217.654 453.896Z" fill="url(#paint20_linear_146_95)"/>
<path d="M229.85 446.377L232.796 439.327L239.782 442.423C240.835 442.89 241.971 442.883 242.954 442.492C243.938 442.1 244.768 441.325 245.212 440.261C246.103 438.13 245.116 435.65 243.004 434.714L232.199 429.926C230.087 428.989 227.659 429.956 226.769 432.087L222.211 442.992C221.321 445.123 222.308 447.603 224.42 448.539C226.532 449.475 228.959 448.509 229.85 446.377Z" fill="url(#paint21_linear_146_95)"/>
<path d="M100.42 534.985C97.3203 536.855 93.9402 538.401 90.1437 539.403C87.9271 540.004 86.6372 542.285 87.2434 544.535C87.8496 546.784 90.1327 548.138 92.3391 547.556C94.047 547.107 95.7067 546.56 97.2737 545.936C99.8854 544.896 102.393 543.653 104.742 542.231C106.697 541.053 107.315 538.471 106.123 536.469C104.929 534.466 102.41 533.77 100.42 534.985Z" fill="url(#paint22_linear_146_95)"/>
<path d="M59.2229 538.532C56.986 538.009 54.7831 539.427 54.3063 541.694C53.8257 543.962 55.2542 546.22 57.4932 546.738C61.913 547.76 66.229 548.487 70.3235 548.893C70.9906 548.959 71.6403 548.86 72.2245 548.627C73.6264 548.069 74.6654 546.746 74.7944 545.113C74.9885 542.796 73.2893 540.741 71.0094 540.512C67.2621 540.141 63.2992 539.473 59.2229 538.532Z" fill="url(#paint23_linear_146_95)"/>
<path d="M285.582 493.69L238.729 376.001C235.882 368.849 231.136 363.766 225.699 362.054C222.432 361.023 217.233 360.693 210.945 365.07L163.23 401.676C161.755 402.809 161.218 404.813 161.921 406.579L227.516 571.35C228.378 573.515 230.794 574.589 232.918 573.744C235.042 572.898 236.059 570.457 235.197 568.292L170.79 406.506L215.85 371.928C218.606 370.009 221.132 369.394 223.352 370.096C226.306 371.024 229.185 374.378 231.048 379.058L277.254 495.123L273.366 504.434C272.474 506.562 273.463 509.045 275.573 509.977L284.796 514.068L290.397 528.137C291.965 532.076 292.251 537.175 282.569 545.065L236.104 581.333L167.863 582.917L162.097 575.027C161.33 573.974 160.128 573.334 158.845 573.295C157.567 573.259 156.341 573.824 155.54 574.829L148.609 583.547L143.392 583.551L120.794 526.787L120.796 526.781C123.176 523.271 125.287 519.321 127.071 515.039C127.959 512.913 126.971 510.429 124.859 509.493C122.75 508.565 120.313 509.531 119.426 511.661C118.651 513.524 117.805 515.311 116.9 517.007L78.8646 421.463C78.0026 419.298 75.5864 418.224 73.4626 419.069C71.3388 419.915 70.322 422.356 71.184 424.521L136.779 589.292C137.424 590.912 138.974 591.977 140.685 591.973L150.693 591.966C151.933 591.963 153.094 591.405 153.867 590.429L158.677 584.383L162.532 589.652C163.345 590.769 164.64 591.417 166.003 591.388L237.758 589.723C238.247 589.71 238.72 589.613 239.165 589.436C239.523 589.294 239.856 589.102 240.157 588.864L287.744 551.717C291.656 548.533 303.556 538.841 298.078 525.079L291.831 509.387C291.417 508.347 290.612 507.509 289.601 507.061L282.616 503.965L285.562 496.916C285.987 495.892 285.997 494.734 285.582 493.69Z" fill="url(#paint24_linear_146_95)"/>
</g>
</g>
<defs>
<linearGradient id="paint0_linear_146_95" x1="-63.757" y1="-34.0073" x2="-63.757" y2="347.166" gradientUnits="userSpaceOnUse">
<stop stop-color="#FF9E0B"/>
<stop offset="1" stop-color="#EC4899"/>
</linearGradient>
<linearGradient id="paint1_linear_146_95" x1="1173" y1="695.827" x2="1173" y2="969.442" gradientUnits="userSpaceOnUse">
<stop stop-color="#FF9E0B"/>
<stop offset="1" stop-color="#F24E52"/>
</linearGradient>
<linearGradient id="paint2_linear_146_95" x1="882.5" y1="530" x2="882.5" y2="919" gradientUnits="userSpaceOnUse">
<stop stop-color="#FF9E0B"/>
<stop offset="1" stop-color="#9C67E7"/>
</linearGradient>
<linearGradient id="paint3_linear_146_95" x1="491" y1="30" x2="491" y2="162" gradientUnits="userSpaceOnUse">
<stop stop-color="#FF9E0B"/>
<stop offset="1" stop-color="#DA46EB"/>
</linearGradient>
<linearGradient id="paint4_linear_146_95" x1="624.5" y1="237" x2="624.5" y2="392" gradientUnits="userSpaceOnUse">
<stop stop-color="#FF9E0B"/>
<stop offset="0.49" stop-color="#F24E52"/>
</linearGradient>
<linearGradient id="paint5_linear_146_95" x1="1015" y1="179.704" x2="1015" y2="197.049" gradientUnits="userSpaceOnUse">
<stop stop-color="#4A74F4"/>
<stop offset="1" stop-color="#9C67E7"/>
</linearGradient>
<linearGradient id="paint6_linear_146_95" x1="1015.11" y1="134.025" x2="1015.11" y2="149.801" gradientUnits="userSpaceOnUse">
<stop stop-color="#4A74F4"/>
<stop offset="1" stop-color="#9C67E7"/>
</linearGradient>
<linearGradient id="paint7_linear_146_95" x1="1048.71" y1="141.317" x2="1048.71" y2="148.955" gradientUnits="userSpaceOnUse">
<stop stop-color="#4A74F4"/>
<stop offset="1" stop-color="#9C67E7"/>
</linearGradient>
<linearGradient id="paint8_linear_146_95" x1="1044.54" y1="150.69" x2="1044.54" y2="158.675" gradientUnits="userSpaceOnUse">
<stop stop-color="#4A74F4"/>
<stop offset="1" stop-color="#9C67E7"/>
</linearGradient>
<linearGradient id="paint9_linear_146_95" x1="977.645" y1="145.482" x2="977.645" y2="153.818" gradientUnits="userSpaceOnUse">
<stop stop-color="#4A74F4"/>
<stop offset="1" stop-color="#9C67E7"/>
</linearGradient>
<linearGradient id="paint10_linear_146_95" x1="999.172" y1="152.772" x2="999.172" y2="156.68" gradientUnits="userSpaceOnUse">
<stop stop-color="#4A74F4"/>
<stop offset="1" stop-color="#9C67E7"/>
</linearGradient>
<linearGradient id="paint11_linear_146_95" x1="990.405" y1="81.7202" x2="990.405" y2="113.035" gradientUnits="userSpaceOnUse">
<stop stop-color="#4A74F4"/>
<stop offset="1" stop-color="#9C67E7"/>
</linearGradient>
<linearGradient id="paint12_linear_146_95" x1="1058.42" y1="101.036" x2="1058.42" y2="119.853" gradientUnits="userSpaceOnUse">
<stop stop-color="#4A74F4"/>
<stop offset="1" stop-color="#9C67E7"/>
</linearGradient>
<linearGradient id="paint13_linear_146_95" x1="1015" y1="34" x2="1015" y2="247" gradientUnits="userSpaceOnUse">
<stop stop-color="#4A74F4"/>
<stop offset="1" stop-color="#9C67E7"/>
</linearGradient>
<linearGradient id="paint14_linear_146_95" x1="125.874" y1="443.658" x2="133.521" y2="462.864" gradientUnits="userSpaceOnUse">
<stop stop-color="#DA46EB"/>
<stop offset="1" stop-color="#F24E52"/>
</linearGradient>
<linearGradient id="paint15_linear_146_95" x1="125.966" y1="477.847" x2="133.199" y2="496.016" gradientUnits="userSpaceOnUse">
<stop stop-color="#DA46EB"/>
<stop offset="1" stop-color="#F24E52"/>
</linearGradient>
<linearGradient id="paint16_linear_146_95" x1="159.437" y1="512.098" x2="171.932" y2="543.485" gradientUnits="userSpaceOnUse">
<stop stop-color="#DA46EB"/>
<stop offset="1" stop-color="#F24E52"/>
</linearGradient>
<linearGradient id="paint17_linear_146_95" x1="44.1741" y1="412.55" x2="125.39" y2="616.559" gradientUnits="userSpaceOnUse">
<stop stop-color="#DA46EB"/>
<stop offset="1" stop-color="#F24E52"/>
</linearGradient>
<linearGradient id="paint18_linear_146_95" x1="122.416" y1="363.222" x2="147.405" y2="425.992" gradientUnits="userSpaceOnUse">
<stop stop-color="#DA46EB"/>
<stop offset="1" stop-color="#F24E52"/>
</linearGradient>
<linearGradient id="paint19_linear_146_95" x1="230.972" y1="501.799" x2="237.22" y2="517.494" gradientUnits="userSpaceOnUse">
<stop stop-color="#DA46EB"/>
<stop offset="1" stop-color="#F24E52"/>
</linearGradient>
<linearGradient id="paint20_linear_146_95" x1="219.911" y1="451.664" x2="226.159" y2="467.358" gradientUnits="userSpaceOnUse">
<stop stop-color="#DA46EB"/>
<stop offset="1" stop-color="#F24E52"/>
</linearGradient>
<linearGradient id="paint21_linear_146_95" x1="229.026" y1="429.856" x2="235.274" y2="445.551" gradientUnits="userSpaceOnUse">
<stop stop-color="#DA46EB"/>
<stop offset="1" stop-color="#F24E52"/>
</linearGradient>
<linearGradient id="paint22_linear_146_95" x1="95.2881" y1="536.963" x2="98.6431" y2="545.391" gradientUnits="userSpaceOnUse">
<stop stop-color="#DA46EB"/>
<stop offset="1" stop-color="#F24E52"/>
</linearGradient>
<linearGradient id="paint23_linear_146_95" x1="61.7532" y1="536.737" x2="67.2715" y2="550.599" gradientUnits="userSpaceOnUse">
<stop stop-color="#DA46EB"/>
<stop offset="1" stop-color="#F24E52"/>
</linearGradient>
<linearGradient id="paint24_linear_146_95" x1="150.271" y1="388.492" x2="231.485" y2="592.494" gradientUnits="userSpaceOnUse">
<stop stop-color="#DA46EB"/>
<stop offset="1" stop-color="#F24E52"/>
</linearGradient>
<clipPath id="clip0_146_95">
<rect width="1200" height="630" fill="white"/>
</clipPath>
<clipPath id="clip1_146_95">
<rect width="248.014" height="253.354" fill="white" transform="translate(-12 416.733) rotate(-21.7075)"/>
</clipPath>
</defs>
</svg>
