<svg width="1200" height="630" viewBox="0 0 1200 630" fill="none" xmlns="http://www.w3.org/2000/svg">
<g clip-path="url(#clip0_130_90)">
<rect width="1200" height="630" fill="black"/>
<rect x="-427.809" y="-32.4841" width="729.486" height="376.173" transform="rotate(-19.4848 -427.809 -32.4841)" stroke="url(#paint0_linear_130_90)" stroke-width="5"/>
<rect x="883" y="695.827" width="580" height="273.616" transform="rotate(-35.26 883 695.827)" fill="url(#paint1_linear_130_90)"/>
<circle cx="882.5" cy="724.5" r="193" stroke="url(#paint2_linear_130_90)" stroke-width="3"/>
<path opacity="0.49" d="M415 58.3636C414.121 58.3636 413.367 58.0568 412.739 57.4432C412.117 56.822 411.811 56.0682 411.818 55.1818C411.811 54.3182 412.117 53.5795 412.739 52.9659C413.367 52.3523 414.121 52.0455 415 52.0455C415.833 52.0455 416.568 52.3523 417.205 52.9659C417.848 53.5795 418.174 54.3182 418.182 55.1818C418.174 55.7727 418.019 56.3106 417.716 56.7955C417.42 57.2727 417.034 57.6553 416.557 57.9432C416.08 58.2235 415.561 58.3636 415 58.3636ZM459.003 58.3636C458.124 58.3636 457.37 58.0568 456.741 57.4432C456.12 56.822 455.813 56.0682 455.821 55.1818C455.813 54.3182 456.12 53.5795 456.741 52.9659C457.37 52.3523 458.124 52.0455 459.003 52.0455C459.836 52.0455 460.571 52.3523 461.207 52.9659C461.851 53.5795 462.177 54.3182 462.184 55.1818C462.177 55.7727 462.021 56.3106 461.718 56.7955C461.423 57.2727 461.037 57.6553 460.559 57.9432C460.082 58.2235 459.563 58.3636 459.003 58.3636ZM503.005 58.3636C502.126 58.3636 501.372 58.0568 500.744 57.4432C500.122 56.822 499.816 56.0682 499.823 55.1818C499.816 54.3182 500.122 53.5795 500.744 52.9659C501.372 52.3523 502.126 52.0455 503.005 52.0455C503.838 52.0455 504.573 52.3523 505.21 52.9659C505.853 53.5795 506.179 54.3182 506.187 55.1818C506.179 55.7727 506.024 56.3106 505.721 56.7955C505.425 57.2727 505.039 57.6553 504.562 57.9432C504.085 58.2235 503.566 58.3636 503.005 58.3636ZM547.008 58.3636C546.129 58.3636 545.375 58.0568 544.746 57.4432C544.125 56.822 543.818 56.0682 543.826 55.1818C543.818 54.3182 544.125 53.5795 544.746 52.9659C545.375 52.3523 546.129 52.0455 547.008 52.0455C547.841 52.0455 548.576 52.3523 549.212 52.9659C549.856 53.5795 550.182 54.3182 550.189 55.1818C550.182 55.7727 550.026 56.3106 549.723 56.7955C549.428 57.2727 549.042 57.6553 548.564 57.9432C548.087 58.2235 547.568 58.3636 547.008 58.3636ZM415 91.3636C414.121 91.3636 413.367 91.0568 412.739 90.4432C412.117 89.822 411.811 89.0682 411.818 88.1818C411.811 87.3182 412.117 86.5795 412.739 85.9659C413.367 85.3523 414.121 85.0455 415 85.0455C415.833 85.0455 416.568 85.3523 417.205 85.9659C417.848 86.5795 418.174 87.3182 418.182 88.1818C418.174 88.7727 418.019 89.3106 417.716 89.7955C417.42 90.2727 417.034 90.6553 416.557 90.9432C416.08 91.2235 415.561 91.3636 415 91.3636ZM459.003 91.3636C458.124 91.3636 457.37 91.0568 456.741 90.4432C456.12 89.822 455.813 89.0682 455.821 88.1818C455.813 87.3182 456.12 86.5795 456.741 85.9659C457.37 85.3523 458.124 85.0455 459.003 85.0455C459.836 85.0455 460.571 85.3523 461.207 85.9659C461.851 86.5795 462.177 87.3182 462.184 88.1818C462.177 88.7727 462.021 89.3106 461.718 89.7955C461.423 90.2727 461.037 90.6553 460.559 90.9432C460.082 91.2235 459.563 91.3636 459.003 91.3636ZM503.005 91.3636C502.126 91.3636 501.372 91.0568 500.744 90.4432C500.122 89.822 499.816 89.0682 499.823 88.1818C499.816 87.3182 500.122 86.5795 500.744 85.9659C501.372 85.3523 502.126 85.0455 503.005 85.0455C503.838 85.0455 504.573 85.3523 505.21 85.9659C505.853 86.5795 506.179 87.3182 506.187 88.1818C506.179 88.7727 506.024 89.3106 505.721 89.7955C505.425 90.2727 505.039 90.6553 504.562 90.9432C504.085 91.2235 503.566 91.3636 503.005 91.3636ZM547.008 91.3636C546.129 91.3636 545.375 91.0568 544.746 90.4432C544.125 89.822 543.818 89.0682 543.826 88.1818C543.818 87.3182 544.125 86.5795 544.746 85.9659C545.375 85.3523 546.129 85.0455 547.008 85.0455C547.841 85.0455 548.576 85.3523 549.212 85.9659C549.856 86.5795 550.182 87.3182 550.189 88.1818C550.182 88.7727 550.026 89.3106 549.723 89.7955C549.428 90.2727 549.042 90.6553 548.564 90.9432C548.087 91.2235 547.568 91.3636 547.008 91.3636ZM415 124.364C414.121 124.364 413.367 124.057 412.739 123.443C412.117 122.822 411.811 122.068 411.818 121.182C411.811 120.318 412.117 119.58 412.739 118.966C413.367 118.352 414.121 118.045 415 118.045C415.833 118.045 416.568 118.352 417.205 118.966C417.848 119.58 418.174 120.318 418.182 121.182C418.174 121.773 418.019 122.311 417.716 122.795C417.42 123.273 417.034 123.655 416.557 123.943C416.08 124.223 415.561 124.364 415 124.364ZM459.003 124.364C458.124 124.364 457.37 124.057 456.741 123.443C456.12 122.822 455.813 122.068 455.821 121.182C455.813 120.318 456.12 119.58 456.741 118.966C457.37 118.352 458.124 118.045 459.003 118.045C459.836 118.045 460.571 118.352 461.207 118.966C461.851 119.58 462.177 120.318 462.184 121.182C462.177 121.773 462.021 122.311 461.718 122.795C461.423 123.273 461.037 123.655 460.559 123.943C460.082 124.223 459.563 124.364 459.003 124.364ZM503.005 124.364C502.126 124.364 501.372 124.057 500.744 123.443C500.122 122.822 499.816 122.068 499.823 121.182C499.816 120.318 500.122 119.58 500.744 118.966C501.372 118.352 502.126 118.045 503.005 118.045C503.838 118.045 504.573 118.352 505.21 118.966C505.853 119.58 506.179 120.318 506.187 121.182C506.179 121.773 506.024 122.311 505.721 122.795C505.425 123.273 505.039 123.655 504.562 123.943C504.085 124.223 503.566 124.364 503.005 124.364ZM547.008 124.364C546.129 124.364 545.375 124.057 544.746 123.443C544.125 122.822 543.818 122.068 543.826 121.182C543.818 120.318 544.125 119.58 544.746 118.966C545.375 118.352 546.129 118.045 547.008 118.045C547.841 118.045 548.576 118.352 549.212 118.966C549.856 119.58 550.182 120.318 550.189 121.182C550.182 121.773 550.026 122.311 549.723 122.795C549.428 123.273 549.042 123.655 548.564 123.943C548.087 124.223 547.568 124.364 547.008 124.364ZM415 157.364C414.121 157.364 413.367 157.057 412.739 156.443C412.117 155.822 411.811 155.068 411.818 154.182C411.811 153.318 412.117 152.58 412.739 151.966C413.367 151.352 414.121 151.045 415 151.045C415.833 151.045 416.568 151.352 417.205 151.966C417.848 152.58 418.174 153.318 418.182 154.182C418.174 154.773 418.019 155.311 417.716 155.795C417.42 156.273 417.034 156.655 416.557 156.943C416.08 157.223 415.561 157.364 415 157.364ZM459.003 157.364C458.124 157.364 457.37 157.057 456.741 156.443C456.12 155.822 455.813 155.068 455.821 154.182C455.813 153.318 456.12 152.58 456.741 151.966C457.37 151.352 458.124 151.045 459.003 151.045C459.836 151.045 460.571 151.352 461.207 151.966C461.851 152.58 462.177 153.318 462.184 154.182C462.177 154.773 462.021 155.311 461.718 155.795C461.423 156.273 461.037 156.655 460.559 156.943C460.082 157.223 459.563 157.364 459.003 157.364ZM503.005 157.364C502.126 157.364 501.372 157.057 500.744 156.443C500.122 155.822 499.816 155.068 499.823 154.182C499.816 153.318 500.122 152.58 500.744 151.966C501.372 151.352 502.126 151.045 503.005 151.045C503.838 151.045 504.573 151.352 505.21 151.966C505.853 152.58 506.179 153.318 506.187 154.182C506.179 154.773 506.024 155.311 505.721 155.795C505.425 156.273 505.039 156.655 504.562 156.943C504.085 157.223 503.566 157.364 503.005 157.364ZM547.008 157.364C546.129 157.364 545.375 157.057 544.746 156.443C544.125 155.822 543.818 155.068 543.826 154.182C543.818 153.318 544.125 152.58 544.746 151.966C545.375 151.352 546.129 151.045 547.008 151.045C547.841 151.045 548.576 151.352 549.212 151.966C549.856 152.58 550.182 153.318 550.189 154.182C550.182 154.773 550.026 155.311 549.723 155.795C549.428 156.273 549.042 156.655 548.564 156.943C548.087 157.223 547.568 157.364 547.008 157.364Z" fill="url(#paint3_linear_130_90)"/>
<mask id="path-5-outside-1_130_90" maskUnits="userSpaceOnUse" x="186" y="262" width="830" height="107" fill="black">
<rect fill="white" x="186" y="262" width="830" height="107"/>
<path d="M278.909 303.818H253.273C253.091 301.697 252.606 299.773 251.818 298.045C251.061 296.318 250 294.833 248.636 293.591C247.303 292.318 245.682 291.348 243.773 290.682C241.864 289.985 239.697 289.636 237.273 289.636C233.03 289.636 229.439 290.667 226.5 292.727C223.591 294.788 221.379 297.742 219.864 301.591C218.379 305.439 217.636 310.061 217.636 315.455C217.636 321.152 218.394 325.924 219.909 329.773C221.455 333.591 223.682 336.47 226.591 338.409C229.5 340.318 233 341.273 237.091 341.273C239.424 341.273 241.515 340.985 243.364 340.409C245.212 339.803 246.818 338.939 248.182 337.818C249.545 336.697 250.652 335.348 251.5 333.773C252.379 332.167 252.97 330.364 253.273 328.364L278.909 328.545C278.606 332.485 277.5 336.5 275.591 340.591C273.682 344.652 270.97 348.409 267.455 351.864C263.97 355.288 259.652 358.045 254.5 360.136C249.348 362.227 243.364 363.273 236.545 363.273C228 363.273 220.333 361.439 213.545 357.773C206.788 354.106 201.439 348.712 197.5 341.591C193.591 334.47 191.636 325.758 191.636 315.455C191.636 305.091 193.636 296.364 197.636 289.273C201.636 282.152 207.03 276.773 213.818 273.136C220.606 269.47 228.182 267.636 236.545 267.636C242.424 267.636 247.833 268.439 252.773 270.045C257.712 271.652 262.045 274 265.773 277.091C269.5 280.152 272.5 283.924 274.773 288.409C277.045 292.894 278.424 298.03 278.909 303.818ZM380.557 315.455C380.557 325.818 378.542 334.561 374.511 341.682C370.481 348.773 365.042 354.152 358.193 357.818C351.345 361.455 343.708 363.273 335.284 363.273C326.799 363.273 319.133 361.439 312.284 357.773C305.466 354.076 300.042 348.682 296.011 341.591C292.011 334.47 290.011 325.758 290.011 315.455C290.011 305.091 292.011 296.364 296.011 289.273C300.042 282.152 305.466 276.773 312.284 273.136C319.133 269.47 326.799 267.636 335.284 267.636C343.708 267.636 351.345 269.47 358.193 273.136C365.042 276.773 370.481 282.152 374.511 289.273C378.542 296.364 380.557 305.091 380.557 315.455ZM354.557 315.455C354.557 309.879 353.814 305.182 352.33 301.364C350.875 297.515 348.708 294.606 345.83 292.636C342.981 290.636 339.466 289.636 335.284 289.636C331.102 289.636 327.572 290.636 324.693 292.636C321.845 294.606 319.678 297.515 318.193 301.364C316.739 305.182 316.011 309.879 316.011 315.455C316.011 321.03 316.739 325.742 318.193 329.591C319.678 333.409 321.845 336.318 324.693 338.318C327.572 340.288 331.102 341.273 335.284 341.273C339.466 341.273 342.981 340.288 345.83 338.318C348.708 336.318 350.875 333.409 352.33 329.591C353.814 325.742 354.557 321.03 354.557 315.455ZM428.068 362H392.25V268.909H427.705C437.28 268.909 445.553 270.773 452.523 274.5C459.523 278.197 464.917 283.53 468.705 290.5C472.523 297.439 474.432 305.758 474.432 315.455C474.432 325.152 472.538 333.485 468.75 340.455C464.962 347.394 459.598 352.727 452.659 356.455C445.72 360.152 437.523 362 428.068 362ZM417.523 340.545H427.159C431.765 340.545 435.689 339.803 438.932 338.318C442.205 336.833 444.689 334.273 446.386 330.636C448.114 327 448.977 321.939 448.977 315.455C448.977 308.97 448.098 303.909 446.341 300.273C444.614 296.636 442.068 294.076 438.705 292.591C435.371 291.106 431.28 290.364 426.432 290.364H417.523V340.545ZM486.125 362V268.909H553.216V289.273H511.398V305.273H549.761V325.636H511.398V341.636H553.034V362H486.125ZM678.159 303.818H652.523C652.341 301.697 651.856 299.773 651.068 298.045C650.311 296.318 649.25 294.833 647.886 293.591C646.553 292.318 644.932 291.348 643.023 290.682C641.114 289.985 638.947 289.636 636.523 289.636C632.28 289.636 628.689 290.667 625.75 292.727C622.841 294.788 620.629 297.742 619.114 301.591C617.629 305.439 616.886 310.061 616.886 315.455C616.886 321.152 617.644 325.924 619.159 329.773C620.705 333.591 622.932 336.47 625.841 338.409C628.75 340.318 632.25 341.273 636.341 341.273C638.674 341.273 640.765 340.985 642.614 340.409C644.462 339.803 646.068 338.939 647.432 337.818C648.795 336.697 649.902 335.348 650.75 333.773C651.629 332.167 652.22 330.364 652.523 328.364L678.159 328.545C677.856 332.485 676.75 336.5 674.841 340.591C672.932 344.652 670.22 348.409 666.705 351.864C663.22 355.288 658.902 358.045 653.75 360.136C648.598 362.227 642.614 363.273 635.795 363.273C627.25 363.273 619.583 361.439 612.795 357.773C606.038 354.106 600.689 348.712 596.75 341.591C592.841 334.47 590.886 325.758 590.886 315.455C590.886 305.091 592.886 296.364 596.886 289.273C600.886 282.152 606.28 276.773 613.068 273.136C619.856 269.47 627.432 267.636 635.795 267.636C641.674 267.636 647.083 268.439 652.023 270.045C656.962 271.652 661.295 274 665.023 277.091C668.75 280.152 671.75 283.924 674.023 288.409C676.295 292.894 677.674 298.03 678.159 303.818ZM689.625 362V268.909H729.807C736.716 268.909 742.761 270.167 747.943 272.682C753.125 275.197 757.155 278.818 760.034 283.545C762.913 288.273 764.352 293.939 764.352 300.545C764.352 307.212 762.867 312.833 759.898 317.409C756.958 321.985 752.822 325.439 747.489 327.773C742.186 330.106 735.989 331.273 728.898 331.273H704.898V311.636H723.807C726.777 311.636 729.307 311.273 731.398 310.545C733.519 309.788 735.14 308.591 736.261 306.955C737.413 305.318 737.989 303.182 737.989 300.545C737.989 297.879 737.413 295.712 736.261 294.045C735.14 292.348 733.519 291.106 731.398 290.318C729.307 289.5 726.777 289.091 723.807 289.091H714.898V362H689.625ZM744.17 319.273L767.443 362H739.989L717.261 319.273H744.17ZM800.398 268.909V362H775.125V268.909H800.398ZM862.557 298C862.314 294.97 861.178 292.606 859.148 290.909C857.148 289.212 854.102 288.364 850.011 288.364C847.405 288.364 845.269 288.682 843.602 289.318C841.966 289.924 840.754 290.758 839.966 291.818C839.178 292.879 838.769 294.091 838.739 295.455C838.678 296.576 838.875 297.591 839.33 298.5C839.814 299.379 840.572 300.182 841.602 300.909C842.633 301.606 843.951 302.242 845.557 302.818C847.163 303.394 849.072 303.909 851.284 304.364L858.92 306C864.072 307.091 868.481 308.53 872.148 310.318C875.814 312.106 878.814 314.212 881.148 316.636C883.481 319.03 885.193 321.727 886.284 324.727C887.405 327.727 887.981 331 888.011 334.545C887.981 340.667 886.451 345.848 883.42 350.091C880.39 354.333 876.057 357.561 870.42 359.773C864.814 361.985 858.072 363.091 850.193 363.091C842.102 363.091 835.042 361.894 829.011 359.5C823.011 357.106 818.345 353.424 815.011 348.455C811.708 343.455 810.042 337.061 810.011 329.273H834.011C834.163 332.121 834.875 334.515 836.148 336.455C837.42 338.394 839.208 339.864 841.511 340.864C843.845 341.864 846.617 342.364 849.83 342.364C852.527 342.364 854.784 342.03 856.602 341.364C858.42 340.697 859.799 339.773 860.739 338.591C861.678 337.409 862.163 336.061 862.193 334.545C862.163 333.121 861.693 331.879 860.784 330.818C859.905 329.727 858.451 328.758 856.42 327.909C854.39 327.03 851.648 326.212 848.193 325.455L838.92 323.455C830.678 321.667 824.178 318.682 819.42 314.5C814.693 310.288 812.345 304.545 812.375 297.273C812.345 291.364 813.92 286.197 817.102 281.773C820.314 277.318 824.754 273.848 830.42 271.364C836.117 268.879 842.648 267.636 850.011 267.636C857.527 267.636 864.027 268.894 869.511 271.409C874.996 273.924 879.223 277.47 882.193 282.045C885.193 286.591 886.708 291.909 886.739 298H862.557ZM922.898 268.909V362H897.625V268.909H922.898ZM985.057 298C984.814 294.97 983.678 292.606 981.648 290.909C979.648 289.212 976.602 288.364 972.511 288.364C969.905 288.364 967.769 288.682 966.102 289.318C964.466 289.924 963.254 290.758 962.466 291.818C961.678 292.879 961.269 294.091 961.239 295.455C961.178 296.576 961.375 297.591 961.83 298.5C962.314 299.379 963.072 300.182 964.102 300.909C965.133 301.606 966.451 302.242 968.057 302.818C969.663 303.394 971.572 303.909 973.784 304.364L981.42 306C986.572 307.091 990.981 308.53 994.648 310.318C998.314 312.106 1001.31 314.212 1003.65 316.636C1005.98 319.03 1007.69 321.727 1008.78 324.727C1009.91 327.727 1010.48 331 1010.51 334.545C1010.48 340.667 1008.95 345.848 1005.92 350.091C1002.89 354.333 998.557 357.561 992.92 359.773C987.314 361.985 980.572 363.091 972.693 363.091C964.602 363.091 957.542 361.894 951.511 359.5C945.511 357.106 940.845 353.424 937.511 348.455C934.208 343.455 932.542 337.061 932.511 329.273H956.511C956.663 332.121 957.375 334.515 958.648 336.455C959.92 338.394 961.708 339.864 964.011 340.864C966.345 341.864 969.117 342.364 972.33 342.364C975.027 342.364 977.284 342.03 979.102 341.364C980.92 340.697 982.299 339.773 983.239 338.591C984.178 337.409 984.663 336.061 984.693 334.545C984.663 333.121 984.193 331.879 983.284 330.818C982.405 329.727 980.951 328.758 978.92 327.909C976.89 327.03 974.148 326.212 970.693 325.455L961.42 323.455C953.178 321.667 946.678 318.682 941.92 314.5C937.193 310.288 934.845 304.545 934.875 297.273C934.845 291.364 936.42 286.197 939.602 281.773C942.814 277.318 947.254 273.848 952.92 271.364C958.617 268.879 965.148 267.636 972.511 267.636C980.027 267.636 986.527 268.894 992.011 271.409C997.496 273.924 1001.72 277.47 1004.69 282.045C1007.69 286.591 1009.21 291.909 1009.24 298H985.057Z"/>
</mask>
<path d="M278.909 303.818V308.818H284.345L283.892 303.401L278.909 303.818ZM253.273 303.818L248.291 304.245L248.683 308.818H253.273V303.818ZM251.818 298.045L247.239 300.054L247.254 300.087L247.269 300.12L251.818 298.045ZM248.636 293.591L245.184 297.208L245.226 297.248L245.269 297.287L248.636 293.591ZM243.773 290.682L242.058 295.379L242.091 295.391L242.124 295.402L243.773 290.682ZM226.5 292.727L223.63 288.633L223.62 288.64L223.61 288.647L226.5 292.727ZM219.864 301.591L215.211 299.759L215.205 299.775L215.199 299.791L219.864 301.591ZM219.909 329.773L215.257 331.604L215.265 331.627L215.274 331.649L219.909 329.773ZM226.591 338.409L223.817 342.569L223.832 342.579L223.848 342.589L226.591 338.409ZM243.364 340.409L244.851 345.183L244.886 345.172L244.921 345.16L243.364 340.409ZM248.182 337.818L251.357 341.68L251.357 341.68L248.182 337.818ZM251.5 333.773L247.114 331.373L247.106 331.387L247.098 331.402L251.5 333.773ZM253.273 328.364L253.308 323.364L248.978 323.333L248.329 327.615L253.273 328.364ZM278.909 328.545L283.894 328.929L284.306 323.584L278.945 323.546L278.909 328.545ZM275.591 340.591L280.116 342.718L280.119 342.712L280.122 342.705L275.591 340.591ZM267.455 351.864L270.959 355.43L270.959 355.43L267.455 351.864ZM254.5 360.136L252.62 355.503L254.5 360.136ZM213.545 357.773L211.161 362.167L211.169 362.172L213.545 357.773ZM197.5 341.591L193.117 343.997L193.121 344.004L193.125 344.011L197.5 341.591ZM197.636 289.273L201.991 291.729L201.996 291.721L197.636 289.273ZM213.818 273.136L216.179 277.544L216.187 277.54L216.195 277.536L213.818 273.136ZM252.773 270.045L254.319 265.29V265.29L252.773 270.045ZM265.773 277.091L262.581 280.94L262.59 280.947L262.6 280.955L265.773 277.091ZM274.773 288.409L270.313 290.669V290.669L274.773 288.409ZM278.909 298.818H253.273V308.818H278.909V298.818ZM258.254 303.391C258.03 300.769 257.42 298.277 256.367 295.97L247.269 300.12C247.793 301.268 248.152 302.625 248.291 304.245L258.254 303.391ZM256.397 296.037C255.365 293.683 253.897 291.62 252.004 289.895L245.269 297.287C246.103 298.047 246.756 298.953 247.239 300.054L256.397 296.037ZM252.089 289.974C250.191 288.163 247.937 286.84 245.421 285.961L242.124 295.402C243.426 295.857 244.415 296.473 245.184 297.208L252.089 289.974ZM245.487 285.985C242.934 285.053 240.172 284.636 237.273 284.636V294.636C239.222 294.636 240.793 294.917 242.058 295.379L245.487 285.985ZM237.273 284.636C232.195 284.636 227.554 285.882 223.63 288.633L229.37 296.821C231.324 295.451 233.866 294.636 237.273 294.636V284.636ZM223.61 288.647C219.786 291.355 217.024 295.154 215.211 299.759L224.516 303.423C225.733 300.331 227.395 298.22 229.39 296.807L223.61 288.647ZM215.199 299.791C213.436 304.36 212.636 309.625 212.636 315.455H222.636C222.636 310.497 223.322 306.518 224.528 303.391L215.199 299.791ZM212.636 315.455C212.636 321.558 213.443 326.998 215.257 331.604L224.562 327.941C223.345 324.851 222.636 320.745 222.636 315.455H212.636ZM215.274 331.649C217.128 336.228 219.932 339.979 223.817 342.569L229.364 334.249C227.431 332.96 225.781 330.954 224.544 327.897L215.274 331.649ZM223.848 342.589C227.706 345.122 232.2 346.273 237.091 346.273V336.273C233.8 336.273 231.294 335.515 229.334 334.229L223.848 342.589ZM237.091 346.273C239.829 346.273 242.434 345.936 244.851 345.183L241.877 335.635C240.597 336.034 239.02 336.273 237.091 336.273V346.273ZM244.921 345.16C247.3 344.381 249.468 343.234 251.357 341.68L245.006 333.956C244.169 334.645 243.125 335.226 241.806 335.658L244.921 345.16ZM251.357 341.68C253.23 340.141 254.75 338.283 255.902 336.143L247.098 331.402C246.553 332.414 245.861 333.253 245.006 333.956L251.357 341.68ZM255.886 336.173C257.074 334.002 257.835 331.631 258.216 329.113L248.329 327.615C248.105 329.096 247.684 330.331 247.114 331.373L255.886 336.173ZM253.237 333.364L278.874 333.545L278.945 323.546L253.308 323.364L253.237 333.364ZM273.924 328.162C273.673 331.423 272.751 334.854 271.06 338.476L280.122 342.705C282.249 338.146 283.539 333.547 283.894 328.929L273.924 328.162ZM271.066 338.464C269.433 341.938 267.084 345.217 263.95 348.297L270.959 355.43C274.855 351.601 277.931 347.365 280.116 342.718L271.066 338.464ZM263.95 348.297C260.992 351.204 257.248 353.625 252.62 355.503L256.38 364.769C262.055 362.466 266.948 359.371 270.959 355.43L263.95 348.297ZM252.62 355.503C248.184 357.304 242.861 358.273 236.545 358.273V368.273C243.867 368.273 250.513 367.151 256.38 364.769L252.62 355.503ZM236.545 358.273C228.739 358.273 221.904 356.605 215.922 353.374L211.169 362.172C218.763 366.274 227.261 368.273 236.545 368.273V358.273ZM215.93 353.378C210.061 350.193 205.381 345.508 201.875 339.171L193.125 344.011C197.498 351.916 203.515 358.019 211.161 362.167L215.93 353.378ZM201.883 339.185C198.473 332.973 196.636 325.137 196.636 315.455H186.636C186.636 326.378 188.709 335.966 193.117 343.997L201.883 339.185ZM196.636 315.455C196.636 305.721 198.514 297.893 201.991 291.729L193.281 286.816C188.758 294.835 186.636 304.46 186.636 315.455H196.636ZM201.996 291.721C205.559 285.377 210.282 280.703 216.179 277.544L211.457 268.729C203.779 272.842 197.713 278.926 193.277 286.824L201.996 291.721ZM216.195 277.536C222.192 274.296 228.94 272.636 236.545 272.636V262.636C227.424 262.636 219.02 264.644 211.442 268.737L216.195 277.536ZM236.545 272.636C241.967 272.636 246.848 273.377 251.227 274.8L254.319 265.29C248.819 263.502 242.881 262.636 236.545 262.636V272.636ZM251.227 274.8C255.609 276.225 259.375 278.281 262.581 280.94L268.964 273.242C264.716 269.719 259.815 267.078 254.319 265.29L251.227 274.8ZM262.6 280.955C265.769 283.557 268.34 286.776 270.313 290.669L279.233 286.149C276.66 281.073 273.231 276.746 268.946 273.227L262.6 280.955ZM270.313 290.669C272.253 294.497 273.487 298.991 273.927 304.236L283.892 303.401C283.361 297.069 281.838 291.291 279.233 286.149L270.313 290.669ZM374.511 341.682L378.858 344.153L378.863 344.145L374.511 341.682ZM358.193 357.818L360.538 362.234L360.546 362.23L360.553 362.226L358.193 357.818ZM312.284 357.773L309.901 362.168L309.912 362.174L309.924 362.181L312.284 357.773ZM296.011 341.591L291.652 344.04L291.658 344.051L291.664 344.062L296.011 341.591ZM296.011 289.273L291.66 286.81L291.656 286.816L296.011 289.273ZM312.284 273.136L314.637 277.548L314.644 277.544L312.284 273.136ZM358.193 273.136L355.833 277.544L355.841 277.548L355.848 277.552L358.193 273.136ZM374.511 289.273L370.16 291.735L370.164 291.743L374.511 289.273ZM352.33 301.364L347.652 303.131L347.661 303.154L347.67 303.176L352.33 301.364ZM345.83 292.636L342.956 296.728L342.981 296.746L343.006 296.763L345.83 292.636ZM324.693 292.636L327.537 296.749L327.546 296.743L324.693 292.636ZM318.193 301.364L313.528 299.564L313.525 299.574L313.521 299.584L318.193 301.364ZM318.193 329.591L313.516 331.359L313.525 331.381L313.533 331.403L318.193 329.591ZM324.693 338.318L321.82 342.41L321.845 342.428L321.87 342.445L324.693 338.318ZM345.83 338.318L348.673 342.431L348.682 342.424L345.83 338.318ZM352.33 329.591L347.665 327.791L347.661 327.801L347.657 327.811L352.33 329.591ZM375.557 315.455C375.557 325.181 373.666 333.024 370.16 339.219L378.863 344.145C383.417 336.097 385.557 326.455 385.557 315.455H375.557ZM370.164 339.211C366.576 345.525 361.807 350.212 355.833 353.41L360.553 362.226C368.276 358.091 374.386 352.021 378.858 344.153L370.164 339.211ZM355.848 353.402C349.783 356.622 342.963 358.273 335.284 358.273V368.273C344.454 368.273 352.906 366.287 360.538 362.234L355.848 353.402ZM335.284 358.273C327.545 358.273 320.701 356.608 314.644 353.365L309.924 362.181C317.564 366.271 326.054 368.273 335.284 368.273V358.273ZM314.667 353.377C308.714 350.149 303.952 345.443 300.358 339.12L291.664 344.062C296.132 351.921 302.218 358.002 309.901 362.168L314.667 353.377ZM300.371 339.142C296.887 332.94 295.011 325.12 295.011 315.455H285.011C285.011 326.395 287.136 335.999 291.652 344.04L300.371 339.142ZM295.011 315.455C295.011 305.721 296.889 297.893 300.366 291.729L291.656 286.816C287.133 294.835 285.011 304.46 285.011 315.455H295.011ZM300.363 291.735C303.954 285.389 308.707 280.711 314.637 277.548L309.931 268.725C302.225 272.835 296.129 278.914 291.66 286.81L300.363 291.735ZM314.644 277.544C320.701 274.301 327.545 272.636 335.284 272.636V262.636C326.054 262.636 317.564 264.638 309.924 268.728L314.644 277.544ZM335.284 272.636C342.956 272.636 349.771 274.299 355.833 277.544L360.553 268.728C352.918 264.641 344.46 262.636 335.284 262.636V272.636ZM355.848 277.552C361.808 280.717 366.572 285.395 370.16 291.735L378.863 286.81C374.391 278.908 368.275 272.829 360.538 268.72L355.848 277.552ZM370.164 291.743C373.666 297.904 375.557 305.727 375.557 315.455H385.557C385.557 304.455 383.418 294.824 378.858 286.802L370.164 291.743ZM359.557 315.455C359.557 309.468 358.764 304.115 356.99 299.551L347.67 303.176C348.865 306.249 349.557 310.289 349.557 315.455H359.557ZM357.007 299.596C355.257 294.966 352.52 291.155 348.653 288.51L343.006 296.763C344.897 298.057 346.493 300.064 347.652 303.131L357.007 299.596ZM348.703 288.544C344.855 285.843 340.283 284.636 335.284 284.636V294.636C338.649 294.636 341.107 295.43 342.956 296.728L348.703 288.544ZM335.284 284.636C330.283 284.636 325.708 285.843 321.84 288.53L327.546 296.743C329.436 295.43 331.921 294.636 335.284 294.636V284.636ZM321.849 288.524C318.028 291.166 315.304 294.962 313.528 299.564L322.858 303.163C324.052 300.069 325.661 298.046 327.537 296.749L321.849 288.524ZM313.521 299.584C311.786 304.136 311.011 309.478 311.011 315.455H321.011C321.011 310.28 321.691 306.227 322.866 303.144L313.521 299.584ZM311.011 315.455C311.011 321.433 311.787 326.784 313.516 331.359L322.87 327.823C321.69 324.701 321.011 320.627 321.011 315.455H311.011ZM313.533 331.403C315.311 335.975 318.029 339.749 321.82 342.41L327.566 334.226C325.66 332.888 324.045 330.843 322.853 327.779L313.533 331.403ZM321.87 342.445C325.734 345.089 330.299 346.273 335.284 346.273V336.273C331.906 336.273 329.41 335.487 327.517 334.192L321.87 342.445ZM335.284 346.273C340.268 346.273 344.829 345.089 348.673 342.431L342.986 334.206C341.134 335.486 338.664 336.273 335.284 336.273V346.273ZM348.682 342.424C352.518 339.759 355.25 335.97 357.002 331.371L347.657 327.811C346.5 330.848 344.898 332.877 342.977 334.212L348.682 342.424ZM356.994 331.391C358.764 326.805 359.557 321.443 359.557 315.455H349.557C349.557 320.618 348.865 324.68 347.665 327.791L356.994 331.391ZM392.25 362H387.25V367H392.25V362ZM392.25 268.909V263.909H387.25V268.909H392.25ZM452.523 274.5L450.165 278.909L450.176 278.915L450.188 278.921L452.523 274.5ZM468.705 290.5L464.311 292.888L464.318 292.899L464.324 292.91L468.705 290.5ZM468.75 340.455L473.139 342.85L473.143 342.842L468.75 340.455ZM452.659 356.455L455.01 360.867L455.018 360.863L455.025 360.859L452.659 356.455ZM417.523 340.545H412.523V345.545H417.523V340.545ZM438.932 338.318L436.866 333.765L436.858 333.769L436.85 333.772L438.932 338.318ZM446.386 330.636L441.87 328.491L441.863 328.506L441.855 328.522L446.386 330.636ZM446.341 300.273L441.825 302.418L441.832 302.433L441.839 302.449L446.341 300.273ZM438.705 292.591L436.67 297.158L436.678 297.162L436.685 297.165L438.705 292.591ZM417.523 290.364V285.364H412.523V290.364H417.523ZM428.068 357H392.25V367H428.068V357ZM397.25 362V268.909H387.25V362H397.25ZM392.25 273.909H427.705V263.909H392.25V273.909ZM427.705 273.909C436.63 273.909 444.059 275.644 450.165 278.909L454.881 270.091C447.047 265.902 437.93 263.909 427.705 263.909V273.909ZM450.188 278.921C456.314 282.157 460.993 286.782 464.311 292.888L473.098 288.112C468.84 280.279 462.731 274.237 454.858 270.079L450.188 278.921ZM464.324 292.91C467.654 298.963 469.432 306.413 469.432 315.455H479.432C479.432 305.102 477.391 295.916 473.085 288.09L464.324 292.91ZM469.432 315.455C469.432 324.501 467.667 331.976 464.357 338.067L473.143 342.842C477.409 334.994 479.432 325.802 479.432 315.455H469.432ZM464.361 338.059C461.037 344.15 456.374 348.783 450.293 352.05L455.025 360.859C462.823 356.671 468.888 350.638 473.139 342.85L464.361 338.059ZM450.308 352.042C444.225 355.282 436.868 357 428.068 357V367C438.178 367 447.214 365.021 455.01 360.867L450.308 352.042ZM417.523 345.545H427.159V335.545H417.523V345.545ZM427.159 345.545C432.282 345.545 436.957 344.722 441.014 342.864L436.85 333.772C434.422 334.884 431.248 335.545 427.159 335.545V345.545ZM440.998 342.871C445.485 340.836 448.779 337.333 450.917 332.751L441.855 328.522C440.6 331.212 438.924 332.831 436.866 333.765L440.998 342.871ZM450.903 332.782C453.085 328.188 453.977 322.279 453.977 315.455H443.977C443.977 321.599 443.142 325.812 441.87 328.491L450.903 332.782ZM453.977 315.455C453.977 308.622 453.068 302.701 450.843 298.097L441.839 302.449C443.129 305.117 443.977 309.318 443.977 315.455H453.977ZM450.857 298.127C448.668 293.519 445.291 290.033 440.724 288.017L436.685 297.165C438.845 298.119 440.559 299.754 441.825 302.418L450.857 298.127ZM440.739 288.024C436.592 286.176 431.762 285.364 426.432 285.364V295.364C430.798 295.364 434.151 296.036 436.67 297.158L440.739 288.024ZM426.432 285.364H417.523V295.364H426.432V285.364ZM412.523 290.364V340.545H422.523V290.364H412.523ZM486.125 362H481.125V367H486.125V362ZM486.125 268.909V263.909H481.125V268.909H486.125ZM553.216 268.909H558.216V263.909H553.216V268.909ZM553.216 289.273V294.273H558.216V289.273H553.216ZM511.398 289.273V284.273H506.398V289.273H511.398ZM511.398 305.273H506.398V310.273H511.398V305.273ZM549.761 305.273H554.761V300.273H549.761V305.273ZM549.761 325.636V330.636H554.761V325.636H549.761ZM511.398 325.636V320.636H506.398V325.636H511.398ZM511.398 341.636H506.398V346.636H511.398V341.636ZM553.034 341.636H558.034V336.636H553.034V341.636ZM553.034 362V367H558.034V362H553.034ZM491.125 362V268.909H481.125V362H491.125ZM486.125 273.909H553.216V263.909H486.125V273.909ZM548.216 268.909V289.273H558.216V268.909H548.216ZM553.216 284.273H511.398V294.273H553.216V284.273ZM506.398 289.273V305.273H516.398V289.273H506.398ZM511.398 310.273H549.761V300.273H511.398V310.273ZM544.761 305.273V325.636H554.761V305.273H544.761ZM549.761 320.636H511.398V330.636H549.761V320.636ZM506.398 325.636V341.636H516.398V325.636H506.398ZM511.398 346.636H553.034V336.636H511.398V346.636ZM548.034 341.636V362H558.034V341.636H548.034ZM553.034 357H486.125V367H553.034V357ZM678.159 303.818V308.818H683.595L683.142 303.401L678.159 303.818ZM652.523 303.818L647.541 304.245L647.933 308.818H652.523V303.818ZM651.068 298.045L646.489 300.054L646.504 300.087L646.519 300.12L651.068 298.045ZM647.886 293.591L644.434 297.208L644.476 297.248L644.519 297.287L647.886 293.591ZM643.023 290.682L641.308 295.379L641.341 295.391L641.374 295.402L643.023 290.682ZM625.75 292.727L622.88 288.633L622.87 288.64L622.86 288.647L625.75 292.727ZM619.114 301.591L614.461 299.759L614.455 299.775L614.449 299.791L619.114 301.591ZM619.159 329.773L614.507 331.604L614.515 331.627L614.524 331.649L619.159 329.773ZM625.841 338.409L623.067 342.569L623.082 342.579L623.098 342.589L625.841 338.409ZM642.614 340.409L644.101 345.183L644.136 345.172L644.171 345.16L642.614 340.409ZM647.432 337.818L650.607 341.68L650.607 341.68L647.432 337.818ZM650.75 333.773L646.364 331.373L646.356 331.387L646.348 331.402L650.75 333.773ZM652.523 328.364L652.558 323.364L648.228 323.333L647.579 327.615L652.523 328.364ZM678.159 328.545L683.144 328.929L683.556 323.584L678.195 323.546L678.159 328.545ZM674.841 340.591L679.366 342.718L679.369 342.712L679.372 342.705L674.841 340.591ZM666.705 351.864L670.209 355.43L670.209 355.43L666.705 351.864ZM653.75 360.136L651.87 355.503L653.75 360.136ZM612.795 357.773L610.411 362.167L610.419 362.172L612.795 357.773ZM596.75 341.591L592.367 343.997L592.371 344.004L592.375 344.011L596.75 341.591ZM596.886 289.273L601.241 291.729L601.246 291.721L596.886 289.273ZM613.068 273.136L615.429 277.544L615.437 277.54L615.445 277.536L613.068 273.136ZM652.023 270.045L653.569 265.29V265.29L652.023 270.045ZM665.023 277.091L661.831 280.94L661.84 280.947L661.85 280.955L665.023 277.091ZM674.023 288.409L669.563 290.669V290.669L674.023 288.409ZM678.159 298.818H652.523V308.818H678.159V298.818ZM657.504 303.391C657.28 300.769 656.67 298.277 655.617 295.97L646.519 300.12C647.043 301.268 647.402 302.625 647.541 304.245L657.504 303.391ZM655.647 296.037C654.615 293.683 653.147 291.62 651.254 289.895L644.519 297.287C645.353 298.047 646.006 298.953 646.489 300.054L655.647 296.037ZM651.339 289.974C649.441 288.163 647.187 286.84 644.671 285.961L641.374 295.402C642.676 295.857 643.665 296.473 644.434 297.208L651.339 289.974ZM644.737 285.985C642.184 285.053 639.422 284.636 636.523 284.636V294.636C638.472 294.636 640.043 294.917 641.308 295.379L644.737 285.985ZM636.523 284.636C631.445 284.636 626.804 285.882 622.88 288.633L628.62 296.821C630.574 295.451 633.116 294.636 636.523 294.636V284.636ZM622.86 288.647C619.036 291.355 616.274 295.154 614.461 299.759L623.766 303.423C624.983 300.331 626.645 298.22 628.64 296.807L622.86 288.647ZM614.449 299.791C612.686 304.36 611.886 309.625 611.886 315.455H621.886C621.886 310.497 622.572 306.518 623.778 303.391L614.449 299.791ZM611.886 315.455C611.886 321.558 612.693 326.998 614.507 331.604L623.812 327.941C622.595 324.851 621.886 320.745 621.886 315.455H611.886ZM614.524 331.649C616.378 336.228 619.182 339.979 623.067 342.569L628.614 334.249C626.681 332.96 625.031 330.954 623.794 327.897L614.524 331.649ZM623.098 342.589C626.956 345.122 631.45 346.273 636.341 346.273V336.273C633.05 336.273 630.544 335.515 628.584 334.229L623.098 342.589ZM636.341 346.273C639.079 346.273 641.684 345.936 644.101 345.183L641.127 335.635C639.847 336.034 638.27 336.273 636.341 336.273V346.273ZM644.171 345.16C646.55 344.381 648.718 343.234 650.607 341.68L644.256 333.956C643.419 334.645 642.375 335.226 641.056 335.658L644.171 345.16ZM650.607 341.68C652.48 340.141 654 338.283 655.152 336.143L646.348 331.402C645.803 332.414 645.111 333.253 644.256 333.956L650.607 341.68ZM655.136 336.173C656.324 334.002 657.085 331.631 657.466 329.113L647.579 327.615C647.355 329.096 646.934 330.331 646.364 331.373L655.136 336.173ZM652.487 333.364L678.124 333.545L678.195 323.546L652.558 323.364L652.487 333.364ZM673.174 328.162C672.923 331.423 672.001 334.854 670.31 338.476L679.372 342.705C681.499 338.146 682.789 333.547 683.144 328.929L673.174 328.162ZM670.316 338.464C668.683 341.938 666.334 345.217 663.2 348.297L670.209 355.43C674.105 351.601 677.181 347.365 679.366 342.718L670.316 338.464ZM663.2 348.297C660.242 351.204 656.498 353.625 651.87 355.503L655.63 364.769C661.305 362.466 666.198 359.371 670.209 355.43L663.2 348.297ZM651.87 355.503C647.434 357.304 642.111 358.273 635.795 358.273V368.273C643.117 368.273 649.763 367.151 655.63 364.769L651.87 355.503ZM635.795 358.273C627.989 358.273 621.154 356.605 615.172 353.374L610.419 362.172C618.013 366.274 626.511 368.273 635.795 368.273V358.273ZM615.18 353.378C609.311 350.193 604.631 345.508 601.125 339.171L592.375 344.011C596.748 351.916 602.765 358.019 610.411 362.167L615.18 353.378ZM601.133 339.185C597.723 332.973 595.886 325.137 595.886 315.455H585.886C585.886 326.378 587.959 335.966 592.367 343.997L601.133 339.185ZM595.886 315.455C595.886 305.721 597.764 297.893 601.241 291.729L592.531 286.816C588.008 294.835 585.886 304.46 585.886 315.455H595.886ZM601.246 291.721C604.809 285.377 609.532 280.703 615.429 277.544L610.707 268.729C603.029 272.842 596.963 278.926 592.527 286.824L601.246 291.721ZM615.445 277.536C621.442 274.296 628.19 272.636 635.795 272.636V262.636C626.674 262.636 618.27 264.644 610.692 268.737L615.445 277.536ZM635.795 272.636C641.217 272.636 646.098 273.377 650.477 274.8L653.569 265.29C648.069 263.502 642.131 262.636 635.795 262.636V272.636ZM650.477 274.8C654.859 276.225 658.625 278.281 661.831 280.94L668.214 273.242C663.966 269.719 659.065 267.078 653.569 265.29L650.477 274.8ZM661.85 280.955C665.019 283.557 667.59 286.776 669.563 290.669L678.483 286.149C675.91 281.073 672.481 276.746 668.196 273.227L661.85 280.955ZM669.563 290.669C671.503 294.497 672.737 298.991 673.177 304.236L683.142 303.401C682.611 297.069 681.088 291.291 678.483 286.149L669.563 290.669ZM689.625 362H684.625V367H689.625V362ZM689.625 268.909V263.909H684.625V268.909H689.625ZM747.943 272.682L745.76 277.18L747.943 272.682ZM760.034 283.545L764.305 280.945V280.945L760.034 283.545ZM759.898 317.409L755.704 314.687L755.697 314.697L755.691 314.707L759.898 317.409ZM747.489 327.773L745.485 323.192L745.475 323.196L747.489 327.773ZM704.898 331.273H699.898V336.273H704.898V331.273ZM704.898 311.636V306.636H699.898V311.636H704.898ZM731.398 310.545L733.04 315.268L733.06 315.261L733.079 315.254L731.398 310.545ZM736.261 306.955L732.172 304.077L732.154 304.103L732.137 304.128L736.261 306.955ZM736.261 294.045L732.09 296.802L732.118 296.845L732.148 296.888L736.261 294.045ZM731.398 290.318L729.576 294.974L729.616 294.99L729.657 295.005L731.398 290.318ZM714.898 289.091V284.091H709.898V289.091H714.898ZM714.898 362V367H719.898V362H714.898ZM744.17 319.273L748.561 316.881L747.141 314.273H744.17V319.273ZM767.443 362V367H775.86L771.834 359.608L767.443 362ZM739.989 362L735.574 364.348L736.985 367H739.989V362ZM717.261 319.273V314.273H708.938L712.847 321.621L717.261 319.273ZM694.625 362V268.909H684.625V362H694.625ZM689.625 273.909H729.807V263.909H689.625V273.909ZM729.807 273.909C736.109 273.909 741.381 275.055 745.76 277.18L750.126 268.184C744.142 265.279 737.323 263.909 729.807 263.909V273.909ZM745.76 277.18C750.115 279.294 753.405 282.273 755.764 286.146L764.305 280.945C760.906 275.363 756.135 271.1 750.126 268.184L745.76 277.18ZM755.764 286.146C758.08 289.95 759.352 294.678 759.352 300.545H769.352C769.352 293.201 767.746 286.596 764.305 280.945L755.764 286.146ZM759.352 300.545C759.352 306.462 758.041 311.086 755.704 314.687L764.092 320.131C767.694 314.581 769.352 307.962 769.352 300.545H759.352ZM755.691 314.707C753.323 318.394 749.981 321.225 745.485 323.192L749.493 332.354C755.663 329.654 760.594 325.576 764.105 320.111L755.691 314.707ZM745.475 323.196C740.932 325.195 735.447 326.273 728.898 326.273V336.273C736.531 336.273 743.439 335.017 749.502 332.349L745.475 323.196ZM728.898 326.273H704.898V336.273H728.898V326.273ZM709.898 331.273V311.636H699.898V331.273H709.898ZM704.898 316.636H723.807V306.636H704.898V316.636ZM723.807 316.636C727.157 316.636 730.275 316.23 733.04 315.268L729.755 305.823C728.338 306.316 726.396 306.636 723.807 306.636V316.636ZM733.079 315.254C736.053 314.192 738.59 312.401 740.386 309.781L732.137 304.128C731.69 304.78 730.985 305.384 729.716 305.837L733.079 315.254ZM740.35 309.832C742.257 307.122 742.989 303.888 742.989 300.545H732.989C732.989 302.476 732.569 303.514 732.172 304.077L740.35 309.832ZM742.989 300.545C742.989 297.181 742.261 293.933 740.375 291.203L732.148 296.888C732.565 297.491 732.989 298.577 732.989 300.545H742.989ZM740.433 291.289C738.661 288.608 736.137 286.745 733.139 285.631L729.657 295.005C730.901 295.467 731.619 296.089 732.09 296.802L740.433 291.289ZM733.22 285.662C730.394 284.556 727.21 284.091 723.807 284.091V294.091C726.343 294.091 728.219 294.444 729.576 294.974L733.22 285.662ZM723.807 284.091H714.898V294.091H723.807V284.091ZM709.898 289.091V362H719.898V289.091H709.898ZM714.898 357H689.625V367H714.898V357ZM739.78 321.664L763.052 364.392L771.834 359.608L748.561 316.881L739.78 321.664ZM767.443 357H739.989V367H767.443V357ZM744.403 359.652L721.676 316.925L712.847 321.621L735.574 364.348L744.403 359.652ZM717.261 324.273H744.17V314.273H717.261V324.273ZM800.398 268.909H805.398V263.909H800.398V268.909ZM800.398 362V367H805.398V362H800.398ZM775.125 362H770.125V367H775.125V362ZM775.125 268.909V263.909H770.125V268.909H775.125ZM795.398 268.909V362H805.398V268.909H795.398ZM800.398 357H775.125V367H800.398V357ZM780.125 362V268.909H770.125V362H780.125ZM775.125 273.909H800.398V263.909H775.125V273.909ZM862.557 298L857.573 298.399L857.941 303H862.557V298ZM859.148 290.909L855.913 294.722L855.927 294.734L855.941 294.745L859.148 290.909ZM843.602 289.318L845.339 294.007L845.362 293.998L845.386 293.989L843.602 289.318ZM839.966 291.818L835.952 288.837L839.966 291.818ZM838.739 295.455L843.731 295.724L843.736 295.645L843.737 295.566L838.739 295.455ZM839.33 298.5L834.857 300.736L834.903 300.827L834.952 300.915L839.33 298.5ZM841.602 300.909L838.719 304.994L838.76 305.023L838.801 305.051L841.602 300.909ZM851.284 304.364L852.332 299.475L852.311 299.47L852.29 299.466L851.284 304.364ZM858.92 306L857.873 310.889L857.885 310.892L858.92 306ZM872.148 310.318L869.956 314.812L872.148 310.318ZM881.148 316.636L877.545 320.104L877.556 320.115L877.567 320.126L881.148 316.636ZM886.284 324.727L881.585 326.436L881.593 326.457L881.601 326.478L886.284 324.727ZM888.011 334.545L893.011 334.57L893.011 334.536L893.011 334.503L888.011 334.545ZM883.42 350.091L887.489 352.997L883.42 350.091ZM870.42 359.773L868.594 355.118L868.585 355.122L870.42 359.773ZM829.011 359.5L827.158 364.144L827.167 364.147L829.011 359.5ZM815.011 348.455L810.839 351.211L810.849 351.225L810.859 351.24L815.011 348.455ZM810.011 329.273V324.273H804.992L805.011 329.292L810.011 329.273ZM834.011 329.273L839.004 329.007L838.753 324.273H834.011V329.273ZM836.148 336.455L831.967 339.198V339.198L836.148 336.455ZM841.511 340.864L839.52 345.45L839.531 345.455L839.542 345.459L841.511 340.864ZM856.602 341.364L858.324 346.058V346.058L856.602 341.364ZM860.739 338.591L864.653 341.702L860.739 338.591ZM862.193 334.545L867.192 334.645L867.194 334.542L867.192 334.439L862.193 334.545ZM860.784 330.818L856.89 333.955L856.938 334.014L856.988 334.072L860.784 330.818ZM856.42 327.909L854.434 332.498L854.463 332.51L854.492 332.522L856.42 327.909ZM848.193 325.455L849.264 320.571L849.256 320.569L849.247 320.567L848.193 325.455ZM838.92 323.455L837.861 328.341L837.866 328.342L838.92 323.455ZM819.42 314.5L816.094 318.233L816.107 318.244L816.119 318.255L819.42 314.5ZM812.375 297.273L817.375 297.294L817.375 297.27L817.375 297.247L812.375 297.273ZM817.102 281.773L813.047 278.848L813.043 278.853L817.102 281.773ZM830.42 271.364L828.421 266.781L828.413 266.785L830.42 271.364ZM869.511 271.409L867.427 275.954V275.954L869.511 271.409ZM882.193 282.045L877.999 284.767L878.01 284.784L878.02 284.8L882.193 282.045ZM886.739 298V303H891.764L891.739 297.975L886.739 298ZM867.541 297.601C867.209 293.45 865.57 289.761 862.354 287.073L855.941 294.745C856.786 295.452 857.42 296.49 857.573 298.399L867.541 297.601ZM862.383 287.097C859.093 284.305 854.657 283.364 850.011 283.364V293.364C853.548 293.364 855.202 294.119 855.913 294.722L862.383 287.097ZM850.011 283.364C847.052 283.364 844.253 283.718 841.819 284.647L845.386 293.989C846.285 293.646 847.759 293.364 850.011 293.364V283.364ZM841.866 284.629C839.607 285.466 837.476 286.785 835.952 288.837L843.98 294.8C844.032 294.73 844.325 294.382 845.339 294.007L841.866 284.629ZM835.952 288.837C834.526 290.757 833.792 292.98 833.74 295.343L843.737 295.566C843.745 295.202 843.831 295 843.98 294.8L835.952 288.837ZM833.746 295.185C833.643 297.079 833.975 298.972 834.857 300.736L843.802 296.264C843.775 296.21 843.713 296.072 843.731 295.724L833.746 295.185ZM834.952 300.915C835.883 302.604 837.225 303.939 838.719 304.994L844.486 296.824C843.919 296.424 843.745 296.153 843.707 296.085L834.952 300.915ZM838.801 305.051C840.279 306.05 842.004 306.856 843.87 307.525L847.244 298.111C845.897 297.629 844.987 297.162 844.404 296.768L838.801 305.051ZM843.87 307.525C845.756 308.201 847.904 308.773 850.278 309.261L852.29 299.466C850.24 299.045 848.57 298.587 847.244 298.111L843.87 307.525ZM850.236 309.253L857.873 310.889L859.968 301.111L852.332 299.475L850.236 309.253ZM857.885 310.892C862.745 311.921 866.746 313.247 869.956 314.812L874.339 305.824C870.217 303.814 865.399 302.261 859.956 301.108L857.885 310.892ZM869.956 314.812C873.205 316.396 875.695 318.181 877.545 320.104L884.75 313.169C881.934 310.243 878.424 307.816 874.339 305.824L869.956 314.812ZM877.567 320.126C879.43 322.037 880.748 324.134 881.585 326.436L890.983 323.019C889.638 319.321 887.533 316.024 884.728 313.146L877.567 320.126ZM881.601 326.478C882.497 328.876 882.986 331.564 883.012 334.588L893.011 334.503C892.976 330.436 892.314 326.579 890.968 322.977L881.601 326.478ZM883.011 334.521C882.985 339.793 881.682 343.922 879.352 347.185L887.489 352.997C891.22 347.775 892.977 341.54 893.011 334.57L883.011 334.521ZM879.352 347.185C876.97 350.519 873.478 353.201 868.594 355.118L872.247 364.427C878.636 361.92 883.81 358.147 887.489 352.997L879.352 347.185ZM868.585 355.122C863.713 357.044 857.627 358.091 850.193 358.091V368.091C858.517 368.091 865.916 366.925 872.256 364.424L868.585 355.122ZM850.193 358.091C842.583 358.091 836.174 356.964 830.856 354.853L827.167 364.147C833.909 366.824 841.621 368.091 850.193 368.091V358.091ZM830.864 354.856C825.722 352.804 821.89 349.735 819.164 345.669L810.859 351.24C814.799 357.114 820.3 361.408 827.158 364.144L830.864 354.856ZM819.183 345.699C816.556 341.721 815.039 336.356 815.011 329.253L805.011 329.292C805.044 337.766 806.861 345.188 810.839 351.211L819.183 345.699ZM810.011 334.273H834.011V324.273H810.011V334.273ZM829.018 329.538C829.206 333.068 830.11 336.367 831.967 339.198L840.328 333.711C839.641 332.664 839.12 331.174 839.004 329.007L829.018 329.538ZM831.967 339.198C833.819 342.019 836.4 344.095 839.52 345.45L843.503 336.277C842.016 335.632 841.022 334.769 840.328 333.711L831.967 339.198ZM839.542 345.459C842.639 346.787 846.113 347.364 849.83 347.364V337.364C847.121 337.364 845.05 336.941 843.481 336.268L839.542 345.459ZM849.83 347.364C852.9 347.364 855.784 346.989 858.324 346.058L854.881 336.669C853.784 337.071 852.153 337.364 849.83 337.364V347.364ZM858.324 346.058C860.764 345.163 863.001 343.78 864.653 341.702L856.825 335.48C856.597 335.766 856.077 336.231 854.881 336.669L858.324 346.058ZM864.653 341.702C866.277 339.659 867.14 337.252 867.192 334.645L857.194 334.445C857.186 334.87 857.079 335.159 856.825 335.48L864.653 341.702ZM867.192 334.439C867.138 331.883 866.259 329.522 864.58 327.564L856.988 334.072C857.128 334.236 857.188 334.359 857.194 334.652L867.192 334.439ZM864.678 327.682C863.061 325.675 860.75 324.299 858.348 323.296L854.492 332.522C856.151 333.216 856.749 333.78 856.89 333.955L864.678 327.682ZM858.407 323.32C855.96 322.262 852.87 321.361 849.264 320.571L847.122 330.338C850.425 331.063 852.82 331.799 854.434 332.498L858.407 323.32ZM849.247 320.567L839.975 318.567L837.866 328.342L847.139 330.342L849.247 320.567ZM839.98 318.568C832.303 316.903 826.663 314.209 822.721 310.745L816.119 318.255C821.693 323.154 829.053 326.43 837.861 328.341L839.98 318.568ZM822.747 310.767C819.254 307.655 817.35 303.369 817.375 297.294L807.375 297.252C807.34 305.722 810.132 312.921 816.094 318.233L822.747 310.767ZM817.375 297.247C817.35 292.3 818.649 288.185 821.161 284.692L813.043 278.853C809.192 284.209 807.34 290.427 807.375 297.298L817.375 297.247ZM821.158 284.697C823.784 281.056 827.474 278.115 832.428 275.943L828.413 266.785C822.034 269.582 816.845 273.581 813.047 278.848L821.158 284.697ZM832.419 275.947C837.38 273.783 843.21 272.636 850.011 272.636V262.636C842.085 262.636 834.854 263.975 828.422 266.781L832.419 275.947ZM850.011 272.636C856.979 272.636 862.736 273.803 867.427 275.954L871.596 266.864C865.317 263.985 858.074 262.636 850.011 262.636V272.636ZM867.427 275.954C872.145 278.117 875.599 281.07 877.999 284.767L886.387 279.323C882.847 273.869 877.848 269.731 871.596 266.864L867.427 275.954ZM878.02 284.8C880.423 288.441 881.713 292.786 881.739 298.025L891.739 297.975C891.704 291.032 889.963 284.741 886.366 279.291L878.02 284.8ZM886.739 293H862.557V303H886.739V293ZM922.898 268.909H927.898V263.909H922.898V268.909ZM922.898 362V367H927.898V362H922.898ZM897.625 362H892.625V367H897.625V362ZM897.625 268.909V263.909H892.625V268.909H897.625ZM917.898 268.909V362H927.898V268.909H917.898ZM922.898 357H897.625V367H922.898V357ZM902.625 362V268.909H892.625V362H902.625ZM897.625 273.909H922.898V263.909H897.625V273.909ZM985.057 298L980.073 298.399L980.441 303H985.057V298ZM981.648 290.909L978.413 294.722L978.427 294.734L978.441 294.745L981.648 290.909ZM966.102 289.318L967.839 294.007L967.862 293.998L967.886 293.989L966.102 289.318ZM962.466 291.818L958.452 288.837L962.466 291.818ZM961.239 295.455L966.231 295.724L966.236 295.645L966.237 295.566L961.239 295.455ZM961.83 298.5L957.357 300.736L957.403 300.827L957.452 300.915L961.83 298.5ZM964.102 300.909L961.219 304.994L961.26 305.023L961.301 305.051L964.102 300.909ZM973.784 304.364L974.832 299.475L974.811 299.47L974.79 299.466L973.784 304.364ZM981.42 306L980.373 310.889L980.385 310.892L981.42 306ZM994.648 310.318L992.456 314.812L994.648 310.318ZM1003.65 316.636L1000.05 320.104L1000.06 320.115L1000.07 320.126L1003.65 316.636ZM1008.78 324.727L1004.09 326.436L1004.09 326.457L1004.1 326.478L1008.78 324.727ZM1010.51 334.545L1015.51 334.57L1015.51 334.536L1015.51 334.503L1010.51 334.545ZM1005.92 350.091L1009.99 352.997L1005.92 350.091ZM992.92 359.773L991.094 355.118L991.085 355.122L992.92 359.773ZM951.511 359.5L949.658 364.144L949.667 364.147L951.511 359.5ZM937.511 348.455L933.339 351.211L933.349 351.225L933.359 351.24L937.511 348.455ZM932.511 329.273V324.273H927.492L927.511 329.292L932.511 329.273ZM956.511 329.273L961.504 329.007L961.253 324.273H956.511V329.273ZM958.648 336.455L954.467 339.198V339.198L958.648 336.455ZM964.011 340.864L962.02 345.45L962.031 345.455L962.042 345.459L964.011 340.864ZM979.102 341.364L980.824 346.058V346.058L979.102 341.364ZM983.239 338.591L987.153 341.702L983.239 338.591ZM984.693 334.545L989.692 334.645L989.694 334.542L989.692 334.439L984.693 334.545ZM983.284 330.818L979.39 333.955L979.438 334.014L979.488 334.072L983.284 330.818ZM978.92 327.909L976.934 332.498L976.963 332.51L976.992 332.522L978.92 327.909ZM970.693 325.455L971.764 320.571L971.756 320.569L971.747 320.567L970.693 325.455ZM961.42 323.455L960.361 328.341L960.366 328.342L961.42 323.455ZM941.92 314.5L938.594 318.233L938.607 318.244L938.619 318.255L941.92 314.5ZM934.875 297.273L939.875 297.294L939.875 297.27L939.875 297.247L934.875 297.273ZM939.602 281.773L935.547 278.848L935.543 278.853L939.602 281.773ZM952.92 271.364L950.921 266.781L950.913 266.785L952.92 271.364ZM992.011 271.409L989.927 275.954V275.954L992.011 271.409ZM1004.69 282.045L1000.5 284.767L1000.51 284.784L1000.52 284.8L1004.69 282.045ZM1009.24 298V303H1014.26L1014.24 297.975L1009.24 298ZM990.041 297.601C989.709 293.45 988.07 289.761 984.854 287.073L978.441 294.745C979.286 295.452 979.92 296.49 980.073 298.399L990.041 297.601ZM984.883 287.097C981.593 284.305 977.157 283.364 972.511 283.364V293.364C976.048 293.364 977.702 294.119 978.413 294.722L984.883 287.097ZM972.511 283.364C969.552 283.364 966.753 283.718 964.319 284.647L967.886 293.989C968.785 293.646 970.259 293.364 972.511 293.364V283.364ZM964.366 284.629C962.107 285.466 959.976 286.785 958.452 288.837L966.48 294.8C966.532 294.73 966.825 294.382 967.839 294.007L964.366 284.629ZM958.452 288.837C957.026 290.757 956.292 292.98 956.24 295.343L966.237 295.566C966.245 295.202 966.331 295 966.48 294.8L958.452 288.837ZM956.246 295.185C956.143 297.079 956.475 298.972 957.357 300.736L966.302 296.264C966.275 296.21 966.213 296.072 966.231 295.724L956.246 295.185ZM957.452 300.915C958.383 302.604 959.725 303.939 961.219 304.994L966.986 296.824C966.419 296.424 966.245 296.153 966.207 296.085L957.452 300.915ZM961.301 305.051C962.779 306.05 964.504 306.856 966.37 307.525L969.744 298.111C968.397 297.629 967.487 297.162 966.904 296.768L961.301 305.051ZM966.37 307.525C968.256 308.201 970.404 308.773 972.778 309.261L974.79 299.466C972.74 299.045 971.07 298.587 969.744 298.111L966.37 307.525ZM972.736 309.253L980.373 310.889L982.468 301.111L974.832 299.475L972.736 309.253ZM980.385 310.892C985.245 311.921 989.246 313.247 992.456 314.812L996.839 305.824C992.717 303.814 987.899 302.261 982.456 301.108L980.385 310.892ZM992.456 314.812C995.705 316.396 998.195 318.181 1000.05 320.104L1007.25 313.169C1004.43 310.243 1000.92 307.816 996.839 305.824L992.456 314.812ZM1000.07 320.126C1001.93 322.037 1003.25 324.134 1004.09 326.436L1013.48 323.019C1012.14 319.321 1010.03 316.024 1007.23 313.146L1000.07 320.126ZM1004.1 326.478C1005 328.876 1005.49 331.564 1005.51 334.588L1015.51 334.503C1015.48 330.436 1014.81 326.579 1013.47 322.977L1004.1 326.478ZM1005.51 334.521C1005.49 339.793 1004.18 343.922 1001.85 347.185L1009.99 352.997C1013.72 347.775 1015.48 341.54 1015.51 334.57L1005.51 334.521ZM1001.85 347.185C999.47 350.519 995.978 353.201 991.094 355.118L994.747 364.427C1001.14 361.92 1006.31 358.147 1009.99 352.997L1001.85 347.185ZM991.085 355.122C986.213 357.044 980.127 358.091 972.693 358.091V368.091C981.017 368.091 988.416 366.925 994.756 364.424L991.085 355.122ZM972.693 358.091C965.083 358.091 958.674 356.964 953.356 354.853L949.667 364.147C956.409 366.824 964.121 368.091 972.693 368.091V358.091ZM953.364 354.856C948.222 352.804 944.39 349.735 941.664 345.669L933.359 351.24C937.299 357.114 942.8 361.408 949.658 364.144L953.364 354.856ZM941.683 345.699C939.056 341.721 937.539 336.356 937.511 329.253L927.511 329.292C927.544 337.766 929.361 345.188 933.339 351.211L941.683 345.699ZM932.511 334.273H956.511V324.273H932.511V334.273ZM951.518 329.538C951.706 333.068 952.61 336.367 954.467 339.198L962.828 333.711C962.141 332.664 961.62 331.174 961.504 329.007L951.518 329.538ZM954.467 339.198C956.319 342.019 958.9 344.095 962.02 345.45L966.003 336.277C964.516 335.632 963.522 334.769 962.828 333.711L954.467 339.198ZM962.042 345.459C965.139 346.787 968.613 347.364 972.33 347.364V337.364C969.621 337.364 967.55 336.941 965.981 336.268L962.042 345.459ZM972.33 347.364C975.4 347.364 978.284 346.989 980.824 346.058L977.381 336.669C976.284 337.071 974.653 337.364 972.33 337.364V347.364ZM980.824 346.058C983.264 345.163 985.501 343.78 987.153 341.702L979.325 335.48C979.097 335.766 978.577 336.231 977.381 336.669L980.824 346.058ZM987.153 341.702C988.777 339.659 989.64 337.252 989.692 334.645L979.694 334.445C979.686 334.87 979.579 335.159 979.325 335.48L987.153 341.702ZM989.692 334.439C989.638 331.883 988.759 329.522 987.08 327.564L979.488 334.072C979.628 334.236 979.688 334.359 979.694 334.652L989.692 334.439ZM987.178 327.682C985.561 325.675 983.25 324.299 980.848 323.296L976.992 332.522C978.651 333.216 979.249 333.78 979.39 333.955L987.178 327.682ZM980.907 323.32C978.46 322.262 975.37 321.361 971.764 320.571L969.622 330.338C972.925 331.063 975.32 331.799 976.934 332.498L980.907 323.32ZM971.747 320.567L962.475 318.567L960.366 328.342L969.639 330.342L971.747 320.567ZM962.48 318.568C954.803 316.903 949.163 314.209 945.221 310.745L938.619 318.255C944.193 323.154 951.553 326.43 960.361 328.341L962.48 318.568ZM945.247 310.767C941.754 307.655 939.85 303.369 939.875 297.294L929.875 297.252C929.84 305.722 932.632 312.921 938.594 318.233L945.247 310.767ZM939.875 297.247C939.85 292.3 941.149 288.185 943.661 284.692L935.543 278.853C931.692 284.209 929.84 290.427 929.875 297.298L939.875 297.247ZM943.658 284.697C946.284 281.056 949.974 278.115 954.928 275.943L950.913 266.785C944.534 269.582 939.345 273.581 935.547 278.848L943.658 284.697ZM954.919 275.947C959.88 273.783 965.71 272.636 972.511 272.636V262.636C964.585 262.636 957.354 263.975 950.922 266.781L954.919 275.947ZM972.511 272.636C979.479 272.636 985.236 273.803 989.927 275.954L994.096 266.864C987.817 263.985 980.574 262.636 972.511 262.636V272.636ZM989.927 275.954C994.645 278.117 998.099 281.07 1000.5 284.767L1008.89 279.323C1005.35 273.869 1000.35 269.731 994.096 266.864L989.927 275.954ZM1000.52 284.8C1002.92 288.441 1004.21 292.786 1004.24 298.025L1014.24 297.975C1014.2 291.032 1012.46 284.741 1008.87 279.291L1000.52 284.8ZM1009.24 293H985.057V303H1009.24V293Z" fill="url(#paint4_linear_130_90)" mask="url(#path-5-outside-1_130_90)"/>
<path d="M63.5234 34.8515L56 54.625H64.0948L67.8088 43.9341L63.5234 34.8515Z" fill="white"/>
<path d="M74.4751 54.625L64.8566 34H72.7609L82.3794 54.625H74.4751Z" fill="white"/>
<path d="M79.1073 39.0143L76.917 34H84.5356L87.0116 39.0143H79.1073Z" fill="white"/>
<path d="M86.2498 54.625L79.4883 40.3389H87.4878L94.4398 54.625H86.2498Z" fill="white"/>
<path d="M90.882 39.0143L88.6916 34H101.643L104.024 39.0143H90.882Z" fill="white"/>
<path d="M100.405 54.625L93.8342 40.3389H101.643L108.5 54.625H100.405Z" fill="white"/>
<path d="M140.648 39.3636V35.5455H155.818V39.3636H150.568V53H145.898V39.3636H140.648ZM157.602 53V35.5455H170.181V39.3636H162.34V42.3636H169.533V46.1818H162.34V49.1818H170.147V53H157.602ZM188.827 42.0909H184.02C183.986 41.6932 183.895 41.3324 183.747 41.0085C183.605 40.6847 183.406 40.4062 183.151 40.1733C182.901 39.9347 182.597 39.7528 182.239 39.6278C181.881 39.4972 181.474 39.4318 181.02 39.4318C180.224 39.4318 179.551 39.625 179 40.0114C178.455 40.3977 178.04 40.9517 177.756 41.6733C177.477 42.3949 177.338 43.2614 177.338 44.2727C177.338 45.3409 177.48 46.2358 177.764 46.9574C178.054 47.6733 178.472 48.2131 179.017 48.5767C179.563 48.9347 180.219 49.1136 180.986 49.1136C181.423 49.1136 181.815 49.0597 182.162 48.9517C182.509 48.8381 182.81 48.6761 183.065 48.4659C183.321 48.2557 183.528 48.0028 183.688 47.7074C183.852 47.4062 183.963 47.0682 184.02 46.6932L188.827 46.7273C188.77 47.4659 188.563 48.2187 188.205 48.9858C187.847 49.7472 187.338 50.4517 186.679 51.0994C186.026 51.7415 185.216 52.2585 184.25 52.6506C183.284 53.0426 182.162 53.2386 180.884 53.2386C179.281 53.2386 177.844 52.8949 176.571 52.2074C175.304 51.5199 174.301 50.5085 173.562 49.1733C172.83 47.8381 172.463 46.2045 172.463 44.2727C172.463 42.3295 172.838 40.6932 173.588 39.3636C174.338 38.0284 175.349 37.0199 176.622 36.3381C177.895 35.6506 179.315 35.3068 180.884 35.3068C181.986 35.3068 183 35.4574 183.926 35.7585C184.852 36.0597 185.665 36.5 186.364 37.0795C187.063 37.6534 187.625 38.3608 188.051 39.2017C188.477 40.0426 188.736 41.0057 188.827 42.0909ZM190.977 53V35.5455H195.715V42.3636H201.988V35.5455H206.727V53H201.988V46.1818H195.715V53H190.977ZM224.079 35.5455V53H220.124L213.817 43.8295H213.715V53H208.977V35.5455H212.999L219.204 44.6818H219.34V35.5455H224.079ZM243.229 44.2727C243.229 46.2159 242.852 47.8551 242.096 49.1903C241.34 50.5199 240.32 51.5284 239.036 52.2159C237.752 52.8977 236.32 53.2386 234.741 53.2386C233.15 53.2386 231.712 52.8949 230.428 52.2074C229.15 51.5142 228.133 50.5028 227.377 49.1733C226.627 47.8381 226.252 46.2045 226.252 44.2727C226.252 42.3295 226.627 40.6932 227.377 39.3636C228.133 38.0284 229.15 37.0199 230.428 36.3381C231.712 35.6506 233.15 35.3068 234.741 35.3068C236.32 35.3068 237.752 35.6506 239.036 36.3381C240.32 37.0199 241.34 38.0284 242.096 39.3636C242.852 40.6932 243.229 42.3295 243.229 44.2727ZM238.354 44.2727C238.354 43.2273 238.215 42.3466 237.937 41.6307C237.664 40.9091 237.258 40.3636 236.718 39.9943C236.184 39.6193 235.525 39.4318 234.741 39.4318C233.957 39.4318 233.295 39.6193 232.755 39.9943C232.221 40.3636 231.815 40.9091 231.536 41.6307C231.263 42.3466 231.127 43.2273 231.127 44.2727C231.127 45.3182 231.263 46.2017 231.536 46.9233C231.815 47.6392 232.221 48.1847 232.755 48.5597C233.295 48.929 233.957 49.1136 234.741 49.1136C235.525 49.1136 236.184 48.929 236.718 48.5597C237.258 48.1847 237.664 47.6392 237.937 46.9233C238.215 46.2017 238.354 45.3182 238.354 44.2727ZM254.831 41C254.786 40.4318 254.572 39.9886 254.192 39.6705C253.817 39.3523 253.246 39.1932 252.479 39.1932C251.99 39.1932 251.589 39.2528 251.277 39.3722C250.97 39.4858 250.743 39.642 250.595 39.8409C250.447 40.0398 250.371 40.267 250.365 40.5227C250.354 40.733 250.391 40.9233 250.476 41.0938C250.567 41.2585 250.709 41.4091 250.902 41.5455C251.095 41.6761 251.342 41.7955 251.643 41.9034C251.945 42.0114 252.303 42.108 252.717 42.1932L254.149 42.5C255.115 42.7045 255.942 42.9744 256.629 43.3097C257.317 43.6449 257.879 44.0398 258.317 44.4943C258.754 44.9432 259.075 45.4489 259.28 46.0114C259.49 46.5739 259.598 47.1875 259.604 47.8523C259.598 49 259.311 49.9716 258.743 50.767C258.175 51.5625 257.362 52.1676 256.305 52.5824C255.254 52.9972 253.99 53.2045 252.513 53.2045C250.996 53.2045 249.672 52.9801 248.541 52.5312C247.416 52.0824 246.541 51.392 245.916 50.4602C245.297 49.5227 244.984 48.3239 244.979 46.8636H249.479C249.507 47.3977 249.641 47.8466 249.879 48.2102C250.118 48.5739 250.453 48.8494 250.885 49.0369C251.322 49.2244 251.842 49.3182 252.445 49.3182C252.95 49.3182 253.374 49.2557 253.714 49.1307C254.055 49.0057 254.314 48.8324 254.49 48.6108C254.666 48.3892 254.757 48.1364 254.763 47.8523C254.757 47.5852 254.669 47.3523 254.499 47.1534C254.334 46.9489 254.061 46.767 253.68 46.608C253.3 46.4432 252.786 46.2898 252.138 46.1477L250.399 45.7727C248.854 45.4375 247.635 44.8778 246.743 44.0938C245.857 43.304 245.416 42.2273 245.422 40.8636C245.416 39.7557 245.712 38.7869 246.308 37.9574C246.911 37.1222 247.743 36.4716 248.805 36.0057C249.874 35.5398 251.098 35.3068 252.479 35.3068C253.888 35.3068 255.107 35.5426 256.135 36.0142C257.163 36.4858 257.956 37.1506 258.513 38.0085C259.075 38.8608 259.359 39.858 259.365 41H254.831ZM261.406 53V35.5455H268.94C270.236 35.5455 271.369 35.8011 272.341 36.3125C273.313 36.8239 274.068 37.5426 274.608 38.4688C275.148 39.3949 275.418 40.4773 275.418 41.7159C275.418 42.9659 275.139 44.0483 274.582 44.9631C274.031 45.8778 273.256 46.5824 272.256 47.0767C271.261 47.571 270.099 47.8182 268.77 47.8182H264.27V44.1364H267.815C268.372 44.1364 268.847 44.0398 269.239 43.8466C269.636 43.6477 269.94 43.3665 270.151 43.0028C270.366 42.6392 270.474 42.2102 270.474 41.7159C270.474 41.2159 270.366 40.7898 270.151 40.4375C269.94 40.0795 269.636 39.8068 269.239 39.6193C268.847 39.4261 268.372 39.3295 267.815 39.3295H266.145V53H261.406ZM279.511 53H274.397L280.158 35.5455H286.636L292.397 53H287.283L283.465 40.3523H283.329L279.511 53ZM278.556 46.1136H288.17V49.6591H278.556V46.1136ZM294.078 53V35.5455H301.612C302.908 35.5455 304.041 35.7812 305.013 36.2528C305.984 36.7244 306.74 37.4034 307.28 38.2898C307.82 39.1761 308.089 40.2386 308.089 41.4773C308.089 42.7273 307.811 43.7812 307.254 44.6392C306.703 45.4972 305.928 46.1449 304.928 46.5824C303.933 47.0199 302.771 47.2386 301.442 47.2386H296.942V43.5568H300.487C301.044 43.5568 301.518 43.4886 301.911 43.3523C302.308 43.2102 302.612 42.9858 302.822 42.679C303.038 42.3722 303.146 41.9716 303.146 41.4773C303.146 40.9773 303.038 40.571 302.822 40.2585C302.612 39.9403 302.308 39.7074 301.911 39.5597C301.518 39.4062 301.044 39.3295 300.487 39.3295H298.817V53H294.078ZM304.305 44.9886L308.669 53H303.521L299.26 44.9886H304.305ZM315.189 35.5455L318.053 40.625H318.189L321.087 35.5455H326.371L321.155 44.2727L326.575 53H321.155L318.189 47.8182H318.053L315.087 53H309.7L315.053 44.2727L309.871 35.5455H315.189Z" fill="white"/>
<g opacity="0.21">
<path fill-rule="evenodd" clip-rule="evenodd" d="M1010 229.155L1039.88 13L1160.92 26.6428L1212.14 92.7188L1189.96 250.245L1010 229.155ZM1136.49 100.966L1149.77 39.7449L1053.83 30.0907L1026.65 215.314L1176 233.593L1194.04 108.709L1136.49 100.966ZM1069.62 182.594C1068.58 181.226 1059.36 173.503 1057.63 171.114C1082.17 143.776 1142.11 144.116 1158.76 180.283C1155.99 181.306 1143.6 186.668 1141.17 188.034C1134.23 167.851 1093.55 161.485 1069.62 182.594ZM1115.78 107.854L1105.66 115.467L1090.45 97.1459L1069.75 108.262L1061.39 94.28L1080.23 84.8272L1067.74 69.7887L1082.91 59.638L1095.02 77.399L1116.59 66.5725L1123.09 79.6222L1103.65 90.057L1115.78 107.854Z" fill="url(#paint5_linear_130_90)"/>
</g>
<g opacity="0.18">
<path d="M221.363 463.312C220.06 461.963 218.501 460.887 216.778 460.147C215.054 459.406 213.201 459.017 211.325 459.001C209.45 458.984 207.59 459.342 205.854 460.052C204.118 460.762 202.541 461.811 201.214 463.137C199.888 464.463 198.839 466.041 198.129 467.777C197.419 469.513 197.061 471.373 197.078 473.248C197.094 475.124 197.484 476.977 198.224 478.701C198.964 480.424 200.04 481.983 201.389 483.286L247.904 529.8L201.389 576.315C198.816 578.979 197.393 582.547 197.425 586.251C197.457 589.955 198.943 593.498 201.562 596.117C204.181 598.735 207.723 600.221 211.427 600.253C215.131 600.285 218.699 598.862 221.363 596.289L277.864 539.787C280.512 537.138 282 533.546 282 529.8C282 526.055 280.512 522.463 277.864 519.814L221.363 463.312ZM136.611 483.286C139.184 480.622 140.607 477.053 140.575 473.35C140.543 469.646 139.057 466.103 136.438 463.484C133.819 460.865 130.277 459.38 126.573 459.348C122.869 459.315 119.301 460.739 116.637 463.312L60.1357 519.814C57.4876 522.463 56 526.055 56 529.8C56 533.546 57.4876 537.138 60.1357 539.787L116.637 596.289C119.301 598.862 122.869 600.285 126.573 600.253C130.277 600.221 133.819 598.735 136.438 596.117C139.057 593.498 140.543 589.955 140.575 586.251C140.607 582.547 139.184 578.979 136.611 576.315L90.0956 529.8L136.611 483.286Z" fill="url(#paint6_linear_130_90)"/>
</g>
</g>
<defs>
<linearGradient id="paint0_linear_130_90" x1="-63.757" y1="-34.0071" x2="-63.757" y2="347.166" gradientUnits="userSpaceOnUse">
<stop stop-color="#FF9E0B"/>
<stop offset="1" stop-color="#EC4899"/>
</linearGradient>
<linearGradient id="paint1_linear_130_90" x1="1173" y1="695.827" x2="1173" y2="969.442" gradientUnits="userSpaceOnUse">
<stop stop-color="#FF9E0B"/>
<stop offset="1" stop-color="#F24E52"/>
</linearGradient>
<linearGradient id="paint2_linear_130_90" x1="882.5" y1="530" x2="882.5" y2="919" gradientUnits="userSpaceOnUse">
<stop stop-color="#FF9E0B"/>
<stop offset="1" stop-color="#9C67E7"/>
</linearGradient>
<linearGradient id="paint3_linear_130_90" x1="491" y1="30" x2="491" y2="162" gradientUnits="userSpaceOnUse">
<stop stop-color="#FF9E0B"/>
<stop offset="1" stop-color="#DA46EB"/>
</linearGradient>
<linearGradient id="paint4_linear_130_90" x1="600.5" y1="238" x2="600.5" y2="393" gradientUnits="userSpaceOnUse">
<stop stop-color="#FF9E0B"/>
<stop offset="0.49" stop-color="#F24E52"/>
</linearGradient>
<linearGradient id="paint5_linear_130_90" x1="1111.07" y1="13" x2="1111.07" y2="250.245" gradientUnits="userSpaceOnUse">
<stop stop-color="#FF9E0B"/>
<stop offset="1" stop-color="#9C67E7"/>
</linearGradient>
<linearGradient id="paint6_linear_130_90" x1="169" y1="459" x2="169" y2="600.254" gradientUnits="userSpaceOnUse">
<stop stop-color="#FF9E0B"/>
<stop offset="1" stop-color="#DA46EB"/>
</linearGradient>
<clipPath id="clip0_130_90">
<rect width="1200" height="630" fill="white"/>
</clipPath>
</defs>
</svg>
