<svg width="1200" height="630" viewBox="0 0 1200 630" fill="none" xmlns="http://www.w3.org/2000/svg">
<g clip-path="url(#clip0_148_177)">
<rect width="1200" height="630" fill="black"/>
<rect x="-427.809" y="-32.4841" width="729.486" height="376.173" transform="rotate(-19.4848 -427.809 -32.4841)" stroke="url(#paint0_linear_148_177)" stroke-width="5"/>
<rect x="883" y="695.827" width="580" height="273.616" transform="rotate(-35.26 883 695.827)" fill="url(#paint1_linear_148_177)"/>
<circle cx="882.5" cy="724.5" r="193" stroke="url(#paint2_linear_148_177)" stroke-width="3"/>
<path opacity="0.49" d="M415 58.3636C414.121 58.3636 413.367 58.0568 412.739 57.4432C412.117 56.822 411.811 56.0682 411.818 55.1818C411.811 54.3182 412.117 53.5795 412.739 52.9659C413.367 52.3523 414.121 52.0455 415 52.0455C415.833 52.0455 416.568 52.3523 417.205 52.9659C417.848 53.5795 418.174 54.3182 418.182 55.1818C418.174 55.7727 418.019 56.3106 417.716 56.7955C417.42 57.2727 417.034 57.6553 416.557 57.9432C416.08 58.2235 415.561 58.3636 415 58.3636ZM459.003 58.3636C458.124 58.3636 457.37 58.0568 456.741 57.4432C456.12 56.822 455.813 56.0682 455.821 55.1818C455.813 54.3182 456.12 53.5795 456.741 52.9659C457.37 52.3523 458.124 52.0455 459.003 52.0455C459.836 52.0455 460.571 52.3523 461.207 52.9659C461.851 53.5795 462.177 54.3182 462.184 55.1818C462.177 55.7727 462.021 56.3106 461.718 56.7955C461.423 57.2727 461.037 57.6553 460.559 57.9432C460.082 58.2235 459.563 58.3636 459.003 58.3636ZM503.005 58.3636C502.126 58.3636 501.372 58.0568 500.744 57.4432C500.122 56.822 499.816 56.0682 499.823 55.1818C499.816 54.3182 500.122 53.5795 500.744 52.9659C501.372 52.3523 502.126 52.0455 503.005 52.0455C503.838 52.0455 504.573 52.3523 505.21 52.9659C505.853 53.5795 506.179 54.3182 506.187 55.1818C506.179 55.7727 506.024 56.3106 505.721 56.7955C505.425 57.2727 505.039 57.6553 504.562 57.9432C504.085 58.2235 503.566 58.3636 503.005 58.3636ZM547.008 58.3636C546.129 58.3636 545.375 58.0568 544.746 57.4432C544.125 56.822 543.818 56.0682 543.826 55.1818C543.818 54.3182 544.125 53.5795 544.746 52.9659C545.375 52.3523 546.129 52.0455 547.008 52.0455C547.841 52.0455 548.576 52.3523 549.212 52.9659C549.856 53.5795 550.182 54.3182 550.189 55.1818C550.182 55.7727 550.026 56.3106 549.723 56.7955C549.428 57.2727 549.042 57.6553 548.564 57.9432C548.087 58.2235 547.568 58.3636 547.008 58.3636ZM415 91.3636C414.121 91.3636 413.367 91.0568 412.739 90.4432C412.117 89.822 411.811 89.0682 411.818 88.1818C411.811 87.3182 412.117 86.5795 412.739 85.9659C413.367 85.3523 414.121 85.0455 415 85.0455C415.833 85.0455 416.568 85.3523 417.205 85.9659C417.848 86.5795 418.174 87.3182 418.182 88.1818C418.174 88.7727 418.019 89.3106 417.716 89.7955C417.42 90.2727 417.034 90.6553 416.557 90.9432C416.08 91.2235 415.561 91.3636 415 91.3636ZM459.003 91.3636C458.124 91.3636 457.37 91.0568 456.741 90.4432C456.12 89.822 455.813 89.0682 455.821 88.1818C455.813 87.3182 456.12 86.5795 456.741 85.9659C457.37 85.3523 458.124 85.0455 459.003 85.0455C459.836 85.0455 460.571 85.3523 461.207 85.9659C461.851 86.5795 462.177 87.3182 462.184 88.1818C462.177 88.7727 462.021 89.3106 461.718 89.7955C461.423 90.2727 461.037 90.6553 460.559 90.9432C460.082 91.2235 459.563 91.3636 459.003 91.3636ZM503.005 91.3636C502.126 91.3636 501.372 91.0568 500.744 90.4432C500.122 89.822 499.816 89.0682 499.823 88.1818C499.816 87.3182 500.122 86.5795 500.744 85.9659C501.372 85.3523 502.126 85.0455 503.005 85.0455C503.838 85.0455 504.573 85.3523 505.21 85.9659C505.853 86.5795 506.179 87.3182 506.187 88.1818C506.179 88.7727 506.024 89.3106 505.721 89.7955C505.425 90.2727 505.039 90.6553 504.562 90.9432C504.085 91.2235 503.566 91.3636 503.005 91.3636ZM547.008 91.3636C546.129 91.3636 545.375 91.0568 544.746 90.4432C544.125 89.822 543.818 89.0682 543.826 88.1818C543.818 87.3182 544.125 86.5795 544.746 85.9659C545.375 85.3523 546.129 85.0455 547.008 85.0455C547.841 85.0455 548.576 85.3523 549.212 85.9659C549.856 86.5795 550.182 87.3182 550.189 88.1818C550.182 88.7727 550.026 89.3106 549.723 89.7955C549.428 90.2727 549.042 90.6553 548.564 90.9432C548.087 91.2235 547.568 91.3636 547.008 91.3636ZM415 124.364C414.121 124.364 413.367 124.057 412.739 123.443C412.117 122.822 411.811 122.068 411.818 121.182C411.811 120.318 412.117 119.58 412.739 118.966C413.367 118.352 414.121 118.045 415 118.045C415.833 118.045 416.568 118.352 417.205 118.966C417.848 119.58 418.174 120.318 418.182 121.182C418.174 121.773 418.019 122.311 417.716 122.795C417.42 123.273 417.034 123.655 416.557 123.943C416.08 124.223 415.561 124.364 415 124.364ZM459.003 124.364C458.124 124.364 457.37 124.057 456.741 123.443C456.12 122.822 455.813 122.068 455.821 121.182C455.813 120.318 456.12 119.58 456.741 118.966C457.37 118.352 458.124 118.045 459.003 118.045C459.836 118.045 460.571 118.352 461.207 118.966C461.851 119.58 462.177 120.318 462.184 121.182C462.177 121.773 462.021 122.311 461.718 122.795C461.423 123.273 461.037 123.655 460.559 123.943C460.082 124.223 459.563 124.364 459.003 124.364ZM503.005 124.364C502.126 124.364 501.372 124.057 500.744 123.443C500.122 122.822 499.816 122.068 499.823 121.182C499.816 120.318 500.122 119.58 500.744 118.966C501.372 118.352 502.126 118.045 503.005 118.045C503.838 118.045 504.573 118.352 505.21 118.966C505.853 119.58 506.179 120.318 506.187 121.182C506.179 121.773 506.024 122.311 505.721 122.795C505.425 123.273 505.039 123.655 504.562 123.943C504.085 124.223 503.566 124.364 503.005 124.364ZM547.008 124.364C546.129 124.364 545.375 124.057 544.746 123.443C544.125 122.822 543.818 122.068 543.826 121.182C543.818 120.318 544.125 119.58 544.746 118.966C545.375 118.352 546.129 118.045 547.008 118.045C547.841 118.045 548.576 118.352 549.212 118.966C549.856 119.58 550.182 120.318 550.189 121.182C550.182 121.773 550.026 122.311 549.723 122.795C549.428 123.273 549.042 123.655 548.564 123.943C548.087 124.223 547.568 124.364 547.008 124.364ZM415 157.364C414.121 157.364 413.367 157.057 412.739 156.443C412.117 155.822 411.811 155.068 411.818 154.182C411.811 153.318 412.117 152.58 412.739 151.966C413.367 151.352 414.121 151.045 415 151.045C415.833 151.045 416.568 151.352 417.205 151.966C417.848 152.58 418.174 153.318 418.182 154.182C418.174 154.773 418.019 155.311 417.716 155.795C417.42 156.273 417.034 156.655 416.557 156.943C416.08 157.223 415.561 157.364 415 157.364ZM459.003 157.364C458.124 157.364 457.37 157.057 456.741 156.443C456.12 155.822 455.813 155.068 455.821 154.182C455.813 153.318 456.12 152.58 456.741 151.966C457.37 151.352 458.124 151.045 459.003 151.045C459.836 151.045 460.571 151.352 461.207 151.966C461.851 152.58 462.177 153.318 462.184 154.182C462.177 154.773 462.021 155.311 461.718 155.795C461.423 156.273 461.037 156.655 460.559 156.943C460.082 157.223 459.563 157.364 459.003 157.364ZM503.005 157.364C502.126 157.364 501.372 157.057 500.744 156.443C500.122 155.822 499.816 155.068 499.823 154.182C499.816 153.318 500.122 152.58 500.744 151.966C501.372 151.352 502.126 151.045 503.005 151.045C503.838 151.045 504.573 151.352 505.21 151.966C505.853 152.58 506.179 153.318 506.187 154.182C506.179 154.773 506.024 155.311 505.721 155.795C505.425 156.273 505.039 156.655 504.562 156.943C504.085 157.223 503.566 157.364 503.005 157.364ZM547.008 157.364C546.129 157.364 545.375 157.057 544.746 156.443C544.125 155.822 543.818 155.068 543.826 154.182C543.818 153.318 544.125 152.58 544.746 151.966C545.375 151.352 546.129 151.045 547.008 151.045C547.841 151.045 548.576 151.352 549.212 151.966C549.856 152.58 550.182 153.318 550.189 154.182C550.182 154.773 550.026 155.311 549.723 155.795C549.428 156.273 549.042 156.655 548.564 156.943C548.087 157.223 547.568 157.364 547.008 157.364Z" fill="url(#paint3_linear_148_177)"/>
<mask id="path-5-outside-1_148_177" maskUnits="userSpaceOnUse" x="232" y="257" width="746" height="112" fill="black">
<rect fill="white" x="232" y="257" width="746" height="112"/>
<path d="M324.909 303.818H299.273C299.091 301.697 298.606 299.773 297.818 298.045C297.061 296.318 296 294.833 294.636 293.591C293.303 292.318 291.682 291.348 289.773 290.682C287.864 289.985 285.697 289.636 283.273 289.636C279.03 289.636 275.439 290.667 272.5 292.727C269.591 294.788 267.379 297.742 265.864 301.591C264.379 305.439 263.636 310.061 263.636 315.455C263.636 321.152 264.394 325.924 265.909 329.773C267.455 333.591 269.682 336.47 272.591 338.409C275.5 340.318 279 341.273 283.091 341.273C285.424 341.273 287.515 340.985 289.364 340.409C291.212 339.803 292.818 338.939 294.182 337.818C295.545 336.697 296.652 335.348 297.5 333.773C298.379 332.167 298.97 330.364 299.273 328.364L324.909 328.545C324.606 332.485 323.5 336.5 321.591 340.591C319.682 344.652 316.97 348.409 313.455 351.864C309.97 355.288 305.652 358.045 300.5 360.136C295.348 362.227 289.364 363.273 282.545 363.273C274 363.273 266.333 361.439 259.545 357.773C252.788 354.106 247.439 348.712 243.5 341.591C239.591 334.47 237.636 325.758 237.636 315.455C237.636 305.091 239.636 296.364 243.636 289.273C247.636 282.152 253.03 276.773 259.818 273.136C266.606 269.47 274.182 267.636 282.545 267.636C288.424 267.636 293.833 268.439 298.773 270.045C303.712 271.652 308.045 274 311.773 277.091C315.5 280.152 318.5 283.924 320.773 288.409C323.045 292.894 324.424 298.03 324.909 303.818ZM370.375 363.273C362.799 363.273 356.314 361.773 350.92 358.773C345.527 355.742 341.39 351.53 338.511 346.136C335.633 340.712 334.193 334.424 334.193 327.273C334.193 320.121 335.633 313.848 338.511 308.455C341.39 303.03 345.527 298.818 350.92 295.818C356.314 292.788 362.799 291.273 370.375 291.273C377.951 291.273 384.436 292.788 389.83 295.818C395.223 298.818 399.36 303.03 402.239 308.455C405.117 313.848 406.557 320.121 406.557 327.273C406.557 334.424 405.117 340.712 402.239 346.136C399.36 351.53 395.223 355.742 389.83 358.773C384.436 361.773 377.951 363.273 370.375 363.273ZM370.557 344.727C372.678 344.727 374.511 344.015 376.057 342.591C377.602 341.167 378.799 339.136 379.648 336.5C380.496 333.864 380.92 330.727 380.92 327.091C380.92 323.424 380.496 320.288 379.648 317.682C378.799 315.045 377.602 313.015 376.057 311.591C374.511 310.167 372.678 309.455 370.557 309.455C368.314 309.455 366.39 310.167 364.784 311.591C363.178 313.015 361.951 315.045 361.102 317.682C360.254 320.288 359.83 323.424 359.83 327.091C359.83 330.727 360.254 333.864 361.102 336.5C361.951 339.136 363.178 341.167 364.784 342.591C366.39 344.015 368.314 344.727 370.557 344.727ZM442.011 362.909C437.042 362.909 432.466 361.606 428.284 359C424.133 356.394 420.799 352.439 418.284 347.136C415.799 341.833 414.557 335.152 414.557 327.091C414.557 318.667 415.86 311.818 418.466 306.545C421.102 301.273 424.496 297.409 428.648 294.955C432.83 292.5 437.223 291.273 441.83 291.273C445.284 291.273 448.314 291.879 450.92 293.091C453.527 294.273 455.708 295.864 457.466 297.864C459.223 299.833 460.557 302 461.466 304.364H461.83V268.909H486.92V362H462.011V350.545H461.466C460.496 352.909 459.102 355.03 457.284 356.909C455.496 358.758 453.314 360.227 450.739 361.318C448.193 362.379 445.284 362.909 442.011 362.909ZM451.284 343.636C453.587 343.636 455.557 342.97 457.193 341.636C458.86 340.273 460.133 338.364 461.011 335.909C461.92 333.424 462.375 330.485 462.375 327.091C462.375 323.636 461.92 320.682 461.011 318.227C460.133 315.742 458.86 313.848 457.193 312.545C455.557 311.212 453.587 310.545 451.284 310.545C448.981 310.545 447.011 311.212 445.375 312.545C443.769 313.848 442.527 315.742 441.648 318.227C440.799 320.682 440.375 323.636 440.375 327.091C440.375 330.545 440.799 333.515 441.648 336C442.527 338.455 443.769 340.348 445.375 341.682C447.011 342.985 448.981 343.636 451.284 343.636ZM499.239 362V292.182H524.33V362H499.239ZM511.784 284.909C508.39 284.909 505.481 283.788 503.057 281.545C500.633 279.303 499.42 276.606 499.42 273.455C499.42 270.303 500.633 267.606 503.057 265.364C505.481 263.121 508.39 262 511.784 262C515.208 262 518.117 263.121 520.511 265.364C522.936 267.606 524.148 270.303 524.148 273.455C524.148 276.606 522.936 279.303 520.511 281.545C518.117 283.788 515.208 284.909 511.784 284.909ZM562.205 322.727V362H537.114V292.182H560.932V305.455H561.659C563.174 301.03 565.841 297.561 569.659 295.045C573.508 292.53 577.992 291.273 583.114 291.273C588.053 291.273 592.341 292.409 595.977 294.682C599.644 296.924 602.477 300.015 604.477 303.955C606.508 307.894 607.508 312.394 607.477 317.455V362H582.386V322.727C582.417 319.273 581.538 316.561 579.75 314.591C577.992 312.621 575.538 311.636 572.386 311.636C570.326 311.636 568.523 312.091 566.977 313C565.462 313.879 564.295 315.152 563.477 316.818C562.659 318.455 562.235 320.424 562.205 322.727ZM634.409 268.909V306.545H618.045V268.909H634.409ZM706.443 362H670.625V268.909H706.08C715.655 268.909 723.928 270.773 730.898 274.5C737.898 278.197 743.292 283.53 747.08 290.5C750.898 297.439 752.807 305.758 752.807 315.455C752.807 325.152 750.913 333.485 747.125 340.455C743.337 347.394 737.973 352.727 731.034 356.455C724.095 360.152 715.898 362 706.443 362ZM695.898 340.545H705.534C710.14 340.545 714.064 339.803 717.307 338.318C720.58 336.833 723.064 334.273 724.761 330.636C726.489 327 727.352 321.939 727.352 315.455C727.352 308.97 726.473 303.909 724.716 300.273C722.989 296.636 720.443 294.076 717.08 292.591C713.746 291.106 709.655 290.364 704.807 290.364H695.898V340.545ZM784.318 363.091C779.864 363.091 775.924 362.364 772.5 360.909C769.106 359.424 766.439 357.182 764.5 354.182C762.561 351.182 761.591 347.364 761.591 342.727C761.591 338.909 762.242 335.652 763.545 332.955C764.848 330.227 766.667 328 769 326.273C771.333 324.545 774.045 323.227 777.136 322.318C780.258 321.409 783.621 320.818 787.227 320.545C791.136 320.242 794.273 319.879 796.636 319.455C799.03 319 800.758 318.379 801.818 317.591C802.879 316.773 803.409 315.697 803.409 314.364V314.182C803.409 312.364 802.712 310.97 801.318 310C799.924 309.03 798.136 308.545 795.955 308.545C793.561 308.545 791.606 309.076 790.091 310.136C788.606 311.167 787.712 312.758 787.409 314.909H764.318C764.621 310.667 765.97 306.758 768.364 303.182C770.788 299.576 774.318 296.697 778.955 294.545C783.591 292.364 789.379 291.273 796.318 291.273C801.318 291.273 805.803 291.864 809.773 293.045C813.742 294.197 817.121 295.818 819.909 297.909C822.697 299.97 824.818 302.394 826.273 305.182C827.758 307.939 828.5 310.939 828.5 314.182V362H805.045V352.182H804.5C803.106 354.788 801.409 356.894 799.409 358.5C797.439 360.106 795.182 361.273 792.636 362C790.121 362.727 787.348 363.091 784.318 363.091ZM792.5 347.273C794.409 347.273 796.197 346.879 797.864 346.091C799.561 345.303 800.939 344.167 802 342.682C803.061 341.197 803.591 339.394 803.591 337.273V331.455C802.924 331.727 802.212 331.985 801.455 332.227C800.727 332.47 799.939 332.697 799.091 332.909C798.273 333.121 797.394 333.318 796.455 333.5C795.545 333.682 794.591 333.848 793.591 334C791.652 334.303 790.061 334.803 788.818 335.5C787.606 336.167 786.697 337 786.091 338C785.515 338.97 785.227 340.061 785.227 341.273C785.227 343.212 785.909 344.697 787.273 345.727C788.636 346.758 790.379 347.273 792.5 347.273ZM840.489 362V292.182H864.852V305.455H865.58C866.852 300.545 868.867 296.955 871.625 294.682C874.413 292.409 877.67 291.273 881.398 291.273C882.489 291.273 883.564 291.364 884.625 291.545C885.716 291.697 886.761 291.924 887.761 292.227V313.636C886.519 313.212 884.989 312.894 883.17 312.682C881.352 312.47 879.792 312.364 878.489 312.364C876.034 312.364 873.822 312.924 871.852 314.045C869.913 315.136 868.383 316.682 867.261 318.682C866.14 320.652 865.58 322.97 865.58 325.636V362H840.489ZM918.534 345.455L918.716 315.636H921.989L938.898 292.182H967.08L938.716 328.727H931.625L918.534 345.455ZM895.989 362V268.909H921.08V362H895.989ZM939.08 362L923.08 334.364L939.443 316.545L967.807 362H939.08Z"/>
</mask>
<path d="M324.909 303.818V308.818H330.345L329.892 303.401L324.909 303.818ZM299.273 303.818L294.291 304.245L294.683 308.818H299.273V303.818ZM297.818 298.045L293.239 300.054L293.254 300.087L293.269 300.12L297.818 298.045ZM294.636 293.591L291.184 297.208L291.226 297.248L291.269 297.287L294.636 293.591ZM289.773 290.682L288.058 295.379L288.091 295.391L288.124 295.402L289.773 290.682ZM272.5 292.727L269.63 288.633L269.62 288.64L269.61 288.647L272.5 292.727ZM265.864 301.591L261.211 299.759L261.205 299.775L261.199 299.791L265.864 301.591ZM265.909 329.773L261.257 331.604L261.265 331.627L261.274 331.649L265.909 329.773ZM272.591 338.409L269.817 342.569L269.832 342.579L269.848 342.589L272.591 338.409ZM289.364 340.409L290.851 345.183L290.886 345.172L290.921 345.16L289.364 340.409ZM294.182 337.818L297.357 341.68L297.357 341.68L294.182 337.818ZM297.5 333.773L293.114 331.373L293.106 331.387L293.098 331.402L297.5 333.773ZM299.273 328.364L299.308 323.364L294.978 323.333L294.329 327.615L299.273 328.364ZM324.909 328.545L329.894 328.929L330.306 323.584L324.945 323.546L324.909 328.545ZM321.591 340.591L326.116 342.718L326.119 342.712L326.122 342.705L321.591 340.591ZM313.455 351.864L316.959 355.43L316.959 355.43L313.455 351.864ZM300.5 360.136L298.62 355.503L300.5 360.136ZM259.545 357.773L257.161 362.167L257.169 362.172L259.545 357.773ZM243.5 341.591L239.117 343.997L239.121 344.004L239.125 344.011L243.5 341.591ZM243.636 289.273L247.991 291.729L247.996 291.721L243.636 289.273ZM259.818 273.136L262.179 277.544L262.187 277.54L262.195 277.536L259.818 273.136ZM298.773 270.045L300.319 265.29L300.319 265.29L298.773 270.045ZM311.773 277.091L308.581 280.94L308.59 280.947L308.6 280.955L311.773 277.091ZM320.773 288.409L316.313 290.669L316.313 290.669L320.773 288.409ZM324.909 298.818H299.273V308.818H324.909V298.818ZM304.254 303.391C304.03 300.769 303.42 298.277 302.367 295.97L293.269 300.12C293.793 301.268 294.152 302.625 294.291 304.245L304.254 303.391ZM302.397 296.037C301.365 293.683 299.897 291.62 298.004 289.895L291.269 297.287C292.103 298.047 292.756 298.953 293.239 300.054L302.397 296.037ZM298.089 289.974C296.191 288.163 293.937 286.84 291.421 285.961L288.124 295.402C289.426 295.857 290.415 296.473 291.184 297.208L298.089 289.974ZM291.487 285.985C288.934 285.053 286.172 284.636 283.273 284.636V294.636C285.222 294.636 286.793 294.917 288.058 295.379L291.487 285.985ZM283.273 284.636C278.195 284.636 273.554 285.882 269.63 288.633L275.37 296.821C277.324 295.452 279.866 294.636 283.273 294.636V284.636ZM269.61 288.647C265.786 291.355 263.024 295.154 261.211 299.759L270.516 303.423C271.733 300.331 273.395 298.22 275.39 296.807L269.61 288.647ZM261.199 299.791C259.436 304.36 258.636 309.625 258.636 315.455H268.636C268.636 310.497 269.322 306.518 270.528 303.391L261.199 299.791ZM258.636 315.455C258.636 321.558 259.443 326.998 261.257 331.604L270.562 327.941C269.345 324.851 268.636 320.745 268.636 315.455H258.636ZM261.274 331.649C263.128 336.228 265.932 339.979 269.817 342.569L275.364 334.249C273.431 332.96 271.781 330.954 270.544 327.897L261.274 331.649ZM269.848 342.589C273.706 345.122 278.2 346.273 283.091 346.273V336.273C279.8 336.273 277.294 335.515 275.334 334.229L269.848 342.589ZM283.091 346.273C285.829 346.273 288.434 345.936 290.851 345.183L287.877 335.635C286.597 336.034 285.02 336.273 283.091 336.273V346.273ZM290.921 345.16C293.3 344.381 295.468 343.234 297.357 341.68L291.006 333.956C290.169 334.645 289.125 335.226 287.806 335.658L290.921 345.16ZM297.357 341.68C299.23 340.141 300.75 338.283 301.902 336.143L293.098 331.402C292.553 332.414 291.861 333.253 291.006 333.956L297.357 341.68ZM301.886 336.173C303.074 334.002 303.835 331.631 304.216 329.113L294.329 327.615C294.105 329.096 293.684 330.331 293.114 331.373L301.886 336.173ZM299.237 333.364L324.874 333.545L324.945 323.546L299.308 323.364L299.237 333.364ZM319.924 328.162C319.673 331.423 318.751 334.854 317.06 338.476L326.122 342.705C328.249 338.146 329.539 333.547 329.894 328.929L319.924 328.162ZM317.066 338.464C315.433 341.938 313.084 345.217 309.95 348.297L316.959 355.43C320.855 351.601 323.931 347.365 326.116 342.718L317.066 338.464ZM309.95 348.297C306.992 351.204 303.248 353.625 298.62 355.503L302.38 364.769C308.055 362.466 312.948 359.371 316.959 355.43L309.95 348.297ZM298.62 355.503C294.184 357.304 288.861 358.273 282.545 358.273V368.273C289.867 368.273 296.513 367.151 302.38 364.769L298.62 355.503ZM282.545 358.273C274.739 358.273 267.904 356.605 261.922 353.374L257.169 362.172C264.763 366.274 273.261 368.273 282.545 368.273V358.273ZM261.93 353.378C256.061 350.193 251.381 345.508 247.875 339.171L239.125 344.011C243.498 351.916 249.515 358.019 257.161 362.167L261.93 353.378ZM247.883 339.185C244.473 332.973 242.636 325.137 242.636 315.455H232.636C232.636 326.378 234.709 335.966 239.117 343.997L247.883 339.185ZM242.636 315.455C242.636 305.721 244.514 297.893 247.991 291.729L239.281 286.816C234.758 294.835 232.636 304.46 232.636 315.455H242.636ZM247.996 291.721C251.559 285.377 256.282 280.703 262.179 277.544L257.457 268.729C249.779 272.842 243.713 278.926 239.277 286.824L247.996 291.721ZM262.195 277.536C268.192 274.296 274.94 272.636 282.545 272.636V262.636C273.424 262.636 265.02 264.644 257.442 268.737L262.195 277.536ZM282.545 272.636C287.967 272.636 292.848 273.377 297.227 274.8L300.319 265.29C294.819 263.502 288.881 262.636 282.545 262.636V272.636ZM297.227 274.8C301.609 276.225 305.375 278.281 308.581 280.94L314.964 273.242C310.716 269.719 305.815 267.078 300.319 265.29L297.227 274.8ZM308.6 280.955C311.769 283.557 314.34 286.776 316.313 290.669L325.233 286.149C322.66 281.073 319.231 276.746 314.946 273.227L308.6 280.955ZM316.313 290.669C318.253 294.497 319.487 298.991 319.927 304.236L329.892 303.401C329.361 297.069 327.838 291.291 325.233 286.149L316.313 290.669ZM350.92 358.773L348.471 363.132L348.481 363.137L348.49 363.142L350.92 358.773ZM338.511 346.136L334.095 348.48L334.1 348.491L338.511 346.136ZM338.511 308.455L342.922 310.809L342.928 310.799L338.511 308.455ZM350.92 295.818L353.351 300.188L353.36 300.183L353.369 300.177L350.92 295.818ZM389.83 295.818L387.381 300.177L387.39 300.183L387.399 300.188L389.83 295.818ZM402.239 308.455L397.822 310.799L397.828 310.809L402.239 308.455ZM402.239 346.136L406.65 348.491L406.655 348.48L402.239 346.136ZM389.83 358.773L392.26 363.142L392.269 363.137L392.279 363.132L389.83 358.773ZM376.057 342.591L379.445 346.268L379.445 346.268L376.057 342.591ZM379.648 336.5L384.407 338.032L384.407 338.032L379.648 336.5ZM379.648 317.682L374.888 319.214L374.891 319.222L374.893 319.23L379.648 317.682ZM376.057 311.591L379.445 307.914L379.445 307.914L376.057 311.591ZM361.102 317.682L365.857 319.23L365.859 319.222L365.862 319.214L361.102 317.682ZM361.102 336.5L365.862 334.968L365.862 334.968L361.102 336.5ZM370.375 358.273C363.458 358.273 357.85 356.906 353.351 354.403L348.49 363.142C354.779 366.64 362.14 368.273 370.375 368.273V358.273ZM353.369 354.414C348.797 351.845 345.346 348.324 342.922 343.782L334.1 348.491C337.434 354.737 342.256 359.64 348.471 363.132L353.369 354.414ZM342.928 343.792C340.491 339.201 339.193 333.742 339.193 327.273H329.193C329.193 335.107 330.774 342.224 334.095 348.48L342.928 343.792ZM339.193 327.273C339.193 320.803 340.491 315.364 342.922 310.809L334.1 306.1C330.774 312.333 329.193 319.44 329.193 327.273H339.193ZM342.928 310.799C345.352 306.232 348.796 302.721 353.351 300.188L348.49 291.449C342.257 294.915 337.429 299.829 334.095 306.111L342.928 310.799ZM353.369 300.177C357.865 297.652 363.466 296.273 370.375 296.273V286.273C362.133 286.273 354.764 287.924 348.471 291.459L353.369 300.177ZM370.375 296.273C377.284 296.273 382.885 297.652 387.381 300.177L392.279 291.459C385.986 287.924 378.617 286.273 370.375 286.273V296.273ZM387.399 300.188C391.954 302.721 395.398 306.232 397.822 310.799L406.655 306.111C403.321 299.829 398.493 294.915 392.26 291.449L387.399 300.188ZM397.828 310.809C400.259 315.364 401.557 320.803 401.557 327.273H411.557C411.557 319.44 409.976 312.333 406.65 306.1L397.828 310.809ZM401.557 327.273C401.557 333.742 400.259 339.201 397.822 343.792L406.655 348.48C409.976 342.224 411.557 335.107 411.557 327.273H401.557ZM397.828 343.782C395.404 348.324 391.953 351.845 387.381 354.414L392.279 363.132C398.494 359.64 403.316 354.737 406.65 348.491L397.828 343.782ZM387.399 354.403C382.9 356.906 377.292 358.273 370.375 358.273V368.273C378.61 368.273 385.971 366.64 392.26 363.142L387.399 354.403ZM370.557 349.727C373.921 349.727 376.967 348.552 379.445 346.268L372.668 338.914C372.056 339.479 371.435 339.727 370.557 339.727V349.727ZM379.445 346.268C381.795 344.102 383.376 341.237 384.407 338.032L374.888 334.968C374.223 337.036 373.409 338.232 372.668 338.914L379.445 346.268ZM384.407 338.032C385.456 334.773 385.92 331.094 385.92 327.091H375.92C375.92 330.36 375.536 332.954 374.888 334.968L384.407 338.032ZM385.92 327.091C385.92 323.065 385.458 319.376 384.402 316.134L374.893 319.23C375.535 321.199 375.92 323.784 375.92 327.091H385.92ZM384.407 316.15C383.376 312.945 381.795 310.08 379.445 307.914L372.668 315.268C373.409 315.95 374.223 317.146 374.888 319.214L384.407 316.15ZM379.445 307.914C376.967 305.63 373.921 304.455 370.557 304.455V314.455C371.435 314.455 372.056 314.703 372.668 315.268L379.445 307.914ZM370.557 304.455C367.152 304.455 364.031 305.576 361.467 307.85L368.102 315.332C368.749 314.758 369.477 314.455 370.557 314.455V304.455ZM361.467 307.85C359.023 310.017 357.387 312.904 356.343 316.15L365.862 319.214C366.514 317.187 367.333 316.013 368.102 315.332L361.467 307.85ZM356.348 316.134C355.292 319.376 354.83 323.065 354.83 327.091H364.83C364.83 323.784 365.215 321.199 365.857 319.23L356.348 316.134ZM354.83 327.091C354.83 331.094 355.294 334.773 356.343 338.032L365.862 334.968C365.214 332.954 364.83 330.36 364.83 327.091H354.83ZM356.343 338.032C357.387 341.278 359.023 344.165 361.467 346.332L368.102 338.85C367.333 338.168 366.514 336.995 365.862 334.968L356.343 338.032ZM361.467 346.332C364.031 348.606 367.152 349.727 370.557 349.727V339.727C369.477 339.727 368.749 339.424 368.102 338.85L361.467 346.332ZM428.284 359L425.626 363.235L425.633 363.239L425.64 363.243L428.284 359ZM418.284 347.136L413.756 349.258L413.761 349.268L413.766 349.279L418.284 347.136ZM418.466 306.545L413.994 304.309L413.989 304.32L413.984 304.33L418.466 306.545ZM428.648 294.955L426.117 290.642L426.11 290.646L426.103 290.651L428.648 294.955ZM450.92 293.091L448.812 297.625L448.834 297.635L448.855 297.645L450.92 293.091ZM457.466 297.864L453.71 301.164L453.723 301.178L453.735 301.193L457.466 297.864ZM461.466 304.364L456.799 306.159L458.032 309.364H461.466V304.364ZM461.83 304.364V309.364H466.83V304.364H461.83ZM461.83 268.909V263.909H456.83V268.909H461.83ZM486.92 268.909H491.92V263.909H486.92V268.909ZM486.92 362V367H491.92V362H486.92ZM462.011 362H457.011V367H462.011V362ZM462.011 350.545H467.011V345.545H462.011V350.545ZM461.466 350.545V345.545H458.113L456.84 348.648L461.466 350.545ZM457.284 356.909L453.691 353.432L453.69 353.433L457.284 356.909ZM450.739 361.318L452.662 365.934L452.675 365.928L452.689 365.922L450.739 361.318ZM457.193 341.636L460.352 345.513L460.359 345.506L457.193 341.636ZM461.011 335.909L456.316 334.191L456.31 334.207L456.304 334.224L461.011 335.909ZM461.011 318.227L456.297 319.894L456.31 319.929L456.323 319.964L461.011 318.227ZM457.193 312.545L454.035 316.422L454.074 316.453L454.114 316.484L457.193 312.545ZM445.375 312.545L448.525 316.428L448.533 316.422L445.375 312.545ZM441.648 318.227L436.934 316.56L436.928 316.577L436.922 316.594L441.648 318.227ZM441.648 336L436.916 337.616L436.928 337.651L436.94 337.685L441.648 336ZM445.375 341.682L442.181 345.529L442.22 345.561L442.26 345.593L445.375 341.682ZM442.011 357.909C437.968 357.909 434.31 356.864 430.929 354.757L425.64 363.243C430.622 366.348 436.115 367.909 442.011 367.909V357.909ZM430.942 354.765C427.744 352.758 424.99 349.608 422.802 344.994L413.766 349.279C416.608 355.271 420.521 360.03 425.626 363.235L430.942 354.765ZM422.812 345.015C420.732 340.577 419.557 334.678 419.557 327.091H409.557C409.557 335.625 410.866 343.09 413.756 349.258L422.812 345.015ZM419.557 327.091C419.557 319.126 420.797 313.113 422.948 308.761L413.984 304.33C410.922 310.524 409.557 318.208 409.557 327.091H419.557ZM422.938 308.782C425.24 304.177 428.036 301.125 431.192 299.259L426.103 290.651C420.956 293.694 416.964 298.369 413.994 304.309L422.938 308.782ZM431.179 299.267C434.635 297.238 438.161 296.273 441.83 296.273V286.273C436.286 286.273 431.024 287.762 426.117 290.642L431.179 299.267ZM441.83 296.273C444.7 296.273 446.986 296.775 448.812 297.625L453.029 288.557C449.643 286.982 445.868 286.273 441.83 286.273V296.273ZM448.855 297.645C450.864 298.556 452.455 299.736 453.71 301.164L461.222 294.563C458.962 291.991 456.189 289.99 452.985 288.537L448.855 297.645ZM453.735 301.193C455.108 302.731 456.116 304.382 456.799 306.159L466.133 302.569C464.998 299.618 463.339 296.936 461.197 294.535L453.735 301.193ZM461.466 309.364H461.83V299.364H461.466V309.364ZM466.83 304.364V268.909H456.83V304.364H466.83ZM461.83 273.909H486.92V263.909H461.83V273.909ZM481.92 268.909V362H491.92V268.909H481.92ZM486.92 357H462.011V367H486.92V357ZM467.011 362V350.545H457.011V362H467.011ZM462.011 345.545H461.466V355.545H462.011V345.545ZM456.84 348.648C456.117 350.41 455.078 351.998 453.691 353.432L460.877 360.386C463.126 358.062 464.875 355.408 466.092 352.443L456.84 348.648ZM453.69 353.433C452.409 354.758 450.801 355.862 448.789 356.714L452.689 365.922C455.828 364.593 458.584 362.757 460.878 360.385L453.69 353.433ZM448.816 356.703C446.982 357.467 444.745 357.909 442.011 357.909V367.909C445.823 367.909 449.404 367.291 452.662 365.934L448.816 356.703ZM451.284 348.636C454.626 348.636 457.74 347.641 460.352 345.513L454.035 337.76C453.374 338.299 452.548 338.636 451.284 338.636V348.636ZM460.359 345.506C462.863 343.457 464.599 340.723 465.719 337.594L456.304 334.224C455.667 336.004 454.856 337.088 454.027 337.767L460.359 345.506ZM465.707 337.627C466.865 334.461 467.375 330.913 467.375 327.091H457.375C457.375 330.057 456.976 332.388 456.316 334.191L465.707 337.627ZM467.375 327.091C467.375 323.222 466.869 319.647 465.7 316.491L456.323 319.964C456.972 321.716 457.375 324.05 457.375 327.091H467.375ZM465.725 316.56C464.607 313.398 462.854 310.625 460.273 308.606L454.114 316.484C454.865 317.072 455.658 318.087 456.297 319.894L465.725 316.56ZM460.352 308.669C457.74 306.541 454.626 305.545 451.284 305.545V315.545C452.548 315.545 453.374 315.883 454.035 316.422L460.352 308.669ZM451.284 305.545C447.942 305.545 444.828 306.541 442.217 308.669L448.533 316.422C449.194 315.883 450.02 315.545 451.284 315.545V305.545ZM442.225 308.663C439.732 310.685 438.037 313.442 436.934 316.56L446.362 319.894C447.016 318.043 447.806 317.012 448.525 316.428L442.225 308.663ZM436.922 316.594C435.843 319.715 435.375 323.253 435.375 327.091H445.375C445.375 324.02 445.755 321.649 446.373 319.861L436.922 316.594ZM435.375 327.091C435.375 330.932 435.844 334.476 436.916 337.616L446.379 334.384C445.755 332.554 445.375 330.159 445.375 327.091H435.375ZM436.94 337.685C438.047 340.775 439.734 343.497 442.181 345.529L448.569 337.835C447.804 337.2 447.006 336.134 446.355 334.315L436.94 337.685ZM442.26 345.593C444.872 347.673 447.971 348.636 451.284 348.636V338.636C449.991 338.636 449.15 338.297 448.49 337.77L442.26 345.593ZM499.239 362H494.239V367H499.239V362ZM499.239 292.182V287.182H494.239V292.182H499.239ZM524.33 292.182H529.33V287.182H524.33V292.182ZM524.33 362V367H529.33V362H524.33ZM503.057 281.545L499.662 285.216L499.662 285.216L503.057 281.545ZM503.057 265.364L499.662 261.693L499.662 261.693L503.057 265.364ZM520.511 265.364L517.093 269.013L517.105 269.023L517.116 269.034L520.511 265.364ZM520.511 281.545L517.116 277.875L517.105 277.886L517.093 277.896L520.511 281.545ZM504.239 362V292.182H494.239V362H504.239ZM499.239 297.182H524.33V287.182H499.239V297.182ZM519.33 292.182V362H529.33V292.182H519.33ZM524.33 357H499.239V367H524.33V357ZM511.784 279.909C509.61 279.909 507.924 279.237 506.452 277.875L499.662 285.216C503.038 288.339 507.17 289.909 511.784 289.909V279.909ZM506.452 277.875C504.996 276.528 504.42 275.139 504.42 273.455H494.42C494.42 278.073 496.269 282.078 499.662 285.216L506.452 277.875ZM504.42 273.455C504.42 271.77 504.996 270.381 506.452 269.034L499.662 261.693C496.269 264.831 494.42 268.836 494.42 273.455H504.42ZM506.452 269.034C507.924 267.672 509.61 267 511.784 267V257C507.17 257 503.038 258.57 499.662 261.693L506.452 269.034ZM511.784 267C514 267 515.67 267.679 517.093 269.013L523.93 261.715C520.565 258.563 516.416 257 511.784 257V267ZM517.116 269.034C518.573 270.381 519.148 271.77 519.148 273.455H529.148C529.148 268.836 527.299 264.831 523.907 261.693L517.116 269.034ZM519.148 273.455C519.148 275.139 518.573 276.528 517.116 277.875L523.907 285.216C527.299 282.078 529.148 278.073 529.148 273.455H519.148ZM517.093 277.896C515.67 279.23 514 279.909 511.784 279.909V289.909C516.416 289.909 520.565 288.346 523.93 285.195L517.093 277.896ZM562.205 322.727L557.205 322.661L557.205 322.694V322.727H562.205ZM562.205 362V367H567.205V362H562.205ZM537.114 362H532.114V367H537.114V362ZM537.114 292.182V287.182H532.114V292.182H537.114ZM560.932 292.182H565.932V287.182H560.932V292.182ZM560.932 305.455H555.932V310.455H560.932V305.455ZM561.659 305.455V310.455H565.232L566.389 307.075L561.659 305.455ZM569.659 295.045L566.924 290.86L566.916 290.865L566.909 290.87L569.659 295.045ZM595.977 294.682L593.327 298.922L593.348 298.935L593.369 298.947L595.977 294.682ZM604.477 303.955L600.019 306.218L600.026 306.232L600.033 306.245L604.477 303.955ZM607.477 317.455L602.477 317.425L602.477 317.44V317.455H607.477ZM607.477 362V367H612.477V362H607.477ZM582.386 362H577.386V367H582.386V362ZM582.386 322.727L577.387 322.683L577.386 322.705V322.727H582.386ZM579.75 314.591L576.019 317.92L576.033 317.936L576.048 317.951L579.75 314.591ZM566.977 313L569.486 317.325L569.499 317.317L569.512 317.31L566.977 313ZM563.477 316.818L567.949 319.054L567.958 319.038L567.966 319.022L563.477 316.818ZM557.205 322.727V362H567.205V322.727H557.205ZM562.205 357H537.114V367H562.205V357ZM542.114 362V292.182H532.114V362H542.114ZM537.114 297.182H560.932V287.182H537.114V297.182ZM555.932 292.182V305.455H565.932V292.182H555.932ZM560.932 310.455H561.659V300.455H560.932V310.455ZM566.389 307.075C567.555 303.672 569.539 301.112 572.41 299.221L566.909 290.87C562.143 294.009 558.794 298.389 556.929 303.835L566.389 307.075ZM572.394 299.231C575.339 297.307 578.849 296.273 583.114 296.273V286.273C577.135 286.273 571.676 287.754 566.924 290.86L572.394 299.231ZM583.114 296.273C587.261 296.273 590.6 297.218 593.327 298.922L598.627 290.442C594.081 287.601 588.845 286.273 583.114 286.273V296.273ZM593.369 298.947C596.222 300.693 598.426 303.08 600.019 306.218L608.936 301.691C606.529 296.95 603.066 293.156 598.586 290.416L593.369 298.947ZM600.033 306.245C601.644 309.371 602.504 313.056 602.477 317.425L612.477 317.484C612.512 311.732 611.371 306.417 608.922 301.664L600.033 306.245ZM602.477 317.455V362H612.477V317.455H602.477ZM607.477 357H582.386V367H607.477V357ZM587.386 362V322.727H577.386V362H587.386ZM587.386 322.771C587.424 318.446 586.314 314.383 583.452 311.23L576.048 317.951C576.762 318.738 577.409 320.099 577.387 322.683L587.386 322.771ZM583.481 311.262C580.591 308.023 576.661 306.636 572.386 306.636V316.636C574.415 316.636 575.394 317.219 576.019 317.92L583.481 311.262ZM572.386 306.636C569.569 306.636 566.865 307.265 564.442 308.69L569.512 317.31C570.181 316.917 571.082 316.636 572.386 316.636V306.636ZM564.469 308.675C562.046 310.08 560.215 312.117 558.989 314.615L567.966 319.022C568.376 318.186 568.878 317.678 569.486 317.325L564.469 308.675ZM559.005 314.582C557.774 317.044 557.243 319.794 557.205 322.661L567.204 322.793C567.227 321.054 567.544 319.865 567.949 319.054L559.005 314.582ZM634.409 268.909H639.409V263.909H634.409V268.909ZM634.409 306.545V311.545H639.409V306.545H634.409ZM618.045 306.545H613.045V311.545H618.045V306.545ZM618.045 268.909V263.909H613.045V268.909H618.045ZM629.409 268.909V306.545H639.409V268.909H629.409ZM634.409 301.545H618.045V311.545H634.409V301.545ZM623.045 306.545V268.909H613.045V306.545H623.045ZM618.045 273.909H634.409V263.909H618.045V273.909ZM670.625 362H665.625V367H670.625V362ZM670.625 268.909V263.909H665.625V268.909H670.625ZM730.898 274.5L728.54 278.909L728.551 278.915L728.563 278.921L730.898 274.5ZM747.08 290.5L742.686 292.888L742.693 292.899L742.699 292.91L747.08 290.5ZM747.125 340.455L751.514 342.85L751.518 342.842L747.125 340.455ZM731.034 356.455L733.385 360.867L733.393 360.863L733.4 360.859L731.034 356.455ZM695.898 340.545H690.898V345.545H695.898V340.545ZM717.307 338.318L715.241 333.765L715.233 333.769L715.225 333.772L717.307 338.318ZM724.761 330.636L720.245 328.491L720.238 328.506L720.23 328.522L724.761 330.636ZM724.716 300.273L720.2 302.418L720.207 302.433L720.214 302.449L724.716 300.273ZM717.08 292.591L715.045 297.158L715.053 297.162L715.06 297.165L717.08 292.591ZM695.898 290.364V285.364H690.898V290.364H695.898ZM706.443 357H670.625V367H706.443V357ZM675.625 362V268.909H665.625V362H675.625ZM670.625 273.909H706.08V263.909H670.625V273.909ZM706.08 273.909C715.005 273.909 722.434 275.644 728.54 278.909L733.256 270.091C725.422 265.902 716.305 263.909 706.08 263.909V273.909ZM728.563 278.921C734.689 282.157 739.368 286.782 742.686 292.888L751.473 288.112C747.215 280.279 741.106 274.237 733.233 270.079L728.563 278.921ZM742.699 292.91C746.029 298.963 747.807 306.413 747.807 315.455H757.807C757.807 305.102 755.766 295.916 751.46 288.09L742.699 292.91ZM747.807 315.455C747.807 324.501 746.042 331.976 742.732 338.067L751.518 342.842C755.784 334.994 757.807 325.802 757.807 315.455H747.807ZM742.736 338.059C739.412 344.15 734.749 348.783 728.668 352.05L733.4 360.859C741.198 356.671 747.263 350.638 751.514 342.85L742.736 338.059ZM728.683 352.042C722.6 355.282 715.243 357 706.443 357V367C716.553 367 725.589 365.021 733.385 360.867L728.683 352.042ZM695.898 345.545H705.534V335.545H695.898V345.545ZM705.534 345.545C710.657 345.545 715.332 344.722 719.389 342.864L715.225 333.772C712.797 334.884 709.623 335.545 705.534 335.545V345.545ZM719.373 342.871C723.86 340.836 727.154 337.333 729.292 332.751L720.23 328.522C718.975 331.212 717.299 332.831 715.241 333.765L719.373 342.871ZM729.278 332.782C731.46 328.188 732.352 322.279 732.352 315.455H722.352C722.352 321.599 721.517 325.812 720.245 328.491L729.278 332.782ZM732.352 315.455C732.352 308.622 731.443 302.701 729.218 298.097L720.214 302.449C721.504 305.117 722.352 309.318 722.352 315.455H732.352ZM729.232 298.127C727.043 293.519 723.666 290.033 719.099 288.017L715.06 297.165C717.22 298.119 718.934 299.754 720.2 302.418L729.232 298.127ZM719.114 288.024C714.967 286.176 710.137 285.364 704.807 285.364V295.364C709.173 295.364 712.526 296.036 715.045 297.158L719.114 288.024ZM704.807 285.364H695.898V295.364H704.807V285.364ZM690.898 290.364V340.545H700.898V290.364H690.898ZM772.5 360.909L770.496 365.49L770.52 365.501L770.545 365.511L772.5 360.909ZM764.5 354.182L760.301 356.896L760.301 356.896L764.5 354.182ZM763.545 332.955L768.048 335.13L768.052 335.12L768.057 335.11L763.545 332.955ZM769 326.273L771.975 330.291L771.975 330.291L769 326.273ZM777.136 322.318L775.738 317.518L775.726 317.521L777.136 322.318ZM787.227 320.545L787.604 325.531L787.614 325.53L787.227 320.545ZM796.636 319.455L797.52 324.376L797.544 324.371L797.569 324.367L796.636 319.455ZM801.818 317.591L804.8 321.605L804.836 321.578L804.872 321.55L801.818 317.591ZM801.318 310L798.463 314.105L798.463 314.105L801.318 310ZM790.091 310.136L792.941 314.244L792.95 314.238L792.958 314.233L790.091 310.136ZM787.409 314.909V319.909H791.754L792.36 315.606L787.409 314.909ZM764.318 314.909L759.331 314.553L758.948 319.909H764.318V314.909ZM768.364 303.182L764.214 300.392L764.209 300.4L768.364 303.182ZM778.955 294.545L781.059 299.081L781.071 299.075L781.084 299.07L778.955 294.545ZM809.773 293.045L808.346 297.838L808.363 297.843L808.38 297.848L809.773 293.045ZM819.909 297.909L816.909 301.909L816.923 301.92L816.937 301.93L819.909 297.909ZM826.273 305.182L821.84 307.495L821.855 307.524L821.87 307.552L826.273 305.182ZM828.5 362V367H833.5V362H828.5ZM805.045 362H800.045V367H805.045V362ZM805.045 352.182H810.045V347.182H805.045V352.182ZM804.5 352.182V347.182H801.504L800.091 349.824L804.5 352.182ZM799.409 358.5L796.278 354.601L796.264 354.613L796.249 354.625L799.409 358.5ZM792.636 362L791.263 357.192L791.255 357.195L791.247 357.197L792.636 362ZM797.864 346.091L795.758 341.556L795.742 341.563L795.727 341.571L797.864 346.091ZM802 342.682L797.931 339.776L797.931 339.776L802 342.682ZM803.591 331.455H808.591V324.007L801.698 326.827L803.591 331.455ZM801.455 332.227L799.931 327.465L799.902 327.474L799.873 327.484L801.455 332.227ZM799.091 332.909L797.878 328.058L797.857 328.064L797.836 328.069L799.091 332.909ZM796.455 333.5L795.504 328.591L795.489 328.594L795.474 328.597L796.455 333.5ZM793.591 334L792.842 329.056L792.83 329.058L792.819 329.06L793.591 334ZM788.818 335.5L791.228 339.881L791.246 339.871L791.264 339.861L788.818 335.5ZM786.091 338L781.815 335.408L781.803 335.428L781.792 335.447L786.091 338ZM787.273 345.727L790.287 341.738L790.287 341.738L787.273 345.727ZM784.318 358.091C780.405 358.091 777.151 357.453 774.455 356.307L770.545 365.511C774.697 367.275 779.322 368.091 784.318 368.091V358.091ZM774.504 356.328C771.974 355.221 770.085 353.612 768.699 351.467L760.301 356.896C762.794 360.752 766.238 363.627 770.496 365.49L774.504 356.328ZM768.699 351.467C767.417 349.485 766.591 346.683 766.591 342.727H756.591C756.591 348.044 757.704 352.879 760.301 356.896L768.699 351.467ZM766.591 342.727C766.591 339.462 767.149 336.988 768.048 335.13L759.043 330.779C757.335 334.315 756.591 338.356 756.591 342.727H766.591ZM768.057 335.11C769.023 333.089 770.326 331.512 771.975 330.291L766.025 322.254C763.008 324.488 760.674 327.366 759.034 330.799L768.057 335.11ZM771.975 330.291C773.788 328.95 775.958 327.877 778.547 327.115L775.726 317.521C772.133 318.578 768.879 320.141 766.025 322.254L771.975 330.291ZM778.535 327.119C781.288 326.317 784.306 325.781 787.604 325.531L786.85 315.56C782.936 315.856 779.227 316.501 775.738 317.518L778.535 327.119ZM787.614 325.53C791.6 325.222 794.922 324.842 797.52 324.376L795.753 314.533C793.624 314.915 790.673 315.263 786.841 315.56L787.614 325.53ZM797.569 324.367C800.181 323.871 802.815 323.079 804.8 321.605L798.837 313.577C798.837 313.577 798.781 313.618 798.642 313.688C798.505 313.758 798.307 313.845 798.035 313.943C797.484 314.141 796.721 314.349 795.704 314.542L797.569 324.367ZM804.872 321.55C807.153 319.79 808.409 317.255 808.409 314.364H798.409C798.409 314.364 798.409 314.32 798.427 314.24C798.444 314.159 798.476 314.062 798.527 313.96C798.577 313.857 798.634 313.774 798.686 313.713C798.736 313.653 798.769 313.629 798.764 313.632L804.872 321.55ZM808.409 314.364V314.182H798.409V314.364H808.409ZM808.409 314.182C808.409 310.863 807.019 307.875 804.174 305.895L798.463 314.105C798.509 314.137 798.51 314.144 798.488 314.12C798.478 314.108 798.465 314.092 798.451 314.071C798.437 314.051 798.425 314.03 798.414 314.009C798.404 313.988 798.397 313.971 798.394 313.961C798.39 313.95 798.39 313.949 798.392 313.958C798.396 313.977 798.409 314.047 798.409 314.182H808.409ZM804.174 305.895C801.731 304.197 798.867 303.545 795.955 303.545V313.545C797.406 313.545 798.117 313.864 798.463 314.105L804.174 305.895ZM795.955 303.545C792.835 303.545 789.796 304.24 787.224 306.04L792.958 314.233C793.416 313.912 794.286 313.545 795.955 313.545V303.545ZM787.241 306.028C784.382 308.012 782.913 310.983 782.458 314.212L792.36 315.606C792.511 314.533 792.83 314.321 792.941 314.244L787.241 306.028ZM787.409 309.909H764.318V319.909H787.409V309.909ZM769.305 315.265C769.546 311.901 770.602 308.826 772.518 305.963L764.209 300.4C761.337 304.689 759.697 309.433 759.331 314.553L769.305 315.265ZM772.513 305.971C774.344 303.248 777.103 300.917 781.059 299.081L776.85 290.01C771.533 292.477 767.232 295.904 764.214 300.392L772.513 305.971ZM781.084 299.07C784.862 297.292 789.868 296.273 796.318 296.273V286.273C788.89 286.273 782.32 287.436 776.826 290.021L781.084 299.07ZM796.318 296.273C800.932 296.273 804.924 296.819 808.346 297.838L811.199 288.253C806.683 286.909 801.705 286.273 796.318 286.273V296.273ZM808.38 297.848C811.875 298.861 814.685 300.241 816.909 301.909L822.909 293.909C819.558 291.396 815.61 289.532 811.166 288.243L808.38 297.848ZM816.937 301.93C819.178 303.586 820.771 305.446 821.84 307.495L830.706 302.869C828.865 299.342 826.216 296.353 822.881 293.888L816.937 301.93ZM821.87 307.552C822.949 309.555 823.5 311.737 823.5 314.182H833.5C833.5 310.142 832.566 306.324 830.675 302.811L821.87 307.552ZM823.5 314.182V362H833.5V314.182H823.5ZM828.5 357H805.045V367H828.5V357ZM810.045 362V352.182H800.045V362H810.045ZM805.045 347.182H804.5V357.182H805.045V347.182ZM800.091 349.824C798.967 351.925 797.679 353.477 796.278 354.601L802.54 362.399C805.139 360.311 807.245 357.651 808.909 354.54L800.091 349.824ZM796.249 354.625C794.828 355.784 793.183 356.644 791.263 357.192L794.01 366.808C797.18 365.902 800.051 364.428 802.569 362.375L796.249 354.625ZM791.247 357.197C789.248 357.775 786.951 358.091 784.318 358.091V368.091C787.746 368.091 790.994 367.68 794.025 366.803L791.247 357.197ZM792.5 352.273C795.121 352.273 797.642 351.726 800.001 350.611L795.727 341.571C794.752 342.031 793.697 342.273 792.5 342.273V352.273ZM799.969 350.626C802.43 349.484 804.492 347.795 806.069 345.588L797.931 339.776C797.386 340.539 796.692 341.122 795.758 341.556L799.969 350.626ZM806.069 345.588C807.829 343.123 808.591 340.261 808.591 337.273H798.591C798.591 338.527 798.292 339.271 797.931 339.776L806.069 345.588ZM808.591 337.273V331.455H798.591V337.273H808.591ZM801.698 326.827C801.164 327.045 800.576 327.259 799.931 327.465L802.978 336.989C803.848 336.711 804.684 336.409 805.484 336.082L801.698 326.827ZM799.873 327.484C799.283 327.681 798.619 327.873 797.878 328.058L800.304 337.76C801.259 337.521 802.172 337.259 803.036 336.971L799.873 327.484ZM797.836 328.069C797.131 328.252 796.355 328.427 795.504 328.591L797.405 338.409C798.433 338.21 799.415 337.99 800.346 337.749L797.836 328.069ZM795.474 328.597C794.648 328.762 793.771 328.916 792.842 329.056L794.34 338.944C795.411 338.781 796.443 338.601 797.435 338.403L795.474 328.597ZM792.819 329.06C790.498 329.423 788.289 330.064 786.372 331.139L791.264 339.861C791.832 339.542 792.805 339.183 794.363 338.94L792.819 329.06ZM786.409 331.119C784.57 332.13 782.952 333.532 781.815 335.408L790.367 340.592C790.442 340.468 790.643 340.203 791.228 339.881L786.409 331.119ZM781.792 335.447C780.723 337.247 780.227 339.232 780.227 341.273H790.227C790.227 340.889 790.307 340.692 790.39 340.553L781.792 335.447ZM780.227 341.273C780.227 344.538 781.464 347.605 784.259 349.717L790.287 341.738C790.249 341.71 790.246 341.701 790.257 341.715C790.269 341.73 790.279 341.746 790.282 341.754C790.293 341.777 790.227 341.655 790.227 341.273H780.227ZM784.259 349.717C786.682 351.547 789.558 352.273 792.5 352.273V342.273C791.2 342.273 790.591 341.968 790.287 341.738L784.259 349.717ZM840.489 362H835.489V367H840.489V362ZM840.489 292.182V287.182H835.489V292.182H840.489ZM864.852 292.182H869.852V287.182H864.852V292.182ZM864.852 305.455H859.852V310.455H864.852V305.455ZM865.58 305.455V310.455H869.449L870.42 306.709L865.58 305.455ZM871.625 294.682L868.466 290.806L868.455 290.815L868.445 290.823L871.625 294.682ZM884.625 291.545L883.78 296.474L883.858 296.487L883.937 296.498L884.625 291.545ZM887.761 292.227H892.761V288.518L889.211 287.442L887.761 292.227ZM887.761 313.636L886.146 318.368L892.761 320.627V313.636H887.761ZM883.17 312.682L883.75 307.716L883.75 307.716L883.17 312.682ZM871.852 314.045L874.304 318.403L874.315 318.397L874.326 318.391L871.852 314.045ZM867.261 318.682L871.607 321.155L871.615 321.141L871.623 321.127L867.261 318.682ZM865.58 362V367H870.58V362H865.58ZM845.489 362V292.182H835.489V362H845.489ZM840.489 297.182H864.852V287.182H840.489V297.182ZM859.852 292.182V305.455H869.852V292.182H859.852ZM864.852 310.455H865.58V300.455H864.852V310.455ZM870.42 306.709C871.535 302.407 873.139 299.913 874.805 298.54L868.445 290.823C864.596 293.996 862.17 298.683 860.74 304.2L870.42 306.709ZM874.784 298.557C876.645 297.04 878.776 296.273 881.398 296.273V286.273C876.565 286.273 872.18 287.778 868.466 290.806L874.784 298.557ZM881.398 296.273C882.209 296.273 883.002 296.34 883.78 296.474L885.47 286.617C884.126 286.387 882.768 286.273 881.398 286.273V296.273ZM883.937 296.498C884.784 296.616 885.574 296.789 886.311 297.012L889.211 287.442C887.949 287.06 886.648 286.778 885.313 286.593L883.937 296.498ZM882.761 292.227V313.636H892.761V292.227H882.761ZM889.377 308.905C887.696 308.331 885.794 307.954 883.75 307.716L882.591 317.648C884.183 317.834 885.342 318.094 886.146 318.368L889.377 308.905ZM883.75 307.716C881.81 307.489 880.045 307.364 878.489 307.364V317.364C879.538 317.364 880.895 317.45 882.591 317.648L883.75 307.716ZM878.489 307.364C875.241 307.364 872.164 308.115 869.379 309.7L874.326 318.391C875.48 317.734 876.827 317.364 878.489 317.364V307.364ZM869.401 309.688C866.636 311.243 864.456 313.461 862.9 316.237L871.623 321.127C872.309 319.902 873.19 319.03 874.304 318.403L869.401 309.688ZM862.916 316.208C861.295 319.055 860.58 322.256 860.58 325.636H870.58C870.58 323.683 870.985 322.248 871.607 321.155L862.916 316.208ZM860.58 325.636V362H870.58V325.636H860.58ZM865.58 357H840.489V367H865.58V357ZM918.534 345.455L913.534 345.424L913.445 360.07L922.472 348.536L918.534 345.455ZM918.716 315.636V310.636H913.746L913.716 315.606L918.716 315.636ZM921.989 315.636V320.636H924.548L926.045 318.56L921.989 315.636ZM938.898 292.182V287.182H936.338L934.842 289.258L938.898 292.182ZM967.08 292.182L971.029 295.247L977.289 287.182H967.08V292.182ZM938.716 328.727V333.727H941.165L942.666 331.793L938.716 328.727ZM931.625 328.727V323.727H929.189L927.687 325.646L931.625 328.727ZM895.989 362H890.989V367H895.989V362ZM895.989 268.909V263.909H890.989V268.909H895.989ZM921.08 268.909H926.08V263.909H921.08V268.909ZM921.08 362V367H926.08V362H921.08ZM939.08 362L934.752 364.505L936.197 367H939.08V362ZM923.08 334.364L919.397 330.982L916.911 333.688L918.752 336.869L923.08 334.364ZM939.443 316.545L943.685 313.899L940.206 308.323L935.761 313.163L939.443 316.545ZM967.807 362V367H976.82L972.049 359.353L967.807 362ZM923.534 345.485L923.716 315.667L913.716 315.606L913.534 345.424L923.534 345.485ZM918.716 320.636H921.989V310.636H918.716V320.636ZM926.045 318.56L942.954 295.106L934.842 289.258L917.933 312.712L926.045 318.56ZM938.898 297.182H967.08V287.182H938.898V297.182ZM963.13 289.116L934.766 325.662L942.666 331.793L971.029 295.247L963.13 289.116ZM938.716 323.727H931.625V333.727H938.716V323.727ZM927.687 325.646L914.597 342.373L922.472 348.536L935.563 331.809L927.687 325.646ZM900.989 362V268.909H890.989V362H900.989ZM895.989 273.909H921.08V263.909H895.989V273.909ZM916.08 268.909V362H926.08V268.909H916.08ZM921.08 357H895.989V367H921.08V357ZM943.407 359.495L927.407 331.858L918.752 336.869L934.752 364.505L943.407 359.495ZM926.762 337.746L943.126 319.927L935.761 313.163L919.397 330.982L926.762 337.746ZM935.201 319.192L963.565 364.647L972.049 359.353L943.685 313.899L935.201 319.192ZM967.807 357H939.08V367H967.807V357Z" fill="url(#paint4_linear_148_177)" mask="url(#path-5-outside-1_148_177)"/>
<path d="M63.5234 34.8515L56 54.625H64.0948L67.8088 43.9341L63.5234 34.8515Z" fill="white"/>
<path d="M74.4751 54.625L64.8566 34H72.7609L82.3794 54.625H74.4751Z" fill="white"/>
<path d="M79.1073 39.0143L76.917 34H84.5356L87.0116 39.0143H79.1073Z" fill="white"/>
<path d="M86.2498 54.625L79.4883 40.3389H87.4878L94.4398 54.625H86.2498Z" fill="white"/>
<path d="M90.882 39.0143L88.6916 34H101.643L104.024 39.0143H90.882Z" fill="white"/>
<path d="M100.405 54.625L93.8342 40.3389H101.643L108.5 54.625H100.405Z" fill="white"/>
<path d="M140.648 39.3636V35.5455H155.818V39.3636H150.568V53H145.898V39.3636H140.648ZM157.602 53V35.5455H170.181V39.3636H162.34V42.3636H169.533V46.1818H162.34V49.1818H170.147V53H157.602ZM188.827 42.0909H184.02C183.986 41.6932 183.895 41.3324 183.747 41.0085C183.605 40.6847 183.406 40.4062 183.151 40.1733C182.901 39.9347 182.597 39.7528 182.239 39.6278C181.881 39.4972 181.474 39.4318 181.02 39.4318C180.224 39.4318 179.551 39.625 179 40.0114C178.455 40.3977 178.04 40.9517 177.756 41.6733C177.477 42.3949 177.338 43.2614 177.338 44.2727C177.338 45.3409 177.48 46.2358 177.764 46.9574C178.054 47.6733 178.472 48.2131 179.017 48.5767C179.563 48.9347 180.219 49.1136 180.986 49.1136C181.423 49.1136 181.815 49.0597 182.162 48.9517C182.509 48.8381 182.81 48.6761 183.065 48.4659C183.321 48.2557 183.528 48.0028 183.688 47.7074C183.852 47.4062 183.963 47.0682 184.02 46.6932L188.827 46.7273C188.77 47.4659 188.563 48.2187 188.205 48.9858C187.847 49.7472 187.338 50.4517 186.679 51.0994C186.026 51.7415 185.216 52.2585 184.25 52.6506C183.284 53.0426 182.162 53.2386 180.884 53.2386C179.281 53.2386 177.844 52.8949 176.571 52.2074C175.304 51.5199 174.301 50.5085 173.562 49.1733C172.83 47.8381 172.463 46.2045 172.463 44.2727C172.463 42.3295 172.838 40.6932 173.588 39.3636C174.338 38.0284 175.349 37.0199 176.622 36.3381C177.895 35.6506 179.315 35.3068 180.884 35.3068C181.986 35.3068 183 35.4574 183.926 35.7585C184.852 36.0597 185.665 36.5 186.364 37.0795C187.063 37.6534 187.625 38.3608 188.051 39.2017C188.477 40.0426 188.736 41.0057 188.827 42.0909ZM190.977 53V35.5455H195.715V42.3636H201.988V35.5455H206.727V53H201.988V46.1818H195.715V53H190.977ZM224.079 35.5455V53H220.124L213.817 43.8295H213.715V53H208.977V35.5455H212.999L219.204 44.6818H219.34V35.5455H224.079ZM243.229 44.2727C243.229 46.2159 242.852 47.8551 242.096 49.1903C241.34 50.5199 240.32 51.5284 239.036 52.2159C237.752 52.8977 236.32 53.2386 234.741 53.2386C233.15 53.2386 231.712 52.8949 230.428 52.2074C229.15 51.5142 228.133 50.5028 227.377 49.1733C226.627 47.8381 226.252 46.2045 226.252 44.2727C226.252 42.3295 226.627 40.6932 227.377 39.3636C228.133 38.0284 229.15 37.0199 230.428 36.3381C231.712 35.6506 233.15 35.3068 234.741 35.3068C236.32 35.3068 237.752 35.6506 239.036 36.3381C240.32 37.0199 241.34 38.0284 242.096 39.3636C242.852 40.6932 243.229 42.3295 243.229 44.2727ZM238.354 44.2727C238.354 43.2273 238.215 42.3466 237.937 41.6307C237.664 40.9091 237.258 40.3636 236.718 39.9943C236.184 39.6193 235.525 39.4318 234.741 39.4318C233.957 39.4318 233.295 39.6193 232.755 39.9943C232.221 40.3636 231.815 40.9091 231.536 41.6307C231.263 42.3466 231.127 43.2273 231.127 44.2727C231.127 45.3182 231.263 46.2017 231.536 46.9233C231.815 47.6392 232.221 48.1847 232.755 48.5597C233.295 48.929 233.957 49.1136 234.741 49.1136C235.525 49.1136 236.184 48.929 236.718 48.5597C237.258 48.1847 237.664 47.6392 237.937 46.9233C238.215 46.2017 238.354 45.3182 238.354 44.2727ZM254.831 41C254.786 40.4318 254.572 39.9886 254.192 39.6705C253.817 39.3523 253.246 39.1932 252.479 39.1932C251.99 39.1932 251.589 39.2528 251.277 39.3722C250.97 39.4858 250.743 39.642 250.595 39.8409C250.447 40.0398 250.371 40.267 250.365 40.5227C250.354 40.733 250.391 40.9233 250.476 41.0938C250.567 41.2585 250.709 41.4091 250.902 41.5455C251.095 41.6761 251.342 41.7955 251.643 41.9034C251.945 42.0114 252.303 42.108 252.717 42.1932L254.149 42.5C255.115 42.7045 255.942 42.9744 256.629 43.3097C257.317 43.6449 257.879 44.0398 258.317 44.4943C258.754 44.9432 259.075 45.4489 259.28 46.0114C259.49 46.5739 259.598 47.1875 259.604 47.8523C259.598 49 259.311 49.9716 258.743 50.767C258.175 51.5625 257.362 52.1676 256.305 52.5824C255.254 52.9972 253.99 53.2045 252.513 53.2045C250.996 53.2045 249.672 52.9801 248.541 52.5312C247.416 52.0824 246.541 51.392 245.916 50.4602C245.297 49.5227 244.984 48.3239 244.979 46.8636H249.479C249.507 47.3977 249.641 47.8466 249.879 48.2102C250.118 48.5739 250.453 48.8494 250.885 49.0369C251.322 49.2244 251.842 49.3182 252.445 49.3182C252.95 49.3182 253.374 49.2557 253.714 49.1307C254.055 49.0057 254.314 48.8324 254.49 48.6108C254.666 48.3892 254.757 48.1364 254.763 47.8523C254.757 47.5852 254.669 47.3523 254.499 47.1534C254.334 46.9489 254.061 46.767 253.68 46.608C253.3 46.4432 252.786 46.2898 252.138 46.1477L250.399 45.7727C248.854 45.4375 247.635 44.8778 246.743 44.0938C245.857 43.304 245.416 42.2273 245.422 40.8636C245.416 39.7557 245.712 38.7869 246.308 37.9574C246.911 37.1222 247.743 36.4716 248.805 36.0057C249.874 35.5398 251.098 35.3068 252.479 35.3068C253.888 35.3068 255.107 35.5426 256.135 36.0142C257.163 36.4858 257.956 37.1506 258.513 38.0085C259.075 38.8608 259.359 39.858 259.365 41H254.831ZM261.406 53V35.5455H268.94C270.236 35.5455 271.369 35.8011 272.341 36.3125C273.313 36.8239 274.068 37.5426 274.608 38.4688C275.148 39.3949 275.418 40.4773 275.418 41.7159C275.418 42.9659 275.139 44.0483 274.582 44.9631C274.031 45.8778 273.256 46.5824 272.256 47.0767C271.261 47.571 270.099 47.8182 268.77 47.8182H264.27V44.1364H267.815C268.372 44.1364 268.847 44.0398 269.239 43.8466C269.636 43.6477 269.94 43.3665 270.151 43.0028C270.366 42.6392 270.474 42.2102 270.474 41.7159C270.474 41.2159 270.366 40.7898 270.151 40.4375C269.94 40.0795 269.636 39.8068 269.239 39.6193C268.847 39.4261 268.372 39.3295 267.815 39.3295H266.145V53H261.406ZM279.511 53H274.397L280.158 35.5455H286.636L292.397 53H287.283L283.465 40.3523H283.329L279.511 53ZM278.556 46.1136H288.17V49.6591H278.556V46.1136ZM294.078 53V35.5455H301.612C302.908 35.5455 304.041 35.7812 305.013 36.2528C305.984 36.7244 306.74 37.4034 307.28 38.2898C307.82 39.1761 308.089 40.2386 308.089 41.4773C308.089 42.7273 307.811 43.7812 307.254 44.6392C306.703 45.4972 305.928 46.1449 304.928 46.5824C303.933 47.0199 302.771 47.2386 301.442 47.2386H296.942V43.5568H300.487C301.044 43.5568 301.518 43.4886 301.911 43.3523C302.308 43.2102 302.612 42.9858 302.822 42.679C303.038 42.3722 303.146 41.9716 303.146 41.4773C303.146 40.9773 303.038 40.571 302.822 40.2585C302.612 39.9403 302.308 39.7074 301.911 39.5597C301.518 39.4062 301.044 39.3295 300.487 39.3295H298.817V53H294.078ZM304.305 44.9886L308.669 53H303.521L299.26 44.9886H304.305ZM315.189 35.5455L318.053 40.625H318.189L321.087 35.5455H326.371L321.155 44.2727L326.575 53H321.155L318.189 47.8182H318.053L315.087 53H309.7L315.053 44.2727L309.871 35.5455H315.189Z" fill="white"/>
<g opacity="0.38">
<path d="M1164.68 120.443C1152.24 105.036 1106.01 54.6663 1038.46 54.6663C1021.22 54.6129 1004.13 57.8302 988.09 64.1476L953.72 30.3703C951.438 28.6586 948.615 27.8276 945.769 28.0298C942.924 28.2321 940.246 29.454 938.229 31.4713C936.212 33.4886 934.99 36.1658 934.788 39.0115C934.585 41.8572 935.416 44.6804 937.128 46.9627L1123.2 233.034C1124.22 234.392 1125.52 235.516 1127.01 236.329C1128.5 237.141 1130.15 237.624 1131.84 237.745C1133.53 237.865 1135.23 237.62 1136.82 237.026C1138.42 236.433 1139.86 235.504 1141.06 234.303C1142.26 233.103 1143.19 231.658 1143.78 230.067C1144.38 228.476 1144.62 226.776 1144.5 225.083C1144.38 223.389 1143.9 221.741 1143.09 220.25C1142.27 218.759 1141.15 217.46 1139.79 216.442L1111.94 187.998C1132.13 176.344 1150.01 161.078 1164.68 142.961C1167.28 139.785 1168.7 135.807 1168.7 131.702C1168.7 127.598 1167.28 123.619 1164.68 120.443ZM1094.16 170.813L1070.46 147.109C1072.83 142.32 1074.04 137.044 1074.01 131.702C1074.01 122.272 1070.27 113.229 1063.6 106.561C1056.93 99.8931 1047.89 96.1471 1038.46 96.1471C1033.12 96.1187 1027.84 97.3361 1023.05 99.7026L1006.46 83.1103C1016.84 80.0061 1027.62 78.4095 1038.46 78.3696C1090.61 78.3696 1129.13 115.11 1143.35 131.702C1129.43 147.584 1112.77 160.832 1094.16 170.813Z" fill="url(#paint5_linear_148_177)"/>
<path d="M957.869 93.7768C955.587 92.0651 952.763 91.2341 949.918 91.4363C947.072 91.6386 944.395 92.8605 942.378 94.8778C940.36 96.8951 939.138 99.5723 938.936 102.418C938.734 105.264 939.565 108.087 941.277 110.369L1030.16 199.257C1032.45 200.968 1035.27 201.799 1038.12 201.597C1040.96 201.395 1043.64 200.173 1045.66 198.156C1047.67 196.138 1048.89 193.461 1049.1 190.615C1049.3 187.77 1048.47 184.947 1046.76 182.664L957.869 93.7768Z" fill="url(#paint6_linear_148_177)"/>
<path d="M928.24 123.406C927.185 122.256 925.903 121.339 924.475 120.711C923.046 120.083 921.503 119.759 919.943 119.759C918.383 119.759 916.84 120.083 915.412 120.711C913.984 121.339 912.702 122.256 911.647 123.406C910.498 124.461 909.58 125.743 908.952 127.171C908.324 128.599 908 130.142 908 131.702C908 133.262 908.324 134.805 908.952 136.233C909.58 137.662 910.498 138.944 911.647 139.998L953.128 181.479C955.41 183.191 958.234 184.022 961.079 183.82C963.925 183.617 966.602 182.396 968.619 180.378C970.637 178.361 971.859 175.684 972.061 172.838C972.263 169.992 971.432 167.169 969.72 164.887L928.24 123.406Z" fill="url(#paint7_linear_148_177)"/>
</g>
<g opacity="0.4">
<path d="M131.5 600.917H172.167M131.5 600.917H90.8333M131.5 600.917V560.25C90.8333 560.25 55.25 561.945 50.1667 558.555C45.0833 555.167 40 521.278 40 494.167C40 489.083 40.1787 483.94 40.5026 478.917M40 423L223 606M101 428.722C110.511 428.317 120.83 428.083 131.5 428.083C172.167 428.083 207.75 431.472 212.833 434.861C217.917 438.25 223 467.056 223 494.167C223 510.894 221.065 528.267 218.388 539.917" stroke="url(#paint8_linear_148_177)" stroke-width="15" stroke-linecap="round" stroke-linejoin="round"/>
</g>
</g>
<defs>
<linearGradient id="paint0_linear_148_177" x1="-63.757" y1="-34.0071" x2="-63.757" y2="347.166" gradientUnits="userSpaceOnUse">
<stop stop-color="#FF9E0B"/>
<stop offset="1" stop-color="#EC4899"/>
</linearGradient>
<linearGradient id="paint1_linear_148_177" x1="1173" y1="695.827" x2="1173" y2="969.442" gradientUnits="userSpaceOnUse">
<stop stop-color="#FF9E0B"/>
<stop offset="1" stop-color="#F24E52"/>
</linearGradient>
<linearGradient id="paint2_linear_148_177" x1="882.5" y1="530" x2="882.5" y2="919" gradientUnits="userSpaceOnUse">
<stop stop-color="#FF9E0B"/>
<stop offset="1" stop-color="#9C67E7"/>
</linearGradient>
<linearGradient id="paint3_linear_148_177" x1="491" y1="30" x2="491" y2="162" gradientUnits="userSpaceOnUse">
<stop stop-color="#FF9E0B"/>
<stop offset="1" stop-color="#DA46EB"/>
</linearGradient>
<linearGradient id="paint4_linear_148_177" x1="600" y1="238" x2="600" y2="393" gradientUnits="userSpaceOnUse">
<stop stop-color="#FF9E0B"/>
<stop offset="0.49" stop-color="#F24E52"/>
</linearGradient>
<linearGradient id="paint5_linear_148_177" x1="1051.73" y1="28" x2="1051.73" y2="237.775" gradientUnits="userSpaceOnUse">
<stop stop-color="#F24E52"/>
<stop offset="1" stop-color="#FF9E0B"/>
</linearGradient>
<linearGradient id="paint6_linear_148_177" x1="994.017" y1="91.4065" x2="994.017" y2="201.627" gradientUnits="userSpaceOnUse">
<stop stop-color="#F24E52"/>
<stop offset="1" stop-color="#FF9E0B"/>
</linearGradient>
<linearGradient id="paint7_linear_148_177" x1="940.045" y1="119.759" x2="940.045" y2="183.85" gradientUnits="userSpaceOnUse">
<stop stop-color="#F24E52"/>
<stop offset="1" stop-color="#FF9E0B"/>
</linearGradient>
<linearGradient id="paint8_linear_148_177" x1="131.5" y1="423" x2="131.5" y2="606" gradientUnits="userSpaceOnUse">
<stop stop-color="#DA46EB"/>
<stop offset="0.0001" stop-color="#9C67E7"/>
<stop offset="1" stop-color="#F24E52"/>
</linearGradient>
<clipPath id="clip0_148_177">
<rect width="1200" height="630" fill="white"/>
</clipPath>
</defs>
</svg>
