<svg width="1200" height="630" viewBox="0 0 1200 630" fill="none" xmlns="http://www.w3.org/2000/svg">
<g clip-path="url(#clip0_149_547)">
<rect width="1200" height="630" fill="black"/>
<rect x="-427.809" y="-32.4844" width="729.486" height="376.173" transform="rotate(-19.4848 -427.809 -32.4844)" stroke="url(#paint0_linear_149_547)" stroke-width="5"/>
<rect x="883" y="695.827" width="580" height="273.616" transform="rotate(-35.26 883 695.827)" fill="url(#paint1_linear_149_547)"/>
<circle cx="882.5" cy="724.5" r="193" stroke="url(#paint2_linear_149_547)" stroke-width="3"/>
<path opacity="0.49" d="M415 58.3636C414.121 58.3636 413.367 58.0568 412.739 57.4432C412.117 56.822 411.811 56.0682 411.818 55.1818C411.811 54.3182 412.117 53.5795 412.739 52.9659C413.367 52.3523 414.121 52.0455 415 52.0455C415.833 52.0455 416.568 52.3523 417.205 52.9659C417.848 53.5795 418.174 54.3182 418.182 55.1818C418.174 55.7727 418.019 56.3106 417.716 56.7955C417.42 57.2727 417.034 57.6553 416.557 57.9432C416.08 58.2235 415.561 58.3636 415 58.3636ZM459.003 58.3636C458.124 58.3636 457.37 58.0568 456.741 57.4432C456.12 56.822 455.813 56.0682 455.821 55.1818C455.813 54.3182 456.12 53.5795 456.741 52.9659C457.37 52.3523 458.124 52.0455 459.003 52.0455C459.836 52.0455 460.571 52.3523 461.207 52.9659C461.851 53.5795 462.177 54.3182 462.184 55.1818C462.177 55.7727 462.021 56.3106 461.718 56.7955C461.423 57.2727 461.037 57.6553 460.559 57.9432C460.082 58.2235 459.563 58.3636 459.003 58.3636ZM503.005 58.3636C502.126 58.3636 501.372 58.0568 500.744 57.4432C500.122 56.822 499.816 56.0682 499.823 55.1818C499.816 54.3182 500.122 53.5795 500.744 52.9659C501.372 52.3523 502.126 52.0455 503.005 52.0455C503.838 52.0455 504.573 52.3523 505.21 52.9659C505.853 53.5795 506.179 54.3182 506.187 55.1818C506.179 55.7727 506.024 56.3106 505.721 56.7955C505.425 57.2727 505.039 57.6553 504.562 57.9432C504.085 58.2235 503.566 58.3636 503.005 58.3636ZM547.008 58.3636C546.129 58.3636 545.375 58.0568 544.746 57.4432C544.125 56.822 543.818 56.0682 543.826 55.1818C543.818 54.3182 544.125 53.5795 544.746 52.9659C545.375 52.3523 546.129 52.0455 547.008 52.0455C547.841 52.0455 548.576 52.3523 549.212 52.9659C549.856 53.5795 550.182 54.3182 550.189 55.1818C550.182 55.7727 550.026 56.3106 549.723 56.7955C549.428 57.2727 549.042 57.6553 548.564 57.9432C548.087 58.2235 547.568 58.3636 547.008 58.3636ZM415 91.3636C414.121 91.3636 413.367 91.0568 412.739 90.4432C412.117 89.822 411.811 89.0682 411.818 88.1818C411.811 87.3182 412.117 86.5795 412.739 85.9659C413.367 85.3523 414.121 85.0455 415 85.0455C415.833 85.0455 416.568 85.3523 417.205 85.9659C417.848 86.5795 418.174 87.3182 418.182 88.1818C418.174 88.7727 418.019 89.3106 417.716 89.7955C417.42 90.2727 417.034 90.6553 416.557 90.9432C416.08 91.2235 415.561 91.3636 415 91.3636ZM459.003 91.3636C458.124 91.3636 457.37 91.0568 456.741 90.4432C456.12 89.822 455.813 89.0682 455.821 88.1818C455.813 87.3182 456.12 86.5795 456.741 85.9659C457.37 85.3523 458.124 85.0455 459.003 85.0455C459.836 85.0455 460.571 85.3523 461.207 85.9659C461.851 86.5795 462.177 87.3182 462.184 88.1818C462.177 88.7727 462.021 89.3106 461.718 89.7955C461.423 90.2727 461.037 90.6553 460.559 90.9432C460.082 91.2235 459.563 91.3636 459.003 91.3636ZM503.005 91.3636C502.126 91.3636 501.372 91.0568 500.744 90.4432C500.122 89.822 499.816 89.0682 499.823 88.1818C499.816 87.3182 500.122 86.5795 500.744 85.9659C501.372 85.3523 502.126 85.0455 503.005 85.0455C503.838 85.0455 504.573 85.3523 505.21 85.9659C505.853 86.5795 506.179 87.3182 506.187 88.1818C506.179 88.7727 506.024 89.3106 505.721 89.7955C505.425 90.2727 505.039 90.6553 504.562 90.9432C504.085 91.2235 503.566 91.3636 503.005 91.3636ZM547.008 91.3636C546.129 91.3636 545.375 91.0568 544.746 90.4432C544.125 89.822 543.818 89.0682 543.826 88.1818C543.818 87.3182 544.125 86.5795 544.746 85.9659C545.375 85.3523 546.129 85.0455 547.008 85.0455C547.841 85.0455 548.576 85.3523 549.212 85.9659C549.856 86.5795 550.182 87.3182 550.189 88.1818C550.182 88.7727 550.026 89.3106 549.723 89.7955C549.428 90.2727 549.042 90.6553 548.564 90.9432C548.087 91.2235 547.568 91.3636 547.008 91.3636ZM415 124.364C414.121 124.364 413.367 124.057 412.739 123.443C412.117 122.822 411.811 122.068 411.818 121.182C411.811 120.318 412.117 119.58 412.739 118.966C413.367 118.352 414.121 118.045 415 118.045C415.833 118.045 416.568 118.352 417.205 118.966C417.848 119.58 418.174 120.318 418.182 121.182C418.174 121.773 418.019 122.311 417.716 122.795C417.42 123.273 417.034 123.655 416.557 123.943C416.08 124.223 415.561 124.364 415 124.364ZM459.003 124.364C458.124 124.364 457.37 124.057 456.741 123.443C456.12 122.822 455.813 122.068 455.821 121.182C455.813 120.318 456.12 119.58 456.741 118.966C457.37 118.352 458.124 118.045 459.003 118.045C459.836 118.045 460.571 118.352 461.207 118.966C461.851 119.58 462.177 120.318 462.184 121.182C462.177 121.773 462.021 122.311 461.718 122.795C461.423 123.273 461.037 123.655 460.559 123.943C460.082 124.223 459.563 124.364 459.003 124.364ZM503.005 124.364C502.126 124.364 501.372 124.057 500.744 123.443C500.122 122.822 499.816 122.068 499.823 121.182C499.816 120.318 500.122 119.58 500.744 118.966C501.372 118.352 502.126 118.045 503.005 118.045C503.838 118.045 504.573 118.352 505.21 118.966C505.853 119.58 506.179 120.318 506.187 121.182C506.179 121.773 506.024 122.311 505.721 122.795C505.425 123.273 505.039 123.655 504.562 123.943C504.085 124.223 503.566 124.364 503.005 124.364ZM547.008 124.364C546.129 124.364 545.375 124.057 544.746 123.443C544.125 122.822 543.818 122.068 543.826 121.182C543.818 120.318 544.125 119.58 544.746 118.966C545.375 118.352 546.129 118.045 547.008 118.045C547.841 118.045 548.576 118.352 549.212 118.966C549.856 119.58 550.182 120.318 550.189 121.182C550.182 121.773 550.026 122.311 549.723 122.795C549.428 123.273 549.042 123.655 548.564 123.943C548.087 124.223 547.568 124.364 547.008 124.364ZM415 157.364C414.121 157.364 413.367 157.057 412.739 156.443C412.117 155.822 411.811 155.068 411.818 154.182C411.811 153.318 412.117 152.58 412.739 151.966C413.367 151.352 414.121 151.045 415 151.045C415.833 151.045 416.568 151.352 417.205 151.966C417.848 152.58 418.174 153.318 418.182 154.182C418.174 154.773 418.019 155.311 417.716 155.795C417.42 156.273 417.034 156.655 416.557 156.943C416.08 157.223 415.561 157.364 415 157.364ZM459.003 157.364C458.124 157.364 457.37 157.057 456.741 156.443C456.12 155.822 455.813 155.068 455.821 154.182C455.813 153.318 456.12 152.58 456.741 151.966C457.37 151.352 458.124 151.045 459.003 151.045C459.836 151.045 460.571 151.352 461.207 151.966C461.851 152.58 462.177 153.318 462.184 154.182C462.177 154.773 462.021 155.311 461.718 155.795C461.423 156.273 461.037 156.655 460.559 156.943C460.082 157.223 459.563 157.364 459.003 157.364ZM503.005 157.364C502.126 157.364 501.372 157.057 500.744 156.443C500.122 155.822 499.816 155.068 499.823 154.182C499.816 153.318 500.122 152.58 500.744 151.966C501.372 151.352 502.126 151.045 503.005 151.045C503.838 151.045 504.573 151.352 505.21 151.966C505.853 152.58 506.179 153.318 506.187 154.182C506.179 154.773 506.024 155.311 505.721 155.795C505.425 156.273 505.039 156.655 504.562 156.943C504.085 157.223 503.566 157.364 503.005 157.364ZM547.008 157.364C546.129 157.364 545.375 157.057 544.746 156.443C544.125 155.822 543.818 155.068 543.826 154.182C543.818 153.318 544.125 152.58 544.746 151.966C545.375 151.352 546.129 151.045 547.008 151.045C547.841 151.045 548.576 151.352 549.212 151.966C549.856 152.58 550.182 153.318 550.189 154.182C550.182 154.773 550.026 155.311 549.723 155.795C549.428 156.273 549.042 156.655 548.564 156.943C548.087 157.223 547.568 157.364 547.008 157.364Z" fill="url(#paint3_linear_149_547)"/>
<mask id="path-5-outside-1_149_547" maskUnits="userSpaceOnUse" x="267" y="262" width="666" height="132" fill="black">
<rect fill="white" x="267" y="262" width="666" height="132"/>
<path d="M359.909 303.818H334.273C334.091 301.697 333.606 299.773 332.818 298.045C332.061 296.318 331 294.833 329.636 293.591C328.303 292.318 326.682 291.348 324.773 290.682C322.864 289.985 320.697 289.636 318.273 289.636C314.03 289.636 310.439 290.667 307.5 292.727C304.591 294.788 302.379 297.742 300.864 301.591C299.379 305.439 298.636 310.061 298.636 315.455C298.636 321.152 299.394 325.924 300.909 329.773C302.455 333.591 304.682 336.47 307.591 338.409C310.5 340.318 314 341.273 318.091 341.273C320.424 341.273 322.515 340.985 324.364 340.409C326.212 339.803 327.818 338.939 329.182 337.818C330.545 336.697 331.652 335.348 332.5 333.773C333.379 332.167 333.97 330.364 334.273 328.364L359.909 328.545C359.606 332.485 358.5 336.5 356.591 340.591C354.682 344.652 351.97 348.409 348.455 351.864C344.97 355.288 340.652 358.045 335.5 360.136C330.348 362.227 324.364 363.273 317.545 363.273C309 363.273 301.333 361.439 294.545 357.773C287.788 354.106 282.439 348.712 278.5 341.591C274.591 334.47 272.636 325.758 272.636 315.455C272.636 305.091 274.636 296.364 278.636 289.273C282.636 282.152 288.03 276.773 294.818 273.136C301.606 269.47 309.182 267.636 317.545 267.636C323.424 267.636 328.833 268.439 333.773 270.045C338.712 271.652 343.045 274 346.773 277.091C350.5 280.152 353.5 283.924 355.773 288.409C358.045 292.894 359.424 298.03 359.909 303.818ZM371.739 362V292.182H396.102V305.455H396.83C398.102 300.545 400.117 296.955 402.875 294.682C405.663 292.409 408.92 291.273 412.648 291.273C413.739 291.273 414.814 291.364 415.875 291.545C416.966 291.697 418.011 291.924 419.011 292.227V313.636C417.769 313.212 416.239 312.894 414.42 312.682C412.602 312.47 411.042 312.364 409.739 312.364C407.284 312.364 405.072 312.924 403.102 314.045C401.163 315.136 399.633 316.682 398.511 318.682C397.39 320.652 396.83 322.97 396.83 325.636V362H371.739ZM443.443 363.091C438.989 363.091 435.049 362.364 431.625 360.909C428.231 359.424 425.564 357.182 423.625 354.182C421.686 351.182 420.716 347.364 420.716 342.727C420.716 338.909 421.367 335.652 422.67 332.955C423.973 330.227 425.792 328 428.125 326.273C430.458 324.545 433.17 323.227 436.261 322.318C439.383 321.409 442.746 320.818 446.352 320.545C450.261 320.242 453.398 319.879 455.761 319.455C458.155 319 459.883 318.379 460.943 317.591C462.004 316.773 462.534 315.697 462.534 314.364V314.182C462.534 312.364 461.837 310.97 460.443 310C459.049 309.03 457.261 308.545 455.08 308.545C452.686 308.545 450.731 309.076 449.216 310.136C447.731 311.167 446.837 312.758 446.534 314.909H423.443C423.746 310.667 425.095 306.758 427.489 303.182C429.913 299.576 433.443 296.697 438.08 294.545C442.716 292.364 448.504 291.273 455.443 291.273C460.443 291.273 464.928 291.864 468.898 293.045C472.867 294.197 476.246 295.818 479.034 297.909C481.822 299.97 483.943 302.394 485.398 305.182C486.883 307.939 487.625 310.939 487.625 314.182V362H464.17V352.182H463.625C462.231 354.788 460.534 356.894 458.534 358.5C456.564 360.106 454.307 361.273 451.761 362C449.246 362.727 446.473 363.091 443.443 363.091ZM451.625 347.273C453.534 347.273 455.322 346.879 456.989 346.091C458.686 345.303 460.064 344.167 461.125 342.682C462.186 341.197 462.716 339.394 462.716 337.273V331.455C462.049 331.727 461.337 331.985 460.58 332.227C459.852 332.47 459.064 332.697 458.216 332.909C457.398 333.121 456.519 333.318 455.58 333.5C454.67 333.682 453.716 333.848 452.716 334C450.777 334.303 449.186 334.803 447.943 335.5C446.731 336.167 445.822 337 445.216 338C444.64 338.97 444.352 340.061 444.352 341.273C444.352 343.212 445.034 344.697 446.398 345.727C447.761 346.758 449.504 347.273 451.625 347.273ZM500.341 362V348.182L530.886 311.636V311.273H501.432V292.182H560.523V307.455L532.705 342.545V342.909H561.614V362H500.341ZM590.761 388.182C587.883 388.182 585.14 387.955 582.534 387.5C579.928 387.076 577.64 386.485 575.67 385.727L581.125 367.909C583.186 368.636 585.064 369.106 586.761 369.318C588.489 369.53 589.958 369.409 591.17 368.955C592.413 368.5 593.307 367.636 593.852 366.364L594.398 365.091L569.852 292.182H596.034L607.307 340.545H608.034L619.489 292.182H645.852L620.398 367.818C619.125 371.667 617.277 375.121 614.852 378.182C612.458 381.273 609.307 383.712 605.398 385.5C601.489 387.288 596.61 388.182 590.761 388.182ZM702.307 362H675.034L705.761 268.909H740.307L771.034 362H743.761L723.398 294.545H722.67L702.307 362ZM697.216 325.273H748.489V344.182H697.216V325.273ZM800.136 362.909C795.167 362.909 790.591 361.606 786.409 359C782.258 356.394 778.924 352.439 776.409 347.136C773.924 341.833 772.682 335.152 772.682 327.091C772.682 318.667 773.985 311.818 776.591 306.545C779.227 301.273 782.621 297.409 786.773 294.955C790.955 292.5 795.348 291.273 799.955 291.273C803.409 291.273 806.439 291.879 809.045 293.091C811.652 294.273 813.833 295.864 815.591 297.864C817.348 299.833 818.682 302 819.591 304.364H819.955V268.909H845.045V362H820.136V350.545H819.591C818.621 352.909 817.227 355.03 815.409 356.909C813.621 358.758 811.439 360.227 808.864 361.318C806.318 362.379 803.409 362.909 800.136 362.909ZM809.409 343.636C811.712 343.636 813.682 342.97 815.318 341.636C816.985 340.273 818.258 338.364 819.136 335.909C820.045 333.424 820.5 330.485 820.5 327.091C820.5 323.636 820.045 320.682 819.136 318.227C818.258 315.742 816.985 313.848 815.318 312.545C813.682 311.212 811.712 310.545 809.409 310.545C807.106 310.545 805.136 311.212 803.5 312.545C801.894 313.848 800.652 315.742 799.773 318.227C798.924 320.682 798.5 323.636 798.5 327.091C798.5 330.545 798.924 333.515 799.773 336C800.652 338.455 801.894 340.348 803.5 341.682C805.136 342.985 807.106 343.636 809.409 343.636ZM882.636 362.909C877.667 362.909 873.091 361.606 868.909 359C864.758 356.394 861.424 352.439 858.909 347.136C856.424 341.833 855.182 335.152 855.182 327.091C855.182 318.667 856.485 311.818 859.091 306.545C861.727 301.273 865.121 297.409 869.273 294.955C873.455 292.5 877.848 291.273 882.455 291.273C885.909 291.273 888.939 291.879 891.545 293.091C894.152 294.273 896.333 295.864 898.091 297.864C899.848 299.833 901.182 302 902.091 304.364H902.455V268.909H927.545V362H902.636V350.545H902.091C901.121 352.909 899.727 355.03 897.909 356.909C896.121 358.758 893.939 360.227 891.364 361.318C888.818 362.379 885.909 362.909 882.636 362.909ZM891.909 343.636C894.212 343.636 896.182 342.97 897.818 341.636C899.485 340.273 900.758 338.364 901.636 335.909C902.545 333.424 903 330.485 903 327.091C903 323.636 902.545 320.682 901.636 318.227C900.758 315.742 899.485 313.848 897.818 312.545C896.182 311.212 894.212 310.545 891.909 310.545C889.606 310.545 887.636 311.212 886 312.545C884.394 313.848 883.152 315.742 882.273 318.227C881.424 320.682 881 323.636 881 327.091C881 330.545 881.424 333.515 882.273 336C883.152 338.455 884.394 340.348 886 341.682C887.636 342.985 889.606 343.636 891.909 343.636Z"/>
</mask>
<path d="M359.909 303.818V308.818H365.345L364.892 303.401L359.909 303.818ZM334.273 303.818L329.291 304.245L329.683 308.818H334.273V303.818ZM332.818 298.045L328.239 300.054L328.254 300.087L328.269 300.12L332.818 298.045ZM329.636 293.591L326.184 297.208L326.226 297.248L326.269 297.287L329.636 293.591ZM324.773 290.682L323.058 295.379L323.091 295.391L323.124 295.402L324.773 290.682ZM307.5 292.727L304.63 288.633L304.62 288.64L304.61 288.647L307.5 292.727ZM300.864 301.591L296.211 299.759L296.205 299.775L296.199 299.791L300.864 301.591ZM300.909 329.773L296.257 331.604L296.265 331.627L296.274 331.649L300.909 329.773ZM307.591 338.409L304.817 342.569L304.832 342.579L304.848 342.589L307.591 338.409ZM324.364 340.409L325.851 345.183L325.886 345.172L325.921 345.16L324.364 340.409ZM329.182 337.818L332.357 341.68L332.357 341.68L329.182 337.818ZM332.5 333.773L328.114 331.373L328.106 331.387L328.098 331.402L332.5 333.773ZM334.273 328.364L334.308 323.364L329.978 323.333L329.329 327.615L334.273 328.364ZM359.909 328.545L364.894 328.929L365.306 323.584L359.945 323.546L359.909 328.545ZM356.591 340.591L361.116 342.718L361.119 342.712L361.122 342.705L356.591 340.591ZM348.455 351.864L351.959 355.43L351.959 355.43L348.455 351.864ZM335.5 360.136L333.62 355.503L335.5 360.136ZM294.545 357.773L292.161 362.167L292.169 362.172L294.545 357.773ZM278.5 341.591L274.117 343.997L274.121 344.004L274.125 344.011L278.5 341.591ZM278.636 289.273L282.991 291.729L282.996 291.721L278.636 289.273ZM294.818 273.136L297.179 277.544L297.187 277.54L297.195 277.536L294.818 273.136ZM333.773 270.045L335.319 265.29L335.319 265.29L333.773 270.045ZM346.773 277.091L343.581 280.94L343.59 280.947L343.6 280.955L346.773 277.091ZM355.773 288.409L351.313 290.669L351.313 290.669L355.773 288.409ZM359.909 298.818H334.273V308.818H359.909V298.818ZM339.254 303.391C339.03 300.769 338.42 298.277 337.367 295.97L328.269 300.12C328.793 301.268 329.152 302.625 329.291 304.245L339.254 303.391ZM337.397 296.037C336.365 293.683 334.897 291.62 333.004 289.895L326.269 297.287C327.103 298.047 327.756 298.953 328.239 300.054L337.397 296.037ZM333.089 289.974C331.191 288.163 328.937 286.84 326.421 285.961L323.124 295.402C324.426 295.857 325.415 296.473 326.184 297.208L333.089 289.974ZM326.487 285.985C323.934 285.053 321.172 284.636 318.273 284.636V294.636C320.222 294.636 321.793 294.917 323.058 295.379L326.487 285.985ZM318.273 284.636C313.195 284.636 308.554 285.882 304.63 288.633L310.37 296.821C312.324 295.452 314.866 294.636 318.273 294.636V284.636ZM304.61 288.647C300.786 291.355 298.024 295.154 296.211 299.759L305.516 303.423C306.733 300.331 308.395 298.22 310.39 296.807L304.61 288.647ZM296.199 299.791C294.436 304.36 293.636 309.625 293.636 315.455H303.636C303.636 310.497 304.322 306.518 305.528 303.391L296.199 299.791ZM293.636 315.455C293.636 321.558 294.443 326.998 296.257 331.604L305.562 327.941C304.345 324.851 303.636 320.745 303.636 315.455H293.636ZM296.274 331.649C298.128 336.228 300.932 339.979 304.817 342.569L310.364 334.249C308.431 332.96 306.781 330.954 305.544 327.897L296.274 331.649ZM304.848 342.589C308.706 345.122 313.2 346.273 318.091 346.273V336.273C314.8 336.273 312.294 335.515 310.334 334.229L304.848 342.589ZM318.091 346.273C320.829 346.273 323.434 345.936 325.851 345.183L322.877 335.635C321.597 336.034 320.02 336.273 318.091 336.273V346.273ZM325.921 345.16C328.3 344.381 330.468 343.234 332.357 341.68L326.006 333.956C325.169 334.645 324.125 335.226 322.806 335.658L325.921 345.16ZM332.357 341.68C334.23 340.141 335.75 338.283 336.902 336.143L328.098 331.402C327.553 332.414 326.861 333.253 326.006 333.956L332.357 341.68ZM336.886 336.173C338.074 334.002 338.835 331.631 339.216 329.113L329.329 327.615C329.105 329.096 328.684 330.331 328.114 331.373L336.886 336.173ZM334.237 333.364L359.874 333.545L359.945 323.546L334.308 323.364L334.237 333.364ZM354.924 328.162C354.673 331.423 353.751 334.854 352.06 338.476L361.122 342.705C363.249 338.146 364.539 333.547 364.894 328.929L354.924 328.162ZM352.066 338.464C350.433 341.938 348.084 345.217 344.95 348.297L351.959 355.43C355.855 351.601 358.931 347.365 361.116 342.718L352.066 338.464ZM344.95 348.297C341.992 351.204 338.248 353.625 333.62 355.503L337.38 364.769C343.055 362.466 347.948 359.371 351.959 355.43L344.95 348.297ZM333.62 355.503C329.184 357.304 323.861 358.273 317.545 358.273V368.273C324.867 368.273 331.513 367.151 337.38 364.769L333.62 355.503ZM317.545 358.273C309.739 358.273 302.904 356.605 296.922 353.374L292.169 362.172C299.763 366.274 308.261 368.273 317.545 368.273V358.273ZM296.93 353.378C291.061 350.193 286.381 345.508 282.875 339.171L274.125 344.011C278.498 351.916 284.515 358.019 292.161 362.167L296.93 353.378ZM282.883 339.185C279.473 332.973 277.636 325.137 277.636 315.455H267.636C267.636 326.378 269.709 335.966 274.117 343.997L282.883 339.185ZM277.636 315.455C277.636 305.721 279.514 297.893 282.991 291.729L274.281 286.816C269.758 294.835 267.636 304.46 267.636 315.455H277.636ZM282.996 291.721C286.559 285.377 291.282 280.703 297.179 277.544L292.457 268.729C284.779 272.842 278.713 278.926 274.277 286.824L282.996 291.721ZM297.195 277.536C303.192 274.296 309.94 272.636 317.545 272.636V262.636C308.424 262.636 300.02 264.644 292.442 268.737L297.195 277.536ZM317.545 272.636C322.967 272.636 327.848 273.377 332.227 274.8L335.319 265.29C329.819 263.502 323.881 262.636 317.545 262.636V272.636ZM332.227 274.8C336.609 276.225 340.375 278.281 343.581 280.94L349.964 273.242C345.716 269.719 340.815 267.078 335.319 265.29L332.227 274.8ZM343.6 280.955C346.769 283.557 349.34 286.776 351.313 290.669L360.233 286.149C357.66 281.073 354.231 276.746 349.946 273.227L343.6 280.955ZM351.313 290.669C353.253 294.497 354.487 298.991 354.927 304.236L364.892 303.401C364.361 297.069 362.838 291.291 360.233 286.149L351.313 290.669ZM371.739 362H366.739V367H371.739V362ZM371.739 292.182V287.182H366.739V292.182H371.739ZM396.102 292.182H401.102V287.182H396.102V292.182ZM396.102 305.455H391.102V310.455H396.102V305.455ZM396.83 305.455V310.455H400.699L401.67 306.709L396.83 305.455ZM402.875 294.682L399.716 290.806L399.705 290.815L399.695 290.823L402.875 294.682ZM415.875 291.545L415.03 296.474L415.108 296.487L415.187 296.498L415.875 291.545ZM419.011 292.227H424.011V288.518L420.461 287.442L419.011 292.227ZM419.011 313.636L417.396 318.368L424.011 320.627V313.636H419.011ZM414.42 312.682L415 307.716L415 307.716L414.42 312.682ZM403.102 314.045L405.554 318.403L405.565 318.397L405.576 318.391L403.102 314.045ZM398.511 318.682L402.857 321.155L402.865 321.141L402.873 321.127L398.511 318.682ZM396.83 362V367H401.83V362H396.83ZM376.739 362V292.182H366.739V362H376.739ZM371.739 297.182H396.102V287.182H371.739V297.182ZM391.102 292.182V305.455H401.102V292.182H391.102ZM396.102 310.455H396.83V300.455H396.102V310.455ZM401.67 306.709C402.785 302.407 404.389 299.913 406.055 298.54L399.695 290.823C395.846 293.996 393.42 298.683 391.99 304.2L401.67 306.709ZM406.034 298.557C407.895 297.04 410.026 296.273 412.648 296.273V286.273C407.815 286.273 403.43 287.778 399.716 290.806L406.034 298.557ZM412.648 296.273C413.459 296.273 414.252 296.34 415.03 296.474L416.72 286.617C415.376 286.387 414.018 286.273 412.648 286.273V296.273ZM415.187 296.498C416.034 296.616 416.824 296.789 417.561 297.012L420.461 287.442C419.199 287.06 417.898 286.778 416.563 286.593L415.187 296.498ZM414.011 292.227V313.636H424.011V292.227H414.011ZM420.627 308.905C418.946 308.331 417.044 307.954 415 307.716L413.841 317.648C415.433 317.834 416.592 318.094 417.396 318.368L420.627 308.905ZM415 307.716C413.06 307.489 411.295 307.364 409.739 307.364V317.364C410.788 317.364 412.145 317.45 413.841 317.648L415 307.716ZM409.739 307.364C406.491 307.364 403.414 308.115 400.629 309.7L405.576 318.391C406.73 317.734 408.077 317.364 409.739 317.364V307.364ZM400.651 309.688C397.886 311.243 395.706 313.461 394.15 316.237L402.873 321.127C403.559 319.902 404.44 319.03 405.554 318.403L400.651 309.688ZM394.166 316.208C392.545 319.055 391.83 322.256 391.83 325.636H401.83C401.83 323.683 402.235 322.248 402.857 321.155L394.166 316.208ZM391.83 325.636V362H401.83V325.636H391.83ZM396.83 357H371.739V367H396.83V357ZM431.625 360.909L429.621 365.49L429.645 365.501L429.67 365.511L431.625 360.909ZM423.625 354.182L419.426 356.896L419.426 356.896L423.625 354.182ZM422.67 332.955L427.173 335.13L427.177 335.12L427.182 335.11L422.67 332.955ZM428.125 326.273L431.1 330.291L431.1 330.291L428.125 326.273ZM436.261 322.318L434.863 317.518L434.851 317.521L436.261 322.318ZM446.352 320.545L446.729 325.531L446.739 325.53L446.352 320.545ZM455.761 319.455L456.645 324.376L456.669 324.371L456.694 324.367L455.761 319.455ZM460.943 317.591L463.925 321.605L463.961 321.578L463.997 321.55L460.943 317.591ZM460.443 310L457.588 314.105L457.588 314.105L460.443 310ZM449.216 310.136L452.066 314.244L452.075 314.238L452.083 314.233L449.216 310.136ZM446.534 314.909V319.909H450.879L451.485 315.606L446.534 314.909ZM423.443 314.909L418.456 314.553L418.073 319.909H423.443V314.909ZM427.489 303.182L423.339 300.392L423.334 300.4L427.489 303.182ZM438.08 294.545L440.184 299.081L440.196 299.075L440.209 299.07L438.08 294.545ZM468.898 293.045L467.471 297.838L467.488 297.843L467.505 297.848L468.898 293.045ZM479.034 297.909L476.034 301.909L476.048 301.92L476.062 301.93L479.034 297.909ZM485.398 305.182L480.965 307.495L480.98 307.524L480.995 307.552L485.398 305.182ZM487.625 362V367H492.625V362H487.625ZM464.17 362H459.17V367H464.17V362ZM464.17 352.182H469.17V347.182H464.17V352.182ZM463.625 352.182V347.182H460.629L459.216 349.824L463.625 352.182ZM458.534 358.5L455.403 354.601L455.389 354.613L455.374 354.625L458.534 358.5ZM451.761 362L450.388 357.192L450.38 357.195L450.372 357.197L451.761 362ZM456.989 346.091L454.883 341.556L454.867 341.563L454.852 341.571L456.989 346.091ZM461.125 342.682L457.056 339.776L457.056 339.776L461.125 342.682ZM462.716 331.455H467.716V324.007L460.823 326.827L462.716 331.455ZM460.58 332.227L459.056 327.465L459.027 327.474L458.998 327.484L460.58 332.227ZM458.216 332.909L457.003 328.058L456.982 328.064L456.961 328.069L458.216 332.909ZM455.58 333.5L454.629 328.591L454.614 328.594L454.599 328.597L455.58 333.5ZM452.716 334L451.967 329.056L451.955 329.058L451.944 329.06L452.716 334ZM447.943 335.5L450.353 339.881L450.371 339.871L450.389 339.861L447.943 335.5ZM445.216 338L440.94 335.408L440.928 335.428L440.917 335.447L445.216 338ZM446.398 345.727L449.412 341.738L449.412 341.738L446.398 345.727ZM443.443 358.091C439.53 358.091 436.276 357.453 433.58 356.307L429.67 365.511C433.822 367.275 438.447 368.091 443.443 368.091V358.091ZM433.629 356.328C431.099 355.221 429.21 353.612 427.824 351.467L419.426 356.896C421.919 360.752 425.363 363.627 429.621 365.49L433.629 356.328ZM427.824 351.467C426.542 349.485 425.716 346.683 425.716 342.727H415.716C415.716 348.044 416.829 352.879 419.426 356.896L427.824 351.467ZM425.716 342.727C425.716 339.462 426.274 336.988 427.173 335.13L418.168 330.779C416.46 334.315 415.716 338.356 415.716 342.727H425.716ZM427.182 335.11C428.148 333.089 429.451 331.512 431.1 330.291L425.15 322.254C422.133 324.488 419.799 327.366 418.159 330.799L427.182 335.11ZM431.1 330.291C432.913 328.95 435.083 327.877 437.672 327.115L434.851 317.521C431.258 318.578 428.004 320.141 425.15 322.254L431.1 330.291ZM437.66 327.119C440.413 326.317 443.431 325.781 446.729 325.531L445.975 315.56C442.061 315.856 438.352 316.501 434.863 317.518L437.66 327.119ZM446.739 325.53C450.725 325.222 454.047 324.842 456.645 324.376L454.878 314.533C452.749 314.915 449.798 315.263 445.966 315.56L446.739 325.53ZM456.694 324.367C459.306 323.871 461.94 323.079 463.925 321.605L457.962 313.577C457.962 313.577 457.906 313.618 457.767 313.688C457.63 313.758 457.432 313.845 457.16 313.943C456.609 314.141 455.846 314.349 454.829 314.542L456.694 324.367ZM463.997 321.55C466.278 319.79 467.534 317.255 467.534 314.364H457.534C457.534 314.364 457.534 314.32 457.552 314.24C457.569 314.159 457.601 314.062 457.652 313.96C457.702 313.857 457.759 313.774 457.811 313.713C457.861 313.653 457.894 313.629 457.889 313.632L463.997 321.55ZM467.534 314.364V314.182H457.534V314.364H467.534ZM467.534 314.182C467.534 310.863 466.144 307.875 463.299 305.895L457.588 314.105C457.634 314.137 457.635 314.144 457.613 314.12C457.603 314.108 457.59 314.092 457.576 314.071C457.562 314.051 457.55 314.03 457.539 314.009C457.529 313.988 457.522 313.971 457.519 313.961C457.515 313.95 457.515 313.949 457.517 313.958C457.521 313.977 457.534 314.047 457.534 314.182H467.534ZM463.299 305.895C460.856 304.197 457.992 303.545 455.08 303.545V313.545C456.531 313.545 457.242 313.864 457.588 314.105L463.299 305.895ZM455.08 303.545C451.96 303.545 448.921 304.24 446.349 306.04L452.083 314.233C452.541 313.912 453.411 313.545 455.08 313.545V303.545ZM446.366 306.028C443.507 308.012 442.038 310.983 441.583 314.212L451.485 315.606C451.636 314.533 451.955 314.321 452.066 314.244L446.366 306.028ZM446.534 309.909H423.443V319.909H446.534V309.909ZM428.43 315.265C428.671 311.901 429.727 308.826 431.643 305.963L423.334 300.4C420.462 304.689 418.822 309.433 418.456 314.553L428.43 315.265ZM431.638 305.971C433.469 303.248 436.228 300.917 440.184 299.081L435.975 290.01C430.658 292.477 426.357 295.904 423.339 300.392L431.638 305.971ZM440.209 299.07C443.987 297.292 448.993 296.273 455.443 296.273V286.273C448.015 286.273 441.445 287.436 435.951 290.021L440.209 299.07ZM455.443 296.273C460.057 296.273 464.049 296.819 467.471 297.838L470.324 288.253C465.808 286.909 460.83 286.273 455.443 286.273V296.273ZM467.505 297.848C471 298.861 473.81 300.241 476.034 301.909L482.034 293.909C478.683 291.396 474.735 289.532 470.291 288.243L467.505 297.848ZM476.062 301.93C478.303 303.586 479.896 305.446 480.965 307.495L489.831 302.869C487.99 299.342 485.341 296.353 482.006 293.888L476.062 301.93ZM480.995 307.552C482.074 309.555 482.625 311.737 482.625 314.182H492.625C492.625 310.142 491.691 306.324 489.8 302.811L480.995 307.552ZM482.625 314.182V362H492.625V314.182H482.625ZM487.625 357H464.17V367H487.625V357ZM469.17 362V352.182H459.17V362H469.17ZM464.17 347.182H463.625V357.182H464.17V347.182ZM459.216 349.824C458.092 351.925 456.804 353.477 455.403 354.601L461.665 362.399C464.264 360.311 466.37 357.651 468.034 354.54L459.216 349.824ZM455.374 354.625C453.953 355.784 452.308 356.644 450.388 357.192L453.135 366.808C456.305 365.902 459.176 364.428 461.694 362.375L455.374 354.625ZM450.372 357.197C448.373 357.775 446.076 358.091 443.443 358.091V368.091C446.871 368.091 450.119 367.68 453.15 366.803L450.372 357.197ZM451.625 352.273C454.246 352.273 456.767 351.726 459.126 350.611L454.852 341.571C453.877 342.031 452.822 342.273 451.625 342.273V352.273ZM459.094 350.626C461.555 349.484 463.617 347.795 465.194 345.588L457.056 339.776C456.511 340.539 455.817 341.122 454.883 341.556L459.094 350.626ZM465.194 345.588C466.954 343.123 467.716 340.261 467.716 337.273H457.716C457.716 338.527 457.417 339.271 457.056 339.776L465.194 345.588ZM467.716 337.273V331.455H457.716V337.273H467.716ZM460.823 326.827C460.289 327.045 459.701 327.259 459.056 327.465L462.103 336.989C462.973 336.711 463.809 336.409 464.609 336.082L460.823 326.827ZM458.998 327.484C458.408 327.681 457.744 327.873 457.003 328.058L459.429 337.76C460.384 337.521 461.297 337.259 462.161 336.971L458.998 327.484ZM456.961 328.069C456.256 328.252 455.48 328.427 454.629 328.591L456.53 338.409C457.558 338.21 458.54 337.99 459.471 337.749L456.961 328.069ZM454.599 328.597C453.773 328.762 452.896 328.916 451.967 329.056L453.465 338.944C454.536 338.781 455.568 338.601 456.56 338.403L454.599 328.597ZM451.944 329.06C449.623 329.423 447.414 330.064 445.497 331.139L450.389 339.861C450.957 339.542 451.93 339.183 453.488 338.94L451.944 329.06ZM445.534 331.119C443.695 332.13 442.077 333.532 440.94 335.408L449.492 340.592C449.567 340.468 449.768 340.203 450.353 339.881L445.534 331.119ZM440.917 335.447C439.848 337.247 439.352 339.232 439.352 341.273H449.352C449.352 340.889 449.432 340.692 449.515 340.553L440.917 335.447ZM439.352 341.273C439.352 344.538 440.589 347.605 443.384 349.717L449.412 341.738C449.374 341.71 449.371 341.701 449.382 341.715C449.394 341.73 449.404 341.746 449.407 341.754C449.418 341.777 449.352 341.655 449.352 341.273H439.352ZM443.384 349.717C445.807 351.547 448.683 352.273 451.625 352.273V342.273C450.325 342.273 449.716 341.968 449.412 341.738L443.384 349.717ZM500.341 362H495.341V367H500.341V362ZM500.341 348.182L496.505 344.975L495.341 346.367V348.182H500.341ZM530.886 311.636L534.723 314.843L535.886 313.451V311.636H530.886ZM530.886 311.273H535.886V306.273H530.886V311.273ZM501.432 311.273H496.432V316.273H501.432V311.273ZM501.432 292.182V287.182H496.432V292.182H501.432ZM560.523 292.182H565.523V287.182H560.523V292.182ZM560.523 307.455L564.441 310.561L565.523 309.196V307.455H560.523ZM532.705 342.545L528.786 339.439L527.705 340.804V342.545H532.705ZM532.705 342.909H527.705V347.909H532.705V342.909ZM561.614 342.909H566.614V337.909H561.614V342.909ZM561.614 362V367H566.614V362H561.614ZM505.341 362V348.182H495.341V362H505.341ZM504.177 351.388L534.723 314.843L527.05 308.43L496.505 344.975L504.177 351.388ZM535.886 311.636V311.273H525.886V311.636H535.886ZM530.886 306.273H501.432V316.273H530.886V306.273ZM506.432 311.273V292.182H496.432V311.273H506.432ZM501.432 297.182H560.523V287.182H501.432V297.182ZM555.523 292.182V307.455H565.523V292.182H555.523ZM556.605 304.348L528.786 339.439L536.623 345.652L564.441 310.561L556.605 304.348ZM527.705 342.545V342.909H537.705V342.545H527.705ZM532.705 347.909H561.614V337.909H532.705V347.909ZM556.614 342.909V362H566.614V342.909H556.614ZM561.614 357H500.341V367H561.614V357ZM582.534 387.5L583.393 382.574L583.365 382.57L583.337 382.565L582.534 387.5ZM575.67 385.727L570.889 384.264L569.525 388.721L573.876 390.394L575.67 385.727ZM581.125 367.909L582.789 363.194L577.871 361.458L576.344 366.446L581.125 367.909ZM586.761 369.318L586.141 374.28L586.152 374.281L586.761 369.318ZM591.17 368.955L589.453 364.259L589.434 364.266L589.415 364.273L591.17 368.955ZM593.852 366.364L598.448 368.333L598.448 368.333L593.852 366.364ZM594.398 365.091L598.993 367.061L599.746 365.305L599.136 363.496L594.398 365.091ZM569.852 292.182V287.182H562.893L565.114 293.777L569.852 292.182ZM596.034 292.182L600.904 291.047L600.003 287.182H596.034V292.182ZM607.307 340.545L602.437 341.68L603.338 345.545H607.307V340.545ZM608.034 340.545V345.545H611.988L612.899 341.698L608.034 340.545ZM619.489 292.182V287.182H615.535L614.623 291.029L619.489 292.182ZM645.852 292.182L650.591 293.777L652.811 287.182H645.852V292.182ZM620.398 367.818L615.659 366.223L615.655 366.236L615.651 366.248L620.398 367.818ZM614.852 378.182L610.933 375.077L610.916 375.099L610.899 375.12L614.852 378.182ZM605.398 385.5L603.318 380.953L603.318 380.953L605.398 385.5ZM590.761 383.182C588.146 383.182 585.692 382.975 583.393 382.574L581.675 392.426C584.588 392.934 587.62 393.182 590.761 393.182V383.182ZM583.337 382.565C580.99 382.183 579.047 381.669 577.465 381.061L573.876 390.394C576.234 391.301 578.866 391.969 581.731 392.435L583.337 382.565ZM580.451 387.191L585.906 369.373L576.344 366.446L570.889 384.264L580.451 387.191ZM579.461 372.624C581.771 373.44 584.006 374.013 586.141 374.28L587.382 364.357C586.123 364.199 584.6 363.833 582.789 363.194L579.461 372.624ZM586.152 374.281C588.415 374.559 590.745 374.454 592.926 373.636L589.415 364.273C589.171 364.364 588.562 364.502 587.371 364.355L586.152 374.281ZM592.888 373.65C595.491 372.698 597.388 370.806 598.448 368.333L589.257 364.394C589.235 364.445 589.223 364.459 589.231 364.448C589.24 364.435 589.262 364.406 589.299 364.37C589.336 364.334 589.376 364.304 589.411 364.282C589.446 364.26 589.464 364.255 589.453 364.259L592.888 373.65ZM598.448 368.333L598.993 367.061L589.802 363.121L589.257 364.394L598.448 368.333ZM599.136 363.496L574.591 290.587L565.114 293.777L589.659 366.686L599.136 363.496ZM569.852 297.182H596.034V287.182H569.852V297.182ZM591.165 293.317L602.437 341.68L612.176 339.41L600.904 291.047L591.165 293.317ZM607.307 345.545H608.034V335.545H607.307V345.545ZM612.899 341.698L624.354 293.334L614.623 291.029L603.169 339.393L612.899 341.698ZM619.489 297.182H645.852V287.182H619.489V297.182ZM641.113 290.587L615.659 366.223L625.137 369.413L650.591 293.777L641.113 290.587ZM615.651 366.248C614.555 369.562 612.98 372.493 610.933 375.077L618.772 381.286C621.573 377.749 623.695 373.771 625.145 369.388L615.651 366.248ZM610.899 375.12C609.048 377.51 606.566 379.467 603.318 380.953L607.477 390.047C612.047 387.957 615.868 385.036 618.805 381.243L610.899 375.12ZM603.318 380.953C600.252 382.355 596.136 383.182 590.761 383.182V393.182C597.083 393.182 602.725 392.221 607.477 390.047L603.318 380.953ZM702.307 362V367H706.02L707.093 363.445L702.307 362ZM675.034 362L670.286 360.433L668.118 367H675.034V362ZM705.761 268.909V263.909H702.146L701.013 267.342L705.761 268.909ZM740.307 268.909L745.055 267.342L743.922 263.909H740.307V268.909ZM771.034 362V367H777.95L775.782 360.433L771.034 362ZM743.761 362L738.975 363.445L740.048 367H743.761V362ZM723.398 294.545L728.184 293.1L727.111 289.545H723.398V294.545ZM722.67 294.545V289.545H718.957L717.884 293.1L722.67 294.545ZM697.216 325.273V320.273H692.216V325.273H697.216ZM748.489 325.273H753.489V320.273H748.489V325.273ZM748.489 344.182V349.182H753.489V344.182H748.489ZM697.216 344.182H692.216V349.182H697.216V344.182ZM702.307 357H675.034V367H702.307V357ZM679.782 363.567L710.509 270.476L701.013 267.342L670.286 360.433L679.782 363.567ZM705.761 273.909H740.307V263.909H705.761V273.909ZM735.559 270.476L766.286 363.567L775.782 360.433L745.055 267.342L735.559 270.476ZM771.034 357H743.761V367H771.034V357ZM748.548 360.555L728.184 293.1L718.611 295.99L738.975 363.445L748.548 360.555ZM723.398 289.545H722.67V299.545H723.398V289.545ZM717.884 293.1L697.52 360.555L707.093 363.445L727.457 295.99L717.884 293.1ZM697.216 330.273H748.489V320.273H697.216V330.273ZM743.489 325.273V344.182H753.489V325.273H743.489ZM748.489 339.182H697.216V349.182H748.489V339.182ZM702.216 344.182V325.273H692.216V344.182H702.216ZM786.409 359L783.751 363.235L783.758 363.239L783.765 363.243L786.409 359ZM776.409 347.136L771.881 349.258L771.886 349.268L771.891 349.279L776.409 347.136ZM776.591 306.545L772.119 304.309L772.114 304.32L772.109 304.33L776.591 306.545ZM786.773 294.955L784.242 290.642L784.235 290.646L784.228 290.651L786.773 294.955ZM809.045 293.091L806.937 297.625L806.959 297.635L806.98 297.645L809.045 293.091ZM815.591 297.864L811.835 301.164L811.848 301.178L811.86 301.193L815.591 297.864ZM819.591 304.364L814.924 306.159L816.157 309.364H819.591V304.364ZM819.955 304.364V309.364H824.955V304.364H819.955ZM819.955 268.909V263.909H814.955V268.909H819.955ZM845.045 268.909H850.045V263.909H845.045V268.909ZM845.045 362V367H850.045V362H845.045ZM820.136 362H815.136V367H820.136V362ZM820.136 350.545H825.136V345.545H820.136V350.545ZM819.591 350.545V345.545H816.238L814.965 348.648L819.591 350.545ZM815.409 356.909L811.816 353.432L811.815 353.433L815.409 356.909ZM808.864 361.318L810.787 365.934L810.8 365.928L810.814 365.922L808.864 361.318ZM815.318 341.636L818.477 345.513L818.484 345.506L815.318 341.636ZM819.136 335.909L814.441 334.191L814.435 334.207L814.429 334.224L819.136 335.909ZM819.136 318.227L814.422 319.894L814.435 319.929L814.448 319.964L819.136 318.227ZM815.318 312.545L812.16 316.422L812.199 316.453L812.239 316.484L815.318 312.545ZM803.5 312.545L806.65 316.428L806.658 316.422L803.5 312.545ZM799.773 318.227L795.059 316.56L795.053 316.577L795.047 316.594L799.773 318.227ZM799.773 336L795.041 337.616L795.053 337.651L795.065 337.685L799.773 336ZM803.5 341.682L800.306 345.529L800.345 345.561L800.385 345.593L803.5 341.682ZM800.136 357.909C796.093 357.909 792.435 356.864 789.054 354.757L783.765 363.243C788.747 366.348 794.24 367.909 800.136 367.909V357.909ZM789.067 354.765C785.869 352.758 783.115 349.608 780.927 344.994L771.891 349.279C774.733 355.271 778.646 360.03 783.751 363.235L789.067 354.765ZM780.937 345.015C778.857 340.577 777.682 334.678 777.682 327.091H767.682C767.682 335.625 768.991 343.09 771.881 349.258L780.937 345.015ZM777.682 327.091C777.682 319.126 778.922 313.113 781.073 308.761L772.109 304.33C769.047 310.524 767.682 318.208 767.682 327.091H777.682ZM781.063 308.782C783.365 304.177 786.161 301.125 789.317 299.259L784.228 290.651C779.081 293.694 775.089 298.369 772.119 304.309L781.063 308.782ZM789.304 299.267C792.76 297.238 796.286 296.273 799.955 296.273V286.273C794.411 286.273 789.149 287.762 784.242 290.642L789.304 299.267ZM799.955 296.273C802.825 296.273 805.111 296.775 806.937 297.625L811.154 288.557C807.768 286.982 803.993 286.273 799.955 286.273V296.273ZM806.98 297.645C808.989 298.556 810.58 299.736 811.835 301.164L819.347 294.563C817.087 291.991 814.314 289.99 811.11 288.537L806.98 297.645ZM811.86 301.193C813.233 302.731 814.241 304.382 814.924 306.159L824.258 302.569C823.123 299.618 821.464 296.936 819.322 294.535L811.86 301.193ZM819.591 309.364H819.955V299.364H819.591V309.364ZM824.955 304.364V268.909H814.955V304.364H824.955ZM819.955 273.909H845.045V263.909H819.955V273.909ZM840.045 268.909V362H850.045V268.909H840.045ZM845.045 357H820.136V367H845.045V357ZM825.136 362V350.545H815.136V362H825.136ZM820.136 345.545H819.591V355.545H820.136V345.545ZM814.965 348.648C814.242 350.41 813.203 351.998 811.816 353.432L819.002 360.386C821.251 358.062 823 355.408 824.217 352.443L814.965 348.648ZM811.815 353.433C810.534 354.758 808.926 355.862 806.914 356.714L810.814 365.922C813.953 364.593 816.709 362.757 819.003 360.385L811.815 353.433ZM806.941 356.703C805.107 357.467 802.87 357.909 800.136 357.909V367.909C803.948 367.909 807.529 367.291 810.787 365.934L806.941 356.703ZM809.409 348.636C812.751 348.636 815.865 347.641 818.477 345.513L812.16 337.76C811.499 338.299 810.673 338.636 809.409 338.636V348.636ZM818.484 345.506C820.988 343.457 822.724 340.723 823.844 337.594L814.429 334.224C813.792 336.004 812.981 337.088 812.152 337.767L818.484 345.506ZM823.832 337.627C824.99 334.461 825.5 330.913 825.5 327.091H815.5C815.5 330.057 815.101 332.388 814.441 334.191L823.832 337.627ZM825.5 327.091C825.5 323.222 824.994 319.647 823.825 316.491L814.448 319.964C815.097 321.716 815.5 324.05 815.5 327.091H825.5ZM823.85 316.56C822.732 313.398 820.979 310.625 818.398 308.606L812.239 316.484C812.99 317.072 813.783 318.087 814.422 319.894L823.85 316.56ZM818.477 308.669C815.865 306.541 812.751 305.545 809.409 305.545V315.545C810.673 315.545 811.499 315.883 812.16 316.422L818.477 308.669ZM809.409 305.545C806.067 305.545 802.953 306.541 800.342 308.669L806.658 316.422C807.319 315.883 808.145 315.545 809.409 315.545V305.545ZM800.35 308.663C797.857 310.685 796.162 313.442 795.059 316.56L804.487 319.894C805.141 318.043 805.931 317.012 806.65 316.428L800.35 308.663ZM795.047 316.594C793.968 319.715 793.5 323.253 793.5 327.091H803.5C803.5 324.02 803.88 321.649 804.498 319.861L795.047 316.594ZM793.5 327.091C793.5 330.932 793.969 334.476 795.041 337.616L804.504 334.384C803.88 332.554 803.5 330.159 803.5 327.091H793.5ZM795.065 337.685C796.172 340.775 797.859 343.497 800.306 345.529L806.694 337.835C805.929 337.2 805.131 336.134 804.48 334.315L795.065 337.685ZM800.385 345.593C802.997 347.673 806.096 348.636 809.409 348.636V338.636C808.116 338.636 807.275 338.297 806.615 337.77L800.385 345.593ZM868.909 359L866.251 363.235L866.258 363.239L866.265 363.243L868.909 359ZM858.909 347.136L854.381 349.258L854.386 349.268L854.391 349.279L858.909 347.136ZM859.091 306.545L854.619 304.309L854.614 304.32L854.609 304.33L859.091 306.545ZM869.273 294.955L866.742 290.642L866.735 290.646L866.728 290.651L869.273 294.955ZM891.545 293.091L889.437 297.625L889.459 297.635L889.48 297.645L891.545 293.091ZM898.091 297.864L894.335 301.164L894.348 301.178L894.36 301.193L898.091 297.864ZM902.091 304.364L897.424 306.159L898.657 309.364H902.091V304.364ZM902.455 304.364V309.364H907.455V304.364H902.455ZM902.455 268.909V263.909H897.455V268.909H902.455ZM927.545 268.909H932.545V263.909H927.545V268.909ZM927.545 362V367H932.545V362H927.545ZM902.636 362H897.636V367H902.636V362ZM902.636 350.545H907.636V345.545H902.636V350.545ZM902.091 350.545V345.545H898.738L897.465 348.648L902.091 350.545ZM897.909 356.909L894.316 353.432L894.315 353.433L897.909 356.909ZM891.364 361.318L893.287 365.934L893.3 365.928L893.314 365.922L891.364 361.318ZM897.818 341.636L900.977 345.513L900.984 345.506L897.818 341.636ZM901.636 335.909L896.941 334.191L896.935 334.207L896.929 334.224L901.636 335.909ZM901.636 318.227L896.922 319.894L896.935 319.929L896.948 319.964L901.636 318.227ZM897.818 312.545L894.66 316.422L894.699 316.453L894.739 316.484L897.818 312.545ZM886 312.545L889.15 316.428L889.158 316.422L886 312.545ZM882.273 318.227L877.559 316.56L877.553 316.577L877.547 316.594L882.273 318.227ZM882.273 336L877.541 337.616L877.553 337.651L877.565 337.685L882.273 336ZM886 341.682L882.806 345.529L882.845 345.561L882.885 345.593L886 341.682ZM882.636 357.909C878.593 357.909 874.935 356.864 871.554 354.757L866.265 363.243C871.247 366.348 876.74 367.909 882.636 367.909V357.909ZM871.567 354.765C868.369 352.758 865.615 349.608 863.427 344.994L854.391 349.279C857.233 355.271 861.146 360.03 866.251 363.235L871.567 354.765ZM863.437 345.015C861.357 340.577 860.182 334.678 860.182 327.091H850.182C850.182 335.625 851.491 343.09 854.381 349.258L863.437 345.015ZM860.182 327.091C860.182 319.126 861.422 313.113 863.573 308.761L854.609 304.33C851.547 310.524 850.182 318.208 850.182 327.091H860.182ZM863.563 308.782C865.865 304.177 868.661 301.125 871.817 299.259L866.728 290.651C861.581 293.694 857.589 298.369 854.619 304.309L863.563 308.782ZM871.804 299.267C875.26 297.238 878.786 296.273 882.455 296.273V286.273C876.911 286.273 871.649 287.762 866.742 290.642L871.804 299.267ZM882.455 296.273C885.325 296.273 887.611 296.775 889.437 297.625L893.654 288.557C890.268 286.982 886.493 286.273 882.455 286.273V296.273ZM889.48 297.645C891.489 298.556 893.08 299.736 894.335 301.164L901.847 294.563C899.587 291.991 896.814 289.99 893.61 288.537L889.48 297.645ZM894.36 301.193C895.733 302.731 896.741 304.382 897.424 306.159L906.758 302.569C905.623 299.618 903.964 296.936 901.822 294.535L894.36 301.193ZM902.091 309.364H902.455V299.364H902.091V309.364ZM907.455 304.364V268.909H897.455V304.364H907.455ZM902.455 273.909H927.545V263.909H902.455V273.909ZM922.545 268.909V362H932.545V268.909H922.545ZM927.545 357H902.636V367H927.545V357ZM907.636 362V350.545H897.636V362H907.636ZM902.636 345.545H902.091V355.545H902.636V345.545ZM897.465 348.648C896.742 350.41 895.703 351.998 894.316 353.432L901.502 360.386C903.751 358.062 905.5 355.408 906.717 352.443L897.465 348.648ZM894.315 353.433C893.034 354.758 891.426 355.862 889.414 356.714L893.314 365.922C896.453 364.593 899.209 362.757 901.503 360.385L894.315 353.433ZM889.441 356.703C887.607 357.467 885.37 357.909 882.636 357.909V367.909C886.448 367.909 890.029 367.291 893.287 365.934L889.441 356.703ZM891.909 348.636C895.251 348.636 898.365 347.641 900.977 345.513L894.66 337.76C893.999 338.299 893.173 338.636 891.909 338.636V348.636ZM900.984 345.506C903.488 343.457 905.224 340.723 906.344 337.594L896.929 334.224C896.292 336.004 895.481 337.088 894.652 337.767L900.984 345.506ZM906.332 337.627C907.49 334.461 908 330.913 908 327.091H898C898 330.057 897.601 332.388 896.941 334.191L906.332 337.627ZM908 327.091C908 323.222 907.494 319.647 906.325 316.491L896.948 319.964C897.597 321.716 898 324.05 898 327.091H908ZM906.35 316.56C905.232 313.398 903.479 310.625 900.898 308.606L894.739 316.484C895.49 317.072 896.283 318.087 896.922 319.894L906.35 316.56ZM900.977 308.669C898.365 306.541 895.251 305.545 891.909 305.545V315.545C893.173 315.545 893.999 315.883 894.66 316.422L900.977 308.669ZM891.909 305.545C888.567 305.545 885.453 306.541 882.842 308.669L889.158 316.422C889.819 315.883 890.645 315.545 891.909 315.545V305.545ZM882.85 308.663C880.357 310.685 878.662 313.442 877.559 316.56L886.987 319.894C887.641 318.043 888.431 317.012 889.15 316.428L882.85 308.663ZM877.547 316.594C876.468 319.715 876 323.253 876 327.091H886C886 324.02 886.38 321.649 886.998 319.861L877.547 316.594ZM876 327.091C876 330.932 876.469 334.476 877.541 337.616L887.004 334.384C886.38 332.554 886 330.159 886 327.091H876ZM877.565 337.685C878.672 340.775 880.359 343.497 882.806 345.529L889.194 337.835C888.429 337.2 887.631 336.134 886.98 334.315L877.565 337.685ZM882.885 345.593C885.497 347.673 888.596 348.636 891.909 348.636V338.636C890.616 338.636 889.775 338.297 889.115 337.77L882.885 345.593Z" fill="url(#paint4_linear_149_547)" mask="url(#path-5-outside-1_149_547)"/>
<path d="M63.5234 34.8515L56 54.625H64.0948L67.8088 43.9341L63.5234 34.8515Z" fill="white"/>
<path d="M74.4751 54.625L64.8566 34H72.7609L82.3794 54.625H74.4751Z" fill="white"/>
<path d="M79.1073 39.0143L76.917 34H84.5356L87.0116 39.0143H79.1073Z" fill="white"/>
<path d="M86.2498 54.625L79.4883 40.3389H87.4878L94.4398 54.625H86.2498Z" fill="white"/>
<path d="M90.882 39.0143L88.6916 34H101.643L104.024 39.0143H90.882Z" fill="white"/>
<path d="M100.405 54.625L93.8342 40.3389H101.643L108.5 54.625H100.405Z" fill="white"/>
<path d="M140.648 39.3636V35.5455H155.818V39.3636H150.568V53H145.898V39.3636H140.648ZM157.602 53V35.5455H170.181V39.3636H162.34V42.3636H169.533V46.1818H162.34V49.1818H170.147V53H157.602ZM188.827 42.0909H184.02C183.986 41.6932 183.895 41.3324 183.747 41.0085C183.605 40.6847 183.406 40.4062 183.151 40.1733C182.901 39.9347 182.597 39.7528 182.239 39.6278C181.881 39.4972 181.474 39.4318 181.02 39.4318C180.224 39.4318 179.551 39.625 179 40.0114C178.455 40.3977 178.04 40.9517 177.756 41.6733C177.477 42.3949 177.338 43.2614 177.338 44.2727C177.338 45.3409 177.48 46.2358 177.764 46.9574C178.054 47.6733 178.472 48.2131 179.017 48.5767C179.563 48.9347 180.219 49.1136 180.986 49.1136C181.423 49.1136 181.815 49.0597 182.162 48.9517C182.509 48.8381 182.81 48.6761 183.065 48.4659C183.321 48.2557 183.528 48.0028 183.688 47.7074C183.852 47.4062 183.963 47.0682 184.02 46.6932L188.827 46.7273C188.77 47.4659 188.563 48.2187 188.205 48.9858C187.847 49.7472 187.338 50.4517 186.679 51.0994C186.026 51.7415 185.216 52.2585 184.25 52.6506C183.284 53.0426 182.162 53.2386 180.884 53.2386C179.281 53.2386 177.844 52.8949 176.571 52.2074C175.304 51.5199 174.301 50.5085 173.562 49.1733C172.83 47.8381 172.463 46.2045 172.463 44.2727C172.463 42.3295 172.838 40.6932 173.588 39.3636C174.338 38.0284 175.349 37.0199 176.622 36.3381C177.895 35.6506 179.315 35.3068 180.884 35.3068C181.986 35.3068 183 35.4574 183.926 35.7585C184.852 36.0597 185.665 36.5 186.364 37.0795C187.063 37.6534 187.625 38.3608 188.051 39.2017C188.477 40.0426 188.736 41.0057 188.827 42.0909ZM190.977 53V35.5455H195.715V42.3636H201.988V35.5455H206.727V53H201.988V46.1818H195.715V53H190.977ZM224.079 35.5455V53H220.124L213.817 43.8295H213.715V53H208.977V35.5455H212.999L219.204 44.6818H219.34V35.5455H224.079ZM243.229 44.2727C243.229 46.2159 242.852 47.8551 242.096 49.1903C241.34 50.5199 240.32 51.5284 239.036 52.2159C237.752 52.8977 236.32 53.2386 234.741 53.2386C233.15 53.2386 231.712 52.8949 230.428 52.2074C229.15 51.5142 228.133 50.5028 227.377 49.1733C226.627 47.8381 226.252 46.2045 226.252 44.2727C226.252 42.3295 226.627 40.6932 227.377 39.3636C228.133 38.0284 229.15 37.0199 230.428 36.3381C231.712 35.6506 233.15 35.3068 234.741 35.3068C236.32 35.3068 237.752 35.6506 239.036 36.3381C240.32 37.0199 241.34 38.0284 242.096 39.3636C242.852 40.6932 243.229 42.3295 243.229 44.2727ZM238.354 44.2727C238.354 43.2273 238.215 42.3466 237.937 41.6307C237.664 40.9091 237.258 40.3636 236.718 39.9943C236.184 39.6193 235.525 39.4318 234.741 39.4318C233.957 39.4318 233.295 39.6193 232.755 39.9943C232.221 40.3636 231.815 40.9091 231.536 41.6307C231.263 42.3466 231.127 43.2273 231.127 44.2727C231.127 45.3182 231.263 46.2017 231.536 46.9233C231.815 47.6392 232.221 48.1847 232.755 48.5597C233.295 48.929 233.957 49.1136 234.741 49.1136C235.525 49.1136 236.184 48.929 236.718 48.5597C237.258 48.1847 237.664 47.6392 237.937 46.9233C238.215 46.2017 238.354 45.3182 238.354 44.2727ZM254.831 41C254.786 40.4318 254.572 39.9886 254.192 39.6705C253.817 39.3523 253.246 39.1932 252.479 39.1932C251.99 39.1932 251.589 39.2528 251.277 39.3722C250.97 39.4858 250.743 39.642 250.595 39.8409C250.447 40.0398 250.371 40.267 250.365 40.5227C250.354 40.733 250.391 40.9233 250.476 41.0938C250.567 41.2585 250.709 41.4091 250.902 41.5455C251.095 41.6761 251.342 41.7955 251.643 41.9034C251.945 42.0114 252.303 42.108 252.717 42.1932L254.149 42.5C255.115 42.7045 255.942 42.9744 256.629 43.3097C257.317 43.6449 257.879 44.0398 258.317 44.4943C258.754 44.9432 259.075 45.4489 259.28 46.0114C259.49 46.5739 259.598 47.1875 259.604 47.8523C259.598 49 259.311 49.9716 258.743 50.767C258.175 51.5625 257.362 52.1676 256.305 52.5824C255.254 52.9972 253.99 53.2045 252.513 53.2045C250.996 53.2045 249.672 52.9801 248.541 52.5312C247.416 52.0824 246.541 51.392 245.916 50.4602C245.297 49.5227 244.984 48.3239 244.979 46.8636H249.479C249.507 47.3977 249.641 47.8466 249.879 48.2102C250.118 48.5739 250.453 48.8494 250.885 49.0369C251.322 49.2244 251.842 49.3182 252.445 49.3182C252.95 49.3182 253.374 49.2557 253.714 49.1307C254.055 49.0057 254.314 48.8324 254.49 48.6108C254.666 48.3892 254.757 48.1364 254.763 47.8523C254.757 47.5852 254.669 47.3523 254.499 47.1534C254.334 46.9489 254.061 46.767 253.68 46.608C253.3 46.4432 252.786 46.2898 252.138 46.1477L250.399 45.7727C248.854 45.4375 247.635 44.8778 246.743 44.0938C245.857 43.304 245.416 42.2273 245.422 40.8636C245.416 39.7557 245.712 38.7869 246.308 37.9574C246.911 37.1222 247.743 36.4716 248.805 36.0057C249.874 35.5398 251.098 35.3068 252.479 35.3068C253.888 35.3068 255.107 35.5426 256.135 36.0142C257.163 36.4858 257.956 37.1506 258.513 38.0085C259.075 38.8608 259.359 39.858 259.365 41H254.831ZM261.406 53V35.5455H268.94C270.236 35.5455 271.369 35.8011 272.341 36.3125C273.313 36.8239 274.068 37.5426 274.608 38.4688C275.148 39.3949 275.418 40.4773 275.418 41.7159C275.418 42.9659 275.139 44.0483 274.582 44.9631C274.031 45.8778 273.256 46.5824 272.256 47.0767C271.261 47.571 270.099 47.8182 268.77 47.8182H264.27V44.1364H267.815C268.372 44.1364 268.847 44.0398 269.239 43.8466C269.636 43.6477 269.94 43.3665 270.151 43.0028C270.366 42.6392 270.474 42.2102 270.474 41.7159C270.474 41.2159 270.366 40.7898 270.151 40.4375C269.94 40.0795 269.636 39.8068 269.239 39.6193C268.847 39.4261 268.372 39.3295 267.815 39.3295H266.145V53H261.406ZM279.511 53H274.397L280.158 35.5455H286.636L292.397 53H287.283L283.465 40.3523H283.329L279.511 53ZM278.556 46.1136H288.17V49.6591H278.556V46.1136ZM294.078 53V35.5455H301.612C302.908 35.5455 304.041 35.7812 305.013 36.2528C305.984 36.7244 306.74 37.4034 307.28 38.2898C307.82 39.1761 308.089 40.2386 308.089 41.4773C308.089 42.7273 307.811 43.7812 307.254 44.6392C306.703 45.4972 305.928 46.1449 304.928 46.5824C303.933 47.0199 302.771 47.2386 301.442 47.2386H296.942V43.5568H300.487C301.044 43.5568 301.518 43.4886 301.911 43.3523C302.308 43.2102 302.612 42.9858 302.822 42.679C303.038 42.3722 303.146 41.9716 303.146 41.4773C303.146 40.9773 303.038 40.571 302.822 40.2585C302.612 39.9403 302.308 39.7074 301.911 39.5597C301.518 39.4062 301.044 39.3295 300.487 39.3295H298.817V53H294.078ZM304.305 44.9886L308.669 53H303.521L299.26 44.9886H304.305ZM315.189 35.5455L318.053 40.625H318.189L321.087 35.5455H326.371L321.155 44.2727L326.575 53H321.155L318.189 47.8182H318.053L315.087 53H309.7L315.053 44.2727L309.871 35.5455H315.189Z" fill="white"/>
<g opacity="0.25">
<path d="M136.957 542.193L135.53 548.775H143.472L142.045 542.193C143.409 541.552 144.319 540.416 144.319 539.121C144.319 537.123 142.162 535.501 139.501 535.501C136.84 535.501 134.681 537.123 134.681 539.121C134.681 540.417 135.592 541.552 136.957 542.193Z" fill="url(#paint5_linear_149_547)"/>
<path d="M131.07 505.365L142.742 512.618L148.099 511.307L131.651 500.545L131.07 505.365Z" fill="url(#paint6_linear_149_547)"/>
<path d="M161.363 507.189L166.667 511.97L169.146 509.313L165.254 506.125L161.363 507.189Z" fill="url(#paint7_linear_149_547)"/>
<path d="M156.411 515.423L155.348 519.408L168.792 515.955L164.193 513.298L156.411 515.423Z" fill="url(#paint8_linear_149_547)"/>
<path d="M107.243 515.691L114.672 511.172L107.243 509.312V515.691Z" fill="url(#paint9_linear_149_547)"/>
<path d="M123.692 514.892L121.835 517.882H132.977L131.651 514.892H123.692Z" fill="url(#paint10_linear_149_547)"/>
<path d="M120.709 484.482C121.561 481.487 123.276 478.196 125.784 476.311C128.292 474.428 132.672 473.14 136.656 472.497C132.672 471.859 128.292 470.57 125.782 468.685C123.276 466.802 121.559 463.511 120.708 460.519C119.855 463.511 118.14 466.803 115.63 468.688C113.124 470.57 108.742 471.859 104.758 472.499C108.744 473.14 113.124 474.428 115.632 476.311C118.139 478.196 119.857 481.487 120.709 484.482Z" fill="url(#paint11_linear_149_547)"/>
<path d="M172.682 489.7C173.193 487.901 174.225 485.923 175.73 484.79C177.238 483.659 179.867 482.884 182.262 482.498C179.867 482.114 177.238 481.339 175.73 480.208C174.223 479.077 173.193 477.1 172.68 475.3C172.169 477.1 171.136 479.077 169.631 480.208C168.123 481.341 165.491 482.114 163.095 482.5C165.491 482.884 168.124 483.659 169.631 484.792C171.136 485.923 172.169 487.9 172.682 489.7Z" fill="url(#paint12_linear_149_547)"/>
<path d="M205.858 492.089L217.506 449.93L208.02 435.68C203.256 428.522 193.514 424 182.86 424H96.1433C85.4866 424 75.7474 428.522 70.9823 435.68L61.4958 449.93L73.1439 492.089L49.0391 525.151V587H229.961V525.151L205.858 492.089ZM205.907 508.376C204.109 508.665 202.133 509.246 201.003 510.097C199.869 510.946 199.097 512.43 198.711 513.781C198.327 512.43 197.551 510.946 196.421 510.097C195.288 509.245 193.311 508.665 191.516 508.376C193.311 508.087 195.288 507.504 196.421 506.655C197.551 505.804 198.324 504.319 198.711 502.971C199.093 504.319 199.869 505.804 201.003 506.655C202.132 507.504 204.109 508.087 205.907 508.376ZM82.6198 520.257L88.9874 516.173L92.9655 511.577H102.515L104.107 507.495L113.657 502.388L126.389 503.408L127.981 498.303L144.693 495.748L156.629 503.408L164.588 501.366L174.933 508.515L183.688 511.577L196.112 520.257H185.261L179.667 515.891L178.663 520.257H82.6198ZM158.786 530.094V553.695H120.216V530.094H158.786ZM79.536 502.425C81.7315 502.073 84.1456 501.361 85.5281 500.325C86.909 499.287 87.8545 497.476 88.3237 495.824C88.7933 497.473 89.7389 499.287 91.1197 500.325C92.5022 501.361 94.9163 502.071 97.113 502.425C94.9163 502.777 92.5022 503.489 91.1214 504.525C89.7405 505.563 88.795 507.377 88.3237 509.026C87.8541 507.377 86.909 505.563 85.5281 504.525C84.1469 503.489 81.7332 502.777 79.536 502.425ZM80.9478 439.423C83.8239 435.102 89.7079 432.368 96.1429 432.368H182.86C189.292 432.368 195.176 435.102 198.052 439.423L203.44 447.513H161.782V435.898H117.22V447.513H75.561L80.9478 439.423ZM155.416 440.68V447.513H123.587V440.68H155.416ZM205.14 453.492L194.902 490.555H84.0994L73.8584 453.492H205.14ZM60.1811 529.21H113.85V542.165H60.1811V529.21ZM218.818 578.63H60.1811V567.671H218.818V578.63H218.818ZM218.818 562.888H60.1811V546.946H113.85V558.475H165.152V556.086V546.946H218.818V562.888H218.818ZM218.818 542.165H165.152V529.21H218.818V542.165Z" fill="url(#paint13_linear_149_547)"/>
</g>
<g opacity="0.38">
<path d="M1135.64 231.412C1134.01 231.412 1132.38 230.791 1131.14 229.549L1095.36 193.765C1092.87 191.282 1092.87 187.255 1095.36 184.771C1097.84 182.287 1101.87 182.287 1104.35 184.771L1140.14 220.554C1142.62 223.038 1142.62 227.065 1140.14 229.549C1138.9 230.791 1137.27 231.412 1135.64 231.412Z" fill="url(#paint14_linear_149_547)"/>
<path d="M1103.62 218.19C1101 218.19 1098.55 216.565 1097.63 213.96L1087.25 184.781C1086.42 182.468 1087 179.888 1088.74 178.152C1090.48 176.415 1093.06 175.835 1095.37 176.657L1125.73 187.454C1129.03 188.631 1130.76 192.268 1129.59 195.578C1128.41 198.888 1124.77 200.614 1121.46 199.439L1103.72 193.127L1109.61 209.696C1110.79 213.005 1109.06 216.643 1105.75 217.821C1105.04 218.071 1104.32 218.19 1103.62 218.19Z" fill="url(#paint15_linear_149_547)"/>
<path d="M995.483 90.9819C988.005 90.9819 982.274 95.2272 980.066 101.851H1010.2C1008.2 95.0881 1002.86 90.9819 995.483 90.9819Z" fill="url(#paint16_linear_149_547)"/>
<path d="M1098.05 42H893.03C887.5 42 883 46.5006 883 52.0323V146.454C883 151.985 887.5 156.485 893.03 156.485H1098.05C1103.58 156.485 1108.08 151.985 1108.08 146.454V52.0323C1108.08 46.5006 1103.58 42 1098.05 42ZM963.723 120.338C963.339 129.966 955.126 136.424 943.286 136.424C935.516 136.424 928.352 133.605 923.115 128.487C920.602 126.031 920.556 122.005 923.012 119.492C925.466 116.98 929.493 116.934 932.006 119.389C934.893 122.211 938.794 123.703 943.286 123.703C945.063 123.703 950.869 123.425 951.012 119.842C951.079 118.066 949.204 117.015 941.893 114.748C934.199 112.363 922.57 108.757 922.57 95.9591C922.57 85.373 931.153 78.2605 943.927 78.2605C949.558 78.2605 954.875 79.6869 959.732 82.499C962.772 84.2595 963.81 88.1504 962.048 91.1906C960.288 94.2308 956.397 95.2663 953.357 93.5066C950.423 91.8071 947.337 90.9803 943.927 90.9803C941.33 90.9803 935.291 91.4653 935.291 95.9583C935.291 98.7424 937.229 99.9831 945.661 102.598C953.034 104.886 964.176 108.341 963.723 120.338ZM1017.43 114.573H980.055C982.256 121.251 987.993 125.533 995.483 125.533C1000.9 125.533 1005.64 123.631 1008.82 120.177C1011.2 117.594 1015.22 117.431 1017.81 119.81C1020.39 122.191 1020.55 126.215 1018.17 128.798C1012.55 134.895 1004.5 138.253 995.484 138.253C978.879 138.253 966.357 125.339 966.357 108.212C966.357 91.138 978.879 78.2622 995.484 78.2622C1011.88 78.2622 1023.79 90.8582 1023.79 108.212C1023.79 111.725 1020.94 114.573 1017.43 114.573ZM1040.64 131.892C1040.64 135.405 1037.79 138.253 1034.28 138.253C1030.76 138.253 1027.92 135.405 1027.92 131.892V64.049C1027.92 60.5365 1030.76 57.6887 1034.28 57.6887C1037.79 57.6887 1040.64 60.5365 1040.64 64.049V131.892ZM1067.76 131.892C1067.76 135.405 1064.91 138.253 1061.4 138.253C1057.88 138.253 1055.04 135.405 1055.04 131.892V64.049C1055.04 60.5365 1057.88 57.6887 1061.4 57.6887C1064.91 57.6887 1067.76 60.5365 1067.76 64.049V131.892Z" fill="url(#paint17_linear_149_547)"/>
</g>
</g>
<defs>
<linearGradient id="paint0_linear_149_547" x1="-63.757" y1="-34.0073" x2="-63.757" y2="347.166" gradientUnits="userSpaceOnUse">
<stop stop-color="#FF9E0B"/>
<stop offset="1" stop-color="#EC4899"/>
</linearGradient>
<linearGradient id="paint1_linear_149_547" x1="1173" y1="695.827" x2="1173" y2="969.442" gradientUnits="userSpaceOnUse">
<stop stop-color="#FF9E0B"/>
<stop offset="1" stop-color="#F24E52"/>
</linearGradient>
<linearGradient id="paint2_linear_149_547" x1="882.5" y1="530" x2="882.5" y2="919" gradientUnits="userSpaceOnUse">
<stop stop-color="#FF9E0B"/>
<stop offset="1" stop-color="#9C67E7"/>
</linearGradient>
<linearGradient id="paint3_linear_149_547" x1="491" y1="30" x2="491" y2="162" gradientUnits="userSpaceOnUse">
<stop stop-color="#FF9E0B"/>
<stop offset="1" stop-color="#DA46EB"/>
</linearGradient>
<linearGradient id="paint4_linear_149_547" x1="600.5" y1="238" x2="600.5" y2="393" gradientUnits="userSpaceOnUse">
<stop stop-color="#FF9E0B"/>
<stop offset="0.49" stop-color="#F24E52"/>
</linearGradient>
<linearGradient id="paint5_linear_149_547" x1="139.5" y1="535.501" x2="139.5" y2="548.775" gradientUnits="userSpaceOnUse">
<stop stop-color="#4A74F4"/>
<stop offset="1" stop-color="#9C67E7"/>
</linearGradient>
<linearGradient id="paint6_linear_149_547" x1="139.584" y1="500.545" x2="139.584" y2="512.618" gradientUnits="userSpaceOnUse">
<stop stop-color="#4A74F4"/>
<stop offset="1" stop-color="#9C67E7"/>
</linearGradient>
<linearGradient id="paint7_linear_149_547" x1="165.255" y1="506.125" x2="165.255" y2="511.97" gradientUnits="userSpaceOnUse">
<stop stop-color="#4A74F4"/>
<stop offset="1" stop-color="#9C67E7"/>
</linearGradient>
<linearGradient id="paint8_linear_149_547" x1="162.07" y1="513.298" x2="162.07" y2="519.408" gradientUnits="userSpaceOnUse">
<stop stop-color="#4A74F4"/>
<stop offset="1" stop-color="#9C67E7"/>
</linearGradient>
<linearGradient id="paint9_linear_149_547" x1="110.957" y1="509.312" x2="110.957" y2="515.691" gradientUnits="userSpaceOnUse">
<stop stop-color="#4A74F4"/>
<stop offset="1" stop-color="#9C67E7"/>
</linearGradient>
<linearGradient id="paint10_linear_149_547" x1="127.406" y1="514.892" x2="127.406" y2="517.882" gradientUnits="userSpaceOnUse">
<stop stop-color="#4A74F4"/>
<stop offset="1" stop-color="#9C67E7"/>
</linearGradient>
<linearGradient id="paint11_linear_149_547" x1="120.707" y1="460.519" x2="120.707" y2="484.482" gradientUnits="userSpaceOnUse">
<stop stop-color="#4A74F4"/>
<stop offset="1" stop-color="#9C67E7"/>
</linearGradient>
<linearGradient id="paint12_linear_149_547" x1="172.679" y1="475.3" x2="172.679" y2="489.7" gradientUnits="userSpaceOnUse">
<stop stop-color="#4A74F4"/>
<stop offset="1" stop-color="#9C67E7"/>
</linearGradient>
<linearGradient id="paint13_linear_149_547" x1="139.5" y1="424" x2="139.5" y2="587" gradientUnits="userSpaceOnUse">
<stop stop-color="#4A74F4"/>
<stop offset="1" stop-color="#9C67E7"/>
</linearGradient>
<linearGradient id="paint14_linear_149_547" x1="1117.75" y1="182.908" x2="1117.75" y2="231.412" gradientUnits="userSpaceOnUse">
<stop stop-color="#F24E52"/>
<stop offset="1" stop-color="#EC4899"/>
</linearGradient>
<linearGradient id="paint15_linear_149_547" x1="1108.42" y1="176.289" x2="1108.42" y2="218.19" gradientUnits="userSpaceOnUse">
<stop stop-color="#F24E52"/>
<stop offset="1" stop-color="#EC4899"/>
</linearGradient>
<linearGradient id="paint16_linear_149_547" x1="995.133" y1="90.9819" x2="995.133" y2="101.851" gradientUnits="userSpaceOnUse">
<stop stop-color="#F24E52"/>
<stop offset="1" stop-color="#EC4899"/>
</linearGradient>
<linearGradient id="paint17_linear_149_547" x1="995.539" y1="42" x2="995.539" y2="156.485" gradientUnits="userSpaceOnUse">
<stop stop-color="#F24E52"/>
<stop offset="1" stop-color="#EC4899"/>
</linearGradient>
<clipPath id="clip0_149_547">
<rect width="1200" height="630" fill="white"/>
</clipPath>
</defs>
</svg>
