<svg width="1200" height="630" viewBox="0 0 1200 630" fill="none" xmlns="http://www.w3.org/2000/svg">
<g clip-path="url(#clip0_146_129)">
<rect width="1200" height="630" fill="black"/>
<rect x="-427.809" y="-32.4844" width="729.486" height="376.173" transform="rotate(-19.4848 -427.809 -32.4844)" stroke="url(#paint0_linear_146_129)" stroke-width="5"/>
<rect x="883" y="695.827" width="580" height="273.616" transform="rotate(-35.26 883 695.827)" fill="url(#paint1_linear_146_129)"/>
<circle cx="882.5" cy="724.5" r="193" stroke="url(#paint2_linear_146_129)" stroke-width="3"/>
<path opacity="0.49" d="M415 58.3636C414.121 58.3636 413.367 58.0568 412.739 57.4432C412.117 56.822 411.811 56.0682 411.818 55.1818C411.811 54.3182 412.117 53.5795 412.739 52.9659C413.367 52.3523 414.121 52.0455 415 52.0455C415.833 52.0455 416.568 52.3523 417.205 52.9659C417.848 53.5795 418.174 54.3182 418.182 55.1818C418.174 55.7727 418.019 56.3106 417.716 56.7955C417.42 57.2727 417.034 57.6553 416.557 57.9432C416.08 58.2235 415.561 58.3636 415 58.3636ZM459.003 58.3636C458.124 58.3636 457.37 58.0568 456.741 57.4432C456.12 56.822 455.813 56.0682 455.821 55.1818C455.813 54.3182 456.12 53.5795 456.741 52.9659C457.37 52.3523 458.124 52.0455 459.003 52.0455C459.836 52.0455 460.571 52.3523 461.207 52.9659C461.851 53.5795 462.177 54.3182 462.184 55.1818C462.177 55.7727 462.021 56.3106 461.718 56.7955C461.423 57.2727 461.037 57.6553 460.559 57.9432C460.082 58.2235 459.563 58.3636 459.003 58.3636ZM503.005 58.3636C502.126 58.3636 501.372 58.0568 500.744 57.4432C500.122 56.822 499.816 56.0682 499.823 55.1818C499.816 54.3182 500.122 53.5795 500.744 52.9659C501.372 52.3523 502.126 52.0455 503.005 52.0455C503.838 52.0455 504.573 52.3523 505.21 52.9659C505.853 53.5795 506.179 54.3182 506.187 55.1818C506.179 55.7727 506.024 56.3106 505.721 56.7955C505.425 57.2727 505.039 57.6553 504.562 57.9432C504.085 58.2235 503.566 58.3636 503.005 58.3636ZM547.008 58.3636C546.129 58.3636 545.375 58.0568 544.746 57.4432C544.125 56.822 543.818 56.0682 543.826 55.1818C543.818 54.3182 544.125 53.5795 544.746 52.9659C545.375 52.3523 546.129 52.0455 547.008 52.0455C547.841 52.0455 548.576 52.3523 549.212 52.9659C549.856 53.5795 550.182 54.3182 550.189 55.1818C550.182 55.7727 550.026 56.3106 549.723 56.7955C549.428 57.2727 549.042 57.6553 548.564 57.9432C548.087 58.2235 547.568 58.3636 547.008 58.3636ZM415 91.3636C414.121 91.3636 413.367 91.0568 412.739 90.4432C412.117 89.822 411.811 89.0682 411.818 88.1818C411.811 87.3182 412.117 86.5795 412.739 85.9659C413.367 85.3523 414.121 85.0455 415 85.0455C415.833 85.0455 416.568 85.3523 417.205 85.9659C417.848 86.5795 418.174 87.3182 418.182 88.1818C418.174 88.7727 418.019 89.3106 417.716 89.7955C417.42 90.2727 417.034 90.6553 416.557 90.9432C416.08 91.2235 415.561 91.3636 415 91.3636ZM459.003 91.3636C458.124 91.3636 457.37 91.0568 456.741 90.4432C456.12 89.822 455.813 89.0682 455.821 88.1818C455.813 87.3182 456.12 86.5795 456.741 85.9659C457.37 85.3523 458.124 85.0455 459.003 85.0455C459.836 85.0455 460.571 85.3523 461.207 85.9659C461.851 86.5795 462.177 87.3182 462.184 88.1818C462.177 88.7727 462.021 89.3106 461.718 89.7955C461.423 90.2727 461.037 90.6553 460.559 90.9432C460.082 91.2235 459.563 91.3636 459.003 91.3636ZM503.005 91.3636C502.126 91.3636 501.372 91.0568 500.744 90.4432C500.122 89.822 499.816 89.0682 499.823 88.1818C499.816 87.3182 500.122 86.5795 500.744 85.9659C501.372 85.3523 502.126 85.0455 503.005 85.0455C503.838 85.0455 504.573 85.3523 505.21 85.9659C505.853 86.5795 506.179 87.3182 506.187 88.1818C506.179 88.7727 506.024 89.3106 505.721 89.7955C505.425 90.2727 505.039 90.6553 504.562 90.9432C504.085 91.2235 503.566 91.3636 503.005 91.3636ZM547.008 91.3636C546.129 91.3636 545.375 91.0568 544.746 90.4432C544.125 89.822 543.818 89.0682 543.826 88.1818C543.818 87.3182 544.125 86.5795 544.746 85.9659C545.375 85.3523 546.129 85.0455 547.008 85.0455C547.841 85.0455 548.576 85.3523 549.212 85.9659C549.856 86.5795 550.182 87.3182 550.189 88.1818C550.182 88.7727 550.026 89.3106 549.723 89.7955C549.428 90.2727 549.042 90.6553 548.564 90.9432C548.087 91.2235 547.568 91.3636 547.008 91.3636ZM415 124.364C414.121 124.364 413.367 124.057 412.739 123.443C412.117 122.822 411.811 122.068 411.818 121.182C411.811 120.318 412.117 119.58 412.739 118.966C413.367 118.352 414.121 118.045 415 118.045C415.833 118.045 416.568 118.352 417.205 118.966C417.848 119.58 418.174 120.318 418.182 121.182C418.174 121.773 418.019 122.311 417.716 122.795C417.42 123.273 417.034 123.655 416.557 123.943C416.08 124.223 415.561 124.364 415 124.364ZM459.003 124.364C458.124 124.364 457.37 124.057 456.741 123.443C456.12 122.822 455.813 122.068 455.821 121.182C455.813 120.318 456.12 119.58 456.741 118.966C457.37 118.352 458.124 118.045 459.003 118.045C459.836 118.045 460.571 118.352 461.207 118.966C461.851 119.58 462.177 120.318 462.184 121.182C462.177 121.773 462.021 122.311 461.718 122.795C461.423 123.273 461.037 123.655 460.559 123.943C460.082 124.223 459.563 124.364 459.003 124.364ZM503.005 124.364C502.126 124.364 501.372 124.057 500.744 123.443C500.122 122.822 499.816 122.068 499.823 121.182C499.816 120.318 500.122 119.58 500.744 118.966C501.372 118.352 502.126 118.045 503.005 118.045C503.838 118.045 504.573 118.352 505.21 118.966C505.853 119.58 506.179 120.318 506.187 121.182C506.179 121.773 506.024 122.311 505.721 122.795C505.425 123.273 505.039 123.655 504.562 123.943C504.085 124.223 503.566 124.364 503.005 124.364ZM547.008 124.364C546.129 124.364 545.375 124.057 544.746 123.443C544.125 122.822 543.818 122.068 543.826 121.182C543.818 120.318 544.125 119.58 544.746 118.966C545.375 118.352 546.129 118.045 547.008 118.045C547.841 118.045 548.576 118.352 549.212 118.966C549.856 119.58 550.182 120.318 550.189 121.182C550.182 121.773 550.026 122.311 549.723 122.795C549.428 123.273 549.042 123.655 548.564 123.943C548.087 124.223 547.568 124.364 547.008 124.364ZM415 157.364C414.121 157.364 413.367 157.057 412.739 156.443C412.117 155.822 411.811 155.068 411.818 154.182C411.811 153.318 412.117 152.58 412.739 151.966C413.367 151.352 414.121 151.045 415 151.045C415.833 151.045 416.568 151.352 417.205 151.966C417.848 152.58 418.174 153.318 418.182 154.182C418.174 154.773 418.019 155.311 417.716 155.795C417.42 156.273 417.034 156.655 416.557 156.943C416.08 157.223 415.561 157.364 415 157.364ZM459.003 157.364C458.124 157.364 457.37 157.057 456.741 156.443C456.12 155.822 455.813 155.068 455.821 154.182C455.813 153.318 456.12 152.58 456.741 151.966C457.37 151.352 458.124 151.045 459.003 151.045C459.836 151.045 460.571 151.352 461.207 151.966C461.851 152.58 462.177 153.318 462.184 154.182C462.177 154.773 462.021 155.311 461.718 155.795C461.423 156.273 461.037 156.655 460.559 156.943C460.082 157.223 459.563 157.364 459.003 157.364ZM503.005 157.364C502.126 157.364 501.372 157.057 500.744 156.443C500.122 155.822 499.816 155.068 499.823 154.182C499.816 153.318 500.122 152.58 500.744 151.966C501.372 151.352 502.126 151.045 503.005 151.045C503.838 151.045 504.573 151.352 505.21 151.966C505.853 152.58 506.179 153.318 506.187 154.182C506.179 154.773 506.024 155.311 505.721 155.795C505.425 156.273 505.039 156.655 504.562 156.943C504.085 157.223 503.566 157.364 503.005 157.364ZM547.008 157.364C546.129 157.364 545.375 157.057 544.746 156.443C544.125 155.822 543.818 155.068 543.826 154.182C543.818 153.318 544.125 152.58 544.746 151.966C545.375 151.352 546.129 151.045 547.008 151.045C547.841 151.045 548.576 151.352 549.212 151.966C549.856 152.58 550.182 153.318 550.189 154.182C550.182 154.773 550.026 155.311 549.723 155.795C549.428 156.273 549.042 156.655 548.564 156.943C548.087 157.223 547.568 157.364 547.008 157.364Z" fill="url(#paint3_linear_146_129)"/>
<mask id="path-5-outside-1_146_129" maskUnits="userSpaceOnUse" x="80" y="266" width="1050" height="112" fill="black">
<rect fill="white" x="80" y="266" width="1050" height="112"/>
<path d="M121.818 372.273C114.364 372.273 107.939 370.848 102.545 368C97.1818 365.121 93.0455 361 90.1364 355.636C87.2576 350.242 85.8182 343.788 85.8182 336.273C85.8182 329.061 87.2727 322.758 90.1818 317.364C93.0909 311.97 97.197 307.773 102.5 304.773C107.803 301.773 114.061 300.273 121.273 300.273C126.545 300.273 131.318 301.091 135.591 302.727C139.864 304.364 143.515 306.742 146.545 309.864C149.576 312.955 151.909 316.712 153.545 321.136C155.182 325.561 156 330.545 156 336.091V341.909H93.6364V328.091H132.909C132.879 326.091 132.364 324.333 131.364 322.818C130.394 321.273 129.076 320.076 127.409 319.227C125.773 318.348 123.909 317.909 121.818 317.909C119.788 317.909 117.924 318.348 116.227 319.227C114.53 320.076 113.167 321.258 112.136 322.773C111.136 324.288 110.606 326.061 110.545 328.091V343C110.545 345.242 111.015 347.242 111.955 349C112.894 350.758 114.242 352.136 116 353.136C117.758 354.136 119.879 354.636 122.364 354.636C124.091 354.636 125.667 354.394 127.091 353.909C128.545 353.424 129.788 352.727 130.818 351.818C131.848 350.879 132.606 349.758 133.091 348.455H156C155.212 353.303 153.348 357.515 150.409 361.091C147.47 364.636 143.576 367.394 138.727 369.364C133.909 371.303 128.273 372.273 121.818 372.273ZM212.057 324.455V343.364H168.42V324.455H212.057ZM222.807 277.909H250.989L269.17 315.727H269.898L288.08 277.909H316.261L282.08 341.727V371H256.989V341.727L222.807 277.909ZM365.011 340.455V301.182H390.102V371H366.284V357.727H365.557C364.042 362.182 361.39 365.667 357.602 368.182C353.814 370.667 349.314 371.909 344.102 371.909C339.223 371.909 334.951 370.788 331.284 368.545C327.648 366.303 324.814 363.212 322.784 359.273C320.784 355.333 319.769 350.818 319.739 345.727V301.182H344.83V340.455C344.86 343.909 345.739 346.621 347.466 348.591C349.223 350.561 351.678 351.545 354.83 351.545C356.92 351.545 358.723 351.106 360.239 350.227C361.784 349.318 362.966 348.045 363.784 346.409C364.633 344.742 365.042 342.758 365.011 340.455ZM428.136 371.909C423.167 371.909 418.591 370.606 414.409 368C410.258 365.394 406.924 361.439 404.409 356.136C401.924 350.833 400.682 344.152 400.682 336.091C400.682 327.667 401.985 320.818 404.591 315.545C407.227 310.273 410.621 306.409 414.773 303.955C418.955 301.5 423.348 300.273 427.955 300.273C431.409 300.273 434.439 300.879 437.045 302.091C439.652 303.273 441.833 304.864 443.591 306.864C445.348 308.833 446.682 311 447.591 313.364H447.955V277.909H473.045V371H448.136V359.545H447.591C446.621 361.909 445.227 364.03 443.409 365.909C441.621 367.758 439.439 369.227 436.864 370.318C434.318 371.379 431.409 371.909 428.136 371.909ZM437.409 352.636C439.712 352.636 441.682 351.97 443.318 350.636C444.985 349.273 446.258 347.364 447.136 344.909C448.045 342.424 448.5 339.485 448.5 336.091C448.5 332.636 448.045 329.682 447.136 327.227C446.258 324.742 444.985 322.848 443.318 321.545C441.682 320.212 439.712 319.545 437.409 319.545C435.106 319.545 433.136 320.212 431.5 321.545C429.894 322.848 428.652 324.742 427.773 327.227C426.924 329.682 426.5 332.636 426.5 336.091C426.5 339.545 426.924 342.515 427.773 345C428.652 347.455 429.894 349.348 431.5 350.682C433.136 351.985 435.106 352.636 437.409 352.636ZM510.636 371.909C505.667 371.909 501.091 370.606 496.909 368C492.758 365.394 489.424 361.439 486.909 356.136C484.424 350.833 483.182 344.152 483.182 336.091C483.182 327.667 484.485 320.818 487.091 315.545C489.727 310.273 493.121 306.409 497.273 303.955C501.455 301.5 505.848 300.273 510.455 300.273C513.909 300.273 516.939 300.879 519.545 302.091C522.152 303.273 524.333 304.864 526.091 306.864C527.848 308.833 529.182 311 530.091 313.364H530.455V277.909H555.545V371H530.636V359.545H530.091C529.121 361.909 527.727 364.03 525.909 365.909C524.121 367.758 521.939 369.227 519.364 370.318C516.818 371.379 513.909 371.909 510.636 371.909ZM519.909 352.636C522.212 352.636 524.182 351.97 525.818 350.636C527.485 349.273 528.758 347.364 529.636 344.909C530.545 342.424 531 339.485 531 336.091C531 332.636 530.545 329.682 529.636 327.227C528.758 324.742 527.485 322.848 525.818 321.545C524.182 320.212 522.212 319.545 519.909 319.545C517.606 319.545 515.636 320.212 514 321.545C512.394 322.848 511.152 324.742 510.273 327.227C509.424 329.682 509 332.636 509 336.091C509 339.545 509.424 342.515 510.273 345C511.152 347.455 512.394 349.348 514 350.682C515.636 351.985 517.606 352.636 519.909 352.636ZM592.955 331.727V371H567.864V277.909H592.045V314.455H592.773C594.348 310 596.97 306.53 600.636 304.045C604.303 301.53 608.712 300.273 613.864 300.273C618.803 300.273 623.091 301.394 626.727 303.636C630.394 305.879 633.227 308.97 635.227 312.909C637.258 316.848 638.258 321.364 638.227 326.455V371H613.136V331.727C613.167 328.273 612.303 325.561 610.545 323.591C608.818 321.621 606.348 320.636 603.136 320.636C601.106 320.636 599.318 321.091 597.773 322C596.258 322.879 595.076 324.152 594.227 325.818C593.409 327.455 592.985 329.424 592.955 331.727ZM650.25 371V277.909H690.614C697.705 277.909 703.659 278.864 708.477 280.773C713.326 282.682 716.977 285.379 719.432 288.864C721.917 292.348 723.159 296.455 723.159 301.182C723.159 304.606 722.402 307.727 720.886 310.545C719.402 313.364 717.311 315.727 714.614 317.636C711.917 319.515 708.765 320.818 705.159 321.545V322.455C709.159 322.606 712.795 323.621 716.068 325.5C719.341 327.348 721.947 329.909 723.886 333.182C725.826 336.424 726.795 340.242 726.795 344.636C726.795 349.727 725.462 354.258 722.795 358.227C720.159 362.197 716.402 365.318 711.523 367.591C706.644 369.864 700.826 371 694.068 371H650.25ZM675.523 350.818H687.341C691.583 350.818 694.765 350.03 696.886 348.455C699.008 346.848 700.068 344.485 700.068 341.364C700.068 339.182 699.568 337.333 698.568 335.818C697.568 334.303 696.144 333.152 694.295 332.364C692.477 331.576 690.28 331.182 687.705 331.182H675.523V350.818ZM675.523 315.545H685.886C688.098 315.545 690.053 315.197 691.75 314.5C693.447 313.803 694.765 312.803 695.705 311.5C696.674 310.167 697.159 308.545 697.159 306.636C697.159 303.758 696.129 301.561 694.068 300.045C692.008 298.5 689.402 297.727 686.25 297.727H675.523V315.545ZM761.205 331.727V371H736.114V277.909H760.295V314.455H761.023C762.598 310 765.22 306.53 768.886 304.045C772.553 301.53 776.962 300.273 782.114 300.273C787.053 300.273 791.341 301.394 794.977 303.636C798.644 305.879 801.477 308.97 803.477 312.909C805.508 316.848 806.508 321.364 806.477 326.455V371H781.386V331.727C781.417 328.273 780.553 325.561 778.795 323.591C777.068 321.621 774.598 320.636 771.386 320.636C769.356 320.636 767.568 321.091 766.023 322C764.508 322.879 763.326 324.152 762.477 325.818C761.659 327.455 761.235 329.424 761.205 331.727ZM852.5 372.273C844.924 372.273 838.439 370.773 833.045 367.773C827.652 364.742 823.515 360.53 820.636 355.136C817.758 349.712 816.318 343.424 816.318 336.273C816.318 329.121 817.758 322.848 820.636 317.455C823.515 312.03 827.652 307.818 833.045 304.818C838.439 301.788 844.924 300.273 852.5 300.273C860.076 300.273 866.561 301.788 871.955 304.818C877.348 307.818 881.485 312.03 884.364 317.455C887.242 322.848 888.682 329.121 888.682 336.273C888.682 343.424 887.242 349.712 884.364 355.136C881.485 360.53 877.348 364.742 871.955 367.773C866.561 370.773 860.076 372.273 852.5 372.273ZM852.682 353.727C854.803 353.727 856.636 353.015 858.182 351.591C859.727 350.167 860.924 348.136 861.773 345.5C862.621 342.864 863.045 339.727 863.045 336.091C863.045 332.424 862.621 329.288 861.773 326.682C860.924 324.045 859.727 322.015 858.182 320.591C856.636 319.167 854.803 318.455 852.682 318.455C850.439 318.455 848.515 319.167 846.909 320.591C845.303 322.015 844.076 324.045 843.227 326.682C842.379 329.288 841.955 332.424 841.955 336.091C841.955 339.727 842.379 342.864 843.227 345.5C844.076 348.136 845.303 350.167 846.909 351.591C848.515 353.015 850.439 353.727 852.682 353.727ZM932.5 372.273C924.924 372.273 918.439 370.773 913.045 367.773C907.652 364.742 903.515 360.53 900.636 355.136C897.758 349.712 896.318 343.424 896.318 336.273C896.318 329.121 897.758 322.848 900.636 317.455C903.515 312.03 907.652 307.818 913.045 304.818C918.439 301.788 924.924 300.273 932.5 300.273C940.076 300.273 946.561 301.788 951.955 304.818C957.348 307.818 961.485 312.03 964.364 317.455C967.242 322.848 968.682 329.121 968.682 336.273C968.682 343.424 967.242 349.712 964.364 355.136C961.485 360.53 957.348 364.742 951.955 367.773C946.561 370.773 940.076 372.273 932.5 372.273ZM932.682 353.727C934.803 353.727 936.636 353.015 938.182 351.591C939.727 350.167 940.924 348.136 941.773 345.5C942.621 342.864 943.045 339.727 943.045 336.091C943.045 332.424 942.621 329.288 941.773 326.682C940.924 324.045 939.727 322.015 938.182 320.591C936.636 319.167 934.803 318.455 932.682 318.455C930.439 318.455 928.515 319.167 926.909 320.591C925.303 322.015 924.076 324.045 923.227 326.682C922.379 329.288 921.955 332.424 921.955 336.091C921.955 339.727 922.379 342.864 923.227 345.5C924.076 348.136 925.303 350.167 926.909 351.591C928.515 353.015 930.439 353.727 932.682 353.727ZM978.864 371V301.182H1002.68V314.455H1003.41C1004.86 310.091 1007.35 306.636 1010.86 304.091C1014.38 301.545 1018.56 300.273 1023.41 300.273C1028.32 300.273 1032.55 301.576 1036.09 304.182C1039.64 306.758 1041.77 310.182 1042.5 314.455H1043.23C1044.41 310.182 1046.92 306.758 1050.77 304.182C1054.62 301.576 1059.14 300.273 1064.32 300.273C1071.02 300.273 1076.44 302.424 1080.59 306.727C1084.77 311.03 1086.86 316.758 1086.86 323.909V371H1061.77V330.273C1061.77 327.212 1061 324.818 1059.45 323.091C1057.91 321.333 1055.83 320.455 1053.23 320.455C1050.65 320.455 1048.61 321.333 1047.09 323.091C1045.61 324.818 1044.86 327.212 1044.86 330.273V371H1020.86V330.273C1020.86 327.212 1020.09 324.818 1018.55 323.091C1017 321.333 1014.92 320.455 1012.32 320.455C1010.59 320.455 1009.11 320.848 1007.86 321.636C1006.62 322.424 1005.65 323.561 1004.95 325.045C1004.29 326.5 1003.95 328.242 1003.95 330.273V371H978.864ZM1099.24 371V301.182H1124.33V371H1099.24ZM1111.78 293.909C1108.39 293.909 1105.48 292.788 1103.06 290.545C1100.63 288.303 1099.42 285.606 1099.42 282.455C1099.42 279.303 1100.63 276.606 1103.06 274.364C1105.48 272.121 1108.39 271 1111.78 271C1115.21 271 1118.12 272.121 1120.51 274.364C1122.94 276.606 1124.15 279.303 1124.15 282.455C1124.15 285.606 1122.94 288.303 1120.51 290.545C1118.12 292.788 1115.21 293.909 1111.78 293.909Z"/>
</mask>
<path d="M102.545 368L100.181 372.406L100.196 372.413L100.211 372.421L102.545 368ZM90.1364 355.636L85.7253 357.991L85.7332 358.005L85.7412 358.02L90.1364 355.636ZM90.1818 317.364L94.5826 319.737H94.5826L90.1818 317.364ZM102.5 304.773L104.962 309.125H104.962L102.5 304.773ZM135.591 302.727L137.379 298.058L135.591 302.727ZM146.545 309.864L142.958 313.347L142.967 313.355L142.975 313.364L146.545 309.864ZM153.545 321.136L148.856 322.871L153.545 321.136ZM156 341.909V346.909H161V341.909H156ZM93.6364 341.909H88.6364V346.909H93.6364V341.909ZM93.6364 328.091V323.091H88.6364V328.091H93.6364ZM132.909 328.091V333.091H137.985L137.909 328.015L132.909 328.091ZM131.364 322.818L127.128 325.476L127.159 325.524L127.191 325.572L131.364 322.818ZM127.409 319.227L125.043 323.632L125.092 323.658L125.141 323.683L127.409 319.227ZM116.227 319.227L118.463 323.699L118.495 323.684L118.527 323.667L116.227 319.227ZM112.136 322.773L108.002 319.961L107.982 319.99L107.963 320.019L112.136 322.773ZM110.545 328.091L105.548 327.942L105.545 328.016V328.091H110.545ZM111.955 349L107.545 351.357L111.955 349ZM116 353.136L113.527 357.482L116 353.136ZM127.091 353.909L125.51 349.166L125.495 349.171L125.48 349.176L127.091 353.909ZM130.818 351.818L134.126 355.567L134.157 355.54L134.187 355.513L130.818 351.818ZM133.091 348.455V343.455H129.616L128.405 346.711L133.091 348.455ZM156 348.455L160.935 349.257L161.878 343.455H156V348.455ZM150.409 361.091L154.258 364.282L154.265 364.274L154.272 364.266L150.409 361.091ZM138.727 369.364L140.594 374.002L140.602 373.999L140.609 373.996L138.727 369.364ZM121.818 367.273C114.999 367.273 109.412 365.972 104.88 363.579L100.211 372.421C106.467 375.725 113.728 377.273 121.818 377.273V367.273ZM104.91 363.594C100.408 361.178 96.9767 357.761 94.5315 353.253L85.7412 358.02C89.1143 364.239 93.9555 369.064 100.181 372.406L104.91 363.594ZM94.5474 353.282C92.1342 348.761 90.8182 343.152 90.8182 336.273H80.8182C80.8182 344.423 82.3809 351.724 85.7253 357.991L94.5474 353.282ZM90.8182 336.273C90.8182 329.742 92.131 324.283 94.5826 319.737L85.7811 314.99C82.4144 321.232 80.8182 328.379 80.8182 336.273H90.8182ZM94.5826 319.737C97.0474 315.167 100.484 311.658 104.962 309.125L100.038 300.421C93.9103 303.887 89.1344 308.772 85.7811 314.99L94.5826 319.737ZM104.962 309.125C109.387 306.621 114.764 305.273 121.273 305.273V295.273C113.357 295.273 106.219 296.924 100.038 300.421L104.962 309.125ZM121.273 305.273C126.026 305.273 130.181 306.009 133.803 307.397L137.379 298.058C132.456 296.172 127.065 295.273 121.273 295.273V305.273ZM133.803 307.397C137.433 308.787 140.46 310.774 142.958 313.347L150.133 306.381C146.57 302.711 142.295 299.941 137.379 298.058L133.803 307.397ZM142.975 313.364C145.469 315.908 147.442 319.048 148.856 322.871L158.235 319.402C156.376 314.377 153.682 310.001 150.116 306.363L142.975 313.364ZM148.856 322.871C150.254 326.652 151 331.036 151 336.091H161C161 330.055 160.109 324.469 158.235 319.402L148.856 322.871ZM151 336.091V341.909H161V336.091H151ZM156 336.909H93.6364V346.909H156V336.909ZM98.6364 341.909V328.091H88.6364V341.909H98.6364ZM93.6364 333.091H132.909V323.091H93.6364V333.091ZM137.909 328.015C137.865 325.162 137.115 322.455 135.537 320.064L127.191 325.572C127.613 326.212 127.892 327.019 127.91 328.167L137.909 328.015ZM135.599 320.161C134.136 317.829 132.129 316.02 129.678 314.771L125.141 323.683C126.022 324.132 126.652 324.716 127.128 325.476L135.599 320.161ZM129.775 314.822C127.324 313.506 124.629 312.909 121.818 312.909V322.909C123.189 322.909 124.222 323.191 125.043 323.632L129.775 314.822ZM121.818 312.909C119.039 312.909 116.38 313.518 113.928 314.787L118.527 323.667C119.469 323.179 120.537 322.909 121.818 322.909V312.909ZM113.991 314.755C111.558 315.972 109.53 317.714 108.002 319.961L116.271 325.584C116.803 324.801 117.503 324.18 118.463 323.699L113.991 314.755ZM107.963 320.019C106.393 322.398 105.633 325.097 105.548 327.942L115.543 328.24C115.58 327.024 115.88 326.178 116.309 325.527L107.963 320.019ZM105.545 328.091V343H115.545V328.091H105.545ZM105.545 343C105.545 345.96 106.172 348.787 107.545 351.357L116.364 346.643C115.859 345.697 115.545 344.525 115.545 343H105.545ZM107.545 351.357C108.936 353.96 110.962 356.023 113.527 357.482L118.473 348.791C117.523 348.25 116.852 347.555 116.364 346.643L107.545 351.357ZM113.527 357.482C116.193 358.999 119.209 359.636 122.364 359.636V349.636C120.549 349.636 119.322 349.274 118.473 348.791L113.527 357.482ZM122.364 359.636C124.559 359.636 126.689 359.328 128.702 358.642L125.48 349.176C124.645 349.46 123.623 349.636 122.364 349.636V359.636ZM128.672 358.653C130.689 357.98 132.538 356.969 134.126 355.567L127.51 348.069C127.038 348.485 126.402 348.868 125.51 349.166L128.672 358.653ZM134.187 355.513C135.804 354.039 137.014 352.249 137.777 350.198L128.405 346.711C128.198 347.266 127.893 347.719 127.449 348.123L134.187 355.513ZM133.091 353.455H156V343.455H133.091V353.455ZM151.065 347.653C150.41 351.685 148.89 355.065 146.547 357.916L154.272 364.266C157.807 359.966 160.015 354.922 160.935 349.257L151.065 347.653ZM146.56 357.9C144.215 360.728 141.035 363.029 136.845 364.731L140.609 373.996C146.117 371.758 150.724 368.545 154.258 364.282L146.56 357.9ZM136.86 364.725C132.76 366.376 127.783 367.273 121.818 367.273V377.273C128.762 377.273 135.058 376.231 140.594 374.002L136.86 364.725ZM212.057 324.455H217.057V319.455H212.057V324.455ZM212.057 343.364V348.364H217.057V343.364H212.057ZM168.42 343.364H163.42V348.364H168.42V343.364ZM168.42 324.455V319.455H163.42V324.455H168.42ZM207.057 324.455V343.364H217.057V324.455H207.057ZM212.057 338.364H168.42V348.364H212.057V338.364ZM173.42 343.364V324.455H163.42V343.364H173.42ZM168.42 329.455H212.057V319.455H168.42V329.455ZM222.807 277.909V272.909H214.457L218.399 280.27L222.807 277.909ZM250.989 277.909L255.495 275.743L254.133 272.909H250.989V277.909ZM269.17 315.727L264.664 317.894L266.026 320.727H269.17V315.727ZM269.898 315.727V320.727H273.042L274.404 317.894L269.898 315.727ZM288.08 277.909V272.909H284.936L283.573 275.743L288.08 277.909ZM316.261 277.909L320.669 280.27L324.611 272.909H316.261V277.909ZM282.08 341.727L277.672 339.367L277.08 340.473V341.727H282.08ZM282.08 371V376H287.08V371H282.08ZM256.989 371H251.989V376H256.989V371ZM256.989 341.727H261.989V340.473L261.396 339.367L256.989 341.727ZM222.807 282.909H250.989V272.909H222.807V282.909ZM246.482 280.076L264.664 317.894L273.677 313.561L255.495 275.743L246.482 280.076ZM269.17 320.727H269.898V310.727H269.17V320.727ZM274.404 317.894L292.586 280.076L283.573 275.743L265.391 313.561L274.404 317.894ZM288.08 282.909H316.261V272.909H288.08V282.909ZM311.854 275.548L277.672 339.367L286.487 344.088L320.669 280.27L311.854 275.548ZM277.08 341.727V371H287.08V341.727H277.08ZM282.08 366H256.989V376H282.08V366ZM261.989 371V341.727H251.989V371H261.989ZM261.396 339.367L227.214 275.548L218.399 280.27L252.581 344.088L261.396 339.367ZM365.011 340.455H360.011V340.487L360.012 340.52L365.011 340.455ZM365.011 301.182V296.182H360.011V301.182H365.011ZM390.102 301.182H395.102V296.182H390.102V301.182ZM390.102 371V376H395.102V371H390.102ZM366.284 371H361.284V376H366.284V371ZM366.284 357.727H371.284V352.727H366.284V357.727ZM365.557 357.727V352.727H361.976L360.823 356.117L365.557 357.727ZM357.602 368.182L360.345 372.363L360.356 372.355L360.368 372.347L357.602 368.182ZM331.284 368.545L328.66 372.801L328.668 372.806L328.675 372.811L331.284 368.545ZM322.784 359.273L318.326 361.536L318.333 361.55L318.34 361.563L322.784 359.273ZM319.739 345.727H314.739V345.742L314.739 345.757L319.739 345.727ZM319.739 301.182V296.182H314.739V301.182H319.739ZM344.83 301.182H349.83V296.182H344.83V301.182ZM344.83 340.455H339.83V340.476L339.83 340.498L344.83 340.455ZM347.466 348.591L343.707 351.888L343.721 351.904L343.735 351.92L347.466 348.591ZM360.239 350.227L362.747 354.552L362.76 354.545L362.774 354.537L360.239 350.227ZM363.784 346.409L359.328 344.141L359.32 344.157L359.312 344.173L363.784 346.409ZM370.011 340.455V301.182H360.011V340.455H370.011ZM365.011 306.182H390.102V296.182H365.011V306.182ZM385.102 301.182V371H395.102V301.182H385.102ZM390.102 366H366.284V376H390.102V366ZM371.284 371V357.727H361.284V371H371.284ZM366.284 352.727H365.557V362.727H366.284V352.727ZM360.823 356.117C359.65 359.565 357.67 362.135 354.836 364.016L360.368 372.347C365.11 369.199 368.433 364.798 370.29 359.337L360.823 356.117ZM354.86 364.001C352.004 365.874 348.49 366.909 344.102 366.909V376.909C350.138 376.909 355.625 375.459 360.345 372.363L354.86 364.001ZM344.102 366.909C340.017 366.909 336.672 365.98 333.893 364.28L328.675 372.811C333.229 375.596 338.43 376.909 344.102 376.909V366.909ZM333.909 364.29C331.076 362.543 328.859 360.145 327.229 356.982L318.34 361.563C320.77 366.279 324.219 370.063 328.66 372.801L333.909 364.29ZM327.242 357.009C325.644 353.861 324.765 350.13 324.739 345.698L314.739 345.757C314.773 351.506 315.924 356.806 318.326 361.536L327.242 357.009ZM324.739 345.727V301.182H314.739V345.727H324.739ZM319.739 306.182H344.83V296.182H319.739V306.182ZM339.83 301.182V340.455H349.83V301.182H339.83ZM339.83 340.498C339.867 344.763 340.967 348.763 343.707 351.888L351.225 345.294C350.51 344.479 349.853 343.055 349.829 340.411L339.83 340.498ZM343.735 351.92C346.625 355.159 350.555 356.545 354.83 356.545V346.545C352.801 346.545 351.822 345.963 351.197 345.262L343.735 351.92ZM354.83 356.545C357.63 356.545 360.334 355.952 362.747 354.552L357.73 345.902C357.113 346.26 356.211 346.545 354.83 346.545V356.545ZM362.774 354.537C365.169 353.128 367.015 351.127 368.256 348.645L359.312 344.173C358.916 344.964 358.399 345.509 357.704 345.918L362.774 354.537ZM368.24 348.678C369.532 346.14 370.049 343.318 370.011 340.389L360.012 340.52C360.034 342.198 359.733 343.345 359.328 344.141L368.24 348.678ZM414.409 368L411.751 372.235L411.758 372.239L411.765 372.243L414.409 368ZM404.409 356.136L399.882 358.258L399.886 358.268L399.891 358.279L404.409 356.136ZM404.591 315.545L400.119 313.309L400.114 313.32L400.109 313.33L404.591 315.545ZM414.773 303.955L412.242 299.642L412.235 299.646L412.228 299.651L414.773 303.955ZM437.045 302.091L434.937 306.625L434.959 306.635L434.98 306.645L437.045 302.091ZM443.591 306.864L439.835 310.164L439.848 310.178L439.86 310.193L443.591 306.864ZM447.591 313.364L442.924 315.159L444.157 318.364H447.591V313.364ZM447.955 313.364V318.364H452.955V313.364H447.955ZM447.955 277.909V272.909H442.955V277.909H447.955ZM473.045 277.909H478.045V272.909H473.045V277.909ZM473.045 371V376H478.045V371H473.045ZM448.136 371H443.136V376H448.136V371ZM448.136 359.545H453.136V354.545H448.136V359.545ZM447.591 359.545V354.545H444.238L442.965 357.648L447.591 359.545ZM443.409 365.909L439.816 362.432L439.815 362.433L443.409 365.909ZM436.864 370.318L438.787 374.934L438.8 374.928L438.814 374.922L436.864 370.318ZM443.318 350.636L446.477 354.513L446.484 354.506L443.318 350.636ZM447.136 344.909L442.441 343.191L442.435 343.207L442.429 343.224L447.136 344.909ZM447.136 327.227L442.422 328.894L442.435 328.929L442.448 328.964L447.136 327.227ZM443.318 321.545L440.16 325.422L440.199 325.453L440.239 325.484L443.318 321.545ZM431.5 321.545L434.65 325.428L434.658 325.422L431.5 321.545ZM427.773 327.227L423.059 325.56L423.053 325.577L423.047 325.594L427.773 327.227ZM427.773 345L423.041 346.616L423.053 346.651L423.065 346.685L427.773 345ZM431.5 350.682L428.306 354.529L428.345 354.561L428.385 354.593L431.5 350.682ZM428.136 366.909C424.093 366.909 420.435 365.864 417.054 363.757L411.765 372.243C416.747 375.348 422.24 376.909 428.136 376.909V366.909ZM417.067 363.765C413.869 361.758 411.115 358.608 408.927 353.994L399.891 358.279C402.733 364.271 406.646 369.03 411.751 372.235L417.067 363.765ZM408.937 354.015C406.857 349.577 405.682 343.678 405.682 336.091H395.682C395.682 344.625 396.991 352.09 399.882 358.258L408.937 354.015ZM405.682 336.091C405.682 328.126 406.922 322.113 409.073 317.761L400.109 313.33C397.047 319.524 395.682 327.208 395.682 336.091H405.682ZM409.063 317.782C411.365 313.177 414.161 310.125 417.317 308.259L412.228 299.651C407.081 302.694 403.089 307.369 400.119 313.309L409.063 317.782ZM417.304 308.267C420.76 306.238 424.286 305.273 427.955 305.273V295.273C422.411 295.273 417.149 296.762 412.242 299.642L417.304 308.267ZM427.955 305.273C430.825 305.273 433.111 305.775 434.937 306.625L439.154 297.557C435.768 295.982 431.993 295.273 427.955 295.273V305.273ZM434.98 306.645C436.989 307.556 438.58 308.736 439.835 310.164L447.347 303.563C445.087 300.991 442.314 298.99 439.11 297.537L434.98 306.645ZM439.86 310.193C441.233 311.731 442.241 313.382 442.924 315.159L452.258 311.569C451.123 308.618 449.464 305.936 447.322 303.535L439.86 310.193ZM447.591 318.364H447.955V308.364H447.591V318.364ZM452.955 313.364V277.909H442.955V313.364H452.955ZM447.955 282.909H473.045V272.909H447.955V282.909ZM468.045 277.909V371H478.045V277.909H468.045ZM473.045 366H448.136V376H473.045V366ZM453.136 371V359.545H443.136V371H453.136ZM448.136 354.545H447.591V364.545H448.136V354.545ZM442.965 357.648C442.242 359.41 441.203 360.998 439.816 362.432L447.002 369.386C449.251 367.062 451 364.408 452.217 361.443L442.965 357.648ZM439.815 362.433C438.534 363.758 436.926 364.862 434.914 365.714L438.814 374.922C441.953 373.593 444.709 371.757 447.003 369.385L439.815 362.433ZM434.941 365.703C433.107 366.467 430.87 366.909 428.136 366.909V376.909C431.948 376.909 435.529 376.291 438.787 374.934L434.941 365.703ZM437.409 357.636C440.751 357.636 443.865 356.641 446.477 354.513L440.16 346.76C439.499 347.299 438.673 347.636 437.409 347.636V357.636ZM446.484 354.506C448.988 352.457 450.724 349.723 451.844 346.594L442.429 343.224C441.792 345.004 440.981 346.088 440.152 346.767L446.484 354.506ZM451.832 346.627C452.99 343.461 453.5 339.913 453.5 336.091H443.5C443.5 339.057 443.101 341.388 442.441 343.191L451.832 346.627ZM453.5 336.091C453.5 332.222 452.994 328.647 451.825 325.491L442.448 328.964C443.097 330.716 443.5 333.05 443.5 336.091H453.5ZM451.85 325.56C450.732 322.398 448.979 319.625 446.398 317.606L440.239 325.484C440.99 326.072 441.783 327.087 442.422 328.894L451.85 325.56ZM446.477 317.669C443.865 315.541 440.751 314.545 437.409 314.545V324.545C438.673 324.545 439.499 324.883 440.16 325.422L446.477 317.669ZM437.409 314.545C434.067 314.545 430.953 315.541 428.342 317.669L434.658 325.422C435.319 324.883 436.145 324.545 437.409 324.545V314.545ZM428.35 317.663C425.857 319.685 424.162 322.442 423.059 325.56L432.487 328.894C433.141 327.043 433.931 326.012 434.65 325.428L428.35 317.663ZM423.047 325.594C421.968 328.715 421.5 332.253 421.5 336.091H431.5C431.5 333.02 431.88 330.649 432.498 328.861L423.047 325.594ZM421.5 336.091C421.5 339.932 421.969 343.476 423.041 346.616L432.504 343.384C431.88 341.554 431.5 339.159 431.5 336.091H421.5ZM423.065 346.685C424.172 349.775 425.859 352.497 428.306 354.529L434.694 346.835C433.929 346.2 433.132 345.134 432.48 343.315L423.065 346.685ZM428.385 354.593C430.997 356.673 434.096 357.636 437.409 357.636V347.636C436.116 347.636 435.275 347.297 434.615 346.77L428.385 354.593ZM496.909 368L494.251 372.235L494.258 372.239L494.265 372.243L496.909 368ZM486.909 356.136L482.382 358.258L482.386 358.268L482.391 358.279L486.909 356.136ZM487.091 315.545L482.619 313.309L482.614 313.32L482.609 313.33L487.091 315.545ZM497.273 303.955L494.742 299.642L494.735 299.646L494.728 299.651L497.273 303.955ZM519.545 302.091L517.437 306.625L517.459 306.635L517.48 306.645L519.545 302.091ZM526.091 306.864L522.335 310.164L522.348 310.178L522.36 310.193L526.091 306.864ZM530.091 313.364L525.424 315.159L526.657 318.364H530.091V313.364ZM530.455 313.364V318.364H535.455V313.364H530.455ZM530.455 277.909V272.909H525.455V277.909H530.455ZM555.545 277.909H560.545V272.909H555.545V277.909ZM555.545 371V376H560.545V371H555.545ZM530.636 371H525.636V376H530.636V371ZM530.636 359.545H535.636V354.545H530.636V359.545ZM530.091 359.545V354.545H526.738L525.465 357.648L530.091 359.545ZM525.909 365.909L522.316 362.432L522.315 362.433L525.909 365.909ZM519.364 370.318L521.287 374.934L521.3 374.928L521.314 374.922L519.364 370.318ZM525.818 350.636L528.977 354.513L528.984 354.506L525.818 350.636ZM529.636 344.909L524.941 343.191L524.935 343.207L524.929 343.224L529.636 344.909ZM529.636 327.227L524.922 328.894L524.935 328.929L524.948 328.964L529.636 327.227ZM525.818 321.545L522.66 325.422L522.699 325.453L522.739 325.484L525.818 321.545ZM514 321.545L517.15 325.428L517.158 325.422L514 321.545ZM510.273 327.227L505.559 325.56L505.553 325.577L505.547 325.594L510.273 327.227ZM510.273 345L505.541 346.616L505.553 346.651L505.565 346.685L510.273 345ZM514 350.682L510.806 354.529L510.845 354.561L510.885 354.593L514 350.682ZM510.636 366.909C506.593 366.909 502.935 365.864 499.554 363.757L494.265 372.243C499.247 375.348 504.74 376.909 510.636 376.909V366.909ZM499.567 363.765C496.369 361.758 493.615 358.608 491.427 353.994L482.391 358.279C485.233 364.271 489.146 369.03 494.251 372.235L499.567 363.765ZM491.437 354.015C489.357 349.577 488.182 343.678 488.182 336.091H478.182C478.182 344.625 479.491 352.09 482.382 358.258L491.437 354.015ZM488.182 336.091C488.182 328.126 489.422 322.113 491.573 317.761L482.609 313.33C479.547 319.524 478.182 327.208 478.182 336.091H488.182ZM491.563 317.782C493.865 313.177 496.661 310.125 499.817 308.259L494.728 299.651C489.581 302.694 485.589 307.369 482.619 313.309L491.563 317.782ZM499.804 308.267C503.26 306.238 506.786 305.273 510.455 305.273V295.273C504.911 295.273 499.649 296.762 494.742 299.642L499.804 308.267ZM510.455 305.273C513.325 305.273 515.611 305.775 517.437 306.625L521.654 297.557C518.268 295.982 514.493 295.273 510.455 295.273V305.273ZM517.48 306.645C519.489 307.556 521.08 308.736 522.335 310.164L529.847 303.563C527.587 300.991 524.814 298.99 521.61 297.537L517.48 306.645ZM522.36 310.193C523.733 311.731 524.741 313.382 525.424 315.159L534.758 311.569C533.623 308.618 531.964 305.936 529.822 303.535L522.36 310.193ZM530.091 318.364H530.455V308.364H530.091V318.364ZM535.455 313.364V277.909H525.455V313.364H535.455ZM530.455 282.909H555.545V272.909H530.455V282.909ZM550.545 277.909V371H560.545V277.909H550.545ZM555.545 366H530.636V376H555.545V366ZM535.636 371V359.545H525.636V371H535.636ZM530.636 354.545H530.091V364.545H530.636V354.545ZM525.465 357.648C524.742 359.41 523.703 360.998 522.316 362.432L529.502 369.386C531.751 367.062 533.5 364.408 534.717 361.443L525.465 357.648ZM522.315 362.433C521.034 363.758 519.426 364.862 517.414 365.714L521.314 374.922C524.453 373.593 527.209 371.757 529.503 369.385L522.315 362.433ZM517.441 365.703C515.607 366.467 513.37 366.909 510.636 366.909V376.909C514.448 376.909 518.029 376.291 521.287 374.934L517.441 365.703ZM519.909 357.636C523.251 357.636 526.365 356.641 528.977 354.513L522.66 346.76C521.999 347.299 521.173 347.636 519.909 347.636V357.636ZM528.984 354.506C531.488 352.457 533.224 349.723 534.344 346.594L524.929 343.224C524.292 345.004 523.481 346.088 522.652 346.767L528.984 354.506ZM534.332 346.627C535.49 343.461 536 339.913 536 336.091H526C526 339.057 525.601 341.388 524.941 343.191L534.332 346.627ZM536 336.091C536 332.222 535.494 328.647 534.325 325.491L524.948 328.964C525.597 330.716 526 333.05 526 336.091H536ZM534.35 325.56C533.232 322.398 531.479 319.625 528.898 317.606L522.739 325.484C523.49 326.072 524.283 327.087 524.922 328.894L534.35 325.56ZM528.977 317.669C526.365 315.541 523.251 314.545 519.909 314.545V324.545C521.173 324.545 521.999 324.883 522.66 325.422L528.977 317.669ZM519.909 314.545C516.567 314.545 513.453 315.541 510.842 317.669L517.158 325.422C517.819 324.883 518.645 324.545 519.909 324.545V314.545ZM510.85 317.663C508.357 319.685 506.662 322.442 505.559 325.56L514.987 328.894C515.641 327.043 516.431 326.012 517.15 325.428L510.85 317.663ZM505.547 325.594C504.468 328.715 504 332.253 504 336.091H514C514 333.02 514.38 330.649 514.998 328.861L505.547 325.594ZM504 336.091C504 339.932 504.469 343.476 505.541 346.616L515.004 343.384C514.38 341.554 514 339.159 514 336.091H504ZM505.565 346.685C506.672 349.775 508.359 352.497 510.806 354.529L517.194 346.835C516.429 346.2 515.632 345.134 514.98 343.315L505.565 346.685ZM510.885 354.593C513.497 356.673 516.596 357.636 519.909 357.636V347.636C518.616 347.636 517.775 347.297 517.115 346.77L510.885 354.593ZM592.955 331.727L587.955 331.661L587.955 331.694V331.727H592.955ZM592.955 371V376H597.955V371H592.955ZM567.864 371H562.864V376H567.864V371ZM567.864 277.909V272.909H562.864V277.909H567.864ZM592.045 277.909H597.045V272.909H592.045V277.909ZM592.045 314.455H587.045V319.455H592.045V314.455ZM592.773 314.455V319.455H596.308L597.487 316.122L592.773 314.455ZM600.636 304.045L603.441 308.185L603.453 308.177L603.465 308.169L600.636 304.045ZM626.727 303.636L624.103 307.892L624.111 307.897L624.119 307.902L626.727 303.636ZM635.227 312.909L630.769 315.173L630.776 315.186L630.783 315.2L635.227 312.909ZM638.227 326.455L633.227 326.425L633.227 326.44V326.455H638.227ZM638.227 371V376H643.227V371H638.227ZM613.136 371H608.136V376H613.136V371ZM613.136 331.727L608.137 331.683L608.136 331.705V331.727H613.136ZM610.545 323.591L606.786 326.888L606.8 326.904L606.815 326.92L610.545 323.591ZM597.773 322L600.281 326.325L600.295 326.317L600.308 326.31L597.773 322ZM594.227 325.818L589.771 323.55L589.763 323.566L589.755 323.582L594.227 325.818ZM587.955 331.727V371H597.955V331.727H587.955ZM592.955 366H567.864V376H592.955V366ZM572.864 371V277.909H562.864V371H572.864ZM567.864 282.909H592.045V272.909H567.864V282.909ZM587.045 277.909V314.455H597.045V277.909H587.045ZM592.045 319.455H592.773V309.455H592.045V319.455ZM597.487 316.122C598.731 312.603 600.719 310.029 603.441 308.185L597.831 299.906C593.22 303.031 589.966 307.397 588.059 312.787L597.487 316.122ZM603.465 308.169C606.172 306.311 609.557 305.273 613.864 305.273V295.273C607.867 295.273 602.434 296.749 597.808 299.922L603.465 308.169ZM613.864 305.273C618.024 305.273 621.372 306.208 624.103 307.892L629.352 299.381C624.81 296.58 619.582 295.273 613.864 295.273V305.273ZM624.119 307.902C626.972 309.647 629.176 312.035 630.769 315.173L639.686 310.646C637.279 305.905 633.816 302.11 629.336 299.371L624.119 307.902ZM630.783 315.2C632.392 318.322 633.254 322.02 633.227 326.425L643.227 326.484C643.262 320.707 642.123 315.375 639.672 310.618L630.783 315.2ZM633.227 326.455V371H643.227V326.455H633.227ZM638.227 366H613.136V376H638.227V366ZM618.136 371V331.727H608.136V371H618.136ZM618.136 331.771C618.174 327.467 617.09 323.416 614.276 320.262L606.815 326.92C607.516 327.705 608.159 329.079 608.137 331.683L618.136 331.771ZM614.305 320.294C611.418 317.002 607.435 315.636 603.136 315.636V325.636C605.262 325.636 606.219 326.241 606.786 326.888L614.305 320.294ZM603.136 315.636C600.335 315.636 597.649 316.272 595.238 317.69L600.308 326.31C600.987 325.91 601.877 325.636 603.136 325.636V315.636ZM595.264 317.675C592.858 319.07 591.026 321.085 589.771 323.55L598.683 328.087C599.125 327.218 599.657 326.687 600.281 326.325L595.264 317.675ZM589.755 323.582C588.524 326.044 587.993 328.794 587.955 331.661L597.954 331.793C597.977 330.054 598.294 328.865 598.699 328.054L589.755 323.582ZM650.25 371H645.25V376H650.25V371ZM650.25 277.909V272.909H645.25V277.909H650.25ZM708.477 280.773L706.635 285.421L706.645 285.425L708.477 280.773ZM719.432 288.864L715.344 291.743L715.352 291.755L715.361 291.766L719.432 288.864ZM720.886 310.545L716.482 308.178L716.473 308.196L716.463 308.215L720.886 310.545ZM714.614 317.636L717.472 321.739L717.487 321.728L717.502 321.717L714.614 317.636ZM705.159 321.545L704.171 316.644L700.159 317.453V321.545H705.159ZM705.159 322.455H700.159V327.269L704.97 327.451L705.159 322.455ZM716.068 325.5L713.579 329.836L713.594 329.845L713.609 329.854L716.068 325.5ZM723.886 333.182L719.585 335.731L719.59 335.74L719.595 335.748L723.886 333.182ZM722.795 358.227L718.645 355.439L718.638 355.45L718.63 355.461L722.795 358.227ZM711.523 367.591L709.411 363.059L711.523 367.591ZM675.523 350.818H670.523V355.818H675.523V350.818ZM696.886 348.455L699.868 352.468L699.886 352.455L699.905 352.441L696.886 348.455ZM694.295 332.364L692.307 336.951L692.321 336.957L692.335 336.963L694.295 332.364ZM675.523 331.182V326.182H670.523V331.182H675.523ZM675.523 315.545H670.523V320.545H675.523V315.545ZM691.75 314.5L693.65 319.125L691.75 314.5ZM695.705 311.5L691.661 308.559L691.655 308.568L691.649 308.576L695.705 311.5ZM694.068 300.045L691.068 304.045L691.087 304.06L691.106 304.074L694.068 300.045ZM675.523 297.727V292.727H670.523V297.727H675.523ZM655.25 371V277.909H645.25V371H655.25ZM650.25 282.909H690.614V272.909H650.25V282.909ZM690.614 282.909C697.291 282.909 702.576 283.813 706.635 285.421L710.319 276.124C704.742 273.915 698.118 272.909 690.614 272.909V282.909ZM706.645 285.425C710.789 287.056 713.566 289.219 715.344 291.743L723.52 285.984C720.388 281.539 715.863 278.307 710.309 276.12L706.645 285.425ZM715.361 291.766C717.178 294.316 718.159 297.381 718.159 301.182H728.159C728.159 295.528 726.655 290.381 723.503 285.961L715.361 291.766ZM718.159 301.182C718.159 303.839 717.579 306.138 716.482 308.178L725.29 312.913C727.224 309.316 728.159 305.373 728.159 301.182H718.159ZM716.463 308.215C715.359 310.311 713.804 312.083 711.725 313.555L717.502 321.717C720.817 319.371 723.444 316.417 725.31 312.876L716.463 308.215ZM711.756 313.534C709.684 314.977 707.185 316.036 704.171 316.644L706.148 326.447C710.345 325.6 714.149 324.053 717.472 321.739L711.756 313.534ZM700.159 321.545V322.455H710.159V321.545H700.159ZM704.97 327.451C708.212 327.574 711.051 328.385 713.579 329.836L718.557 321.164C714.54 318.858 710.107 317.638 705.348 317.458L704.97 327.451ZM713.609 329.854C716.111 331.267 718.086 333.201 719.585 335.731L728.188 330.633C725.808 326.617 722.571 323.43 718.527 321.146L713.609 329.854ZM719.595 335.748C721 338.096 721.795 340.997 721.795 344.636H731.795C731.795 339.488 730.652 334.752 728.177 330.615L719.595 335.748ZM721.795 344.636C721.795 348.802 720.721 352.348 718.645 355.439L726.946 361.015C730.203 356.167 731.795 350.653 731.795 344.636H721.795ZM718.63 355.461C716.567 358.569 713.567 361.123 709.411 363.059L713.634 372.123C719.236 369.514 723.752 365.825 726.961 360.993L718.63 355.461ZM709.411 363.059C705.34 364.955 700.277 366 694.068 366V376C701.374 376 707.948 374.772 713.634 372.123L709.411 363.059ZM694.068 366H650.25V376H694.068V366ZM675.523 355.818H687.341V345.818H675.523V355.818ZM687.341 355.818C692.057 355.818 696.503 354.968 699.868 352.468L693.905 344.441C693.028 345.092 691.11 345.818 687.341 345.818V355.818ZM699.905 352.441C703.5 349.719 705.068 345.744 705.068 341.364H695.068C695.068 343.225 694.516 343.978 693.868 344.468L699.905 352.441ZM705.068 341.364C705.068 338.403 704.381 335.549 702.741 333.064L694.395 338.572C694.755 339.118 695.068 339.961 695.068 341.364H705.068ZM702.741 333.064C701.144 330.644 698.907 328.894 696.256 327.764L692.335 336.963C693.381 337.409 693.993 337.963 694.395 338.572L702.741 333.064ZM696.284 327.776C693.68 326.648 690.768 326.182 687.705 326.182V336.182C689.792 336.182 691.275 336.504 692.307 336.951L696.284 327.776ZM687.705 326.182H675.523V336.182H687.705V326.182ZM670.523 331.182V350.818H680.523V331.182H670.523ZM675.523 320.545H685.886V310.545H675.523V320.545ZM685.886 320.545C688.619 320.545 691.24 320.115 693.65 319.125L689.85 309.875C688.867 310.279 687.578 310.545 685.886 310.545V320.545ZM693.65 319.125C696.085 318.125 698.201 316.587 699.76 314.424L691.649 308.576C691.329 309.019 690.809 309.481 689.85 309.875L693.65 319.125ZM699.748 314.441C701.434 312.123 702.159 309.429 702.159 306.636H692.159C692.159 307.662 691.914 308.21 691.661 308.559L699.748 314.441ZM702.159 306.636C702.159 302.397 700.547 298.603 697.03 296.017L691.106 304.074C691.711 304.518 692.159 305.118 692.159 306.636H702.159ZM697.068 296.045C693.963 293.717 690.236 292.727 686.25 292.727V302.727C688.567 302.727 690.052 303.283 691.068 304.045L697.068 296.045ZM686.25 292.727H675.523V302.727H686.25V292.727ZM670.523 297.727V315.545H680.523V297.727H670.523ZM761.205 331.727L756.205 331.661L756.205 331.694V331.727H761.205ZM761.205 371V376H766.205V371H761.205ZM736.114 371H731.114V376H736.114V371ZM736.114 277.909V272.909H731.114V277.909H736.114ZM760.295 277.909H765.295V272.909H760.295V277.909ZM760.295 314.455H755.295V319.455H760.295V314.455ZM761.023 314.455V319.455H764.558L765.737 316.122L761.023 314.455ZM768.886 304.045L771.691 308.185L771.703 308.177L771.715 308.169L768.886 304.045ZM794.977 303.636L792.353 307.892L792.361 307.897L792.369 307.902L794.977 303.636ZM803.477 312.909L799.019 315.173L799.026 315.186L799.033 315.2L803.477 312.909ZM806.477 326.455L801.477 326.425L801.477 326.44V326.455H806.477ZM806.477 371V376H811.477V371H806.477ZM781.386 371H776.386V376H781.386V371ZM781.386 331.727L776.387 331.683L776.386 331.705V331.727H781.386ZM778.795 323.591L775.036 326.888L775.05 326.904L775.065 326.92L778.795 323.591ZM766.023 322L768.531 326.325L768.545 326.317L768.558 326.31L766.023 322ZM762.477 325.818L758.021 323.55L758.013 323.566L758.005 323.582L762.477 325.818ZM756.205 331.727V371H766.205V331.727H756.205ZM761.205 366H736.114V376H761.205V366ZM741.114 371V277.909H731.114V371H741.114ZM736.114 282.909H760.295V272.909H736.114V282.909ZM755.295 277.909V314.455H765.295V277.909H755.295ZM760.295 319.455H761.023V309.455H760.295V319.455ZM765.737 316.122C766.981 312.603 768.969 310.029 771.691 308.185L766.081 299.906C761.47 303.031 758.216 307.397 756.309 312.787L765.737 316.122ZM771.715 308.169C774.422 306.311 777.807 305.273 782.114 305.273V295.273C776.117 295.273 770.684 296.749 766.058 299.922L771.715 308.169ZM782.114 305.273C786.274 305.273 789.622 306.208 792.353 307.892L797.602 299.381C793.06 296.58 787.832 295.273 782.114 295.273V305.273ZM792.369 307.902C795.222 309.647 797.426 312.035 799.019 315.173L807.936 310.646C805.529 305.905 802.066 302.11 797.586 299.371L792.369 307.902ZM799.033 315.2C800.642 318.322 801.504 322.02 801.477 326.425L811.477 326.484C811.512 320.707 810.373 315.375 807.922 310.618L799.033 315.2ZM801.477 326.455V371H811.477V326.455H801.477ZM806.477 366H781.386V376H806.477V366ZM786.386 371V331.727H776.386V371H786.386ZM786.386 331.771C786.424 327.467 785.34 323.416 782.526 320.262L775.065 326.92C775.766 327.705 776.409 329.079 776.387 331.683L786.386 331.771ZM782.555 320.294C779.668 317.002 775.685 315.636 771.386 315.636V325.636C773.512 325.636 774.469 326.241 775.036 326.888L782.555 320.294ZM771.386 315.636C768.585 315.636 765.899 316.272 763.488 317.69L768.558 326.31C769.237 325.91 770.127 325.636 771.386 325.636V315.636ZM763.514 317.675C761.108 319.07 759.276 321.085 758.021 323.55L766.933 328.087C767.375 327.218 767.907 326.687 768.531 326.325L763.514 317.675ZM758.005 323.582C756.774 326.044 756.243 328.794 756.205 331.661L766.204 331.793C766.227 330.054 766.544 328.865 766.949 328.054L758.005 323.582ZM833.045 367.773L830.596 372.132L830.606 372.137L830.615 372.142L833.045 367.773ZM820.636 355.136L816.22 357.48L816.225 357.491L820.636 355.136ZM820.636 317.455L825.047 319.809L825.053 319.799L820.636 317.455ZM833.045 304.818L835.476 309.188L835.485 309.183L835.494 309.177L833.045 304.818ZM871.955 304.818L869.506 309.177L869.515 309.183L869.524 309.188L871.955 304.818ZM884.364 317.455L879.947 319.799L879.953 319.809L884.364 317.455ZM884.364 355.136L888.775 357.491L888.78 357.48L884.364 355.136ZM871.955 367.773L874.385 372.142L874.394 372.137L874.404 372.132L871.955 367.773ZM858.182 351.591L861.57 355.268V355.268L858.182 351.591ZM861.773 345.5L866.532 347.032L861.773 345.5ZM861.773 326.682L857.013 328.214L857.016 328.222L857.018 328.23L861.773 326.682ZM858.182 320.591L861.57 316.914V316.914L858.182 320.591ZM843.227 326.682L847.982 328.23L847.984 328.222L847.987 328.214L843.227 326.682ZM843.227 345.5L847.987 343.968L843.227 345.5ZM852.5 367.273C845.583 367.273 839.975 365.906 835.476 363.403L830.615 372.142C836.904 375.64 844.265 377.273 852.5 377.273V367.273ZM835.494 363.414C830.922 360.845 827.471 357.324 825.047 352.782L816.225 357.491C819.559 363.737 824.381 368.64 830.596 372.132L835.494 363.414ZM825.053 352.792C822.616 348.201 821.318 342.742 821.318 336.273H811.318C811.318 344.107 812.899 351.224 816.22 357.48L825.053 352.792ZM821.318 336.273C821.318 329.803 822.616 324.364 825.047 319.809L816.225 315.1C812.899 321.333 811.318 328.44 811.318 336.273H821.318ZM825.053 319.799C827.477 315.232 830.921 311.721 835.476 309.188L830.615 300.449C824.382 303.915 819.554 308.829 816.22 315.111L825.053 319.799ZM835.494 309.177C839.99 306.652 845.591 305.273 852.5 305.273V295.273C844.258 295.273 836.889 296.924 830.596 300.459L835.494 309.177ZM852.5 305.273C859.409 305.273 865.01 306.652 869.506 309.177L874.404 300.459C868.111 296.924 860.742 295.273 852.5 295.273V305.273ZM869.524 309.188C874.079 311.721 877.523 315.232 879.947 319.799L888.78 315.111C885.446 308.829 880.618 303.915 874.385 300.449L869.524 309.188ZM879.953 319.809C882.384 324.364 883.682 329.803 883.682 336.273H893.682C893.682 328.44 892.101 321.333 888.775 315.1L879.953 319.809ZM883.682 336.273C883.682 342.742 882.384 348.201 879.947 352.792L888.78 357.48C892.101 351.224 893.682 344.107 893.682 336.273H883.682ZM879.953 352.782C877.529 357.324 874.078 360.845 869.506 363.414L874.404 372.132C880.619 368.64 885.441 363.737 888.775 357.491L879.953 352.782ZM869.524 363.403C865.025 365.906 859.417 367.273 852.5 367.273V377.273C860.735 377.273 868.096 375.64 874.385 372.142L869.524 363.403ZM852.682 358.727C856.046 358.727 859.092 357.552 861.57 355.268L854.793 347.914C854.181 348.479 853.56 348.727 852.682 348.727V358.727ZM861.57 355.268C863.92 353.102 865.501 350.237 866.532 347.032L857.013 343.968C856.348 346.036 855.534 347.232 854.793 347.914L861.57 355.268ZM866.532 347.032C867.581 343.773 868.045 340.094 868.045 336.091H858.045C858.045 339.36 857.661 341.954 857.013 343.968L866.532 347.032ZM868.045 336.091C868.045 332.064 867.583 328.376 866.527 325.134L857.018 328.23C857.66 330.199 858.045 332.784 858.045 336.091H868.045ZM866.532 325.15C865.501 321.945 863.92 319.08 861.57 316.914L854.793 324.268C855.534 324.95 856.348 326.146 857.013 328.214L866.532 325.15ZM861.57 316.914C859.092 314.63 856.046 313.455 852.682 313.455V323.455C853.56 323.455 854.181 323.703 854.793 324.268L861.57 316.914ZM852.682 313.455C849.277 313.455 846.156 314.576 843.592 316.85L850.227 324.332C850.874 323.758 851.602 323.455 852.682 323.455V313.455ZM843.592 316.85C841.148 319.017 839.512 321.904 838.468 325.15L847.987 328.214C848.639 326.187 849.458 325.013 850.227 324.332L843.592 316.85ZM838.473 325.134C837.417 328.376 836.955 332.064 836.955 336.091H846.955C846.955 332.784 847.34 330.199 847.982 328.23L838.473 325.134ZM836.955 336.091C836.955 340.094 837.419 343.773 838.468 347.032L847.987 343.968C847.339 341.954 846.955 339.36 846.955 336.091H836.955ZM838.468 347.032C839.512 350.278 841.148 353.165 843.592 355.332L850.227 347.85C849.458 347.168 848.639 345.995 847.987 343.968L838.468 347.032ZM843.592 355.332C846.156 357.606 849.277 358.727 852.682 358.727V348.727C851.602 348.727 850.874 348.424 850.227 347.85L843.592 355.332ZM913.045 367.773L910.596 372.132L910.606 372.137L910.615 372.142L913.045 367.773ZM900.636 355.136L896.22 357.48L896.225 357.491L900.636 355.136ZM900.636 317.455L905.047 319.809L905.053 319.799L900.636 317.455ZM913.045 304.818L915.476 309.188L915.485 309.183L915.494 309.177L913.045 304.818ZM951.955 304.818L949.506 309.177L949.515 309.183L949.524 309.188L951.955 304.818ZM964.364 317.455L959.947 319.799L959.953 319.809L964.364 317.455ZM964.364 355.136L968.775 357.491L968.78 357.48L964.364 355.136ZM951.955 367.773L954.385 372.142L954.394 372.137L954.404 372.132L951.955 367.773ZM938.182 351.591L941.57 355.268V355.268L938.182 351.591ZM941.773 345.5L946.532 347.032L941.773 345.5ZM941.773 326.682L937.013 328.214L937.016 328.222L937.018 328.23L941.773 326.682ZM938.182 320.591L941.57 316.914V316.914L938.182 320.591ZM923.227 326.682L927.982 328.23L927.984 328.222L927.987 328.214L923.227 326.682ZM923.227 345.5L927.987 343.968L923.227 345.5ZM932.5 367.273C925.583 367.273 919.975 365.906 915.476 363.403L910.615 372.142C916.904 375.64 924.265 377.273 932.5 377.273V367.273ZM915.494 363.414C910.922 360.845 907.471 357.324 905.047 352.782L896.225 357.491C899.559 363.737 904.381 368.64 910.596 372.132L915.494 363.414ZM905.053 352.792C902.616 348.201 901.318 342.742 901.318 336.273H891.318C891.318 344.107 892.899 351.224 896.22 357.48L905.053 352.792ZM901.318 336.273C901.318 329.803 902.616 324.364 905.047 319.809L896.225 315.1C892.899 321.333 891.318 328.44 891.318 336.273H901.318ZM905.053 319.799C907.477 315.232 910.921 311.721 915.476 309.188L910.615 300.449C904.382 303.915 899.554 308.829 896.22 315.111L905.053 319.799ZM915.494 309.177C919.99 306.652 925.591 305.273 932.5 305.273V295.273C924.258 295.273 916.889 296.924 910.596 300.459L915.494 309.177ZM932.5 305.273C939.409 305.273 945.01 306.652 949.506 309.177L954.404 300.459C948.111 296.924 940.742 295.273 932.5 295.273V305.273ZM949.524 309.188C954.079 311.721 957.523 315.232 959.947 319.799L968.78 315.111C965.446 308.829 960.618 303.915 954.385 300.449L949.524 309.188ZM959.953 319.809C962.384 324.364 963.682 329.803 963.682 336.273H973.682C973.682 328.44 972.101 321.333 968.775 315.1L959.953 319.809ZM963.682 336.273C963.682 342.742 962.384 348.201 959.947 352.792L968.78 357.48C972.101 351.224 973.682 344.107 973.682 336.273H963.682ZM959.953 352.782C957.529 357.324 954.078 360.845 949.506 363.414L954.404 372.132C960.619 368.64 965.441 363.737 968.775 357.491L959.953 352.782ZM949.524 363.403C945.025 365.906 939.417 367.273 932.5 367.273V377.273C940.735 377.273 948.096 375.64 954.385 372.142L949.524 363.403ZM932.682 358.727C936.046 358.727 939.092 357.552 941.57 355.268L934.793 347.914C934.181 348.479 933.56 348.727 932.682 348.727V358.727ZM941.57 355.268C943.92 353.102 945.501 350.237 946.532 347.032L937.013 343.968C936.348 346.036 935.534 347.232 934.793 347.914L941.57 355.268ZM946.532 347.032C947.581 343.773 948.045 340.094 948.045 336.091H938.045C938.045 339.36 937.661 341.954 937.013 343.968L946.532 347.032ZM948.045 336.091C948.045 332.064 947.583 328.376 946.527 325.134L937.018 328.23C937.66 330.199 938.045 332.784 938.045 336.091H948.045ZM946.532 325.15C945.501 321.945 943.92 319.08 941.57 316.914L934.793 324.268C935.534 324.95 936.348 326.146 937.013 328.214L946.532 325.15ZM941.57 316.914C939.092 314.63 936.046 313.455 932.682 313.455V323.455C933.56 323.455 934.181 323.703 934.793 324.268L941.57 316.914ZM932.682 313.455C929.277 313.455 926.156 314.576 923.592 316.85L930.227 324.332C930.874 323.758 931.602 323.455 932.682 323.455V313.455ZM923.592 316.85C921.148 319.017 919.512 321.904 918.468 325.15L927.987 328.214C928.639 326.187 929.458 325.013 930.227 324.332L923.592 316.85ZM918.473 325.134C917.417 328.376 916.955 332.064 916.955 336.091H926.955C926.955 332.784 927.34 330.199 927.982 328.23L918.473 325.134ZM916.955 336.091C916.955 340.094 917.419 343.773 918.468 347.032L927.987 343.968C927.339 341.954 926.955 339.36 926.955 336.091H916.955ZM918.468 347.032C919.512 350.278 921.148 353.165 923.592 355.332L930.227 347.85C929.458 347.168 928.639 345.995 927.987 343.968L918.468 347.032ZM923.592 355.332C926.156 357.606 929.277 358.727 932.682 358.727V348.727C931.602 348.727 930.874 348.424 930.227 347.85L923.592 355.332ZM978.864 371H973.864V376H978.864V371ZM978.864 301.182V296.182H973.864V301.182H978.864ZM1002.68 301.182H1007.68V296.182H1002.68V301.182ZM1002.68 314.455H997.682V319.455H1002.68V314.455ZM1003.41 314.455V319.455H1007.01L1008.15 316.036L1003.41 314.455ZM1010.86 304.091L1007.93 300.041V300.041L1010.86 304.091ZM1036.09 304.182L1033.13 308.211L1033.14 308.219L1033.15 308.227L1036.09 304.182ZM1042.5 314.455L1037.57 315.294L1038.28 319.455H1042.5V314.455ZM1043.23 314.455V319.455H1047.03L1048.05 315.787L1043.23 314.455ZM1050.77 304.182L1053.55 308.337L1053.57 308.329L1053.58 308.322L1050.77 304.182ZM1080.59 306.727L1076.99 310.199L1077 310.205L1077.01 310.212L1080.59 306.727ZM1086.86 371V376H1091.86V371H1086.86ZM1061.77 371H1056.77V376H1061.77V371ZM1059.45 323.091L1055.7 326.393L1055.71 326.409L1055.73 326.425L1059.45 323.091ZM1047.09 323.091L1043.3 319.826L1043.3 319.831L1047.09 323.091ZM1044.86 371V376H1049.86V371H1044.86ZM1020.86 371H1015.86V376H1020.86V371ZM1018.55 323.091L1014.79 326.393L1014.8 326.409L1014.82 326.425L1018.55 323.091ZM1007.86 321.636L1010.54 325.859V325.859L1007.86 321.636ZM1004.95 325.045L1000.43 322.921L1000.42 322.942L1000.41 322.962L1004.95 325.045ZM1003.95 371V376H1008.95V371H1003.95ZM983.864 371V301.182H973.864V371H983.864ZM978.864 306.182H1002.68V296.182H978.864V306.182ZM997.682 301.182V314.455H1007.68V301.182H997.682ZM1002.68 319.455H1003.41V309.455H1002.68V319.455ZM1008.15 316.036C1009.3 312.601 1011.18 310.035 1013.8 308.141L1007.93 300.041C1003.52 303.238 1000.43 307.581 998.666 312.873L1008.15 316.036ZM1013.8 308.141C1016.36 306.285 1019.48 305.273 1023.41 305.273V295.273C1017.64 295.273 1012.4 296.806 1007.93 300.041L1013.8 308.141ZM1023.41 305.273C1027.38 305.273 1030.54 306.308 1033.13 308.211L1039.05 300.153C1034.55 296.844 1029.25 295.273 1023.41 295.273V305.273ZM1033.15 308.227C1035.65 310.045 1037.07 312.324 1037.57 315.294L1047.43 313.616C1046.48 308.039 1043.62 303.471 1039.03 300.137L1033.15 308.227ZM1042.5 319.455H1043.23V309.455H1042.5V319.455ZM1048.05 315.787C1048.89 312.724 1050.65 310.279 1053.55 308.337L1047.99 300.027C1043.2 303.236 1039.92 307.639 1038.41 313.122L1048.05 315.787ZM1053.58 308.322C1056.5 306.34 1060.02 305.273 1064.32 305.273V295.273C1058.26 295.273 1052.74 296.812 1047.97 300.042L1053.58 308.322ZM1064.32 305.273C1069.84 305.273 1073.9 306.994 1076.99 310.199L1084.19 303.256C1078.98 297.854 1072.19 295.273 1064.32 295.273V305.273ZM1077.01 310.212C1080.11 313.407 1081.86 317.792 1081.86 323.909H1091.86C1091.86 315.723 1089.44 308.654 1084.18 303.243L1077.01 310.212ZM1081.86 323.909V371H1091.86V323.909H1081.86ZM1086.86 366H1061.77V376H1086.86V366ZM1066.77 371V330.273H1056.77V371H1066.77ZM1066.77 330.273C1066.77 326.384 1065.78 322.662 1063.18 319.757L1055.73 326.425C1056.22 326.974 1056.77 328.04 1056.77 330.273H1066.77ZM1063.21 319.789C1060.6 316.822 1057.09 315.455 1053.23 315.455V325.455C1054.58 325.455 1055.22 325.844 1055.7 326.393L1063.21 319.789ZM1053.23 315.455C1049.38 315.455 1045.88 316.838 1043.3 319.826L1050.88 326.356C1051.33 325.829 1051.93 325.455 1053.23 325.455V315.455ZM1043.3 319.831C1040.8 322.737 1039.86 326.43 1039.86 330.273H1049.86C1049.86 327.994 1050.41 326.899 1050.88 326.35L1043.3 319.831ZM1039.86 330.273V371H1049.86V330.273H1039.86ZM1044.86 366H1020.86V376H1044.86V366ZM1025.86 371V330.273H1015.86V371H1025.86ZM1025.86 330.273C1025.86 326.384 1024.87 322.662 1022.27 319.757L1014.82 326.425C1015.31 326.974 1015.86 328.04 1015.86 330.273H1025.86ZM1022.3 319.789C1019.69 316.822 1016.18 315.455 1012.32 315.455V325.455C1013.67 325.455 1014.31 325.844 1014.79 326.393L1022.3 319.789ZM1012.32 315.455C1009.81 315.455 1007.36 316.035 1005.19 317.414L1010.54 325.859C1010.85 325.662 1011.37 325.455 1012.32 325.455V315.455ZM1005.19 317.414C1003.05 318.768 1001.48 320.677 1000.43 322.921L1009.48 327.17C1009.82 326.444 1010.19 326.08 1010.54 325.859L1005.19 317.414ZM1000.41 322.962C999.374 325.221 998.955 327.71 998.955 330.273H1008.95C1008.95 328.775 1009.2 327.779 1009.5 327.129L1000.41 322.962ZM998.955 330.273V371H1008.95V330.273H998.955ZM1003.95 366H978.864V376H1003.95V366ZM1099.24 371H1094.24V376H1099.24V371ZM1099.24 301.182V296.182H1094.24V301.182H1099.24ZM1124.33 301.182H1129.33V296.182H1124.33V301.182ZM1124.33 371V376H1129.33V371H1124.33ZM1103.06 290.545L1099.66 294.216V294.216L1103.06 290.545ZM1103.06 274.364L1099.66 270.693V270.693L1103.06 274.364ZM1120.51 274.364L1117.09 278.013L1117.1 278.023L1117.12 278.034L1120.51 274.364ZM1120.51 290.545L1117.12 286.875L1117.1 286.886L1117.09 286.896L1120.51 290.545ZM1104.24 371V301.182H1094.24V371H1104.24ZM1099.24 306.182H1124.33V296.182H1099.24V306.182ZM1119.33 301.182V371H1129.33V301.182H1119.33ZM1124.33 366H1099.24V376H1124.33V366ZM1111.78 288.909C1109.61 288.909 1107.92 288.237 1106.45 286.875L1099.66 294.216C1103.04 297.339 1107.17 298.909 1111.78 298.909V288.909ZM1106.45 286.875C1105 285.528 1104.42 284.139 1104.42 282.455H1094.42C1094.42 287.073 1096.27 291.078 1099.66 294.216L1106.45 286.875ZM1104.42 282.455C1104.42 280.77 1105 279.381 1106.45 278.034L1099.66 270.693C1096.27 273.831 1094.42 277.836 1094.42 282.455H1104.42ZM1106.45 278.034C1107.92 276.672 1109.61 276 1111.78 276V266C1107.17 266 1103.04 267.57 1099.66 270.693L1106.45 278.034ZM1111.78 276C1114 276 1115.67 276.679 1117.09 278.013L1123.93 270.715C1120.57 267.563 1116.42 266 1111.78 266V276ZM1117.12 278.034C1118.57 279.381 1119.15 280.77 1119.15 282.455H1129.15C1129.15 277.836 1127.3 273.831 1123.91 270.693L1117.12 278.034ZM1119.15 282.455C1119.15 284.139 1118.57 285.528 1117.12 286.875L1123.91 294.216C1127.3 291.078 1129.15 287.073 1129.15 282.455H1119.15ZM1117.09 286.896C1115.67 288.23 1114 288.909 1111.78 288.909V298.909C1116.42 298.909 1120.57 297.346 1123.93 294.195L1117.09 286.896Z" fill="url(#paint4_linear_146_129)" mask="url(#path-5-outside-1_146_129)"/>
<path d="M63.5234 34.8515L56 54.625H64.0948L67.8088 43.9341L63.5234 34.8515Z" fill="white"/>
<path d="M74.4751 54.625L64.8566 34H72.7609L82.3794 54.625H74.4751Z" fill="white"/>
<path d="M79.1073 39.0143L76.917 34H84.5356L87.0116 39.0143H79.1073Z" fill="white"/>
<path d="M86.2498 54.625L79.4883 40.3389H87.4878L94.4398 54.625H86.2498Z" fill="white"/>
<path d="M90.882 39.0143L88.6916 34H101.643L104.024 39.0143H90.882Z" fill="white"/>
<path d="M100.405 54.625L93.8342 40.3389H101.643L108.5 54.625H100.405Z" fill="white"/>
<path d="M140.648 39.3636V35.5455H155.818V39.3636H150.568V53H145.898V39.3636H140.648ZM157.602 53V35.5455H170.181V39.3636H162.34V42.3636H169.533V46.1818H162.34V49.1818H170.147V53H157.602ZM188.827 42.0909H184.02C183.986 41.6932 183.895 41.3324 183.747 41.0085C183.605 40.6847 183.406 40.4062 183.151 40.1733C182.901 39.9347 182.597 39.7528 182.239 39.6278C181.881 39.4972 181.474 39.4318 181.02 39.4318C180.224 39.4318 179.551 39.625 179 40.0114C178.455 40.3977 178.04 40.9517 177.756 41.6733C177.477 42.3949 177.338 43.2614 177.338 44.2727C177.338 45.3409 177.48 46.2358 177.764 46.9574C178.054 47.6733 178.472 48.2131 179.017 48.5767C179.563 48.9347 180.219 49.1136 180.986 49.1136C181.423 49.1136 181.815 49.0597 182.162 48.9517C182.509 48.8381 182.81 48.6761 183.065 48.4659C183.321 48.2557 183.528 48.0028 183.688 47.7074C183.852 47.4062 183.963 47.0682 184.02 46.6932L188.827 46.7273C188.77 47.4659 188.563 48.2187 188.205 48.9858C187.847 49.7472 187.338 50.4517 186.679 51.0994C186.026 51.7415 185.216 52.2585 184.25 52.6506C183.284 53.0426 182.162 53.2386 180.884 53.2386C179.281 53.2386 177.844 52.8949 176.571 52.2074C175.304 51.5199 174.301 50.5085 173.562 49.1733C172.83 47.8381 172.463 46.2045 172.463 44.2727C172.463 42.3295 172.838 40.6932 173.588 39.3636C174.338 38.0284 175.349 37.0199 176.622 36.3381C177.895 35.6506 179.315 35.3068 180.884 35.3068C181.986 35.3068 183 35.4574 183.926 35.7585C184.852 36.0597 185.665 36.5 186.364 37.0795C187.063 37.6534 187.625 38.3608 188.051 39.2017C188.477 40.0426 188.736 41.0057 188.827 42.0909ZM190.977 53V35.5455H195.715V42.3636H201.988V35.5455H206.727V53H201.988V46.1818H195.715V53H190.977ZM224.079 35.5455V53H220.124L213.817 43.8295H213.715V53H208.977V35.5455H212.999L219.204 44.6818H219.34V35.5455H224.079ZM243.229 44.2727C243.229 46.2159 242.852 47.8551 242.096 49.1903C241.34 50.5199 240.32 51.5284 239.036 52.2159C237.752 52.8977 236.32 53.2386 234.741 53.2386C233.15 53.2386 231.712 52.8949 230.428 52.2074C229.15 51.5142 228.133 50.5028 227.377 49.1733C226.627 47.8381 226.252 46.2045 226.252 44.2727C226.252 42.3295 226.627 40.6932 227.377 39.3636C228.133 38.0284 229.15 37.0199 230.428 36.3381C231.712 35.6506 233.15 35.3068 234.741 35.3068C236.32 35.3068 237.752 35.6506 239.036 36.3381C240.32 37.0199 241.34 38.0284 242.096 39.3636C242.852 40.6932 243.229 42.3295 243.229 44.2727ZM238.354 44.2727C238.354 43.2273 238.215 42.3466 237.937 41.6307C237.664 40.9091 237.258 40.3636 236.718 39.9943C236.184 39.6193 235.525 39.4318 234.741 39.4318C233.957 39.4318 233.295 39.6193 232.755 39.9943C232.221 40.3636 231.815 40.9091 231.536 41.6307C231.263 42.3466 231.127 43.2273 231.127 44.2727C231.127 45.3182 231.263 46.2017 231.536 46.9233C231.815 47.6392 232.221 48.1847 232.755 48.5597C233.295 48.929 233.957 49.1136 234.741 49.1136C235.525 49.1136 236.184 48.929 236.718 48.5597C237.258 48.1847 237.664 47.6392 237.937 46.9233C238.215 46.2017 238.354 45.3182 238.354 44.2727ZM254.831 41C254.786 40.4318 254.572 39.9886 254.192 39.6705C253.817 39.3523 253.246 39.1932 252.479 39.1932C251.99 39.1932 251.589 39.2528 251.277 39.3722C250.97 39.4858 250.743 39.642 250.595 39.8409C250.447 40.0398 250.371 40.267 250.365 40.5227C250.354 40.733 250.391 40.9233 250.476 41.0938C250.567 41.2585 250.709 41.4091 250.902 41.5455C251.095 41.6761 251.342 41.7955 251.643 41.9034C251.945 42.0114 252.303 42.108 252.717 42.1932L254.149 42.5C255.115 42.7045 255.942 42.9744 256.629 43.3097C257.317 43.6449 257.879 44.0398 258.317 44.4943C258.754 44.9432 259.075 45.4489 259.28 46.0114C259.49 46.5739 259.598 47.1875 259.604 47.8523C259.598 49 259.311 49.9716 258.743 50.767C258.175 51.5625 257.362 52.1676 256.305 52.5824C255.254 52.9972 253.99 53.2045 252.513 53.2045C250.996 53.2045 249.672 52.9801 248.541 52.5312C247.416 52.0824 246.541 51.392 245.916 50.4602C245.297 49.5227 244.984 48.3239 244.979 46.8636H249.479C249.507 47.3977 249.641 47.8466 249.879 48.2102C250.118 48.5739 250.453 48.8494 250.885 49.0369C251.322 49.2244 251.842 49.3182 252.445 49.3182C252.95 49.3182 253.374 49.2557 253.714 49.1307C254.055 49.0057 254.314 48.8324 254.49 48.6108C254.666 48.3892 254.757 48.1364 254.763 47.8523C254.757 47.5852 254.669 47.3523 254.499 47.1534C254.334 46.9489 254.061 46.767 253.68 46.608C253.3 46.4432 252.786 46.2898 252.138 46.1477L250.399 45.7727C248.854 45.4375 247.635 44.8778 246.743 44.0938C245.857 43.304 245.416 42.2273 245.422 40.8636C245.416 39.7557 245.712 38.7869 246.308 37.9574C246.911 37.1222 247.743 36.4716 248.805 36.0057C249.874 35.5398 251.098 35.3068 252.479 35.3068C253.888 35.3068 255.107 35.5426 256.135 36.0142C257.163 36.4858 257.956 37.1506 258.513 38.0085C259.075 38.8608 259.359 39.858 259.365 41H254.831ZM261.406 53V35.5455H268.94C270.236 35.5455 271.369 35.8011 272.341 36.3125C273.313 36.8239 274.068 37.5426 274.608 38.4688C275.148 39.3949 275.418 40.4773 275.418 41.7159C275.418 42.9659 275.139 44.0483 274.582 44.9631C274.031 45.8778 273.256 46.5824 272.256 47.0767C271.261 47.571 270.099 47.8182 268.77 47.8182H264.27V44.1364H267.815C268.372 44.1364 268.847 44.0398 269.239 43.8466C269.636 43.6477 269.94 43.3665 270.151 43.0028C270.366 42.6392 270.474 42.2102 270.474 41.7159C270.474 41.2159 270.366 40.7898 270.151 40.4375C269.94 40.0795 269.636 39.8068 269.239 39.6193C268.847 39.4261 268.372 39.3295 267.815 39.3295H266.145V53H261.406ZM279.511 53H274.397L280.158 35.5455H286.636L292.397 53H287.283L283.465 40.3523H283.329L279.511 53ZM278.556 46.1136H288.17V49.6591H278.556V46.1136ZM294.078 53V35.5455H301.612C302.908 35.5455 304.041 35.7812 305.013 36.2528C305.984 36.7244 306.74 37.4034 307.28 38.2898C307.82 39.1761 308.089 40.2386 308.089 41.4773C308.089 42.7273 307.811 43.7812 307.254 44.6392C306.703 45.4972 305.928 46.1449 304.928 46.5824C303.933 47.0199 302.771 47.2386 301.442 47.2386H296.942V43.5568H300.487C301.044 43.5568 301.518 43.4886 301.911 43.3523C302.308 43.2102 302.612 42.9858 302.822 42.679C303.038 42.3722 303.146 41.9716 303.146 41.4773C303.146 40.9773 303.038 40.571 302.822 40.2585C302.612 39.9403 302.308 39.7074 301.911 39.5597C301.518 39.4062 301.044 39.3295 300.487 39.3295H298.817V53H294.078ZM304.305 44.9886L308.669 53H303.521L299.26 44.9886H304.305ZM315.189 35.5455L318.053 40.625H318.189L321.087 35.5455H326.371L321.155 44.2727L326.575 53H321.155L318.189 47.8182H318.053L315.087 53H309.7L315.053 44.2727L309.871 35.5455H315.189Z" fill="white"/>
<g opacity="0.25">
<path d="M934 122.615C934 73.6746 978.324 34 1033 34C1087.68 34 1132 73.6746 1132 122.615M934 122.615H956C968.15 122.615 978 131.432 978 142.307V162C978 172.876 968.15 181.692 956 181.692M934 122.615V171.846C934 177.284 938.925 181.692 945 181.692H956M1132 122.615H1110C1097.85 122.615 1088 131.432 1088 142.307V162C1088 172.876 1097.85 181.692 1110 181.692H1121C1127.08 181.692 1132 177.284 1132 171.846V122.615ZM956 181.692V191.538C956 202.414 965.85 211.231 978 211.231H1000M1000 211.231C1000 219.388 1007.39 226 1016.5 226H1027.5C1036.61 226 1044 219.388 1044 211.231C1044 203.074 1036.61 196.461 1027.5 196.461H1016.5C1007.39 196.461 1000 203.074 1000 211.231Z" stroke="url(#paint5_linear_146_129)" stroke-width="15" stroke-linecap="round"/>
</g>
<g opacity="0.25" clip-path="url(#clip1_146_129)">
<path d="M231.802 535.779C225.473 543.439 213.457 546.756 204.467 542.669L181.236 534.301L108.177 572.21L101.643 596.022C99.0527 607.577 87.4725 615.044 75.0202 614.212C65.8702 613.125 59.5863 607.633 57.9576 601.185L45.3639 553.747C40.9139 538.552 50.4293 520.486 66.6647 512.062L104.547 492.406L95.6022 475.167C90.8316 465.972 94.7749 453.715 105.599 448.099L147.54 426.337C151.599 424.231 155.497 425.125 157.286 428.573C159.075 432.021 157.562 435.724 153.503 437.83L112.915 458.89C108.856 460.996 107.343 464.699 108.535 466.997L109.132 468.147L118.077 485.386L155.959 465.729C172.195 457.305 192.444 459.927 202.306 472.314L233.841 509.923C239.368 517.266 239.484 527.417 231.802 535.779ZM105.926 528.158C101.155 518.964 87.5104 515.833 76.6868 521.449C65.8633 527.065 60.5669 540.024 65.3376 549.218C70.1082 558.412 83.7532 561.543 94.5768 555.927C105.4 550.311 110.697 537.352 105.926 528.158ZM187.103 486.037C185.314 482.589 181.415 481.695 177.356 483.801L170.592 487.311L167.61 481.565C165.821 478.117 161.923 477.222 157.864 479.328C153.805 481.434 152.292 485.137 154.081 488.585L157.062 494.331L150.298 497.841C146.239 499.947 144.725 503.65 146.514 507.098C148.303 510.545 152.202 511.44 156.261 509.334L163.026 505.824L166.007 511.57C167.796 515.018 171.695 515.913 175.754 513.807C179.812 511.701 181.326 507.998 179.537 504.55L176.555 498.804L183.32 495.294C187.379 493.188 188.892 489.485 187.103 486.037Z" fill="url(#paint6_linear_146_129)"/>
</g>
</g>
<defs>
<linearGradient id="paint0_linear_146_129" x1="-63.757" y1="-34.0073" x2="-63.757" y2="347.166" gradientUnits="userSpaceOnUse">
<stop stop-color="#FF9E0B"/>
<stop offset="1" stop-color="#EC4899"/>
</linearGradient>
<linearGradient id="paint1_linear_146_129" x1="1173" y1="695.827" x2="1173" y2="969.442" gradientUnits="userSpaceOnUse">
<stop stop-color="#FF9E0B"/>
<stop offset="1" stop-color="#F24E52"/>
</linearGradient>
<linearGradient id="paint2_linear_146_129" x1="882.5" y1="530" x2="882.5" y2="919" gradientUnits="userSpaceOnUse">
<stop stop-color="#FF9E0B"/>
<stop offset="1" stop-color="#9C67E7"/>
</linearGradient>
<linearGradient id="paint3_linear_146_129" x1="491" y1="30" x2="491" y2="162" gradientUnits="userSpaceOnUse">
<stop stop-color="#FF9E0B"/>
<stop offset="1" stop-color="#DA46EB"/>
</linearGradient>
<linearGradient id="paint4_linear_146_129" x1="606.5" y1="247" x2="606.5" y2="402" gradientUnits="userSpaceOnUse">
<stop stop-color="#FF9E0B"/>
<stop offset="0.49" stop-color="#F24E52"/>
</linearGradient>
<linearGradient id="paint5_linear_146_129" x1="1033" y1="34" x2="1033" y2="226" gradientUnits="userSpaceOnUse">
<stop stop-color="#9C67E7"/>
<stop offset="1" stop-color="#FF9A0F"/>
</linearGradient>
<linearGradient id="paint6_linear_146_129" x1="93.3797" y1="454.439" x2="156.816" y2="576.698" gradientUnits="userSpaceOnUse">
<stop stop-color="#9C67E7"/>
<stop offset="1" stop-color="#4A74F4"/>
</linearGradient>
<clipPath id="clip0_146_129">
<rect width="1200" height="630" fill="white"/>
</clipPath>
<clipPath id="clip1_146_129">
<rect width="228.635" height="194.217" fill="white" transform="translate(-21 467.302) rotate(-27.4237)"/>
</clipPath>
</defs>
</svg>
