<svg width="1200" height="630" viewBox="0 0 1200 630" fill="none" xmlns="http://www.w3.org/2000/svg">
<g clip-path="url(#clip0_142_2)">
<rect width="1200" height="630" fill="black"/>
<rect x="-427.809" y="-32.4844" width="729.486" height="376.173" transform="rotate(-19.4848 -427.809 -32.4844)" stroke="url(#paint0_linear_142_2)" stroke-width="5"/>
<rect x="883" y="695.827" width="580" height="273.616" transform="rotate(-35.26 883 695.827)" fill="url(#paint1_linear_142_2)"/>
<circle cx="882.5" cy="724.5" r="193" stroke="url(#paint2_linear_142_2)" stroke-width="3"/>
<path opacity="0.49" d="M415 58.3636C414.121 58.3636 413.367 58.0568 412.739 57.4432C412.117 56.822 411.811 56.0682 411.818 55.1818C411.811 54.3182 412.117 53.5795 412.739 52.9659C413.367 52.3523 414.121 52.0455 415 52.0455C415.833 52.0455 416.568 52.3523 417.205 52.9659C417.848 53.5795 418.174 54.3182 418.182 55.1818C418.174 55.7727 418.019 56.3106 417.716 56.7955C417.42 57.2727 417.034 57.6553 416.557 57.9432C416.08 58.2235 415.561 58.3636 415 58.3636ZM459.003 58.3636C458.124 58.3636 457.37 58.0568 456.741 57.4432C456.12 56.822 455.813 56.0682 455.821 55.1818C455.813 54.3182 456.12 53.5795 456.741 52.9659C457.37 52.3523 458.124 52.0455 459.003 52.0455C459.836 52.0455 460.571 52.3523 461.207 52.9659C461.851 53.5795 462.177 54.3182 462.184 55.1818C462.177 55.7727 462.021 56.3106 461.718 56.7955C461.423 57.2727 461.037 57.6553 460.559 57.9432C460.082 58.2235 459.563 58.3636 459.003 58.3636ZM503.005 58.3636C502.126 58.3636 501.372 58.0568 500.744 57.4432C500.122 56.822 499.816 56.0682 499.823 55.1818C499.816 54.3182 500.122 53.5795 500.744 52.9659C501.372 52.3523 502.126 52.0455 503.005 52.0455C503.838 52.0455 504.573 52.3523 505.21 52.9659C505.853 53.5795 506.179 54.3182 506.187 55.1818C506.179 55.7727 506.024 56.3106 505.721 56.7955C505.425 57.2727 505.039 57.6553 504.562 57.9432C504.085 58.2235 503.566 58.3636 503.005 58.3636ZM547.008 58.3636C546.129 58.3636 545.375 58.0568 544.746 57.4432C544.125 56.822 543.818 56.0682 543.826 55.1818C543.818 54.3182 544.125 53.5795 544.746 52.9659C545.375 52.3523 546.129 52.0455 547.008 52.0455C547.841 52.0455 548.576 52.3523 549.212 52.9659C549.856 53.5795 550.182 54.3182 550.189 55.1818C550.182 55.7727 550.026 56.3106 549.723 56.7955C549.428 57.2727 549.042 57.6553 548.564 57.9432C548.087 58.2235 547.568 58.3636 547.008 58.3636ZM415 91.3636C414.121 91.3636 413.367 91.0568 412.739 90.4432C412.117 89.822 411.811 89.0682 411.818 88.1818C411.811 87.3182 412.117 86.5795 412.739 85.9659C413.367 85.3523 414.121 85.0455 415 85.0455C415.833 85.0455 416.568 85.3523 417.205 85.9659C417.848 86.5795 418.174 87.3182 418.182 88.1818C418.174 88.7727 418.019 89.3106 417.716 89.7955C417.42 90.2727 417.034 90.6553 416.557 90.9432C416.08 91.2235 415.561 91.3636 415 91.3636ZM459.003 91.3636C458.124 91.3636 457.37 91.0568 456.741 90.4432C456.12 89.822 455.813 89.0682 455.821 88.1818C455.813 87.3182 456.12 86.5795 456.741 85.9659C457.37 85.3523 458.124 85.0455 459.003 85.0455C459.836 85.0455 460.571 85.3523 461.207 85.9659C461.851 86.5795 462.177 87.3182 462.184 88.1818C462.177 88.7727 462.021 89.3106 461.718 89.7955C461.423 90.2727 461.037 90.6553 460.559 90.9432C460.082 91.2235 459.563 91.3636 459.003 91.3636ZM503.005 91.3636C502.126 91.3636 501.372 91.0568 500.744 90.4432C500.122 89.822 499.816 89.0682 499.823 88.1818C499.816 87.3182 500.122 86.5795 500.744 85.9659C501.372 85.3523 502.126 85.0455 503.005 85.0455C503.838 85.0455 504.573 85.3523 505.21 85.9659C505.853 86.5795 506.179 87.3182 506.187 88.1818C506.179 88.7727 506.024 89.3106 505.721 89.7955C505.425 90.2727 505.039 90.6553 504.562 90.9432C504.085 91.2235 503.566 91.3636 503.005 91.3636ZM547.008 91.3636C546.129 91.3636 545.375 91.0568 544.746 90.4432C544.125 89.822 543.818 89.0682 543.826 88.1818C543.818 87.3182 544.125 86.5795 544.746 85.9659C545.375 85.3523 546.129 85.0455 547.008 85.0455C547.841 85.0455 548.576 85.3523 549.212 85.9659C549.856 86.5795 550.182 87.3182 550.189 88.1818C550.182 88.7727 550.026 89.3106 549.723 89.7955C549.428 90.2727 549.042 90.6553 548.564 90.9432C548.087 91.2235 547.568 91.3636 547.008 91.3636ZM415 124.364C414.121 124.364 413.367 124.057 412.739 123.443C412.117 122.822 411.811 122.068 411.818 121.182C411.811 120.318 412.117 119.58 412.739 118.966C413.367 118.352 414.121 118.045 415 118.045C415.833 118.045 416.568 118.352 417.205 118.966C417.848 119.58 418.174 120.318 418.182 121.182C418.174 121.773 418.019 122.311 417.716 122.795C417.42 123.273 417.034 123.655 416.557 123.943C416.08 124.223 415.561 124.364 415 124.364ZM459.003 124.364C458.124 124.364 457.37 124.057 456.741 123.443C456.12 122.822 455.813 122.068 455.821 121.182C455.813 120.318 456.12 119.58 456.741 118.966C457.37 118.352 458.124 118.045 459.003 118.045C459.836 118.045 460.571 118.352 461.207 118.966C461.851 119.58 462.177 120.318 462.184 121.182C462.177 121.773 462.021 122.311 461.718 122.795C461.423 123.273 461.037 123.655 460.559 123.943C460.082 124.223 459.563 124.364 459.003 124.364ZM503.005 124.364C502.126 124.364 501.372 124.057 500.744 123.443C500.122 122.822 499.816 122.068 499.823 121.182C499.816 120.318 500.122 119.58 500.744 118.966C501.372 118.352 502.126 118.045 503.005 118.045C503.838 118.045 504.573 118.352 505.21 118.966C505.853 119.58 506.179 120.318 506.187 121.182C506.179 121.773 506.024 122.311 505.721 122.795C505.425 123.273 505.039 123.655 504.562 123.943C504.085 124.223 503.566 124.364 503.005 124.364ZM547.008 124.364C546.129 124.364 545.375 124.057 544.746 123.443C544.125 122.822 543.818 122.068 543.826 121.182C543.818 120.318 544.125 119.58 544.746 118.966C545.375 118.352 546.129 118.045 547.008 118.045C547.841 118.045 548.576 118.352 549.212 118.966C549.856 119.58 550.182 120.318 550.189 121.182C550.182 121.773 550.026 122.311 549.723 122.795C549.428 123.273 549.042 123.655 548.564 123.943C548.087 124.223 547.568 124.364 547.008 124.364ZM415 157.364C414.121 157.364 413.367 157.057 412.739 156.443C412.117 155.822 411.811 155.068 411.818 154.182C411.811 153.318 412.117 152.58 412.739 151.966C413.367 151.352 414.121 151.045 415 151.045C415.833 151.045 416.568 151.352 417.205 151.966C417.848 152.58 418.174 153.318 418.182 154.182C418.174 154.773 418.019 155.311 417.716 155.795C417.42 156.273 417.034 156.655 416.557 156.943C416.08 157.223 415.561 157.364 415 157.364ZM459.003 157.364C458.124 157.364 457.37 157.057 456.741 156.443C456.12 155.822 455.813 155.068 455.821 154.182C455.813 153.318 456.12 152.58 456.741 151.966C457.37 151.352 458.124 151.045 459.003 151.045C459.836 151.045 460.571 151.352 461.207 151.966C461.851 152.58 462.177 153.318 462.184 154.182C462.177 154.773 462.021 155.311 461.718 155.795C461.423 156.273 461.037 156.655 460.559 156.943C460.082 157.223 459.563 157.364 459.003 157.364ZM503.005 157.364C502.126 157.364 501.372 157.057 500.744 156.443C500.122 155.822 499.816 155.068 499.823 154.182C499.816 153.318 500.122 152.58 500.744 151.966C501.372 151.352 502.126 151.045 503.005 151.045C503.838 151.045 504.573 151.352 505.21 151.966C505.853 152.58 506.179 153.318 506.187 154.182C506.179 154.773 506.024 155.311 505.721 155.795C505.425 156.273 505.039 156.655 504.562 156.943C504.085 157.223 503.566 157.364 503.005 157.364ZM547.008 157.364C546.129 157.364 545.375 157.057 544.746 156.443C544.125 155.822 543.818 155.068 543.826 154.182C543.818 153.318 544.125 152.58 544.746 151.966C545.375 151.352 546.129 151.045 547.008 151.045C547.841 151.045 548.576 151.352 549.212 151.966C549.856 152.58 550.182 153.318 550.189 154.182C550.182 154.773 550.026 155.311 549.723 155.795C549.428 156.273 549.042 156.655 548.564 156.943C548.087 157.223 547.568 157.364 547.008 157.364Z" fill="url(#paint3_linear_142_2)"/>
<mask id="path-5-outside-1_142_2" maskUnits="userSpaceOnUse" x="174" y="256" width="853" height="112" fill="black">
<rect fill="white" x="174" y="256" width="853" height="112"/>
<path d="M179 361V267.909H244.455V288.273H204.273V304.273H240.455V324.636H204.273V361H179ZM252.614 361V291.182H276.977V304.455H277.705C278.977 299.545 280.992 295.955 283.75 293.682C286.538 291.409 289.795 290.273 293.523 290.273C294.614 290.273 295.689 290.364 296.75 290.545C297.841 290.697 298.886 290.924 299.886 291.227V312.636C298.644 312.212 297.114 311.894 295.295 311.682C293.477 311.47 291.917 311.364 290.614 311.364C288.159 311.364 285.947 311.924 283.977 313.045C282.038 314.136 280.508 315.682 279.386 317.682C278.265 319.652 277.705 321.97 277.705 324.636V361H252.614ZM324.318 362.091C319.864 362.091 315.924 361.364 312.5 359.909C309.106 358.424 306.439 356.182 304.5 353.182C302.561 350.182 301.591 346.364 301.591 341.727C301.591 337.909 302.242 334.652 303.545 331.955C304.848 329.227 306.667 327 309 325.273C311.333 323.545 314.045 322.227 317.136 321.318C320.258 320.409 323.621 319.818 327.227 319.545C331.136 319.242 334.273 318.879 336.636 318.455C339.03 318 340.758 317.379 341.818 316.591C342.879 315.773 343.409 314.697 343.409 313.364V313.182C343.409 311.364 342.712 309.97 341.318 309C339.924 308.03 338.136 307.545 335.955 307.545C333.561 307.545 331.606 308.076 330.091 309.136C328.606 310.167 327.712 311.758 327.409 313.909H304.318C304.621 309.667 305.97 305.758 308.364 302.182C310.788 298.576 314.318 295.697 318.955 293.545C323.591 291.364 329.379 290.273 336.318 290.273C341.318 290.273 345.803 290.864 349.773 292.045C353.742 293.197 357.121 294.818 359.909 296.909C362.697 298.97 364.818 301.394 366.273 304.182C367.758 306.939 368.5 309.939 368.5 313.182V361H345.045V351.182H344.5C343.106 353.788 341.409 355.894 339.409 357.5C337.439 359.106 335.182 360.273 332.636 361C330.121 361.727 327.348 362.091 324.318 362.091ZM332.5 346.273C334.409 346.273 336.197 345.879 337.864 345.091C339.561 344.303 340.939 343.167 342 341.682C343.061 340.197 343.591 338.394 343.591 336.273V330.455C342.924 330.727 342.212 330.985 341.455 331.227C340.727 331.47 339.939 331.697 339.091 331.909C338.273 332.121 337.394 332.318 336.455 332.5C335.545 332.682 334.591 332.848 333.591 333C331.652 333.303 330.061 333.803 328.818 334.5C327.606 335.167 326.697 336 326.091 337C325.515 337.97 325.227 339.061 325.227 340.273C325.227 342.212 325.909 343.697 327.273 344.727C328.636 345.758 330.379 346.273 332.5 346.273ZM380.489 361V291.182H404.307V304.455H405.034C406.489 300.091 408.973 296.636 412.489 294.091C416.004 291.545 420.186 290.273 425.034 290.273C429.943 290.273 434.17 291.576 437.716 294.182C441.261 296.758 443.398 300.182 444.125 304.455H444.852C446.034 300.182 448.549 296.758 452.398 294.182C456.246 291.576 460.761 290.273 465.943 290.273C472.64 290.273 478.064 292.424 482.216 296.727C486.398 301.03 488.489 306.758 488.489 313.909V361H463.398V320.273C463.398 317.212 462.625 314.818 461.08 313.091C459.534 311.333 457.458 310.455 454.852 310.455C452.277 310.455 450.231 311.333 448.716 313.091C447.231 314.818 446.489 317.212 446.489 320.273V361H422.489V320.273C422.489 317.212 421.716 314.818 420.17 313.091C418.625 311.333 416.549 310.455 413.943 310.455C412.216 310.455 410.731 310.848 409.489 311.636C408.246 312.424 407.277 313.561 406.58 315.045C405.913 316.5 405.58 318.242 405.58 320.273V361H380.489ZM534.318 362.273C526.864 362.273 520.439 360.848 515.045 358C509.682 355.121 505.545 351 502.636 345.636C499.758 340.242 498.318 333.788 498.318 326.273C498.318 319.061 499.773 312.758 502.682 307.364C505.591 301.97 509.697 297.773 515 294.773C520.303 291.773 526.561 290.273 533.773 290.273C539.045 290.273 543.818 291.091 548.091 292.727C552.364 294.364 556.015 296.742 559.045 299.864C562.076 302.955 564.409 306.712 566.045 311.136C567.682 315.561 568.5 320.545 568.5 326.091V331.909H506.136V318.091H545.409C545.379 316.091 544.864 314.333 543.864 312.818C542.894 311.273 541.576 310.076 539.909 309.227C538.273 308.348 536.409 307.909 534.318 307.909C532.288 307.909 530.424 308.348 528.727 309.227C527.03 310.076 525.667 311.258 524.636 312.773C523.636 314.288 523.106 316.061 523.045 318.091V333C523.045 335.242 523.515 337.242 524.455 339C525.394 340.758 526.742 342.136 528.5 343.136C530.258 344.136 532.379 344.636 534.864 344.636C536.591 344.636 538.167 344.394 539.591 343.909C541.045 343.424 542.288 342.727 543.318 341.818C544.348 340.879 545.106 339.758 545.591 338.455H568.5C567.712 343.303 565.848 347.515 562.909 351.091C559.97 354.636 556.076 357.394 551.227 359.364C546.409 361.303 540.773 362.273 534.318 362.273ZM603.875 361V267.909H669.33V288.273H629.148V304.273H665.33V324.636H629.148V361H603.875ZM719.886 330.455V291.182H744.977V361H721.159V347.727H720.432C718.917 352.182 716.265 355.667 712.477 358.182C708.689 360.667 704.189 361.909 698.977 361.909C694.098 361.909 689.826 360.788 686.159 358.545C682.523 356.303 679.689 353.212 677.659 349.273C675.659 345.333 674.644 340.818 674.614 335.727V291.182H699.705V330.455C699.735 333.909 700.614 336.621 702.341 338.591C704.098 340.561 706.553 341.545 709.705 341.545C711.795 341.545 713.598 341.106 715.114 340.227C716.659 339.318 717.841 338.045 718.659 336.409C719.508 334.742 719.917 332.758 719.886 330.455ZM821.557 313.909H798.466C798.345 312.485 797.845 311.258 796.966 310.227C796.087 309.197 794.951 308.409 793.557 307.864C792.193 307.288 790.678 307 789.011 307C786.86 307 785.011 307.394 783.466 308.182C781.92 308.97 781.163 310.091 781.193 311.545C781.163 312.576 781.602 313.53 782.511 314.409C783.451 315.288 785.254 315.97 787.92 316.455L802.102 319C809.254 320.303 814.572 322.5 818.057 325.591C821.572 328.652 823.345 332.758 823.375 337.909C823.345 342.879 821.86 347.197 818.92 350.864C816.011 354.5 812.027 357.318 806.966 359.318C801.936 361.288 796.193 362.273 789.739 362.273C779.072 362.273 770.723 360.091 764.693 355.727C758.693 351.364 755.345 345.606 754.648 338.455H779.557C779.89 340.667 780.981 342.379 782.83 343.591C784.708 344.773 787.072 345.364 789.92 345.364C792.223 345.364 794.117 344.97 795.602 344.182C797.117 343.394 797.89 342.273 797.92 340.818C797.89 339.485 797.223 338.424 795.92 337.636C794.648 336.848 792.648 336.212 789.92 335.727L777.557 333.545C770.436 332.303 765.102 329.939 761.557 326.455C758.011 322.97 756.254 318.485 756.284 313C756.254 308.152 757.527 304.045 760.102 300.682C762.708 297.288 766.42 294.712 771.239 292.955C776.087 291.167 781.83 290.273 788.466 290.273C798.557 290.273 806.511 292.364 812.33 296.545C818.178 300.727 821.254 306.515 821.557 313.909ZM832.989 361V291.182H858.08V361H832.989ZM845.534 283.909C842.14 283.909 839.231 282.788 836.807 280.545C834.383 278.303 833.17 275.606 833.17 272.455C833.17 269.303 834.383 266.606 836.807 264.364C839.231 262.121 842.14 261 845.534 261C848.958 261 851.867 262.121 854.261 264.364C856.686 266.606 857.898 269.303 857.898 272.455C857.898 275.606 856.686 278.303 854.261 280.545C851.867 282.788 848.958 283.909 845.534 283.909ZM904.5 362.273C896.924 362.273 890.439 360.773 885.045 357.773C879.652 354.742 875.515 350.53 872.636 345.136C869.758 339.712 868.318 333.424 868.318 326.273C868.318 319.121 869.758 312.848 872.636 307.455C875.515 302.03 879.652 297.818 885.045 294.818C890.439 291.788 896.924 290.273 904.5 290.273C912.076 290.273 918.561 291.788 923.955 294.818C929.348 297.818 933.485 302.03 936.364 307.455C939.242 312.848 940.682 319.121 940.682 326.273C940.682 333.424 939.242 339.712 936.364 345.136C933.485 350.53 929.348 354.742 923.955 357.773C918.561 360.773 912.076 362.273 904.5 362.273ZM904.682 343.727C906.803 343.727 908.636 343.015 910.182 341.591C911.727 340.167 912.924 338.136 913.773 335.5C914.621 332.864 915.045 329.727 915.045 326.091C915.045 322.424 914.621 319.288 913.773 316.682C912.924 314.045 911.727 312.015 910.182 310.591C908.636 309.167 906.803 308.455 904.682 308.455C902.439 308.455 900.515 309.167 898.909 310.591C897.303 312.015 896.076 314.045 895.227 316.682C894.379 319.288 893.955 322.424 893.955 326.091C893.955 329.727 894.379 332.864 895.227 335.5C896.076 338.136 897.303 340.167 898.909 341.591C900.515 343.015 902.439 343.727 904.682 343.727ZM975.955 321.727V361H950.864V291.182H974.682V304.455H975.409C976.924 300.03 979.591 296.561 983.409 294.045C987.258 291.53 991.742 290.273 996.864 290.273C1001.8 290.273 1006.09 291.409 1009.73 293.682C1013.39 295.924 1016.23 299.015 1018.23 302.955C1020.26 306.894 1021.26 311.394 1021.23 316.455V361H996.136V321.727C996.167 318.273 995.288 315.561 993.5 313.591C991.742 311.621 989.288 310.636 986.136 310.636C984.076 310.636 982.273 311.091 980.727 312C979.212 312.879 978.045 314.152 977.227 315.818C976.409 317.455 975.985 319.424 975.955 321.727Z"/>
</mask>
<path d="M179 361H174V366H179V361ZM179 267.909V262.909H174V267.909H179ZM244.455 267.909H249.455V262.909H244.455V267.909ZM244.455 288.273V293.273H249.455V288.273H244.455ZM204.273 288.273V283.273H199.273V288.273H204.273ZM204.273 304.273H199.273V309.273H204.273V304.273ZM240.455 304.273H245.455V299.273H240.455V304.273ZM240.455 324.636V329.636H245.455V324.636H240.455ZM204.273 324.636V319.636H199.273V324.636H204.273ZM204.273 361V366H209.273V361H204.273ZM184 361V267.909H174V361H184ZM179 272.909H244.455V262.909H179V272.909ZM239.455 267.909V288.273H249.455V267.909H239.455ZM244.455 283.273H204.273V293.273H244.455V283.273ZM199.273 288.273V304.273H209.273V288.273H199.273ZM204.273 309.273H240.455V299.273H204.273V309.273ZM235.455 304.273V324.636H245.455V304.273H235.455ZM240.455 319.636H204.273V329.636H240.455V319.636ZM199.273 324.636V361H209.273V324.636H199.273ZM204.273 356H179V366H204.273V356ZM252.614 361H247.614V366H252.614V361ZM252.614 291.182V286.182H247.614V291.182H252.614ZM276.977 291.182H281.977V286.182H276.977V291.182ZM276.977 304.455H271.977V309.455H276.977V304.455ZM277.705 304.455V309.455H281.574L282.545 305.709L277.705 304.455ZM283.75 293.682L280.591 289.806L280.58 289.815L280.57 289.823L283.75 293.682ZM296.75 290.545L295.905 295.474L295.983 295.487L296.062 295.498L296.75 290.545ZM299.886 291.227H304.886V287.518L301.336 286.442L299.886 291.227ZM299.886 312.636L298.271 317.368L304.886 319.627V312.636H299.886ZM295.295 311.682L295.875 306.715H295.875L295.295 311.682ZM283.977 313.045L286.429 317.403L286.44 317.397L286.451 317.391L283.977 313.045ZM279.386 317.682L283.732 320.155L283.74 320.141L283.748 320.127L279.386 317.682ZM277.705 361V366H282.705V361H277.705ZM257.614 361V291.182H247.614V361H257.614ZM252.614 296.182H276.977V286.182H252.614V296.182ZM271.977 291.182V304.455H281.977V291.182H271.977ZM276.977 309.455H277.705V299.455H276.977V309.455ZM282.545 305.709C283.66 301.407 285.264 298.913 286.93 297.54L280.57 289.823C276.721 292.996 274.295 297.683 272.865 303.2L282.545 305.709ZM286.909 297.557C288.77 296.04 290.901 295.273 293.523 295.273V285.273C288.69 285.273 284.305 286.778 280.591 289.806L286.909 297.557ZM293.523 295.273C294.334 295.273 295.127 295.34 295.905 295.474L297.595 285.617C296.251 285.387 294.893 285.273 293.523 285.273V295.273ZM296.062 295.498C296.909 295.616 297.699 295.789 298.436 296.012L301.336 286.442C300.074 286.06 298.773 285.778 297.438 285.593L296.062 295.498ZM294.886 291.227V312.636H304.886V291.227H294.886ZM301.502 307.905C299.821 307.331 297.919 306.954 295.875 306.715L294.716 316.648C296.308 316.834 297.467 317.094 298.271 317.368L301.502 307.905ZM295.875 306.715C293.935 306.489 292.17 306.364 290.614 306.364V316.364C291.663 316.364 293.02 316.45 294.716 316.648L295.875 306.715ZM290.614 306.364C287.366 306.364 284.289 307.115 281.504 308.7L286.451 317.391C287.605 316.734 288.952 316.364 290.614 316.364V306.364ZM281.526 308.688C278.761 310.243 276.581 312.461 275.025 315.237L283.748 320.127C284.434 318.902 285.315 318.03 286.429 317.403L281.526 308.688ZM275.041 315.208C273.42 318.055 272.705 321.256 272.705 324.636H282.705C282.705 322.683 283.11 321.248 283.732 320.155L275.041 315.208ZM272.705 324.636V361H282.705V324.636H272.705ZM277.705 356H252.614V366H277.705V356ZM312.5 359.909L310.496 364.49L310.52 364.501L310.545 364.511L312.5 359.909ZM304.5 353.182L300.301 355.896L304.5 353.182ZM303.545 331.955L308.048 334.13L308.052 334.12L308.057 334.11L303.545 331.955ZM309 325.273L311.975 329.291L309 325.273ZM317.136 321.318L315.738 316.518L315.726 316.521L317.136 321.318ZM327.227 319.545L327.604 324.531L327.614 324.53L327.227 319.545ZM336.636 318.455L337.52 323.376L337.544 323.371L337.569 323.367L336.636 318.455ZM341.818 316.591L344.8 320.605L344.836 320.578L344.872 320.55L341.818 316.591ZM341.318 309L338.463 313.105V313.105L341.318 309ZM330.091 309.136L332.941 313.244L332.95 313.238L332.958 313.233L330.091 309.136ZM327.409 313.909V318.909H331.754L332.36 314.606L327.409 313.909ZM304.318 313.909L299.331 313.553L298.948 318.909H304.318V313.909ZM308.364 302.182L304.214 299.392L304.209 299.4L308.364 302.182ZM318.955 293.545L321.059 298.081L321.071 298.075L321.084 298.07L318.955 293.545ZM349.773 292.045L348.346 296.838L348.363 296.843L348.38 296.848L349.773 292.045ZM359.909 296.909L356.909 300.909L356.923 300.92L356.937 300.93L359.909 296.909ZM366.273 304.182L361.84 306.495L361.855 306.524L361.87 306.552L366.273 304.182ZM368.5 361V366H373.5V361H368.5ZM345.045 361H340.045V366H345.045V361ZM345.045 351.182H350.045V346.182H345.045V351.182ZM344.5 351.182V346.182H341.504L340.091 348.824L344.5 351.182ZM339.409 357.5L336.278 353.601L336.264 353.613L336.249 353.625L339.409 357.5ZM332.636 361L331.263 356.192L331.255 356.195L331.247 356.197L332.636 361ZM337.864 345.091L335.758 340.556L335.742 340.563L335.727 340.571L337.864 345.091ZM342 341.682L337.931 338.776L342 341.682ZM343.591 330.455H348.591V323.007L341.698 325.827L343.591 330.455ZM341.455 331.227L339.931 326.465L339.902 326.474L339.873 326.484L341.455 331.227ZM339.091 331.909L337.878 327.058L337.857 327.064L337.836 327.069L339.091 331.909ZM336.455 332.5L335.504 327.591L335.489 327.594L335.474 327.597L336.455 332.5ZM333.591 333L332.842 328.056L332.83 328.058L332.819 328.06L333.591 333ZM328.818 334.5L331.228 338.881L331.246 338.871L331.264 338.861L328.818 334.5ZM326.091 337L321.815 334.408L321.803 334.428L321.792 334.447L326.091 337ZM327.273 344.727L330.287 340.738L327.273 344.727ZM324.318 357.091C320.405 357.091 317.151 356.453 314.455 355.307L310.545 364.511C314.697 366.275 319.322 367.091 324.318 367.091V357.091ZM314.504 355.328C311.974 354.221 310.085 352.612 308.699 350.467L300.301 355.896C302.794 359.752 306.238 362.627 310.496 364.49L314.504 355.328ZM308.699 350.467C307.417 348.485 306.591 345.683 306.591 341.727H296.591C296.591 347.044 297.704 351.879 300.301 355.896L308.699 350.467ZM306.591 341.727C306.591 338.462 307.149 335.988 308.048 334.13L299.043 329.779C297.335 333.315 296.591 337.356 296.591 341.727H306.591ZM308.057 334.11C309.023 332.089 310.326 330.512 311.975 329.291L306.025 321.254C303.008 323.488 300.674 326.366 299.034 329.799L308.057 334.11ZM311.975 329.291C313.788 327.95 315.958 326.877 318.547 326.115L315.726 316.521C312.133 317.578 308.879 319.141 306.025 321.254L311.975 329.291ZM318.535 326.119C321.288 325.317 324.306 324.781 327.604 324.531L326.85 314.56C322.936 314.856 319.227 315.501 315.738 316.518L318.535 326.119ZM327.614 324.53C331.6 324.222 334.922 323.842 337.52 323.376L335.753 313.533C333.624 313.915 330.673 314.263 326.841 314.56L327.614 324.53ZM337.569 323.367C340.181 322.871 342.815 322.079 344.8 320.605L338.837 312.577C338.837 312.577 338.781 312.618 338.642 312.688C338.505 312.758 338.307 312.845 338.035 312.943C337.484 313.141 336.721 313.349 335.704 313.542L337.569 323.367ZM344.872 320.55C347.153 318.79 348.409 316.255 348.409 313.364H338.409C338.409 313.364 338.409 313.32 338.427 313.24C338.444 313.159 338.476 313.062 338.527 312.96C338.577 312.857 338.634 312.774 338.686 312.713C338.736 312.653 338.769 312.629 338.764 312.632L344.872 320.55ZM348.409 313.364V313.182H338.409V313.364H348.409ZM348.409 313.182C348.409 309.863 347.019 306.875 344.174 304.895L338.463 313.105C338.509 313.137 338.51 313.144 338.488 313.12C338.478 313.108 338.465 313.092 338.451 313.071C338.437 313.051 338.425 313.03 338.414 313.009C338.404 312.988 338.397 312.971 338.394 312.961C338.39 312.95 338.39 312.949 338.392 312.958C338.396 312.977 338.409 313.047 338.409 313.182H348.409ZM344.174 304.895C341.731 303.197 338.867 302.545 335.955 302.545V312.545C337.406 312.545 338.117 312.864 338.463 313.105L344.174 304.895ZM335.955 302.545C332.835 302.545 329.796 303.24 327.224 305.04L332.958 313.233C333.416 312.912 334.286 312.545 335.955 312.545V302.545ZM327.241 305.028C324.382 307.012 322.913 309.983 322.458 313.212L332.36 314.606C332.511 313.533 332.83 313.321 332.941 313.244L327.241 305.028ZM327.409 308.909H304.318V318.909H327.409V308.909ZM309.305 314.265C309.546 310.901 310.602 307.826 312.518 304.963L304.209 299.4C301.337 303.689 299.697 308.433 299.331 313.553L309.305 314.265ZM312.513 304.971C314.344 302.248 317.103 299.917 321.059 298.081L316.85 289.01C311.533 291.477 307.232 294.904 304.214 299.392L312.513 304.971ZM321.084 298.07C324.862 296.292 329.868 295.273 336.318 295.273V285.273C328.89 285.273 322.32 286.436 316.826 289.021L321.084 298.07ZM336.318 295.273C340.932 295.273 344.924 295.819 348.346 296.838L351.199 287.253C346.683 285.909 341.705 285.273 336.318 285.273V295.273ZM348.38 296.848C351.875 297.861 354.685 299.241 356.909 300.909L362.909 292.909C359.558 290.396 355.61 288.532 351.166 287.243L348.38 296.848ZM356.937 300.93C359.178 302.586 360.771 304.446 361.84 306.495L370.706 301.869C368.865 298.342 366.216 295.353 362.881 292.888L356.937 300.93ZM361.87 306.552C362.949 308.555 363.5 310.737 363.5 313.182H373.5C373.5 309.142 372.566 305.324 370.675 301.811L361.87 306.552ZM363.5 313.182V361H373.5V313.182H363.5ZM368.5 356H345.045V366H368.5V356ZM350.045 361V351.182H340.045V361H350.045ZM345.045 346.182H344.5V356.182H345.045V346.182ZM340.091 348.824C338.967 350.925 337.679 352.477 336.278 353.601L342.54 361.399C345.139 359.311 347.245 356.651 348.909 353.54L340.091 348.824ZM336.249 353.625C334.828 354.784 333.183 355.644 331.263 356.192L334.01 365.808C337.18 364.902 340.051 363.428 342.569 361.375L336.249 353.625ZM331.247 356.197C329.248 356.775 326.951 357.091 324.318 357.091V367.091C327.746 367.091 330.994 366.68 334.025 365.803L331.247 356.197ZM332.5 351.273C335.121 351.273 337.642 350.726 340.001 349.611L335.727 340.571C334.752 341.031 333.697 341.273 332.5 341.273V351.273ZM339.969 349.626C342.43 348.484 344.492 346.795 346.069 344.588L337.931 338.776C337.386 339.539 336.692 340.122 335.758 340.556L339.969 349.626ZM346.069 344.588C347.829 342.123 348.591 339.261 348.591 336.273H338.591C338.591 337.527 338.292 338.271 337.931 338.776L346.069 344.588ZM348.591 336.273V330.455H338.591V336.273H348.591ZM341.698 325.827C341.164 326.045 340.576 326.259 339.931 326.465L342.978 335.989C343.848 335.711 344.684 335.409 345.484 335.082L341.698 325.827ZM339.873 326.484C339.283 326.681 338.619 326.873 337.878 327.058L340.304 336.76C341.259 336.521 342.172 336.259 343.036 335.971L339.873 326.484ZM337.836 327.069C337.131 327.252 336.355 327.427 335.504 327.591L337.405 337.409C338.433 337.21 339.415 336.99 340.346 336.749L337.836 327.069ZM335.474 327.597C334.648 327.762 333.771 327.916 332.842 328.056L334.34 337.944C335.411 337.781 336.443 337.601 337.435 337.403L335.474 327.597ZM332.819 328.06C330.498 328.423 328.289 329.064 326.372 330.139L331.264 338.861C331.832 338.542 332.805 338.183 334.363 337.94L332.819 328.06ZM326.409 330.119C324.57 331.13 322.952 332.532 321.815 334.408L330.367 339.592C330.442 339.468 330.643 339.203 331.228 338.881L326.409 330.119ZM321.792 334.447C320.723 336.247 320.227 338.232 320.227 340.273H330.227C330.227 339.889 330.307 339.692 330.39 339.553L321.792 334.447ZM320.227 340.273C320.227 343.538 321.464 346.605 324.259 348.717L330.287 340.738C330.249 340.71 330.246 340.701 330.257 340.715C330.269 340.73 330.279 340.746 330.283 340.754C330.293 340.777 330.227 340.655 330.227 340.273H320.227ZM324.259 348.717C326.682 350.547 329.558 351.273 332.5 351.273V341.273C331.2 341.273 330.591 340.968 330.287 340.738L324.259 348.717ZM380.489 361H375.489V366H380.489V361ZM380.489 291.182V286.182H375.489V291.182H380.489ZM404.307 291.182H409.307V286.182H404.307V291.182ZM404.307 304.455H399.307V309.455H404.307V304.455ZM405.034 304.455V309.455H408.638L409.778 306.036L405.034 304.455ZM412.489 294.091L409.556 290.041V290.041L412.489 294.091ZM437.716 294.182L434.755 298.211L434.766 298.219L434.777 298.227L437.716 294.182ZM444.125 304.455L439.196 305.294L439.904 309.455H444.125V304.455ZM444.852 304.455V309.455H448.657L449.671 305.787L444.852 304.455ZM452.398 294.182L455.179 298.337L455.19 298.329L455.201 298.322L452.398 294.182ZM482.216 296.727L478.618 300.199L478.624 300.205L478.63 300.212L482.216 296.727ZM488.489 361V366H493.489V361H488.489ZM463.398 361H458.398V366H463.398V361ZM461.08 313.091L457.325 316.393L457.339 316.409L457.353 316.425L461.08 313.091ZM448.716 313.091L444.929 309.826L444.924 309.831L448.716 313.091ZM446.489 361V366H451.489V361H446.489ZM422.489 361H417.489V366H422.489V361ZM420.17 313.091L416.416 316.393L416.43 316.409L416.444 316.425L420.17 313.091ZM409.489 311.636L412.166 315.859L412.166 315.859L409.489 311.636ZM406.58 315.045L402.053 312.921L402.044 312.942L402.034 312.962L406.58 315.045ZM405.58 361V366H410.58V361H405.58ZM385.489 361V291.182H375.489V361H385.489ZM380.489 296.182H404.307V286.182H380.489V296.182ZM399.307 291.182V304.455H409.307V291.182H399.307ZM404.307 309.455H405.034V299.455H404.307V309.455ZM409.778 306.036C410.922 302.601 412.805 300.035 415.421 298.141L409.556 290.041C405.142 293.238 402.055 297.581 400.291 302.873L409.778 306.036ZM415.421 298.141C417.984 296.285 421.11 295.273 425.034 295.273V285.273C419.262 285.273 414.023 286.806 409.556 290.041L415.421 298.141ZM425.034 295.273C429.007 295.273 432.166 296.308 434.755 298.211L440.677 290.153C436.175 286.844 430.879 285.273 425.034 285.273V295.273ZM434.777 298.227C437.279 300.045 438.691 302.324 439.196 305.294L449.054 303.616C448.105 298.039 445.244 293.471 440.655 290.137L434.777 298.227ZM444.125 309.455H444.852V299.455H444.125V309.455ZM449.671 305.787C450.519 302.724 452.277 300.279 455.179 298.337L449.617 290.027C444.821 293.236 441.55 297.639 440.033 303.122L449.671 305.787ZM455.201 298.322C458.129 296.34 461.641 295.273 465.943 295.273V285.273C459.881 285.273 454.364 286.812 449.594 290.042L455.201 298.322ZM465.943 295.273C471.462 295.273 475.526 296.994 478.618 300.199L485.814 293.256C480.603 287.854 473.818 285.273 465.943 285.273V295.273ZM478.63 300.212C481.735 303.407 483.489 307.792 483.489 313.909H493.489C493.489 305.723 491.061 298.654 485.802 293.243L478.63 300.212ZM483.489 313.909V361H493.489V313.909H483.489ZM488.489 356H463.398V366H488.489V356ZM468.398 361V320.273H458.398V361H468.398ZM468.398 320.273C468.398 316.384 467.405 312.662 464.806 309.757L457.353 316.425C457.845 316.974 458.398 318.04 458.398 320.273H468.398ZM464.834 309.789C462.225 306.822 458.713 305.455 454.852 305.455V315.455C456.203 315.455 456.843 315.844 457.325 316.393L464.834 309.789ZM454.852 305.455C451.002 305.455 447.505 306.838 444.929 309.826L452.503 316.356C452.957 315.829 453.552 315.455 454.852 315.455V305.455ZM444.924 309.831C442.427 312.737 441.489 316.43 441.489 320.273H451.489C451.489 317.994 452.036 316.899 452.508 316.35L444.924 309.831ZM441.489 320.273V361H451.489V320.273H441.489ZM446.489 356H422.489V366H446.489V356ZM427.489 361V320.273H417.489V361H427.489ZM427.489 320.273C427.489 316.384 426.496 312.662 423.897 309.757L416.444 316.425C416.936 316.974 417.489 318.04 417.489 320.273H427.489ZM423.925 309.789C421.316 306.822 417.804 305.455 413.943 305.455V315.455C415.294 315.455 415.934 315.844 416.416 316.393L423.925 309.789ZM413.943 305.455C411.435 305.455 408.985 306.035 406.811 307.414L412.166 315.859C412.477 315.662 412.996 315.455 413.943 315.455V305.455ZM406.811 307.414C404.675 308.768 403.106 310.677 402.053 312.921L411.106 317.17C411.447 316.444 411.817 316.08 412.166 315.859L406.811 307.414ZM402.034 312.962C400.999 315.221 400.58 317.71 400.58 320.273H410.58C410.58 318.775 410.827 317.779 411.125 317.129L402.034 312.962ZM400.58 320.273V361H410.58V320.273H400.58ZM405.58 356H380.489V366H405.58V356ZM515.045 358L512.681 362.406L512.696 362.413L512.711 362.421L515.045 358ZM502.636 345.636L498.225 347.991L498.233 348.005L498.241 348.02L502.636 345.636ZM502.682 307.364L507.083 309.737L502.682 307.364ZM515 294.773L517.462 299.125L515 294.773ZM548.091 292.727L549.879 288.058L548.091 292.727ZM559.045 299.864L555.458 303.347L555.467 303.355L555.475 303.364L559.045 299.864ZM566.045 311.136L561.356 312.871L566.045 311.136ZM568.5 331.909V336.909H573.5V331.909H568.5ZM506.136 331.909H501.136V336.909H506.136V331.909ZM506.136 318.091V313.091H501.136V318.091H506.136ZM545.409 318.091V323.091H550.485L550.409 318.015L545.409 318.091ZM543.864 312.818L539.628 315.476L539.659 315.524L539.691 315.572L543.864 312.818ZM539.909 309.227L537.543 313.632L537.592 313.658L537.641 313.683L539.909 309.227ZM528.727 309.227L530.963 313.699L530.995 313.684L531.027 313.667L528.727 309.227ZM524.636 312.773L520.502 309.961L520.482 309.99L520.463 310.019L524.636 312.773ZM523.045 318.091L518.048 317.942L518.045 318.016V318.091H523.045ZM524.455 339L520.045 341.357L524.455 339ZM528.5 343.136L526.027 347.482L528.5 343.136ZM539.591 343.909L538.01 339.166L537.995 339.171L537.98 339.176L539.591 343.909ZM543.318 341.818L546.626 345.567L546.657 345.54L546.687 345.513L543.318 341.818ZM545.591 338.455V333.455H542.116L540.905 336.711L545.591 338.455ZM568.5 338.455L573.435 339.257L574.378 333.455H568.5V338.455ZM562.909 351.091L566.758 354.282L566.765 354.274L566.772 354.266L562.909 351.091ZM551.227 359.364L553.094 364.002L553.102 363.999L553.109 363.996L551.227 359.364ZM534.318 357.273C527.499 357.273 521.912 355.972 517.38 353.579L512.711 362.421C518.967 365.725 526.228 367.273 534.318 367.273V357.273ZM517.41 353.594C512.908 351.178 509.477 347.761 507.032 343.253L498.241 348.02C501.614 354.239 506.455 359.064 512.681 362.406L517.41 353.594ZM507.047 343.282C504.634 338.761 503.318 333.152 503.318 326.273H493.318C493.318 334.423 494.881 341.724 498.225 347.991L507.047 343.282ZM503.318 326.273C503.318 319.742 504.631 314.283 507.083 309.737L498.281 304.99C494.914 311.232 493.318 318.379 493.318 326.273H503.318ZM507.083 309.737C509.547 305.167 512.984 301.658 517.462 299.125L512.538 290.421C506.41 293.887 501.634 298.772 498.281 304.99L507.083 309.737ZM517.462 299.125C521.887 296.621 527.264 295.273 533.773 295.273V285.273C525.857 285.273 518.719 286.924 512.538 290.421L517.462 299.125ZM533.773 295.273C538.526 295.273 542.681 296.009 546.303 297.397L549.879 288.058C544.956 286.172 539.565 285.273 533.773 285.273V295.273ZM546.303 297.397C549.932 298.787 552.96 300.774 555.458 303.347L562.633 296.381C559.07 292.711 554.795 289.941 549.879 288.058L546.303 297.397ZM555.475 303.364C557.969 305.908 559.942 309.048 561.356 312.871L570.735 309.402C568.876 304.377 566.182 300.001 562.616 296.363L555.475 303.364ZM561.356 312.871C562.754 316.652 563.5 321.036 563.5 326.091H573.5C573.5 320.055 572.609 314.469 570.735 309.402L561.356 312.871ZM563.5 326.091V331.909H573.5V326.091H563.5ZM568.5 326.909H506.136V336.909H568.5V326.909ZM511.136 331.909V318.091H501.136V331.909H511.136ZM506.136 323.091H545.409V313.091H506.136V323.091ZM550.409 318.015C550.365 315.162 549.615 312.455 548.037 310.064L539.691 315.572C540.113 316.212 540.392 317.019 540.41 318.167L550.409 318.015ZM548.099 310.161C546.636 307.829 544.629 306.02 542.178 304.771L537.641 313.683C538.522 314.132 539.152 314.716 539.628 315.476L548.099 310.161ZM542.275 304.822C539.824 303.506 537.129 302.909 534.318 302.909V312.909C535.689 312.909 536.722 313.191 537.543 313.632L542.275 304.822ZM534.318 302.909C531.539 302.909 528.88 303.518 526.428 304.787L531.027 313.667C531.969 313.179 533.037 312.909 534.318 312.909V302.909ZM526.491 304.755C524.058 305.972 522.03 307.714 520.502 309.961L528.771 315.584C529.303 314.801 530.003 314.18 530.963 313.699L526.491 304.755ZM520.463 310.019C518.893 312.398 518.133 315.097 518.048 317.942L528.043 318.24C528.08 317.024 528.38 316.178 528.809 315.527L520.463 310.019ZM518.045 318.091V333H528.045V318.091H518.045ZM518.045 333C518.045 335.96 518.672 338.787 520.045 341.357L528.864 336.643C528.359 335.697 528.045 334.525 528.045 333H518.045ZM520.045 341.357C521.436 343.96 523.462 346.023 526.027 347.482L530.973 338.791C530.023 338.25 529.352 337.555 528.864 336.643L520.045 341.357ZM526.027 347.482C528.693 348.999 531.709 349.636 534.864 349.636V339.636C533.049 339.636 531.822 339.274 530.973 338.791L526.027 347.482ZM534.864 349.636C537.059 349.636 539.189 349.328 541.202 348.642L537.98 339.176C537.145 339.46 536.123 339.636 534.864 339.636V349.636ZM541.172 348.653C543.189 347.98 545.038 346.969 546.626 345.567L540.01 338.069C539.538 338.485 538.902 338.868 538.01 339.166L541.172 348.653ZM546.687 345.513C548.304 344.039 549.514 342.249 550.277 340.198L540.905 336.711C540.698 337.266 540.393 337.719 539.949 338.123L546.687 345.513ZM545.591 343.455H568.5V333.455H545.591V343.455ZM563.565 337.653C562.91 341.685 561.39 345.065 559.047 347.916L566.772 354.266C570.307 349.966 572.515 344.922 573.435 339.257L563.565 337.653ZM559.06 347.9C556.715 350.728 553.535 353.029 549.345 354.731L553.109 363.996C558.617 361.758 563.224 358.545 566.758 354.282L559.06 347.9ZM549.36 354.725C545.26 356.376 540.283 357.273 534.318 357.273V367.273C541.262 367.273 547.558 366.231 553.094 364.002L549.36 354.725ZM603.875 361H598.875V366H603.875V361ZM603.875 267.909V262.909H598.875V267.909H603.875ZM669.33 267.909H674.33V262.909H669.33V267.909ZM669.33 288.273V293.273H674.33V288.273H669.33ZM629.148 288.273V283.273H624.148V288.273H629.148ZM629.148 304.273H624.148V309.273H629.148V304.273ZM665.33 304.273H670.33V299.273H665.33V304.273ZM665.33 324.636V329.636H670.33V324.636H665.33ZM629.148 324.636V319.636H624.148V324.636H629.148ZM629.148 361V366H634.148V361H629.148ZM608.875 361V267.909H598.875V361H608.875ZM603.875 272.909H669.33V262.909H603.875V272.909ZM664.33 267.909V288.273H674.33V267.909H664.33ZM669.33 283.273H629.148V293.273H669.33V283.273ZM624.148 288.273V304.273H634.148V288.273H624.148ZM629.148 309.273H665.33V299.273H629.148V309.273ZM660.33 304.273V324.636H670.33V304.273H660.33ZM665.33 319.636H629.148V329.636H665.33V319.636ZM624.148 324.636V361H634.148V324.636H624.148ZM629.148 356H603.875V366H629.148V356ZM719.886 330.455H714.886V330.487L714.887 330.52L719.886 330.455ZM719.886 291.182V286.182H714.886V291.182H719.886ZM744.977 291.182H749.977V286.182H744.977V291.182ZM744.977 361V366H749.977V361H744.977ZM721.159 361H716.159V366H721.159V361ZM721.159 347.727H726.159V342.727H721.159V347.727ZM720.432 347.727V342.727H716.851L715.698 346.117L720.432 347.727ZM712.477 358.182L715.22 362.363L715.232 362.355L715.243 362.347L712.477 358.182ZM686.159 358.545L683.535 362.801L683.543 362.806L683.55 362.811L686.159 358.545ZM677.659 349.273L673.201 351.536L673.208 351.55L673.215 351.563L677.659 349.273ZM674.614 335.727H669.614V335.742L669.614 335.757L674.614 335.727ZM674.614 291.182V286.182H669.614V291.182H674.614ZM699.705 291.182H704.705V286.182H699.705V291.182ZM699.705 330.455H694.705V330.476L694.705 330.498L699.705 330.455ZM702.341 338.591L698.582 341.888L698.596 341.904L698.61 341.92L702.341 338.591ZM715.114 340.227L717.622 344.552L717.635 344.545L717.649 344.537L715.114 340.227ZM718.659 336.409L714.203 334.141L714.195 334.157L714.187 334.173L718.659 336.409ZM724.886 330.455V291.182H714.886V330.455H724.886ZM719.886 296.182H744.977V286.182H719.886V296.182ZM739.977 291.182V361H749.977V291.182H739.977ZM744.977 356H721.159V366H744.977V356ZM726.159 361V347.727H716.159V361H726.159ZM721.159 342.727H720.432V352.727H721.159V342.727ZM715.698 346.117C714.525 349.565 712.545 352.135 709.711 354.016L715.243 362.347C719.985 359.199 723.308 354.798 725.165 349.337L715.698 346.117ZM709.735 354.001C706.879 355.874 703.365 356.909 698.977 356.909V366.909C705.013 366.909 710.5 365.459 715.22 362.363L709.735 354.001ZM698.977 356.909C694.892 356.909 691.547 355.98 688.768 354.28L683.55 362.811C688.104 365.596 693.305 366.909 698.977 366.909V356.909ZM688.784 354.29C685.951 352.543 683.734 350.145 682.104 346.982L673.215 351.563C675.645 356.279 679.094 360.063 683.535 362.801L688.784 354.29ZM682.117 347.009C680.519 343.861 679.64 340.13 679.614 335.698L669.614 335.757C669.648 341.506 670.799 346.806 673.201 351.536L682.117 347.009ZM679.614 335.727V291.182H669.614V335.727H679.614ZM674.614 296.182H699.705V286.182H674.614V296.182ZM694.705 291.182V330.455H704.705V291.182H694.705ZM694.705 330.498C694.742 334.763 695.842 338.763 698.582 341.888L706.1 335.294C705.385 334.479 704.728 333.055 704.704 330.411L694.705 330.498ZM698.61 341.92C701.5 345.159 705.43 346.545 709.705 346.545V336.545C707.676 336.545 706.697 335.963 706.072 335.262L698.61 341.92ZM709.705 346.545C712.505 346.545 715.209 345.952 717.622 344.552L712.605 335.902C711.988 336.26 711.086 336.545 709.705 336.545V346.545ZM717.649 344.537C720.044 343.128 721.891 341.127 723.131 338.645L714.187 334.173C713.791 334.964 713.274 335.509 712.579 335.918L717.649 344.537ZM723.115 338.678C724.407 336.14 724.924 333.318 724.886 330.389L714.887 330.52C714.909 332.198 714.608 333.345 714.203 334.141L723.115 338.678ZM821.557 313.909V318.909H826.766L826.553 313.704L821.557 313.909ZM798.466 313.909L793.484 314.333L793.873 318.909H798.466V313.909ZM796.966 310.227L800.77 306.983L796.966 310.227ZM793.557 307.864L791.612 312.47L791.673 312.496L791.735 312.52L793.557 307.864ZM783.466 308.182L781.195 303.727L783.466 308.182ZM781.193 311.545L786.191 311.692L786.195 311.567L786.192 311.441L781.193 311.545ZM782.511 314.409L779.036 318.004L779.066 318.032L779.096 318.06L782.511 314.409ZM787.92 316.455L787.026 321.374L787.037 321.376L787.92 316.455ZM802.102 319L802.999 314.081L802.986 314.079L802.102 319ZM818.057 325.591L814.739 329.332L814.756 329.347L814.773 329.362L818.057 325.591ZM823.375 337.909L828.375 337.94L828.375 337.91L828.375 337.88L823.375 337.909ZM818.92 350.864L815.019 347.736L815.016 347.74L818.92 350.864ZM806.966 359.318L808.789 363.974L808.796 363.971L808.804 363.968L806.966 359.318ZM764.693 355.727L761.752 359.771L761.762 359.778L764.693 355.727ZM754.648 338.455V333.455H749.137L749.671 338.94L754.648 338.455ZM779.557 338.455L784.501 337.71L783.86 333.455H779.557V338.455ZM782.83 343.591L780.088 347.772L780.127 347.798L780.167 347.823L782.83 343.591ZM795.602 344.182L793.296 339.746L793.277 339.755L793.259 339.765L795.602 344.182ZM797.92 340.818L802.919 340.922L802.922 340.813L802.919 340.705L797.92 340.818ZM795.92 337.636L793.289 341.888L793.311 341.901L793.333 341.915L795.92 337.636ZM789.92 335.727L790.796 330.804L790.789 330.803L789.92 335.727ZM777.557 333.545L778.426 328.622L778.416 328.62L777.557 333.545ZM761.557 326.455L765.062 322.889L761.557 326.455ZM756.284 313L761.284 313.028L761.284 312.998L761.284 312.969L756.284 313ZM760.102 300.682L756.137 297.637L756.133 297.642L760.102 300.682ZM771.239 292.955L772.952 297.652L772.96 297.649L772.969 297.646L771.239 292.955ZM812.33 296.545L809.411 300.606L809.421 300.613L812.33 296.545ZM821.557 308.909H798.466V318.909H821.557V308.909ZM803.448 313.485C803.243 311.082 802.365 308.853 800.77 306.983L793.162 313.472C793.324 313.662 793.446 313.888 793.484 314.333L803.448 313.485ZM800.77 306.983C799.302 305.262 797.457 304.021 795.379 303.207L791.735 312.52C792.444 312.797 792.872 313.132 793.162 313.472L800.77 306.983ZM795.502 303.257C793.45 302.391 791.262 302 789.011 302V312C790.094 312 790.937 312.185 791.612 312.47L795.502 303.257ZM789.011 302C786.256 302 783.593 302.505 781.195 303.727L785.737 312.636C786.43 312.283 787.463 312 789.011 312V302ZM781.195 303.727C779.876 304.4 778.564 305.382 777.596 306.814C776.594 308.297 776.159 309.971 776.194 311.65L786.192 311.441C786.194 311.529 786.185 311.682 786.13 311.876C786.075 312.072 785.987 312.257 785.882 312.413C785.671 312.724 785.511 312.752 785.737 312.636L781.195 303.727ZM776.195 311.398C776.115 314.145 777.363 316.387 779.036 318.004L785.986 310.814C785.889 310.72 785.956 310.756 786.042 310.943C786.138 311.153 786.199 311.421 786.191 311.692L776.195 311.398ZM779.096 318.06C781.171 320.002 784.254 320.87 787.026 321.374L788.815 311.535C787.67 311.327 786.867 311.103 786.337 310.903C785.77 310.689 785.744 310.586 785.927 310.758L779.096 318.06ZM787.037 321.376L801.219 323.921L802.986 314.079L788.804 311.533L787.037 321.376ZM801.206 323.919C807.919 325.142 812.22 327.097 814.739 329.332L821.375 321.85C816.924 317.903 810.588 315.464 802.999 314.081L801.206 323.919ZM814.773 329.362C817.084 331.374 818.352 334.053 818.375 337.938L828.375 337.88C828.337 331.462 826.06 325.929 821.34 321.82L814.773 329.362ZM818.375 337.879C818.351 341.791 817.212 345.001 815.019 347.736L822.822 353.991C826.508 349.393 828.338 343.966 828.375 337.94L818.375 337.879ZM815.016 347.74C812.737 350.589 809.516 352.934 805.128 354.668L808.804 363.968C814.537 361.702 819.286 358.411 822.825 353.987L815.016 347.74ZM805.143 354.662C800.795 356.365 795.688 357.273 789.739 357.273V367.273C796.698 367.273 803.077 366.211 808.789 363.974L805.143 354.662ZM789.739 357.273C779.685 357.273 772.504 355.208 767.624 351.677L761.762 359.778C768.943 364.974 778.458 367.273 789.739 367.273V357.273ZM767.634 351.684C762.747 348.13 760.177 343.647 759.624 337.97L749.671 338.94C750.512 347.566 754.639 354.598 761.752 359.771L767.634 351.684ZM754.648 343.455H779.557V333.455H754.648V343.455ZM774.613 339.2C775.155 342.799 777.034 345.769 780.088 347.772L785.571 339.41C784.929 338.988 784.625 338.535 784.501 337.71L774.613 339.2ZM780.167 347.823C783.04 349.631 786.393 350.364 789.92 350.364V340.364C787.75 340.364 786.376 339.915 785.492 339.359L780.167 347.823ZM789.92 350.364C792.753 350.364 795.522 349.885 797.946 348.599L793.259 339.765C792.713 340.055 791.694 340.364 789.92 340.364V350.364ZM797.909 348.618C800.707 347.163 802.844 344.557 802.919 340.922L792.922 340.714C792.923 340.645 792.935 340.519 792.985 340.358C793.036 340.196 793.112 340.043 793.201 339.913C793.382 339.651 793.509 339.635 793.296 339.746L797.909 348.618ZM802.919 340.705C802.844 337.395 801.03 334.883 798.508 333.358L793.333 341.915C793.459 341.991 793.326 341.941 793.165 341.684C793.086 341.558 793.021 341.415 792.978 341.267C792.935 341.121 792.923 341.003 792.922 340.932L802.919 340.705ZM798.552 333.385C796.462 332.091 793.708 331.322 790.796 330.804L789.045 340.65C791.588 341.102 792.834 341.606 793.289 341.888L798.552 333.385ZM790.789 330.803L778.426 328.622L776.688 338.469L789.052 340.651L790.789 330.803ZM778.416 328.62C771.862 327.476 767.624 325.407 765.062 322.889L758.052 330.02C762.581 334.472 769.009 337.13 776.697 338.471L778.416 328.62ZM765.062 322.889C762.584 320.453 761.26 317.316 761.284 313.028L751.284 312.972C751.247 319.654 753.439 325.486 758.052 330.02L765.062 322.889ZM761.284 312.969C761.26 309.062 762.266 306.08 764.072 303.722L756.133 297.642C752.787 302.011 751.248 307.241 751.284 313.031L761.284 312.969ZM764.068 303.727C765.989 301.225 768.847 299.149 772.952 297.652L769.525 288.257C763.994 290.275 759.427 293.351 756.137 297.637L764.068 303.727ZM772.969 297.646C777.131 296.111 782.26 295.273 788.466 295.273V285.273C781.399 285.273 775.043 286.222 769.509 288.263L772.969 297.646ZM788.466 295.273C797.924 295.273 804.727 297.239 809.411 300.606L815.248 292.485C808.295 287.488 799.19 285.273 788.466 285.273V295.273ZM809.421 300.613C813.973 303.868 816.319 308.208 816.561 314.114L826.553 313.704C826.189 304.823 822.383 297.587 815.238 292.478L809.421 300.613ZM832.989 361H827.989V366H832.989V361ZM832.989 291.182V286.182H827.989V291.182H832.989ZM858.08 291.182H863.08V286.182H858.08V291.182ZM858.08 361V366H863.08V361H858.08ZM836.807 280.545L833.412 284.216V284.216L836.807 280.545ZM836.807 264.364L833.412 260.693V260.693L836.807 264.364ZM854.261 264.364L850.843 268.013L850.855 268.023L850.866 268.034L854.261 264.364ZM854.261 280.545L850.866 276.875L850.855 276.886L850.843 276.896L854.261 280.545ZM837.989 361V291.182H827.989V361H837.989ZM832.989 296.182H858.08V286.182H832.989V296.182ZM853.08 291.182V361H863.08V291.182H853.08ZM858.08 356H832.989V366H858.08V356ZM845.534 278.909C843.36 278.909 841.674 278.237 840.202 276.875L833.412 284.216C836.788 287.339 840.92 288.909 845.534 288.909V278.909ZM840.202 276.875C838.746 275.528 838.17 274.139 838.17 272.455H828.17C828.17 277.073 830.019 281.078 833.412 284.216L840.202 276.875ZM838.17 272.455C838.17 270.77 838.746 269.381 840.202 268.034L833.412 260.693C830.019 263.831 828.17 267.836 828.17 272.455H838.17ZM840.202 268.034C841.674 266.672 843.36 266 845.534 266V256C840.92 256 836.788 257.57 833.412 260.693L840.202 268.034ZM845.534 266C847.75 266 849.42 266.679 850.843 268.013L857.68 260.715C854.315 257.563 850.166 256 845.534 256V266ZM850.866 268.034C852.323 269.381 852.898 270.77 852.898 272.455H862.898C862.898 267.836 861.049 263.831 857.657 260.693L850.866 268.034ZM852.898 272.455C852.898 274.139 852.323 275.528 850.866 276.875L857.657 284.216C861.049 281.078 862.898 277.073 862.898 272.455H852.898ZM850.843 276.896C849.42 278.23 847.75 278.909 845.534 278.909V288.909C850.166 288.909 854.315 287.346 857.68 284.195L850.843 276.896ZM885.045 357.773L882.596 362.132L882.606 362.137L882.615 362.142L885.045 357.773ZM872.636 345.136L868.22 347.48L868.225 347.491L872.636 345.136ZM872.636 307.455L877.047 309.809L877.053 309.799L872.636 307.455ZM885.045 294.818L887.476 299.188L887.485 299.183L887.494 299.177L885.045 294.818ZM923.955 294.818L921.506 299.177L921.515 299.183L921.524 299.188L923.955 294.818ZM936.364 307.455L931.947 309.799L931.953 309.809L936.364 307.455ZM936.364 345.136L940.775 347.491L940.78 347.48L936.364 345.136ZM923.955 357.773L926.385 362.142L926.394 362.137L926.404 362.132L923.955 357.773ZM910.182 341.591L913.57 345.268V345.268L910.182 341.591ZM913.773 335.5L918.532 337.032L913.773 335.5ZM913.773 316.682L909.013 318.214L909.016 318.222L909.018 318.23L913.773 316.682ZM910.182 310.591L913.57 306.914V306.914L910.182 310.591ZM895.227 316.682L899.982 318.23L899.984 318.222L899.987 318.214L895.227 316.682ZM895.227 335.5L899.987 333.968L895.227 335.5ZM904.5 357.273C897.583 357.273 891.975 355.906 887.476 353.403L882.615 362.142C888.904 365.64 896.265 367.273 904.5 367.273V357.273ZM887.494 353.414C882.922 350.845 879.471 347.324 877.047 342.782L868.225 347.491C871.559 353.737 876.381 358.64 882.596 362.132L887.494 353.414ZM877.053 342.792C874.616 338.201 873.318 332.742 873.318 326.273H863.318C863.318 334.107 864.899 341.224 868.22 347.48L877.053 342.792ZM873.318 326.273C873.318 319.803 874.616 314.364 877.047 309.809L868.225 305.1C864.899 311.333 863.318 318.44 863.318 326.273H873.318ZM877.053 309.799C879.477 305.232 882.921 301.721 887.476 299.188L882.615 290.449C876.382 293.915 871.554 298.829 868.22 305.111L877.053 309.799ZM887.494 299.177C891.99 296.652 897.591 295.273 904.5 295.273V285.273C896.258 285.273 888.889 286.924 882.596 290.459L887.494 299.177ZM904.5 295.273C911.409 295.273 917.01 296.652 921.506 299.177L926.404 290.459C920.111 286.924 912.742 285.273 904.5 285.273V295.273ZM921.524 299.188C926.079 301.721 929.523 305.232 931.947 309.799L940.78 305.111C937.446 298.829 932.618 293.915 926.385 290.449L921.524 299.188ZM931.953 309.809C934.384 314.364 935.682 319.803 935.682 326.273H945.682C945.682 318.44 944.101 311.333 940.775 305.1L931.953 309.809ZM935.682 326.273C935.682 332.742 934.384 338.201 931.947 342.792L940.78 347.48C944.101 341.224 945.682 334.107 945.682 326.273H935.682ZM931.953 342.782C929.529 347.324 926.078 350.845 921.506 353.414L926.404 362.132C932.619 358.64 937.441 353.737 940.775 347.491L931.953 342.782ZM921.524 353.403C917.025 355.906 911.417 357.273 904.5 357.273V367.273C912.735 367.273 920.096 365.64 926.385 362.142L921.524 353.403ZM904.682 348.727C908.046 348.727 911.092 347.552 913.57 345.268L906.793 337.914C906.181 338.479 905.56 338.727 904.682 338.727V348.727ZM913.57 345.268C915.92 343.102 917.501 340.237 918.532 337.032L909.013 333.968C908.348 336.036 907.534 337.232 906.793 337.914L913.57 345.268ZM918.532 337.032C919.581 333.773 920.045 330.094 920.045 326.091H910.045C910.045 329.36 909.661 331.954 909.013 333.968L918.532 337.032ZM920.045 326.091C920.045 322.064 919.583 318.376 918.527 315.134L909.018 318.23C909.66 320.199 910.045 322.784 910.045 326.091H920.045ZM918.532 315.15C917.501 311.945 915.92 309.08 913.57 306.914L906.793 314.268C907.534 314.95 908.348 316.146 909.013 318.214L918.532 315.15ZM913.57 306.914C911.092 304.63 908.046 303.455 904.682 303.455V313.455C905.56 313.455 906.181 313.703 906.793 314.268L913.57 306.914ZM904.682 303.455C901.277 303.455 898.156 304.576 895.592 306.85L902.227 314.332C902.874 313.758 903.602 313.455 904.682 313.455V303.455ZM895.592 306.85C893.148 309.017 891.512 311.904 890.468 315.15L899.987 318.214C900.639 316.187 901.458 315.013 902.227 314.332L895.592 306.85ZM890.473 315.134C889.417 318.376 888.955 322.064 888.955 326.091H898.955C898.955 322.784 899.34 320.199 899.982 318.23L890.473 315.134ZM888.955 326.091C888.955 330.094 889.419 333.773 890.468 337.032L899.987 333.968C899.339 331.954 898.955 329.36 898.955 326.091H888.955ZM890.468 337.032C891.512 340.278 893.148 343.165 895.592 345.332L902.227 337.85C901.458 337.168 900.639 335.995 899.987 333.968L890.468 337.032ZM895.592 345.332C898.156 347.606 901.277 348.727 904.682 348.727V338.727C903.602 338.727 902.874 338.424 902.227 337.85L895.592 345.332ZM975.955 321.727L970.955 321.661L970.955 321.694V321.727H975.955ZM975.955 361V366H980.955V361H975.955ZM950.864 361H945.864V366H950.864V361ZM950.864 291.182V286.182H945.864V291.182H950.864ZM974.682 291.182H979.682V286.182H974.682V291.182ZM974.682 304.455H969.682V309.455H974.682V304.455ZM975.409 304.455V309.455H978.982L980.139 306.075L975.409 304.455ZM983.409 294.045L980.674 289.86L980.666 289.865L980.659 289.87L983.409 294.045ZM1009.73 293.682L1007.08 297.922L1007.1 297.935L1007.12 297.947L1009.73 293.682ZM1018.23 302.955L1013.77 305.218L1013.78 305.232L1013.78 305.245L1018.23 302.955ZM1021.23 316.455L1016.23 316.425L1016.23 316.44V316.455H1021.23ZM1021.23 361V366H1026.23V361H1021.23ZM996.136 361H991.136V366H996.136V361ZM996.136 321.727L991.137 321.683L991.136 321.705V321.727H996.136ZM993.5 313.591L989.769 316.92L989.783 316.936L989.798 316.951L993.5 313.591ZM980.727 312L983.236 316.325L983.249 316.317L983.262 316.31L980.727 312ZM977.227 315.818L981.699 318.054L981.708 318.038L981.716 318.022L977.227 315.818ZM970.955 321.727V361H980.955V321.727H970.955ZM975.955 356H950.864V366H975.955V356ZM955.864 361V291.182H945.864V361H955.864ZM950.864 296.182H974.682V286.182H950.864V296.182ZM969.682 291.182V304.455H979.682V291.182H969.682ZM974.682 309.455H975.409V299.455H974.682V309.455ZM980.139 306.075C981.305 302.672 983.289 300.112 986.16 298.221L980.659 289.87C975.893 293.009 972.544 297.389 970.679 302.835L980.139 306.075ZM986.144 298.231C989.089 296.307 992.599 295.273 996.864 295.273V285.273C990.885 285.273 985.426 286.754 980.674 289.86L986.144 298.231ZM996.864 295.273C1001.01 295.273 1004.35 296.218 1007.08 297.922L1012.38 289.442C1007.83 286.601 1002.59 285.273 996.864 285.273V295.273ZM1007.12 297.947C1009.97 299.693 1012.18 302.08 1013.77 305.218L1022.69 300.691C1020.28 295.95 1016.82 292.156 1012.34 289.416L1007.12 297.947ZM1013.78 305.245C1015.39 308.371 1016.25 312.056 1016.23 316.425L1026.23 316.484C1026.26 310.732 1025.12 305.417 1022.67 300.664L1013.78 305.245ZM1016.23 316.455V361H1026.23V316.455H1016.23ZM1021.23 356H996.136V366H1021.23V356ZM1001.14 361V321.727H991.136V361H1001.14ZM1001.14 321.771C1001.17 317.446 1000.06 313.383 997.202 310.23L989.798 316.951C990.512 317.738 991.159 319.099 991.137 321.683L1001.14 321.771ZM997.231 310.262C994.341 307.023 990.411 305.636 986.136 305.636V315.636C988.165 315.636 989.144 316.219 989.769 316.92L997.231 310.262ZM986.136 305.636C983.319 305.636 980.615 306.265 978.192 307.69L983.262 316.31C983.931 315.917 984.832 315.636 986.136 315.636V305.636ZM978.219 307.675C975.796 309.08 973.965 311.117 972.739 313.615L981.716 318.022C982.126 317.186 982.628 316.678 983.236 316.325L978.219 307.675ZM972.755 313.582C971.524 316.044 970.993 318.794 970.955 321.661L980.954 321.793C980.977 320.054 981.294 318.865 981.699 318.054L972.755 313.582Z" fill="url(#paint4_linear_142_2)" mask="url(#path-5-outside-1_142_2)"/>
<path d="M63.5234 34.8515L56 54.625H64.0948L67.8088 43.9341L63.5234 34.8515Z" fill="white"/>
<path d="M74.4751 54.625L64.8566 34H72.7609L82.3794 54.625H74.4751Z" fill="white"/>
<path d="M79.1073 39.0143L76.917 34H84.5356L87.0116 39.0143H79.1073Z" fill="white"/>
<path d="M86.2498 54.625L79.4883 40.3389H87.4878L94.4398 54.625H86.2498Z" fill="white"/>
<path d="M90.882 39.0143L88.6916 34H101.643L104.024 39.0143H90.882Z" fill="white"/>
<path d="M100.405 54.625L93.8342 40.3389H101.643L108.5 54.625H100.405Z" fill="white"/>
<path d="M140.648 39.3636V35.5455H155.818V39.3636H150.568V53H145.898V39.3636H140.648ZM157.602 53V35.5455H170.181V39.3636H162.34V42.3636H169.533V46.1818H162.34V49.1818H170.147V53H157.602ZM188.827 42.0909H184.02C183.986 41.6932 183.895 41.3324 183.747 41.0085C183.605 40.6847 183.406 40.4062 183.151 40.1733C182.901 39.9347 182.597 39.7528 182.239 39.6278C181.881 39.4972 181.474 39.4318 181.02 39.4318C180.224 39.4318 179.551 39.625 179 40.0114C178.455 40.3977 178.04 40.9517 177.756 41.6733C177.477 42.3949 177.338 43.2614 177.338 44.2727C177.338 45.3409 177.48 46.2358 177.764 46.9574C178.054 47.6733 178.472 48.2131 179.017 48.5767C179.563 48.9347 180.219 49.1136 180.986 49.1136C181.423 49.1136 181.815 49.0597 182.162 48.9517C182.509 48.8381 182.81 48.6761 183.065 48.4659C183.321 48.2557 183.528 48.0028 183.688 47.7074C183.852 47.4062 183.963 47.0682 184.02 46.6932L188.827 46.7273C188.77 47.4659 188.563 48.2187 188.205 48.9858C187.847 49.7472 187.338 50.4517 186.679 51.0994C186.026 51.7415 185.216 52.2585 184.25 52.6506C183.284 53.0426 182.162 53.2386 180.884 53.2386C179.281 53.2386 177.844 52.8949 176.571 52.2074C175.304 51.5199 174.301 50.5085 173.562 49.1733C172.83 47.8381 172.463 46.2045 172.463 44.2727C172.463 42.3295 172.838 40.6932 173.588 39.3636C174.338 38.0284 175.349 37.0199 176.622 36.3381C177.895 35.6506 179.315 35.3068 180.884 35.3068C181.986 35.3068 183 35.4574 183.926 35.7585C184.852 36.0597 185.665 36.5 186.364 37.0795C187.063 37.6534 187.625 38.3608 188.051 39.2017C188.477 40.0426 188.736 41.0057 188.827 42.0909ZM190.977 53V35.5455H195.715V42.3636H201.988V35.5455H206.727V53H201.988V46.1818H195.715V53H190.977ZM224.079 35.5455V53H220.124L213.817 43.8295H213.715V53H208.977V35.5455H212.999L219.204 44.6818H219.34V35.5455H224.079ZM243.229 44.2727C243.229 46.2159 242.852 47.8551 242.096 49.1903C241.34 50.5199 240.32 51.5284 239.036 52.2159C237.752 52.8977 236.32 53.2386 234.741 53.2386C233.15 53.2386 231.712 52.8949 230.428 52.2074C229.15 51.5142 228.133 50.5028 227.377 49.1733C226.627 47.8381 226.252 46.2045 226.252 44.2727C226.252 42.3295 226.627 40.6932 227.377 39.3636C228.133 38.0284 229.15 37.0199 230.428 36.3381C231.712 35.6506 233.15 35.3068 234.741 35.3068C236.32 35.3068 237.752 35.6506 239.036 36.3381C240.32 37.0199 241.34 38.0284 242.096 39.3636C242.852 40.6932 243.229 42.3295 243.229 44.2727ZM238.354 44.2727C238.354 43.2273 238.215 42.3466 237.937 41.6307C237.664 40.9091 237.258 40.3636 236.718 39.9943C236.184 39.6193 235.525 39.4318 234.741 39.4318C233.957 39.4318 233.295 39.6193 232.755 39.9943C232.221 40.3636 231.815 40.9091 231.536 41.6307C231.263 42.3466 231.127 43.2273 231.127 44.2727C231.127 45.3182 231.263 46.2017 231.536 46.9233C231.815 47.6392 232.221 48.1847 232.755 48.5597C233.295 48.929 233.957 49.1136 234.741 49.1136C235.525 49.1136 236.184 48.929 236.718 48.5597C237.258 48.1847 237.664 47.6392 237.937 46.9233C238.215 46.2017 238.354 45.3182 238.354 44.2727ZM254.831 41C254.786 40.4318 254.572 39.9886 254.192 39.6705C253.817 39.3523 253.246 39.1932 252.479 39.1932C251.99 39.1932 251.589 39.2528 251.277 39.3722C250.97 39.4858 250.743 39.642 250.595 39.8409C250.447 40.0398 250.371 40.267 250.365 40.5227C250.354 40.733 250.391 40.9233 250.476 41.0938C250.567 41.2585 250.709 41.4091 250.902 41.5455C251.095 41.6761 251.342 41.7955 251.643 41.9034C251.945 42.0114 252.303 42.108 252.717 42.1932L254.149 42.5C255.115 42.7045 255.942 42.9744 256.629 43.3097C257.317 43.6449 257.879 44.0398 258.317 44.4943C258.754 44.9432 259.075 45.4489 259.28 46.0114C259.49 46.5739 259.598 47.1875 259.604 47.8523C259.598 49 259.311 49.9716 258.743 50.767C258.175 51.5625 257.362 52.1676 256.305 52.5824C255.254 52.9972 253.99 53.2045 252.513 53.2045C250.996 53.2045 249.672 52.9801 248.541 52.5312C247.416 52.0824 246.541 51.392 245.916 50.4602C245.297 49.5227 244.984 48.3239 244.979 46.8636H249.479C249.507 47.3977 249.641 47.8466 249.879 48.2102C250.118 48.5739 250.453 48.8494 250.885 49.0369C251.322 49.2244 251.842 49.3182 252.445 49.3182C252.95 49.3182 253.374 49.2557 253.714 49.1307C254.055 49.0057 254.314 48.8324 254.49 48.6108C254.666 48.3892 254.757 48.1364 254.763 47.8523C254.757 47.5852 254.669 47.3523 254.499 47.1534C254.334 46.9489 254.061 46.767 253.68 46.608C253.3 46.4432 252.786 46.2898 252.138 46.1477L250.399 45.7727C248.854 45.4375 247.635 44.8778 246.743 44.0938C245.857 43.304 245.416 42.2273 245.422 40.8636C245.416 39.7557 245.712 38.7869 246.308 37.9574C246.911 37.1222 247.743 36.4716 248.805 36.0057C249.874 35.5398 251.098 35.3068 252.479 35.3068C253.888 35.3068 255.107 35.5426 256.135 36.0142C257.163 36.4858 257.956 37.1506 258.513 38.0085C259.075 38.8608 259.359 39.858 259.365 41H254.831ZM261.406 53V35.5455H268.94C270.236 35.5455 271.369 35.8011 272.341 36.3125C273.313 36.8239 274.068 37.5426 274.608 38.4688C275.148 39.3949 275.418 40.4773 275.418 41.7159C275.418 42.9659 275.139 44.0483 274.582 44.9631C274.031 45.8778 273.256 46.5824 272.256 47.0767C271.261 47.571 270.099 47.8182 268.77 47.8182H264.27V44.1364H267.815C268.372 44.1364 268.847 44.0398 269.239 43.8466C269.636 43.6477 269.94 43.3665 270.151 43.0028C270.366 42.6392 270.474 42.2102 270.474 41.7159C270.474 41.2159 270.366 40.7898 270.151 40.4375C269.94 40.0795 269.636 39.8068 269.239 39.6193C268.847 39.4261 268.372 39.3295 267.815 39.3295H266.145V53H261.406ZM279.511 53H274.397L280.158 35.5455H286.636L292.397 53H287.283L283.465 40.3523H283.329L279.511 53ZM278.556 46.1136H288.17V49.6591H278.556V46.1136ZM294.078 53V35.5455H301.612C302.908 35.5455 304.041 35.7812 305.013 36.2528C305.984 36.7244 306.74 37.4034 307.28 38.2898C307.82 39.1761 308.089 40.2386 308.089 41.4773C308.089 42.7273 307.811 43.7812 307.254 44.6392C306.703 45.4972 305.928 46.1449 304.928 46.5824C303.933 47.0199 302.771 47.2386 301.442 47.2386H296.942V43.5568H300.487C301.044 43.5568 301.518 43.4886 301.911 43.3523C302.308 43.2102 302.612 42.9858 302.822 42.679C303.038 42.3722 303.146 41.9716 303.146 41.4773C303.146 40.9773 303.038 40.571 302.822 40.2585C302.612 39.9403 302.308 39.7074 301.911 39.5597C301.518 39.4062 301.044 39.3295 300.487 39.3295H298.817V53H294.078ZM304.305 44.9886L308.669 53H303.521L299.26 44.9886H304.305ZM315.189 35.5455L318.053 40.625H318.189L321.087 35.5455H326.371L321.155 44.2727L326.575 53H321.155L318.189 47.8182H318.053L315.087 53H309.7L315.053 44.2727L309.871 35.5455H315.189Z" fill="white"/>
<g opacity="0.22">
<path d="M143.849 615.982C118.356 615.982 90.4184 611.174 85.4594 600.434L85.1245 598.938V458.63H98.2416L99.8448 462.026C101.313 465.132 117.066 470.679 143.236 470.679C169.399 470.679 185.145 465.132 186.613 462.026L188.216 458.63H201.34V602.226L200.129 603.466C192.748 611.07 170.653 615.982 143.849 615.982ZM99.3745 597.944C102.168 601.123 118.078 606.143 143.849 606.143C166.749 606.143 182.032 602.201 187.09 598.938V474.424C175.705 478.588 158.968 480.522 143.236 480.522C127.504 480.522 110.76 478.583 99.3745 474.424V597.944Z" fill="url(#paint5_linear_142_2)"/>
<path d="M143.236 480.522C117.985 480.522 90.1904 475.758 85.0319 465.112C84.4904 463.955 84.2339 462.853 84.2339 461.77C84.2339 449.46 113.917 443.013 143.236 443.013C172.548 443.013 202.224 449.455 202.224 461.77C202.224 462.858 201.967 463.965 201.454 465.058C196.289 475.758 168.494 480.522 143.236 480.522ZM143.236 452.861C114.166 452.861 98.4839 459.186 98.4839 461.775C100.059 465.112 116.289 470.683 143.236 470.683C170.19 470.683 186.414 465.117 187.917 461.996C187.981 459.186 172.306 452.861 143.236 452.861Z" fill="url(#paint6_linear_142_2)"/>
<path d="M441.767 574.609H194.258V564.765H427.517V484.888H194.258V475.044H441.767V574.609Z" fill="url(#paint7_linear_142_2)"/>
<path d="M272.491 548.267H220.984V500.894H272.491V548.267ZM235.234 538.423H258.241V510.738H235.234V538.423Z" fill="url(#paint8_linear_142_2)"/>
<path d="M336.616 548.267H285.102V500.894H336.616V548.267ZM299.352 538.423H322.366V510.738H299.352V538.423Z" fill="url(#paint9_linear_142_2)"/>
<path d="M400.741 548.267H349.227V500.894H400.741V548.267ZM363.477 538.423H386.491V510.738H363.477V538.423Z" fill="url(#paint10_linear_142_2)"/>
<path d="M238.789 487.767H221.126V497.507H238.789V487.767Z" fill="url(#paint11_linear_142_2)"/>
<path d="M238.789 551.751H221.126V561.492H238.789V551.751Z" fill="url(#paint12_linear_142_2)"/>
<path d="M267.289 487.767H249.626V497.507H267.289V487.767Z" fill="url(#paint13_linear_142_2)"/>
<path d="M267.289 551.751H249.626V561.492H267.289V551.751Z" fill="url(#paint14_linear_142_2)"/>
<path d="M295.789 487.767H278.126V497.507H295.789V487.767Z" fill="url(#paint15_linear_142_2)"/>
<path d="M295.789 551.751H278.126V561.492H295.789V551.751Z" fill="url(#paint16_linear_142_2)"/>
<path d="M324.289 487.767H306.626V497.507H324.289V487.767Z" fill="url(#paint17_linear_142_2)"/>
<path d="M324.289 551.751H306.626V561.492H324.289V551.751Z" fill="url(#paint18_linear_142_2)"/>
<path d="M352.789 487.767H335.126V497.507H352.789V487.767Z" fill="url(#paint19_linear_142_2)"/>
<path d="M352.789 551.751H335.126V561.492H352.789V551.751Z" fill="url(#paint20_linear_142_2)"/>
<path d="M381.289 487.767H363.626V497.507H381.289V487.767Z" fill="url(#paint21_linear_142_2)"/>
<path d="M381.289 551.751H363.626V561.492H381.289V551.751Z" fill="url(#paint22_linear_142_2)"/>
<path d="M409.789 487.767H392.126V497.507H409.789V487.767Z" fill="url(#paint23_linear_142_2)"/>
<path d="M409.789 551.751H392.126V561.492H409.789V551.751Z" fill="url(#paint24_linear_142_2)"/>
<path d="M143.357 465.515C147.458 465.515 150.782 463.219 150.782 460.387C150.782 457.554 147.458 455.258 143.357 455.258C139.257 455.258 135.933 457.554 135.933 460.387C135.933 463.219 139.257 465.515 143.357 465.515Z" fill="url(#paint25_linear_142_2)"/>
</g>
<g opacity="0.32">
<path d="M1051.12 229.381C985.992 229.381 933 181.967 933 123.691C933 65.4141 985.992 18 1051.12 18C1116.26 18 1169.25 65.4141 1169.25 123.691C1169.25 181.967 1116.26 229.381 1051.12 229.381ZM1051.12 25.4375C990.577 25.4375 941.312 69.5158 941.312 123.691C941.312 177.865 990.577 221.944 1051.12 221.944C1111.67 221.944 1160.94 177.865 1160.94 123.691C1160.94 69.5158 1111.67 25.4375 1051.12 25.4375Z" fill="url(#paint26_linear_142_2)"/>
<path d="M1124.66 47.222L1121.77 40.2456L994.435 82.3577L997.317 89.3341L1124.66 47.222Z" fill="url(#paint27_linear_142_2)"/>
<path d="M1166.99 143.302L1063.38 61.4219L1057.88 66.9963L1161.49 148.876L1166.99 143.302Z" fill="url(#paint28_linear_142_2)"/>
<path d="M1120.83 111.191L1112.65 109.913L1091.49 218.443L1099.68 219.721L1120.83 111.191Z" fill="url(#paint29_linear_142_2)"/>
<path d="M1106.57 168.714L1102.74 162.11L995.252 211.946L999.077 218.55L1106.57 168.714Z" fill="url(#paint30_linear_142_2)"/>
<path d="M1045.66 190.898L938.604 127.172L933.999 133.364L1041.06 197.091L1045.66 190.898Z" fill="url(#paint31_linear_142_2)"/>
<path d="M1009.07 28.6668L1000.8 27.9111L985.681 160.387L993.95 161.143L1009.07 28.6668Z" fill="url(#paint32_linear_142_2)"/>
</g>
</g>
<defs>
<linearGradient id="paint0_linear_142_2" x1="-63.757" y1="-34.0073" x2="-63.757" y2="347.166" gradientUnits="userSpaceOnUse">
<stop stop-color="#FF9E0B"/>
<stop offset="1" stop-color="#EC4899"/>
</linearGradient>
<linearGradient id="paint1_linear_142_2" x1="1173" y1="695.827" x2="1173" y2="969.442" gradientUnits="userSpaceOnUse">
<stop stop-color="#FF9E0B"/>
<stop offset="1" stop-color="#F24E52"/>
</linearGradient>
<linearGradient id="paint2_linear_142_2" x1="882.5" y1="530" x2="882.5" y2="919" gradientUnits="userSpaceOnUse">
<stop stop-color="#FF9E0B"/>
<stop offset="1" stop-color="#9C67E7"/>
</linearGradient>
<linearGradient id="paint3_linear_142_2" x1="491" y1="30" x2="491" y2="162" gradientUnits="userSpaceOnUse">
<stop stop-color="#FF9E0B"/>
<stop offset="1" stop-color="#DA46EB"/>
</linearGradient>
<linearGradient id="paint4_linear_142_2" x1="600.5" y1="237" x2="600.5" y2="392" gradientUnits="userSpaceOnUse">
<stop stop-color="#FF9E0B"/>
<stop offset="0.49" stop-color="#F24E52"/>
</linearGradient>
<linearGradient id="paint5_linear_142_2" x1="143.232" y1="458.63" x2="143.232" y2="615.982" gradientUnits="userSpaceOnUse">
<stop stop-color="#FA7E27"/>
<stop offset="1" stop-color="#F24E4E"/>
</linearGradient>
<linearGradient id="paint6_linear_142_2" x1="143.229" y1="443.013" x2="143.229" y2="480.522" gradientUnits="userSpaceOnUse">
<stop stop-color="#FA7E27"/>
<stop offset="1" stop-color="#F24E4E"/>
</linearGradient>
<linearGradient id="paint7_linear_142_2" x1="318.012" y1="475.044" x2="318.012" y2="574.609" gradientUnits="userSpaceOnUse">
<stop stop-color="#FA7E27"/>
<stop offset="1" stop-color="#F24E4E"/>
</linearGradient>
<linearGradient id="paint8_linear_142_2" x1="246.737" y1="500.894" x2="246.737" y2="548.267" gradientUnits="userSpaceOnUse">
<stop stop-color="#FA7E27"/>
<stop offset="1" stop-color="#F24E4E"/>
</linearGradient>
<linearGradient id="paint9_linear_142_2" x1="310.859" y1="500.894" x2="310.859" y2="548.267" gradientUnits="userSpaceOnUse">
<stop stop-color="#FA7E27"/>
<stop offset="1" stop-color="#F24E4E"/>
</linearGradient>
<linearGradient id="paint10_linear_142_2" x1="374.984" y1="500.894" x2="374.984" y2="548.267" gradientUnits="userSpaceOnUse">
<stop stop-color="#FA7E27"/>
<stop offset="1" stop-color="#F24E4E"/>
</linearGradient>
<linearGradient id="paint11_linear_142_2" x1="229.958" y1="487.767" x2="229.958" y2="497.507" gradientUnits="userSpaceOnUse">
<stop stop-color="#FA7E27"/>
<stop offset="1" stop-color="#F24E4E"/>
</linearGradient>
<linearGradient id="paint12_linear_142_2" x1="229.958" y1="551.751" x2="229.958" y2="561.492" gradientUnits="userSpaceOnUse">
<stop stop-color="#FA7E27"/>
<stop offset="1" stop-color="#F24E4E"/>
</linearGradient>
<linearGradient id="paint13_linear_142_2" x1="258.458" y1="487.767" x2="258.458" y2="497.507" gradientUnits="userSpaceOnUse">
<stop stop-color="#FA7E27"/>
<stop offset="1" stop-color="#F24E4E"/>
</linearGradient>
<linearGradient id="paint14_linear_142_2" x1="258.458" y1="551.751" x2="258.458" y2="561.492" gradientUnits="userSpaceOnUse">
<stop stop-color="#FA7E27"/>
<stop offset="1" stop-color="#F24E4E"/>
</linearGradient>
<linearGradient id="paint15_linear_142_2" x1="286.958" y1="487.767" x2="286.958" y2="497.507" gradientUnits="userSpaceOnUse">
<stop stop-color="#FA7E27"/>
<stop offset="1" stop-color="#F24E4E"/>
</linearGradient>
<linearGradient id="paint16_linear_142_2" x1="286.958" y1="551.751" x2="286.958" y2="561.492" gradientUnits="userSpaceOnUse">
<stop stop-color="#FA7E27"/>
<stop offset="1" stop-color="#F24E4E"/>
</linearGradient>
<linearGradient id="paint17_linear_142_2" x1="315.458" y1="487.767" x2="315.458" y2="497.507" gradientUnits="userSpaceOnUse">
<stop stop-color="#FA7E27"/>
<stop offset="1" stop-color="#F24E4E"/>
</linearGradient>
<linearGradient id="paint18_linear_142_2" x1="315.458" y1="551.751" x2="315.458" y2="561.492" gradientUnits="userSpaceOnUse">
<stop stop-color="#FA7E27"/>
<stop offset="1" stop-color="#F24E4E"/>
</linearGradient>
<linearGradient id="paint19_linear_142_2" x1="343.958" y1="487.767" x2="343.958" y2="497.507" gradientUnits="userSpaceOnUse">
<stop stop-color="#FA7E27"/>
<stop offset="1" stop-color="#F24E4E"/>
</linearGradient>
<linearGradient id="paint20_linear_142_2" x1="343.958" y1="551.751" x2="343.958" y2="561.492" gradientUnits="userSpaceOnUse">
<stop stop-color="#FA7E27"/>
<stop offset="1" stop-color="#F24E4E"/>
</linearGradient>
<linearGradient id="paint21_linear_142_2" x1="372.458" y1="487.767" x2="372.458" y2="497.507" gradientUnits="userSpaceOnUse">
<stop stop-color="#FA7E27"/>
<stop offset="1" stop-color="#F24E4E"/>
</linearGradient>
<linearGradient id="paint22_linear_142_2" x1="372.458" y1="551.751" x2="372.458" y2="561.492" gradientUnits="userSpaceOnUse">
<stop stop-color="#FA7E27"/>
<stop offset="1" stop-color="#F24E4E"/>
</linearGradient>
<linearGradient id="paint23_linear_142_2" x1="400.958" y1="487.767" x2="400.958" y2="497.507" gradientUnits="userSpaceOnUse">
<stop stop-color="#FA7E27"/>
<stop offset="1" stop-color="#F24E4E"/>
</linearGradient>
<linearGradient id="paint24_linear_142_2" x1="400.958" y1="551.751" x2="400.958" y2="561.492" gradientUnits="userSpaceOnUse">
<stop stop-color="#FA7E27"/>
<stop offset="1" stop-color="#F24E4E"/>
</linearGradient>
<linearGradient id="paint25_linear_142_2" x1="143.357" y1="455.258" x2="143.357" y2="465.515" gradientUnits="userSpaceOnUse">
<stop stop-color="#FA7E27"/>
<stop offset="1" stop-color="#F24E4E"/>
</linearGradient>
<linearGradient id="paint26_linear_142_2" x1="1051.12" y1="18" x2="1051.12" y2="229.381" gradientUnits="userSpaceOnUse">
<stop stop-color="#F24E52"/>
<stop offset="1" stop-color="#F54007"/>
</linearGradient>
<linearGradient id="paint27_linear_142_2" x1="1123.21" y1="43.7338" x2="999.578" y2="94.8081" gradientUnits="userSpaceOnUse">
<stop stop-color="#F24E52"/>
<stop offset="1" stop-color="#F54007"/>
</linearGradient>
<linearGradient id="paint28_linear_142_2" x1="1115.19" y1="102.362" x2="1110.36" y2="108.47" gradientUnits="userSpaceOnUse">
<stop stop-color="#F24E52"/>
<stop offset="1" stop-color="#F54007"/>
</linearGradient>
<linearGradient id="paint29_linear_142_2" x1="1116.74" y1="110.552" x2="1099.7" y2="219.725" gradientUnits="userSpaceOnUse">
<stop stop-color="#F24E52"/>
<stop offset="1" stop-color="#F54007"/>
</linearGradient>
<linearGradient id="paint30_linear_142_2" x1="1104.65" y1="165.412" x2="1002.55" y2="224.545" gradientUnits="userSpaceOnUse">
<stop stop-color="#F24E52"/>
<stop offset="1" stop-color="#F54007"/>
</linearGradient>
<linearGradient id="paint31_linear_142_2" x1="992.134" y1="159.035" x2="988.208" y2="165.631" gradientUnits="userSpaceOnUse">
<stop stop-color="#F24E52"/>
<stop offset="1" stop-color="#F54007"/>
</linearGradient>
<linearGradient id="paint32_linear_142_2" x1="1004.94" y1="28.289" x2="992.807" y2="161.038" gradientUnits="userSpaceOnUse">
<stop stop-color="#F24E52"/>
<stop offset="1" stop-color="#F54007"/>
</linearGradient>
<clipPath id="clip0_142_2">
<rect width="1200" height="630" fill="white"/>
</clipPath>
</defs>
</svg>
