<svg width="1200" height="630" viewBox="0 0 1200 630" fill="none" xmlns="http://www.w3.org/2000/svg">
<g clip-path="url(#clip0_148_436)">
<rect width="1200" height="630" fill="black"/>
<rect x="-427.809" y="-32.4844" width="729.486" height="376.173" transform="rotate(-19.4848 -427.809 -32.4844)" stroke="url(#paint0_linear_148_436)" stroke-width="5"/>
<rect x="883" y="695.827" width="580" height="273.616" transform="rotate(-35.26 883 695.827)" fill="url(#paint1_linear_148_436)"/>
<circle cx="882.5" cy="724.5" r="193" stroke="url(#paint2_linear_148_436)" stroke-width="3"/>
<path opacity="0.49" d="M415 58.3636C414.121 58.3636 413.367 58.0568 412.739 57.4432C412.117 56.822 411.811 56.0682 411.818 55.1818C411.811 54.3182 412.117 53.5795 412.739 52.9659C413.367 52.3523 414.121 52.0455 415 52.0455C415.833 52.0455 416.568 52.3523 417.205 52.9659C417.848 53.5795 418.174 54.3182 418.182 55.1818C418.174 55.7727 418.019 56.3106 417.716 56.7955C417.42 57.2727 417.034 57.6553 416.557 57.9432C416.08 58.2235 415.561 58.3636 415 58.3636ZM459.003 58.3636C458.124 58.3636 457.37 58.0568 456.741 57.4432C456.12 56.822 455.813 56.0682 455.821 55.1818C455.813 54.3182 456.12 53.5795 456.741 52.9659C457.37 52.3523 458.124 52.0455 459.003 52.0455C459.836 52.0455 460.571 52.3523 461.207 52.9659C461.851 53.5795 462.177 54.3182 462.184 55.1818C462.177 55.7727 462.021 56.3106 461.718 56.7955C461.423 57.2727 461.037 57.6553 460.559 57.9432C460.082 58.2235 459.563 58.3636 459.003 58.3636ZM503.005 58.3636C502.126 58.3636 501.372 58.0568 500.744 57.4432C500.122 56.822 499.816 56.0682 499.823 55.1818C499.816 54.3182 500.122 53.5795 500.744 52.9659C501.372 52.3523 502.126 52.0455 503.005 52.0455C503.838 52.0455 504.573 52.3523 505.21 52.9659C505.853 53.5795 506.179 54.3182 506.187 55.1818C506.179 55.7727 506.024 56.3106 505.721 56.7955C505.425 57.2727 505.039 57.6553 504.562 57.9432C504.085 58.2235 503.566 58.3636 503.005 58.3636ZM547.008 58.3636C546.129 58.3636 545.375 58.0568 544.746 57.4432C544.125 56.822 543.818 56.0682 543.826 55.1818C543.818 54.3182 544.125 53.5795 544.746 52.9659C545.375 52.3523 546.129 52.0455 547.008 52.0455C547.841 52.0455 548.576 52.3523 549.212 52.9659C549.856 53.5795 550.182 54.3182 550.189 55.1818C550.182 55.7727 550.026 56.3106 549.723 56.7955C549.428 57.2727 549.042 57.6553 548.564 57.9432C548.087 58.2235 547.568 58.3636 547.008 58.3636ZM415 91.3636C414.121 91.3636 413.367 91.0568 412.739 90.4432C412.117 89.822 411.811 89.0682 411.818 88.1818C411.811 87.3182 412.117 86.5795 412.739 85.9659C413.367 85.3523 414.121 85.0455 415 85.0455C415.833 85.0455 416.568 85.3523 417.205 85.9659C417.848 86.5795 418.174 87.3182 418.182 88.1818C418.174 88.7727 418.019 89.3106 417.716 89.7955C417.42 90.2727 417.034 90.6553 416.557 90.9432C416.08 91.2235 415.561 91.3636 415 91.3636ZM459.003 91.3636C458.124 91.3636 457.37 91.0568 456.741 90.4432C456.12 89.822 455.813 89.0682 455.821 88.1818C455.813 87.3182 456.12 86.5795 456.741 85.9659C457.37 85.3523 458.124 85.0455 459.003 85.0455C459.836 85.0455 460.571 85.3523 461.207 85.9659C461.851 86.5795 462.177 87.3182 462.184 88.1818C462.177 88.7727 462.021 89.3106 461.718 89.7955C461.423 90.2727 461.037 90.6553 460.559 90.9432C460.082 91.2235 459.563 91.3636 459.003 91.3636ZM503.005 91.3636C502.126 91.3636 501.372 91.0568 500.744 90.4432C500.122 89.822 499.816 89.0682 499.823 88.1818C499.816 87.3182 500.122 86.5795 500.744 85.9659C501.372 85.3523 502.126 85.0455 503.005 85.0455C503.838 85.0455 504.573 85.3523 505.21 85.9659C505.853 86.5795 506.179 87.3182 506.187 88.1818C506.179 88.7727 506.024 89.3106 505.721 89.7955C505.425 90.2727 505.039 90.6553 504.562 90.9432C504.085 91.2235 503.566 91.3636 503.005 91.3636ZM547.008 91.3636C546.129 91.3636 545.375 91.0568 544.746 90.4432C544.125 89.822 543.818 89.0682 543.826 88.1818C543.818 87.3182 544.125 86.5795 544.746 85.9659C545.375 85.3523 546.129 85.0455 547.008 85.0455C547.841 85.0455 548.576 85.3523 549.212 85.9659C549.856 86.5795 550.182 87.3182 550.189 88.1818C550.182 88.7727 550.026 89.3106 549.723 89.7955C549.428 90.2727 549.042 90.6553 548.564 90.9432C548.087 91.2235 547.568 91.3636 547.008 91.3636ZM415 124.364C414.121 124.364 413.367 124.057 412.739 123.443C412.117 122.822 411.811 122.068 411.818 121.182C411.811 120.318 412.117 119.58 412.739 118.966C413.367 118.352 414.121 118.045 415 118.045C415.833 118.045 416.568 118.352 417.205 118.966C417.848 119.58 418.174 120.318 418.182 121.182C418.174 121.773 418.019 122.311 417.716 122.795C417.42 123.273 417.034 123.655 416.557 123.943C416.08 124.223 415.561 124.364 415 124.364ZM459.003 124.364C458.124 124.364 457.37 124.057 456.741 123.443C456.12 122.822 455.813 122.068 455.821 121.182C455.813 120.318 456.12 119.58 456.741 118.966C457.37 118.352 458.124 118.045 459.003 118.045C459.836 118.045 460.571 118.352 461.207 118.966C461.851 119.58 462.177 120.318 462.184 121.182C462.177 121.773 462.021 122.311 461.718 122.795C461.423 123.273 461.037 123.655 460.559 123.943C460.082 124.223 459.563 124.364 459.003 124.364ZM503.005 124.364C502.126 124.364 501.372 124.057 500.744 123.443C500.122 122.822 499.816 122.068 499.823 121.182C499.816 120.318 500.122 119.58 500.744 118.966C501.372 118.352 502.126 118.045 503.005 118.045C503.838 118.045 504.573 118.352 505.21 118.966C505.853 119.58 506.179 120.318 506.187 121.182C506.179 121.773 506.024 122.311 505.721 122.795C505.425 123.273 505.039 123.655 504.562 123.943C504.085 124.223 503.566 124.364 503.005 124.364ZM547.008 124.364C546.129 124.364 545.375 124.057 544.746 123.443C544.125 122.822 543.818 122.068 543.826 121.182C543.818 120.318 544.125 119.58 544.746 118.966C545.375 118.352 546.129 118.045 547.008 118.045C547.841 118.045 548.576 118.352 549.212 118.966C549.856 119.58 550.182 120.318 550.189 121.182C550.182 121.773 550.026 122.311 549.723 122.795C549.428 123.273 549.042 123.655 548.564 123.943C548.087 124.223 547.568 124.364 547.008 124.364ZM415 157.364C414.121 157.364 413.367 157.057 412.739 156.443C412.117 155.822 411.811 155.068 411.818 154.182C411.811 153.318 412.117 152.58 412.739 151.966C413.367 151.352 414.121 151.045 415 151.045C415.833 151.045 416.568 151.352 417.205 151.966C417.848 152.58 418.174 153.318 418.182 154.182C418.174 154.773 418.019 155.311 417.716 155.795C417.42 156.273 417.034 156.655 416.557 156.943C416.08 157.223 415.561 157.364 415 157.364ZM459.003 157.364C458.124 157.364 457.37 157.057 456.741 156.443C456.12 155.822 455.813 155.068 455.821 154.182C455.813 153.318 456.12 152.58 456.741 151.966C457.37 151.352 458.124 151.045 459.003 151.045C459.836 151.045 460.571 151.352 461.207 151.966C461.851 152.58 462.177 153.318 462.184 154.182C462.177 154.773 462.021 155.311 461.718 155.795C461.423 156.273 461.037 156.655 460.559 156.943C460.082 157.223 459.563 157.364 459.003 157.364ZM503.005 157.364C502.126 157.364 501.372 157.057 500.744 156.443C500.122 155.822 499.816 155.068 499.823 154.182C499.816 153.318 500.122 152.58 500.744 151.966C501.372 151.352 502.126 151.045 503.005 151.045C503.838 151.045 504.573 151.352 505.21 151.966C505.853 152.58 506.179 153.318 506.187 154.182C506.179 154.773 506.024 155.311 505.721 155.795C505.425 156.273 505.039 156.655 504.562 156.943C504.085 157.223 503.566 157.364 503.005 157.364ZM547.008 157.364C546.129 157.364 545.375 157.057 544.746 156.443C544.125 155.822 543.818 155.068 543.826 154.182C543.818 153.318 544.125 152.58 544.746 151.966C545.375 151.352 546.129 151.045 547.008 151.045C547.841 151.045 548.576 151.352 549.212 151.966C549.856 152.58 550.182 153.318 550.189 154.182C550.182 154.773 550.026 155.311 549.723 155.795C549.428 156.273 549.042 156.655 548.564 156.943C548.087 157.223 547.568 157.364 547.008 157.364Z" fill="url(#paint3_linear_148_436)"/>
<mask id="path-5-outside-1_148_436" maskUnits="userSpaceOnUse" x="244" y="262" width="713" height="133" fill="black">
<rect fill="white" x="244" y="262" width="713" height="133"/>
<path d="M274.273 268.909V362H249V268.909H274.273ZM286.614 362V292.182H310.432V305.455H311.159C312.614 301.091 315.098 297.636 318.614 295.091C322.129 292.545 326.311 291.273 331.159 291.273C336.068 291.273 340.295 292.576 343.841 295.182C347.386 297.758 349.523 301.182 350.25 305.455H350.977C352.159 301.182 354.674 297.758 358.523 295.182C362.371 292.576 366.886 291.273 372.068 291.273C378.765 291.273 384.189 293.424 388.341 297.727C392.523 302.03 394.614 307.758 394.614 314.909V362H369.523V321.273C369.523 318.212 368.75 315.818 367.205 314.091C365.659 312.333 363.583 311.455 360.977 311.455C358.402 311.455 356.356 312.333 354.841 314.091C353.356 315.818 352.614 318.212 352.614 321.273V362H328.614V321.273C328.614 318.212 327.841 315.818 326.295 314.091C324.75 312.333 322.674 311.455 320.068 311.455C318.341 311.455 316.856 311.848 315.614 312.636C314.371 313.424 313.402 314.561 312.705 316.045C312.038 317.5 311.705 319.242 311.705 321.273V362H286.614ZM426.443 363.091C421.989 363.091 418.049 362.364 414.625 360.909C411.231 359.424 408.564 357.182 406.625 354.182C404.686 351.182 403.716 347.364 403.716 342.727C403.716 338.909 404.367 335.652 405.67 332.955C406.973 330.227 408.792 328 411.125 326.273C413.458 324.545 416.17 323.227 419.261 322.318C422.383 321.409 425.746 320.818 429.352 320.545C433.261 320.242 436.398 319.879 438.761 319.455C441.155 319 442.883 318.379 443.943 317.591C445.004 316.773 445.534 315.697 445.534 314.364V314.182C445.534 312.364 444.837 310.97 443.443 310C442.049 309.03 440.261 308.545 438.08 308.545C435.686 308.545 433.731 309.076 432.216 310.136C430.731 311.167 429.837 312.758 429.534 314.909H406.443C406.746 310.667 408.095 306.758 410.489 303.182C412.913 299.576 416.443 296.697 421.08 294.545C425.716 292.364 431.504 291.273 438.443 291.273C443.443 291.273 447.928 291.864 451.898 293.045C455.867 294.197 459.246 295.818 462.034 297.909C464.822 299.97 466.943 302.394 468.398 305.182C469.883 307.939 470.625 310.939 470.625 314.182V362H447.17V352.182H446.625C445.231 354.788 443.534 356.894 441.534 358.5C439.564 360.106 437.307 361.273 434.761 362C432.246 362.727 429.473 363.091 426.443 363.091ZM434.625 347.273C436.534 347.273 438.322 346.879 439.989 346.091C441.686 345.303 443.064 344.167 444.125 342.682C445.186 341.197 445.716 339.394 445.716 337.273V331.455C445.049 331.727 444.337 331.985 443.58 332.227C442.852 332.47 442.064 332.697 441.216 332.909C440.398 333.121 439.519 333.318 438.58 333.5C437.67 333.682 436.716 333.848 435.716 334C433.777 334.303 432.186 334.803 430.943 335.5C429.731 336.167 428.822 337 428.216 338C427.64 338.97 427.352 340.061 427.352 341.273C427.352 343.212 428.034 344.697 429.398 345.727C430.761 346.758 432.504 347.273 434.625 347.273ZM516.25 389.636C509.25 389.636 503.25 388.636 498.25 386.636C493.28 384.667 489.417 381.939 486.659 378.455C483.932 375 482.402 371.03 482.068 366.545H506.25C506.492 368.03 507.098 369.227 508.068 370.136C509.038 371.045 510.28 371.697 511.795 372.091C513.341 372.515 515.068 372.727 516.977 372.727C520.22 372.727 522.902 371.939 525.023 370.364C527.174 368.788 528.25 365.939 528.25 361.818V350H527.523C526.614 352.364 525.22 354.379 523.341 356.045C521.462 357.682 519.205 358.939 516.568 359.818C513.932 360.667 511.038 361.091 507.886 361.091C502.917 361.091 498.341 359.939 494.159 357.636C490.008 355.333 486.674 351.682 484.159 346.682C481.674 341.682 480.432 335.152 480.432 327.091C480.432 318.667 481.735 311.818 484.341 306.545C486.977 301.273 490.371 297.409 494.523 294.955C498.705 292.5 503.098 291.273 507.705 291.273C511.159 291.273 514.189 291.879 516.795 293.091C519.402 294.273 521.583 295.864 523.341 297.864C525.098 299.833 526.432 302 527.341 304.364H527.886V292.182H552.977V361.818C552.977 367.727 551.447 372.742 548.386 376.864C545.356 381.015 541.083 384.182 535.568 386.364C530.053 388.545 523.614 389.636 516.25 389.636ZM517.159 343.273C519.462 343.273 521.432 342.636 523.068 341.364C524.735 340.061 526.008 338.212 526.886 335.818C527.795 333.394 528.25 330.485 528.25 327.091C528.25 323.636 527.795 320.682 526.886 318.227C526.008 315.742 524.735 313.848 523.068 312.545C521.432 311.212 519.462 310.545 517.159 310.545C514.856 310.545 512.886 311.212 511.25 312.545C509.644 313.848 508.402 315.742 507.523 318.227C506.674 320.682 506.25 323.636 506.25 327.091C506.25 330.545 506.674 333.485 507.523 335.909C508.402 338.303 509.644 340.136 511.25 341.409C512.886 342.652 514.856 343.273 517.159 343.273ZM599.193 363.273C591.739 363.273 585.314 361.848 579.92 359C574.557 356.121 570.42 352 567.511 346.636C564.633 341.242 563.193 334.788 563.193 327.273C563.193 320.061 564.648 313.758 567.557 308.364C570.466 302.97 574.572 298.773 579.875 295.773C585.178 292.773 591.436 291.273 598.648 291.273C603.92 291.273 608.693 292.091 612.966 293.727C617.239 295.364 620.89 297.742 623.92 300.864C626.951 303.955 629.284 307.712 630.92 312.136C632.557 316.561 633.375 321.545 633.375 327.091V332.909H571.011V319.091H610.284C610.254 317.091 609.739 315.333 608.739 313.818C607.769 312.273 606.451 311.076 604.784 310.227C603.148 309.348 601.284 308.909 599.193 308.909C597.163 308.909 595.299 309.348 593.602 310.227C591.905 311.076 590.542 312.258 589.511 313.773C588.511 315.288 587.981 317.061 587.92 319.091V334C587.92 336.242 588.39 338.242 589.33 340C590.269 341.758 591.617 343.136 593.375 344.136C595.133 345.136 597.254 345.636 599.739 345.636C601.466 345.636 603.042 345.394 604.466 344.909C605.92 344.424 607.163 343.727 608.193 342.818C609.223 341.879 609.981 340.758 610.466 339.455H633.375C632.587 344.303 630.723 348.515 627.784 352.091C624.845 355.636 620.951 358.394 616.102 360.364C611.284 362.303 605.648 363.273 599.193 363.273ZM689.432 315.455V334.364H645.795V315.455H689.432ZM764.455 299.636C764.061 298.03 763.439 296.621 762.591 295.409C761.742 294.167 760.682 293.121 759.409 292.273C758.167 291.394 756.712 290.742 755.045 290.318C753.409 289.864 751.606 289.636 749.636 289.636C745.394 289.636 741.773 290.652 738.773 292.682C735.803 294.712 733.53 297.636 731.955 301.455C730.409 305.273 729.636 309.879 729.636 315.273C729.636 320.727 730.379 325.394 731.864 329.273C733.348 333.152 735.561 336.121 738.5 338.182C741.439 340.242 745.091 341.273 749.455 341.273C753.303 341.273 756.5 340.712 759.045 339.591C761.621 338.47 763.545 336.879 764.818 334.818C766.091 332.758 766.727 330.333 766.727 327.545L771.091 328H749.818V310H791.091V322.909C791.091 331.394 789.288 338.652 785.682 344.682C782.106 350.682 777.167 355.288 770.864 358.5C764.591 361.682 757.394 363.273 749.273 363.273C740.212 363.273 732.258 361.348 725.409 357.5C718.561 353.652 713.212 348.167 709.364 341.045C705.545 333.924 703.636 325.455 703.636 315.636C703.636 307.939 704.803 301.121 707.136 295.182C709.5 289.242 712.773 284.227 716.955 280.136C721.136 276.015 725.97 272.909 731.455 270.818C736.939 268.697 742.818 267.636 749.091 267.636C754.606 267.636 759.727 268.424 764.455 270C769.212 271.545 773.409 273.758 777.045 276.636C780.712 279.485 783.667 282.864 785.909 286.773C788.152 290.682 789.515 294.97 790 299.636H764.455ZM836.693 363.273C829.239 363.273 822.814 361.848 817.42 359C812.057 356.121 807.92 352 805.011 346.636C802.133 341.242 800.693 334.788 800.693 327.273C800.693 320.061 802.148 313.758 805.057 308.364C807.966 302.97 812.072 298.773 817.375 295.773C822.678 292.773 828.936 291.273 836.148 291.273C841.42 291.273 846.193 292.091 850.466 293.727C854.739 295.364 858.39 297.742 861.42 300.864C864.451 303.955 866.784 307.712 868.42 312.136C870.057 316.561 870.875 321.545 870.875 327.091V332.909H808.511V319.091H847.784C847.754 317.091 847.239 315.333 846.239 313.818C845.269 312.273 843.951 311.076 842.284 310.227C840.648 309.348 838.784 308.909 836.693 308.909C834.663 308.909 832.799 309.348 831.102 310.227C829.405 311.076 828.042 312.258 827.011 313.773C826.011 315.288 825.481 317.061 825.42 319.091V334C825.42 336.242 825.89 338.242 826.83 340C827.769 341.758 829.117 343.136 830.875 344.136C832.633 345.136 834.754 345.636 837.239 345.636C838.966 345.636 840.542 345.394 841.966 344.909C843.42 344.424 844.663 343.727 845.693 342.818C846.723 341.879 847.481 340.758 847.966 339.455H870.875C870.087 344.303 868.223 348.515 865.284 352.091C862.345 355.636 858.451 358.394 853.602 360.364C848.784 362.303 843.148 363.273 836.693 363.273ZM906.205 322.727V362H881.114V292.182H904.932V305.455H905.659C907.174 301.03 909.841 297.561 913.659 295.045C917.508 292.53 921.992 291.273 927.114 291.273C932.053 291.273 936.341 292.409 939.977 294.682C943.644 296.924 946.477 300.015 948.477 303.955C950.508 307.894 951.508 312.394 951.477 317.455V362H926.386V322.727C926.417 319.273 925.538 316.561 923.75 314.591C921.992 312.621 919.538 311.636 916.386 311.636C914.326 311.636 912.523 312.091 910.977 313C909.462 313.879 908.295 315.152 907.477 316.818C906.659 318.455 906.235 320.424 906.205 322.727Z"/>
</mask>
<path d="M274.273 268.909H279.273V263.909H274.273V268.909ZM274.273 362V367H279.273V362H274.273ZM249 362H244V367H249V362ZM249 268.909V263.909H244V268.909H249ZM269.273 268.909V362H279.273V268.909H269.273ZM274.273 357H249V367H274.273V357ZM254 362V268.909H244V362H254ZM249 273.909H274.273V263.909H249V273.909ZM286.614 362H281.614V367H286.614V362ZM286.614 292.182V287.182H281.614V292.182H286.614ZM310.432 292.182H315.432V287.182H310.432V292.182ZM310.432 305.455H305.432V310.455H310.432V305.455ZM311.159 305.455V310.455H314.763L315.903 307.036L311.159 305.455ZM318.614 295.091L315.681 291.041L315.681 291.041L318.614 295.091ZM343.841 295.182L340.88 299.211L340.891 299.219L340.902 299.227L343.841 295.182ZM350.25 305.455L345.321 306.294L346.029 310.455H350.25V305.455ZM350.977 305.455V310.455H354.782L355.796 306.787L350.977 305.455ZM358.523 295.182L361.304 299.337L361.315 299.329L361.326 299.322L358.523 295.182ZM388.341 297.727L384.743 301.199L384.749 301.205L384.755 301.212L388.341 297.727ZM394.614 362V367H399.614V362H394.614ZM369.523 362H364.523V367H369.523V362ZM367.205 314.091L363.45 317.393L363.464 317.409L363.478 317.425L367.205 314.091ZM354.841 314.091L351.054 310.826L351.049 310.831L354.841 314.091ZM352.614 362V367H357.614V362H352.614ZM328.614 362H323.614V367H328.614V362ZM326.295 314.091L322.541 317.393L322.555 317.409L322.569 317.425L326.295 314.091ZM315.614 312.636L318.291 316.859L318.291 316.859L315.614 312.636ZM312.705 316.045L308.178 313.921L308.169 313.942L308.159 313.962L312.705 316.045ZM311.705 362V367H316.705V362H311.705ZM291.614 362V292.182H281.614V362H291.614ZM286.614 297.182H310.432V287.182H286.614V297.182ZM305.432 292.182V305.455H315.432V292.182H305.432ZM310.432 310.455H311.159V300.455H310.432V310.455ZM315.903 307.036C317.047 303.601 318.93 301.035 321.546 299.141L315.681 291.041C311.267 294.238 308.18 298.581 306.416 303.873L315.903 307.036ZM321.546 299.141C324.109 297.285 327.235 296.273 331.159 296.273V286.273C325.387 286.273 320.148 287.806 315.681 291.041L321.546 299.141ZM331.159 296.273C335.132 296.273 338.291 297.308 340.88 299.211L346.802 291.153C342.3 287.844 337.004 286.273 331.159 286.273V296.273ZM340.902 299.227C343.404 301.045 344.816 303.324 345.321 306.294L355.179 304.616C354.23 299.039 351.369 294.471 346.78 291.137L340.902 299.227ZM350.25 310.455H350.977V300.455H350.25V310.455ZM355.796 306.787C356.644 303.724 358.402 301.279 361.304 299.337L355.742 291.027C350.946 294.236 347.675 298.639 346.158 304.122L355.796 306.787ZM361.326 299.322C364.254 297.34 367.766 296.273 372.068 296.273V286.273C366.006 286.273 360.489 287.812 355.719 291.042L361.326 299.322ZM372.068 296.273C377.587 296.273 381.651 297.994 384.743 301.199L391.939 294.256C386.728 288.854 379.943 286.273 372.068 286.273V296.273ZM384.755 301.212C387.86 304.407 389.614 308.792 389.614 314.909H399.614C399.614 306.723 397.186 299.654 391.927 294.243L384.755 301.212ZM389.614 314.909V362H399.614V314.909H389.614ZM394.614 357H369.523V367H394.614V357ZM374.523 362V321.273H364.523V362H374.523ZM374.523 321.273C374.523 317.384 373.53 313.662 370.931 310.757L363.478 317.425C363.97 317.974 364.523 319.04 364.523 321.273H374.523ZM370.959 310.789C368.35 307.822 364.838 306.455 360.977 306.455V316.455C362.328 316.455 362.968 316.844 363.45 317.393L370.959 310.789ZM360.977 306.455C357.127 306.455 353.63 307.838 351.054 310.826L358.628 317.356C359.082 316.829 359.677 316.455 360.977 316.455V306.455ZM351.049 310.831C348.552 313.737 347.614 317.43 347.614 321.273H357.614C357.614 318.994 358.161 317.899 358.632 317.35L351.049 310.831ZM347.614 321.273V362H357.614V321.273H347.614ZM352.614 357H328.614V367H352.614V357ZM333.614 362V321.273H323.614V362H333.614ZM333.614 321.273C333.614 317.384 332.621 313.662 330.022 310.757L322.569 317.425C323.061 317.974 323.614 319.04 323.614 321.273H333.614ZM330.05 310.789C327.441 307.822 323.929 306.455 320.068 306.455V316.455C321.419 316.455 322.059 316.844 322.541 317.393L330.05 310.789ZM320.068 306.455C317.56 306.455 315.11 307.035 312.936 308.414L318.291 316.859C318.602 316.662 319.121 316.455 320.068 316.455V306.455ZM312.936 308.414C310.8 309.768 309.231 311.677 308.178 313.921L317.231 318.17C317.572 317.444 317.942 317.08 318.291 316.859L312.936 308.414ZM308.159 313.962C307.124 316.221 306.705 318.71 306.705 321.273H316.705C316.705 319.775 316.952 318.779 317.25 318.129L308.159 313.962ZM306.705 321.273V362H316.705V321.273H306.705ZM311.705 357H286.614V367H311.705V357ZM414.625 360.909L412.621 365.49L412.645 365.501L412.67 365.511L414.625 360.909ZM406.625 354.182L402.426 356.896L402.426 356.896L406.625 354.182ZM405.67 332.955L410.173 335.13L410.177 335.12L410.182 335.11L405.67 332.955ZM411.125 326.273L414.1 330.291L414.1 330.291L411.125 326.273ZM419.261 322.318L417.863 317.518L417.851 317.521L419.261 322.318ZM429.352 320.545L429.729 325.531L429.739 325.53L429.352 320.545ZM438.761 319.455L439.645 324.376L439.669 324.371L439.694 324.367L438.761 319.455ZM443.943 317.591L446.925 321.605L446.961 321.578L446.997 321.55L443.943 317.591ZM443.443 310L440.588 314.105L440.588 314.105L443.443 310ZM432.216 310.136L435.066 314.244L435.075 314.238L435.083 314.233L432.216 310.136ZM429.534 314.909V319.909H433.879L434.485 315.606L429.534 314.909ZM406.443 314.909L401.456 314.553L401.073 319.909H406.443V314.909ZM410.489 303.182L406.339 300.392L406.334 300.4L410.489 303.182ZM421.08 294.545L423.184 299.081L423.196 299.075L423.209 299.07L421.08 294.545ZM451.898 293.045L450.471 297.838L450.488 297.843L450.505 297.848L451.898 293.045ZM462.034 297.909L459.034 301.909L459.048 301.92L459.062 301.93L462.034 297.909ZM468.398 305.182L463.965 307.495L463.98 307.524L463.995 307.552L468.398 305.182ZM470.625 362V367H475.625V362H470.625ZM447.17 362H442.17V367H447.17V362ZM447.17 352.182H452.17V347.182H447.17V352.182ZM446.625 352.182V347.182H443.629L442.216 349.824L446.625 352.182ZM441.534 358.5L438.403 354.601L438.389 354.613L438.374 354.625L441.534 358.5ZM434.761 362L433.388 357.192L433.38 357.195L433.372 357.197L434.761 362ZM439.989 346.091L437.883 341.556L437.867 341.563L437.852 341.571L439.989 346.091ZM444.125 342.682L440.056 339.776L440.056 339.776L444.125 342.682ZM445.716 331.455H450.716V324.007L443.823 326.827L445.716 331.455ZM443.58 332.227L442.056 327.465L442.027 327.474L441.998 327.484L443.58 332.227ZM441.216 332.909L440.003 328.058L439.982 328.064L439.961 328.069L441.216 332.909ZM438.58 333.5L437.629 328.591L437.614 328.594L437.599 328.597L438.58 333.5ZM435.716 334L434.967 329.056L434.955 329.058L434.944 329.06L435.716 334ZM430.943 335.5L433.353 339.881L433.371 339.871L433.389 339.861L430.943 335.5ZM428.216 338L423.94 335.408L423.928 335.428L423.917 335.447L428.216 338ZM429.398 345.727L432.412 341.738L432.412 341.738L429.398 345.727ZM426.443 358.091C422.53 358.091 419.276 357.453 416.58 356.307L412.67 365.511C416.822 367.275 421.447 368.091 426.443 368.091V358.091ZM416.629 356.328C414.099 355.221 412.21 353.612 410.824 351.467L402.426 356.896C404.919 360.752 408.363 363.627 412.621 365.49L416.629 356.328ZM410.824 351.467C409.542 349.485 408.716 346.683 408.716 342.727H398.716C398.716 348.044 399.829 352.879 402.426 356.896L410.824 351.467ZM408.716 342.727C408.716 339.462 409.274 336.988 410.173 335.13L401.168 330.779C399.46 334.315 398.716 338.356 398.716 342.727H408.716ZM410.182 335.11C411.148 333.089 412.451 331.512 414.1 330.291L408.15 322.254C405.133 324.488 402.799 327.366 401.159 330.799L410.182 335.11ZM414.1 330.291C415.913 328.95 418.083 327.877 420.672 327.115L417.851 317.521C414.258 318.578 411.004 320.141 408.15 322.254L414.1 330.291ZM420.66 327.119C423.413 326.317 426.431 325.781 429.729 325.531L428.975 315.56C425.061 315.856 421.352 316.501 417.863 317.518L420.66 327.119ZM429.739 325.53C433.725 325.222 437.047 324.842 439.645 324.376L437.878 314.533C435.749 314.915 432.798 315.263 428.966 315.56L429.739 325.53ZM439.694 324.367C442.306 323.871 444.94 323.079 446.925 321.605L440.962 313.577C440.962 313.577 440.906 313.618 440.767 313.688C440.63 313.758 440.432 313.845 440.16 313.943C439.609 314.141 438.846 314.349 437.829 314.542L439.694 324.367ZM446.997 321.55C449.278 319.79 450.534 317.255 450.534 314.364H440.534C440.534 314.364 440.534 314.32 440.552 314.24C440.569 314.159 440.601 314.062 440.652 313.96C440.702 313.857 440.759 313.774 440.811 313.713C440.861 313.653 440.894 313.629 440.889 313.632L446.997 321.55ZM450.534 314.364V314.182H440.534V314.364H450.534ZM450.534 314.182C450.534 310.863 449.144 307.875 446.299 305.895L440.588 314.105C440.634 314.137 440.635 314.144 440.613 314.12C440.603 314.108 440.59 314.092 440.576 314.071C440.562 314.051 440.55 314.03 440.539 314.009C440.529 313.988 440.522 313.971 440.519 313.961C440.515 313.95 440.515 313.949 440.517 313.958C440.521 313.977 440.534 314.047 440.534 314.182H450.534ZM446.299 305.895C443.856 304.197 440.992 303.545 438.08 303.545V313.545C439.531 313.545 440.242 313.864 440.588 314.105L446.299 305.895ZM438.08 303.545C434.96 303.545 431.921 304.24 429.349 306.04L435.083 314.233C435.541 313.912 436.411 313.545 438.08 313.545V303.545ZM429.366 306.028C426.507 308.012 425.038 310.983 424.583 314.212L434.485 315.606C434.636 314.533 434.955 314.321 435.066 314.244L429.366 306.028ZM429.534 309.909H406.443V319.909H429.534V309.909ZM411.43 315.265C411.671 311.901 412.727 308.826 414.643 305.963L406.334 300.4C403.462 304.689 401.822 309.433 401.456 314.553L411.43 315.265ZM414.638 305.971C416.469 303.248 419.228 300.917 423.184 299.081L418.975 290.01C413.658 292.477 409.357 295.904 406.339 300.392L414.638 305.971ZM423.209 299.07C426.987 297.292 431.993 296.273 438.443 296.273V286.273C431.015 286.273 424.445 287.436 418.951 290.021L423.209 299.07ZM438.443 296.273C443.057 296.273 447.049 296.819 450.471 297.838L453.324 288.253C448.808 286.909 443.83 286.273 438.443 286.273V296.273ZM450.505 297.848C454 298.861 456.81 300.241 459.034 301.909L465.034 293.909C461.683 291.396 457.735 289.532 453.291 288.243L450.505 297.848ZM459.062 301.93C461.303 303.586 462.896 305.446 463.965 307.495L472.831 302.869C470.99 299.342 468.341 296.353 465.006 293.888L459.062 301.93ZM463.995 307.552C465.074 309.555 465.625 311.737 465.625 314.182H475.625C475.625 310.142 474.691 306.324 472.8 302.811L463.995 307.552ZM465.625 314.182V362H475.625V314.182H465.625ZM470.625 357H447.17V367H470.625V357ZM452.17 362V352.182H442.17V362H452.17ZM447.17 347.182H446.625V357.182H447.17V347.182ZM442.216 349.824C441.092 351.925 439.804 353.477 438.403 354.601L444.665 362.399C447.264 360.311 449.37 357.651 451.034 354.54L442.216 349.824ZM438.374 354.625C436.953 355.784 435.308 356.644 433.388 357.192L436.135 366.808C439.305 365.902 442.176 364.428 444.694 362.375L438.374 354.625ZM433.372 357.197C431.373 357.775 429.076 358.091 426.443 358.091V368.091C429.871 368.091 433.119 367.68 436.15 366.803L433.372 357.197ZM434.625 352.273C437.246 352.273 439.767 351.726 442.126 350.611L437.852 341.571C436.877 342.031 435.822 342.273 434.625 342.273V352.273ZM442.094 350.626C444.555 349.484 446.617 347.795 448.194 345.588L440.056 339.776C439.511 340.539 438.817 341.122 437.883 341.556L442.094 350.626ZM448.194 345.588C449.954 343.123 450.716 340.261 450.716 337.273H440.716C440.716 338.527 440.417 339.271 440.056 339.776L448.194 345.588ZM450.716 337.273V331.455H440.716V337.273H450.716ZM443.823 326.827C443.289 327.045 442.701 327.259 442.056 327.465L445.103 336.989C445.973 336.711 446.809 336.409 447.609 336.082L443.823 326.827ZM441.998 327.484C441.408 327.681 440.744 327.873 440.003 328.058L442.429 337.76C443.384 337.521 444.297 337.259 445.161 336.971L441.998 327.484ZM439.961 328.069C439.256 328.252 438.48 328.427 437.629 328.591L439.53 338.409C440.558 338.21 441.54 337.99 442.471 337.749L439.961 328.069ZM437.599 328.597C436.773 328.762 435.896 328.916 434.967 329.056L436.465 338.944C437.536 338.781 438.568 338.601 439.56 338.403L437.599 328.597ZM434.944 329.06C432.623 329.423 430.414 330.064 428.497 331.139L433.389 339.861C433.957 339.542 434.93 339.183 436.488 338.94L434.944 329.06ZM428.534 331.119C426.695 332.13 425.077 333.532 423.94 335.408L432.492 340.592C432.567 340.468 432.768 340.203 433.353 339.881L428.534 331.119ZM423.917 335.447C422.848 337.247 422.352 339.232 422.352 341.273H432.352C432.352 340.889 432.432 340.692 432.515 340.553L423.917 335.447ZM422.352 341.273C422.352 344.538 423.589 347.605 426.384 349.717L432.412 341.738C432.374 341.71 432.371 341.701 432.382 341.715C432.394 341.73 432.404 341.746 432.407 341.754C432.418 341.777 432.352 341.655 432.352 341.273H422.352ZM426.384 349.717C428.807 351.547 431.683 352.273 434.625 352.273V342.273C433.325 342.273 432.716 341.968 432.412 341.738L426.384 349.717ZM498.25 386.636L500.107 381.994L500.1 381.991L500.092 381.988L498.25 386.636ZM486.659 378.455L482.735 381.553L482.738 381.557L486.659 378.455ZM482.068 366.545V361.545H476.683L477.082 366.916L482.068 366.545ZM506.25 366.545L511.185 365.74L510.5 361.545H506.25V366.545ZM508.068 370.136L504.648 373.784L504.648 373.784L508.068 370.136ZM511.795 372.091L513.119 367.269L513.086 367.26L513.054 367.252L511.795 372.091ZM525.023 370.364L522.068 366.33L522.055 366.34L522.041 366.35L525.023 370.364ZM528.25 350H533.25V345H528.25V350ZM527.523 350V345H524.089L522.856 348.205L527.523 350ZM523.341 356.045L526.625 359.816L526.642 359.801L526.659 359.786L523.341 356.045ZM516.568 359.818L518.1 364.578L518.125 364.57L518.149 364.562L516.568 359.818ZM494.159 357.636L491.734 362.009L491.74 362.012L491.747 362.016L494.159 357.636ZM484.159 346.682L479.682 348.907L479.687 348.918L479.692 348.929L484.159 346.682ZM484.341 306.545L479.869 304.309L479.864 304.32L479.859 304.33L484.341 306.545ZM494.523 294.955L491.992 290.642L491.985 290.646L491.978 290.651L494.523 294.955ZM516.795 293.091L514.687 297.625L514.709 297.635L514.73 297.645L516.795 293.091ZM523.341 297.864L519.585 301.164L519.598 301.178L519.61 301.193L523.341 297.864ZM527.341 304.364L522.674 306.159L523.907 309.364H527.341V304.364ZM527.886 304.364V309.364H532.886V304.364H527.886ZM527.886 292.182V287.182H522.886V292.182H527.886ZM552.977 292.182H557.977V287.182H552.977V292.182ZM548.386 376.864L544.372 373.883L544.36 373.899L544.348 373.916L548.386 376.864ZM535.568 386.364L537.408 391.013L537.408 391.013L535.568 386.364ZM523.068 341.364L526.138 345.31L526.148 345.303L523.068 341.364ZM526.886 335.818L522.205 334.063L522.199 334.079L522.193 334.095L526.886 335.818ZM526.886 318.227L522.172 319.894L522.185 319.929L522.198 319.964L526.886 318.227ZM523.068 312.545L519.91 316.422L519.949 316.453L519.989 316.484L523.068 312.545ZM511.25 312.545L514.4 316.428L514.408 316.422L511.25 312.545ZM507.523 318.227L502.809 316.56L502.803 316.577L502.797 316.594L507.523 318.227ZM507.523 335.909L502.803 337.561L502.816 337.597L502.829 337.632L507.523 335.909ZM511.25 341.409L508.145 345.328L508.185 345.36L508.226 345.391L511.25 341.409ZM516.25 384.636C509.705 384.636 504.368 383.699 500.107 381.994L496.393 391.279C502.132 393.574 508.795 394.636 516.25 394.636V384.636ZM500.092 381.988C495.773 380.276 492.692 378.02 490.58 375.352L482.738 381.557C486.142 385.858 490.787 389.057 496.408 391.285L500.092 381.988ZM490.584 375.356C488.489 372.703 487.316 369.688 487.054 366.175L477.082 366.916C477.487 372.373 479.375 377.297 482.735 381.553L490.584 375.356ZM482.068 371.545H506.25V361.545H482.068V371.545ZM501.315 367.351C501.711 369.774 502.769 372.022 504.648 373.784L511.488 366.489C511.428 366.432 511.274 366.287 511.185 365.74L501.315 367.351ZM504.648 373.784C506.328 375.358 508.357 376.363 510.537 376.93L513.054 367.252C512.203 367.031 511.748 366.732 511.488 366.489L504.648 373.784ZM510.472 376.913C512.522 377.475 514.704 377.727 516.977 377.727V367.727C515.433 367.727 514.16 367.555 513.119 367.269L510.472 376.913ZM516.977 377.727C521.045 377.727 524.841 376.728 528.004 374.377L522.041 366.35C520.962 367.151 519.394 367.727 516.977 367.727V377.727ZM527.977 374.397C531.996 371.454 533.25 366.64 533.25 361.818H523.25C523.25 365.239 522.352 366.122 522.068 366.33L527.977 374.397ZM533.25 361.818V350H523.25V361.818H533.25ZM528.25 345H527.523V355H528.25V345ZM522.856 348.205C522.232 349.828 521.298 351.174 520.023 352.305L526.659 359.786C529.142 357.583 530.996 354.899 532.189 351.795L522.856 348.205ZM520.057 352.275C518.73 353.43 517.069 354.381 514.987 355.075L518.149 364.562C521.34 363.498 524.194 361.933 526.625 359.816L520.057 352.275ZM515.036 355.059C512.958 355.728 510.588 356.091 507.886 356.091V366.091C511.487 366.091 514.906 365.606 518.1 364.578L515.036 355.059ZM507.886 356.091C503.724 356.091 499.983 355.136 496.571 353.257L491.747 362.016C496.699 364.743 502.109 366.091 507.886 366.091V356.091ZM496.585 353.264C493.46 351.531 490.772 348.702 488.626 344.435L479.692 348.929C482.576 354.662 486.556 359.136 491.734 362.009L496.585 353.264ZM488.637 344.457C486.613 340.386 485.432 334.698 485.432 327.091H475.432C475.432 335.606 476.735 342.978 479.682 348.907L488.637 344.457ZM485.432 327.091C485.432 319.126 486.672 313.113 488.823 308.761L479.859 304.33C476.797 310.524 475.432 318.208 475.432 327.091H485.432ZM488.813 308.782C491.115 304.177 493.911 301.125 497.067 299.259L491.978 290.651C486.831 293.694 482.839 298.369 479.869 304.309L488.813 308.782ZM497.054 299.267C500.51 297.238 504.036 296.273 507.705 296.273V286.273C502.161 286.273 496.899 287.762 491.992 290.642L497.054 299.267ZM507.705 296.273C510.575 296.273 512.861 296.775 514.687 297.625L518.904 288.557C515.518 286.982 511.743 286.273 507.705 286.273V296.273ZM514.73 297.645C516.739 298.556 518.33 299.736 519.585 301.164L527.097 294.563C524.837 291.991 522.064 289.99 518.86 288.537L514.73 297.645ZM519.61 301.193C520.983 302.731 521.991 304.382 522.674 306.159L532.008 302.569C530.873 299.618 529.214 296.936 527.072 294.535L519.61 301.193ZM527.341 309.364H527.886V299.364H527.341V309.364ZM532.886 304.364V292.182H522.886V304.364H532.886ZM527.886 297.182H552.977V287.182H527.886V297.182ZM547.977 292.182V361.818H557.977V292.182H547.977ZM547.977 361.818C547.977 366.822 546.699 370.75 544.372 373.883L552.4 379.845C556.195 374.735 557.977 368.632 557.977 361.818H547.977ZM544.348 373.916C541.957 377.192 538.503 379.826 533.729 381.714L537.408 391.013C543.664 388.538 548.756 384.839 552.425 379.812L544.348 373.916ZM533.729 381.714C528.922 383.616 523.131 384.636 516.25 384.636V394.636C524.096 394.636 531.184 393.475 537.408 391.013L533.729 381.714ZM517.159 348.273C520.444 348.273 523.526 347.342 526.138 345.31L519.998 337.417C519.337 337.931 518.481 338.273 517.159 338.273V348.273ZM526.148 345.303C528.687 343.318 530.447 340.629 531.58 337.541L522.193 334.095C521.569 335.795 520.783 336.803 519.989 337.425L526.148 345.303ZM531.568 337.574C532.742 334.444 533.25 330.908 533.25 327.091H523.25C523.25 330.062 522.849 332.344 522.205 334.063L531.568 337.574ZM533.25 327.091C533.25 323.222 532.744 319.647 531.575 316.491L522.198 319.964C522.847 321.716 523.25 324.05 523.25 327.091H533.25ZM531.6 316.56C530.482 313.398 528.729 310.625 526.148 308.606L519.989 316.484C520.74 317.072 521.533 318.087 522.172 319.894L531.6 316.56ZM526.227 308.669C523.615 306.541 520.501 305.545 517.159 305.545V315.545C518.423 315.545 519.249 315.883 519.91 316.422L526.227 308.669ZM517.159 305.545C513.817 305.545 510.703 306.541 508.092 308.669L514.408 316.422C515.069 315.883 515.895 315.545 517.159 315.545V305.545ZM508.1 308.663C505.607 310.685 503.912 313.442 502.809 316.56L512.237 319.894C512.891 318.043 513.681 317.012 514.4 316.428L508.1 308.663ZM502.797 316.594C501.718 319.715 501.25 323.253 501.25 327.091H511.25C511.25 324.02 511.63 321.649 512.248 319.861L502.797 316.594ZM501.25 327.091C501.25 330.926 501.717 334.458 502.803 337.561L512.242 334.257C511.631 332.512 511.25 330.164 511.25 327.091H501.25ZM502.829 337.632C503.948 340.68 505.66 343.359 508.145 345.328L514.355 337.49C513.628 336.914 512.855 335.926 512.216 334.186L502.829 337.632ZM508.226 345.391C510.837 347.373 513.903 348.273 517.159 348.273V338.273C515.809 338.273 514.936 337.93 514.274 337.427L508.226 345.391ZM579.92 359L577.556 363.406L577.571 363.414L577.586 363.421L579.92 359ZM567.511 346.636L563.1 348.991L563.108 349.005L563.116 349.02L567.511 346.636ZM567.557 308.364L571.958 310.737L571.958 310.737L567.557 308.364ZM579.875 295.773L582.337 300.125L582.337 300.125L579.875 295.773ZM612.966 293.727L614.754 289.058L614.754 289.058L612.966 293.727ZM623.92 300.864L620.333 304.347L620.342 304.355L620.35 304.364L623.92 300.864ZM630.92 312.136L626.231 313.871L626.231 313.871L630.92 312.136ZM633.375 332.909V337.909H638.375V332.909H633.375ZM571.011 332.909H566.011V337.909H571.011V332.909ZM571.011 319.091V314.091H566.011V319.091H571.011ZM610.284 319.091V324.091H615.36L615.284 319.015L610.284 319.091ZM608.739 313.818L604.503 316.476L604.534 316.524L604.566 316.572L608.739 313.818ZM604.784 310.227L602.418 314.632L602.467 314.658L602.516 314.683L604.784 310.227ZM593.602 310.227L595.838 314.699L595.87 314.684L595.902 314.667L593.602 310.227ZM589.511 313.773L585.377 310.961L585.357 310.99L585.338 311.019L589.511 313.773ZM587.92 319.091L582.923 318.942L582.92 319.016V319.091H587.92ZM589.33 340L584.92 342.357L584.92 342.357L589.33 340ZM593.375 344.136L590.902 348.482L590.902 348.482L593.375 344.136ZM604.466 344.909L602.885 340.166L602.87 340.171L602.855 340.176L604.466 344.909ZM608.193 342.818L611.501 346.567L611.532 346.54L611.562 346.513L608.193 342.818ZM610.466 339.455V334.455H606.991L605.78 337.711L610.466 339.455ZM633.375 339.455L638.31 340.257L639.253 334.455H633.375V339.455ZM627.784 352.091L631.633 355.282L631.64 355.274L631.647 355.266L627.784 352.091ZM616.102 360.364L617.969 365.002L617.977 364.999L617.984 364.996L616.102 360.364ZM599.193 358.273C592.374 358.273 586.787 356.972 582.255 354.579L577.586 363.421C583.842 366.725 591.103 368.273 599.193 368.273V358.273ZM582.285 354.594C577.783 352.178 574.352 348.761 571.907 344.253L563.116 349.02C566.489 355.239 571.33 360.064 577.556 363.406L582.285 354.594ZM571.922 344.282C569.509 339.761 568.193 334.152 568.193 327.273H558.193C558.193 335.423 559.756 342.724 563.1 348.991L571.922 344.282ZM568.193 327.273C568.193 320.742 569.506 315.283 571.958 310.737L563.156 305.99C559.789 312.232 558.193 319.379 558.193 327.273H568.193ZM571.958 310.737C574.422 306.167 577.859 302.658 582.337 300.125L577.413 291.421C571.285 294.887 566.509 299.772 563.156 305.99L571.958 310.737ZM582.337 300.125C586.762 297.621 592.139 296.273 598.648 296.273V286.273C590.732 286.273 583.594 287.924 577.413 291.421L582.337 300.125ZM598.648 296.273C603.401 296.273 607.556 297.009 611.178 298.397L614.754 289.058C609.831 287.172 604.44 286.273 598.648 286.273V296.273ZM611.178 298.397C614.808 299.787 617.835 301.774 620.333 304.347L627.508 297.381C623.945 293.711 619.67 290.941 614.754 289.058L611.178 298.397ZM620.35 304.364C622.844 306.908 624.817 310.048 626.231 313.871L635.61 310.402C633.751 305.377 631.057 301.001 627.491 297.363L620.35 304.364ZM626.231 313.871C627.629 317.652 628.375 322.036 628.375 327.091H638.375C638.375 321.055 637.484 315.469 635.61 310.402L626.231 313.871ZM628.375 327.091V332.909H638.375V327.091H628.375ZM633.375 327.909H571.011V337.909H633.375V327.909ZM576.011 332.909V319.091H566.011V332.909H576.011ZM571.011 324.091H610.284V314.091H571.011V324.091ZM615.284 319.015C615.24 316.162 614.49 313.455 612.912 311.064L604.566 316.572C604.988 317.212 605.267 318.019 605.285 319.167L615.284 319.015ZM612.974 311.161C611.511 308.829 609.504 307.02 607.053 305.771L602.516 314.683C603.397 315.132 604.027 315.716 604.503 316.476L612.974 311.161ZM607.15 305.822C604.699 304.506 602.004 303.909 599.193 303.909V313.909C600.564 313.909 601.597 314.191 602.418 314.632L607.15 305.822ZM599.193 303.909C596.414 303.909 593.755 304.518 591.303 305.787L595.902 314.667C596.844 314.179 597.912 313.909 599.193 313.909V303.909ZM591.366 305.755C588.933 306.972 586.905 308.714 585.377 310.961L593.646 316.584C594.178 315.801 594.878 315.18 595.838 314.699L591.366 305.755ZM585.338 311.019C583.768 313.398 583.008 316.097 582.923 318.942L592.918 319.24C592.955 318.024 593.255 317.178 593.684 316.527L585.338 311.019ZM582.92 319.091V334H592.92V319.091H582.92ZM582.92 334C582.92 336.96 583.547 339.787 584.92 342.357L593.739 337.643C593.234 336.697 592.92 335.525 592.92 334H582.92ZM584.92 342.357C586.311 344.96 588.337 347.023 590.902 348.482L595.848 339.791C594.898 339.25 594.227 338.555 593.739 337.643L584.92 342.357ZM590.902 348.482C593.568 349.999 596.584 350.636 599.739 350.636V340.636C597.924 340.636 596.697 340.274 595.848 339.791L590.902 348.482ZM599.739 350.636C601.934 350.636 604.064 350.328 606.077 349.642L602.855 340.176C602.02 340.46 600.998 340.636 599.739 340.636V350.636ZM606.047 349.653C608.064 348.98 609.913 347.969 611.501 346.567L604.885 339.069C604.413 339.485 603.777 339.868 602.885 340.166L606.047 349.653ZM611.562 346.513C613.179 345.039 614.389 343.249 615.152 341.198L605.78 337.711C605.573 338.266 605.268 338.719 604.824 339.123L611.562 346.513ZM610.466 344.455H633.375V334.455H610.466V344.455ZM628.44 338.653C627.785 342.685 626.265 346.065 623.922 348.916L631.647 355.266C635.182 350.966 637.39 345.922 638.31 340.257L628.44 338.653ZM623.935 348.9C621.59 351.728 618.41 354.029 614.22 355.731L617.984 364.996C623.492 362.758 628.099 359.545 631.633 355.282L623.935 348.9ZM614.235 355.725C610.135 357.376 605.158 358.273 599.193 358.273V368.273C606.137 368.273 612.433 367.231 617.969 365.002L614.235 355.725ZM689.432 315.455H694.432V310.455H689.432V315.455ZM689.432 334.364V339.364H694.432V334.364H689.432ZM645.795 334.364H640.795V339.364H645.795V334.364ZM645.795 315.455V310.455H640.795V315.455H645.795ZM684.432 315.455V334.364H694.432V315.455H684.432ZM689.432 329.364H645.795V339.364H689.432V329.364ZM650.795 334.364V315.455H640.795V334.364H650.795ZM645.795 320.455H689.432V310.455H645.795V320.455ZM764.455 299.636L759.598 300.827L760.533 304.636H764.455V299.636ZM762.591 295.409L758.462 298.229L758.478 298.253L758.495 298.276L762.591 295.409ZM759.409 292.273L756.522 296.355L756.578 296.395L756.636 296.433L759.409 292.273ZM755.045 290.318L753.707 295.136L753.759 295.15L753.812 295.164L755.045 290.318ZM738.773 292.682L735.97 288.541L735.961 288.548L735.951 288.554L738.773 292.682ZM731.955 301.455L727.333 299.547L727.326 299.563L727.32 299.579L731.955 301.455ZM731.864 329.273L727.194 331.06L727.194 331.06L731.864 329.273ZM738.5 338.182L735.63 342.276L735.63 342.276L738.5 338.182ZM759.045 339.591L757.05 335.006L757.04 335.011L757.03 335.015L759.045 339.591ZM764.818 334.818L760.564 332.191L760.564 332.191L764.818 334.818ZM766.727 327.545L767.245 322.572L761.727 321.998V327.545H766.727ZM771.091 328V333L771.609 323.027L771.091 328ZM749.818 328H744.818V333H749.818V328ZM749.818 310V305H744.818V310H749.818ZM791.091 310H796.091V305H791.091V310ZM785.682 344.682L781.391 342.116L781.387 342.122L785.682 344.682ZM770.864 358.5L773.126 362.959L773.134 362.955L770.864 358.5ZM725.409 357.5L722.96 361.859L722.96 361.859L725.409 357.5ZM709.364 341.045L704.957 343.408L704.961 343.415L704.965 343.423L709.364 341.045ZM707.136 295.182L702.491 293.333L702.487 293.343L702.483 293.354L707.136 295.182ZM716.955 280.136L720.451 283.711L720.458 283.704L720.464 283.698L716.955 280.136ZM731.455 270.818L733.236 275.49L733.247 275.486L733.258 275.482L731.455 270.818ZM764.455 270L762.873 274.743L762.892 274.749L762.91 274.755L764.455 270ZM777.045 276.636L773.942 280.557L773.96 280.571L773.978 280.585L777.045 276.636ZM785.909 286.773L790.246 284.285L790.246 284.285L785.909 286.773ZM790 299.636V304.636H795.546L794.973 299.12L790 299.636ZM769.311 298.445C768.787 296.309 767.93 294.317 766.687 292.542L758.495 298.276C758.949 298.925 759.335 299.752 759.598 300.827L769.311 298.445ZM766.72 292.589C765.504 290.808 763.98 289.311 762.183 288.112L756.636 296.433C757.384 296.932 757.981 297.525 758.462 298.229L766.72 292.589ZM762.296 288.191C760.493 286.915 758.462 286.028 756.279 285.473L753.812 295.164C754.962 295.456 755.84 295.873 756.522 296.355L762.296 288.191ZM756.384 285.501C754.249 284.908 751.988 284.636 749.636 284.636V294.636C751.224 294.636 752.57 294.82 753.707 295.136L756.384 285.501ZM749.636 284.636C744.57 284.636 739.932 285.86 735.97 288.541L741.575 296.823C743.614 295.443 746.218 294.636 749.636 294.636V284.636ZM735.951 288.554C732.064 291.212 729.223 294.966 727.333 299.547L736.576 303.362C737.837 300.306 739.542 298.213 741.595 296.809L735.951 288.554ZM727.32 299.579C725.471 304.146 724.636 309.425 724.636 315.273H734.636C734.636 310.333 735.347 306.399 736.589 303.331L727.32 299.579ZM724.636 315.273C724.636 321.157 725.434 326.463 727.194 331.06L736.533 327.485C735.323 324.325 734.636 320.297 734.636 315.273H724.636ZM727.194 331.06C728.978 335.72 731.752 339.557 735.63 342.276L741.37 334.088C739.37 332.685 737.719 330.583 736.533 327.485L727.194 331.06ZM735.63 342.276C739.577 345.043 744.289 346.273 749.455 346.273V336.273C745.893 336.273 743.301 335.442 741.37 334.088L735.63 342.276ZM749.455 346.273C753.748 346.273 757.686 345.653 761.061 344.167L757.03 335.015C755.314 335.771 752.858 336.273 749.455 336.273V346.273ZM761.041 344.175C764.398 342.714 767.182 340.506 769.072 337.446L760.564 332.191C759.909 333.251 758.845 334.225 757.05 335.006L761.041 344.175ZM769.072 337.446C770.903 334.482 771.727 331.118 771.727 327.545H761.727C761.727 329.548 761.279 331.033 760.564 332.191L769.072 337.446ZM766.209 332.519L770.573 332.973L771.609 323.027L767.245 322.572L766.209 332.519ZM771.091 323H749.818V333H771.091V323ZM754.818 328V310H744.818V328H754.818ZM749.818 315H791.091V305H749.818V315ZM786.091 310V322.909H796.091V310H786.091ZM786.091 322.909C786.091 330.678 784.445 337.008 781.391 342.116L789.973 347.248C794.131 340.295 796.091 332.11 796.091 322.909H786.091ZM781.387 342.122C778.3 347.301 774.068 351.255 768.593 354.045L773.134 362.955C780.266 359.32 785.912 354.062 789.977 347.242L781.387 342.122ZM768.602 354.041C763.131 356.816 756.73 358.273 749.273 358.273V368.273C758.058 368.273 766.051 366.548 773.126 362.959L768.602 354.041ZM749.273 358.273C740.937 358.273 733.851 356.509 727.859 353.141L722.96 361.859C730.664 366.188 739.487 368.273 749.273 368.273V358.273ZM727.859 353.141C721.86 349.77 717.176 344.985 713.762 338.668L704.965 343.423C709.248 351.349 715.261 357.533 722.96 361.859L727.859 353.141ZM713.77 338.683C710.417 332.429 708.636 324.806 708.636 315.636H698.636C698.636 326.103 700.674 335.42 704.957 343.408L713.77 338.683ZM708.636 315.636C708.636 308.439 709.727 302.261 711.79 297.01L702.483 293.354C699.879 299.982 698.636 307.439 698.636 315.636H708.636ZM711.782 297.031C713.912 291.68 716.813 287.269 720.451 283.711L713.458 276.562C708.732 281.185 705.088 286.805 702.491 293.333L711.782 297.031ZM720.464 283.698C724.153 280.062 728.398 277.334 733.236 275.49L729.673 266.146C723.542 268.484 718.12 271.968 713.445 276.575L720.464 283.698ZM733.258 275.482C738.13 273.597 743.393 272.636 749.091 272.636V262.636C742.243 262.636 735.749 263.797 729.651 266.155L733.258 275.482ZM749.091 272.636C754.126 272.636 758.707 273.355 762.873 274.743L766.036 265.257C760.747 263.494 755.087 262.636 749.091 262.636V272.636ZM762.91 274.755C767.147 276.132 770.807 278.075 773.942 280.557L780.149 272.716C776.011 269.441 771.277 266.959 765.999 265.245L762.91 274.755ZM773.978 280.585C777.146 283.046 779.664 285.934 781.572 289.261L790.246 284.285C787.67 279.794 784.278 275.924 780.113 272.688L773.978 280.585ZM781.572 289.261C783.453 292.539 784.611 296.151 785.027 300.153L794.973 299.12C794.419 293.788 792.85 288.824 790.246 284.285L781.572 289.261ZM790 294.636H764.455V304.636H790V294.636ZM817.42 359L815.056 363.406L815.071 363.414L815.086 363.421L817.42 359ZM805.011 346.636L800.6 348.991L800.608 349.005L800.616 349.02L805.011 346.636ZM805.057 308.364L809.458 310.737L809.458 310.737L805.057 308.364ZM817.375 295.773L819.837 300.125L819.837 300.125L817.375 295.773ZM850.466 293.727L852.254 289.058L852.254 289.058L850.466 293.727ZM861.42 300.864L857.833 304.347L857.842 304.355L857.85 304.364L861.42 300.864ZM868.42 312.136L863.731 313.871L863.731 313.871L868.42 312.136ZM870.875 332.909V337.909H875.875V332.909H870.875ZM808.511 332.909H803.511V337.909H808.511V332.909ZM808.511 319.091V314.091H803.511V319.091H808.511ZM847.784 319.091V324.091H852.86L852.784 319.015L847.784 319.091ZM846.239 313.818L842.003 316.476L842.034 316.524L842.066 316.572L846.239 313.818ZM842.284 310.227L839.918 314.632L839.967 314.658L840.016 314.683L842.284 310.227ZM831.102 310.227L833.338 314.699L833.37 314.684L833.402 314.667L831.102 310.227ZM827.011 313.773L822.877 310.961L822.857 310.99L822.838 311.019L827.011 313.773ZM825.42 319.091L820.423 318.942L820.42 319.016V319.091H825.42ZM826.83 340L822.42 342.357L822.42 342.357L826.83 340ZM830.875 344.136L828.402 348.482L828.402 348.482L830.875 344.136ZM841.966 344.909L840.385 340.166L840.37 340.171L840.355 340.176L841.966 344.909ZM845.693 342.818L849.001 346.567L849.032 346.54L849.062 346.513L845.693 342.818ZM847.966 339.455V334.455H844.491L843.28 337.711L847.966 339.455ZM870.875 339.455L875.81 340.257L876.753 334.455H870.875V339.455ZM865.284 352.091L869.133 355.282L869.14 355.274L869.147 355.266L865.284 352.091ZM853.602 360.364L855.469 365.002L855.477 364.999L855.484 364.996L853.602 360.364ZM836.693 358.273C829.874 358.273 824.287 356.972 819.755 354.579L815.086 363.421C821.342 366.725 828.603 368.273 836.693 368.273V358.273ZM819.785 354.594C815.283 352.178 811.852 348.761 809.407 344.253L800.616 349.02C803.989 355.239 808.83 360.064 815.056 363.406L819.785 354.594ZM809.422 344.282C807.009 339.761 805.693 334.152 805.693 327.273H795.693C795.693 335.423 797.256 342.724 800.6 348.991L809.422 344.282ZM805.693 327.273C805.693 320.742 807.006 315.283 809.458 310.737L800.656 305.99C797.289 312.232 795.693 319.379 795.693 327.273H805.693ZM809.458 310.737C811.922 306.167 815.359 302.658 819.837 300.125L814.913 291.421C808.785 294.887 804.009 299.772 800.656 305.99L809.458 310.737ZM819.837 300.125C824.262 297.621 829.639 296.273 836.148 296.273V286.273C828.232 286.273 821.094 287.924 814.913 291.421L819.837 300.125ZM836.148 296.273C840.901 296.273 845.056 297.009 848.678 298.397L852.254 289.058C847.331 287.172 841.94 286.273 836.148 286.273V296.273ZM848.678 298.397C852.308 299.787 855.335 301.774 857.833 304.347L865.008 297.381C861.445 293.711 857.17 290.941 852.254 289.058L848.678 298.397ZM857.85 304.364C860.344 306.908 862.317 310.048 863.731 313.871L873.11 310.402C871.251 305.377 868.557 301.001 864.991 297.363L857.85 304.364ZM863.731 313.871C865.129 317.652 865.875 322.036 865.875 327.091H875.875C875.875 321.055 874.984 315.469 873.11 310.402L863.731 313.871ZM865.875 327.091V332.909H875.875V327.091H865.875ZM870.875 327.909H808.511V337.909H870.875V327.909ZM813.511 332.909V319.091H803.511V332.909H813.511ZM808.511 324.091H847.784V314.091H808.511V324.091ZM852.784 319.015C852.74 316.162 851.99 313.455 850.412 311.064L842.066 316.572C842.488 317.212 842.767 318.019 842.785 319.167L852.784 319.015ZM850.474 311.161C849.011 308.829 847.004 307.02 844.553 305.771L840.016 314.683C840.897 315.132 841.527 315.716 842.003 316.476L850.474 311.161ZM844.65 305.822C842.199 304.506 839.504 303.909 836.693 303.909V313.909C838.064 313.909 839.097 314.191 839.918 314.632L844.65 305.822ZM836.693 303.909C833.914 303.909 831.255 304.518 828.803 305.787L833.402 314.667C834.344 314.179 835.412 313.909 836.693 313.909V303.909ZM828.866 305.755C826.433 306.972 824.405 308.714 822.877 310.961L831.146 316.584C831.678 315.801 832.378 315.18 833.338 314.699L828.866 305.755ZM822.838 311.019C821.268 313.398 820.508 316.097 820.423 318.942L830.418 319.24C830.455 318.024 830.755 317.178 831.184 316.527L822.838 311.019ZM820.42 319.091V334H830.42V319.091H820.42ZM820.42 334C820.42 336.96 821.047 339.787 822.42 342.357L831.239 337.643C830.734 336.697 830.42 335.525 830.42 334H820.42ZM822.42 342.357C823.811 344.96 825.837 347.023 828.402 348.482L833.348 339.791C832.398 339.25 831.727 338.555 831.239 337.643L822.42 342.357ZM828.402 348.482C831.068 349.999 834.084 350.636 837.239 350.636V340.636C835.424 340.636 834.197 340.274 833.348 339.791L828.402 348.482ZM837.239 350.636C839.434 350.636 841.564 350.328 843.577 349.642L840.355 340.176C839.52 340.46 838.498 340.636 837.239 340.636V350.636ZM843.547 349.653C845.564 348.98 847.413 347.969 849.001 346.567L842.385 339.069C841.913 339.485 841.277 339.868 840.385 340.166L843.547 349.653ZM849.062 346.513C850.679 345.039 851.889 343.249 852.652 341.198L843.28 337.711C843.073 338.266 842.768 338.719 842.324 339.123L849.062 346.513ZM847.966 344.455H870.875V334.455H847.966V344.455ZM865.94 338.653C865.285 342.685 863.765 346.065 861.422 348.916L869.147 355.266C872.682 350.966 874.89 345.922 875.81 340.257L865.94 338.653ZM861.435 348.9C859.09 351.728 855.91 354.029 851.72 355.731L855.484 364.996C860.992 362.758 865.599 359.545 869.133 355.282L861.435 348.9ZM851.735 355.725C847.635 357.376 842.658 358.273 836.693 358.273V368.273C843.637 368.273 849.933 367.231 855.469 365.002L851.735 355.725ZM906.205 322.727L901.205 322.661L901.205 322.694V322.727H906.205ZM906.205 362V367H911.205V362H906.205ZM881.114 362H876.114V367H881.114V362ZM881.114 292.182V287.182H876.114V292.182H881.114ZM904.932 292.182H909.932V287.182H904.932V292.182ZM904.932 305.455H899.932V310.455H904.932V305.455ZM905.659 305.455V310.455H909.232L910.389 307.075L905.659 305.455ZM913.659 295.045L910.924 290.86L910.916 290.865L910.909 290.87L913.659 295.045ZM939.977 294.682L937.327 298.922L937.348 298.935L937.369 298.947L939.977 294.682ZM948.477 303.955L944.019 306.218L944.026 306.232L944.033 306.245L948.477 303.955ZM951.477 317.455L946.477 317.425L946.477 317.44V317.455H951.477ZM951.477 362V367H956.477V362H951.477ZM926.386 362H921.386V367H926.386V362ZM926.386 322.727L921.387 322.683L921.386 322.705V322.727H926.386ZM923.75 314.591L920.019 317.92L920.033 317.936L920.048 317.951L923.75 314.591ZM910.977 313L913.486 317.325L913.499 317.317L913.512 317.31L910.977 313ZM907.477 316.818L911.949 319.054L911.958 319.038L911.966 319.022L907.477 316.818ZM901.205 322.727V362H911.205V322.727H901.205ZM906.205 357H881.114V367H906.205V357ZM886.114 362V292.182H876.114V362H886.114ZM881.114 297.182H904.932V287.182H881.114V297.182ZM899.932 292.182V305.455H909.932V292.182H899.932ZM904.932 310.455H905.659V300.455H904.932V310.455ZM910.389 307.075C911.555 303.672 913.539 301.112 916.41 299.221L910.909 290.87C906.143 294.009 902.794 298.389 900.929 303.835L910.389 307.075ZM916.394 299.231C919.339 297.307 922.849 296.273 927.114 296.273V286.273C921.135 286.273 915.676 287.754 910.924 290.86L916.394 299.231ZM927.114 296.273C931.261 296.273 934.6 297.218 937.327 298.922L942.627 290.442C938.081 287.601 932.845 286.273 927.114 286.273V296.273ZM937.369 298.947C940.222 300.693 942.426 303.08 944.019 306.218L952.936 301.691C950.529 296.95 947.066 293.156 942.586 290.416L937.369 298.947ZM944.033 306.245C945.644 309.371 946.504 313.056 946.477 317.425L956.477 317.484C956.512 311.732 955.371 306.417 952.922 301.664L944.033 306.245ZM946.477 317.455V362H956.477V317.455H946.477ZM951.477 357H926.386V367H951.477V357ZM931.386 362V322.727H921.386V362H931.386ZM931.386 322.771C931.424 318.446 930.314 314.383 927.452 311.23L920.048 317.951C920.762 318.738 921.409 320.099 921.387 322.683L931.386 322.771ZM927.481 311.262C924.591 308.023 920.661 306.636 916.386 306.636V316.636C918.415 316.636 919.394 317.219 920.019 317.92L927.481 311.262ZM916.386 306.636C913.569 306.636 910.865 307.265 908.442 308.69L913.512 317.31C914.181 316.917 915.082 316.636 916.386 316.636V306.636ZM908.469 308.675C906.046 310.08 904.215 312.117 902.989 314.615L911.966 319.022C912.376 318.186 912.878 317.678 913.486 317.325L908.469 308.675ZM903.005 314.582C901.774 317.044 901.243 319.794 901.205 322.661L911.204 322.793C911.227 321.054 911.544 319.865 911.949 319.054L903.005 314.582Z" fill="url(#paint4_linear_148_436)" mask="url(#path-5-outside-1_148_436)"/>
<path d="M63.5234 34.8515L56 54.625H64.0948L67.8088 43.9341L63.5234 34.8515Z" fill="white"/>
<path d="M74.4751 54.625L64.8566 34H72.7609L82.3794 54.625H74.4751Z" fill="white"/>
<path d="M79.1073 39.0143L76.917 34H84.5356L87.0116 39.0143H79.1073Z" fill="white"/>
<path d="M86.2498 54.625L79.4883 40.3389H87.4878L94.4398 54.625H86.2498Z" fill="white"/>
<path d="M90.882 39.0143L88.6916 34H101.643L104.024 39.0143H90.882Z" fill="white"/>
<path d="M100.405 54.625L93.8342 40.3389H101.643L108.5 54.625H100.405Z" fill="white"/>
<path d="M140.648 39.3636V35.5455H155.818V39.3636H150.568V53H145.898V39.3636H140.648ZM157.602 53V35.5455H170.181V39.3636H162.34V42.3636H169.533V46.1818H162.34V49.1818H170.147V53H157.602ZM188.827 42.0909H184.02C183.986 41.6932 183.895 41.3324 183.747 41.0085C183.605 40.6847 183.406 40.4062 183.151 40.1733C182.901 39.9347 182.597 39.7528 182.239 39.6278C181.881 39.4972 181.474 39.4318 181.02 39.4318C180.224 39.4318 179.551 39.625 179 40.0114C178.455 40.3977 178.04 40.9517 177.756 41.6733C177.477 42.3949 177.338 43.2614 177.338 44.2727C177.338 45.3409 177.48 46.2358 177.764 46.9574C178.054 47.6733 178.472 48.2131 179.017 48.5767C179.563 48.9347 180.219 49.1136 180.986 49.1136C181.423 49.1136 181.815 49.0597 182.162 48.9517C182.509 48.8381 182.81 48.6761 183.065 48.4659C183.321 48.2557 183.528 48.0028 183.688 47.7074C183.852 47.4062 183.963 47.0682 184.02 46.6932L188.827 46.7273C188.77 47.4659 188.563 48.2187 188.205 48.9858C187.847 49.7472 187.338 50.4517 186.679 51.0994C186.026 51.7415 185.216 52.2585 184.25 52.6506C183.284 53.0426 182.162 53.2386 180.884 53.2386C179.281 53.2386 177.844 52.8949 176.571 52.2074C175.304 51.5199 174.301 50.5085 173.562 49.1733C172.83 47.8381 172.463 46.2045 172.463 44.2727C172.463 42.3295 172.838 40.6932 173.588 39.3636C174.338 38.0284 175.349 37.0199 176.622 36.3381C177.895 35.6506 179.315 35.3068 180.884 35.3068C181.986 35.3068 183 35.4574 183.926 35.7585C184.852 36.0597 185.665 36.5 186.364 37.0795C187.063 37.6534 187.625 38.3608 188.051 39.2017C188.477 40.0426 188.736 41.0057 188.827 42.0909ZM190.977 53V35.5455H195.715V42.3636H201.988V35.5455H206.727V53H201.988V46.1818H195.715V53H190.977ZM224.079 35.5455V53H220.124L213.817 43.8295H213.715V53H208.977V35.5455H212.999L219.204 44.6818H219.34V35.5455H224.079ZM243.229 44.2727C243.229 46.2159 242.852 47.8551 242.096 49.1903C241.34 50.5199 240.32 51.5284 239.036 52.2159C237.752 52.8977 236.32 53.2386 234.741 53.2386C233.15 53.2386 231.712 52.8949 230.428 52.2074C229.15 51.5142 228.133 50.5028 227.377 49.1733C226.627 47.8381 226.252 46.2045 226.252 44.2727C226.252 42.3295 226.627 40.6932 227.377 39.3636C228.133 38.0284 229.15 37.0199 230.428 36.3381C231.712 35.6506 233.15 35.3068 234.741 35.3068C236.32 35.3068 237.752 35.6506 239.036 36.3381C240.32 37.0199 241.34 38.0284 242.096 39.3636C242.852 40.6932 243.229 42.3295 243.229 44.2727ZM238.354 44.2727C238.354 43.2273 238.215 42.3466 237.937 41.6307C237.664 40.9091 237.258 40.3636 236.718 39.9943C236.184 39.6193 235.525 39.4318 234.741 39.4318C233.957 39.4318 233.295 39.6193 232.755 39.9943C232.221 40.3636 231.815 40.9091 231.536 41.6307C231.263 42.3466 231.127 43.2273 231.127 44.2727C231.127 45.3182 231.263 46.2017 231.536 46.9233C231.815 47.6392 232.221 48.1847 232.755 48.5597C233.295 48.929 233.957 49.1136 234.741 49.1136C235.525 49.1136 236.184 48.929 236.718 48.5597C237.258 48.1847 237.664 47.6392 237.937 46.9233C238.215 46.2017 238.354 45.3182 238.354 44.2727ZM254.831 41C254.786 40.4318 254.572 39.9886 254.192 39.6705C253.817 39.3523 253.246 39.1932 252.479 39.1932C251.99 39.1932 251.589 39.2528 251.277 39.3722C250.97 39.4858 250.743 39.642 250.595 39.8409C250.447 40.0398 250.371 40.267 250.365 40.5227C250.354 40.733 250.391 40.9233 250.476 41.0938C250.567 41.2585 250.709 41.4091 250.902 41.5455C251.095 41.6761 251.342 41.7955 251.643 41.9034C251.945 42.0114 252.303 42.108 252.717 42.1932L254.149 42.5C255.115 42.7045 255.942 42.9744 256.629 43.3097C257.317 43.6449 257.879 44.0398 258.317 44.4943C258.754 44.9432 259.075 45.4489 259.28 46.0114C259.49 46.5739 259.598 47.1875 259.604 47.8523C259.598 49 259.311 49.9716 258.743 50.767C258.175 51.5625 257.362 52.1676 256.305 52.5824C255.254 52.9972 253.99 53.2045 252.513 53.2045C250.996 53.2045 249.672 52.9801 248.541 52.5312C247.416 52.0824 246.541 51.392 245.916 50.4602C245.297 49.5227 244.984 48.3239 244.979 46.8636H249.479C249.507 47.3977 249.641 47.8466 249.879 48.2102C250.118 48.5739 250.453 48.8494 250.885 49.0369C251.322 49.2244 251.842 49.3182 252.445 49.3182C252.95 49.3182 253.374 49.2557 253.714 49.1307C254.055 49.0057 254.314 48.8324 254.49 48.6108C254.666 48.3892 254.757 48.1364 254.763 47.8523C254.757 47.5852 254.669 47.3523 254.499 47.1534C254.334 46.9489 254.061 46.767 253.68 46.608C253.3 46.4432 252.786 46.2898 252.138 46.1477L250.399 45.7727C248.854 45.4375 247.635 44.8778 246.743 44.0938C245.857 43.304 245.416 42.2273 245.422 40.8636C245.416 39.7557 245.712 38.7869 246.308 37.9574C246.911 37.1222 247.743 36.4716 248.805 36.0057C249.874 35.5398 251.098 35.3068 252.479 35.3068C253.888 35.3068 255.107 35.5426 256.135 36.0142C257.163 36.4858 257.956 37.1506 258.513 38.0085C259.075 38.8608 259.359 39.858 259.365 41H254.831ZM261.406 53V35.5455H268.94C270.236 35.5455 271.369 35.8011 272.341 36.3125C273.313 36.8239 274.068 37.5426 274.608 38.4688C275.148 39.3949 275.418 40.4773 275.418 41.7159C275.418 42.9659 275.139 44.0483 274.582 44.9631C274.031 45.8778 273.256 46.5824 272.256 47.0767C271.261 47.571 270.099 47.8182 268.77 47.8182H264.27V44.1364H267.815C268.372 44.1364 268.847 44.0398 269.239 43.8466C269.636 43.6477 269.94 43.3665 270.151 43.0028C270.366 42.6392 270.474 42.2102 270.474 41.7159C270.474 41.2159 270.366 40.7898 270.151 40.4375C269.94 40.0795 269.636 39.8068 269.239 39.6193C268.847 39.4261 268.372 39.3295 267.815 39.3295H266.145V53H261.406ZM279.511 53H274.397L280.158 35.5455H286.636L292.397 53H287.283L283.465 40.3523H283.329L279.511 53ZM278.556 46.1136H288.17V49.6591H278.556V46.1136ZM294.078 53V35.5455H301.612C302.908 35.5455 304.041 35.7812 305.013 36.2528C305.984 36.7244 306.74 37.4034 307.28 38.2898C307.82 39.1761 308.089 40.2386 308.089 41.4773C308.089 42.7273 307.811 43.7812 307.254 44.6392C306.703 45.4972 305.928 46.1449 304.928 46.5824C303.933 47.0199 302.771 47.2386 301.442 47.2386H296.942V43.5568H300.487C301.044 43.5568 301.518 43.4886 301.911 43.3523C302.308 43.2102 302.612 42.9858 302.822 42.679C303.038 42.3722 303.146 41.9716 303.146 41.4773C303.146 40.9773 303.038 40.571 302.822 40.2585C302.612 39.9403 302.308 39.7074 301.911 39.5597C301.518 39.4062 301.044 39.3295 300.487 39.3295H298.817V53H294.078ZM304.305 44.9886L308.669 53H303.521L299.26 44.9886H304.305ZM315.189 35.5455L318.053 40.625H318.189L321.087 35.5455H326.371L321.155 44.2727L326.575 53H321.155L318.189 47.8182H318.053L315.087 53H309.7L315.053 44.2727L309.871 35.5455H315.189Z" fill="white"/>
<g opacity="0.4">
<path fill-rule="evenodd" clip-rule="evenodd" d="M205 460.864C205 449.341 195.659 440 184.136 440H72.8636C61.341 440 52 449.341 52 460.864V572.136C52 583.659 61.341 593 72.8636 593H184.136C195.659 593 205 583.659 205 572.136V460.864ZM191.091 460.864C191.091 457.023 187.977 453.909 184.136 453.909H72.8636C69.0228 453.909 65.9091 457.023 65.9091 460.864V572.136C65.9091 575.977 69.0228 579.091 72.8636 579.091H184.136C187.977 579.091 191.091 575.977 191.091 572.136V460.864Z" fill="url(#paint5_linear_148_436)"/>
<path d="M78.4738 554.897L108.486 499.875C111.122 495.042 118.061 495.042 120.697 499.875L142.733 540.275L150.28 527.067C152.95 522.395 159.687 522.395 162.356 527.067L178.191 554.777C180.84 559.413 177.492 565.182 172.153 565.182H84.5791C79.3002 565.182 75.9459 559.531 78.4738 554.897Z" fill="url(#paint6_linear_148_436)"/>
<path d="M170.227 488.682C170.227 496.364 164 502.591 156.318 502.591C148.636 502.591 142.409 496.364 142.409 488.682C142.409 481 148.636 474.773 156.318 474.773C164 474.773 170.227 481 170.227 488.682Z" fill="url(#paint7_linear_148_436)"/>
</g>
<g opacity="0.46">
<path fill-rule="evenodd" clip-rule="evenodd" d="M1095.44 102.327L1108.34 115.232L1121.14 102.429L1108.24 89.524L1095.44 102.327ZM1108.24 70.167L1140.5 102.429L1037.26 205.666L1005 173.404L1108.24 70.167Z" fill="url(#paint8_linear_148_436)"/>
<path fill-rule="evenodd" clip-rule="evenodd" d="M1061.7 60.1785L1045.57 76.3094L1035.89 66.6309L1052.02 50.5L1061.7 60.1785ZM1019.76 76.3093L1003.62 60.1786L1013.3 50.5L1029.43 66.6308L1019.76 76.3093ZM1052.02 108.571L1035.89 92.4403L1045.57 82.7618L1061.7 98.8926L1052.02 108.571ZM1029.43 92.4403L1013.3 108.571L1003.62 98.8926L1019.76 82.7618L1029.43 92.4403Z" fill="url(#paint9_linear_148_436)"/>
</g>
</g>
<defs>
<linearGradient id="paint0_linear_148_436" x1="-63.757" y1="-34.0073" x2="-63.757" y2="347.166" gradientUnits="userSpaceOnUse">
<stop stop-color="#FF9E0B"/>
<stop offset="1" stop-color="#EC4899"/>
</linearGradient>
<linearGradient id="paint1_linear_148_436" x1="1173" y1="695.827" x2="1173" y2="969.442" gradientUnits="userSpaceOnUse">
<stop stop-color="#FF9E0B"/>
<stop offset="1" stop-color="#F24E52"/>
</linearGradient>
<linearGradient id="paint2_linear_148_436" x1="882.5" y1="530" x2="882.5" y2="919" gradientUnits="userSpaceOnUse">
<stop stop-color="#FF9E0B"/>
<stop offset="1" stop-color="#9C67E7"/>
</linearGradient>
<linearGradient id="paint3_linear_148_436" x1="491" y1="30" x2="491" y2="162" gradientUnits="userSpaceOnUse">
<stop stop-color="#FF9E0B"/>
<stop offset="1" stop-color="#DA46EB"/>
</linearGradient>
<linearGradient id="paint4_linear_148_436" x1="600.5" y1="238" x2="600.5" y2="393" gradientUnits="userSpaceOnUse">
<stop stop-color="#FF9E0B"/>
<stop offset="0.49" stop-color="#F24E52"/>
</linearGradient>
<linearGradient id="paint5_linear_148_436" x1="128.5" y1="440" x2="128.5" y2="593" gradientUnits="userSpaceOnUse">
<stop stop-color="#F24E52"/>
<stop offset="1" stop-color="#4A74F4"/>
</linearGradient>
<linearGradient id="paint6_linear_148_436" x1="128.366" y1="496.25" x2="128.366" y2="565.182" gradientUnits="userSpaceOnUse">
<stop stop-color="#F24E52"/>
<stop offset="1" stop-color="#4A74F4"/>
</linearGradient>
<linearGradient id="paint7_linear_148_436" x1="156.318" y1="474.773" x2="156.318" y2="502.591" gradientUnits="userSpaceOnUse">
<stop stop-color="#F24E52"/>
<stop offset="1" stop-color="#4A74F4"/>
</linearGradient>
<linearGradient id="paint8_linear_148_436" x1="1072.75" y1="70.167" x2="1072.75" y2="205.666" gradientUnits="userSpaceOnUse">
<stop stop-color="#F24E52"/>
<stop offset="1" stop-color="#FF9E0B"/>
</linearGradient>
<linearGradient id="paint9_linear_148_436" x1="1032.66" y1="50.5" x2="1032.66" y2="108.571" gradientUnits="userSpaceOnUse">
<stop stop-color="#F24E52"/>
<stop offset="1" stop-color="#FF9E0B"/>
</linearGradient>
<clipPath id="clip0_148_436">
<rect width="1200" height="630" fill="white"/>
</clipPath>
</defs>
</svg>
