<svg width="1200" height="630" viewBox="0 0 1200 630" fill="none" xmlns="http://www.w3.org/2000/svg">
<g clip-path="url(#clip0_130_52)">
<rect width="1200" height="630" fill="black"/>
<rect x="-427.809" y="-32.4841" width="729.486" height="376.173" transform="rotate(-19.4848 -427.809 -32.4841)" stroke="url(#paint0_linear_130_52)" stroke-width="5"/>
<rect x="883" y="695.827" width="580" height="273.616" transform="rotate(-35.26 883 695.827)" fill="url(#paint1_linear_130_52)"/>
<circle cx="882.5" cy="724.5" r="193" stroke="url(#paint2_linear_130_52)" stroke-width="3"/>
<path opacity="0.49" d="M415 58.3636C414.121 58.3636 413.367 58.0568 412.739 57.4432C412.117 56.822 411.811 56.0682 411.818 55.1818C411.811 54.3182 412.117 53.5795 412.739 52.9659C413.367 52.3523 414.121 52.0455 415 52.0455C415.833 52.0455 416.568 52.3523 417.205 52.9659C417.848 53.5795 418.174 54.3182 418.182 55.1818C418.174 55.7727 418.019 56.3106 417.716 56.7955C417.42 57.2727 417.034 57.6553 416.557 57.9432C416.08 58.2235 415.561 58.3636 415 58.3636ZM459.003 58.3636C458.124 58.3636 457.37 58.0568 456.741 57.4432C456.12 56.822 455.813 56.0682 455.821 55.1818C455.813 54.3182 456.12 53.5795 456.741 52.9659C457.37 52.3523 458.124 52.0455 459.003 52.0455C459.836 52.0455 460.571 52.3523 461.207 52.9659C461.851 53.5795 462.177 54.3182 462.184 55.1818C462.177 55.7727 462.021 56.3106 461.718 56.7955C461.423 57.2727 461.037 57.6553 460.559 57.9432C460.082 58.2235 459.563 58.3636 459.003 58.3636ZM503.005 58.3636C502.126 58.3636 501.372 58.0568 500.744 57.4432C500.122 56.822 499.816 56.0682 499.823 55.1818C499.816 54.3182 500.122 53.5795 500.744 52.9659C501.372 52.3523 502.126 52.0455 503.005 52.0455C503.838 52.0455 504.573 52.3523 505.21 52.9659C505.853 53.5795 506.179 54.3182 506.187 55.1818C506.179 55.7727 506.024 56.3106 505.721 56.7955C505.425 57.2727 505.039 57.6553 504.562 57.9432C504.085 58.2235 503.566 58.3636 503.005 58.3636ZM547.008 58.3636C546.129 58.3636 545.375 58.0568 544.746 57.4432C544.125 56.822 543.818 56.0682 543.826 55.1818C543.818 54.3182 544.125 53.5795 544.746 52.9659C545.375 52.3523 546.129 52.0455 547.008 52.0455C547.841 52.0455 548.576 52.3523 549.212 52.9659C549.856 53.5795 550.182 54.3182 550.189 55.1818C550.182 55.7727 550.026 56.3106 549.723 56.7955C549.428 57.2727 549.042 57.6553 548.564 57.9432C548.087 58.2235 547.568 58.3636 547.008 58.3636ZM415 91.3636C414.121 91.3636 413.367 91.0568 412.739 90.4432C412.117 89.822 411.811 89.0682 411.818 88.1818C411.811 87.3182 412.117 86.5795 412.739 85.9659C413.367 85.3523 414.121 85.0455 415 85.0455C415.833 85.0455 416.568 85.3523 417.205 85.9659C417.848 86.5795 418.174 87.3182 418.182 88.1818C418.174 88.7727 418.019 89.3106 417.716 89.7955C417.42 90.2727 417.034 90.6553 416.557 90.9432C416.08 91.2235 415.561 91.3636 415 91.3636ZM459.003 91.3636C458.124 91.3636 457.37 91.0568 456.741 90.4432C456.12 89.822 455.813 89.0682 455.821 88.1818C455.813 87.3182 456.12 86.5795 456.741 85.9659C457.37 85.3523 458.124 85.0455 459.003 85.0455C459.836 85.0455 460.571 85.3523 461.207 85.9659C461.851 86.5795 462.177 87.3182 462.184 88.1818C462.177 88.7727 462.021 89.3106 461.718 89.7955C461.423 90.2727 461.037 90.6553 460.559 90.9432C460.082 91.2235 459.563 91.3636 459.003 91.3636ZM503.005 91.3636C502.126 91.3636 501.372 91.0568 500.744 90.4432C500.122 89.822 499.816 89.0682 499.823 88.1818C499.816 87.3182 500.122 86.5795 500.744 85.9659C501.372 85.3523 502.126 85.0455 503.005 85.0455C503.838 85.0455 504.573 85.3523 505.21 85.9659C505.853 86.5795 506.179 87.3182 506.187 88.1818C506.179 88.7727 506.024 89.3106 505.721 89.7955C505.425 90.2727 505.039 90.6553 504.562 90.9432C504.085 91.2235 503.566 91.3636 503.005 91.3636ZM547.008 91.3636C546.129 91.3636 545.375 91.0568 544.746 90.4432C544.125 89.822 543.818 89.0682 543.826 88.1818C543.818 87.3182 544.125 86.5795 544.746 85.9659C545.375 85.3523 546.129 85.0455 547.008 85.0455C547.841 85.0455 548.576 85.3523 549.212 85.9659C549.856 86.5795 550.182 87.3182 550.189 88.1818C550.182 88.7727 550.026 89.3106 549.723 89.7955C549.428 90.2727 549.042 90.6553 548.564 90.9432C548.087 91.2235 547.568 91.3636 547.008 91.3636ZM415 124.364C414.121 124.364 413.367 124.057 412.739 123.443C412.117 122.822 411.811 122.068 411.818 121.182C411.811 120.318 412.117 119.58 412.739 118.966C413.367 118.352 414.121 118.045 415 118.045C415.833 118.045 416.568 118.352 417.205 118.966C417.848 119.58 418.174 120.318 418.182 121.182C418.174 121.773 418.019 122.311 417.716 122.795C417.42 123.273 417.034 123.655 416.557 123.943C416.08 124.223 415.561 124.364 415 124.364ZM459.003 124.364C458.124 124.364 457.37 124.057 456.741 123.443C456.12 122.822 455.813 122.068 455.821 121.182C455.813 120.318 456.12 119.58 456.741 118.966C457.37 118.352 458.124 118.045 459.003 118.045C459.836 118.045 460.571 118.352 461.207 118.966C461.851 119.58 462.177 120.318 462.184 121.182C462.177 121.773 462.021 122.311 461.718 122.795C461.423 123.273 461.037 123.655 460.559 123.943C460.082 124.223 459.563 124.364 459.003 124.364ZM503.005 124.364C502.126 124.364 501.372 124.057 500.744 123.443C500.122 122.822 499.816 122.068 499.823 121.182C499.816 120.318 500.122 119.58 500.744 118.966C501.372 118.352 502.126 118.045 503.005 118.045C503.838 118.045 504.573 118.352 505.21 118.966C505.853 119.58 506.179 120.318 506.187 121.182C506.179 121.773 506.024 122.311 505.721 122.795C505.425 123.273 505.039 123.655 504.562 123.943C504.085 124.223 503.566 124.364 503.005 124.364ZM547.008 124.364C546.129 124.364 545.375 124.057 544.746 123.443C544.125 122.822 543.818 122.068 543.826 121.182C543.818 120.318 544.125 119.58 544.746 118.966C545.375 118.352 546.129 118.045 547.008 118.045C547.841 118.045 548.576 118.352 549.212 118.966C549.856 119.58 550.182 120.318 550.189 121.182C550.182 121.773 550.026 122.311 549.723 122.795C549.428 123.273 549.042 123.655 548.564 123.943C548.087 124.223 547.568 124.364 547.008 124.364ZM415 157.364C414.121 157.364 413.367 157.057 412.739 156.443C412.117 155.822 411.811 155.068 411.818 154.182C411.811 153.318 412.117 152.58 412.739 151.966C413.367 151.352 414.121 151.045 415 151.045C415.833 151.045 416.568 151.352 417.205 151.966C417.848 152.58 418.174 153.318 418.182 154.182C418.174 154.773 418.019 155.311 417.716 155.795C417.42 156.273 417.034 156.655 416.557 156.943C416.08 157.223 415.561 157.364 415 157.364ZM459.003 157.364C458.124 157.364 457.37 157.057 456.741 156.443C456.12 155.822 455.813 155.068 455.821 154.182C455.813 153.318 456.12 152.58 456.741 151.966C457.37 151.352 458.124 151.045 459.003 151.045C459.836 151.045 460.571 151.352 461.207 151.966C461.851 152.58 462.177 153.318 462.184 154.182C462.177 154.773 462.021 155.311 461.718 155.795C461.423 156.273 461.037 156.655 460.559 156.943C460.082 157.223 459.563 157.364 459.003 157.364ZM503.005 157.364C502.126 157.364 501.372 157.057 500.744 156.443C500.122 155.822 499.816 155.068 499.823 154.182C499.816 153.318 500.122 152.58 500.744 151.966C501.372 151.352 502.126 151.045 503.005 151.045C503.838 151.045 504.573 151.352 505.21 151.966C505.853 152.58 506.179 153.318 506.187 154.182C506.179 154.773 506.024 155.311 505.721 155.795C505.425 156.273 505.039 156.655 504.562 156.943C504.085 157.223 503.566 157.364 503.005 157.364ZM547.008 157.364C546.129 157.364 545.375 157.057 544.746 156.443C544.125 155.822 543.818 155.068 543.826 154.182C543.818 153.318 544.125 152.58 544.746 151.966C545.375 151.352 546.129 151.045 547.008 151.045C547.841 151.045 548.576 151.352 549.212 151.966C549.856 152.58 550.182 153.318 550.189 154.182C550.182 154.773 550.026 155.311 549.723 155.795C549.428 156.273 549.042 156.655 548.564 156.943C548.087 157.223 547.568 157.364 547.008 157.364Z" fill="url(#paint3_linear_130_52)"/>
<mask id="path-5-outside-1_130_52" maskUnits="userSpaceOnUse" x="79" y="276" width="1044" height="78" fill="black">
<rect fill="white" x="79" y="276" width="1044" height="78"/>
<path d="M84.2188 348V282.545H101.989V333.682H128.452V348H84.2188ZM153.405 282.545V348H135.635V282.545H153.405ZM204.333 304.151C204.056 303.021 203.619 302.031 203.023 301.178C202.426 300.305 201.681 299.57 200.786 298.973C199.912 298.355 198.889 297.897 197.718 297.599C196.567 297.279 195.299 297.119 193.914 297.119C190.931 297.119 188.385 297.833 186.276 299.261C184.188 300.688 182.59 302.744 181.482 305.429C180.395 308.114 179.852 311.352 179.852 315.145C179.852 318.98 180.374 322.261 181.418 324.989C182.462 327.716 184.017 329.804 186.084 331.253C188.151 332.702 190.718 333.426 193.786 333.426C196.492 333.426 198.74 333.032 200.53 332.244C202.341 331.455 203.694 330.337 204.589 328.888C205.484 327.439 205.931 325.734 205.931 323.774L208.999 324.094H194.042V311.438H223.062V320.514C223.062 326.48 221.794 331.583 219.259 335.823C216.744 340.042 213.271 343.281 208.84 345.539C204.429 347.776 199.369 348.895 193.659 348.895C187.288 348.895 181.695 347.542 176.879 344.836C172.064 342.13 168.303 338.273 165.597 333.266C162.913 328.259 161.57 322.304 161.57 315.401C161.57 309.989 162.391 305.195 164.031 301.018C165.693 296.842 167.994 293.316 170.935 290.44C173.875 287.542 177.274 285.358 181.13 283.888C184.987 282.396 189.12 281.651 193.531 281.651C197.409 281.651 201.009 282.205 204.333 283.312C207.678 284.399 210.629 285.955 213.186 287.979C215.764 289.982 217.842 292.357 219.419 295.106C220.995 297.854 221.954 300.869 222.295 304.151H204.333ZM231.348 348V282.545H249.118V308.114H272.64V282.545H290.41V348H272.64V322.432H249.118V348H231.348ZM297.058 296.864V282.545H353.947V296.864H334.26V348H316.745V296.864H297.058ZM417.268 282.545V348H402.439L378.788 313.611H378.405V348H360.635V282.545H375.72L398.987 316.807H399.498V282.545H417.268ZM443.444 282.545V348H425.674V282.545H443.444ZM508.499 282.545V348H493.669L470.019 313.611H469.635V348H451.865V282.545H466.95L490.218 316.807H490.729V282.545H508.499ZM559.411 304.151C559.134 303.021 558.698 302.031 558.101 301.178C557.504 300.305 556.759 299.57 555.864 298.973C554.99 298.355 553.968 297.897 552.796 297.599C551.645 297.279 550.377 297.119 548.992 297.119C546.009 297.119 543.463 297.833 541.354 299.261C539.266 300.688 537.668 302.744 536.56 305.429C535.473 308.114 534.93 311.352 534.93 315.145C534.93 318.98 535.452 322.261 536.496 324.989C537.54 327.716 539.095 329.804 541.162 331.253C543.229 332.702 545.796 333.426 548.865 333.426C551.57 333.426 553.818 333.032 555.608 332.244C557.419 331.455 558.772 330.337 559.667 328.888C560.562 327.439 561.009 325.734 561.009 323.774L564.078 324.094H549.12V311.438H578.14V320.514C578.14 326.48 576.872 331.583 574.337 335.823C571.823 340.042 568.35 343.281 563.918 345.539C559.507 347.776 554.447 348.895 548.737 348.895C542.366 348.895 536.773 347.542 531.958 344.836C527.142 342.13 523.382 338.273 520.676 333.266C517.991 328.259 516.649 322.304 516.649 315.401C516.649 309.989 517.469 305.195 519.11 301.018C520.771 296.842 523.073 293.316 526.013 290.44C528.953 287.542 532.352 285.358 536.208 283.888C540.065 282.396 544.198 281.651 548.609 281.651C552.487 281.651 556.088 282.205 559.411 283.312C562.757 284.399 565.708 285.955 568.264 287.979C570.843 289.982 572.92 292.357 574.497 295.106C576.073 297.854 577.032 300.869 577.373 304.151H559.411ZM604.355 348V282.545H632.608C637.466 282.545 641.717 283.43 645.36 285.198C649.004 286.967 651.838 289.513 653.862 292.837C655.886 296.161 656.898 300.145 656.898 304.79C656.898 309.477 655.854 313.43 653.766 316.647C651.699 319.864 648.791 322.293 645.041 323.934C641.312 325.575 636.955 326.395 631.969 326.395H615.094V312.588H628.39C630.478 312.588 632.257 312.332 633.727 311.821C635.218 311.288 636.358 310.447 637.147 309.296C637.956 308.146 638.361 306.643 638.361 304.79C638.361 302.915 637.956 301.391 637.147 300.219C636.358 299.026 635.218 298.153 633.727 297.599C632.257 297.023 630.478 296.736 628.39 296.736H622.125V348H604.355ZM642.708 317.957L659.071 348H639.767L623.787 317.957H642.708ZM664.473 348V282.545H711.646V296.864H682.243V308.114H709.217V322.432H682.243V333.682H711.518V348H664.473ZM720.459 348V282.545H738.229V333.682H764.692V348H720.459ZM788.878 348H769.702L791.307 282.545H815.597L837.202 348H818.026L803.707 300.571H803.196L788.878 348ZM785.298 322.176H821.349V335.472H785.298V322.176ZM834.142 282.545H853.957L866.741 309.136H867.252L880.036 282.545H899.852L875.818 327.418V348H858.176V327.418L834.142 282.545ZM938.116 308.625V321.92H907.434V308.625H938.116ZM948.359 348V282.545H995.533V296.864H966.129V308.114H993.104V322.432H966.129V333.682H995.405V348H948.359ZM1004.35 348V282.545H1032.6C1037.46 282.545 1041.71 283.43 1045.35 285.198C1048.99 286.967 1051.83 289.513 1053.85 292.837C1055.88 296.161 1056.89 300.145 1056.89 304.79C1056.89 309.477 1055.84 313.43 1053.76 316.647C1051.69 319.864 1048.78 322.293 1045.03 323.934C1041.3 325.575 1036.95 326.395 1031.96 326.395H1015.08V312.588H1028.38C1030.47 312.588 1032.25 312.332 1033.72 311.821C1035.21 311.288 1036.35 310.447 1037.14 309.296C1037.95 308.146 1038.35 306.643 1038.35 304.79C1038.35 302.915 1037.95 301.391 1037.14 300.219C1036.35 299.026 1035.21 298.153 1033.72 297.599C1032.25 297.023 1030.47 296.736 1028.38 296.736H1022.12V348H1004.35ZM1042.7 317.957L1059.06 348H1039.76L1023.78 317.957H1042.7ZM1099.75 303C1099.58 300.869 1098.78 299.207 1097.35 298.014C1095.94 296.821 1093.8 296.224 1090.93 296.224C1089.09 296.224 1087.59 296.448 1086.42 296.896C1085.27 297.322 1084.42 297.908 1083.86 298.653C1083.31 299.399 1083.02 300.251 1083 301.21C1082.96 301.999 1083.1 302.712 1083.42 303.352C1083.76 303.969 1084.29 304.534 1085.01 305.045C1085.74 305.536 1086.66 305.983 1087.79 306.388C1088.92 306.793 1090.27 307.155 1091.82 307.474L1097.19 308.625C1100.81 309.392 1103.91 310.404 1106.49 311.661C1109.07 312.918 1111.18 314.399 1112.82 316.104C1114.46 317.787 1115.66 319.683 1116.43 321.793C1117.22 323.902 1117.62 326.203 1117.64 328.696C1117.62 333 1116.55 336.643 1114.42 339.626C1112.29 342.609 1109.24 344.879 1105.28 346.434C1101.33 347.989 1096.59 348.767 1091.05 348.767C1085.36 348.767 1080.4 347.925 1076.16 346.242C1071.94 344.559 1068.66 341.97 1066.32 338.476C1063.99 334.96 1062.82 330.464 1062.8 324.989H1079.68C1079.78 326.991 1080.28 328.675 1081.18 330.038C1082.07 331.402 1083.33 332.435 1084.95 333.138C1086.59 333.842 1088.54 334.193 1090.8 334.193C1092.69 334.193 1094.28 333.959 1095.56 333.49C1096.84 333.021 1097.81 332.371 1098.47 331.54C1099.13 330.71 1099.47 329.761 1099.49 328.696C1099.47 327.695 1099.14 326.821 1098.5 326.075C1097.88 325.308 1096.86 324.626 1095.43 324.03C1094 323.412 1092.08 322.837 1089.65 322.304L1083.13 320.898C1077.33 319.641 1072.76 317.542 1069.42 314.602C1066.09 311.64 1064.44 307.602 1064.46 302.489C1064.44 298.334 1065.55 294.701 1067.79 291.59C1070.05 288.458 1073.17 286.018 1077.15 284.271C1081.16 282.524 1085.75 281.651 1090.93 281.651C1096.21 281.651 1100.78 282.535 1104.64 284.303C1108.49 286.072 1111.47 288.565 1113.55 291.782C1115.66 294.978 1116.73 298.717 1116.75 303H1099.75Z"/>
</mask>
<path d="M84.2188 348H79.2188V353H84.2188V348ZM84.2188 282.545V277.545H79.2188V282.545H84.2188ZM101.989 282.545H106.989V277.545H101.989V282.545ZM101.989 333.682H96.9886V338.682H101.989V333.682ZM128.452 333.682H133.452V328.682H128.452V333.682ZM128.452 348V353H133.452V348H128.452ZM89.2188 348V282.545H79.2188V348H89.2188ZM84.2188 287.545H101.989V277.545H84.2188V287.545ZM96.9886 282.545V333.682H106.989V282.545H96.9886ZM101.989 338.682H128.452V328.682H101.989V338.682ZM123.452 333.682V348H133.452V333.682H123.452ZM128.452 343H84.2188V353H128.452V343ZM153.405 282.545H158.405V277.545H153.405V282.545ZM153.405 348V353H158.405V348H153.405ZM135.635 348H130.635V353H135.635V348ZM135.635 282.545V277.545H130.635V282.545H135.635ZM148.405 282.545V348H158.405V282.545H148.405ZM153.405 343H135.635V353H153.405V343ZM140.635 348V282.545H130.635V348H140.635ZM135.635 287.545H153.405V277.545H135.635V287.545ZM204.333 304.151L199.477 305.342L200.411 309.151H204.333V304.151ZM203.023 301.178L198.894 303.998L198.91 304.022L198.927 304.046L203.023 301.178ZM200.786 298.973L197.898 303.055L197.955 303.095L198.012 303.133L200.786 298.973ZM197.718 297.599L196.379 302.416L196.432 302.431L196.484 302.444L197.718 297.599ZM186.276 299.261L183.473 295.12L183.464 295.126L183.454 295.133L186.276 299.261ZM181.482 305.429L176.86 303.522L176.853 303.537L176.847 303.553L181.482 305.429ZM181.418 324.989L176.748 326.776V326.776L181.418 324.989ZM186.084 331.253L183.214 335.347H183.214L186.084 331.253ZM200.53 332.244L198.534 327.659L198.524 327.663L198.514 327.668L200.53 332.244ZM204.589 328.888L200.335 326.26L204.589 328.888ZM205.931 323.774L206.449 318.801L200.931 318.226V323.774H205.931ZM208.999 324.094V329.094L209.518 319.121L208.999 324.094ZM194.042 324.094H189.042V329.094H194.042V324.094ZM194.042 311.438V306.438H189.042V311.438H194.042ZM223.062 311.438H228.062V306.438H223.062V311.438ZM219.259 335.823L214.967 333.257L214.964 333.263L219.259 335.823ZM208.84 345.539L211.102 349.998L211.11 349.994L208.84 345.539ZM176.879 344.836L174.43 349.195L176.879 344.836ZM165.597 333.266L161.191 335.629L161.195 335.636L161.199 335.644L165.597 333.266ZM164.031 301.018L159.386 299.17L159.382 299.18L159.378 299.19L164.031 301.018ZM170.935 290.44L174.431 294.014L174.438 294.007L174.444 294.001L170.935 290.44ZM181.13 283.888L182.911 288.56L182.922 288.556L182.934 288.551L181.13 283.888ZM204.333 283.312L202.752 288.056L202.77 288.062L202.789 288.068L204.333 283.312ZM213.186 287.979L210.083 291.899L210.101 291.913L210.119 291.927L213.186 287.979ZM219.419 295.106L223.756 292.618L223.756 292.618L219.419 295.106ZM222.295 304.151V309.151H227.841L227.268 303.634L222.295 304.151ZM209.189 302.959C208.782 301.3 208.11 299.726 207.119 298.311L198.927 304.046C199.129 304.335 199.33 304.743 199.477 305.342L209.189 302.959ZM207.152 298.358C206.188 296.946 204.979 295.759 203.559 294.813L198.012 303.133C198.383 303.38 198.665 303.663 198.894 303.998L207.152 298.358ZM203.673 294.891C202.239 293.876 200.64 293.183 198.951 292.753L196.484 302.444C197.139 302.611 197.585 302.834 197.898 303.055L203.673 294.891ZM199.056 292.781C197.406 292.323 195.681 292.119 193.914 292.119V302.119C194.917 302.119 195.727 302.235 196.379 302.416L199.056 292.781ZM193.914 292.119C190.107 292.119 186.544 293.042 183.473 295.12L189.078 303.401C190.226 302.625 191.755 302.119 193.914 302.119V292.119ZM183.454 295.133C180.448 297.188 178.283 300.074 176.86 303.522L186.104 307.336C186.897 305.414 187.927 304.189 189.098 303.388L183.454 295.133ZM176.847 303.553C175.457 306.987 174.852 310.898 174.852 315.145H184.852C184.852 311.806 185.333 309.24 186.116 307.305L176.847 303.553ZM174.852 315.145C174.852 319.41 175.429 323.331 176.748 326.776L186.087 323.201C185.318 321.192 184.852 318.55 184.852 315.145H174.852ZM176.748 326.776C178.091 330.284 180.208 333.24 183.214 335.347L188.954 327.159C187.826 326.368 186.832 325.147 186.087 323.201L176.748 326.776ZM183.214 335.347C186.289 337.503 189.916 338.426 193.786 338.426V328.426C191.52 328.426 190.013 327.901 188.954 327.159L183.214 335.347ZM193.786 338.426C196.937 338.426 199.927 337.973 202.546 336.819L198.514 327.668C197.554 328.091 196.048 328.426 193.786 328.426V338.426ZM202.526 336.828C205.117 335.7 207.33 333.964 208.843 331.515L200.335 326.26C200.058 326.709 199.565 327.211 198.534 327.659L202.526 336.828ZM208.843 331.515C210.296 329.163 210.931 326.519 210.931 323.774H200.931C200.931 324.949 200.672 325.715 200.335 326.26L208.843 331.515ZM205.413 328.747L208.481 329.067L209.518 319.121L206.449 318.801L205.413 328.747ZM208.999 319.094H194.042V329.094H208.999V319.094ZM199.042 324.094V311.438H189.042V324.094H199.042ZM194.042 316.438H223.062V306.438H194.042V316.438ZM218.062 311.438V320.514H228.062V311.438H218.062ZM218.062 320.514C218.062 325.764 216.951 329.939 214.967 333.257L223.55 338.389C226.637 333.227 228.062 327.196 228.062 320.514H218.062ZM214.964 333.263C212.939 336.661 210.172 339.248 206.569 341.084L211.11 349.994C216.37 347.313 220.55 343.423 223.554 338.383L214.964 333.263ZM206.578 341.08C202.969 342.91 198.705 343.895 193.659 343.895V353.895C200.033 353.895 205.889 352.642 211.102 349.998L206.578 341.08ZM193.659 343.895C188.013 343.895 183.288 342.702 179.329 340.477L174.43 349.195C180.101 352.382 186.563 353.895 193.659 353.895V343.895ZM179.329 340.477C175.364 338.249 172.267 335.091 169.996 330.889L161.199 335.644C164.34 341.456 168.765 346.011 174.43 349.195L179.329 340.477ZM170.004 330.904C167.784 326.764 166.57 321.655 166.57 315.401H156.57C156.57 322.953 158.041 329.755 161.191 335.629L170.004 330.904ZM166.57 315.401C166.57 310.489 167.315 306.334 168.685 302.847L159.378 299.19C157.466 304.055 156.57 309.489 156.57 315.401H166.57ZM168.677 302.867C170.105 299.279 172.035 296.358 174.431 294.014L167.438 286.865C163.954 290.274 161.282 294.405 159.386 299.17L168.677 302.867ZM174.444 294.001C176.892 291.589 179.702 289.783 182.911 288.56L179.349 279.216C174.846 280.933 170.859 283.495 167.425 286.878L174.444 294.001ZM182.934 288.551C186.177 287.297 189.696 286.651 193.531 286.651V276.651C188.545 276.651 183.796 277.496 179.327 279.224L182.934 288.551ZM193.531 286.651C196.928 286.651 199.989 287.135 202.752 288.056L205.914 278.569C202.029 277.274 197.889 276.651 193.531 276.651V286.651ZM202.789 288.068C205.613 288.985 208.027 290.272 210.083 291.899L216.29 284.058C213.232 281.638 209.744 279.813 205.878 278.557L202.789 288.068ZM210.119 291.927C212.199 293.543 213.839 295.427 215.081 297.594L223.756 292.618C221.845 289.287 219.33 286.42 216.254 284.03L210.119 291.927ZM215.081 297.594C216.297 299.712 217.05 302.051 217.322 304.667L227.268 303.634C226.858 299.688 225.694 295.997 223.756 292.618L215.081 297.594ZM222.295 299.151H204.333V309.151H222.295V299.151ZM231.348 348H226.348V353H231.348V348ZM231.348 282.545V277.545H226.348V282.545H231.348ZM249.118 282.545H254.118V277.545H249.118V282.545ZM249.118 308.114H244.118V313.114H249.118V308.114ZM272.64 308.114V313.114H277.64V308.114H272.64ZM272.64 282.545V277.545H267.64V282.545H272.64ZM290.41 282.545H295.41V277.545H290.41V282.545ZM290.41 348V353H295.41V348H290.41ZM272.64 348H267.64V353H272.64V348ZM272.64 322.432H277.64V317.432H272.64V322.432ZM249.118 322.432V317.432H244.118V322.432H249.118ZM249.118 348V353H254.118V348H249.118ZM236.348 348V282.545H226.348V348H236.348ZM231.348 287.545H249.118V277.545H231.348V287.545ZM244.118 282.545V308.114H254.118V282.545H244.118ZM249.118 313.114H272.64V303.114H249.118V313.114ZM277.64 308.114V282.545H267.64V308.114H277.64ZM272.64 287.545H290.41V277.545H272.64V287.545ZM285.41 282.545V348H295.41V282.545H285.41ZM290.41 343H272.64V353H290.41V343ZM277.64 348V322.432H267.64V348H277.64ZM272.64 317.432H249.118V327.432H272.64V317.432ZM244.118 322.432V348H254.118V322.432H244.118ZM249.118 343H231.348V353H249.118V343ZM297.058 296.864H292.058V301.864H297.058V296.864ZM297.058 282.545V277.545H292.058V282.545H297.058ZM353.947 282.545H358.947V277.545H353.947V282.545ZM353.947 296.864V301.864H358.947V296.864H353.947ZM334.26 296.864V291.864H329.26V296.864H334.26ZM334.26 348V353H339.26V348H334.26ZM316.745 348H311.745V353H316.745V348ZM316.745 296.864H321.745V291.864H316.745V296.864ZM302.058 296.864V282.545H292.058V296.864H302.058ZM297.058 287.545H353.947V277.545H297.058V287.545ZM348.947 282.545V296.864H358.947V282.545H348.947ZM353.947 291.864H334.26V301.864H353.947V291.864ZM329.26 296.864V348H339.26V296.864H329.26ZM334.26 343H316.745V353H334.26V343ZM321.745 348V296.864H311.745V348H321.745ZM316.745 291.864H297.058V301.864H316.745V291.864ZM417.268 282.545H422.268V277.545H417.268V282.545ZM417.268 348V353H422.268V348H417.268ZM402.439 348L398.319 350.833L399.809 353H402.439V348ZM378.788 313.611L382.908 310.778L381.418 308.611H378.788V313.611ZM378.405 313.611V308.611H373.405V313.611H378.405ZM378.405 348V353H383.405V348H378.405ZM360.635 348H355.635V353H360.635V348ZM360.635 282.545V277.545H355.635V282.545H360.635ZM375.72 282.545L379.856 279.736L378.368 277.545H375.72V282.545ZM398.987 316.807L394.851 319.616L396.339 321.807H398.987V316.807ZM399.498 316.807V321.807H404.498V316.807H399.498ZM399.498 282.545V277.545H394.498V282.545H399.498ZM412.268 282.545V348H422.268V282.545H412.268ZM417.268 343H402.439V353H417.268V343ZM406.559 345.167L382.908 310.778L374.668 316.444L398.319 350.833L406.559 345.167ZM378.788 308.611H378.405V318.611H378.788V308.611ZM373.405 313.611V348H383.405V313.611H373.405ZM378.405 343H360.635V353H378.405V343ZM365.635 348V282.545H355.635V348H365.635ZM360.635 287.545H375.72V277.545H360.635V287.545ZM371.584 285.354L394.851 319.616L403.123 313.998L379.856 279.736L371.584 285.354ZM398.987 321.807H399.498V311.807H398.987V321.807ZM404.498 316.807V282.545H394.498V316.807H404.498ZM399.498 287.545H417.268V277.545H399.498V287.545ZM443.444 282.545H448.444V277.545H443.444V282.545ZM443.444 348V353H448.444V348H443.444ZM425.674 348H420.674V353H425.674V348ZM425.674 282.545V277.545H420.674V282.545H425.674ZM438.444 282.545V348H448.444V282.545H438.444ZM443.444 343H425.674V353H443.444V343ZM430.674 348V282.545H420.674V348H430.674ZM425.674 287.545H443.444V277.545H425.674V287.545ZM508.499 282.545H513.499V277.545H508.499V282.545ZM508.499 348V353H513.499V348H508.499ZM493.669 348L489.549 350.833L491.04 353H493.669V348ZM470.019 313.611L474.138 310.778L472.648 308.611H470.019V313.611ZM469.635 313.611V308.611H464.635V313.611H469.635ZM469.635 348V353H474.635V348H469.635ZM451.865 348H446.865V353H451.865V348ZM451.865 282.545V277.545H446.865V282.545H451.865ZM466.95 282.545L471.087 279.736L469.599 277.545H466.95V282.545ZM490.217 316.807L486.081 319.616L487.569 321.807H490.217V316.807ZM490.729 316.807V321.807H495.729V316.807H490.729ZM490.729 282.545V277.545H485.729V282.545H490.729ZM503.499 282.545V348H513.499V282.545H503.499ZM508.499 343H493.669V353H508.499V343ZM497.789 345.167L474.138 310.778L465.899 316.444L489.549 350.833L497.789 345.167ZM470.019 308.611H469.635V318.611H470.019V308.611ZM464.635 313.611V348H474.635V313.611H464.635ZM469.635 343H451.865V353H469.635V343ZM456.865 348V282.545H446.865V348H456.865ZM451.865 287.545H466.95V277.545H451.865V287.545ZM462.814 285.354L486.081 319.616L494.354 313.998L471.087 279.736L462.814 285.354ZM490.217 321.807H490.729V311.807H490.217V321.807ZM495.729 316.807V282.545H485.729V316.807H495.729ZM490.729 287.545H508.499V277.545H490.729V287.545ZM559.411 304.151L554.555 305.342L555.49 309.151H559.411V304.151ZM558.101 301.178L553.972 303.998L553.988 304.022L554.005 304.046L558.101 301.178ZM555.864 298.973L552.977 303.055L553.033 303.095L553.09 303.133L555.864 298.973ZM552.796 297.599L551.457 302.416L551.51 302.431L551.562 302.444L552.796 297.599ZM541.354 299.261L538.551 295.12L538.542 295.126L538.532 295.133L541.354 299.261ZM536.56 305.429L531.938 303.522L531.931 303.537L531.925 303.553L536.56 305.429ZM536.496 324.989L531.826 326.776V326.776L536.496 324.989ZM541.162 331.253L538.292 335.347L541.162 331.253ZM555.608 332.244L553.613 327.659L553.603 327.663L553.593 327.668L555.608 332.244ZM559.667 328.888L555.413 326.26L559.667 328.888ZM561.009 323.774L561.527 318.801L556.009 318.226V323.774H561.009ZM564.078 324.094V329.094L564.596 319.121L564.078 324.094ZM549.12 324.094H544.12V329.094H549.12V324.094ZM549.12 311.438V306.438H544.12V311.438H549.12ZM578.14 311.438H583.14V306.438H578.14V311.438ZM574.337 335.823L570.046 333.257L570.042 333.263L574.337 335.823ZM563.918 345.539L566.18 349.998L566.188 349.994L563.918 345.539ZM531.958 344.836L529.508 349.195L531.958 344.836ZM520.676 333.266L516.269 335.629L516.273 335.636L516.277 335.644L520.676 333.266ZM519.11 301.018L514.464 299.17L514.46 299.18L514.456 299.19L519.11 301.018ZM526.013 290.44L529.509 294.014L529.516 294.007L529.523 294.001L526.013 290.44ZM536.208 283.888L537.989 288.56L538.001 288.556L538.012 288.551L536.208 283.888ZM559.411 283.312L557.83 288.056L557.848 288.062L557.867 288.068L559.411 283.312ZM568.264 287.979L565.161 291.899L565.179 291.913L565.197 291.927L568.264 287.979ZM574.497 295.106L578.834 292.618V292.618L574.497 295.106ZM577.373 304.151V309.151H582.919L582.346 303.634L577.373 304.151ZM564.267 302.959C563.86 301.3 563.188 299.726 562.197 298.311L554.005 304.046C554.207 304.335 554.408 304.743 554.555 305.342L564.267 302.959ZM562.23 298.358C561.266 296.946 560.057 295.759 558.637 294.813L553.09 303.133C553.461 303.38 553.743 303.663 553.972 303.998L562.23 298.358ZM558.751 294.891C557.317 293.876 555.718 293.183 554.029 292.753L551.562 302.444C552.217 302.611 552.664 302.834 552.977 303.055L558.751 294.891ZM554.134 292.781C552.485 292.323 550.759 292.119 548.992 292.119V302.119C549.995 302.119 550.806 302.235 551.457 302.416L554.134 292.781ZM548.992 292.119C545.186 292.119 541.622 293.042 538.551 295.12L544.156 303.401C545.304 302.625 546.833 302.119 548.992 302.119V292.119ZM538.532 295.133C535.527 297.188 533.361 300.074 531.938 303.522L541.182 307.336C541.975 305.414 543.005 304.189 544.176 303.388L538.532 295.133ZM531.925 303.553C530.535 306.987 529.93 310.898 529.93 315.145H539.93C539.93 311.806 540.411 309.24 541.195 307.305L531.925 303.553ZM529.93 315.145C529.93 319.41 530.507 323.331 531.826 326.776L541.165 323.201C540.396 321.192 539.93 318.55 539.93 315.145H529.93ZM531.826 326.776C533.169 330.284 535.286 333.24 538.292 335.347L544.032 327.159C542.904 326.368 541.911 325.147 541.165 323.201L531.826 326.776ZM538.292 335.347C541.367 337.503 544.994 338.426 548.865 338.426V328.426C546.598 328.426 545.091 327.901 544.032 327.159L538.292 335.347ZM548.865 338.426C552.015 338.426 555.005 337.973 557.624 336.819L553.593 327.668C552.632 328.091 551.126 328.426 548.865 328.426V338.426ZM557.604 336.828C560.196 335.7 562.409 333.964 563.921 331.515L555.413 326.26C555.136 326.709 554.643 327.211 553.613 327.659L557.604 336.828ZM563.921 331.515C565.374 329.163 566.009 326.519 566.009 323.774H556.009C556.009 324.949 555.75 325.715 555.413 326.26L563.921 331.515ZM560.491 328.747L563.56 329.067L564.596 319.121L561.527 318.801L560.491 328.747ZM564.078 319.094H549.12V329.094H564.078V319.094ZM554.12 324.094V311.438H544.12V324.094H554.12ZM549.12 316.438H578.14V306.438H549.12V316.438ZM573.14 311.438V320.514H583.14V311.438H573.14ZM573.14 320.514C573.14 325.764 572.029 329.939 570.046 333.257L578.628 338.389C581.715 333.227 583.14 327.196 583.14 320.514H573.14ZM570.042 333.263C568.017 336.661 565.251 339.248 561.648 341.084L566.188 349.994C571.449 347.313 575.628 343.423 578.632 338.383L570.042 333.263ZM561.656 341.08C558.048 342.91 553.783 343.895 548.737 343.895V353.895C555.111 353.895 560.967 352.642 566.18 349.998L561.656 341.08ZM548.737 343.895C543.091 343.895 538.366 342.702 534.407 340.477L529.508 349.195C535.179 352.382 541.641 353.895 548.737 353.895V343.895ZM534.407 340.477C530.442 338.249 527.345 335.091 525.074 330.889L516.277 335.644C519.418 341.456 523.843 346.011 529.508 349.195L534.407 340.477ZM525.082 330.904C522.862 326.764 521.649 321.655 521.649 315.401H511.649C511.649 322.953 513.119 329.755 516.269 335.629L525.082 330.904ZM521.649 315.401C521.649 310.489 522.393 306.334 523.763 302.847L514.456 299.19C512.545 304.055 511.649 309.489 511.649 315.401H521.649ZM523.755 302.867C525.183 299.279 527.113 296.358 529.509 294.014L522.516 286.865C519.032 290.274 516.36 294.405 514.464 299.17L523.755 302.867ZM529.523 294.001C531.97 291.589 534.78 289.783 537.989 288.56L534.427 279.216C529.924 280.933 525.937 283.495 522.503 286.878L529.523 294.001ZM538.012 288.551C541.256 287.297 544.774 286.651 548.609 286.651V276.651C543.623 276.651 538.874 277.496 534.405 279.224L538.012 288.551ZM548.609 286.651C552.006 286.651 555.068 287.135 557.83 288.056L560.993 278.569C557.107 277.274 552.967 276.651 548.609 276.651V286.651ZM557.867 288.068C560.691 288.985 563.105 290.272 565.161 291.899L571.368 284.058C568.31 281.638 564.822 279.813 560.956 278.557L557.867 288.068ZM565.197 291.927C567.277 293.543 568.917 295.427 570.16 297.594L578.834 292.618C576.923 289.287 574.408 286.42 571.332 284.03L565.197 291.927ZM570.16 297.594C571.375 299.712 572.128 302.051 572.4 304.667L582.346 303.634C581.936 299.688 580.772 295.997 578.834 292.618L570.16 297.594ZM577.373 299.151H559.411V309.151H577.373V299.151ZM604.355 348H599.355V353H604.355V348ZM604.355 282.545V277.545H599.355V282.545H604.355ZM653.862 292.837L658.132 290.236L653.862 292.837ZM653.766 316.647L649.572 313.925L649.565 313.935L649.559 313.945L653.766 316.647ZM645.041 323.934L643.037 319.353L643.027 319.357L645.041 323.934ZM615.094 326.395H610.094V331.395H615.094V326.395ZM615.094 312.588V307.588H610.094V312.588H615.094ZM633.727 311.821L635.37 316.544L635.389 316.537L635.409 316.53L633.727 311.821ZM637.147 309.296L633.058 306.419L633.04 306.444L633.022 306.47L637.147 309.296ZM637.147 300.219L632.975 302.976L633.004 303.019L633.033 303.062L637.147 300.219ZM633.727 297.599L631.905 302.255L631.945 302.271L631.986 302.286L633.727 297.599ZM622.125 296.736V291.736H617.125V296.736H622.125ZM622.125 348V353H627.125V348H622.125ZM642.708 317.957L647.099 315.566L645.678 312.957H642.708V317.957ZM659.071 348V353H667.488L663.462 345.608L659.071 348ZM639.767 348L635.353 350.348L636.764 353H639.767V348ZM623.787 317.957V312.957H615.464L619.373 320.305L623.787 317.957ZM609.355 348V282.545H599.355V348H609.355ZM604.355 287.545H632.608V277.545H604.355V287.545ZM632.608 287.545C636.859 287.545 640.337 288.318 643.177 289.696L647.544 280.7C643.097 278.542 638.074 277.545 632.608 277.545V287.545ZM643.177 289.696C645.994 291.064 648.087 292.968 649.591 295.437L658.132 290.236C655.588 286.058 652.014 282.87 647.544 280.7L643.177 289.696ZM649.591 295.437C651.053 297.838 651.898 300.883 651.898 304.79H661.898C661.898 299.406 660.719 294.483 658.132 290.236L649.591 295.437ZM651.898 304.79C651.898 308.727 651.028 311.682 649.572 313.925L657.96 319.369C660.681 315.177 661.898 310.227 661.898 304.79H651.898ZM649.559 313.945C648.063 316.273 645.95 318.079 643.037 319.353L647.045 328.515C651.632 326.508 655.335 323.456 657.973 319.349L649.559 313.945ZM643.027 319.357C640.058 320.664 636.413 321.395 631.969 321.395V331.395C637.497 331.395 642.566 330.486 647.055 328.511L643.027 319.357ZM631.969 321.395H615.094V331.395H631.969V321.395ZM620.094 326.395V312.588H610.094V326.395H620.094ZM615.094 317.588H628.39V307.588H615.094V317.588ZM628.39 317.588C630.858 317.588 633.225 317.289 635.37 316.544L632.084 307.099C631.288 307.375 630.097 307.588 628.39 307.588V317.588ZM635.409 316.53C637.752 315.693 639.808 314.257 641.271 312.122L633.022 306.47C632.908 306.636 632.684 306.884 632.045 307.112L635.409 316.53ZM641.236 312.174C642.801 309.95 643.361 307.35 643.361 304.79H633.361C633.361 305.937 633.112 306.341 633.058 306.419L641.236 312.174ZM643.361 304.79C643.361 302.217 642.805 299.612 641.26 297.377L633.033 303.062C633.108 303.17 633.361 303.613 633.361 304.79H643.361ZM641.318 297.463C639.88 295.286 637.837 293.791 635.468 292.912L631.986 302.286C632.6 302.514 632.837 302.767 632.975 302.976L641.318 297.463ZM635.549 292.943C633.344 292.08 630.911 291.736 628.39 291.736V301.736C630.044 301.736 631.169 301.967 631.905 302.255L635.549 292.943ZM628.39 291.736H622.125V301.736H628.39V291.736ZM617.125 296.736V348H627.125V296.736H617.125ZM622.125 343H604.355V353H622.125V343ZM638.317 320.349L654.68 350.392L663.462 345.608L647.099 315.566L638.317 320.349ZM659.071 343H639.767V353H659.071V343ZM644.182 345.652L628.202 315.609L619.373 320.305L635.353 350.348L644.182 345.652ZM623.787 322.957H642.708V312.957H623.787V322.957ZM664.473 348H659.473V353H664.473V348ZM664.473 282.545V277.545H659.473V282.545H664.473ZM711.646 282.545H716.646V277.545H711.646V282.545ZM711.646 296.864V301.864H716.646V296.864H711.646ZM682.243 296.864V291.864H677.243V296.864H682.243ZM682.243 308.114H677.243V313.114H682.243V308.114ZM709.217 308.114H714.217V303.114H709.217V308.114ZM709.217 322.432V327.432H714.217V322.432H709.217ZM682.243 322.432V317.432H677.243V322.432H682.243ZM682.243 333.682H677.243V338.682H682.243V333.682ZM711.518 333.682H716.518V328.682H711.518V333.682ZM711.518 348V353H716.518V348H711.518ZM669.473 348V282.545H659.473V348H669.473ZM664.473 287.545H711.646V277.545H664.473V287.545ZM706.646 282.545V296.864H716.646V282.545H706.646ZM711.646 291.864H682.243V301.864H711.646V291.864ZM677.243 296.864V308.114H687.243V296.864H677.243ZM682.243 313.114H709.217V303.114H682.243V313.114ZM704.217 308.114V322.432H714.217V308.114H704.217ZM709.217 317.432H682.243V327.432H709.217V317.432ZM677.243 322.432V333.682H687.243V322.432H677.243ZM682.243 338.682H711.518V328.682H682.243V338.682ZM706.518 333.682V348H716.518V333.682H706.518ZM711.518 343H664.473V353H711.518V343ZM720.459 348H715.459V353H720.459V348ZM720.459 282.545V277.545H715.459V282.545H720.459ZM738.229 282.545H743.229V277.545H738.229V282.545ZM738.229 333.682H733.229V338.682H738.229V333.682ZM764.692 333.682H769.692V328.682H764.692V333.682ZM764.692 348V353H769.692V348H764.692ZM725.459 348V282.545H715.459V348H725.459ZM720.459 287.545H738.229V277.545H720.459V287.545ZM733.229 282.545V333.682H743.229V282.545H733.229ZM738.229 338.682H764.692V328.682H738.229V338.682ZM759.692 333.682V348H769.692V333.682H759.692ZM764.692 343H720.459V353H764.692V343ZM788.878 348V353H792.591L793.664 349.445L788.878 348ZM769.702 348L764.954 346.433L762.786 353H769.702V348ZM791.307 282.545V277.545H787.692L786.559 280.978L791.307 282.545ZM815.597 282.545L820.345 280.978L819.212 277.545H815.597V282.545ZM837.202 348V353H844.117L841.95 346.433L837.202 348ZM818.026 348L813.239 349.445L814.312 353H818.026V348ZM803.707 300.571L808.494 299.126L807.421 295.571H803.707V300.571ZM803.196 300.571V295.571H799.483L798.409 299.126L803.196 300.571ZM785.298 322.176V317.176H780.298V322.176H785.298ZM821.349 322.176H826.349V317.176H821.349V322.176ZM821.349 335.472V340.472H826.349V335.472H821.349ZM785.298 335.472H780.298V340.472H785.298V335.472ZM788.878 343H769.702V353H788.878V343ZM774.45 349.567L796.055 284.113L786.559 280.978L764.954 346.433L774.45 349.567ZM791.307 287.545H815.597V277.545H791.307V287.545ZM810.849 284.113L832.454 349.567L841.95 346.433L820.345 280.978L810.849 284.113ZM837.202 343H818.026V353H837.202V343ZM822.812 346.555L808.494 299.126L798.921 302.016L813.239 349.445L822.812 346.555ZM803.707 295.571H803.196V305.571H803.707V295.571ZM798.409 299.126L784.091 346.555L793.664 349.445L807.983 302.016L798.409 299.126ZM785.298 327.176H821.349V317.176H785.298V327.176ZM816.349 322.176V335.472H826.349V322.176H816.349ZM821.349 330.472H785.298V340.472H821.349V330.472ZM790.298 335.472V322.176H780.298V335.472H790.298ZM834.142 282.545V277.545H825.791L829.734 284.906L834.142 282.545ZM853.957 282.545L858.463 280.379L857.101 277.545H853.957V282.545ZM866.741 309.136L862.235 311.303L863.597 314.136H866.741V309.136ZM867.252 309.136V314.136H870.396L871.759 311.303L867.252 309.136ZM880.036 282.545V277.545H876.892L875.53 280.379L880.036 282.545ZM899.852 282.545L904.259 284.906L908.202 277.545H899.852V282.545ZM875.818 327.418L871.41 325.057L870.818 326.163V327.418H875.818ZM875.818 348V353H880.818V348H875.818ZM858.176 348H853.176V353H858.176V348ZM858.176 327.418H863.176V326.163L862.583 325.057L858.176 327.418ZM834.142 287.545H853.957V277.545H834.142V287.545ZM849.451 284.712L862.235 311.303L871.247 306.97L858.463 280.379L849.451 284.712ZM866.741 314.136H867.252V304.136H866.741V314.136ZM871.759 311.303L884.543 284.712L875.53 280.379L862.746 306.97L871.759 311.303ZM880.036 287.545H899.852V277.545H880.036V287.545ZM895.444 280.185L871.41 325.057L880.225 329.778L904.259 284.906L895.444 280.185ZM870.818 327.418V348H880.818V327.418H870.818ZM875.818 343H858.176V353H875.818V343ZM863.176 348V327.418H853.176V348H863.176ZM862.583 325.057L838.549 280.185L829.734 284.906L853.768 329.778L862.583 325.057ZM938.116 308.625H943.116V303.625H938.116V308.625ZM938.116 321.92V326.92H943.116V321.92H938.116ZM907.434 321.92H902.434V326.92H907.434V321.92ZM907.434 308.625V303.625H902.434V308.625H907.434ZM933.116 308.625V321.92H943.116V308.625H933.116ZM938.116 316.92H907.434V326.92H938.116V316.92ZM912.434 321.92V308.625H902.434V321.92H912.434ZM907.434 313.625H938.116V303.625H907.434V313.625ZM948.359 348H943.359V353H948.359V348ZM948.359 282.545V277.545H943.359V282.545H948.359ZM995.533 282.545H1000.53V277.545H995.533V282.545ZM995.533 296.864V301.864H1000.53V296.864H995.533ZM966.129 296.864V291.864H961.129V296.864H966.129ZM966.129 308.114H961.129V313.114H966.129V308.114ZM993.104 308.114H998.104V303.114H993.104V308.114ZM993.104 322.432V327.432H998.104V322.432H993.104ZM966.129 322.432V317.432H961.129V322.432H966.129ZM966.129 333.682H961.129V338.682H966.129V333.682ZM995.405 333.682H1000.4V328.682H995.405V333.682ZM995.405 348V353H1000.4V348H995.405ZM953.359 348V282.545H943.359V348H953.359ZM948.359 287.545H995.533V277.545H948.359V287.545ZM990.533 282.545V296.864H1000.53V282.545H990.533ZM995.533 291.864H966.129V301.864H995.533V291.864ZM961.129 296.864V308.114H971.129V296.864H961.129ZM966.129 313.114H993.104V303.114H966.129V313.114ZM988.104 308.114V322.432H998.104V308.114H988.104ZM993.104 317.432H966.129V327.432H993.104V317.432ZM961.129 322.432V333.682H971.129V322.432H961.129ZM966.129 338.682H995.405V328.682H966.129V338.682ZM990.405 333.682V348H1000.4V333.682H990.405ZM995.405 343H948.359V353H995.405V343ZM1004.35 348H999.346V353H1004.35V348ZM1004.35 282.545V277.545H999.346V282.545H1004.35ZM1053.85 292.837L1058.12 290.236L1053.85 292.837ZM1053.76 316.647L1049.56 313.925L1049.56 313.935L1049.55 313.945L1053.76 316.647ZM1045.03 323.934L1043.03 319.353L1043.02 319.357L1045.03 323.934ZM1015.08 326.395H1010.08V331.395H1015.08V326.395ZM1015.08 312.588V307.588H1010.08V312.588H1015.08ZM1033.72 311.821L1035.36 316.544L1035.38 316.537L1035.4 316.53L1033.72 311.821ZM1037.14 309.296L1033.05 306.419L1033.03 306.444L1033.01 306.47L1037.14 309.296ZM1037.14 300.219L1032.97 302.976L1032.99 303.019L1033.02 303.062L1037.14 300.219ZM1033.72 297.599L1031.9 302.255L1031.94 302.271L1031.98 302.286L1033.72 297.599ZM1022.12 296.736V291.736H1017.12V296.736H1022.12ZM1022.12 348V353H1027.12V348H1022.12ZM1042.7 317.957L1047.09 315.566L1045.67 312.957H1042.7V317.957ZM1059.06 348V353H1067.48L1063.45 345.608L1059.06 348ZM1039.76 348L1035.34 350.348L1036.75 353H1039.76V348ZM1023.78 317.957V312.957H1015.45L1019.36 320.305L1023.78 317.957ZM1009.35 348V282.545H999.346V348H1009.35ZM1004.35 287.545H1032.6V277.545H1004.35V287.545ZM1032.6 287.545C1036.85 287.545 1040.33 288.318 1043.17 289.696L1047.53 280.7C1043.09 278.542 1038.06 277.545 1032.6 277.545V287.545ZM1043.17 289.696C1045.98 291.064 1048.08 292.968 1049.58 295.437L1058.12 290.236C1055.58 286.058 1052 282.87 1047.53 280.7L1043.17 289.696ZM1049.58 295.437C1051.04 297.838 1051.89 300.883 1051.89 304.79H1061.89C1061.89 299.406 1060.71 294.483 1058.12 290.236L1049.58 295.437ZM1051.89 304.79C1051.89 308.727 1051.02 311.682 1049.56 313.925L1057.95 319.369C1060.67 315.177 1061.89 310.227 1061.89 304.79H1051.89ZM1049.55 313.945C1048.05 316.273 1045.94 318.079 1043.03 319.353L1047.04 328.515C1051.62 326.508 1055.33 323.456 1057.96 319.349L1049.55 313.945ZM1043.02 319.357C1040.05 320.664 1036.4 321.395 1031.96 321.395V331.395C1037.49 331.395 1042.56 330.486 1047.04 328.511L1043.02 319.357ZM1031.96 321.395H1015.08V331.395H1031.96V321.395ZM1020.08 326.395V312.588H1010.08V326.395H1020.08ZM1015.08 317.588H1028.38V307.588H1015.08V317.588ZM1028.38 317.588C1030.85 317.588 1033.22 317.289 1035.36 316.544L1032.07 307.099C1031.28 307.375 1030.09 307.588 1028.38 307.588V317.588ZM1035.4 316.53C1037.74 315.693 1039.8 314.257 1041.26 312.122L1033.01 306.47C1032.9 306.636 1032.67 306.884 1032.04 307.112L1035.4 316.53ZM1041.23 312.174C1042.79 309.95 1043.35 307.35 1043.35 304.79H1033.35C1033.35 305.937 1033.1 306.341 1033.05 306.419L1041.23 312.174ZM1043.35 304.79C1043.35 302.217 1042.79 299.612 1041.25 297.377L1033.02 303.062C1033.1 303.17 1033.35 303.613 1033.35 304.79H1043.35ZM1041.31 297.463C1039.87 295.286 1037.83 293.791 1035.46 292.912L1031.98 302.286C1032.59 302.514 1032.83 302.767 1032.97 302.976L1041.31 297.463ZM1035.54 292.943C1033.33 292.08 1030.9 291.736 1028.38 291.736V301.736C1030.03 301.736 1031.16 301.967 1031.9 302.255L1035.54 292.943ZM1028.38 291.736H1022.12V301.736H1028.38V291.736ZM1017.12 296.736V348H1027.12V296.736H1017.12ZM1022.12 343H1004.35V353H1022.12V343ZM1038.31 320.349L1054.67 350.392L1063.45 345.608L1047.09 315.566L1038.31 320.349ZM1059.06 343H1039.76V353H1059.06V343ZM1044.17 345.652L1028.19 315.609L1019.36 320.305L1035.34 350.348L1044.17 345.652ZM1023.78 322.957H1042.7V312.957H1023.78V322.957ZM1099.75 303L1094.76 303.399L1095.13 308H1099.75V303ZM1097.35 298.014L1094.12 301.827L1094.13 301.839L1094.14 301.851L1097.35 298.014ZM1086.42 296.896L1088.16 301.584L1088.18 301.576L1088.2 301.567L1086.42 296.896ZM1083.86 298.653L1079.85 295.672V295.672L1083.86 298.653ZM1083 301.21L1087.99 301.48L1088 301.401L1088 301.321L1083 301.21ZM1083.42 303.352L1078.94 305.588L1078.99 305.678L1079.04 305.767L1083.42 303.352ZM1085.01 305.045L1082.13 309.13L1082.17 309.159L1082.21 309.187L1085.01 305.045ZM1091.82 307.474L1092.87 302.585L1092.85 302.581L1092.83 302.577L1091.82 307.474ZM1097.19 308.625L1096.14 313.514L1096.15 313.517L1097.19 308.625ZM1112.82 316.104L1109.22 319.571L1109.23 319.582L1109.24 319.594L1112.82 316.104ZM1116.43 321.793L1111.73 323.501L1111.74 323.522L1111.75 323.543L1116.43 321.793ZM1117.64 328.696L1122.64 328.721L1122.64 328.687L1122.64 328.653L1117.64 328.696ZM1114.42 339.626L1118.49 342.533V342.533L1114.42 339.626ZM1105.28 346.434L1103.45 341.78L1103.44 341.783L1105.28 346.434ZM1076.16 346.242L1074.31 350.886L1074.32 350.889L1076.16 346.242ZM1066.32 338.476L1062.14 341.232L1062.15 341.246L1062.16 341.261L1066.32 338.476ZM1062.8 324.989V319.989H1057.78L1057.8 325.008L1062.8 324.989ZM1079.68 324.989L1084.67 324.723L1084.42 319.989H1079.68V324.989ZM1081.18 330.038L1077 332.782L1081.18 330.038ZM1084.95 333.138L1082.96 337.725L1082.97 337.73L1082.98 337.734L1084.95 333.138ZM1095.56 333.49L1097.28 338.184L1095.56 333.49ZM1098.47 331.54L1102.38 334.652L1098.47 331.54ZM1099.49 328.696L1104.49 328.796L1104.49 328.693L1104.49 328.59L1099.49 328.696ZM1098.5 326.075L1094.61 329.212L1094.65 329.271L1094.7 329.329L1098.5 326.075ZM1095.43 324.03L1093.45 328.618L1093.48 328.631L1093.5 328.643L1095.43 324.03ZM1089.65 322.304L1090.72 317.42L1090.71 317.418L1090.7 317.416L1089.65 322.304ZM1083.13 320.898L1082.07 325.784L1082.07 325.785L1083.13 320.898ZM1069.42 314.602L1066.09 318.335L1066.1 318.346L1066.12 318.357L1069.42 314.602ZM1064.46 302.489L1069.46 302.509L1069.46 302.486L1069.46 302.463L1064.46 302.489ZM1067.79 291.59L1063.73 288.666L1063.73 288.671L1067.79 291.59ZM1077.15 284.271L1075.15 279.688L1075.14 279.692L1077.15 284.271ZM1104.64 284.303L1102.55 288.848L1104.64 284.303ZM1113.55 291.782L1109.36 294.504L1109.37 294.52L1109.38 294.536L1113.55 291.782ZM1116.75 303V308H1121.77L1121.75 302.975L1116.75 303ZM1104.73 302.601C1104.47 299.349 1103.17 296.362 1100.56 294.178L1094.14 301.851C1094.39 302.053 1094.68 302.389 1094.76 303.399L1104.73 302.601ZM1100.58 294.202C1097.89 291.914 1094.36 291.224 1090.93 291.224V301.224C1093.25 301.224 1094 301.728 1094.12 301.827L1100.58 294.202ZM1090.93 291.224C1088.74 291.224 1086.58 291.484 1084.64 292.225L1088.2 301.567C1088.61 301.412 1089.45 301.224 1090.93 301.224V291.224ZM1084.68 292.207C1082.91 292.864 1081.14 293.935 1079.85 295.672L1087.88 301.635C1087.79 301.751 1087.73 301.791 1087.75 301.775C1087.78 301.755 1087.9 301.68 1088.16 301.584L1084.68 292.207ZM1079.85 295.672C1078.66 297.277 1078.04 299.14 1078 301.099L1088 301.321C1088 301.315 1088 301.366 1087.97 301.451C1087.94 301.537 1087.9 301.602 1087.88 301.635L1079.85 295.672ZM1078.01 300.94C1077.92 302.502 1078.2 304.093 1078.94 305.588L1087.89 301.115C1087.93 301.209 1087.96 301.303 1087.98 301.384C1088 301.463 1087.99 301.5 1087.99 301.48L1078.01 300.94ZM1079.04 305.767C1079.83 307.195 1080.94 308.292 1082.13 309.13L1087.9 300.961C1087.77 300.871 1087.72 300.816 1087.71 300.807C1087.7 300.801 1087.74 300.842 1087.79 300.936L1079.04 305.767ZM1082.21 309.187C1083.38 309.98 1084.72 310.597 1086.11 311.094L1089.48 301.681C1088.61 301.369 1088.09 301.091 1087.81 300.904L1082.21 309.187ZM1086.11 311.094C1087.52 311.6 1089.1 312.019 1090.81 312.372L1092.83 302.577C1091.43 302.29 1090.33 301.986 1089.48 301.681L1086.11 311.094ZM1090.77 312.363L1096.14 313.514L1098.24 303.736L1092.87 302.585L1090.77 312.363ZM1096.15 313.517C1099.49 314.222 1102.18 315.121 1104.3 316.155L1108.68 307.167C1105.65 305.688 1102.14 304.562 1098.23 303.733L1096.15 313.517ZM1104.3 316.155C1106.46 317.209 1108.06 318.368 1109.22 319.571L1116.42 312.636C1114.3 310.43 1111.68 308.628 1108.68 307.167L1104.3 316.155ZM1109.24 319.594C1110.41 320.794 1111.22 322.09 1111.73 323.501L1121.13 320.084C1120.11 317.277 1118.51 314.78 1116.4 312.614L1109.24 319.594ZM1111.75 323.543C1112.31 325.051 1112.63 326.767 1112.64 328.739L1122.64 328.653C1122.62 325.639 1122.13 322.753 1121.11 320.042L1111.75 323.543ZM1112.64 328.671C1112.63 332.127 1111.78 334.717 1110.35 336.72L1118.49 342.533C1121.32 338.57 1122.62 333.873 1122.64 328.721L1112.64 328.671ZM1110.35 336.72C1108.87 338.795 1106.66 340.519 1103.45 341.78L1107.1 351.088C1111.82 349.238 1115.71 346.424 1118.49 342.533L1110.35 336.72ZM1103.44 341.783C1100.23 343.049 1096.15 343.767 1091.05 343.767V353.767C1097.04 353.767 1102.44 352.93 1107.11 351.085L1103.44 341.783ZM1091.05 343.767C1085.85 343.767 1081.53 342.995 1078.01 341.595L1074.32 350.889C1079.27 352.855 1084.88 353.767 1091.05 353.767V343.767ZM1078.01 341.598C1074.65 340.257 1072.21 338.28 1070.47 335.691L1062.16 341.261C1065.11 345.66 1069.23 348.861 1074.31 350.886L1078.01 341.598ZM1070.49 335.72C1068.84 333.227 1067.82 329.76 1067.8 324.969L1057.8 325.008C1057.82 331.169 1059.15 336.693 1062.14 341.232L1070.49 335.72ZM1062.8 329.989H1079.68V319.989H1062.8V329.989ZM1074.68 325.254C1074.83 327.939 1075.52 330.526 1077 332.782L1085.36 327.295C1085.05 326.823 1084.74 326.044 1084.67 324.723L1074.68 325.254ZM1077 332.782C1078.47 335.027 1080.52 336.667 1082.96 337.725L1086.94 328.552C1086.14 328.204 1085.67 327.777 1085.36 327.295L1077 332.782ZM1082.98 337.734C1085.38 338.765 1088.04 339.193 1090.8 339.193V329.193C1089.04 329.193 1087.8 328.919 1086.92 328.543L1082.98 337.734ZM1090.8 339.193C1093.07 339.193 1095.28 338.918 1097.28 338.184L1093.84 328.796C1093.28 329 1092.32 329.193 1090.8 329.193V339.193ZM1097.28 338.184C1099.18 337.487 1101.01 336.379 1102.38 334.652L1094.55 328.429C1094.61 328.364 1094.49 328.555 1093.84 328.796L1097.28 338.184ZM1102.38 334.652C1103.73 332.959 1104.45 330.952 1104.49 328.796L1094.49 328.596C1094.49 328.61 1094.49 328.606 1094.49 328.588C1094.5 328.569 1094.5 328.544 1094.51 328.514C1094.53 328.485 1094.54 328.461 1094.55 328.443C1094.56 328.425 1094.56 328.421 1094.55 328.429L1102.38 334.652ZM1104.49 328.59C1104.44 326.456 1103.71 324.464 1102.3 322.821L1094.7 329.329C1094.67 329.285 1094.6 329.191 1094.55 329.058C1094.5 328.926 1094.49 328.829 1094.49 328.802L1104.49 328.59ZM1102.39 322.939C1101.04 321.256 1099.16 320.168 1097.36 319.416L1093.5 328.643C1093.99 328.848 1094.31 329.024 1094.5 329.149C1094.68 329.274 1094.68 329.309 1094.61 329.212L1102.39 322.939ZM1097.42 319.441C1095.58 318.643 1093.3 317.986 1090.72 317.42L1088.58 327.188C1090.85 327.687 1092.43 328.181 1093.45 328.618L1097.42 319.441ZM1090.7 317.416L1084.18 316.01L1082.07 325.785L1088.59 327.192L1090.7 317.416ZM1084.19 316.011C1078.96 314.877 1075.25 313.069 1072.72 310.846L1066.12 318.357C1070.28 322.014 1075.71 324.404 1082.07 325.784L1084.19 316.011ZM1072.74 310.868C1070.65 309.007 1069.45 306.426 1069.46 302.509L1059.46 302.468C1059.44 308.779 1061.53 314.273 1066.09 318.335L1072.74 310.868ZM1069.46 302.463C1069.45 299.27 1070.28 296.689 1071.85 294.51L1063.73 288.671C1060.82 292.713 1059.44 297.397 1059.46 302.514L1069.46 302.463ZM1071.84 294.515C1073.51 292.195 1075.89 290.285 1079.16 288.85L1075.14 279.692C1070.45 281.752 1066.58 284.721 1063.73 288.666L1071.84 294.515ZM1079.15 288.854C1082.42 287.428 1086.31 286.651 1090.93 286.651V276.651C1085.19 276.651 1079.89 277.62 1075.15 279.688L1079.15 288.854ZM1090.93 286.651C1095.66 286.651 1099.49 287.444 1102.55 288.848L1106.72 279.758C1102.07 277.626 1096.76 276.651 1090.93 276.651V286.651ZM1102.55 288.848C1105.64 290.265 1107.84 292.165 1109.36 294.504L1117.75 289.06C1115.09 284.964 1111.34 281.879 1106.72 279.758L1102.55 288.848ZM1109.38 294.536C1110.89 296.828 1111.73 299.594 1111.75 303.025L1121.75 302.975C1121.72 297.841 1120.43 293.128 1117.73 289.028L1109.38 294.536ZM1116.75 298H1099.75V308H1116.75V298Z" fill="url(#paint4_linear_130_52)" mask="url(#path-5-outside-1_130_52)"/>
<path d="M63.5234 34.8515L56 54.625H64.0948L67.8088 43.9341L63.5234 34.8515Z" fill="white"/>
<path d="M74.4751 54.625L64.8566 34H72.7609L82.3794 54.625H74.4751Z" fill="white"/>
<path d="M79.1073 39.0143L76.917 34H84.5356L87.0116 39.0143H79.1073Z" fill="white"/>
<path d="M86.2498 54.625L79.4883 40.3389H87.4878L94.4398 54.625H86.2498Z" fill="white"/>
<path d="M90.882 39.0143L88.6916 34H101.643L104.024 39.0143H90.882Z" fill="white"/>
<path d="M100.405 54.625L93.8342 40.3389H101.643L108.5 54.625H100.405Z" fill="white"/>
<path d="M140.648 39.3636V35.5455H155.818V39.3636H150.568V53H145.898V39.3636H140.648ZM157.602 53V35.5455H170.181V39.3636H162.34V42.3636H169.533V46.1818H162.34V49.1818H170.147V53H157.602ZM188.827 42.0909H184.02C183.986 41.6932 183.895 41.3324 183.747 41.0085C183.605 40.6847 183.406 40.4062 183.151 40.1733C182.901 39.9347 182.597 39.7528 182.239 39.6278C181.881 39.4972 181.474 39.4318 181.02 39.4318C180.224 39.4318 179.551 39.625 179 40.0114C178.455 40.3977 178.04 40.9517 177.756 41.6733C177.477 42.3949 177.338 43.2614 177.338 44.2727C177.338 45.3409 177.48 46.2358 177.764 46.9574C178.054 47.6733 178.472 48.2131 179.017 48.5767C179.563 48.9347 180.219 49.1136 180.986 49.1136C181.423 49.1136 181.815 49.0597 182.162 48.9517C182.509 48.8381 182.81 48.6761 183.065 48.4659C183.321 48.2557 183.528 48.0028 183.688 47.7074C183.852 47.4062 183.963 47.0682 184.02 46.6932L188.827 46.7273C188.77 47.4659 188.563 48.2187 188.205 48.9858C187.847 49.7472 187.338 50.4517 186.679 51.0994C186.026 51.7415 185.216 52.2585 184.25 52.6506C183.284 53.0426 182.162 53.2386 180.884 53.2386C179.281 53.2386 177.844 52.8949 176.571 52.2074C175.304 51.5199 174.301 50.5085 173.562 49.1733C172.83 47.8381 172.463 46.2045 172.463 44.2727C172.463 42.3295 172.838 40.6932 173.588 39.3636C174.338 38.0284 175.349 37.0199 176.622 36.3381C177.895 35.6506 179.315 35.3068 180.884 35.3068C181.986 35.3068 183 35.4574 183.926 35.7585C184.852 36.0597 185.665 36.5 186.364 37.0795C187.063 37.6534 187.625 38.3608 188.051 39.2017C188.477 40.0426 188.736 41.0057 188.827 42.0909ZM190.977 53V35.5455H195.715V42.3636H201.988V35.5455H206.727V53H201.988V46.1818H195.715V53H190.977ZM224.079 35.5455V53H220.124L213.817 43.8295H213.715V53H208.977V35.5455H212.999L219.204 44.6818H219.34V35.5455H224.079ZM243.229 44.2727C243.229 46.2159 242.852 47.8551 242.096 49.1903C241.34 50.5199 240.32 51.5284 239.036 52.2159C237.752 52.8977 236.32 53.2386 234.741 53.2386C233.15 53.2386 231.712 52.8949 230.428 52.2074C229.15 51.5142 228.133 50.5028 227.377 49.1733C226.627 47.8381 226.252 46.2045 226.252 44.2727C226.252 42.3295 226.627 40.6932 227.377 39.3636C228.133 38.0284 229.15 37.0199 230.428 36.3381C231.712 35.6506 233.15 35.3068 234.741 35.3068C236.32 35.3068 237.752 35.6506 239.036 36.3381C240.32 37.0199 241.34 38.0284 242.096 39.3636C242.852 40.6932 243.229 42.3295 243.229 44.2727ZM238.354 44.2727C238.354 43.2273 238.215 42.3466 237.937 41.6307C237.664 40.9091 237.258 40.3636 236.718 39.9943C236.184 39.6193 235.525 39.4318 234.741 39.4318C233.957 39.4318 233.295 39.6193 232.755 39.9943C232.221 40.3636 231.815 40.9091 231.536 41.6307C231.263 42.3466 231.127 43.2273 231.127 44.2727C231.127 45.3182 231.263 46.2017 231.536 46.9233C231.815 47.6392 232.221 48.1847 232.755 48.5597C233.295 48.929 233.957 49.1136 234.741 49.1136C235.525 49.1136 236.184 48.929 236.718 48.5597C237.258 48.1847 237.664 47.6392 237.937 46.9233C238.215 46.2017 238.354 45.3182 238.354 44.2727ZM254.831 41C254.786 40.4318 254.572 39.9886 254.192 39.6705C253.817 39.3523 253.246 39.1932 252.479 39.1932C251.99 39.1932 251.589 39.2528 251.277 39.3722C250.97 39.4858 250.743 39.642 250.595 39.8409C250.447 40.0398 250.371 40.267 250.365 40.5227C250.354 40.733 250.391 40.9233 250.476 41.0938C250.567 41.2585 250.709 41.4091 250.902 41.5455C251.095 41.6761 251.342 41.7955 251.643 41.9034C251.945 42.0114 252.303 42.108 252.717 42.1932L254.149 42.5C255.115 42.7045 255.942 42.9744 256.629 43.3097C257.317 43.6449 257.879 44.0398 258.317 44.4943C258.754 44.9432 259.075 45.4489 259.28 46.0114C259.49 46.5739 259.598 47.1875 259.604 47.8523C259.598 49 259.311 49.9716 258.743 50.767C258.175 51.5625 257.362 52.1676 256.305 52.5824C255.254 52.9972 253.99 53.2045 252.513 53.2045C250.996 53.2045 249.672 52.9801 248.541 52.5312C247.416 52.0824 246.541 51.392 245.916 50.4602C245.297 49.5227 244.984 48.3239 244.979 46.8636H249.479C249.507 47.3977 249.641 47.8466 249.879 48.2102C250.118 48.5739 250.453 48.8494 250.885 49.0369C251.322 49.2244 251.842 49.3182 252.445 49.3182C252.95 49.3182 253.374 49.2557 253.714 49.1307C254.055 49.0057 254.314 48.8324 254.49 48.6108C254.666 48.3892 254.757 48.1364 254.763 47.8523C254.757 47.5852 254.669 47.3523 254.499 47.1534C254.334 46.9489 254.061 46.767 253.68 46.608C253.3 46.4432 252.786 46.2898 252.138 46.1477L250.399 45.7727C248.854 45.4375 247.635 44.8778 246.743 44.0938C245.857 43.304 245.416 42.2273 245.422 40.8636C245.416 39.7557 245.712 38.7869 246.308 37.9574C246.911 37.1222 247.743 36.4716 248.805 36.0057C249.874 35.5398 251.098 35.3068 252.479 35.3068C253.888 35.3068 255.107 35.5426 256.135 36.0142C257.163 36.4858 257.956 37.1506 258.513 38.0085C259.075 38.8608 259.359 39.858 259.365 41H254.831ZM261.406 53V35.5455H268.94C270.236 35.5455 271.369 35.8011 272.341 36.3125C273.313 36.8239 274.068 37.5426 274.608 38.4688C275.148 39.3949 275.418 40.4773 275.418 41.7159C275.418 42.9659 275.139 44.0483 274.582 44.9631C274.031 45.8778 273.256 46.5824 272.256 47.0767C271.261 47.571 270.099 47.8182 268.77 47.8182H264.27V44.1364H267.815C268.372 44.1364 268.847 44.0398 269.239 43.8466C269.636 43.6477 269.94 43.3665 270.151 43.0028C270.366 42.6392 270.474 42.2102 270.474 41.7159C270.474 41.2159 270.366 40.7898 270.151 40.4375C269.94 40.0795 269.636 39.8068 269.239 39.6193C268.847 39.4261 268.372 39.3295 267.815 39.3295H266.145V53H261.406ZM279.511 53H274.397L280.158 35.5455H286.636L292.397 53H287.283L283.465 40.3523H283.329L279.511 53ZM278.556 46.1136H288.17V49.6591H278.556V46.1136ZM294.078 53V35.5455H301.612C302.908 35.5455 304.041 35.7812 305.013 36.2528C305.984 36.7244 306.74 37.4034 307.28 38.2898C307.82 39.1761 308.089 40.2386 308.089 41.4773C308.089 42.7273 307.811 43.7812 307.254 44.6392C306.703 45.4972 305.928 46.1449 304.928 46.5824C303.933 47.0199 302.771 47.2386 301.442 47.2386H296.942V43.5568H300.487C301.044 43.5568 301.518 43.4886 301.911 43.3523C302.308 43.2102 302.612 42.9858 302.822 42.679C303.038 42.3722 303.146 41.9716 303.146 41.4773C303.146 40.9773 303.038 40.571 302.822 40.2585C302.612 39.9403 302.308 39.7074 301.911 39.5597C301.518 39.4062 301.044 39.3295 300.487 39.3295H298.817V53H294.078ZM304.305 44.9886L308.669 53H303.521L299.26 44.9886H304.305ZM315.189 35.5455L318.053 40.625H318.189L321.087 35.5455H326.371L321.155 44.2727L326.575 53H321.155L318.189 47.8182H318.053L315.087 53H309.7L315.053 44.2727L309.871 35.5455H315.189Z" fill="white"/>
<g opacity="0.21">
<path d="M354.286 581.986H222.678C210.289 581.986 200.21 571.907 200.21 559.52C200.21 547.129 210.288 537.049 222.678 537.049H294.552C315.528 537.049 332.592 519.985 332.592 499.009C332.592 478.034 315.529 460.968 294.552 460.968H164.524C160.934 449.399 150.146 441 137.397 441C121.711 441 109 453.711 109 469.397C109 485.084 121.712 497.795 137.399 497.795C150.613 497.795 161.722 488.769 164.89 476.542H294.553C306.94 476.542 317.02 486.622 317.02 499.01C317.02 511.399 306.941 521.478 294.553 521.478H222.679C201.704 521.478 184.638 538.543 184.638 559.52C184.638 580.496 201.702 597.559 222.679 597.559H354.285C357.669 609.459 368.616 618.171 381.603 618.171C397.289 618.171 410 605.46 410 589.774C410 574.087 397.289 561.376 381.603 561.376C368.617 561.376 357.67 570.087 354.286 581.986Z" fill="url(#paint5_linear_130_52)"/>
</g>
<g opacity="0.11">
<path fill-rule="evenodd" clip-rule="evenodd" d="M1050.65 3.19516C1052.7 1.14938 1055.47 0 1058.36 0H1145.64C1163.71 0 1178.36 14.6525 1178.36 32.7273V87.2727C1178.36 93.2976 1173.48 98.1818 1167.45 98.1818C1161.43 98.1818 1156.55 93.2976 1156.55 87.2727V32.7273C1156.55 26.7024 1151.66 21.8182 1145.64 21.8182H1069.27V76.3636C1069.27 82.3885 1064.39 87.2727 1058.36 87.2727H1003.82V207.273C1003.82 213.298 1008.7 218.182 1014.73 218.182H1047.45C1053.48 218.182 1058.36 223.066 1058.36 229.091C1058.36 235.116 1053.48 240 1047.45 240H1014.73C996.653 240 982 225.348 982 207.273V76.3636C982 73.4703 983.149 70.6956 985.195 68.6497L1050.65 3.19516ZM1019.25 65.4545H1047.45V37.2459L1019.25 65.4545ZM1153.35 123.195L1196.99 166.832C1201.25 171.092 1201.25 177.999 1196.99 182.259L1153.35 225.896C1149.09 230.156 1142.18 230.156 1137.92 225.896C1133.66 221.636 1133.66 214.728 1137.92 210.468L1173.85 174.545L1137.92 138.623C1133.66 134.363 1133.66 127.455 1137.92 123.195C1142.18 118.935 1149.09 118.935 1153.35 123.195ZM1109.71 138.623C1113.97 134.363 1113.97 127.455 1109.71 123.195C1105.45 118.935 1098.55 118.935 1094.29 123.195L1050.65 166.832C1046.39 171.092 1046.39 177.999 1050.65 182.259L1094.29 225.896C1098.55 230.156 1105.45 230.156 1109.71 225.896C1113.97 221.636 1113.97 214.728 1109.71 210.468L1073.79 174.545L1109.71 138.623Z" fill="url(#paint6_linear_130_52)"/>
</g>
</g>
<defs>
<linearGradient id="paint0_linear_130_52" x1="-63.757" y1="-34.0071" x2="-63.757" y2="347.166" gradientUnits="userSpaceOnUse">
<stop stop-color="#FF9E0B"/>
<stop offset="1" stop-color="#EC4899"/>
</linearGradient>
<linearGradient id="paint1_linear_130_52" x1="1173" y1="695.827" x2="1173" y2="969.442" gradientUnits="userSpaceOnUse">
<stop stop-color="#FF9E0B"/>
<stop offset="1" stop-color="#F24E52"/>
</linearGradient>
<linearGradient id="paint2_linear_130_52" x1="882.5" y1="530" x2="882.5" y2="919" gradientUnits="userSpaceOnUse">
<stop stop-color="#FF9E0B"/>
<stop offset="1" stop-color="#9C67E7"/>
</linearGradient>
<linearGradient id="paint3_linear_130_52" x1="491" y1="30" x2="491" y2="162" gradientUnits="userSpaceOnUse">
<stop stop-color="#FF9E0B"/>
<stop offset="1" stop-color="#DA46EB"/>
</linearGradient>
<linearGradient id="paint4_linear_130_52" x1="600.5" y1="261" x2="600.5" y2="370" gradientUnits="userSpaceOnUse">
<stop stop-color="#FF9E0B"/>
<stop offset="0.49" stop-color="#F24E52"/>
</linearGradient>
<linearGradient id="paint5_linear_130_52" x1="259.5" y1="441" x2="259.5" y2="618.171" gradientUnits="userSpaceOnUse">
<stop stop-color="#DA46EB"/>
<stop offset="1" stop-color="#4A74F4"/>
</linearGradient>
<linearGradient id="paint6_linear_130_52" x1="1091.09" y1="0" x2="1091.09" y2="240" gradientUnits="userSpaceOnUse">
<stop stop-color="#FF9E0B"/>
<stop offset="1" stop-color="#F24E52"/>
</linearGradient>
<clipPath id="clip0_130_52">
<rect width="1200" height="630" fill="white"/>
</clipPath>
</defs>
</svg>
