<svg width="1200" height="630" viewBox="0 0 1200 630" fill="none" xmlns="http://www.w3.org/2000/svg">
<g clip-path="url(#clip0_148_347)">
<rect width="1200" height="630" fill="black"/>
<rect x="-427.809" y="-32.4841" width="729.486" height="376.173" transform="rotate(-19.4848 -427.809 -32.4841)" stroke="url(#paint0_linear_148_347)" stroke-width="5"/>
<rect x="883" y="695.827" width="580" height="273.616" transform="rotate(-35.26 883 695.827)" fill="url(#paint1_linear_148_347)"/>
<circle cx="882.5" cy="724.5" r="193" stroke="url(#paint2_linear_148_347)" stroke-width="3"/>
<path opacity="0.49" d="M415 58.3636C414.121 58.3636 413.367 58.0568 412.739 57.4432C412.117 56.822 411.811 56.0682 411.818 55.1818C411.811 54.3182 412.117 53.5795 412.739 52.9659C413.367 52.3523 414.121 52.0455 415 52.0455C415.833 52.0455 416.568 52.3523 417.205 52.9659C417.848 53.5795 418.174 54.3182 418.182 55.1818C418.174 55.7727 418.019 56.3106 417.716 56.7955C417.42 57.2727 417.034 57.6553 416.557 57.9432C416.08 58.2235 415.561 58.3636 415 58.3636ZM459.003 58.3636C458.124 58.3636 457.37 58.0568 456.741 57.4432C456.12 56.822 455.813 56.0682 455.821 55.1818C455.813 54.3182 456.12 53.5795 456.741 52.9659C457.37 52.3523 458.124 52.0455 459.003 52.0455C459.836 52.0455 460.571 52.3523 461.207 52.9659C461.851 53.5795 462.177 54.3182 462.184 55.1818C462.177 55.7727 462.021 56.3106 461.718 56.7955C461.423 57.2727 461.037 57.6553 460.559 57.9432C460.082 58.2235 459.563 58.3636 459.003 58.3636ZM503.005 58.3636C502.126 58.3636 501.372 58.0568 500.744 57.4432C500.122 56.822 499.816 56.0682 499.823 55.1818C499.816 54.3182 500.122 53.5795 500.744 52.9659C501.372 52.3523 502.126 52.0455 503.005 52.0455C503.838 52.0455 504.573 52.3523 505.21 52.9659C505.853 53.5795 506.179 54.3182 506.187 55.1818C506.179 55.7727 506.024 56.3106 505.721 56.7955C505.425 57.2727 505.039 57.6553 504.562 57.9432C504.085 58.2235 503.566 58.3636 503.005 58.3636ZM547.008 58.3636C546.129 58.3636 545.375 58.0568 544.746 57.4432C544.125 56.822 543.818 56.0682 543.826 55.1818C543.818 54.3182 544.125 53.5795 544.746 52.9659C545.375 52.3523 546.129 52.0455 547.008 52.0455C547.841 52.0455 548.576 52.3523 549.212 52.9659C549.856 53.5795 550.182 54.3182 550.189 55.1818C550.182 55.7727 550.026 56.3106 549.723 56.7955C549.428 57.2727 549.042 57.6553 548.564 57.9432C548.087 58.2235 547.568 58.3636 547.008 58.3636ZM415 91.3636C414.121 91.3636 413.367 91.0568 412.739 90.4432C412.117 89.822 411.811 89.0682 411.818 88.1818C411.811 87.3182 412.117 86.5795 412.739 85.9659C413.367 85.3523 414.121 85.0455 415 85.0455C415.833 85.0455 416.568 85.3523 417.205 85.9659C417.848 86.5795 418.174 87.3182 418.182 88.1818C418.174 88.7727 418.019 89.3106 417.716 89.7955C417.42 90.2727 417.034 90.6553 416.557 90.9432C416.08 91.2235 415.561 91.3636 415 91.3636ZM459.003 91.3636C458.124 91.3636 457.37 91.0568 456.741 90.4432C456.12 89.822 455.813 89.0682 455.821 88.1818C455.813 87.3182 456.12 86.5795 456.741 85.9659C457.37 85.3523 458.124 85.0455 459.003 85.0455C459.836 85.0455 460.571 85.3523 461.207 85.9659C461.851 86.5795 462.177 87.3182 462.184 88.1818C462.177 88.7727 462.021 89.3106 461.718 89.7955C461.423 90.2727 461.037 90.6553 460.559 90.9432C460.082 91.2235 459.563 91.3636 459.003 91.3636ZM503.005 91.3636C502.126 91.3636 501.372 91.0568 500.744 90.4432C500.122 89.822 499.816 89.0682 499.823 88.1818C499.816 87.3182 500.122 86.5795 500.744 85.9659C501.372 85.3523 502.126 85.0455 503.005 85.0455C503.838 85.0455 504.573 85.3523 505.21 85.9659C505.853 86.5795 506.179 87.3182 506.187 88.1818C506.179 88.7727 506.024 89.3106 505.721 89.7955C505.425 90.2727 505.039 90.6553 504.562 90.9432C504.085 91.2235 503.566 91.3636 503.005 91.3636ZM547.008 91.3636C546.129 91.3636 545.375 91.0568 544.746 90.4432C544.125 89.822 543.818 89.0682 543.826 88.1818C543.818 87.3182 544.125 86.5795 544.746 85.9659C545.375 85.3523 546.129 85.0455 547.008 85.0455C547.841 85.0455 548.576 85.3523 549.212 85.9659C549.856 86.5795 550.182 87.3182 550.189 88.1818C550.182 88.7727 550.026 89.3106 549.723 89.7955C549.428 90.2727 549.042 90.6553 548.564 90.9432C548.087 91.2235 547.568 91.3636 547.008 91.3636ZM415 124.364C414.121 124.364 413.367 124.057 412.739 123.443C412.117 122.822 411.811 122.068 411.818 121.182C411.811 120.318 412.117 119.58 412.739 118.966C413.367 118.352 414.121 118.045 415 118.045C415.833 118.045 416.568 118.352 417.205 118.966C417.848 119.58 418.174 120.318 418.182 121.182C418.174 121.773 418.019 122.311 417.716 122.795C417.42 123.273 417.034 123.655 416.557 123.943C416.08 124.223 415.561 124.364 415 124.364ZM459.003 124.364C458.124 124.364 457.37 124.057 456.741 123.443C456.12 122.822 455.813 122.068 455.821 121.182C455.813 120.318 456.12 119.58 456.741 118.966C457.37 118.352 458.124 118.045 459.003 118.045C459.836 118.045 460.571 118.352 461.207 118.966C461.851 119.58 462.177 120.318 462.184 121.182C462.177 121.773 462.021 122.311 461.718 122.795C461.423 123.273 461.037 123.655 460.559 123.943C460.082 124.223 459.563 124.364 459.003 124.364ZM503.005 124.364C502.126 124.364 501.372 124.057 500.744 123.443C500.122 122.822 499.816 122.068 499.823 121.182C499.816 120.318 500.122 119.58 500.744 118.966C501.372 118.352 502.126 118.045 503.005 118.045C503.838 118.045 504.573 118.352 505.21 118.966C505.853 119.58 506.179 120.318 506.187 121.182C506.179 121.773 506.024 122.311 505.721 122.795C505.425 123.273 505.039 123.655 504.562 123.943C504.085 124.223 503.566 124.364 503.005 124.364ZM547.008 124.364C546.129 124.364 545.375 124.057 544.746 123.443C544.125 122.822 543.818 122.068 543.826 121.182C543.818 120.318 544.125 119.58 544.746 118.966C545.375 118.352 546.129 118.045 547.008 118.045C547.841 118.045 548.576 118.352 549.212 118.966C549.856 119.58 550.182 120.318 550.189 121.182C550.182 121.773 550.026 122.311 549.723 122.795C549.428 123.273 549.042 123.655 548.564 123.943C548.087 124.223 547.568 124.364 547.008 124.364ZM415 157.364C414.121 157.364 413.367 157.057 412.739 156.443C412.117 155.822 411.811 155.068 411.818 154.182C411.811 153.318 412.117 152.58 412.739 151.966C413.367 151.352 414.121 151.045 415 151.045C415.833 151.045 416.568 151.352 417.205 151.966C417.848 152.58 418.174 153.318 418.182 154.182C418.174 154.773 418.019 155.311 417.716 155.795C417.42 156.273 417.034 156.655 416.557 156.943C416.08 157.223 415.561 157.364 415 157.364ZM459.003 157.364C458.124 157.364 457.37 157.057 456.741 156.443C456.12 155.822 455.813 155.068 455.821 154.182C455.813 153.318 456.12 152.58 456.741 151.966C457.37 151.352 458.124 151.045 459.003 151.045C459.836 151.045 460.571 151.352 461.207 151.966C461.851 152.58 462.177 153.318 462.184 154.182C462.177 154.773 462.021 155.311 461.718 155.795C461.423 156.273 461.037 156.655 460.559 156.943C460.082 157.223 459.563 157.364 459.003 157.364ZM503.005 157.364C502.126 157.364 501.372 157.057 500.744 156.443C500.122 155.822 499.816 155.068 499.823 154.182C499.816 153.318 500.122 152.58 500.744 151.966C501.372 151.352 502.126 151.045 503.005 151.045C503.838 151.045 504.573 151.352 505.21 151.966C505.853 152.58 506.179 153.318 506.187 154.182C506.179 154.773 506.024 155.311 505.721 155.795C505.425 156.273 505.039 156.655 504.562 156.943C504.085 157.223 503.566 157.364 503.005 157.364ZM547.008 157.364C546.129 157.364 545.375 157.057 544.746 156.443C544.125 155.822 543.818 155.068 543.826 154.182C543.818 153.318 544.125 152.58 544.746 151.966C545.375 151.352 546.129 151.045 547.008 151.045C547.841 151.045 548.576 151.352 549.212 151.966C549.856 152.58 550.182 153.318 550.189 154.182C550.182 154.773 550.026 155.311 549.723 155.795C549.428 156.273 549.042 156.655 548.564 156.943C548.087 157.223 547.568 157.364 547.008 157.364Z" fill="url(#paint3_linear_148_347)"/>
<mask id="path-5-outside-1_148_347" maskUnits="userSpaceOnUse" x="129" y="257" width="945" height="112" fill="black">
<rect fill="white" x="129" y="257" width="945" height="112"/>
<path d="M134 268.909H165.455L187.091 321.636H188.182L209.818 268.909H241.273V362H216.545V308.182H215.818L195.091 361.273H180.182L159.455 307.818H158.727V362H134V268.909ZM253.614 362V292.182H278.705V362H253.614ZM266.159 284.909C262.765 284.909 259.856 283.788 257.432 281.545C255.008 279.303 253.795 276.606 253.795 273.455C253.795 270.303 255.008 267.606 257.432 265.364C259.856 263.121 262.765 262 266.159 262C269.583 262 272.492 263.121 274.886 265.364C277.311 267.606 278.523 270.303 278.523 273.455C278.523 276.606 277.311 279.303 274.886 281.545C272.492 283.788 269.583 284.909 266.159 284.909ZM316.58 322.727V362H291.489V292.182H315.307V305.455H316.034C317.549 301.03 320.216 297.561 324.034 295.045C327.883 292.53 332.367 291.273 337.489 291.273C342.428 291.273 346.716 292.409 350.352 294.682C354.019 296.924 356.852 300.015 358.852 303.955C360.883 307.894 361.883 312.394 361.852 317.455V362H336.761V322.727C336.792 319.273 335.913 316.561 334.125 314.591C332.367 312.621 329.913 311.636 326.761 311.636C324.701 311.636 322.898 312.091 321.352 313C319.837 313.879 318.67 315.152 317.852 316.818C317.034 318.455 316.61 320.424 316.58 322.727ZM399.511 362.909C394.542 362.909 389.966 361.606 385.784 359C381.633 356.394 378.299 352.439 375.784 347.136C373.299 341.833 372.057 335.152 372.057 327.091C372.057 318.667 373.36 311.818 375.966 306.545C378.602 301.273 381.996 297.409 386.148 294.955C390.33 292.5 394.723 291.273 399.33 291.273C402.784 291.273 405.814 291.879 408.42 293.091C411.027 294.273 413.208 295.864 414.966 297.864C416.723 299.833 418.057 302 418.966 304.364H419.33V268.909H444.42V362H419.511V350.545H418.966C417.996 352.909 416.602 355.03 414.784 356.909C412.996 358.758 410.814 360.227 408.239 361.318C405.693 362.379 402.784 362.909 399.511 362.909ZM408.784 343.636C411.087 343.636 413.057 342.97 414.693 341.636C416.36 340.273 417.633 338.364 418.511 335.909C419.42 333.424 419.875 330.485 419.875 327.091C419.875 323.636 419.42 320.682 418.511 318.227C417.633 315.742 416.36 313.848 414.693 312.545C413.057 311.212 411.087 310.545 408.784 310.545C406.481 310.545 404.511 311.212 402.875 312.545C401.269 313.848 400.027 315.742 399.148 318.227C398.299 320.682 397.875 323.636 397.875 327.091C397.875 330.545 398.299 333.515 399.148 336C400.027 338.455 401.269 340.348 402.875 341.682C404.511 342.985 406.481 343.636 408.784 343.636ZM520.557 314.909H497.466C497.345 313.485 496.845 312.258 495.966 311.227C495.087 310.197 493.951 309.409 492.557 308.864C491.193 308.288 489.678 308 488.011 308C485.86 308 484.011 308.394 482.466 309.182C480.92 309.97 480.163 311.091 480.193 312.545C480.163 313.576 480.602 314.53 481.511 315.409C482.451 316.288 484.254 316.97 486.92 317.455L501.102 320C508.254 321.303 513.572 323.5 517.057 326.591C520.572 329.652 522.345 333.758 522.375 338.909C522.345 343.879 520.86 348.197 517.92 351.864C515.011 355.5 511.027 358.318 505.966 360.318C500.936 362.288 495.193 363.273 488.739 363.273C478.072 363.273 469.723 361.091 463.693 356.727C457.693 352.364 454.345 346.606 453.648 339.455H478.557C478.89 341.667 479.981 343.379 481.83 344.591C483.708 345.773 486.072 346.364 488.92 346.364C491.223 346.364 493.117 345.97 494.602 345.182C496.117 344.394 496.89 343.273 496.92 341.818C496.89 340.485 496.223 339.424 494.92 338.636C493.648 337.848 491.648 337.212 488.92 336.727L476.557 334.545C469.436 333.303 464.102 330.939 460.557 327.455C457.011 323.97 455.254 319.485 455.284 314C455.254 309.152 456.527 305.045 459.102 301.682C461.708 298.288 465.42 295.712 470.239 293.955C475.087 292.167 480.83 291.273 487.466 291.273C497.557 291.273 505.511 293.364 511.33 297.545C517.178 301.727 520.254 307.515 520.557 314.909ZM565.443 363.273C557.989 363.273 551.564 361.848 546.17 359C540.807 356.121 536.67 352 533.761 346.636C530.883 341.242 529.443 334.788 529.443 327.273C529.443 320.061 530.898 313.758 533.807 308.364C536.716 302.97 540.822 298.773 546.125 295.773C551.428 292.773 557.686 291.273 564.898 291.273C570.17 291.273 574.943 292.091 579.216 293.727C583.489 295.364 587.14 297.742 590.17 300.864C593.201 303.955 595.534 307.712 597.17 312.136C598.807 316.561 599.625 321.545 599.625 327.091V332.909H537.261V319.091H576.534C576.504 317.091 575.989 315.333 574.989 313.818C574.019 312.273 572.701 311.076 571.034 310.227C569.398 309.348 567.534 308.909 565.443 308.909C563.413 308.909 561.549 309.348 559.852 310.227C558.155 311.076 556.792 312.258 555.761 313.773C554.761 315.288 554.231 317.061 554.17 319.091V334C554.17 336.242 554.64 338.242 555.58 340C556.519 341.758 557.867 343.136 559.625 344.136C561.383 345.136 563.504 345.636 565.989 345.636C567.716 345.636 569.292 345.394 570.716 344.909C572.17 344.424 573.413 343.727 574.443 342.818C575.473 341.879 576.231 340.758 576.716 339.455H599.625C598.837 344.303 596.973 348.515 594.034 352.091C591.095 355.636 587.201 358.394 582.352 360.364C577.534 362.303 571.898 363.273 565.443 363.273ZM651.5 292.182V310.364H605.5V292.182H651.5ZM614.409 275.455H639.5V339.545C639.5 340.515 639.667 341.333 640 342C640.333 342.636 640.848 343.121 641.545 343.455C642.242 343.758 643.136 343.909 644.227 343.909C644.985 343.909 645.864 343.818 646.864 343.636C647.894 343.455 648.652 343.303 649.136 343.182L652.773 360.818C651.652 361.152 650.045 361.561 647.955 362.045C645.894 362.53 643.439 362.848 640.591 363C634.833 363.303 630 362.712 626.091 361.227C622.182 359.712 619.242 357.333 617.273 354.091C615.303 350.848 614.348 346.788 614.409 341.909V275.455ZM686.875 268.909H718.33L739.966 321.636H741.057L762.693 268.909H794.148V362H769.42V308.182H768.693L747.966 361.273H733.057L712.33 307.818H711.602V362H686.875V268.909ZM839.943 363.273C832.489 363.273 826.064 361.848 820.67 359C815.307 356.121 811.17 352 808.261 346.636C805.383 341.242 803.943 334.788 803.943 327.273C803.943 320.061 805.398 313.758 808.307 308.364C811.216 302.97 815.322 298.773 820.625 295.773C825.928 292.773 832.186 291.273 839.398 291.273C844.67 291.273 849.443 292.091 853.716 293.727C857.989 295.364 861.64 297.742 864.67 300.864C867.701 303.955 870.034 307.712 871.67 312.136C873.307 316.561 874.125 321.545 874.125 327.091V332.909H811.761V319.091H851.034C851.004 317.091 850.489 315.333 849.489 313.818C848.519 312.273 847.201 311.076 845.534 310.227C843.898 309.348 842.034 308.909 839.943 308.909C837.913 308.909 836.049 309.348 834.352 310.227C832.655 311.076 831.292 312.258 830.261 313.773C829.261 315.288 828.731 317.061 828.67 319.091V334C828.67 336.242 829.14 338.242 830.08 340C831.019 341.758 832.367 343.136 834.125 344.136C835.883 345.136 838.004 345.636 840.489 345.636C842.216 345.636 843.792 345.394 845.216 344.909C846.67 344.424 847.913 343.727 848.943 342.818C849.973 341.879 850.731 340.758 851.216 339.455H874.125C873.337 344.303 871.473 348.515 868.534 352.091C865.595 355.636 861.701 358.394 856.852 360.364C852.034 362.303 846.398 363.273 839.943 363.273ZM909.455 268.909V362H884.364V268.909H909.455ZM955.693 363.273C948.239 363.273 941.814 361.848 936.42 359C931.057 356.121 926.92 352 924.011 346.636C921.133 341.242 919.693 334.788 919.693 327.273C919.693 320.061 921.148 313.758 924.057 308.364C926.966 302.97 931.072 298.773 936.375 295.773C941.678 292.773 947.936 291.273 955.148 291.273C960.42 291.273 965.193 292.091 969.466 293.727C973.739 295.364 977.39 297.742 980.42 300.864C983.451 303.955 985.784 307.712 987.42 312.136C989.057 316.561 989.875 321.545 989.875 327.091V332.909H927.511V319.091H966.784C966.754 317.091 966.239 315.333 965.239 313.818C964.269 312.273 962.951 311.076 961.284 310.227C959.648 309.348 957.784 308.909 955.693 308.909C953.663 308.909 951.799 309.348 950.102 310.227C948.405 311.076 947.042 312.258 946.011 313.773C945.011 315.288 944.481 317.061 944.42 319.091V334C944.42 336.242 944.89 338.242 945.83 340C946.769 341.758 948.117 343.136 949.875 344.136C951.633 345.136 953.754 345.636 956.239 345.636C957.966 345.636 959.542 345.394 960.966 344.909C962.42 344.424 963.663 343.727 964.693 342.818C965.723 341.879 966.481 340.758 966.966 339.455H989.875C989.087 344.303 987.223 348.515 984.284 352.091C981.345 355.636 977.451 358.394 972.602 360.364C967.784 362.303 962.148 363.273 955.693 363.273ZM1033.57 363.273C1026.11 363.273 1019.69 361.848 1014.3 359C1008.93 356.121 1004.8 352 1001.89 346.636C999.008 341.242 997.568 334.788 997.568 327.273C997.568 320.061 999.023 313.758 1001.93 308.364C1004.84 302.97 1008.95 298.773 1014.25 295.773C1019.55 292.773 1025.81 291.273 1033.02 291.273C1038.3 291.273 1043.07 292.091 1047.34 293.727C1051.61 295.364 1055.27 297.742 1058.3 300.864C1061.33 303.955 1063.66 307.712 1065.3 312.136C1066.93 316.561 1067.75 321.545 1067.75 327.091V332.909H1005.39V319.091H1044.66C1044.63 317.091 1044.11 315.333 1043.11 313.818C1042.14 312.273 1040.83 311.076 1039.16 310.227C1037.52 309.348 1035.66 308.909 1033.57 308.909C1031.54 308.909 1029.67 309.348 1027.98 310.227C1026.28 311.076 1024.92 312.258 1023.89 313.773C1022.89 315.288 1022.36 317.061 1022.3 319.091V334C1022.3 336.242 1022.77 338.242 1023.7 340C1024.64 341.758 1025.99 343.136 1027.75 344.136C1029.51 345.136 1031.63 345.636 1034.11 345.636C1035.84 345.636 1037.42 345.394 1038.84 344.909C1040.3 344.424 1041.54 343.727 1042.57 342.818C1043.6 341.879 1044.36 340.758 1044.84 339.455H1067.75C1066.96 344.303 1065.1 348.515 1062.16 352.091C1059.22 355.636 1055.33 358.394 1050.48 360.364C1045.66 362.303 1040.02 363.273 1033.57 363.273Z"/>
</mask>
<path d="M134 268.909V263.909H129V268.909H134ZM165.455 268.909L170.08 267.011L168.807 263.909H165.455V268.909ZM187.091 321.636L182.465 323.534L183.738 326.636H187.091V321.636ZM188.182 321.636V326.636H191.535L192.808 323.534L188.182 321.636ZM209.818 268.909V263.909H206.465L205.192 267.011L209.818 268.909ZM241.273 268.909H246.273V263.909H241.273V268.909ZM241.273 362V367H246.273V362H241.273ZM216.545 362H211.545V367H216.545V362ZM216.545 308.182H221.545V303.182H216.545V308.182ZM215.818 308.182V303.182H212.403L211.161 306.363L215.818 308.182ZM195.091 361.273V366.273H198.506L199.749 363.091L195.091 361.273ZM180.182 361.273L175.52 363.08L176.758 366.273H180.182V361.273ZM159.455 307.818L164.116 306.011L162.878 302.818H159.455V307.818ZM158.727 307.818V302.818H153.727V307.818H158.727ZM158.727 362V367H163.727V362H158.727ZM134 362H129V367H134V362ZM134 273.909H165.455V263.909H134V273.909ZM160.829 270.807L182.465 323.534L191.717 319.738L170.08 267.011L160.829 270.807ZM187.091 326.636H188.182V316.636H187.091V326.636ZM192.808 323.534L214.444 270.807L205.192 267.011L183.556 319.738L192.808 323.534ZM209.818 273.909H241.273V263.909H209.818V273.909ZM236.273 268.909V362H246.273V268.909H236.273ZM241.273 357H216.545V367H241.273V357ZM221.545 362V308.182H211.545V362H221.545ZM216.545 303.182H215.818V313.182H216.545V303.182ZM211.161 306.363L190.433 359.454L199.749 363.091L220.476 310L211.161 306.363ZM195.091 356.273H180.182V366.273H195.091V356.273ZM184.844 359.465L164.116 306.011L154.793 309.626L175.52 363.08L184.844 359.465ZM159.455 302.818H158.727V312.818H159.455V302.818ZM153.727 307.818V362H163.727V307.818H153.727ZM158.727 357H134V367H158.727V357ZM139 362V268.909H129V362H139ZM253.614 362H248.614V367H253.614V362ZM253.614 292.182V287.182H248.614V292.182H253.614ZM278.705 292.182H283.705V287.182H278.705V292.182ZM278.705 362V367H283.705V362H278.705ZM257.432 281.545L254.037 285.216L254.037 285.216L257.432 281.545ZM257.432 265.364L254.037 261.693L254.037 261.693L257.432 265.364ZM274.886 265.364L271.468 269.013L271.48 269.023L271.491 269.034L274.886 265.364ZM274.886 281.545L271.491 277.875L271.48 277.886L271.468 277.896L274.886 281.545ZM258.614 362V292.182H248.614V362H258.614ZM253.614 297.182H278.705V287.182H253.614V297.182ZM273.705 292.182V362H283.705V292.182H273.705ZM278.705 357H253.614V367H278.705V357ZM266.159 279.909C263.985 279.909 262.299 279.237 260.827 277.875L254.037 285.216C257.413 288.339 261.545 289.909 266.159 289.909V279.909ZM260.827 277.875C259.371 276.528 258.795 275.139 258.795 273.455H248.795C248.795 278.073 250.644 282.078 254.037 285.216L260.827 277.875ZM258.795 273.455C258.795 271.77 259.371 270.381 260.827 269.034L254.037 261.693C250.644 264.831 248.795 268.836 248.795 273.455H258.795ZM260.827 269.034C262.299 267.672 263.985 267 266.159 267V257C261.545 257 257.413 258.57 254.037 261.693L260.827 269.034ZM266.159 267C268.375 267 270.045 267.679 271.468 269.013L278.305 261.715C274.94 258.563 270.791 257 266.159 257V267ZM271.491 269.034C272.948 270.381 273.523 271.77 273.523 273.455H283.523C283.523 268.836 281.674 264.831 278.282 261.693L271.491 269.034ZM273.523 273.455C273.523 275.139 272.948 276.528 271.491 277.875L278.282 285.216C281.674 282.078 283.523 278.073 283.523 273.455H273.523ZM271.468 277.896C270.045 279.23 268.375 279.909 266.159 279.909V289.909C270.791 289.909 274.94 288.346 278.305 285.195L271.468 277.896ZM316.58 322.727L311.58 322.661L311.58 322.694V322.727H316.58ZM316.58 362V367H321.58V362H316.58ZM291.489 362H286.489V367H291.489V362ZM291.489 292.182V287.182H286.489V292.182H291.489ZM315.307 292.182H320.307V287.182H315.307V292.182ZM315.307 305.455H310.307V310.455H315.307V305.455ZM316.034 305.455V310.455H319.607L320.764 307.075L316.034 305.455ZM324.034 295.045L321.299 290.86L321.291 290.865L321.284 290.87L324.034 295.045ZM350.352 294.682L347.702 298.922L347.723 298.935L347.744 298.947L350.352 294.682ZM358.852 303.955L354.394 306.218L354.401 306.232L354.408 306.245L358.852 303.955ZM361.852 317.455L356.852 317.425L356.852 317.44V317.455H361.852ZM361.852 362V367H366.852V362H361.852ZM336.761 362H331.761V367H336.761V362ZM336.761 322.727L331.762 322.683L331.761 322.705V322.727H336.761ZM334.125 314.591L330.394 317.92L330.408 317.936L330.423 317.951L334.125 314.591ZM321.352 313L323.861 317.325L323.874 317.317L323.887 317.31L321.352 313ZM317.852 316.818L322.324 319.054L322.333 319.038L322.341 319.022L317.852 316.818ZM311.58 322.727V362H321.58V322.727H311.58ZM316.58 357H291.489V367H316.58V357ZM296.489 362V292.182H286.489V362H296.489ZM291.489 297.182H315.307V287.182H291.489V297.182ZM310.307 292.182V305.455H320.307V292.182H310.307ZM315.307 310.455H316.034V300.455H315.307V310.455ZM320.764 307.075C321.93 303.672 323.914 301.112 326.785 299.221L321.284 290.87C316.518 294.009 313.169 298.389 311.304 303.835L320.764 307.075ZM326.769 299.231C329.714 297.307 333.224 296.273 337.489 296.273V286.273C331.51 286.273 326.051 287.754 321.299 290.86L326.769 299.231ZM337.489 296.273C341.636 296.273 344.975 297.218 347.702 298.922L353.002 290.442C348.456 287.601 343.22 286.273 337.489 286.273V296.273ZM347.744 298.947C350.597 300.693 352.801 303.08 354.394 306.218L363.311 301.691C360.904 296.95 357.441 293.156 352.961 290.416L347.744 298.947ZM354.408 306.245C356.019 309.371 356.879 313.056 356.852 317.425L366.852 317.484C366.887 311.732 365.746 306.417 363.297 301.664L354.408 306.245ZM356.852 317.455V362H366.852V317.455H356.852ZM361.852 357H336.761V367H361.852V357ZM341.761 362V322.727H331.761V362H341.761ZM341.761 322.771C341.799 318.446 340.689 314.383 337.827 311.23L330.423 317.951C331.137 318.738 331.784 320.099 331.762 322.683L341.761 322.771ZM337.856 311.262C334.966 308.023 331.036 306.636 326.761 306.636V316.636C328.79 316.636 329.769 317.219 330.394 317.92L337.856 311.262ZM326.761 306.636C323.944 306.636 321.24 307.265 318.817 308.69L323.887 317.31C324.556 316.917 325.457 316.636 326.761 316.636V306.636ZM318.844 308.675C316.421 310.08 314.59 312.117 313.364 314.615L322.341 319.022C322.751 318.186 323.253 317.678 323.861 317.325L318.844 308.675ZM313.38 314.582C312.149 317.044 311.618 319.794 311.58 322.661L321.579 322.793C321.602 321.054 321.919 319.865 322.324 319.054L313.38 314.582ZM385.784 359L383.126 363.235L383.133 363.239L383.14 363.243L385.784 359ZM375.784 347.136L371.256 349.258L371.261 349.268L371.266 349.279L375.784 347.136ZM375.966 306.545L371.494 304.309L371.489 304.32L371.484 304.33L375.966 306.545ZM386.148 294.955L383.617 290.642L383.61 290.646L383.603 290.651L386.148 294.955ZM408.42 293.091L406.312 297.625L406.334 297.635L406.355 297.645L408.42 293.091ZM414.966 297.864L411.21 301.164L411.223 301.178L411.235 301.193L414.966 297.864ZM418.966 304.364L414.299 306.159L415.532 309.364H418.966V304.364ZM419.33 304.364V309.364H424.33V304.364H419.33ZM419.33 268.909V263.909H414.33V268.909H419.33ZM444.42 268.909H449.42V263.909H444.42V268.909ZM444.42 362V367H449.42V362H444.42ZM419.511 362H414.511V367H419.511V362ZM419.511 350.545H424.511V345.545H419.511V350.545ZM418.966 350.545V345.545H415.613L414.34 348.648L418.966 350.545ZM414.784 356.909L411.191 353.432L411.19 353.433L414.784 356.909ZM408.239 361.318L410.162 365.934L410.175 365.928L410.189 365.922L408.239 361.318ZM414.693 341.636L417.852 345.513L417.859 345.506L414.693 341.636ZM418.511 335.909L413.816 334.191L413.81 334.207L413.804 334.224L418.511 335.909ZM418.511 318.227L413.797 319.894L413.81 319.929L413.823 319.964L418.511 318.227ZM414.693 312.545L411.535 316.422L411.574 316.453L411.614 316.484L414.693 312.545ZM402.875 312.545L406.025 316.428L406.033 316.422L402.875 312.545ZM399.148 318.227L394.434 316.56L394.428 316.577L394.422 316.594L399.148 318.227ZM399.148 336L394.416 337.616L394.428 337.651L394.44 337.685L399.148 336ZM402.875 341.682L399.681 345.529L399.72 345.561L399.76 345.593L402.875 341.682ZM399.511 357.909C395.468 357.909 391.81 356.864 388.429 354.757L383.14 363.243C388.122 366.348 393.615 367.909 399.511 367.909V357.909ZM388.442 354.765C385.244 352.758 382.49 349.608 380.302 344.994L371.266 349.279C374.108 355.271 378.021 360.03 383.126 363.235L388.442 354.765ZM380.312 345.015C378.232 340.577 377.057 334.678 377.057 327.091H367.057C367.057 335.625 368.366 343.09 371.256 349.258L380.312 345.015ZM377.057 327.091C377.057 319.126 378.297 313.113 380.448 308.761L371.484 304.33C368.422 310.524 367.057 318.208 367.057 327.091H377.057ZM380.438 308.782C382.74 304.177 385.536 301.125 388.692 299.259L383.603 290.651C378.456 293.694 374.464 298.369 371.494 304.309L380.438 308.782ZM388.679 299.267C392.135 297.238 395.661 296.273 399.33 296.273V286.273C393.786 286.273 388.524 287.762 383.617 290.642L388.679 299.267ZM399.33 296.273C402.2 296.273 404.486 296.775 406.312 297.625L410.529 288.557C407.143 286.982 403.368 286.273 399.33 286.273V296.273ZM406.355 297.645C408.364 298.556 409.955 299.736 411.21 301.164L418.722 294.563C416.462 291.991 413.689 289.99 410.485 288.537L406.355 297.645ZM411.235 301.193C412.608 302.731 413.616 304.382 414.299 306.159L423.633 302.569C422.498 299.618 420.839 296.936 418.697 294.535L411.235 301.193ZM418.966 309.364H419.33V299.364H418.966V309.364ZM424.33 304.364V268.909H414.33V304.364H424.33ZM419.33 273.909H444.42V263.909H419.33V273.909ZM439.42 268.909V362H449.42V268.909H439.42ZM444.42 357H419.511V367H444.42V357ZM424.511 362V350.545H414.511V362H424.511ZM419.511 345.545H418.966V355.545H419.511V345.545ZM414.34 348.648C413.617 350.41 412.578 351.998 411.191 353.432L418.377 360.386C420.626 358.062 422.375 355.408 423.592 352.443L414.34 348.648ZM411.19 353.433C409.909 354.758 408.301 355.862 406.289 356.714L410.189 365.922C413.328 364.593 416.084 362.757 418.378 360.385L411.19 353.433ZM406.316 356.703C404.482 357.467 402.245 357.909 399.511 357.909V367.909C403.323 367.909 406.904 367.291 410.162 365.934L406.316 356.703ZM408.784 348.636C412.126 348.636 415.24 347.641 417.852 345.513L411.535 337.76C410.874 338.299 410.048 338.636 408.784 338.636V348.636ZM417.859 345.506C420.363 343.457 422.099 340.723 423.219 337.594L413.804 334.224C413.167 336.004 412.356 337.088 411.527 337.767L417.859 345.506ZM423.207 337.627C424.365 334.461 424.875 330.913 424.875 327.091H414.875C414.875 330.057 414.476 332.388 413.816 334.191L423.207 337.627ZM424.875 327.091C424.875 323.222 424.369 319.647 423.2 316.491L413.823 319.964C414.472 321.716 414.875 324.05 414.875 327.091H424.875ZM423.225 316.56C422.107 313.398 420.354 310.625 417.773 308.606L411.614 316.484C412.365 317.072 413.158 318.087 413.797 319.894L423.225 316.56ZM417.852 308.669C415.24 306.541 412.126 305.545 408.784 305.545V315.545C410.048 315.545 410.874 315.883 411.535 316.422L417.852 308.669ZM408.784 305.545C405.442 305.545 402.328 306.541 399.717 308.669L406.033 316.422C406.694 315.883 407.52 315.545 408.784 315.545V305.545ZM399.725 308.663C397.232 310.685 395.537 313.442 394.434 316.56L403.862 319.894C404.516 318.043 405.306 317.012 406.025 316.428L399.725 308.663ZM394.422 316.594C393.343 319.715 392.875 323.253 392.875 327.091H402.875C402.875 324.02 403.255 321.649 403.873 319.861L394.422 316.594ZM392.875 327.091C392.875 330.932 393.344 334.476 394.416 337.616L403.879 334.384C403.255 332.554 402.875 330.159 402.875 327.091H392.875ZM394.44 337.685C395.547 340.775 397.234 343.497 399.681 345.529L406.069 337.835C405.304 337.2 404.506 336.134 403.855 334.315L394.44 337.685ZM399.76 345.593C402.372 347.673 405.471 348.636 408.784 348.636V338.636C407.491 338.636 406.65 338.297 405.99 337.77L399.76 345.593ZM520.557 314.909V319.909H525.766L525.553 314.704L520.557 314.909ZM497.466 314.909L492.484 315.333L492.873 319.909H497.466V314.909ZM495.966 311.227L499.77 307.983L499.77 307.983L495.966 311.227ZM492.557 308.864L490.612 313.47L490.673 313.496L490.735 313.52L492.557 308.864ZM482.466 309.182L480.195 304.727L480.195 304.727L482.466 309.182ZM480.193 312.545L485.191 312.692L485.195 312.567L485.192 312.441L480.193 312.545ZM481.511 315.409L478.036 319.004L478.066 319.032L478.096 319.06L481.511 315.409ZM486.92 317.455L486.026 322.374L486.037 322.376L486.92 317.455ZM501.102 320L501.999 315.081L501.986 315.079L501.102 320ZM517.057 326.591L513.739 330.332L513.756 330.347L513.774 330.362L517.057 326.591ZM522.375 338.909L527.375 338.94L527.375 338.91L527.375 338.88L522.375 338.909ZM517.92 351.864L514.019 348.736L514.016 348.74L517.92 351.864ZM505.966 360.318L507.789 364.974L507.796 364.971L507.804 364.968L505.966 360.318ZM463.693 356.727L460.752 360.771L460.762 360.778L463.693 356.727ZM453.648 339.455V334.455H448.137L448.671 339.94L453.648 339.455ZM478.557 339.455L483.501 338.71L482.86 334.455H478.557V339.455ZM481.83 344.591L479.088 348.772L479.127 348.798L479.167 348.823L481.83 344.591ZM494.602 345.182L492.296 340.746L492.277 340.755L492.259 340.765L494.602 345.182ZM496.92 341.818L501.919 341.922L501.922 341.813L501.919 341.705L496.92 341.818ZM494.92 338.636L492.289 342.888L492.311 342.901L492.333 342.915L494.92 338.636ZM488.92 336.727L489.796 331.804L489.789 331.803L488.92 336.727ZM476.557 334.545L477.426 329.622L477.416 329.62L476.557 334.545ZM460.557 327.455L464.062 323.889L464.062 323.889L460.557 327.455ZM455.284 314L460.284 314.028L460.284 313.998L460.284 313.969L455.284 314ZM459.102 301.682L455.137 298.637L455.133 298.642L459.102 301.682ZM470.239 293.955L471.952 298.652L471.96 298.649L471.969 298.646L470.239 293.955ZM511.33 297.545L508.411 301.606L508.421 301.613L511.33 297.545ZM520.557 309.909H497.466V319.909H520.557V309.909ZM502.448 314.485C502.243 312.082 501.365 309.853 499.77 307.983L492.162 314.472C492.324 314.662 492.446 314.888 492.484 315.333L502.448 314.485ZM499.77 307.983C498.302 306.262 496.457 305.021 494.379 304.207L490.735 313.52C491.444 313.797 491.872 314.132 492.162 314.472L499.77 307.983ZM494.502 304.257C492.45 303.391 490.262 303 488.011 303V313C489.094 313 489.937 313.185 490.612 313.47L494.502 304.257ZM488.011 303C485.256 303 482.593 303.505 480.195 304.727L484.737 313.636C485.43 313.283 486.463 313 488.011 313V303ZM480.195 304.727C478.876 305.4 477.564 306.382 476.596 307.814C475.594 309.297 475.159 310.971 475.194 312.65L485.192 312.441C485.194 312.529 485.185 312.682 485.13 312.876C485.075 313.072 484.987 313.257 484.882 313.413C484.671 313.724 484.511 313.752 484.737 313.636L480.195 304.727ZM475.195 312.398C475.115 315.145 476.363 317.387 478.036 319.004L484.986 311.814C484.889 311.72 484.956 311.756 485.042 311.943C485.138 312.153 485.199 312.421 485.191 312.692L475.195 312.398ZM478.096 319.06C480.171 321.002 483.254 321.87 486.026 322.374L487.815 312.535C486.67 312.327 485.867 312.103 485.337 311.903C484.77 311.689 484.744 311.586 484.927 311.758L478.096 319.06ZM486.037 322.376L500.219 324.921L501.986 315.079L487.804 312.533L486.037 322.376ZM500.206 324.919C506.919 326.142 511.22 328.097 513.739 330.332L520.375 322.85C515.924 318.903 509.588 316.464 501.999 315.081L500.206 324.919ZM513.774 330.362C516.084 332.374 517.352 335.053 517.375 338.939L527.375 338.88C527.337 332.462 525.06 326.929 520.34 322.82L513.774 330.362ZM517.375 338.879C517.351 342.791 516.212 346.001 514.019 348.736L521.822 354.991C525.508 350.393 527.338 344.966 527.375 338.94L517.375 338.879ZM514.016 348.74C511.737 351.589 508.516 353.934 504.128 355.668L507.804 364.968C513.537 362.702 518.286 359.411 521.825 354.987L514.016 348.74ZM504.143 355.662C499.795 357.365 494.688 358.273 488.739 358.273V368.273C495.698 368.273 502.077 367.211 507.789 364.974L504.143 355.662ZM488.739 358.273C478.685 358.273 471.504 356.208 466.624 352.677L460.762 360.778C467.943 365.974 477.458 368.273 488.739 368.273V358.273ZM466.634 352.684C461.747 349.13 459.177 344.647 458.624 338.97L448.671 339.94C449.512 348.566 453.639 355.598 460.752 360.771L466.634 352.684ZM453.648 344.455H478.557V334.455H453.648V344.455ZM473.613 340.2C474.155 343.799 476.033 346.769 479.088 348.772L484.571 340.41C483.929 339.988 483.625 339.535 483.501 338.71L473.613 340.2ZM479.167 348.823C482.04 350.631 485.393 351.364 488.92 351.364V341.364C486.75 341.364 485.376 340.915 484.492 340.359L479.167 348.823ZM488.92 351.364C491.753 351.364 494.522 350.885 496.946 349.599L492.259 340.765C491.713 341.055 490.694 341.364 488.92 341.364V351.364ZM496.909 349.618C499.707 348.163 501.844 345.557 501.919 341.922L491.922 341.714C491.923 341.645 491.935 341.519 491.985 341.358C492.036 341.196 492.112 341.043 492.201 340.913C492.382 340.651 492.509 340.635 492.296 340.746L496.909 349.618ZM501.919 341.705C501.844 338.395 500.03 335.883 497.508 334.358L492.333 342.915C492.459 342.991 492.326 342.941 492.165 342.684C492.086 342.558 492.021 342.415 491.978 342.267C491.935 342.121 491.923 342.003 491.922 341.932L501.919 341.705ZM497.552 334.385C495.462 333.091 492.708 332.322 489.796 331.804L488.045 341.65C490.588 342.102 491.834 342.606 492.289 342.888L497.552 334.385ZM489.789 331.803L477.426 329.622L475.688 339.469L488.052 341.651L489.789 331.803ZM477.416 329.62C470.862 328.476 466.624 326.407 464.062 323.889L457.052 331.02C461.581 335.472 468.009 338.13 475.697 339.471L477.416 329.62ZM464.062 323.889C461.584 321.453 460.26 318.316 460.284 314.028L450.284 313.972C450.247 320.654 452.439 326.486 457.052 331.02L464.062 323.889ZM460.284 313.969C460.26 310.062 461.266 307.08 463.072 304.722L455.133 298.642C451.787 303.011 450.248 308.241 450.284 314.031L460.284 313.969ZM463.068 304.727C464.989 302.225 467.847 300.149 471.952 298.652L468.525 289.257C462.994 291.275 458.427 294.351 455.137 298.637L463.068 304.727ZM471.969 298.646C476.131 297.111 481.26 296.273 487.466 296.273V286.273C480.399 286.273 474.043 287.222 468.509 289.263L471.969 298.646ZM487.466 296.273C496.924 296.273 503.727 298.239 508.411 301.606L514.248 293.485C507.295 288.488 498.19 286.273 487.466 286.273V296.273ZM508.421 301.613C512.973 304.868 515.319 309.208 515.561 315.114L525.553 314.704C525.189 305.823 521.383 298.587 514.238 293.478L508.421 301.613ZM546.17 359L543.806 363.406L543.821 363.414L543.836 363.421L546.17 359ZM533.761 346.636L529.35 348.991L529.358 349.005L529.366 349.02L533.761 346.636ZM533.807 308.364L538.208 310.737L538.208 310.737L533.807 308.364ZM546.125 295.773L548.587 300.125L548.587 300.125L546.125 295.773ZM579.216 293.727L581.004 289.058L581.004 289.058L579.216 293.727ZM590.17 300.864L586.583 304.347L586.592 304.355L586.6 304.364L590.17 300.864ZM597.17 312.136L592.481 313.871L592.481 313.871L597.17 312.136ZM599.625 332.909V337.909H604.625V332.909H599.625ZM537.261 332.909H532.261V337.909H537.261V332.909ZM537.261 319.091V314.091H532.261V319.091H537.261ZM576.534 319.091V324.091H581.61L581.534 319.015L576.534 319.091ZM574.989 313.818L570.753 316.476L570.784 316.524L570.816 316.572L574.989 313.818ZM571.034 310.227L568.668 314.632L568.717 314.658L568.766 314.683L571.034 310.227ZM559.852 310.227L562.088 314.699L562.12 314.684L562.152 314.667L559.852 310.227ZM555.761 313.773L551.627 310.961L551.607 310.99L551.588 311.019L555.761 313.773ZM554.17 319.091L549.173 318.942L549.17 319.016V319.091H554.17ZM555.58 340L551.17 342.357L551.17 342.357L555.58 340ZM559.625 344.136L557.152 348.482L557.152 348.482L559.625 344.136ZM570.716 344.909L569.135 340.166L569.12 340.171L569.105 340.176L570.716 344.909ZM574.443 342.818L577.751 346.567L577.782 346.54L577.812 346.513L574.443 342.818ZM576.716 339.455V334.455H573.241L572.03 337.711L576.716 339.455ZM599.625 339.455L604.56 340.257L605.503 334.455H599.625V339.455ZM594.034 352.091L597.883 355.282L597.89 355.274L597.897 355.266L594.034 352.091ZM582.352 360.364L584.219 365.002L584.227 364.999L584.234 364.996L582.352 360.364ZM565.443 358.273C558.624 358.273 553.037 356.972 548.505 354.579L543.836 363.421C550.092 366.725 557.353 368.273 565.443 368.273V358.273ZM548.535 354.594C544.033 352.178 540.602 348.761 538.157 344.253L529.366 349.02C532.739 355.239 537.58 360.064 543.806 363.406L548.535 354.594ZM538.172 344.282C535.759 339.761 534.443 334.152 534.443 327.273H524.443C524.443 335.423 526.006 342.724 529.35 348.991L538.172 344.282ZM534.443 327.273C534.443 320.742 535.756 315.283 538.208 310.737L529.406 305.99C526.039 312.232 524.443 319.379 524.443 327.273H534.443ZM538.208 310.737C540.672 306.167 544.109 302.658 548.587 300.125L543.663 291.421C537.535 294.887 532.759 299.772 529.406 305.99L538.208 310.737ZM548.587 300.125C553.012 297.621 558.389 296.273 564.898 296.273V286.273C556.982 286.273 549.844 287.924 543.663 291.421L548.587 300.125ZM564.898 296.273C569.651 296.273 573.806 297.009 577.428 298.397L581.004 289.058C576.081 287.172 570.69 286.273 564.898 286.273V296.273ZM577.428 298.397C581.058 299.787 584.085 301.774 586.583 304.347L593.758 297.381C590.195 293.711 585.92 290.941 581.004 289.058L577.428 298.397ZM586.6 304.364C589.094 306.908 591.067 310.048 592.481 313.871L601.86 310.402C600.001 305.377 597.307 301.001 593.741 297.363L586.6 304.364ZM592.481 313.871C593.879 317.652 594.625 322.036 594.625 327.091H604.625C604.625 321.055 603.734 315.469 601.86 310.402L592.481 313.871ZM594.625 327.091V332.909H604.625V327.091H594.625ZM599.625 327.909H537.261V337.909H599.625V327.909ZM542.261 332.909V319.091H532.261V332.909H542.261ZM537.261 324.091H576.534V314.091H537.261V324.091ZM581.534 319.015C581.49 316.162 580.74 313.455 579.162 311.064L570.816 316.572C571.238 317.212 571.517 318.019 571.535 319.167L581.534 319.015ZM579.224 311.161C577.761 308.829 575.754 307.02 573.303 305.771L568.766 314.683C569.647 315.132 570.277 315.716 570.753 316.476L579.224 311.161ZM573.4 305.822C570.949 304.506 568.254 303.909 565.443 303.909V313.909C566.814 313.909 567.847 314.191 568.668 314.632L573.4 305.822ZM565.443 303.909C562.664 303.909 560.005 304.518 557.553 305.787L562.152 314.667C563.094 314.179 564.162 313.909 565.443 313.909V303.909ZM557.616 305.755C555.183 306.972 553.155 308.714 551.627 310.961L559.896 316.584C560.428 315.801 561.128 315.18 562.088 314.699L557.616 305.755ZM551.588 311.019C550.018 313.398 549.258 316.097 549.173 318.942L559.168 319.24C559.205 318.024 559.505 317.178 559.934 316.527L551.588 311.019ZM549.17 319.091V334H559.17V319.091H549.17ZM549.17 334C549.17 336.96 549.797 339.787 551.17 342.357L559.989 337.643C559.484 336.697 559.17 335.525 559.17 334H549.17ZM551.17 342.357C552.561 344.96 554.587 347.023 557.152 348.482L562.098 339.791C561.148 339.25 560.477 338.555 559.989 337.643L551.17 342.357ZM557.152 348.482C559.818 349.999 562.834 350.636 565.989 350.636V340.636C564.174 340.636 562.947 340.274 562.098 339.791L557.152 348.482ZM565.989 350.636C568.184 350.636 570.314 350.328 572.327 349.642L569.105 340.176C568.27 340.46 567.248 340.636 565.989 340.636V350.636ZM572.297 349.653C574.314 348.98 576.163 347.969 577.751 346.567L571.135 339.069C570.663 339.485 570.027 339.868 569.135 340.166L572.297 349.653ZM577.812 346.513C579.429 345.039 580.639 343.249 581.402 341.198L572.03 337.711C571.823 338.266 571.518 338.719 571.074 339.123L577.812 346.513ZM576.716 344.455H599.625V334.455H576.716V344.455ZM594.69 338.653C594.035 342.685 592.515 346.065 590.172 348.916L597.897 355.266C601.432 350.966 603.64 345.922 604.56 340.257L594.69 338.653ZM590.185 348.9C587.84 351.728 584.66 354.029 580.47 355.731L584.234 364.996C589.742 362.758 594.349 359.545 597.883 355.282L590.185 348.9ZM580.485 355.725C576.385 357.376 571.408 358.273 565.443 358.273V368.273C572.387 368.273 578.683 367.231 584.219 365.002L580.485 355.725ZM651.5 292.182H656.5V287.182H651.5V292.182ZM651.5 310.364V315.364H656.5V310.364H651.5ZM605.5 310.364H600.5V315.364H605.5V310.364ZM605.5 292.182V287.182H600.5V292.182H605.5ZM614.409 275.455V270.455H609.409V275.455H614.409ZM639.5 275.455H644.5V270.455H639.5V275.455ZM640 342L635.528 344.236L635.549 344.278L635.571 344.32L640 342ZM641.545 343.455L639.388 347.965L639.469 348.004L639.552 348.04L641.545 343.455ZM646.864 343.636L645.995 338.712L645.982 338.715L645.969 338.717L646.864 343.636ZM649.136 343.182L654.033 342.172L652.981 337.067L647.924 338.331L649.136 343.182ZM652.773 360.818L654.198 365.611L658.596 364.303L657.67 359.808L652.773 360.818ZM647.955 362.045L646.825 357.175L646.817 357.177L646.809 357.178L647.955 362.045ZM640.591 363L640.854 367.993L640.856 367.993L640.591 363ZM626.091 361.227L624.284 365.889L624.3 365.895L624.315 365.901L626.091 361.227ZM617.273 354.091L612.999 356.687L612.999 356.687L617.273 354.091ZM614.409 341.909L619.409 341.971L619.409 341.94V341.909H614.409ZM646.5 292.182V310.364H656.5V292.182H646.5ZM651.5 305.364H605.5V315.364H651.5V305.364ZM610.5 310.364V292.182H600.5V310.364H610.5ZM605.5 297.182H651.5V287.182H605.5V297.182ZM614.409 280.455H639.5V270.455H614.409V280.455ZM634.5 275.455V339.545H644.5V275.455H634.5ZM634.5 339.545C634.5 341.066 634.759 342.698 635.528 344.236L644.472 339.764C644.523 339.867 644.531 339.919 644.524 339.888C644.518 339.855 644.5 339.747 644.5 339.545H634.5ZM635.571 344.32C636.444 345.987 637.795 347.203 639.388 347.965L643.703 338.944C643.777 338.979 643.912 339.058 644.063 339.2C644.217 339.345 644.342 339.513 644.429 339.68L635.571 344.32ZM639.552 348.04C641.089 348.708 642.726 348.909 644.227 348.909V338.909C643.908 338.909 643.696 338.886 643.574 338.866C643.452 338.845 643.454 338.832 643.539 338.869L639.552 348.04ZM644.227 348.909C645.366 348.909 646.556 348.774 647.758 348.556L645.969 338.717C645.171 338.862 644.603 338.909 644.227 338.909V348.909ZM647.733 348.56C648.782 348.375 649.684 348.199 650.349 348.033L647.924 338.331C647.619 338.407 647.006 338.534 645.995 338.712L647.733 348.56ZM644.239 344.192L647.876 361.828L657.67 359.808L654.033 342.172L644.239 344.192ZM651.348 356.026C650.373 356.315 648.884 356.697 646.825 357.175L649.084 366.916C651.207 366.424 652.93 365.988 654.198 365.611L651.348 356.026ZM646.809 357.178C645.117 357.576 642.972 357.866 640.325 358.007L640.856 367.993C643.907 367.831 646.671 367.484 649.1 366.913L646.809 357.178ZM640.328 358.007C635.018 358.286 630.929 357.716 627.866 356.553L624.315 365.901C629.071 367.708 634.648 368.32 640.854 367.993L640.328 358.007ZM627.898 356.565C624.902 355.404 622.883 353.696 621.546 351.495L612.999 356.687C615.602 360.97 619.462 364.02 624.284 365.889L627.898 356.565ZM621.546 351.495C620.184 349.252 619.356 346.178 619.409 341.971L609.409 341.847C609.341 347.398 610.422 352.445 612.999 356.687L621.546 351.495ZM619.409 341.909V275.455H609.409V341.909H619.409ZM686.875 268.909V263.909H681.875V268.909H686.875ZM718.33 268.909L722.955 267.011L721.682 263.909H718.33V268.909ZM739.966 321.636L735.34 323.534L736.613 326.636H739.966V321.636ZM741.057 321.636V326.636H744.41L745.683 323.534L741.057 321.636ZM762.693 268.909V263.909H759.34L758.067 267.011L762.693 268.909ZM794.148 268.909H799.148V263.909H794.148V268.909ZM794.148 362V367H799.148V362H794.148ZM769.42 362H764.42V367H769.42V362ZM769.42 308.182H774.42V303.182H769.42V308.182ZM768.693 308.182V303.182H765.278L764.036 306.363L768.693 308.182ZM747.966 361.273V366.273H751.381L752.624 363.091L747.966 361.273ZM733.057 361.273L728.395 363.08L729.633 366.273H733.057V361.273ZM712.33 307.818L716.991 306.011L715.753 302.818H712.33V307.818ZM711.602 307.818V302.818H706.602V307.818H711.602ZM711.602 362V367H716.602V362H711.602ZM686.875 362H681.875V367H686.875V362ZM686.875 273.909H718.33V263.909H686.875V273.909ZM713.704 270.807L735.34 323.534L744.592 319.738L722.955 267.011L713.704 270.807ZM739.966 326.636H741.057V316.636H739.966V326.636ZM745.683 323.534L767.319 270.807L758.067 267.011L736.431 319.738L745.683 323.534ZM762.693 273.909H794.148V263.909H762.693V273.909ZM789.148 268.909V362H799.148V268.909H789.148ZM794.148 357H769.42V367H794.148V357ZM774.42 362V308.182H764.42V362H774.42ZM769.42 303.182H768.693V313.182H769.42V303.182ZM764.036 306.363L743.308 359.454L752.624 363.091L773.351 310L764.036 306.363ZM747.966 356.273H733.057V366.273H747.966V356.273ZM737.719 359.465L716.991 306.011L707.668 309.626L728.395 363.08L737.719 359.465ZM712.33 302.818H711.602V312.818H712.33V302.818ZM706.602 307.818V362H716.602V307.818H706.602ZM711.602 357H686.875V367H711.602V357ZM691.875 362V268.909H681.875V362H691.875ZM820.67 359L818.306 363.406L818.321 363.414L818.336 363.421L820.67 359ZM808.261 346.636L803.85 348.991L803.858 349.005L803.866 349.02L808.261 346.636ZM808.307 308.364L812.708 310.737L812.708 310.737L808.307 308.364ZM820.625 295.773L823.087 300.125L823.087 300.125L820.625 295.773ZM853.716 293.727L855.504 289.058L855.504 289.058L853.716 293.727ZM864.67 300.864L861.083 304.347L861.092 304.355L861.1 304.364L864.67 300.864ZM871.67 312.136L866.981 313.871L866.981 313.871L871.67 312.136ZM874.125 332.909V337.909H879.125V332.909H874.125ZM811.761 332.909H806.761V337.909H811.761V332.909ZM811.761 319.091V314.091H806.761V319.091H811.761ZM851.034 319.091V324.091H856.11L856.034 319.015L851.034 319.091ZM849.489 313.818L845.253 316.476L845.284 316.524L845.316 316.572L849.489 313.818ZM845.534 310.227L843.168 314.632L843.217 314.658L843.266 314.683L845.534 310.227ZM834.352 310.227L836.588 314.699L836.62 314.684L836.652 314.667L834.352 310.227ZM830.261 313.773L826.127 310.961L826.107 310.99L826.088 311.019L830.261 313.773ZM828.67 319.091L823.673 318.942L823.67 319.016V319.091H828.67ZM830.08 340L825.67 342.357L825.67 342.357L830.08 340ZM834.125 344.136L831.652 348.482L831.652 348.482L834.125 344.136ZM845.216 344.909L843.635 340.166L843.62 340.171L843.605 340.176L845.216 344.909ZM848.943 342.818L852.251 346.567L852.282 346.54L852.312 346.513L848.943 342.818ZM851.216 339.455V334.455H847.741L846.53 337.711L851.216 339.455ZM874.125 339.455L879.06 340.257L880.003 334.455H874.125V339.455ZM868.534 352.091L872.383 355.282L872.39 355.274L872.397 355.266L868.534 352.091ZM856.852 360.364L858.719 365.002L858.727 364.999L858.734 364.996L856.852 360.364ZM839.943 358.273C833.124 358.273 827.537 356.972 823.005 354.579L818.336 363.421C824.592 366.725 831.853 368.273 839.943 368.273V358.273ZM823.035 354.594C818.533 352.178 815.102 348.761 812.657 344.253L803.866 349.02C807.239 355.239 812.08 360.064 818.306 363.406L823.035 354.594ZM812.672 344.282C810.259 339.761 808.943 334.152 808.943 327.273H798.943C798.943 335.423 800.506 342.724 803.85 348.991L812.672 344.282ZM808.943 327.273C808.943 320.742 810.256 315.283 812.708 310.737L803.906 305.99C800.539 312.232 798.943 319.379 798.943 327.273H808.943ZM812.708 310.737C815.172 306.167 818.609 302.658 823.087 300.125L818.163 291.421C812.035 294.887 807.259 299.772 803.906 305.99L812.708 310.737ZM823.087 300.125C827.512 297.621 832.889 296.273 839.398 296.273V286.273C831.482 286.273 824.344 287.924 818.163 291.421L823.087 300.125ZM839.398 296.273C844.151 296.273 848.306 297.009 851.928 298.397L855.504 289.058C850.581 287.172 845.19 286.273 839.398 286.273V296.273ZM851.928 298.397C855.558 299.787 858.585 301.774 861.083 304.347L868.258 297.381C864.695 293.711 860.42 290.941 855.504 289.058L851.928 298.397ZM861.1 304.364C863.594 306.908 865.567 310.048 866.981 313.871L876.36 310.402C874.501 305.377 871.807 301.001 868.241 297.363L861.1 304.364ZM866.981 313.871C868.379 317.652 869.125 322.036 869.125 327.091H879.125C879.125 321.055 878.234 315.469 876.36 310.402L866.981 313.871ZM869.125 327.091V332.909H879.125V327.091H869.125ZM874.125 327.909H811.761V337.909H874.125V327.909ZM816.761 332.909V319.091H806.761V332.909H816.761ZM811.761 324.091H851.034V314.091H811.761V324.091ZM856.034 319.015C855.99 316.162 855.24 313.455 853.662 311.064L845.316 316.572C845.738 317.212 846.017 318.019 846.035 319.167L856.034 319.015ZM853.724 311.161C852.261 308.829 850.254 307.02 847.803 305.771L843.266 314.683C844.147 315.132 844.777 315.716 845.253 316.476L853.724 311.161ZM847.9 305.822C845.449 304.506 842.754 303.909 839.943 303.909V313.909C841.314 313.909 842.347 314.191 843.168 314.632L847.9 305.822ZM839.943 303.909C837.164 303.909 834.505 304.518 832.053 305.787L836.652 314.667C837.594 314.179 838.662 313.909 839.943 313.909V303.909ZM832.116 305.755C829.683 306.972 827.655 308.714 826.127 310.961L834.396 316.584C834.928 315.801 835.628 315.18 836.588 314.699L832.116 305.755ZM826.088 311.019C824.518 313.398 823.758 316.097 823.673 318.942L833.668 319.24C833.705 318.024 834.005 317.178 834.434 316.527L826.088 311.019ZM823.67 319.091V334H833.67V319.091H823.67ZM823.67 334C823.67 336.96 824.297 339.787 825.67 342.357L834.489 337.643C833.984 336.697 833.67 335.525 833.67 334H823.67ZM825.67 342.357C827.061 344.96 829.087 347.023 831.652 348.482L836.598 339.791C835.648 339.25 834.977 338.555 834.489 337.643L825.67 342.357ZM831.652 348.482C834.318 349.999 837.334 350.636 840.489 350.636V340.636C838.674 340.636 837.447 340.274 836.598 339.791L831.652 348.482ZM840.489 350.636C842.684 350.636 844.814 350.328 846.827 349.642L843.605 340.176C842.77 340.46 841.748 340.636 840.489 340.636V350.636ZM846.797 349.653C848.814 348.98 850.663 347.969 852.251 346.567L845.635 339.069C845.163 339.485 844.527 339.868 843.635 340.166L846.797 349.653ZM852.312 346.513C853.929 345.039 855.139 343.249 855.902 341.198L846.53 337.711C846.323 338.266 846.018 338.719 845.574 339.123L852.312 346.513ZM851.216 344.455H874.125V334.455H851.216V344.455ZM869.19 338.653C868.535 342.685 867.015 346.065 864.672 348.916L872.397 355.266C875.932 350.966 878.14 345.922 879.06 340.257L869.19 338.653ZM864.685 348.9C862.34 351.728 859.16 354.029 854.97 355.731L858.734 364.996C864.242 362.758 868.849 359.545 872.383 355.282L864.685 348.9ZM854.985 355.725C850.885 357.376 845.908 358.273 839.943 358.273V368.273C846.887 368.273 853.183 367.231 858.719 365.002L854.985 355.725ZM909.455 268.909H914.455V263.909H909.455V268.909ZM909.455 362V367H914.455V362H909.455ZM884.364 362H879.364V367H884.364V362ZM884.364 268.909V263.909H879.364V268.909H884.364ZM904.455 268.909V362H914.455V268.909H904.455ZM909.455 357H884.364V367H909.455V357ZM889.364 362V268.909H879.364V362H889.364ZM884.364 273.909H909.455V263.909H884.364V273.909ZM936.42 359L934.056 363.406L934.071 363.414L934.086 363.421L936.42 359ZM924.011 346.636L919.6 348.991L919.608 349.005L919.616 349.02L924.011 346.636ZM924.057 308.364L928.458 310.737L928.458 310.737L924.057 308.364ZM936.375 295.773L938.837 300.125L938.837 300.125L936.375 295.773ZM969.466 293.727L971.254 289.058L971.254 289.058L969.466 293.727ZM980.42 300.864L976.833 304.347L976.842 304.355L976.85 304.364L980.42 300.864ZM987.42 312.136L982.731 313.871L982.731 313.871L987.42 312.136ZM989.875 332.909V337.909H994.875V332.909H989.875ZM927.511 332.909H922.511V337.909H927.511V332.909ZM927.511 319.091V314.091H922.511V319.091H927.511ZM966.784 319.091V324.091H971.86L971.784 319.015L966.784 319.091ZM965.239 313.818L961.003 316.476L961.034 316.524L961.066 316.572L965.239 313.818ZM961.284 310.227L958.918 314.632L958.967 314.658L959.016 314.683L961.284 310.227ZM950.102 310.227L952.338 314.699L952.37 314.684L952.402 314.667L950.102 310.227ZM946.011 313.773L941.877 310.961L941.857 310.99L941.838 311.019L946.011 313.773ZM944.42 319.091L939.423 318.942L939.42 319.016V319.091H944.42ZM945.83 340L941.42 342.357L941.42 342.357L945.83 340ZM949.875 344.136L947.402 348.482L947.402 348.482L949.875 344.136ZM960.966 344.909L959.385 340.166L959.37 340.171L959.355 340.176L960.966 344.909ZM964.693 342.818L968.001 346.567L968.032 346.54L968.062 346.513L964.693 342.818ZM966.966 339.455V334.455H963.491L962.28 337.711L966.966 339.455ZM989.875 339.455L994.81 340.257L995.753 334.455H989.875V339.455ZM984.284 352.091L988.133 355.282L988.14 355.274L988.147 355.266L984.284 352.091ZM972.602 360.364L974.469 365.002L974.477 364.999L974.484 364.996L972.602 360.364ZM955.693 358.273C948.874 358.273 943.287 356.972 938.755 354.579L934.086 363.421C940.342 366.725 947.603 368.273 955.693 368.273V358.273ZM938.785 354.594C934.283 352.178 930.852 348.761 928.407 344.253L919.616 349.02C922.989 355.239 927.83 360.064 934.056 363.406L938.785 354.594ZM928.422 344.282C926.009 339.761 924.693 334.152 924.693 327.273H914.693C914.693 335.423 916.256 342.724 919.6 348.991L928.422 344.282ZM924.693 327.273C924.693 320.742 926.006 315.283 928.458 310.737L919.656 305.99C916.289 312.232 914.693 319.379 914.693 327.273H924.693ZM928.458 310.737C930.922 306.167 934.359 302.658 938.837 300.125L933.913 291.421C927.785 294.887 923.009 299.772 919.656 305.99L928.458 310.737ZM938.837 300.125C943.262 297.621 948.639 296.273 955.148 296.273V286.273C947.232 286.273 940.094 287.924 933.913 291.421L938.837 300.125ZM955.148 296.273C959.901 296.273 964.056 297.009 967.678 298.397L971.254 289.058C966.331 287.172 960.94 286.273 955.148 286.273V296.273ZM967.678 298.397C971.308 299.787 974.335 301.774 976.833 304.347L984.008 297.381C980.445 293.711 976.17 290.941 971.254 289.058L967.678 298.397ZM976.85 304.364C979.344 306.908 981.317 310.048 982.731 313.871L992.11 310.402C990.251 305.377 987.557 301.001 983.991 297.363L976.85 304.364ZM982.731 313.871C984.129 317.652 984.875 322.036 984.875 327.091H994.875C994.875 321.055 993.984 315.469 992.11 310.402L982.731 313.871ZM984.875 327.091V332.909H994.875V327.091H984.875ZM989.875 327.909H927.511V337.909H989.875V327.909ZM932.511 332.909V319.091H922.511V332.909H932.511ZM927.511 324.091H966.784V314.091H927.511V324.091ZM971.784 319.015C971.74 316.162 970.99 313.455 969.412 311.064L961.066 316.572C961.488 317.212 961.767 318.019 961.785 319.167L971.784 319.015ZM969.474 311.161C968.011 308.829 966.004 307.02 963.553 305.771L959.016 314.683C959.897 315.132 960.527 315.716 961.003 316.476L969.474 311.161ZM963.65 305.822C961.199 304.506 958.504 303.909 955.693 303.909V313.909C957.064 313.909 958.097 314.191 958.918 314.632L963.65 305.822ZM955.693 303.909C952.914 303.909 950.255 304.518 947.803 305.787L952.402 314.667C953.344 314.179 954.412 313.909 955.693 313.909V303.909ZM947.866 305.755C945.433 306.972 943.405 308.714 941.877 310.961L950.146 316.584C950.678 315.801 951.378 315.18 952.338 314.699L947.866 305.755ZM941.838 311.019C940.268 313.398 939.508 316.097 939.423 318.942L949.418 319.24C949.455 318.024 949.755 317.178 950.184 316.527L941.838 311.019ZM939.42 319.091V334H949.42V319.091H939.42ZM939.42 334C939.42 336.96 940.047 339.787 941.42 342.357L950.239 337.643C949.734 336.697 949.42 335.525 949.42 334H939.42ZM941.42 342.357C942.811 344.96 944.837 347.023 947.402 348.482L952.348 339.791C951.398 339.25 950.727 338.555 950.239 337.643L941.42 342.357ZM947.402 348.482C950.068 349.999 953.084 350.636 956.239 350.636V340.636C954.424 340.636 953.197 340.274 952.348 339.791L947.402 348.482ZM956.239 350.636C958.434 350.636 960.564 350.328 962.577 349.642L959.355 340.176C958.52 340.46 957.498 340.636 956.239 340.636V350.636ZM962.547 349.653C964.564 348.98 966.413 347.969 968.001 346.567L961.385 339.069C960.913 339.485 960.277 339.868 959.385 340.166L962.547 349.653ZM968.062 346.513C969.679 345.039 970.889 343.249 971.652 341.198L962.28 337.711C962.073 338.266 961.768 338.719 961.324 339.123L968.062 346.513ZM966.966 344.455H989.875V334.455H966.966V344.455ZM984.94 338.653C984.285 342.685 982.765 346.065 980.422 348.916L988.147 355.266C991.682 350.966 993.89 345.922 994.81 340.257L984.94 338.653ZM980.435 348.9C978.09 351.728 974.91 354.029 970.72 355.731L974.484 364.996C979.992 362.758 984.599 359.545 988.133 355.282L980.435 348.9ZM970.735 355.725C966.635 357.376 961.658 358.273 955.693 358.273V368.273C962.637 368.273 968.933 367.231 974.469 365.002L970.735 355.725ZM1014.3 359L1011.93 363.406L1011.95 363.414L1011.96 363.421L1014.3 359ZM1001.89 346.636L997.475 348.991L997.483 349.005L997.491 349.02L1001.89 346.636ZM1001.93 308.364L1006.33 310.737L1006.33 310.737L1001.93 308.364ZM1014.25 295.773L1016.71 300.125L1016.71 300.125L1014.25 295.773ZM1047.34 293.727L1049.13 289.058L1049.13 289.058L1047.34 293.727ZM1058.3 300.864L1054.71 304.347L1054.72 304.355L1054.73 304.364L1058.3 300.864ZM1065.3 312.136L1060.61 313.871L1060.61 313.871L1065.3 312.136ZM1067.75 332.909V337.909H1072.75V332.909H1067.75ZM1005.39 332.909H1000.39V337.909H1005.39V332.909ZM1005.39 319.091V314.091H1000.39V319.091H1005.39ZM1044.66 319.091V324.091H1049.74L1049.66 319.015L1044.66 319.091ZM1043.11 313.818L1038.88 316.476L1038.91 316.524L1038.94 316.572L1043.11 313.818ZM1039.16 310.227L1036.79 314.632L1036.84 314.658L1036.89 314.683L1039.16 310.227ZM1027.98 310.227L1030.21 314.699L1030.25 314.684L1030.28 314.667L1027.98 310.227ZM1023.89 313.773L1019.75 310.961L1019.73 310.99L1019.71 311.019L1023.89 313.773ZM1022.3 319.091L1017.3 318.942L1017.3 319.016V319.091H1022.3ZM1023.7 340L1019.29 342.357L1019.29 342.357L1023.7 340ZM1027.75 344.136L1025.28 348.482L1025.28 348.482L1027.75 344.136ZM1038.84 344.909L1037.26 340.166L1037.24 340.171L1037.23 340.176L1038.84 344.909ZM1042.57 342.818L1045.88 346.567L1045.91 346.54L1045.94 346.513L1042.57 342.818ZM1044.84 339.455V334.455H1041.37L1040.15 337.711L1044.84 339.455ZM1067.75 339.455L1072.69 340.257L1073.63 334.455H1067.75V339.455ZM1062.16 352.091L1066.01 355.282L1066.01 355.274L1066.02 355.266L1062.16 352.091ZM1050.48 360.364L1052.34 365.002L1052.35 364.999L1052.36 364.996L1050.48 360.364ZM1033.57 358.273C1026.75 358.273 1021.16 356.972 1016.63 354.579L1011.96 363.421C1018.22 366.725 1025.48 368.273 1033.57 368.273V358.273ZM1016.66 354.594C1012.16 352.178 1008.73 348.761 1006.28 344.253L997.491 349.02C1000.86 355.239 1005.71 360.064 1011.93 363.406L1016.66 354.594ZM1006.3 344.282C1003.88 339.761 1002.57 334.152 1002.57 327.273H992.568C992.568 335.423 994.131 342.724 997.475 348.991L1006.3 344.282ZM1002.57 327.273C1002.57 320.742 1003.88 315.283 1006.33 310.737L997.531 305.99C994.164 312.232 992.568 319.379 992.568 327.273H1002.57ZM1006.33 310.737C1008.8 306.167 1012.23 302.658 1016.71 300.125L1011.79 291.421C1005.66 294.887 1000.88 299.772 997.531 305.99L1006.33 310.737ZM1016.71 300.125C1021.14 297.621 1026.51 296.273 1033.02 296.273V286.273C1025.11 286.273 1017.97 287.924 1011.79 291.421L1016.71 300.125ZM1033.02 296.273C1037.78 296.273 1041.93 297.009 1045.55 298.397L1049.13 289.058C1044.21 287.172 1038.81 286.273 1033.02 286.273V296.273ZM1045.55 298.397C1049.18 299.787 1052.21 301.774 1054.71 304.347L1061.88 297.381C1058.32 293.711 1054.04 290.941 1049.13 289.058L1045.55 298.397ZM1054.73 304.364C1057.22 306.908 1059.19 310.048 1060.61 313.871L1069.98 310.402C1068.13 305.377 1065.43 301.001 1061.87 297.363L1054.73 304.364ZM1060.61 313.871C1062 317.652 1062.75 322.036 1062.75 327.091H1072.75C1072.75 321.055 1071.86 315.469 1069.98 310.402L1060.61 313.871ZM1062.75 327.091V332.909H1072.75V327.091H1062.75ZM1067.75 327.909H1005.39V337.909H1067.75V327.909ZM1010.39 332.909V319.091H1000.39V332.909H1010.39ZM1005.39 324.091H1044.66V314.091H1005.39V324.091ZM1049.66 319.015C1049.62 316.162 1048.86 313.455 1047.29 311.064L1038.94 316.572C1039.36 317.212 1039.64 318.019 1039.66 319.167L1049.66 319.015ZM1047.35 311.161C1045.89 308.829 1043.88 307.02 1041.43 305.771L1036.89 314.683C1037.77 315.132 1038.4 315.716 1038.88 316.476L1047.35 311.161ZM1041.52 305.822C1039.07 304.506 1036.38 303.909 1033.57 303.909V313.909C1034.94 313.909 1035.97 314.191 1036.79 314.632L1041.52 305.822ZM1033.57 303.909C1030.79 303.909 1028.13 304.518 1025.68 305.787L1030.28 314.667C1031.22 314.179 1032.29 313.909 1033.57 313.909V303.909ZM1025.74 305.755C1023.31 306.972 1021.28 308.714 1019.75 310.961L1028.02 316.584C1028.55 315.801 1029.25 315.18 1030.21 314.699L1025.74 305.755ZM1019.71 311.019C1018.14 313.398 1017.38 316.097 1017.3 318.942L1027.29 319.24C1027.33 318.024 1027.63 317.178 1028.06 316.527L1019.71 311.019ZM1017.3 319.091V334H1027.3V319.091H1017.3ZM1017.3 334C1017.3 336.96 1017.92 339.787 1019.29 342.357L1028.11 337.643C1027.61 336.697 1027.3 335.525 1027.3 334H1017.3ZM1019.29 342.357C1020.69 344.96 1022.71 347.023 1025.28 348.482L1030.22 339.791C1029.27 339.25 1028.6 338.555 1028.11 337.643L1019.29 342.357ZM1025.28 348.482C1027.94 349.999 1030.96 350.636 1034.11 350.636V340.636C1032.3 340.636 1031.07 340.274 1030.22 339.791L1025.28 348.482ZM1034.11 350.636C1036.31 350.636 1038.44 350.328 1040.45 349.642L1037.23 340.176C1036.39 340.46 1035.37 340.636 1034.11 340.636V350.636ZM1040.42 349.653C1042.44 348.98 1044.29 347.969 1045.88 346.567L1039.26 339.069C1038.79 339.485 1038.15 339.868 1037.26 340.166L1040.42 349.653ZM1045.94 346.513C1047.55 345.039 1048.76 343.249 1049.53 341.198L1040.15 337.711C1039.95 338.266 1039.64 338.719 1039.2 339.123L1045.94 346.513ZM1044.84 344.455H1067.75V334.455H1044.84V344.455ZM1062.81 338.653C1062.16 342.685 1060.64 346.065 1058.3 348.916L1066.02 355.266C1069.56 350.966 1071.76 345.922 1072.69 340.257L1062.81 338.653ZM1058.31 348.9C1055.97 351.728 1052.78 354.029 1048.6 355.731L1052.36 364.996C1057.87 362.758 1062.47 359.545 1066.01 355.282L1058.31 348.9ZM1048.61 355.725C1044.51 357.376 1039.53 358.273 1033.57 358.273V368.273C1040.51 368.273 1046.81 367.231 1052.34 365.002L1048.61 355.725Z" fill="url(#paint4_linear_148_347)" mask="url(#path-5-outside-1_148_347)"/>
<path d="M63.5234 34.8515L56 54.625H64.0948L67.8088 43.9341L63.5234 34.8515Z" fill="white"/>
<path d="M74.4751 54.625L64.8566 34H72.7609L82.3794 54.625H74.4751Z" fill="white"/>
<path d="M79.1073 39.0143L76.917 34H84.5356L87.0116 39.0143H79.1073Z" fill="white"/>
<path d="M86.2498 54.625L79.4883 40.3389H87.4878L94.4398 54.625H86.2498Z" fill="white"/>
<path d="M90.882 39.0143L88.6916 34H101.643L104.024 39.0143H90.882Z" fill="white"/>
<path d="M100.405 54.625L93.8342 40.3389H101.643L108.5 54.625H100.405Z" fill="white"/>
<path d="M140.648 39.3636V35.5455H155.818V39.3636H150.568V53H145.898V39.3636H140.648ZM157.602 53V35.5455H170.181V39.3636H162.34V42.3636H169.533V46.1818H162.34V49.1818H170.147V53H157.602ZM188.827 42.0909H184.02C183.986 41.6932 183.895 41.3324 183.747 41.0085C183.605 40.6847 183.406 40.4062 183.151 40.1733C182.901 39.9347 182.597 39.7528 182.239 39.6278C181.881 39.4972 181.474 39.4318 181.02 39.4318C180.224 39.4318 179.551 39.625 179 40.0114C178.455 40.3977 178.04 40.9517 177.756 41.6733C177.477 42.3949 177.338 43.2614 177.338 44.2727C177.338 45.3409 177.48 46.2358 177.764 46.9574C178.054 47.6733 178.472 48.2131 179.017 48.5767C179.563 48.9347 180.219 49.1136 180.986 49.1136C181.423 49.1136 181.815 49.0597 182.162 48.9517C182.509 48.8381 182.81 48.6761 183.065 48.4659C183.321 48.2557 183.528 48.0028 183.688 47.7074C183.852 47.4062 183.963 47.0682 184.02 46.6932L188.827 46.7273C188.77 47.4659 188.563 48.2187 188.205 48.9858C187.847 49.7472 187.338 50.4517 186.679 51.0994C186.026 51.7415 185.216 52.2585 184.25 52.6506C183.284 53.0426 182.162 53.2386 180.884 53.2386C179.281 53.2386 177.844 52.8949 176.571 52.2074C175.304 51.5199 174.301 50.5085 173.562 49.1733C172.83 47.8381 172.463 46.2045 172.463 44.2727C172.463 42.3295 172.838 40.6932 173.588 39.3636C174.338 38.0284 175.349 37.0199 176.622 36.3381C177.895 35.6506 179.315 35.3068 180.884 35.3068C181.986 35.3068 183 35.4574 183.926 35.7585C184.852 36.0597 185.665 36.5 186.364 37.0795C187.063 37.6534 187.625 38.3608 188.051 39.2017C188.477 40.0426 188.736 41.0057 188.827 42.0909ZM190.977 53V35.5455H195.715V42.3636H201.988V35.5455H206.727V53H201.988V46.1818H195.715V53H190.977ZM224.079 35.5455V53H220.124L213.817 43.8295H213.715V53H208.977V35.5455H212.999L219.204 44.6818H219.34V35.5455H224.079ZM243.229 44.2727C243.229 46.2159 242.852 47.8551 242.096 49.1903C241.34 50.5199 240.32 51.5284 239.036 52.2159C237.752 52.8977 236.32 53.2386 234.741 53.2386C233.15 53.2386 231.712 52.8949 230.428 52.2074C229.15 51.5142 228.133 50.5028 227.377 49.1733C226.627 47.8381 226.252 46.2045 226.252 44.2727C226.252 42.3295 226.627 40.6932 227.377 39.3636C228.133 38.0284 229.15 37.0199 230.428 36.3381C231.712 35.6506 233.15 35.3068 234.741 35.3068C236.32 35.3068 237.752 35.6506 239.036 36.3381C240.32 37.0199 241.34 38.0284 242.096 39.3636C242.852 40.6932 243.229 42.3295 243.229 44.2727ZM238.354 44.2727C238.354 43.2273 238.215 42.3466 237.937 41.6307C237.664 40.9091 237.258 40.3636 236.718 39.9943C236.184 39.6193 235.525 39.4318 234.741 39.4318C233.957 39.4318 233.295 39.6193 232.755 39.9943C232.221 40.3636 231.815 40.9091 231.536 41.6307C231.263 42.3466 231.127 43.2273 231.127 44.2727C231.127 45.3182 231.263 46.2017 231.536 46.9233C231.815 47.6392 232.221 48.1847 232.755 48.5597C233.295 48.929 233.957 49.1136 234.741 49.1136C235.525 49.1136 236.184 48.929 236.718 48.5597C237.258 48.1847 237.664 47.6392 237.937 46.9233C238.215 46.2017 238.354 45.3182 238.354 44.2727ZM254.831 41C254.786 40.4318 254.572 39.9886 254.192 39.6705C253.817 39.3523 253.246 39.1932 252.479 39.1932C251.99 39.1932 251.589 39.2528 251.277 39.3722C250.97 39.4858 250.743 39.642 250.595 39.8409C250.447 40.0398 250.371 40.267 250.365 40.5227C250.354 40.733 250.391 40.9233 250.476 41.0938C250.567 41.2585 250.709 41.4091 250.902 41.5455C251.095 41.6761 251.342 41.7955 251.643 41.9034C251.945 42.0114 252.303 42.108 252.717 42.1932L254.149 42.5C255.115 42.7045 255.942 42.9744 256.629 43.3097C257.317 43.6449 257.879 44.0398 258.317 44.4943C258.754 44.9432 259.075 45.4489 259.28 46.0114C259.49 46.5739 259.598 47.1875 259.604 47.8523C259.598 49 259.311 49.9716 258.743 50.767C258.175 51.5625 257.362 52.1676 256.305 52.5824C255.254 52.9972 253.99 53.2045 252.513 53.2045C250.996 53.2045 249.672 52.9801 248.541 52.5312C247.416 52.0824 246.541 51.392 245.916 50.4602C245.297 49.5227 244.984 48.3239 244.979 46.8636H249.479C249.507 47.3977 249.641 47.8466 249.879 48.2102C250.118 48.5739 250.453 48.8494 250.885 49.0369C251.322 49.2244 251.842 49.3182 252.445 49.3182C252.95 49.3182 253.374 49.2557 253.714 49.1307C254.055 49.0057 254.314 48.8324 254.49 48.6108C254.666 48.3892 254.757 48.1364 254.763 47.8523C254.757 47.5852 254.669 47.3523 254.499 47.1534C254.334 46.9489 254.061 46.767 253.68 46.608C253.3 46.4432 252.786 46.2898 252.138 46.1477L250.399 45.7727C248.854 45.4375 247.635 44.8778 246.743 44.0938C245.857 43.304 245.416 42.2273 245.422 40.8636C245.416 39.7557 245.712 38.7869 246.308 37.9574C246.911 37.1222 247.743 36.4716 248.805 36.0057C249.874 35.5398 251.098 35.3068 252.479 35.3068C253.888 35.3068 255.107 35.5426 256.135 36.0142C257.163 36.4858 257.956 37.1506 258.513 38.0085C259.075 38.8608 259.359 39.858 259.365 41H254.831ZM261.406 53V35.5455H268.94C270.236 35.5455 271.369 35.8011 272.341 36.3125C273.313 36.8239 274.068 37.5426 274.608 38.4688C275.148 39.3949 275.418 40.4773 275.418 41.7159C275.418 42.9659 275.139 44.0483 274.582 44.9631C274.031 45.8778 273.256 46.5824 272.256 47.0767C271.261 47.571 270.099 47.8182 268.77 47.8182H264.27V44.1364H267.815C268.372 44.1364 268.847 44.0398 269.239 43.8466C269.636 43.6477 269.94 43.3665 270.151 43.0028C270.366 42.6392 270.474 42.2102 270.474 41.7159C270.474 41.2159 270.366 40.7898 270.151 40.4375C269.94 40.0795 269.636 39.8068 269.239 39.6193C268.847 39.4261 268.372 39.3295 267.815 39.3295H266.145V53H261.406ZM279.511 53H274.397L280.158 35.5455H286.636L292.397 53H287.283L283.465 40.3523H283.329L279.511 53ZM278.556 46.1136H288.17V49.6591H278.556V46.1136ZM294.078 53V35.5455H301.612C302.908 35.5455 304.041 35.7812 305.013 36.2528C305.984 36.7244 306.74 37.4034 307.28 38.2898C307.82 39.1761 308.089 40.2386 308.089 41.4773C308.089 42.7273 307.811 43.7812 307.254 44.6392C306.703 45.4972 305.928 46.1449 304.928 46.5824C303.933 47.0199 302.771 47.2386 301.442 47.2386H296.942V43.5568H300.487C301.044 43.5568 301.518 43.4886 301.911 43.3523C302.308 43.2102 302.612 42.9858 302.822 42.679C303.038 42.3722 303.146 41.9716 303.146 41.4773C303.146 40.9773 303.038 40.571 302.822 40.2585C302.612 39.9403 302.308 39.7074 301.911 39.5597C301.518 39.4062 301.044 39.3295 300.487 39.3295H298.817V53H294.078ZM304.305 44.9886L308.669 53H303.521L299.26 44.9886H304.305ZM315.189 35.5455L318.053 40.625H318.189L321.087 35.5455H326.371L321.155 44.2727L326.575 53H321.155L318.189 47.8182H318.053L315.087 53H309.7L315.053 44.2727L309.871 35.5455H315.189Z" fill="white"/>
<g opacity="0.38">
<path d="M176.692 568.061L142.894 745.424H142.866L0 766.592L190.623 835L360.329 812.197L412.669 591.199L176.692 568.061ZM143.173 808.313L96.3942 790.471L118.931 787.439L171.425 804.988L143.173 808.313ZM344.834 793.642L156.042 740.255L186.361 583.654L388.902 607.463L344.834 793.642ZM119.253 556.492H141.748V577.898H119.253V556.492ZM125.107 526.424H102.514C102.724 523.057 103.408 519.689 104.568 516.406C105.714 513.15 107.474 510.216 109.849 507.603C112.239 505.019 115.285 502.909 119.001 501.316C122.718 499.681 127.245 498.857 132.568 498.857C137.822 498.857 142.265 499.555 145.87 500.981C149.475 502.378 152.395 504.194 154.63 506.374C156.866 508.581 158.515 510.999 159.549 513.625C160.596 516.252 161.183 518.767 161.337 521.142C161.337 524.454 160.89 527.15 160.038 529.19C159.185 531.23 158.04 532.963 156.628 534.332C155.217 535.715 153.666 536.833 151.934 537.741C150.201 538.636 148.427 539.544 146.638 540.494C145.409 541.151 144.403 541.793 143.606 542.436C142.81 543.093 142.181 543.763 141.762 544.476C141.343 545.203 141.035 546.027 140.84 546.977C140.658 547.899 140.574 548.975 140.574 550.191H120.566C120.496 549.129 120.454 547.787 120.454 546.111C120.454 544.392 120.678 542.618 121.111 540.829C121.53 539.027 122.285 537.238 123.375 535.52C124.464 533.815 126.043 532.362 128.139 531.188C128.991 530.741 130.011 530.28 131.171 529.777C132.331 529.302 133.421 528.743 134.468 528.101C135.488 527.5 136.383 526.759 137.109 525.921C137.822 525.055 138.185 524.007 138.185 522.777C138.185 519.075 136.117 517.244 131.926 517.244C129.327 517.244 127.482 518.18 126.407 520.053C125.317 521.939 124.884 524.063 125.107 526.424ZM250.675 686.741L275.839 703.759L259.659 727.721L234.468 710.703L250.675 686.741ZM328.207 657.371C329.059 661.521 329.059 665.475 328.235 669.234C327.383 672.964 326.167 676.22 324.518 678.972C322.017 682.717 319.53 685.372 316.987 687.006C314.43 688.655 311.915 689.703 309.247 690.192C306.648 690.709 304.049 690.765 301.408 690.486C298.782 690.192 296.099 689.871 293.388 689.591C291.53 689.354 289.923 689.326 288.512 689.466C287.129 689.591 285.941 689.871 284.907 690.346C283.873 690.849 282.881 691.519 281.987 692.428C281.107 693.322 280.185 694.468 279.234 695.823L256.823 680.705C257.564 679.433 258.542 677.911 259.827 676.01C261.14 674.082 262.719 672.266 264.55 670.589C266.408 668.884 268.588 667.487 271.103 666.369C273.66 665.224 276.524 664.819 279.723 665.112C280.981 665.28 282.476 665.503 284.139 665.825C285.801 666.146 287.464 666.342 289.085 666.453C290.72 666.565 292.284 666.397 293.724 665.964C295.177 665.545 296.378 664.651 297.328 663.31C300.081 659.16 299.187 655.527 294.492 652.369C291.6 650.413 288.819 650.078 286.165 651.377C283.538 652.635 281.442 654.717 279.919 657.525L254.601 640.395C257.41 636.804 260.707 633.549 264.48 630.768C268.266 627.96 272.416 626.018 277.055 624.9C281.666 623.796 286.668 623.74 292.061 624.732C297.44 625.71 303.141 628.225 309.121 632.249C315.017 636.245 319.432 640.395 322.409 644.699C325.399 648.974 327.299 653.222 328.207 657.371ZM15.2297 697.723L2.515 696.703L3.59086 683.36L16.3056 684.38L15.2297 697.723ZM39.0383 693.769C39.1641 692.232 38.703 691.086 37.6411 690.332C36.5792 689.591 35.3357 689.242 33.8966 689.256L35.0143 675.829C37.0124 676.122 38.9405 676.695 40.8547 677.547C42.727 678.386 44.3897 679.587 45.8288 681.124C47.24 682.633 48.3438 684.561 49.1263 686.853C49.9087 689.13 50.1881 691.855 49.9227 695.04C49.6712 698.17 49.0145 700.755 48.0364 702.851C47.0165 704.905 45.8009 706.595 44.3897 707.797C42.9645 709.055 41.4416 709.893 39.8347 710.396C38.2279 710.885 36.7189 711.15 35.2798 711.122C33.3097 710.927 31.7448 710.55 30.5712 709.949C29.3835 709.348 28.4334 708.566 27.665 707.685C26.9384 706.791 26.3236 705.785 25.8625 704.709C25.4154 703.619 24.9683 702.557 24.4933 701.468C24.1719 700.671 23.8366 700.043 23.4873 699.553C23.138 699.009 22.7607 698.631 22.3555 698.352C21.9364 698.031 21.4613 697.807 20.9304 697.639C20.3715 697.5 19.7287 697.388 19.0022 697.346L19.9663 685.456C20.623 685.456 21.4334 685.483 22.4254 685.567C23.4593 685.651 24.4933 685.861 25.5412 686.224C26.5891 686.573 27.5951 687.09 28.5732 687.831C29.5512 688.585 30.3336 689.549 30.9065 690.863C31.1301 691.408 31.3676 692.008 31.6051 692.749C31.8426 693.448 32.1361 694.146 32.4435 694.789C32.7648 695.474 33.17 696.018 33.6451 696.48C34.1061 696.955 34.7069 697.248 35.4475 697.304C37.6411 697.43 38.8287 696.284 39.0383 693.769ZM350.94 516.923L354.489 529.19L341.592 532.907L338.057 520.625L350.94 516.923ZM323.512 506.164C323.079 504.194 322.912 502.154 323.051 500.086C323.163 498.018 323.708 496.048 324.602 494.162C325.552 492.29 326.95 490.585 328.836 489.034C330.666 487.497 333.153 486.282 336.171 485.402C339.175 484.535 341.83 484.214 344.121 484.41C346.413 484.619 348.425 485.192 350.06 486.072C351.68 486.952 353.036 488.07 354.056 489.426C355.062 490.767 355.83 492.094 356.319 493.422C356.864 495.336 357.074 496.943 356.892 498.27C356.724 499.583 356.375 500.743 355.802 501.763C355.229 502.797 354.517 503.677 353.664 504.502C352.798 505.298 351.974 506.094 351.08 506.947C350.479 507.506 349.99 508.05 349.64 508.567C349.305 509.043 349.04 509.546 348.928 510.021C348.788 510.51 348.732 511.041 348.788 511.613C348.844 512.172 348.956 512.801 349.165 513.5L337.708 516.797C337.485 516.196 337.247 515.414 336.968 514.478C336.674 513.472 336.506 512.424 336.451 511.306C336.423 510.216 336.562 509.07 336.884 507.911C337.205 506.723 337.89 505.661 338.91 504.655C339.343 504.25 339.832 503.817 340.405 503.328C340.978 502.853 341.495 502.378 342.012 501.847C342.501 501.316 342.878 500.757 343.157 500.128C343.437 499.527 343.451 498.871 343.269 498.158C342.668 496.048 341.173 495.35 338.77 496.02C337.303 496.468 336.395 497.32 336.073 498.563C335.78 499.807 335.85 501.106 336.395 502.42L323.512 506.164ZM251.751 545.72L259.534 546.488L258.793 553.907L251.025 553.125L251.751 545.72ZM254.825 535.534L246.987 534.779C247.154 533.606 247.518 532.474 248.007 531.384C248.524 530.28 249.236 529.33 250.144 528.506C251.011 527.695 252.184 527.039 253.526 526.62C254.881 526.186 256.446 526.075 258.304 526.256C260.12 526.438 261.629 526.829 262.803 527.43C264.005 528.017 264.955 528.757 265.667 529.596C266.352 530.434 266.841 531.328 267.121 532.264C267.4 533.214 267.47 534.081 267.47 534.919C267.358 536.079 267.121 536.973 266.715 537.658C266.352 538.356 265.891 538.901 265.374 539.348C264.829 539.739 264.256 540.075 263.627 540.34C262.999 540.592 262.328 540.843 261.671 541.123C261.252 541.318 260.847 541.486 260.554 541.696C260.26 541.905 260.037 542.101 259.869 542.338C259.673 542.576 259.562 542.855 259.478 543.177C259.352 543.512 259.296 543.875 259.268 544.28L252.366 543.624C252.366 543.232 252.394 542.757 252.478 542.185C252.534 541.57 252.673 540.983 252.855 540.368C253.037 539.753 253.4 539.167 253.819 538.608C254.252 538.035 254.853 537.602 255.621 537.252C255.929 537.155 256.32 537.015 256.711 536.861C257.144 536.735 257.55 536.582 257.913 536.414C258.276 536.232 258.639 536.009 258.891 535.715C259.184 535.45 259.338 535.101 259.366 534.682C259.492 533.424 258.821 532.711 257.368 532.558C256.474 532.474 255.789 532.753 255.342 533.354C254.951 533.955 254.769 534.695 254.825 535.534ZM210.701 703.326C210.98 704.29 211.078 705.156 211.05 705.967C210.938 707.14 210.715 708.021 210.338 708.719C209.96 709.404 209.499 709.977 208.968 710.368C208.423 710.787 207.85 711.15 207.222 711.388C206.579 711.667 205.95 711.891 205.294 712.184C204.846 712.352 204.469 712.534 204.176 712.743C203.882 712.981 203.645 713.134 203.463 713.386C203.296 713.651 203.156 713.931 203.072 714.238C202.974 714.56 202.904 714.951 202.848 715.328L195.932 714.671C195.946 714.294 195.988 713.805 196.044 713.218C196.1 712.617 196.226 712.017 196.449 711.416C196.645 710.815 196.966 710.228 197.399 709.655C197.846 709.083 198.433 708.649 199.202 708.328C199.523 708.188 199.886 708.049 200.292 707.937C200.711 707.797 201.102 707.643 201.493 707.49C201.87 707.294 202.206 707.098 202.485 706.777C202.751 706.526 202.904 706.162 202.96 705.771C203.072 704.486 202.415 703.787 200.976 703.633C200.054 703.55 199.397 703.843 198.95 704.444C198.517 705.059 198.293 705.813 198.293 706.609L190.469 705.841C190.637 704.667 191 703.522 191.503 702.46C192.006 701.342 192.747 700.406 193.641 699.567C194.535 698.729 195.667 698.114 197.022 697.681C198.349 697.248 199.942 697.136 201.787 697.318C203.631 697.486 205.14 697.877 206.314 698.492C207.529 699.106 208.465 699.805 209.164 700.657C209.876 701.496 210.379 702.404 210.701 703.326ZM195.234 716.795L203.03 717.578L202.317 724.955L194.535 724.2L195.234 716.795ZM47.6033 479.841L39.7509 479.072C39.9326 477.912 40.2958 476.795 40.7988 475.691C41.3298 474.601 42.0284 473.637 42.9366 472.799C43.8308 471.988 44.9625 471.346 46.3039 470.926C47.6452 470.493 49.238 470.381 51.0824 470.549C52.9127 470.731 54.4357 471.122 55.6513 471.737C56.8389 472.324 57.789 473.05 58.4876 473.902C59.1862 474.741 59.6613 475.621 59.9407 476.571C60.2062 477.521 60.318 478.387 60.304 479.268C60.1922 480.399 59.9407 481.308 59.5775 482.006C59.2002 482.677 58.7391 483.222 58.2222 483.669C57.6912 484.06 57.1044 484.396 56.4756 484.661C55.8329 484.913 55.1902 485.192 54.5475 485.443C54.1004 485.639 53.7231 485.807 53.4437 486.016C53.1363 486.226 52.8848 486.408 52.7171 486.659C52.5634 486.897 52.4237 487.176 52.3259 487.497C52.2281 487.805 52.1582 488.196 52.1163 488.573L45.1861 487.931C45.214 487.553 45.242 487.078 45.3118 486.491C45.3677 485.891 45.4935 485.304 45.7031 484.675C45.9266 484.088 46.234 483.501 46.6672 482.928C47.1003 482.356 47.6871 481.936 48.4696 481.587C48.777 481.489 49.1402 481.35 49.5454 481.21C49.9646 481.084 50.3558 480.916 50.761 480.735C51.1383 480.567 51.4736 480.33 51.753 480.05C52.0325 479.799 52.1722 479.435 52.2141 479.016C52.3399 477.731 51.6971 477.032 50.244 476.878C49.3358 476.795 48.6652 477.06 48.232 477.675C47.7989 478.29 47.5893 479.016 47.6033 479.841ZM44.5434 490.04L52.3259 490.809L51.5854 498.214L43.8029 497.446L44.5434 490.04ZM63.7831 637.573L44.3338 643.162L39.0104 624.662L58.4597 619.074L63.7831 637.573ZM17.0321 602.838C16.3614 599.834 16.1658 596.802 16.3056 593.686C16.5151 590.556 17.2976 587.594 18.7228 584.758C20.092 581.922 22.2437 579.309 25.0382 576.989C27.8606 574.656 31.5772 572.854 36.188 571.498C40.729 570.185 44.739 569.724 48.2041 570.031C51.6413 570.339 54.6313 571.177 57.0764 572.532C59.5635 573.874 61.5755 575.578 63.1264 577.562C64.6773 579.616 65.837 581.628 66.5636 583.626C67.3879 586.504 67.6674 588.95 67.4438 590.92C67.2063 592.918 66.6474 594.664 65.7671 596.215C64.9009 597.738 63.839 599.121 62.5535 600.323C61.2821 601.552 59.9966 602.782 58.6693 604.026C57.7751 604.92 57.0485 605.716 56.5315 606.485C56.0146 607.225 55.6513 607.952 55.4557 608.706C55.2601 609.447 55.1902 610.229 55.274 611.081C55.3439 611.92 55.5535 612.898 55.8469 613.96L38.5493 618.92C38.2279 618.012 37.8507 616.838 37.4595 615.399C36.9984 613.904 36.7469 612.325 36.677 610.648C36.6072 608.986 36.8028 607.281 37.3477 605.507C37.8367 603.732 38.8567 602.111 40.3797 600.602C41.0364 599.988 41.7629 599.331 42.6292 598.59C43.5234 597.892 44.3338 597.137 45.0603 596.341C45.8288 595.53 46.4017 594.678 46.7929 593.742C47.24 592.82 47.268 591.856 46.9745 590.78C46.0663 587.622 43.8029 586.532 40.1841 587.58C37.9485 588.195 36.5792 589.48 36.1042 591.367C35.6571 593.267 35.7828 595.195 36.5792 597.221L17.0321 602.838ZM227.551 474.154L232.875 492.639L213.425 498.228L208.116 479.743L227.551 474.154ZM186.138 457.918C185.481 454.914 185.257 451.882 185.439 448.752C185.635 445.623 186.417 442.647 187.814 439.81C189.212 436.988 191.335 434.389 194.158 432.056C196.952 429.736 200.683 427.906 205.294 426.579C209.835 425.265 213.845 424.79 217.31 425.084C220.761 425.419 223.723 426.271 226.21 427.599C228.697 428.926 230.709 430.617 232.274 432.656C233.825 434.668 234.943 436.68 235.711 438.706C236.535 441.585 236.773 444.016 236.577 445.986C236.312 447.984 235.767 449.744 234.887 451.295C234.02 452.818 232.959 454.188 231.673 455.389C230.416 456.605 229.102 457.848 227.831 459.106C226.881 459.986 226.182 460.769 225.651 461.551C225.134 462.305 224.785 463.046 224.575 463.787C224.366 464.499 224.31 465.296 224.366 466.162C224.477 467 224.659 467.978 224.966 469.026L207.669 473.986C207.347 473.078 206.956 471.89 206.551 470.451C206.104 468.97 205.852 467.405 205.783 465.715C205.727 464.052 205.922 462.347 206.439 460.587C206.942 458.812 207.962 457.178 209.485 455.655C210.142 455.054 210.882 454.411 211.749 453.671C212.615 452.944 213.411 452.19 214.18 451.421C214.92 450.611 215.521 449.758 215.898 448.822C216.332 447.886 216.36 446.908 216.094 445.846C215.172 442.675 212.908 441.613 209.304 442.605C207.068 443.261 205.699 444.533 205.238 446.419C204.777 448.319 204.916 450.275 205.699 452.273L186.138 457.918ZM107.265 675.158L92.3842 672.364C92.9571 670.142 93.8233 668.032 94.997 666.006C96.1567 664.022 97.6657 662.304 99.5519 660.878C101.424 659.467 103.716 658.447 106.356 657.846C108.997 657.232 112.085 657.246 115.592 657.902C119.085 658.545 121.907 659.565 124.101 660.934C126.295 662.332 127.985 663.882 129.187 665.573C130.389 667.306 131.171 669.15 131.534 671.008C131.898 672.867 131.981 674.585 131.786 676.164C131.395 678.316 130.766 680.034 129.941 681.292C129.103 682.577 128.167 683.513 127.063 684.296C125.959 685.008 124.8 685.553 123.542 685.903C122.285 686.294 121.013 686.699 119.728 687.076C118.834 687.356 118.079 687.649 117.478 687.998C116.891 688.292 116.388 688.655 116.011 689.102C115.662 689.507 115.354 690.01 115.103 690.583C114.879 691.184 114.684 691.911 114.53 692.693L101.354 690.192C101.452 689.507 101.592 688.585 101.801 687.495C101.997 686.364 102.374 685.232 102.877 684.058C103.38 682.927 104.093 681.865 105.029 680.859C105.965 679.853 107.181 679.112 108.69 678.595C109.332 678.4 110.045 678.274 110.869 678.064C111.708 677.855 112.462 677.631 113.245 677.338C113.999 677.072 114.684 676.709 115.271 676.22C115.844 675.745 116.207 675.13 116.374 674.25C116.822 671.861 115.676 670.407 112.923 669.89C111.219 669.569 109.863 669.96 108.941 671.036C107.991 672.182 107.432 673.551 107.265 675.158ZM99.7336 694.258L114.544 697.011L111.917 711.108L97.1068 708.342L99.7336 694.258Z" fill="url(#paint5_linear_148_347)"/>
</g>
<g opacity="0.31">
<path d="M998.959 125.827C1002.33 121.606 1017.2 107.048 1021.71 102.645C1021.8 64.7795 1056.23 34 1098.54 34C1140.9 34 1175.37 64.8571 1175.37 102.786C1175.37 128.334 1159.81 151.487 1134.69 163.489C1134.67 163.5 1124.17 168.241 1124.17 181.244V233.752C1124.17 236.099 1122.19 238 1119.75 238H1057.99C1055.55 238 1053.57 236.099 1053.57 233.752V210.828C1053 201.607 1051.68 199.582 1046.2 199.474H1046.2C1046.2 199.474 1031.22 199.494 1030.78 199.494C1028.24 199.494 1022.53 199.003 1018.01 195.018C1014.25 191.713 1012.35 186.965 1012.35 180.909V154.715C1010.55 152.662 1006.74 148.375 1004.07 145.801C993.702 135.829 996.417 129.007 998.959 125.827ZM1010.31 139.793C1014.2 143.532 1019.92 150.183 1020.17 150.464C1020.82 151.226 1021.18 152.183 1021.18 153.172V180.909C1021.18 184.456 1022.1 187.081 1023.93 188.712C1026.78 191.267 1031.23 190.988 1031.24 190.987C1031.37 190.976 1046.34 190.98 1046.34 190.98C1046.34 190.98 1046.35 190.98 1046.36 190.98C1063.73 191.415 1062.4 210.619 1062.4 210.702V229.504H1115.34V181.113C1115.34 181.031 1113.87 164.276 1128.85 156.843C1155.54 143.6 1166.54 125.399 1166.54 102.787C1166.54 69.542 1136.04 42.4953 1098.54 42.4953C1061.05 42.4953 1030.54 69.542 1030.54 102.786C1030.54 103.321 1030.55 103.856 1030.56 104.388C1030.61 105.919 1029.8 107.297 1028.54 108.079C1022.59 113.873 1008.8 127.45 1005.96 131.006C1003.98 133.481 1009.24 138.76 1010.31 139.793Z" fill="url(#paint6_linear_148_347)"/>
<path d="M1085.31 82.8693H1091.16C1091.82 79.2356 1093.3 75.8743 1095.43 72.9712L1091.29 68.9886C1089.56 67.3292 1089.56 64.6396 1091.29 62.9813C1093.01 61.323 1095.81 61.3224 1097.53 62.9819L1101.67 66.9644C1104.69 64.9205 1108.18 63.4887 1111.96 62.8539V57.2306C1111.96 54.8842 1113.94 52.9829 1116.38 52.9829C1118.81 52.9829 1120.79 54.8842 1120.79 57.2306V62.8539C1124.57 63.4887 1128.06 64.9199 1131.08 66.9644L1135.22 62.9819C1136.94 61.3224 1139.74 61.323 1141.46 62.9813C1143.19 64.6401 1143.19 67.3297 1141.46 68.9886L1137.32 72.9712C1139.44 75.8743 1140.93 79.2356 1141.59 82.8693H1147.44C1149.88 82.8693 1151.85 84.7705 1151.85 87.1169C1151.85 89.4633 1149.88 91.3646 1147.44 91.3646H1141.59C1140.93 94.9983 1139.45 98.3596 1137.32 101.263L1141.46 105.246C1143.19 106.905 1143.19 109.595 1141.46 111.254C1140.6 112.083 1139.47 112.497 1138.34 112.497C1137.21 112.497 1136.08 112.083 1135.22 111.253L1131.08 107.27C1128.06 109.315 1124.57 110.747 1120.79 111.381V117.003C1120.79 119.35 1118.81 121.251 1116.37 121.251C1113.94 121.251 1111.96 119.35 1111.96 117.003V111.381C1108.18 110.747 1104.69 109.315 1101.67 107.271L1097.53 111.253C1096.67 112.083 1095.54 112.497 1094.41 112.497C1093.28 112.497 1092.15 112.083 1091.29 111.254C1089.56 109.595 1089.56 106.905 1091.29 105.246L1095.43 101.263C1093.3 98.3596 1091.81 94.9989 1091.16 91.3646H1085.31C1082.87 91.3646 1080.9 89.4633 1080.9 87.1169C1080.9 84.7705 1082.87 82.8693 1085.31 82.8693ZM1116.37 103.259C1125.63 103.259 1133.15 96.0177 1133.15 87.1169C1133.15 78.2162 1125.63 70.9753 1116.37 70.9753C1107.12 70.9753 1099.6 78.2162 1099.6 87.1169C1099.6 96.0177 1107.12 103.259 1116.37 103.259Z" fill="url(#paint7_linear_148_347)"/>
<path d="M1044.67 114.579H1048.21C1048.72 112.367 1049.62 110.224 1050.93 108.256L1048.43 105.852C1046.71 104.193 1046.71 101.504 1048.43 99.8453C1050.15 98.187 1052.95 98.1864 1054.67 99.8458L1057.17 102.247C1059.18 101.004 1061.4 100.119 1063.74 99.6261V96.2308C1063.74 93.885 1065.72 91.9832 1068.16 91.9832C1070.6 91.9832 1072.57 93.8844 1072.57 96.2308V99.6261C1074.91 100.119 1077.13 101.004 1079.15 102.247L1081.64 99.8458C1083.37 98.187 1086.16 98.1864 1087.89 99.8453C1089.61 101.504 1089.61 104.194 1087.89 105.852L1085.39 108.256C1086.69 110.224 1087.6 112.367 1088.1 114.579H1091.64C1094.08 114.579 1096.06 116.48 1096.06 118.826C1096.06 121.172 1094.08 123.074 1091.64 123.074H1088.1C1087.6 125.286 1086.69 127.43 1085.39 129.398L1087.89 131.801C1089.61 133.459 1089.61 136.149 1087.89 137.808C1087.02 138.638 1085.9 139.052 1084.77 139.052C1083.64 139.052 1082.51 138.638 1081.64 137.808L1079.15 135.408C1077.13 136.65 1074.91 137.535 1072.57 138.028V141.423C1072.57 143.769 1070.6 145.67 1068.16 145.67C1065.72 145.67 1063.74 143.769 1063.74 141.422V138.028C1061.4 137.534 1059.18 136.65 1057.17 135.407L1054.67 137.808C1053.81 138.638 1052.68 139.052 1051.55 139.052C1050.42 139.052 1049.29 138.638 1048.43 137.808C1046.7 136.149 1046.7 133.46 1048.43 131.801L1050.93 129.398C1049.62 127.429 1048.72 125.287 1048.21 123.075H1044.67C1042.23 123.075 1040.26 121.173 1040.26 118.827C1040.26 116.481 1042.23 114.579 1044.67 114.579ZM1059.95 126.724C1062.14 128.835 1065.06 129.996 1068.16 129.996C1071.26 129.996 1074.18 128.834 1076.37 126.725C1080.89 122.371 1080.89 115.285 1076.37 110.929C1074.17 108.82 1071.26 107.659 1068.16 107.659C1065.06 107.659 1062.14 108.82 1059.95 110.929C1055.42 115.285 1055.42 122.37 1059.95 126.724Z" fill="url(#paint8_linear_148_347)"/>
</g>
</g>
<defs>
<linearGradient id="paint0_linear_148_347" x1="-63.757" y1="-34.0071" x2="-63.757" y2="347.166" gradientUnits="userSpaceOnUse">
<stop stop-color="#FF9E0B"/>
<stop offset="1" stop-color="#EC4899"/>
</linearGradient>
<linearGradient id="paint1_linear_148_347" x1="1173" y1="695.827" x2="1173" y2="969.442" gradientUnits="userSpaceOnUse">
<stop stop-color="#FF9E0B"/>
<stop offset="1" stop-color="#F24E52"/>
</linearGradient>
<linearGradient id="paint2_linear_148_347" x1="882.5" y1="530" x2="882.5" y2="919" gradientUnits="userSpaceOnUse">
<stop stop-color="#FF9E0B"/>
<stop offset="1" stop-color="#9C67E7"/>
</linearGradient>
<linearGradient id="paint3_linear_148_347" x1="491" y1="30" x2="491" y2="162" gradientUnits="userSpaceOnUse">
<stop stop-color="#FF9E0B"/>
<stop offset="1" stop-color="#DA46EB"/>
</linearGradient>
<linearGradient id="paint4_linear_148_347" x1="600" y1="238" x2="600" y2="393" gradientUnits="userSpaceOnUse">
<stop stop-color="#FF9E0B"/>
<stop offset="0.49" stop-color="#F24E52"/>
</linearGradient>
<linearGradient id="paint5_linear_148_347" x1="206.334" y1="425" x2="206.334" y2="835" gradientUnits="userSpaceOnUse">
<stop stop-color="#F24E52"/>
<stop offset="1" stop-color="#4A74F4"/>
</linearGradient>
<linearGradient id="paint6_linear_148_347" x1="1086" y1="34" x2="1086" y2="238" gradientUnits="userSpaceOnUse">
<stop stop-color="#F24E52"/>
<stop offset="1" stop-color="#FF9E0B"/>
</linearGradient>
<linearGradient id="paint7_linear_148_347" x1="1116.37" y1="52.9829" x2="1116.37" y2="121.251" gradientUnits="userSpaceOnUse">
<stop stop-color="#F24E52"/>
<stop offset="1" stop-color="#FF9E0B"/>
</linearGradient>
<linearGradient id="paint8_linear_148_347" x1="1068.16" y1="91.9832" x2="1068.16" y2="145.67" gradientUnits="userSpaceOnUse">
<stop stop-color="#F24E52"/>
<stop offset="1" stop-color="#FF9E0B"/>
</linearGradient>
<clipPath id="clip0_148_347">
<rect width="1200" height="630" fill="white"/>
</clipPath>
</defs>
</svg>
