<svg width="1200" height="630" viewBox="0 0 1200 630" fill="none" xmlns="http://www.w3.org/2000/svg">
<g clip-path="url(#clip0_149_531)">
<rect width="1200" height="630" fill="black"/>
<rect x="-427.809" y="-32.4844" width="729.486" height="376.173" transform="rotate(-19.4848 -427.809 -32.4844)" stroke="url(#paint0_linear_149_531)" stroke-width="5"/>
<rect x="883" y="695.827" width="580" height="273.616" transform="rotate(-35.26 883 695.827)" fill="url(#paint1_linear_149_531)"/>
<circle cx="882.5" cy="724.5" r="193" stroke="url(#paint2_linear_149_531)" stroke-width="3"/>
<path opacity="0.49" d="M415 58.3636C414.121 58.3636 413.367 58.0568 412.739 57.4432C412.117 56.822 411.811 56.0682 411.818 55.1818C411.811 54.3182 412.117 53.5795 412.739 52.9659C413.367 52.3523 414.121 52.0455 415 52.0455C415.833 52.0455 416.568 52.3523 417.205 52.9659C417.848 53.5795 418.174 54.3182 418.182 55.1818C418.174 55.7727 418.019 56.3106 417.716 56.7955C417.42 57.2727 417.034 57.6553 416.557 57.9432C416.08 58.2235 415.561 58.3636 415 58.3636ZM459.003 58.3636C458.124 58.3636 457.37 58.0568 456.741 57.4432C456.12 56.822 455.813 56.0682 455.821 55.1818C455.813 54.3182 456.12 53.5795 456.741 52.9659C457.37 52.3523 458.124 52.0455 459.003 52.0455C459.836 52.0455 460.571 52.3523 461.207 52.9659C461.851 53.5795 462.177 54.3182 462.184 55.1818C462.177 55.7727 462.021 56.3106 461.718 56.7955C461.423 57.2727 461.037 57.6553 460.559 57.9432C460.082 58.2235 459.563 58.3636 459.003 58.3636ZM503.005 58.3636C502.126 58.3636 501.372 58.0568 500.744 57.4432C500.122 56.822 499.816 56.0682 499.823 55.1818C499.816 54.3182 500.122 53.5795 500.744 52.9659C501.372 52.3523 502.126 52.0455 503.005 52.0455C503.838 52.0455 504.573 52.3523 505.21 52.9659C505.853 53.5795 506.179 54.3182 506.187 55.1818C506.179 55.7727 506.024 56.3106 505.721 56.7955C505.425 57.2727 505.039 57.6553 504.562 57.9432C504.085 58.2235 503.566 58.3636 503.005 58.3636ZM547.008 58.3636C546.129 58.3636 545.375 58.0568 544.746 57.4432C544.125 56.822 543.818 56.0682 543.826 55.1818C543.818 54.3182 544.125 53.5795 544.746 52.9659C545.375 52.3523 546.129 52.0455 547.008 52.0455C547.841 52.0455 548.576 52.3523 549.212 52.9659C549.856 53.5795 550.182 54.3182 550.189 55.1818C550.182 55.7727 550.026 56.3106 549.723 56.7955C549.428 57.2727 549.042 57.6553 548.564 57.9432C548.087 58.2235 547.568 58.3636 547.008 58.3636ZM415 91.3636C414.121 91.3636 413.367 91.0568 412.739 90.4432C412.117 89.822 411.811 89.0682 411.818 88.1818C411.811 87.3182 412.117 86.5795 412.739 85.9659C413.367 85.3523 414.121 85.0455 415 85.0455C415.833 85.0455 416.568 85.3523 417.205 85.9659C417.848 86.5795 418.174 87.3182 418.182 88.1818C418.174 88.7727 418.019 89.3106 417.716 89.7955C417.42 90.2727 417.034 90.6553 416.557 90.9432C416.08 91.2235 415.561 91.3636 415 91.3636ZM459.003 91.3636C458.124 91.3636 457.37 91.0568 456.741 90.4432C456.12 89.822 455.813 89.0682 455.821 88.1818C455.813 87.3182 456.12 86.5795 456.741 85.9659C457.37 85.3523 458.124 85.0455 459.003 85.0455C459.836 85.0455 460.571 85.3523 461.207 85.9659C461.851 86.5795 462.177 87.3182 462.184 88.1818C462.177 88.7727 462.021 89.3106 461.718 89.7955C461.423 90.2727 461.037 90.6553 460.559 90.9432C460.082 91.2235 459.563 91.3636 459.003 91.3636ZM503.005 91.3636C502.126 91.3636 501.372 91.0568 500.744 90.4432C500.122 89.822 499.816 89.0682 499.823 88.1818C499.816 87.3182 500.122 86.5795 500.744 85.9659C501.372 85.3523 502.126 85.0455 503.005 85.0455C503.838 85.0455 504.573 85.3523 505.21 85.9659C505.853 86.5795 506.179 87.3182 506.187 88.1818C506.179 88.7727 506.024 89.3106 505.721 89.7955C505.425 90.2727 505.039 90.6553 504.562 90.9432C504.085 91.2235 503.566 91.3636 503.005 91.3636ZM547.008 91.3636C546.129 91.3636 545.375 91.0568 544.746 90.4432C544.125 89.822 543.818 89.0682 543.826 88.1818C543.818 87.3182 544.125 86.5795 544.746 85.9659C545.375 85.3523 546.129 85.0455 547.008 85.0455C547.841 85.0455 548.576 85.3523 549.212 85.9659C549.856 86.5795 550.182 87.3182 550.189 88.1818C550.182 88.7727 550.026 89.3106 549.723 89.7955C549.428 90.2727 549.042 90.6553 548.564 90.9432C548.087 91.2235 547.568 91.3636 547.008 91.3636ZM415 124.364C414.121 124.364 413.367 124.057 412.739 123.443C412.117 122.822 411.811 122.068 411.818 121.182C411.811 120.318 412.117 119.58 412.739 118.966C413.367 118.352 414.121 118.045 415 118.045C415.833 118.045 416.568 118.352 417.205 118.966C417.848 119.58 418.174 120.318 418.182 121.182C418.174 121.773 418.019 122.311 417.716 122.795C417.42 123.273 417.034 123.655 416.557 123.943C416.08 124.223 415.561 124.364 415 124.364ZM459.003 124.364C458.124 124.364 457.37 124.057 456.741 123.443C456.12 122.822 455.813 122.068 455.821 121.182C455.813 120.318 456.12 119.58 456.741 118.966C457.37 118.352 458.124 118.045 459.003 118.045C459.836 118.045 460.571 118.352 461.207 118.966C461.851 119.58 462.177 120.318 462.184 121.182C462.177 121.773 462.021 122.311 461.718 122.795C461.423 123.273 461.037 123.655 460.559 123.943C460.082 124.223 459.563 124.364 459.003 124.364ZM503.005 124.364C502.126 124.364 501.372 124.057 500.744 123.443C500.122 122.822 499.816 122.068 499.823 121.182C499.816 120.318 500.122 119.58 500.744 118.966C501.372 118.352 502.126 118.045 503.005 118.045C503.838 118.045 504.573 118.352 505.21 118.966C505.853 119.58 506.179 120.318 506.187 121.182C506.179 121.773 506.024 122.311 505.721 122.795C505.425 123.273 505.039 123.655 504.562 123.943C504.085 124.223 503.566 124.364 503.005 124.364ZM547.008 124.364C546.129 124.364 545.375 124.057 544.746 123.443C544.125 122.822 543.818 122.068 543.826 121.182C543.818 120.318 544.125 119.58 544.746 118.966C545.375 118.352 546.129 118.045 547.008 118.045C547.841 118.045 548.576 118.352 549.212 118.966C549.856 119.58 550.182 120.318 550.189 121.182C550.182 121.773 550.026 122.311 549.723 122.795C549.428 123.273 549.042 123.655 548.564 123.943C548.087 124.223 547.568 124.364 547.008 124.364ZM415 157.364C414.121 157.364 413.367 157.057 412.739 156.443C412.117 155.822 411.811 155.068 411.818 154.182C411.811 153.318 412.117 152.58 412.739 151.966C413.367 151.352 414.121 151.045 415 151.045C415.833 151.045 416.568 151.352 417.205 151.966C417.848 152.58 418.174 153.318 418.182 154.182C418.174 154.773 418.019 155.311 417.716 155.795C417.42 156.273 417.034 156.655 416.557 156.943C416.08 157.223 415.561 157.364 415 157.364ZM459.003 157.364C458.124 157.364 457.37 157.057 456.741 156.443C456.12 155.822 455.813 155.068 455.821 154.182C455.813 153.318 456.12 152.58 456.741 151.966C457.37 151.352 458.124 151.045 459.003 151.045C459.836 151.045 460.571 151.352 461.207 151.966C461.851 152.58 462.177 153.318 462.184 154.182C462.177 154.773 462.021 155.311 461.718 155.795C461.423 156.273 461.037 156.655 460.559 156.943C460.082 157.223 459.563 157.364 459.003 157.364ZM503.005 157.364C502.126 157.364 501.372 157.057 500.744 156.443C500.122 155.822 499.816 155.068 499.823 154.182C499.816 153.318 500.122 152.58 500.744 151.966C501.372 151.352 502.126 151.045 503.005 151.045C503.838 151.045 504.573 151.352 505.21 151.966C505.853 152.58 506.179 153.318 506.187 154.182C506.179 154.773 506.024 155.311 505.721 155.795C505.425 156.273 505.039 156.655 504.562 156.943C504.085 157.223 503.566 157.364 503.005 157.364ZM547.008 157.364C546.129 157.364 545.375 157.057 544.746 156.443C544.125 155.822 543.818 155.068 543.826 154.182C543.818 153.318 544.125 152.58 544.746 151.966C545.375 151.352 546.129 151.045 547.008 151.045C547.841 151.045 548.576 151.352 549.212 151.966C549.856 152.58 550.182 153.318 550.189 154.182C550.182 154.773 550.026 155.311 549.723 155.795C549.428 156.273 549.042 156.655 548.564 156.943C548.087 157.223 547.568 157.364 547.008 157.364Z" fill="url(#paint3_linear_149_531)"/>
<mask id="path-5-outside-1_149_531" maskUnits="userSpaceOnUse" x="146" y="273" width="916" height="85" fill="black">
<rect fill="white" x="146" y="273" width="916" height="85"/>
<path d="M151.688 279.273H176.261L193.165 320.466H194.017L210.92 279.273H235.494V352H216.176V309.955H215.608L199.415 351.432H187.767L171.574 309.67H171.006V352H151.688V279.273ZM264.596 279.273V352H244.852V279.273H264.596ZM336.879 279.273V352H320.402L294.124 313.79H293.697V352H273.953V279.273H290.714L316.567 317.341H317.135V279.273H336.879ZM365.963 279.273V352H346.219V279.273H365.963ZM434.447 302C434.257 299.633 433.37 297.786 431.783 296.46C430.221 295.134 427.842 294.472 424.646 294.472C422.61 294.472 420.941 294.72 419.638 295.217C418.36 295.691 417.413 296.342 416.798 297.17C416.182 297.999 415.862 298.946 415.839 300.011C415.791 300.887 415.945 301.68 416.3 302.391C416.679 303.077 417.271 303.705 418.076 304.273C418.881 304.817 419.911 305.314 421.165 305.764C422.42 306.214 423.912 306.616 425.64 306.972L431.606 308.25C435.63 309.102 439.075 310.227 441.94 311.624C444.804 313.02 447.148 314.666 448.971 316.56C450.794 318.43 452.131 320.537 452.984 322.881C453.86 325.224 454.309 327.781 454.333 330.551C454.309 335.333 453.114 339.382 450.746 342.696C448.379 346.01 444.994 348.532 440.59 350.26C436.21 351.988 430.943 352.852 424.788 352.852C418.467 352.852 412.951 351.917 408.239 350.047C403.552 348.177 399.906 345.3 397.302 341.418C394.721 337.511 393.419 332.516 393.396 326.432H412.146C412.264 328.657 412.82 330.527 413.815 332.043C414.809 333.558 416.206 334.706 418.005 335.487C419.828 336.268 421.994 336.659 424.504 336.659C426.611 336.659 428.374 336.399 429.795 335.878C431.215 335.357 432.292 334.635 433.026 333.712C433.76 332.788 434.139 331.735 434.163 330.551C434.139 329.438 433.772 328.468 433.062 327.639C432.375 326.787 431.239 326.029 429.653 325.366C428.067 324.68 425.924 324.041 423.225 323.449L415.981 321.886C409.541 320.49 404.463 318.158 400.746 314.891C397.053 311.6 395.219 307.114 395.242 301.432C395.219 296.815 396.45 292.779 398.935 289.322C401.445 285.842 404.913 283.132 409.34 281.19C413.791 279.249 418.893 278.278 424.646 278.278C430.517 278.278 435.595 279.261 439.88 281.226C444.165 283.191 447.468 285.961 449.788 289.536C452.131 293.087 453.315 297.241 453.339 302H434.447ZM461.844 352V279.273H481.588V307.682H507.724V279.273H527.469V352H507.724V323.591H481.588V352H461.844ZM555.736 352H534.429L558.435 279.273H585.423L609.429 352H588.122L572.213 299.301H571.645L555.736 352ZM551.759 323.307H591.815V338.08H551.759V323.307ZM616.434 352V279.273H647.826C653.223 279.273 657.946 280.255 661.995 282.22C666.043 284.185 669.192 287.014 671.441 290.707C673.69 294.401 674.814 298.828 674.814 303.989C674.814 309.197 673.654 313.589 671.334 317.163C669.038 320.738 665.806 323.437 661.64 325.26C657.497 327.083 652.655 327.994 647.115 327.994H628.365V312.653H643.138C645.458 312.653 647.435 312.369 649.069 311.801C650.726 311.209 651.992 310.274 652.868 308.996C653.768 307.717 654.218 306.048 654.218 303.989C654.218 301.905 653.768 300.213 652.868 298.911C651.992 297.585 650.726 296.614 649.069 295.999C647.435 295.359 645.458 295.04 643.138 295.04H636.178V352H616.434ZM659.047 318.619L677.229 352H655.78L638.025 318.619H659.047ZM683.23 352V279.273H702.975V308.676H703.969L725.844 279.273H748.855L724.282 311.659L749.424 352H725.844L709.509 324.727L702.975 333.25V352H683.23ZM772.648 295.182V279.273H835.858V295.182H813.983V352H794.523V295.182H772.648ZM853.001 352H831.695L855.7 279.273H882.689L906.695 352H885.388L869.479 299.301H868.911L853.001 352ZM849.024 323.307H889.081V338.08H849.024V323.307ZM976.625 279.273V352H960.148L933.87 313.79H933.444V352H913.699V279.273H930.461L956.313 317.341H956.881V279.273H976.625ZM985.965 352V279.273H1005.71V308.676H1006.7L1028.58 279.273H1051.59L1027.02 311.659L1052.16 352H1028.58L1012.24 324.727L1005.71 333.25V352H985.965Z"/>
</mask>
<path d="M151.688 279.273V274.273H146.688V279.273H151.688ZM176.261 279.273L180.887 277.375L179.614 274.273H176.261V279.273ZM193.165 320.466L188.539 322.364L189.812 325.466H193.165V320.466ZM194.017 320.466V325.466H197.37L198.643 322.364L194.017 320.466ZM210.92 279.273V274.273H207.568L206.295 277.375L210.92 279.273ZM235.494 279.273H240.494V274.273H235.494V279.273ZM235.494 352V357H240.494V352H235.494ZM216.176 352H211.176V357H216.176V352ZM216.176 309.955H221.176V304.955H216.176V309.955ZM215.608 309.955V304.955H212.192L210.95 308.136L215.608 309.955ZM199.415 351.432V356.432H202.83L204.072 353.25L199.415 351.432ZM187.767 351.432L183.105 353.239L184.343 356.432H187.767V351.432ZM171.574 309.67L176.236 307.863L174.998 304.67H171.574V309.67ZM171.006 309.67V304.67H166.006V309.67H171.006ZM171.006 352V357H176.006V352H171.006ZM151.688 352H146.688V357H151.688V352ZM151.688 284.273H176.261V274.273H151.688V284.273ZM171.636 281.171L188.539 322.364L197.79 318.568L180.887 277.375L171.636 281.171ZM193.165 325.466H194.017V315.466H193.165V325.466ZM198.643 322.364L215.546 281.171L206.295 277.375L189.391 318.568L198.643 322.364ZM210.92 284.273H235.494V274.273H210.92V284.273ZM230.494 279.273V352H240.494V279.273H230.494ZM235.494 347H216.176V357H235.494V347ZM221.176 352V309.955H211.176V352H221.176ZM216.176 304.955H215.608V314.955H216.176V304.955ZM210.95 308.136L194.757 349.613L204.072 353.25L220.266 311.773L210.95 308.136ZM199.415 346.432H187.767V356.432H199.415V346.432ZM192.429 349.624L176.236 307.863L166.912 311.478L183.105 353.239L192.429 349.624ZM171.574 304.67H171.006V314.67H171.574V304.67ZM166.006 309.67V352H176.006V309.67H166.006ZM171.006 347H151.688V357H171.006V347ZM156.688 352V279.273H146.688V352H156.688ZM264.596 279.273H269.596V274.273H264.596V279.273ZM264.596 352V357H269.596V352H264.596ZM244.852 352H239.852V357H244.852V352ZM244.852 279.273V274.273H239.852V279.273H244.852ZM259.596 279.273V352H269.596V279.273H259.596ZM264.596 347H244.852V357H264.596V347ZM249.852 352V279.273H239.852V352H249.852ZM244.852 284.273H264.596V274.273H244.852V284.273ZM336.879 279.273H341.879V274.273H336.879V279.273ZM336.879 352V357H341.879V352H336.879ZM320.402 352L316.282 354.833L317.772 357H320.402V352ZM294.124 313.79L298.243 310.956L296.753 308.79H294.124V313.79ZM293.697 313.79V308.79H288.697V313.79H293.697ZM293.697 352V357H298.697V352H293.697ZM273.953 352H268.953V357H273.953V352ZM273.953 279.273V274.273H268.953V279.273H273.953ZM290.714 279.273L294.851 276.464L293.363 274.273H290.714V279.273ZM316.567 317.341L312.43 320.15L313.918 322.341H316.567V317.341ZM317.135 317.341V322.341H322.135V317.341H317.135ZM317.135 279.273V274.273H312.135V279.273H317.135ZM331.879 279.273V352H341.879V279.273H331.879ZM336.879 347H320.402V357H336.879V347ZM324.522 349.167L298.243 310.956L290.004 316.623L316.282 354.833L324.522 349.167ZM294.124 308.79H293.697V318.79H294.124V308.79ZM288.697 313.79V352H298.697V313.79H288.697ZM293.697 347H273.953V357H293.697V347ZM278.953 352V279.273H268.953V352H278.953ZM273.953 284.273H290.714V274.273H273.953V284.273ZM286.578 282.082L312.43 320.15L320.703 314.532L294.851 276.464L286.578 282.082ZM316.567 322.341H317.135V312.341H316.567V322.341ZM322.135 317.341V279.273H312.135V317.341H322.135ZM317.135 284.273H336.879V274.273H317.135V284.273ZM365.963 279.273H370.963V274.273H365.963V279.273ZM365.963 352V357H370.963V352H365.963ZM346.219 352H341.219V357H346.219V352ZM346.219 279.273V274.273H341.219V279.273H346.219ZM360.963 279.273V352H370.963V279.273H360.963ZM365.963 347H346.219V357H365.963V347ZM351.219 352V279.273H341.219V352H351.219ZM346.219 284.273H365.963V274.273H346.219V284.273ZM434.447 302L429.463 302.399L429.831 307H434.447V302ZM431.783 296.46L428.548 300.273L428.563 300.285L428.577 300.297L431.783 296.46ZM419.638 295.217L421.375 299.906L421.399 299.897L421.422 299.888L419.638 295.217ZM416.798 297.17L412.784 294.189L412.784 294.189L416.798 297.17ZM415.839 300.011L420.831 300.281L420.836 300.202L420.838 300.122L415.839 300.011ZM416.3 302.391L411.828 304.627L411.874 304.717L411.923 304.806L416.3 302.391ZM418.076 304.273L415.193 308.358L415.233 308.386L415.274 308.414L418.076 304.273ZM425.64 306.972L426.688 302.083L426.667 302.078L426.646 302.074L425.64 306.972ZM431.606 308.25L430.558 313.139L430.57 313.142L431.606 308.25ZM441.94 311.624L439.748 316.118L441.94 311.624ZM448.971 316.56L445.368 320.027L445.379 320.038L445.39 320.05L448.971 316.56ZM452.984 322.881L448.285 324.589L448.292 324.61L448.3 324.631L452.984 322.881ZM454.333 330.551L459.333 330.576L459.333 330.542L459.333 330.508L454.333 330.551ZM450.746 342.696L454.815 345.602L454.815 345.602L450.746 342.696ZM440.59 350.26L438.763 345.606L438.755 345.609L440.59 350.26ZM408.239 350.047L406.386 354.691L406.394 354.694L408.239 350.047ZM397.302 341.418L393.13 344.174L393.14 344.188L393.149 344.203L397.302 341.418ZM393.396 326.432V321.432H388.376L388.396 326.451L393.396 326.432ZM412.146 326.432L417.139 326.166L416.887 321.432H412.146V326.432ZM413.815 332.043L409.634 334.786L409.634 334.786L413.815 332.043ZM418.005 335.487L416.014 340.074L416.024 340.078L416.035 340.083L418.005 335.487ZM429.795 335.878L431.516 340.572L431.516 340.572L429.795 335.878ZM433.026 333.712L436.94 336.823L436.94 336.823L433.026 333.712ZM434.163 330.551L439.162 330.651L439.164 330.548L439.162 330.445L434.163 330.551ZM433.062 327.639L429.168 330.776L429.216 330.835L429.266 330.893L433.062 327.639ZM429.653 325.366L427.667 329.955L427.696 329.968L427.725 329.98L429.653 325.366ZM423.225 323.449L424.296 318.565L424.288 318.563L424.279 318.561L423.225 323.449ZM415.981 321.886L414.921 326.773L414.927 326.774L415.981 321.886ZM400.746 314.891L397.42 318.624L397.433 318.635L397.445 318.646L400.746 314.891ZM395.242 301.432L400.242 301.453L400.242 301.429L400.242 301.406L395.242 301.432ZM398.935 289.322L394.88 286.398L394.876 286.403L398.935 289.322ZM409.34 281.19L407.341 276.607L407.332 276.611L409.34 281.19ZM439.88 281.226L437.796 285.771L437.796 285.771L439.88 281.226ZM449.788 289.536L445.594 292.258L445.604 292.274L445.615 292.29L449.788 289.536ZM453.339 302V307H458.364L458.339 301.975L453.339 302ZM439.431 301.601C439.152 298.113 437.762 294.94 434.99 292.624L428.577 300.297C428.977 300.631 429.363 301.153 429.463 302.399L439.431 301.601ZM435.018 292.648C432.166 290.228 428.396 289.472 424.646 289.472V299.472C427.287 299.472 428.275 300.041 428.548 300.273L435.018 292.648ZM424.646 289.472C422.256 289.472 419.925 289.756 417.855 290.546L421.422 299.888C421.956 299.684 422.963 299.472 424.646 299.472V289.472ZM417.902 290.529C416.001 291.233 414.135 292.37 412.784 294.189L420.811 300.152C420.691 300.314 420.719 300.149 421.375 299.906L417.902 290.529ZM412.784 294.189C411.53 295.877 410.886 297.835 410.84 299.9L420.838 300.122C420.838 300.09 420.841 300.075 420.841 300.075C420.841 300.075 420.84 300.078 420.839 300.082C420.838 300.087 420.836 300.094 420.834 300.101C420.828 300.117 420.822 300.132 420.815 300.144C420.809 300.156 420.806 300.159 420.811 300.152L412.784 294.189ZM410.846 299.741C410.757 301.391 411.046 303.061 411.828 304.627L420.773 300.155C420.786 300.181 420.798 300.21 420.808 300.239C420.817 300.268 420.824 300.292 420.827 300.311C420.835 300.349 420.828 300.345 420.831 300.281L410.846 299.741ZM411.923 304.806C412.748 306.303 413.924 307.462 415.193 308.358L420.959 300.188C420.618 299.947 420.61 299.852 420.678 299.975L411.923 304.806ZM415.274 308.414C416.527 309.261 417.964 309.928 419.478 310.471L422.853 301.058C421.857 300.701 421.235 300.373 420.878 300.131L415.274 308.414ZM419.478 310.471C421.013 311.021 422.743 311.481 424.634 311.869L426.646 302.074C425.08 301.752 423.828 301.407 422.853 301.058L419.478 310.471ZM424.592 311.861L430.558 313.139L432.653 303.361L426.688 302.083L424.592 311.861ZM430.57 313.142C434.304 313.932 437.34 314.943 439.748 316.118L444.131 307.129C440.811 305.51 436.957 304.272 432.642 303.358L430.57 313.142ZM439.748 316.118C442.194 317.311 444.028 318.634 445.368 320.027L452.573 313.092C450.268 310.697 447.414 308.73 444.131 307.129L439.748 316.118ZM445.39 320.05C446.742 321.437 447.686 322.943 448.285 324.589L457.683 321.172C456.577 318.13 454.845 315.423 452.551 313.07L445.39 320.05ZM448.3 324.631C448.951 326.373 449.314 328.345 449.333 330.594L459.333 330.508C459.305 327.217 458.768 324.076 457.667 321.13L448.3 324.631ZM449.333 330.526C449.314 334.46 448.345 337.456 446.678 339.79L454.815 345.602C457.883 341.308 459.305 336.207 459.333 330.576L449.333 330.526ZM446.678 339.79C444.959 342.196 442.415 344.173 438.763 345.606L442.417 354.914C447.572 352.891 451.799 349.825 454.815 345.602L446.678 339.79ZM438.755 345.609C435.109 347.048 430.498 347.852 424.788 347.852V357.852C431.388 357.852 437.312 356.929 442.425 354.911L438.755 345.609ZM424.788 347.852C418.948 347.852 414.083 346.987 410.084 345.4L406.394 354.694C411.818 356.847 417.985 357.852 424.788 357.852V347.852ZM410.092 345.403C406.263 343.875 403.452 341.61 401.454 338.632L393.149 344.203C396.36 348.99 400.841 352.478 406.386 354.691L410.092 345.403ZM401.474 338.662C399.569 335.778 398.417 331.811 398.396 326.412L388.396 326.451C388.422 333.221 389.874 339.244 393.13 344.174L401.474 338.662ZM393.396 331.432H412.146V321.432H393.396V331.432ZM407.153 326.697C407.307 329.604 408.055 332.379 409.634 334.786L417.995 329.299C417.586 328.676 417.221 327.71 417.139 326.166L407.153 326.697ZM409.634 334.786C411.207 337.183 413.398 338.938 416.014 340.074L419.996 330.901C419.014 330.474 418.411 329.933 417.995 329.299L409.634 334.786ZM416.035 340.083C418.622 341.192 421.49 341.659 424.504 341.659V331.659C422.498 331.659 421.034 331.345 419.975 330.891L416.035 340.083ZM424.504 341.659C426.984 341.659 429.374 341.358 431.516 340.572L428.073 331.183C427.374 331.44 426.237 331.659 424.504 331.659V341.659ZM431.516 340.572C433.559 339.823 435.494 338.642 436.94 336.823L429.112 330.6C429.09 330.628 428.872 330.891 428.073 331.183L431.516 340.572ZM436.94 336.823C438.359 335.038 439.116 332.926 439.162 330.651L429.164 330.451C429.163 330.495 429.159 330.519 429.157 330.529C429.156 330.539 429.155 330.54 429.156 330.537C429.157 330.534 429.157 330.535 429.153 330.542C429.149 330.549 429.137 330.569 429.112 330.6L436.94 336.823ZM439.162 330.445C439.114 328.2 438.337 326.111 436.858 324.385L429.266 330.893C429.267 330.895 429.256 330.882 429.24 330.856C429.224 330.828 429.207 330.795 429.193 330.757C429.178 330.719 429.17 330.687 429.166 330.665C429.162 330.643 429.163 330.639 429.164 330.657L439.162 330.445ZM436.956 324.503C435.531 322.734 433.538 321.571 431.581 320.753L427.725 329.98C428.294 330.218 428.678 330.43 428.921 330.592C429.166 330.755 429.212 330.83 429.168 330.776L436.956 324.503ZM431.639 320.778C429.637 319.911 427.147 319.19 424.296 318.565L422.154 328.333C424.701 328.891 426.496 329.449 427.667 329.955L431.639 320.778ZM424.279 318.561L417.035 316.999L414.927 326.774L422.171 328.336L424.279 318.561ZM417.041 317C411.167 315.726 406.949 313.685 404.047 311.135L397.445 318.646C401.978 322.63 407.916 325.253 414.921 326.773L417.041 317ZM404.073 311.158C401.614 308.967 400.223 305.937 400.242 301.453L390.242 301.411C390.214 308.29 392.492 314.233 397.42 318.624L404.073 311.158ZM400.242 301.406C400.223 297.752 401.178 294.767 402.995 292.242L394.876 286.403C391.721 290.791 390.214 295.879 390.242 301.457L400.242 301.406ZM402.991 292.247C404.914 289.58 407.633 287.398 411.348 285.769L407.332 276.611C402.193 278.865 397.975 282.105 394.88 286.398L402.991 292.247ZM411.339 285.773C415.054 284.153 419.455 283.278 424.646 283.278V273.278C418.33 273.278 412.528 274.345 407.341 276.607L411.339 285.773ZM424.646 283.278C429.969 283.278 434.305 284.17 437.796 285.771L441.964 276.681C436.885 274.352 431.064 273.278 424.646 273.278V283.278ZM437.796 285.771C441.314 287.384 443.844 289.561 445.594 292.258L453.982 286.814C451.092 282.36 447.016 278.998 441.964 276.681L437.796 285.771ZM445.615 292.29C447.362 294.937 448.319 298.118 448.339 302.025L458.339 301.975C458.311 296.365 456.901 291.236 453.961 286.781L445.615 292.29ZM453.339 297H434.447V307H453.339V297ZM461.844 352H456.844V357H461.844V352ZM461.844 279.273V274.273H456.844V279.273H461.844ZM481.588 279.273H486.588V274.273H481.588V279.273ZM481.588 307.682H476.588V312.682H481.588V307.682ZM507.724 307.682V312.682H512.724V307.682H507.724ZM507.724 279.273V274.273H502.724V279.273H507.724ZM527.469 279.273H532.469V274.273H527.469V279.273ZM527.469 352V357H532.469V352H527.469ZM507.724 352H502.724V357H507.724V352ZM507.724 323.591H512.724V318.591H507.724V323.591ZM481.588 323.591V318.591H476.588V323.591H481.588ZM481.588 352V357H486.588V352H481.588ZM466.844 352V279.273H456.844V352H466.844ZM461.844 284.273H481.588V274.273H461.844V284.273ZM476.588 279.273V307.682H486.588V279.273H476.588ZM481.588 312.682H507.724V302.682H481.588V312.682ZM512.724 307.682V279.273H502.724V307.682H512.724ZM507.724 284.273H527.469V274.273H507.724V284.273ZM522.469 279.273V352H532.469V279.273H522.469ZM527.469 347H507.724V357H527.469V347ZM512.724 352V323.591H502.724V352H512.724ZM507.724 318.591H481.588V328.591H507.724V318.591ZM476.588 323.591V352H486.588V323.591H476.588ZM481.588 347H461.844V357H481.588V347ZM555.736 352V357H559.449L560.522 353.445L555.736 352ZM534.429 352L529.681 350.433L527.513 357H534.429V352ZM558.435 279.273V274.273H554.82L553.687 277.706L558.435 279.273ZM585.423 279.273L590.171 277.706L589.038 274.273H585.423V279.273ZM609.429 352V357H616.345L614.177 350.433L609.429 352ZM588.122 352L583.336 353.445L584.409 357H588.122V352ZM572.213 299.301L577 297.856L575.927 294.301H572.213V299.301ZM571.645 299.301V294.301H567.931L566.858 297.856L571.645 299.301ZM551.759 323.307V318.307H546.759V323.307H551.759ZM591.815 323.307H596.815V318.307H591.815V323.307ZM591.815 338.08V343.08H596.815V338.08H591.815ZM551.759 338.08H546.759V343.08H551.759V338.08ZM555.736 347H534.429V357H555.736V347ZM539.177 353.567L563.183 280.84L553.687 277.706L529.681 350.433L539.177 353.567ZM558.435 284.273H585.423V274.273H558.435V284.273ZM580.675 280.84L604.681 353.567L614.177 350.433L590.171 277.706L580.675 280.84ZM609.429 347H588.122V357H609.429V347ZM592.909 350.555L577 297.856L567.426 300.746L583.336 353.445L592.909 350.555ZM572.213 294.301H571.645V304.301H572.213V294.301ZM566.858 297.856L550.949 350.555L560.522 353.445L576.432 300.746L566.858 297.856ZM551.759 328.307H591.815V318.307H551.759V328.307ZM586.815 323.307V338.08H596.815V323.307H586.815ZM591.815 333.08H551.759V343.08H591.815V333.08ZM556.759 338.08V323.307H546.759V338.08H556.759ZM616.434 352H611.434V357H616.434V352ZM616.434 279.273V274.273H611.434V279.273H616.434ZM661.995 282.22L659.811 286.718L661.995 282.22ZM671.441 290.707L675.711 288.107L675.711 288.107L671.441 290.707ZM671.334 317.163L667.14 314.441L667.134 314.451L667.127 314.461L671.334 317.163ZM661.64 325.26L659.635 320.679L659.626 320.683L661.64 325.26ZM628.365 327.994H623.365V332.994H628.365V327.994ZM628.365 312.653V307.653H623.365V312.653H628.365ZM649.069 311.801L650.711 316.524L650.731 316.517L650.75 316.51L649.069 311.801ZM652.868 308.996L648.779 306.118L648.761 306.144L648.744 306.17L652.868 308.996ZM652.868 298.911L648.697 301.667L648.725 301.71L648.755 301.753L652.868 298.911ZM649.069 295.999L647.247 300.655L647.287 300.671L647.328 300.686L649.069 295.999ZM636.178 295.04V290.04H631.178V295.04H636.178ZM636.178 352V357H641.178V352H636.178ZM659.047 318.619L663.438 316.228L662.017 313.619H659.047V318.619ZM677.229 352V357H685.646L681.62 349.608L677.229 352ZM655.78 352L651.366 354.348L652.776 357H655.78V352ZM638.025 318.619V313.619H629.702L633.61 320.967L638.025 318.619ZM621.434 352V279.273H611.434V352H621.434ZM616.434 284.273H647.826V274.273H616.434V284.273ZM647.826 284.273C652.616 284.273 656.566 285.143 659.811 286.718L664.178 277.722C659.327 275.367 653.831 274.273 647.826 274.273V284.273ZM659.811 286.718C663.033 288.282 665.441 290.469 667.17 293.308L675.711 288.107C672.942 283.559 669.053 280.088 664.178 277.722L659.811 286.718ZM667.17 293.308C668.857 296.078 669.814 299.566 669.814 303.989H679.814C679.814 298.089 678.523 292.723 675.711 288.107L667.17 293.308ZM669.814 303.989C669.814 308.447 668.828 311.841 667.14 314.441L675.528 319.885C678.481 315.336 679.814 309.947 679.814 303.989H669.814ZM667.127 314.461C665.402 317.147 662.965 319.222 659.635 320.679L663.644 329.841C668.647 327.652 672.674 324.329 675.541 319.866L667.127 314.461ZM659.626 320.683C656.243 322.172 652.113 322.994 647.115 322.994V332.994C653.197 332.994 658.75 331.994 663.653 329.837L659.626 320.683ZM647.115 322.994H628.365V332.994H647.115V322.994ZM633.365 327.994V312.653H623.365V327.994H633.365ZM628.365 317.653H643.138V307.653H628.365V317.653ZM643.138 317.653C645.839 317.653 648.404 317.326 650.711 316.524L647.426 307.079C646.466 307.412 645.078 307.653 643.138 307.653V317.653ZM650.75 316.51C653.26 315.614 655.442 314.085 656.993 311.822L648.744 306.17C648.542 306.464 648.192 306.805 647.387 307.092L650.75 316.51ZM656.957 311.873C658.612 309.521 659.218 306.755 659.218 303.989H649.218C649.218 305.342 648.924 305.913 648.779 306.118L656.957 311.873ZM659.218 303.989C659.218 301.207 658.616 298.434 656.982 296.068L648.755 301.753C648.92 301.992 649.218 302.603 649.218 303.989H659.218ZM657.04 296.154C655.514 293.844 653.344 292.253 650.809 291.311L647.328 300.686C648.108 300.975 648.471 301.325 648.697 301.667L657.04 296.154ZM650.891 291.342C648.522 290.416 645.892 290.04 643.138 290.04V300.04C645.025 300.04 646.348 300.303 647.247 300.655L650.891 291.342ZM643.138 290.04H636.178V300.04H643.138V290.04ZM631.178 295.04V352H641.178V295.04H631.178ZM636.178 347H616.434V357H636.178V347ZM654.656 321.011L672.838 354.392L681.62 349.608L663.438 316.228L654.656 321.011ZM677.229 347H655.78V357H677.229V347ZM660.195 349.652L642.439 316.271L633.61 320.967L651.366 354.348L660.195 349.652ZM638.025 323.619H659.047V313.619H638.025V323.619ZM683.23 352H678.23V357H683.23V352ZM683.23 279.273V274.273H678.23V279.273H683.23ZM702.975 279.273H707.975V274.273H702.975V279.273ZM702.975 308.676H697.975V313.676H702.975V308.676ZM703.969 308.676V313.676H706.481L707.981 311.661L703.969 308.676ZM725.844 279.273V274.273H723.332L721.833 276.288L725.844 279.273ZM748.855 279.273L752.839 282.295L758.926 274.273H748.855V279.273ZM724.282 311.659L720.298 308.637L718.216 311.381L720.038 314.304L724.282 311.659ZM749.424 352V357H758.431L753.667 349.355L749.424 352ZM725.844 352L721.555 354.569L723.011 357H725.844V352ZM709.509 324.727L713.798 322.158L710.018 315.846L705.541 321.685L709.509 324.727ZM702.975 333.25L699.007 330.208L697.975 331.554V333.25H702.975ZM702.975 352V357H707.975V352H702.975ZM688.23 352V279.273H678.23V352H688.23ZM683.23 284.273H702.975V274.273H683.23V284.273ZM697.975 279.273V308.676H707.975V279.273H697.975ZM702.975 313.676H703.969V303.676H702.975V313.676ZM707.981 311.661L729.856 282.257L721.833 276.288L699.958 305.692L707.981 311.661ZM725.844 284.273H748.855V274.273H725.844V284.273ZM744.872 276.25L720.298 308.637L728.265 314.681L752.839 282.295L744.872 276.25ZM720.038 314.304L745.18 354.645L753.667 349.355L728.525 309.014L720.038 314.304ZM749.424 347H725.844V357H749.424V347ZM730.134 349.431L713.798 322.158L705.219 327.296L721.555 354.569L730.134 349.431ZM705.541 321.685L699.007 330.208L706.943 336.292L713.477 327.769L705.541 321.685ZM697.975 333.25V352H707.975V333.25H697.975ZM702.975 347H683.23V357H702.975V347ZM772.648 295.182H767.648V300.182H772.648V295.182ZM772.648 279.273V274.273H767.648V279.273H772.648ZM835.858 279.273H840.858V274.273H835.858V279.273ZM835.858 295.182V300.182H840.858V295.182H835.858ZM813.983 295.182V290.182H808.983V295.182H813.983ZM813.983 352V357H818.983V352H813.983ZM794.523 352H789.523V357H794.523V352ZM794.523 295.182H799.523V290.182H794.523V295.182ZM777.648 295.182V279.273H767.648V295.182H777.648ZM772.648 284.273H835.858V274.273H772.648V284.273ZM830.858 279.273V295.182H840.858V279.273H830.858ZM835.858 290.182H813.983V300.182H835.858V290.182ZM808.983 295.182V352H818.983V295.182H808.983ZM813.983 347H794.523V357H813.983V347ZM799.523 352V295.182H789.523V352H799.523ZM794.523 290.182H772.648V300.182H794.523V290.182ZM853.001 352V357H856.715L857.788 353.445L853.001 352ZM831.695 352L826.947 350.433L824.779 357H831.695V352ZM855.7 279.273V274.273H852.085L850.952 277.706L855.7 279.273ZM882.689 279.273L887.437 277.706L886.304 274.273H882.689V279.273ZM906.695 352V357H913.61L911.443 350.433L906.695 352ZM885.388 352L880.601 353.445L881.674 357H885.388V352ZM869.479 299.301L874.265 297.856L873.192 294.301H869.479V299.301ZM868.911 299.301V294.301H865.197L864.124 297.856L868.911 299.301ZM849.024 323.307V318.307H844.024V323.307H849.024ZM889.081 323.307H894.081V318.307H889.081V323.307ZM889.081 338.08V343.08H894.081V338.08H889.081ZM849.024 338.08H844.024V343.08H849.024V338.08ZM853.001 347H831.695V357H853.001V347ZM836.443 353.567L860.448 280.84L850.952 277.706L826.947 350.433L836.443 353.567ZM855.7 284.273H882.689V274.273H855.7V284.273ZM877.941 280.84L901.947 353.567L911.443 350.433L887.437 277.706L877.941 280.84ZM906.695 347H885.388V357H906.695V347ZM890.174 350.555L874.265 297.856L864.692 300.746L880.601 353.445L890.174 350.555ZM869.479 294.301H868.911V304.301H869.479V294.301ZM864.124 297.856L848.215 350.555L857.788 353.445L873.697 300.746L864.124 297.856ZM849.024 328.307H889.081V318.307H849.024V328.307ZM884.081 323.307V338.08H894.081V323.307H884.081ZM889.081 333.08H849.024V343.08H889.081V333.08ZM854.024 338.08V323.307H844.024V338.08H854.024ZM976.625 279.273H981.625V274.273H976.625V279.273ZM976.625 352V357H981.625V352H976.625ZM960.148 352L956.028 354.833L957.518 357H960.148V352ZM933.87 313.79L937.989 310.956L936.499 308.79H933.87V313.79ZM933.444 313.79V308.79H928.444V313.79H933.444ZM933.444 352V357H938.444V352H933.444ZM913.699 352H908.699V357H913.699V352ZM913.699 279.273V274.273H908.699V279.273H913.699ZM930.461 279.273L934.597 276.464L933.109 274.273H930.461V279.273ZM956.313 317.341L952.177 320.15L953.664 322.341H956.313V317.341ZM956.881 317.341V322.341H961.881V317.341H956.881ZM956.881 279.273V274.273H951.881V279.273H956.881ZM971.625 279.273V352H981.625V279.273H971.625ZM976.625 347H960.148V357H976.625V347ZM964.268 349.167L937.989 310.956L929.75 316.623L956.028 354.833L964.268 349.167ZM933.87 308.79H933.444V318.79H933.87V308.79ZM928.444 313.79V352H938.444V313.79H928.444ZM933.444 347H913.699V357H933.444V347ZM918.699 352V279.273H908.699V352H918.699ZM913.699 284.273H930.461V274.273H913.699V284.273ZM926.324 282.082L952.177 320.15L960.449 314.532L934.597 276.464L926.324 282.082ZM956.313 322.341H956.881V312.341H956.313V322.341ZM961.881 317.341V279.273H951.881V317.341H961.881ZM956.881 284.273H976.625V274.273H956.881V284.273ZM985.965 352H980.965V357H985.965V352ZM985.965 279.273V274.273H980.965V279.273H985.965ZM1005.71 279.273H1010.71V274.273H1005.71V279.273ZM1005.71 308.676H1000.71V313.676H1005.71V308.676ZM1006.7 308.676V313.676H1009.22L1010.72 311.661L1006.7 308.676ZM1028.58 279.273V274.273H1026.07L1024.57 276.288L1028.58 279.273ZM1051.59 279.273L1055.57 282.295L1061.66 274.273H1051.59V279.273ZM1027.02 311.659L1023.03 308.637L1020.95 311.381L1022.77 314.304L1027.02 311.659ZM1052.16 352V357H1061.17L1056.4 349.355L1052.16 352ZM1028.58 352L1024.29 354.569L1025.74 357H1028.58V352ZM1012.24 324.727L1016.53 322.158L1012.75 315.846L1008.28 321.685L1012.24 324.727ZM1005.71 333.25L1001.74 330.208L1000.71 331.554V333.25H1005.71ZM1005.71 352V357H1010.71V352H1005.71ZM990.965 352V279.273H980.965V352H990.965ZM985.965 284.273H1005.71V274.273H985.965V284.273ZM1000.71 279.273V308.676H1010.71V279.273H1000.71ZM1005.71 313.676H1006.7V303.676H1005.71V313.676ZM1010.72 311.661L1032.59 282.257L1024.57 276.288L1002.69 305.692L1010.72 311.661ZM1028.58 284.273H1051.59V274.273H1028.58V284.273ZM1047.61 276.25L1023.03 308.637L1031 314.681L1055.57 282.295L1047.61 276.25ZM1022.77 314.304L1047.91 354.645L1056.4 349.355L1031.26 309.014L1022.77 314.304ZM1052.16 347H1028.58V357H1052.16V347ZM1032.87 349.431L1016.53 322.158L1007.95 327.296L1024.29 354.569L1032.87 349.431ZM1008.28 321.685L1001.74 330.208L1009.68 336.292L1016.21 327.769L1008.28 321.685ZM1000.71 333.25V352H1010.71V333.25H1000.71ZM1005.71 347H985.965V357H1005.71V347Z" fill="url(#paint4_linear_149_531)" mask="url(#path-5-outside-1_149_531)"/>
<path d="M63.5234 34.8515L56 54.625H64.0948L67.8088 43.9341L63.5234 34.8515Z" fill="white"/>
<path d="M74.4751 54.625L64.8566 34H72.7609L82.3794 54.625H74.4751Z" fill="white"/>
<path d="M79.1073 39.0143L76.917 34H84.5356L87.0116 39.0143H79.1073Z" fill="white"/>
<path d="M86.2498 54.625L79.4883 40.3389H87.4878L94.4398 54.625H86.2498Z" fill="white"/>
<path d="M90.882 39.0143L88.6916 34H101.643L104.024 39.0143H90.882Z" fill="white"/>
<path d="M100.405 54.625L93.8342 40.3389H101.643L108.5 54.625H100.405Z" fill="white"/>
<path d="M140.648 39.3636V35.5455H155.818V39.3636H150.568V53H145.898V39.3636H140.648ZM157.602 53V35.5455H170.181V39.3636H162.34V42.3636H169.533V46.1818H162.34V49.1818H170.147V53H157.602ZM188.827 42.0909H184.02C183.986 41.6932 183.895 41.3324 183.747 41.0085C183.605 40.6847 183.406 40.4062 183.151 40.1733C182.901 39.9347 182.597 39.7528 182.239 39.6278C181.881 39.4972 181.474 39.4318 181.02 39.4318C180.224 39.4318 179.551 39.625 179 40.0114C178.455 40.3977 178.04 40.9517 177.756 41.6733C177.477 42.3949 177.338 43.2614 177.338 44.2727C177.338 45.3409 177.48 46.2358 177.764 46.9574C178.054 47.6733 178.472 48.2131 179.017 48.5767C179.563 48.9347 180.219 49.1136 180.986 49.1136C181.423 49.1136 181.815 49.0597 182.162 48.9517C182.509 48.8381 182.81 48.6761 183.065 48.4659C183.321 48.2557 183.528 48.0028 183.688 47.7074C183.852 47.4062 183.963 47.0682 184.02 46.6932L188.827 46.7273C188.77 47.4659 188.563 48.2187 188.205 48.9858C187.847 49.7472 187.338 50.4517 186.679 51.0994C186.026 51.7415 185.216 52.2585 184.25 52.6506C183.284 53.0426 182.162 53.2386 180.884 53.2386C179.281 53.2386 177.844 52.8949 176.571 52.2074C175.304 51.5199 174.301 50.5085 173.562 49.1733C172.83 47.8381 172.463 46.2045 172.463 44.2727C172.463 42.3295 172.838 40.6932 173.588 39.3636C174.338 38.0284 175.349 37.0199 176.622 36.3381C177.895 35.6506 179.315 35.3068 180.884 35.3068C181.986 35.3068 183 35.4574 183.926 35.7585C184.852 36.0597 185.665 36.5 186.364 37.0795C187.063 37.6534 187.625 38.3608 188.051 39.2017C188.477 40.0426 188.736 41.0057 188.827 42.0909ZM190.977 53V35.5455H195.715V42.3636H201.988V35.5455H206.727V53H201.988V46.1818H195.715V53H190.977ZM224.079 35.5455V53H220.124L213.817 43.8295H213.715V53H208.977V35.5455H212.999L219.204 44.6818H219.34V35.5455H224.079ZM243.229 44.2727C243.229 46.2159 242.852 47.8551 242.096 49.1903C241.34 50.5199 240.32 51.5284 239.036 52.2159C237.752 52.8977 236.32 53.2386 234.741 53.2386C233.15 53.2386 231.712 52.8949 230.428 52.2074C229.15 51.5142 228.133 50.5028 227.377 49.1733C226.627 47.8381 226.252 46.2045 226.252 44.2727C226.252 42.3295 226.627 40.6932 227.377 39.3636C228.133 38.0284 229.15 37.0199 230.428 36.3381C231.712 35.6506 233.15 35.3068 234.741 35.3068C236.32 35.3068 237.752 35.6506 239.036 36.3381C240.32 37.0199 241.34 38.0284 242.096 39.3636C242.852 40.6932 243.229 42.3295 243.229 44.2727ZM238.354 44.2727C238.354 43.2273 238.215 42.3466 237.937 41.6307C237.664 40.9091 237.258 40.3636 236.718 39.9943C236.184 39.6193 235.525 39.4318 234.741 39.4318C233.957 39.4318 233.295 39.6193 232.755 39.9943C232.221 40.3636 231.815 40.9091 231.536 41.6307C231.263 42.3466 231.127 43.2273 231.127 44.2727C231.127 45.3182 231.263 46.2017 231.536 46.9233C231.815 47.6392 232.221 48.1847 232.755 48.5597C233.295 48.929 233.957 49.1136 234.741 49.1136C235.525 49.1136 236.184 48.929 236.718 48.5597C237.258 48.1847 237.664 47.6392 237.937 46.9233C238.215 46.2017 238.354 45.3182 238.354 44.2727ZM254.831 41C254.786 40.4318 254.572 39.9886 254.192 39.6705C253.817 39.3523 253.246 39.1932 252.479 39.1932C251.99 39.1932 251.589 39.2528 251.277 39.3722C250.97 39.4858 250.743 39.642 250.595 39.8409C250.447 40.0398 250.371 40.267 250.365 40.5227C250.354 40.733 250.391 40.9233 250.476 41.0938C250.567 41.2585 250.709 41.4091 250.902 41.5455C251.095 41.6761 251.342 41.7955 251.643 41.9034C251.945 42.0114 252.303 42.108 252.717 42.1932L254.149 42.5C255.115 42.7045 255.942 42.9744 256.629 43.3097C257.317 43.6449 257.879 44.0398 258.317 44.4943C258.754 44.9432 259.075 45.4489 259.28 46.0114C259.49 46.5739 259.598 47.1875 259.604 47.8523C259.598 49 259.311 49.9716 258.743 50.767C258.175 51.5625 257.362 52.1676 256.305 52.5824C255.254 52.9972 253.99 53.2045 252.513 53.2045C250.996 53.2045 249.672 52.9801 248.541 52.5312C247.416 52.0824 246.541 51.392 245.916 50.4602C245.297 49.5227 244.984 48.3239 244.979 46.8636H249.479C249.507 47.3977 249.641 47.8466 249.879 48.2102C250.118 48.5739 250.453 48.8494 250.885 49.0369C251.322 49.2244 251.842 49.3182 252.445 49.3182C252.95 49.3182 253.374 49.2557 253.714 49.1307C254.055 49.0057 254.314 48.8324 254.49 48.6108C254.666 48.3892 254.757 48.1364 254.763 47.8523C254.757 47.5852 254.669 47.3523 254.499 47.1534C254.334 46.9489 254.061 46.767 253.68 46.608C253.3 46.4432 252.786 46.2898 252.138 46.1477L250.399 45.7727C248.854 45.4375 247.635 44.8778 246.743 44.0938C245.857 43.304 245.416 42.2273 245.422 40.8636C245.416 39.7557 245.712 38.7869 246.308 37.9574C246.911 37.1222 247.743 36.4716 248.805 36.0057C249.874 35.5398 251.098 35.3068 252.479 35.3068C253.888 35.3068 255.107 35.5426 256.135 36.0142C257.163 36.4858 257.956 37.1506 258.513 38.0085C259.075 38.8608 259.359 39.858 259.365 41H254.831ZM261.406 53V35.5455H268.94C270.236 35.5455 271.369 35.8011 272.341 36.3125C273.313 36.8239 274.068 37.5426 274.608 38.4688C275.148 39.3949 275.418 40.4773 275.418 41.7159C275.418 42.9659 275.139 44.0483 274.582 44.9631C274.031 45.8778 273.256 46.5824 272.256 47.0767C271.261 47.571 270.099 47.8182 268.77 47.8182H264.27V44.1364H267.815C268.372 44.1364 268.847 44.0398 269.239 43.8466C269.636 43.6477 269.94 43.3665 270.151 43.0028C270.366 42.6392 270.474 42.2102 270.474 41.7159C270.474 41.2159 270.366 40.7898 270.151 40.4375C269.94 40.0795 269.636 39.8068 269.239 39.6193C268.847 39.4261 268.372 39.3295 267.815 39.3295H266.145V53H261.406ZM279.511 53H274.397L280.158 35.5455H286.636L292.397 53H287.283L283.465 40.3523H283.329L279.511 53ZM278.556 46.1136H288.17V49.6591H278.556V46.1136ZM294.078 53V35.5455H301.612C302.908 35.5455 304.041 35.7812 305.013 36.2528C305.984 36.7244 306.74 37.4034 307.28 38.2898C307.82 39.1761 308.089 40.2386 308.089 41.4773C308.089 42.7273 307.811 43.7812 307.254 44.6392C306.703 45.4972 305.928 46.1449 304.928 46.5824C303.933 47.0199 302.771 47.2386 301.442 47.2386H296.942V43.5568H300.487C301.044 43.5568 301.518 43.4886 301.911 43.3523C302.308 43.2102 302.612 42.9858 302.822 42.679C303.038 42.3722 303.146 41.9716 303.146 41.4773C303.146 40.9773 303.038 40.571 302.822 40.2585C302.612 39.9403 302.308 39.7074 301.911 39.5597C301.518 39.4062 301.044 39.3295 300.487 39.3295H298.817V53H294.078ZM304.305 44.9886L308.669 53H303.521L299.26 44.9886H304.305ZM315.189 35.5455L318.053 40.625H318.189L321.087 35.5455H326.371L321.155 44.2727L326.575 53H321.155L318.189 47.8182H318.053L315.087 53H309.7L315.053 44.2727L309.871 35.5455H315.189Z" fill="white"/>
<path opacity="0.37" d="M1076.72 22.0009C1030.55 51.2579 996.955 131.157 996 225H1157C1156.06 131.157 1122.88 51.2579 1076.71 22L1076.72 22.0009ZM1068.63 91.8116L1076.5 107.345L1084.37 91.8124C1088.66 92.8083 1092.83 94.6111 1096.84 97.1371L1098.63 117.927L1107.25 105.672C1110.66 109.15 1113.89 113.189 1116.94 117.727L1114.25 132.792L1122.13 126.223C1132.6 145.187 1140.18 170.577 1143.39 199.339C1139.08 185.577 1131.99 173.483 1122.95 164.086L1124.67 148.753L1113.67 155.911C1111.06 153.972 1108.33 152.231 1105.51 150.707L1104.07 133.166L1092.78 145.529C1089.64 144.641 1086.43 143.996 1083.15 143.629L1076.5 129.394L1069.85 143.643C1066.36 144.035 1062.93 144.722 1059.6 145.703L1048.93 134.023L1047.57 150.667C1044.72 152.201 1041.97 153.955 1039.33 155.911L1028.33 148.753L1030.06 164.086C1021.01 173.483 1013.92 185.574 1009.61 199.34C1012.82 170.575 1020.41 145.188 1030.88 126.223L1038.75 132.792L1036.06 117.727C1039.22 113.025 1042.58 108.861 1046.13 105.299L1054.39 117.018L1056.08 97.1906C1060.11 94.6377 1064.31 92.8151 1068.63 91.812V91.8116Z" fill="url(#paint5_linear_149_531)"/>
<path opacity="0.29" d="M66.4118 473.059V456.118C66.4118 445.576 66.4118 440.304 68.4635 436.278C70.2681 432.736 73.1477 429.856 76.6896 428.052C80.7162 426 85.9872 426 96.5294 426H186.882C197.424 426 202.696 426 206.722 428.052C210.264 429.856 213.144 432.736 214.948 436.278C217 440.304 217 445.576 217 456.118V546.471C217 557.013 217 562.284 214.948 566.311C213.144 569.852 210.264 572.732 206.722 574.536C202.696 576.588 197.424 576.588 186.882 576.588H127.588M132.294 538.941H188.765M104.059 491.882L132.294 473.059V501.294L188.765 454.235M188.765 454.235H160.529M188.765 454.235V482.471M94.6471 524.824C89.9412 523.656 82.2715 523.613 75.8235 523.656C73.6674 523.671 74.9709 523.579 72.0588 523.656C64.4596 523.894 57.0156 527.052 57 536C56.9836 545.533 66.4118 548.353 75.8235 548.353C85.2353 548.353 94.6471 550.529 94.6471 560.706C94.6471 568.354 87.0471 571.705 77.5751 572.815C70.0457 572.815 66.4118 573.059 57 571.882M75.8235 576.588V586M75.8235 510.706V520.118" stroke="url(#paint6_linear_149_531)" stroke-width="19" stroke-linecap="round" stroke-linejoin="round"/>
</g>
<defs>
<linearGradient id="paint0_linear_149_531" x1="-63.757" y1="-34.0073" x2="-63.757" y2="347.166" gradientUnits="userSpaceOnUse">
<stop stop-color="#FF9E0B"/>
<stop offset="1" stop-color="#EC4899"/>
</linearGradient>
<linearGradient id="paint1_linear_149_531" x1="1173" y1="695.827" x2="1173" y2="969.442" gradientUnits="userSpaceOnUse">
<stop stop-color="#FF9E0B"/>
<stop offset="1" stop-color="#F24E52"/>
</linearGradient>
<linearGradient id="paint2_linear_149_531" x1="882.5" y1="530" x2="882.5" y2="919" gradientUnits="userSpaceOnUse">
<stop stop-color="#FF9E0B"/>
<stop offset="1" stop-color="#9C67E7"/>
</linearGradient>
<linearGradient id="paint3_linear_149_531" x1="491" y1="30" x2="491" y2="162" gradientUnits="userSpaceOnUse">
<stop stop-color="#FF9E0B"/>
<stop offset="1" stop-color="#DA46EB"/>
</linearGradient>
<linearGradient id="paint4_linear_149_531" x1="600" y1="255" x2="600" y2="376" gradientUnits="userSpaceOnUse">
<stop stop-color="#FF9E0B"/>
<stop offset="0.49" stop-color="#F24E52"/>
</linearGradient>
<linearGradient id="paint5_linear_149_531" x1="1076.5" y1="22" x2="1076.5" y2="225" gradientUnits="userSpaceOnUse">
<stop stop-color="#FF9E0B"/>
<stop offset="1" stop-color="#F24E52"/>
</linearGradient>
<linearGradient id="paint6_linear_149_531" x1="137" y1="426" x2="137" y2="586" gradientUnits="userSpaceOnUse">
<stop stop-color="#F24E52"/>
<stop offset="1" stop-color="#FF9E0B"/>
</linearGradient>
<clipPath id="clip0_149_531">
<rect width="1200" height="630" fill="white"/>
</clipPath>
</defs>
</svg>
