<svg width="1200" height="630" viewBox="0 0 1200 630" fill="none" xmlns="http://www.w3.org/2000/svg">
<g clip-path="url(#clip0_148_368)">
<rect width="1200" height="630" fill="black"/>
<rect x="-427.809" y="-32.4841" width="729.486" height="376.173" transform="rotate(-19.4848 -427.809 -32.4841)" stroke="url(#paint0_linear_148_368)" stroke-width="5"/>
<rect x="883" y="695.827" width="580" height="273.616" transform="rotate(-35.26 883 695.827)" fill="url(#paint1_linear_148_368)"/>
<circle cx="882.5" cy="724.5" r="193" stroke="url(#paint2_linear_148_368)" stroke-width="3"/>
<path opacity="0.49" d="M415 58.3636C414.121 58.3636 413.367 58.0568 412.739 57.4432C412.117 56.822 411.811 56.0682 411.818 55.1818C411.811 54.3182 412.117 53.5795 412.739 52.9659C413.367 52.3523 414.121 52.0455 415 52.0455C415.833 52.0455 416.568 52.3523 417.205 52.9659C417.848 53.5795 418.174 54.3182 418.182 55.1818C418.174 55.7727 418.019 56.3106 417.716 56.7955C417.42 57.2727 417.034 57.6553 416.557 57.9432C416.08 58.2235 415.561 58.3636 415 58.3636ZM459.003 58.3636C458.124 58.3636 457.37 58.0568 456.741 57.4432C456.12 56.822 455.813 56.0682 455.821 55.1818C455.813 54.3182 456.12 53.5795 456.741 52.9659C457.37 52.3523 458.124 52.0455 459.003 52.0455C459.836 52.0455 460.571 52.3523 461.207 52.9659C461.851 53.5795 462.177 54.3182 462.184 55.1818C462.177 55.7727 462.021 56.3106 461.718 56.7955C461.423 57.2727 461.037 57.6553 460.559 57.9432C460.082 58.2235 459.563 58.3636 459.003 58.3636ZM503.005 58.3636C502.126 58.3636 501.372 58.0568 500.744 57.4432C500.122 56.822 499.816 56.0682 499.823 55.1818C499.816 54.3182 500.122 53.5795 500.744 52.9659C501.372 52.3523 502.126 52.0455 503.005 52.0455C503.838 52.0455 504.573 52.3523 505.21 52.9659C505.853 53.5795 506.179 54.3182 506.187 55.1818C506.179 55.7727 506.024 56.3106 505.721 56.7955C505.425 57.2727 505.039 57.6553 504.562 57.9432C504.085 58.2235 503.566 58.3636 503.005 58.3636ZM547.008 58.3636C546.129 58.3636 545.375 58.0568 544.746 57.4432C544.125 56.822 543.818 56.0682 543.826 55.1818C543.818 54.3182 544.125 53.5795 544.746 52.9659C545.375 52.3523 546.129 52.0455 547.008 52.0455C547.841 52.0455 548.576 52.3523 549.212 52.9659C549.856 53.5795 550.182 54.3182 550.189 55.1818C550.182 55.7727 550.026 56.3106 549.723 56.7955C549.428 57.2727 549.042 57.6553 548.564 57.9432C548.087 58.2235 547.568 58.3636 547.008 58.3636ZM415 91.3636C414.121 91.3636 413.367 91.0568 412.739 90.4432C412.117 89.822 411.811 89.0682 411.818 88.1818C411.811 87.3182 412.117 86.5795 412.739 85.9659C413.367 85.3523 414.121 85.0455 415 85.0455C415.833 85.0455 416.568 85.3523 417.205 85.9659C417.848 86.5795 418.174 87.3182 418.182 88.1818C418.174 88.7727 418.019 89.3106 417.716 89.7955C417.42 90.2727 417.034 90.6553 416.557 90.9432C416.08 91.2235 415.561 91.3636 415 91.3636ZM459.003 91.3636C458.124 91.3636 457.37 91.0568 456.741 90.4432C456.12 89.822 455.813 89.0682 455.821 88.1818C455.813 87.3182 456.12 86.5795 456.741 85.9659C457.37 85.3523 458.124 85.0455 459.003 85.0455C459.836 85.0455 460.571 85.3523 461.207 85.9659C461.851 86.5795 462.177 87.3182 462.184 88.1818C462.177 88.7727 462.021 89.3106 461.718 89.7955C461.423 90.2727 461.037 90.6553 460.559 90.9432C460.082 91.2235 459.563 91.3636 459.003 91.3636ZM503.005 91.3636C502.126 91.3636 501.372 91.0568 500.744 90.4432C500.122 89.822 499.816 89.0682 499.823 88.1818C499.816 87.3182 500.122 86.5795 500.744 85.9659C501.372 85.3523 502.126 85.0455 503.005 85.0455C503.838 85.0455 504.573 85.3523 505.21 85.9659C505.853 86.5795 506.179 87.3182 506.187 88.1818C506.179 88.7727 506.024 89.3106 505.721 89.7955C505.425 90.2727 505.039 90.6553 504.562 90.9432C504.085 91.2235 503.566 91.3636 503.005 91.3636ZM547.008 91.3636C546.129 91.3636 545.375 91.0568 544.746 90.4432C544.125 89.822 543.818 89.0682 543.826 88.1818C543.818 87.3182 544.125 86.5795 544.746 85.9659C545.375 85.3523 546.129 85.0455 547.008 85.0455C547.841 85.0455 548.576 85.3523 549.212 85.9659C549.856 86.5795 550.182 87.3182 550.189 88.1818C550.182 88.7727 550.026 89.3106 549.723 89.7955C549.428 90.2727 549.042 90.6553 548.564 90.9432C548.087 91.2235 547.568 91.3636 547.008 91.3636ZM415 124.364C414.121 124.364 413.367 124.057 412.739 123.443C412.117 122.822 411.811 122.068 411.818 121.182C411.811 120.318 412.117 119.58 412.739 118.966C413.367 118.352 414.121 118.045 415 118.045C415.833 118.045 416.568 118.352 417.205 118.966C417.848 119.58 418.174 120.318 418.182 121.182C418.174 121.773 418.019 122.311 417.716 122.795C417.42 123.273 417.034 123.655 416.557 123.943C416.08 124.223 415.561 124.364 415 124.364ZM459.003 124.364C458.124 124.364 457.37 124.057 456.741 123.443C456.12 122.822 455.813 122.068 455.821 121.182C455.813 120.318 456.12 119.58 456.741 118.966C457.37 118.352 458.124 118.045 459.003 118.045C459.836 118.045 460.571 118.352 461.207 118.966C461.851 119.58 462.177 120.318 462.184 121.182C462.177 121.773 462.021 122.311 461.718 122.795C461.423 123.273 461.037 123.655 460.559 123.943C460.082 124.223 459.563 124.364 459.003 124.364ZM503.005 124.364C502.126 124.364 501.372 124.057 500.744 123.443C500.122 122.822 499.816 122.068 499.823 121.182C499.816 120.318 500.122 119.58 500.744 118.966C501.372 118.352 502.126 118.045 503.005 118.045C503.838 118.045 504.573 118.352 505.21 118.966C505.853 119.58 506.179 120.318 506.187 121.182C506.179 121.773 506.024 122.311 505.721 122.795C505.425 123.273 505.039 123.655 504.562 123.943C504.085 124.223 503.566 124.364 503.005 124.364ZM547.008 124.364C546.129 124.364 545.375 124.057 544.746 123.443C544.125 122.822 543.818 122.068 543.826 121.182C543.818 120.318 544.125 119.58 544.746 118.966C545.375 118.352 546.129 118.045 547.008 118.045C547.841 118.045 548.576 118.352 549.212 118.966C549.856 119.58 550.182 120.318 550.189 121.182C550.182 121.773 550.026 122.311 549.723 122.795C549.428 123.273 549.042 123.655 548.564 123.943C548.087 124.223 547.568 124.364 547.008 124.364ZM415 157.364C414.121 157.364 413.367 157.057 412.739 156.443C412.117 155.822 411.811 155.068 411.818 154.182C411.811 153.318 412.117 152.58 412.739 151.966C413.367 151.352 414.121 151.045 415 151.045C415.833 151.045 416.568 151.352 417.205 151.966C417.848 152.58 418.174 153.318 418.182 154.182C418.174 154.773 418.019 155.311 417.716 155.795C417.42 156.273 417.034 156.655 416.557 156.943C416.08 157.223 415.561 157.364 415 157.364ZM459.003 157.364C458.124 157.364 457.37 157.057 456.741 156.443C456.12 155.822 455.813 155.068 455.821 154.182C455.813 153.318 456.12 152.58 456.741 151.966C457.37 151.352 458.124 151.045 459.003 151.045C459.836 151.045 460.571 151.352 461.207 151.966C461.851 152.58 462.177 153.318 462.184 154.182C462.177 154.773 462.021 155.311 461.718 155.795C461.423 156.273 461.037 156.655 460.559 156.943C460.082 157.223 459.563 157.364 459.003 157.364ZM503.005 157.364C502.126 157.364 501.372 157.057 500.744 156.443C500.122 155.822 499.816 155.068 499.823 154.182C499.816 153.318 500.122 152.58 500.744 151.966C501.372 151.352 502.126 151.045 503.005 151.045C503.838 151.045 504.573 151.352 505.21 151.966C505.853 152.58 506.179 153.318 506.187 154.182C506.179 154.773 506.024 155.311 505.721 155.795C505.425 156.273 505.039 156.655 504.562 156.943C504.085 157.223 503.566 157.364 503.005 157.364ZM547.008 157.364C546.129 157.364 545.375 157.057 544.746 156.443C544.125 155.822 543.818 155.068 543.826 154.182C543.818 153.318 544.125 152.58 544.746 151.966C545.375 151.352 546.129 151.045 547.008 151.045C547.841 151.045 548.576 151.352 549.212 151.966C549.856 152.58 550.182 153.318 550.189 154.182C550.182 154.773 550.026 155.311 549.723 155.795C549.428 156.273 549.042 156.655 548.564 156.943C548.087 157.223 547.568 157.364 547.008 157.364Z" fill="url(#paint3_linear_148_368)"/>
<mask id="path-5-outside-1_148_368" maskUnits="userSpaceOnUse" x="201" y="257" width="803" height="137" fill="black">
<rect fill="white" x="201" y="257" width="803" height="137"/>
<path d="M206 268.909H237.455L259.091 321.636H260.182L281.818 268.909H313.273V362H288.545V308.182H287.818L267.091 361.273H252.182L231.455 307.818H230.727V362H206V268.909ZM359.25 363.273C351.674 363.273 345.189 361.773 339.795 358.773C334.402 355.742 330.265 351.53 327.386 346.136C324.508 340.712 323.068 334.424 323.068 327.273C323.068 320.121 324.508 313.848 327.386 308.455C330.265 303.03 334.402 298.818 339.795 295.818C345.189 292.788 351.674 291.273 359.25 291.273C366.826 291.273 373.311 292.788 378.705 295.818C384.098 298.818 388.235 303.03 391.114 308.455C393.992 313.848 395.432 320.121 395.432 327.273C395.432 334.424 393.992 340.712 391.114 346.136C388.235 351.53 384.098 355.742 378.705 358.773C373.311 361.773 366.826 363.273 359.25 363.273ZM359.432 344.727C361.553 344.727 363.386 344.015 364.932 342.591C366.477 341.167 367.674 339.136 368.523 336.5C369.371 333.864 369.795 330.727 369.795 327.091C369.795 323.424 369.371 320.288 368.523 317.682C367.674 315.045 366.477 313.015 364.932 311.591C363.386 310.167 361.553 309.455 359.432 309.455C357.189 309.455 355.265 310.167 353.659 311.591C352.053 313.015 350.826 315.045 349.977 317.682C349.129 320.288 348.705 323.424 348.705 327.091C348.705 330.727 349.129 333.864 349.977 336.5C350.826 339.136 352.053 341.167 353.659 342.591C355.265 344.015 357.189 344.727 359.432 344.727ZM430.705 322.727V362H405.614V292.182H429.432V305.455H430.159C431.674 301.03 434.341 297.561 438.159 295.045C442.008 292.53 446.492 291.273 451.614 291.273C456.553 291.273 460.841 292.409 464.477 294.682C468.144 296.924 470.977 300.015 472.977 303.955C475.008 307.894 476.008 312.394 475.977 317.455V362H450.886V322.727C450.917 319.273 450.038 316.561 448.25 314.591C446.492 312.621 444.038 311.636 440.886 311.636C438.826 311.636 437.023 312.091 435.477 313C433.962 313.879 432.795 315.152 431.977 316.818C431.159 318.455 430.735 320.424 430.705 322.727ZM521.818 363.273C514.364 363.273 507.939 361.848 502.545 359C497.182 356.121 493.045 352 490.136 346.636C487.258 341.242 485.818 334.788 485.818 327.273C485.818 320.061 487.273 313.758 490.182 308.364C493.091 302.97 497.197 298.773 502.5 295.773C507.803 292.773 514.061 291.273 521.273 291.273C526.545 291.273 531.318 292.091 535.591 293.727C539.864 295.364 543.515 297.742 546.545 300.864C549.576 303.955 551.909 307.712 553.545 312.136C555.182 316.561 556 321.545 556 327.091V332.909H493.636V319.091H532.909C532.879 317.091 532.364 315.333 531.364 313.818C530.394 312.273 529.076 311.076 527.409 310.227C525.773 309.348 523.909 308.909 521.818 308.909C519.788 308.909 517.924 309.348 516.227 310.227C514.53 311.076 513.167 312.258 512.136 313.773C511.136 315.288 510.606 317.061 510.545 319.091V334C510.545 336.242 511.015 338.242 511.955 340C512.894 341.758 514.242 343.136 516 344.136C517.758 345.136 519.879 345.636 522.364 345.636C524.091 345.636 525.667 345.394 527.091 344.909C528.545 344.424 529.788 343.727 530.818 342.818C531.848 341.879 532.606 340.758 533.091 339.455H556C555.212 344.303 553.348 348.515 550.409 352.091C547.47 355.636 543.576 358.394 538.727 360.364C533.909 362.303 528.273 363.273 521.818 363.273ZM579.761 388.182C576.883 388.182 574.14 387.955 571.534 387.5C568.928 387.076 566.64 386.485 564.67 385.727L570.125 367.909C572.186 368.636 574.064 369.106 575.761 369.318C577.489 369.53 578.958 369.409 580.17 368.955C581.413 368.5 582.307 367.636 582.852 366.364L583.398 365.091L558.852 292.182H585.034L596.307 340.545H597.034L608.489 292.182H634.852L609.398 367.818C608.125 371.667 606.277 375.121 603.852 378.182C601.458 381.273 598.307 383.712 594.398 385.5C590.489 387.288 585.61 388.182 579.761 388.182ZM667.125 362V268.909H692.398V305.273H725.852V268.909H751.125V362H725.852V325.636H692.398V362H667.125ZM796.943 363.273C789.489 363.273 783.064 361.848 777.67 359C772.307 356.121 768.17 352 765.261 346.636C762.383 341.242 760.943 334.788 760.943 327.273C760.943 320.061 762.398 313.758 765.307 308.364C768.216 302.97 772.322 298.773 777.625 295.773C782.928 292.773 789.186 291.273 796.398 291.273C801.67 291.273 806.443 292.091 810.716 293.727C814.989 295.364 818.64 297.742 821.67 300.864C824.701 303.955 827.034 307.712 828.67 312.136C830.307 316.561 831.125 321.545 831.125 327.091V332.909H768.761V319.091H808.034C808.004 317.091 807.489 315.333 806.489 313.818C805.519 312.273 804.201 311.076 802.534 310.227C800.898 309.348 799.034 308.909 796.943 308.909C794.913 308.909 793.049 309.348 791.352 310.227C789.655 311.076 788.292 312.258 787.261 313.773C786.261 315.288 785.731 317.061 785.67 319.091V334C785.67 336.242 786.14 338.242 787.08 340C788.019 341.758 789.367 343.136 791.125 344.136C792.883 345.136 795.004 345.636 797.489 345.636C799.216 345.636 800.792 345.394 802.216 344.909C803.67 344.424 804.913 343.727 805.943 342.818C806.973 341.879 807.731 340.758 808.216 339.455H831.125C830.337 344.303 828.473 348.515 825.534 352.091C822.595 355.636 818.701 358.394 813.852 360.364C809.034 362.303 803.398 363.273 796.943 363.273ZM841.364 362V292.182H866.455V362H841.364ZM853.909 284.909C850.515 284.909 847.606 283.788 845.182 281.545C842.758 279.303 841.545 276.606 841.545 273.455C841.545 270.303 842.758 267.606 845.182 265.364C847.606 263.121 850.515 262 853.909 262C857.333 262 860.242 263.121 862.636 265.364C865.061 267.606 866.273 270.303 866.273 273.455C866.273 276.606 865.061 279.303 862.636 281.545C860.242 283.788 857.333 284.909 853.909 284.909ZM943.057 314.909H919.966C919.845 313.485 919.345 312.258 918.466 311.227C917.587 310.197 916.451 309.409 915.057 308.864C913.693 308.288 912.178 308 910.511 308C908.36 308 906.511 308.394 904.966 309.182C903.42 309.97 902.663 311.091 902.693 312.545C902.663 313.576 903.102 314.53 904.011 315.409C904.951 316.288 906.754 316.97 909.42 317.455L923.602 320C930.754 321.303 936.072 323.5 939.557 326.591C943.072 329.652 944.845 333.758 944.875 338.909C944.845 343.879 943.36 348.197 940.42 351.864C937.511 355.5 933.527 358.318 928.466 360.318C923.436 362.288 917.693 363.273 911.239 363.273C900.572 363.273 892.223 361.091 886.193 356.727C880.193 352.364 876.845 346.606 876.148 339.455H901.057C901.39 341.667 902.481 343.379 904.33 344.591C906.208 345.773 908.572 346.364 911.42 346.364C913.723 346.364 915.617 345.97 917.102 345.182C918.617 344.394 919.39 343.273 919.42 341.818C919.39 340.485 918.723 339.424 917.42 338.636C916.148 337.848 914.148 337.212 911.42 336.727L899.057 334.545C891.936 333.303 886.602 330.939 883.057 327.455C879.511 323.97 877.754 319.485 877.784 314C877.754 309.152 879.027 305.045 881.602 301.682C884.208 298.288 887.92 295.712 892.739 293.955C897.587 292.167 903.33 291.273 909.966 291.273C920.057 291.273 928.011 293.364 933.83 297.545C939.678 301.727 942.754 307.515 943.057 314.909ZM996.125 292.182V310.364H950.125V292.182H996.125ZM959.034 275.455H984.125V339.545C984.125 340.515 984.292 341.333 984.625 342C984.958 342.636 985.473 343.121 986.17 343.455C986.867 343.758 987.761 343.909 988.852 343.909C989.61 343.909 990.489 343.818 991.489 343.636C992.519 343.455 993.277 343.303 993.761 343.182L997.398 360.818C996.277 361.152 994.67 361.561 992.58 362.045C990.519 362.53 988.064 362.848 985.216 363C979.458 363.303 974.625 362.712 970.716 361.227C966.807 359.712 963.867 357.333 961.898 354.091C959.928 350.848 958.973 346.788 959.034 341.909V275.455Z"/>
</mask>
<path d="M206 268.909V263.909H201V268.909H206ZM237.455 268.909L242.08 267.011L240.807 263.909H237.455V268.909ZM259.091 321.636L254.465 323.534L255.738 326.636H259.091V321.636ZM260.182 321.636V326.636H263.535L264.808 323.534L260.182 321.636ZM281.818 268.909V263.909H278.465L277.192 267.011L281.818 268.909ZM313.273 268.909H318.273V263.909H313.273V268.909ZM313.273 362V367H318.273V362H313.273ZM288.545 362H283.545V367H288.545V362ZM288.545 308.182H293.545V303.182H288.545V308.182ZM287.818 308.182V303.182H284.403L283.161 306.363L287.818 308.182ZM267.091 361.273V366.273H270.506L271.749 363.091L267.091 361.273ZM252.182 361.273L247.52 363.08L248.758 366.273H252.182V361.273ZM231.455 307.818L236.116 306.011L234.878 302.818H231.455V307.818ZM230.727 307.818V302.818H225.727V307.818H230.727ZM230.727 362V367H235.727V362H230.727ZM206 362H201V367H206V362ZM206 273.909H237.455V263.909H206V273.909ZM232.829 270.807L254.465 323.534L263.717 319.738L242.08 267.011L232.829 270.807ZM259.091 326.636H260.182V316.636H259.091V326.636ZM264.808 323.534L286.444 270.807L277.192 267.011L255.556 319.738L264.808 323.534ZM281.818 273.909H313.273V263.909H281.818V273.909ZM308.273 268.909V362H318.273V268.909H308.273ZM313.273 357H288.545V367H313.273V357ZM293.545 362V308.182H283.545V362H293.545ZM288.545 303.182H287.818V313.182H288.545V303.182ZM283.161 306.363L262.433 359.454L271.749 363.091L292.476 310L283.161 306.363ZM267.091 356.273H252.182V366.273H267.091V356.273ZM256.844 359.465L236.116 306.011L226.793 309.626L247.52 363.08L256.844 359.465ZM231.455 302.818H230.727V312.818H231.455V302.818ZM225.727 307.818V362H235.727V307.818H225.727ZM230.727 357H206V367H230.727V357ZM211 362V268.909H201V362H211ZM339.795 358.773L337.346 363.132L337.356 363.137L337.365 363.142L339.795 358.773ZM327.386 346.136L322.97 348.48L322.975 348.491L327.386 346.136ZM327.386 308.455L331.797 310.809L331.803 310.799L327.386 308.455ZM339.795 295.818L342.226 300.188L342.235 300.183L342.244 300.177L339.795 295.818ZM378.705 295.818L376.256 300.177L376.265 300.183L376.274 300.188L378.705 295.818ZM391.114 308.455L386.697 310.799L386.703 310.809L391.114 308.455ZM391.114 346.136L395.525 348.491L395.53 348.48L391.114 346.136ZM378.705 358.773L381.135 363.142L381.144 363.137L381.154 363.132L378.705 358.773ZM364.932 342.591L368.32 346.268L368.32 346.268L364.932 342.591ZM368.523 336.5L373.282 338.032L373.282 338.032L368.523 336.5ZM368.523 317.682L363.763 319.214L363.766 319.222L363.768 319.23L368.523 317.682ZM364.932 311.591L368.32 307.914L368.32 307.914L364.932 311.591ZM349.977 317.682L354.732 319.23L354.734 319.222L354.737 319.214L349.977 317.682ZM349.977 336.5L354.737 334.968L354.737 334.968L349.977 336.5ZM359.25 358.273C352.333 358.273 346.725 356.906 342.226 354.403L337.365 363.142C343.654 366.64 351.015 368.273 359.25 368.273V358.273ZM342.244 354.414C337.672 351.845 334.221 348.324 331.797 343.782L322.975 348.491C326.309 354.737 331.131 359.64 337.346 363.132L342.244 354.414ZM331.803 343.792C329.366 339.201 328.068 333.742 328.068 327.273H318.068C318.068 335.107 319.649 342.224 322.97 348.48L331.803 343.792ZM328.068 327.273C328.068 320.803 329.366 315.364 331.797 310.809L322.975 306.1C319.649 312.333 318.068 319.44 318.068 327.273H328.068ZM331.803 310.799C334.227 306.232 337.671 302.721 342.226 300.188L337.365 291.449C331.132 294.915 326.304 299.829 322.97 306.111L331.803 310.799ZM342.244 300.177C346.74 297.652 352.341 296.273 359.25 296.273V286.273C351.008 286.273 343.639 287.924 337.346 291.459L342.244 300.177ZM359.25 296.273C366.159 296.273 371.76 297.652 376.256 300.177L381.154 291.459C374.861 287.924 367.492 286.273 359.25 286.273V296.273ZM376.274 300.188C380.829 302.721 384.273 306.232 386.697 310.799L395.53 306.111C392.196 299.829 387.368 294.915 381.135 291.449L376.274 300.188ZM386.703 310.809C389.134 315.364 390.432 320.803 390.432 327.273H400.432C400.432 319.44 398.851 312.333 395.525 306.1L386.703 310.809ZM390.432 327.273C390.432 333.742 389.134 339.201 386.697 343.792L395.53 348.48C398.851 342.224 400.432 335.107 400.432 327.273H390.432ZM386.703 343.782C384.279 348.324 380.828 351.845 376.256 354.414L381.154 363.132C387.369 359.64 392.191 354.737 395.525 348.491L386.703 343.782ZM376.274 354.403C371.775 356.906 366.167 358.273 359.25 358.273V368.273C367.485 368.273 374.846 366.64 381.135 363.142L376.274 354.403ZM359.432 349.727C362.796 349.727 365.842 348.552 368.32 346.268L361.543 338.914C360.931 339.479 360.31 339.727 359.432 339.727V349.727ZM368.32 346.268C370.67 344.102 372.251 341.237 373.282 338.032L363.763 334.968C363.098 337.036 362.284 338.232 361.543 338.914L368.32 346.268ZM373.282 338.032C374.331 334.773 374.795 331.094 374.795 327.091H364.795C364.795 330.36 364.411 332.954 363.763 334.968L373.282 338.032ZM374.795 327.091C374.795 323.065 374.333 319.376 373.277 316.134L363.768 319.23C364.41 321.199 364.795 323.784 364.795 327.091H374.795ZM373.282 316.15C372.251 312.945 370.67 310.08 368.32 307.914L361.543 315.268C362.284 315.95 363.098 317.146 363.763 319.214L373.282 316.15ZM368.32 307.914C365.842 305.63 362.796 304.455 359.432 304.455V314.455C360.31 314.455 360.931 314.703 361.543 315.268L368.32 307.914ZM359.432 304.455C356.027 304.455 352.906 305.576 350.342 307.85L356.977 315.332C357.624 314.758 358.352 314.455 359.432 314.455V304.455ZM350.342 307.85C347.898 310.017 346.262 312.904 345.218 316.15L354.737 319.214C355.389 317.187 356.208 316.013 356.977 315.332L350.342 307.85ZM345.223 316.134C344.167 319.376 343.705 323.065 343.705 327.091H353.705C353.705 323.784 354.09 321.199 354.732 319.23L345.223 316.134ZM343.705 327.091C343.705 331.094 344.169 334.773 345.218 338.032L354.737 334.968C354.089 332.954 353.705 330.36 353.705 327.091H343.705ZM345.218 338.032C346.262 341.278 347.898 344.165 350.342 346.332L356.977 338.85C356.208 338.168 355.389 336.995 354.737 334.968L345.218 338.032ZM350.342 346.332C352.906 348.606 356.027 349.727 359.432 349.727V339.727C358.352 339.727 357.624 339.424 356.977 338.85L350.342 346.332ZM430.705 322.727L425.705 322.661L425.705 322.694V322.727H430.705ZM430.705 362V367H435.705V362H430.705ZM405.614 362H400.614V367H405.614V362ZM405.614 292.182V287.182H400.614V292.182H405.614ZM429.432 292.182H434.432V287.182H429.432V292.182ZM429.432 305.455H424.432V310.455H429.432V305.455ZM430.159 305.455V310.455H433.732L434.889 307.075L430.159 305.455ZM438.159 295.045L435.424 290.86L435.416 290.865L435.409 290.87L438.159 295.045ZM464.477 294.682L461.827 298.922L461.848 298.935L461.869 298.947L464.477 294.682ZM472.977 303.955L468.519 306.218L468.526 306.232L468.533 306.245L472.977 303.955ZM475.977 317.455L470.977 317.425L470.977 317.44V317.455H475.977ZM475.977 362V367H480.977V362H475.977ZM450.886 362H445.886V367H450.886V362ZM450.886 322.727L445.887 322.683L445.886 322.705V322.727H450.886ZM448.25 314.591L444.519 317.92L444.533 317.936L444.548 317.951L448.25 314.591ZM435.477 313L437.986 317.325L437.999 317.317L438.012 317.31L435.477 313ZM431.977 316.818L436.449 319.054L436.458 319.038L436.466 319.022L431.977 316.818ZM425.705 322.727V362H435.705V322.727H425.705ZM430.705 357H405.614V367H430.705V357ZM410.614 362V292.182H400.614V362H410.614ZM405.614 297.182H429.432V287.182H405.614V297.182ZM424.432 292.182V305.455H434.432V292.182H424.432ZM429.432 310.455H430.159V300.455H429.432V310.455ZM434.889 307.075C436.055 303.672 438.039 301.112 440.91 299.221L435.409 290.87C430.643 294.009 427.294 298.389 425.429 303.835L434.889 307.075ZM440.894 299.231C443.839 297.307 447.349 296.273 451.614 296.273V286.273C445.635 286.273 440.176 287.754 435.424 290.86L440.894 299.231ZM451.614 296.273C455.761 296.273 459.1 297.218 461.827 298.922L467.127 290.442C462.581 287.601 457.345 286.273 451.614 286.273V296.273ZM461.869 298.947C464.722 300.693 466.926 303.08 468.519 306.218L477.436 301.691C475.029 296.95 471.566 293.156 467.086 290.416L461.869 298.947ZM468.533 306.245C470.144 309.371 471.004 313.056 470.977 317.425L480.977 317.484C481.012 311.732 479.871 306.417 477.422 301.664L468.533 306.245ZM470.977 317.455V362H480.977V317.455H470.977ZM475.977 357H450.886V367H475.977V357ZM455.886 362V322.727H445.886V362H455.886ZM455.886 322.771C455.924 318.446 454.814 314.383 451.952 311.23L444.548 317.951C445.262 318.738 445.909 320.099 445.887 322.683L455.886 322.771ZM451.981 311.262C449.091 308.023 445.161 306.636 440.886 306.636V316.636C442.915 316.636 443.894 317.219 444.519 317.92L451.981 311.262ZM440.886 306.636C438.069 306.636 435.365 307.265 432.942 308.69L438.012 317.31C438.681 316.917 439.582 316.636 440.886 316.636V306.636ZM432.969 308.675C430.546 310.08 428.715 312.117 427.489 314.615L436.466 319.022C436.876 318.186 437.378 317.678 437.986 317.325L432.969 308.675ZM427.505 314.582C426.274 317.044 425.743 319.794 425.705 322.661L435.704 322.793C435.727 321.054 436.044 319.865 436.449 319.054L427.505 314.582ZM502.545 359L500.181 363.406L500.196 363.414L500.211 363.421L502.545 359ZM490.136 346.636L485.725 348.991L485.733 349.005L485.741 349.02L490.136 346.636ZM490.182 308.364L494.583 310.737L494.583 310.737L490.182 308.364ZM502.5 295.773L504.962 300.125L504.962 300.125L502.5 295.773ZM535.591 293.727L537.379 289.058L537.379 289.058L535.591 293.727ZM546.545 300.864L542.958 304.347L542.967 304.355L542.975 304.364L546.545 300.864ZM553.545 312.136L548.856 313.871L548.856 313.871L553.545 312.136ZM556 332.909V337.909H561V332.909H556ZM493.636 332.909H488.636V337.909H493.636V332.909ZM493.636 319.091V314.091H488.636V319.091H493.636ZM532.909 319.091V324.091H537.985L537.909 319.015L532.909 319.091ZM531.364 313.818L527.128 316.476L527.159 316.524L527.191 316.572L531.364 313.818ZM527.409 310.227L525.043 314.632L525.092 314.658L525.141 314.683L527.409 310.227ZM516.227 310.227L518.463 314.699L518.495 314.684L518.527 314.667L516.227 310.227ZM512.136 313.773L508.002 310.961L507.982 310.99L507.963 311.019L512.136 313.773ZM510.545 319.091L505.548 318.942L505.545 319.016V319.091H510.545ZM511.955 340L507.545 342.357L507.545 342.357L511.955 340ZM516 344.136L513.527 348.482L513.527 348.482L516 344.136ZM527.091 344.909L525.51 340.166L525.495 340.171L525.48 340.176L527.091 344.909ZM530.818 342.818L534.126 346.567L534.157 346.54L534.187 346.513L530.818 342.818ZM533.091 339.455V334.455H529.616L528.405 337.711L533.091 339.455ZM556 339.455L560.935 340.257L561.878 334.455H556V339.455ZM550.409 352.091L554.258 355.282L554.265 355.274L554.272 355.266L550.409 352.091ZM538.727 360.364L540.594 365.002L540.602 364.999L540.609 364.996L538.727 360.364ZM521.818 358.273C514.999 358.273 509.412 356.972 504.88 354.579L500.211 363.421C506.467 366.725 513.728 368.273 521.818 368.273V358.273ZM504.91 354.594C500.408 352.178 496.977 348.761 494.532 344.253L485.741 349.02C489.114 355.239 493.955 360.064 500.181 363.406L504.91 354.594ZM494.547 344.282C492.134 339.761 490.818 334.152 490.818 327.273H480.818C480.818 335.423 482.381 342.724 485.725 348.991L494.547 344.282ZM490.818 327.273C490.818 320.742 492.131 315.283 494.583 310.737L485.781 305.99C482.414 312.232 480.818 319.379 480.818 327.273H490.818ZM494.583 310.737C497.047 306.167 500.484 302.658 504.962 300.125L500.038 291.421C493.91 294.887 489.134 299.772 485.781 305.99L494.583 310.737ZM504.962 300.125C509.387 297.621 514.764 296.273 521.273 296.273V286.273C513.357 286.273 506.219 287.924 500.038 291.421L504.962 300.125ZM521.273 296.273C526.026 296.273 530.181 297.009 533.803 298.397L537.379 289.058C532.456 287.172 527.065 286.273 521.273 286.273V296.273ZM533.803 298.397C537.433 299.787 540.46 301.774 542.958 304.347L550.133 297.381C546.57 293.711 542.295 290.941 537.379 289.058L533.803 298.397ZM542.975 304.364C545.469 306.908 547.442 310.048 548.856 313.871L558.235 310.402C556.376 305.377 553.682 301.001 550.116 297.363L542.975 304.364ZM548.856 313.871C550.254 317.652 551 322.036 551 327.091H561C561 321.055 560.109 315.469 558.235 310.402L548.856 313.871ZM551 327.091V332.909H561V327.091H551ZM556 327.909H493.636V337.909H556V327.909ZM498.636 332.909V319.091H488.636V332.909H498.636ZM493.636 324.091H532.909V314.091H493.636V324.091ZM537.909 319.015C537.865 316.162 537.115 313.455 535.537 311.064L527.191 316.572C527.613 317.212 527.892 318.019 527.91 319.167L537.909 319.015ZM535.599 311.161C534.136 308.829 532.129 307.02 529.678 305.771L525.141 314.683C526.022 315.132 526.652 315.716 527.128 316.476L535.599 311.161ZM529.775 305.822C527.324 304.506 524.629 303.909 521.818 303.909V313.909C523.189 313.909 524.222 314.191 525.043 314.632L529.775 305.822ZM521.818 303.909C519.039 303.909 516.38 304.518 513.928 305.787L518.527 314.667C519.469 314.179 520.537 313.909 521.818 313.909V303.909ZM513.991 305.755C511.558 306.972 509.53 308.714 508.002 310.961L516.271 316.584C516.803 315.801 517.503 315.18 518.463 314.699L513.991 305.755ZM507.963 311.019C506.393 313.398 505.633 316.097 505.548 318.942L515.543 319.24C515.58 318.024 515.88 317.178 516.309 316.527L507.963 311.019ZM505.545 319.091V334H515.545V319.091H505.545ZM505.545 334C505.545 336.96 506.172 339.787 507.545 342.357L516.364 337.643C515.859 336.697 515.545 335.525 515.545 334H505.545ZM507.545 342.357C508.936 344.96 510.962 347.023 513.527 348.482L518.473 339.791C517.523 339.25 516.852 338.555 516.364 337.643L507.545 342.357ZM513.527 348.482C516.193 349.999 519.209 350.636 522.364 350.636V340.636C520.549 340.636 519.322 340.274 518.473 339.791L513.527 348.482ZM522.364 350.636C524.559 350.636 526.689 350.328 528.702 349.642L525.48 340.176C524.645 340.46 523.623 340.636 522.364 340.636V350.636ZM528.672 349.653C530.689 348.98 532.538 347.969 534.126 346.567L527.51 339.069C527.038 339.485 526.402 339.868 525.51 340.166L528.672 349.653ZM534.187 346.513C535.804 345.039 537.014 343.249 537.777 341.198L528.405 337.711C528.198 338.266 527.893 338.719 527.449 339.123L534.187 346.513ZM533.091 344.455H556V334.455H533.091V344.455ZM551.065 338.653C550.41 342.685 548.89 346.065 546.547 348.916L554.272 355.266C557.807 350.966 560.015 345.922 560.935 340.257L551.065 338.653ZM546.56 348.9C544.215 351.728 541.035 354.029 536.845 355.731L540.609 364.996C546.117 362.758 550.724 359.545 554.258 355.282L546.56 348.9ZM536.86 355.725C532.76 357.376 527.783 358.273 521.818 358.273V368.273C528.762 368.273 535.058 367.231 540.594 365.002L536.86 355.725ZM571.534 387.5L572.393 382.574L572.365 382.57L572.337 382.565L571.534 387.5ZM564.67 385.727L559.889 384.264L558.525 388.721L562.876 390.394L564.67 385.727ZM570.125 367.909L571.789 363.194L566.871 361.458L565.344 366.446L570.125 367.909ZM575.761 369.318L575.141 374.28L575.152 374.281L575.761 369.318ZM580.17 368.955L578.453 364.259L578.434 364.266L578.415 364.273L580.17 368.955ZM582.852 366.364L587.448 368.333L587.448 368.333L582.852 366.364ZM583.398 365.091L587.993 367.061L588.746 365.305L588.136 363.496L583.398 365.091ZM558.852 292.182V287.182H551.893L554.114 293.777L558.852 292.182ZM585.034 292.182L589.904 291.047L589.003 287.182H585.034V292.182ZM596.307 340.545L591.437 341.68L592.338 345.545H596.307V340.545ZM597.034 340.545V345.545H600.988L601.899 341.698L597.034 340.545ZM608.489 292.182V287.182H604.535L603.623 291.029L608.489 292.182ZM634.852 292.182L639.591 293.777L641.811 287.182H634.852V292.182ZM609.398 367.818L604.659 366.223L604.655 366.236L604.651 366.248L609.398 367.818ZM603.852 378.182L599.933 375.077L599.916 375.099L599.899 375.12L603.852 378.182ZM594.398 385.5L592.318 380.953L592.318 380.953L594.398 385.5ZM579.761 383.182C577.146 383.182 574.692 382.975 572.393 382.574L570.675 392.426C573.588 392.934 576.62 393.182 579.761 393.182V383.182ZM572.337 382.565C569.99 382.183 568.047 381.669 566.465 381.061L562.876 390.394C565.234 391.301 567.866 391.969 570.731 392.435L572.337 382.565ZM569.451 387.191L574.906 369.373L565.344 366.446L559.889 384.264L569.451 387.191ZM568.461 372.624C570.771 373.44 573.006 374.013 575.141 374.28L576.382 364.357C575.123 364.199 573.6 363.833 571.789 363.194L568.461 372.624ZM575.152 374.281C577.415 374.559 579.745 374.454 581.926 373.636L578.415 364.273C578.171 364.364 577.562 364.502 576.371 364.355L575.152 374.281ZM581.888 373.65C584.491 372.698 586.388 370.806 587.448 368.333L578.257 364.394C578.235 364.445 578.223 364.459 578.231 364.448C578.24 364.435 578.262 364.406 578.299 364.37C578.336 364.334 578.376 364.304 578.411 364.282C578.446 364.26 578.464 364.255 578.453 364.259L581.888 373.65ZM587.448 368.333L587.993 367.061L578.802 363.121L578.257 364.394L587.448 368.333ZM588.136 363.496L563.591 290.587L554.114 293.777L578.659 366.686L588.136 363.496ZM558.852 297.182H585.034V287.182H558.852V297.182ZM580.165 293.317L591.437 341.68L601.176 339.41L589.904 291.047L580.165 293.317ZM596.307 345.545H597.034V335.545H596.307V345.545ZM601.899 341.698L613.354 293.334L603.623 291.029L592.169 339.393L601.899 341.698ZM608.489 297.182H634.852V287.182H608.489V297.182ZM630.113 290.587L604.659 366.223L614.137 369.413L639.591 293.777L630.113 290.587ZM604.651 366.248C603.555 369.562 601.98 372.493 599.933 375.077L607.772 381.286C610.573 377.749 612.695 373.771 614.145 369.388L604.651 366.248ZM599.899 375.12C598.048 377.51 595.566 379.467 592.318 380.953L596.477 390.047C601.047 387.957 604.868 385.036 607.805 381.243L599.899 375.12ZM592.318 380.953C589.252 382.355 585.136 383.182 579.761 383.182V393.182C586.083 393.182 591.725 392.221 596.477 390.047L592.318 380.953ZM667.125 362H662.125V367H667.125V362ZM667.125 268.909V263.909H662.125V268.909H667.125ZM692.398 268.909H697.398V263.909H692.398V268.909ZM692.398 305.273H687.398V310.273H692.398V305.273ZM725.852 305.273V310.273H730.852V305.273H725.852ZM725.852 268.909V263.909H720.852V268.909H725.852ZM751.125 268.909H756.125V263.909H751.125V268.909ZM751.125 362V367H756.125V362H751.125ZM725.852 362H720.852V367H725.852V362ZM725.852 325.636H730.852V320.636H725.852V325.636ZM692.398 325.636V320.636H687.398V325.636H692.398ZM692.398 362V367H697.398V362H692.398ZM672.125 362V268.909H662.125V362H672.125ZM667.125 273.909H692.398V263.909H667.125V273.909ZM687.398 268.909V305.273H697.398V268.909H687.398ZM692.398 310.273H725.852V300.273H692.398V310.273ZM730.852 305.273V268.909H720.852V305.273H730.852ZM725.852 273.909H751.125V263.909H725.852V273.909ZM746.125 268.909V362H756.125V268.909H746.125ZM751.125 357H725.852V367H751.125V357ZM730.852 362V325.636H720.852V362H730.852ZM725.852 320.636H692.398V330.636H725.852V320.636ZM687.398 325.636V362H697.398V325.636H687.398ZM692.398 357H667.125V367H692.398V357ZM777.67 359L775.306 363.406L775.321 363.414L775.336 363.421L777.67 359ZM765.261 346.636L760.85 348.991L760.858 349.005L760.866 349.02L765.261 346.636ZM765.307 308.364L769.708 310.737L769.708 310.737L765.307 308.364ZM777.625 295.773L780.087 300.125L780.087 300.125L777.625 295.773ZM810.716 293.727L812.504 289.058L812.504 289.058L810.716 293.727ZM821.67 300.864L818.083 304.347L818.092 304.355L818.1 304.364L821.67 300.864ZM828.67 312.136L823.981 313.871L823.981 313.871L828.67 312.136ZM831.125 332.909V337.909H836.125V332.909H831.125ZM768.761 332.909H763.761V337.909H768.761V332.909ZM768.761 319.091V314.091H763.761V319.091H768.761ZM808.034 319.091V324.091H813.11L813.034 319.015L808.034 319.091ZM806.489 313.818L802.253 316.476L802.284 316.524L802.316 316.572L806.489 313.818ZM802.534 310.227L800.168 314.632L800.217 314.658L800.266 314.683L802.534 310.227ZM791.352 310.227L793.588 314.699L793.62 314.684L793.652 314.667L791.352 310.227ZM787.261 313.773L783.127 310.961L783.107 310.99L783.088 311.019L787.261 313.773ZM785.67 319.091L780.673 318.942L780.67 319.016V319.091H785.67ZM787.08 340L782.67 342.357L782.67 342.357L787.08 340ZM791.125 344.136L788.652 348.482L788.652 348.482L791.125 344.136ZM802.216 344.909L800.635 340.166L800.62 340.171L800.605 340.176L802.216 344.909ZM805.943 342.818L809.251 346.567L809.282 346.54L809.312 346.513L805.943 342.818ZM808.216 339.455V334.455H804.741L803.53 337.711L808.216 339.455ZM831.125 339.455L836.06 340.257L837.003 334.455H831.125V339.455ZM825.534 352.091L829.383 355.282L829.39 355.274L829.397 355.266L825.534 352.091ZM813.852 360.364L815.719 365.002L815.727 364.999L815.734 364.996L813.852 360.364ZM796.943 358.273C790.124 358.273 784.537 356.972 780.005 354.579L775.336 363.421C781.592 366.725 788.853 368.273 796.943 368.273V358.273ZM780.035 354.594C775.533 352.178 772.102 348.761 769.657 344.253L760.866 349.02C764.239 355.239 769.08 360.064 775.306 363.406L780.035 354.594ZM769.672 344.282C767.259 339.761 765.943 334.152 765.943 327.273H755.943C755.943 335.423 757.506 342.724 760.85 348.991L769.672 344.282ZM765.943 327.273C765.943 320.742 767.256 315.283 769.708 310.737L760.906 305.99C757.539 312.232 755.943 319.379 755.943 327.273H765.943ZM769.708 310.737C772.172 306.167 775.609 302.658 780.087 300.125L775.163 291.421C769.035 294.887 764.259 299.772 760.906 305.99L769.708 310.737ZM780.087 300.125C784.512 297.621 789.889 296.273 796.398 296.273V286.273C788.482 286.273 781.344 287.924 775.163 291.421L780.087 300.125ZM796.398 296.273C801.151 296.273 805.306 297.009 808.928 298.397L812.504 289.058C807.581 287.172 802.19 286.273 796.398 286.273V296.273ZM808.928 298.397C812.558 299.787 815.585 301.774 818.083 304.347L825.258 297.381C821.695 293.711 817.42 290.941 812.504 289.058L808.928 298.397ZM818.1 304.364C820.594 306.908 822.567 310.048 823.981 313.871L833.36 310.402C831.501 305.377 828.807 301.001 825.241 297.363L818.1 304.364ZM823.981 313.871C825.379 317.652 826.125 322.036 826.125 327.091H836.125C836.125 321.055 835.234 315.469 833.36 310.402L823.981 313.871ZM826.125 327.091V332.909H836.125V327.091H826.125ZM831.125 327.909H768.761V337.909H831.125V327.909ZM773.761 332.909V319.091H763.761V332.909H773.761ZM768.761 324.091H808.034V314.091H768.761V324.091ZM813.034 319.015C812.99 316.162 812.24 313.455 810.662 311.064L802.316 316.572C802.738 317.212 803.017 318.019 803.035 319.167L813.034 319.015ZM810.724 311.161C809.261 308.829 807.254 307.02 804.803 305.771L800.266 314.683C801.147 315.132 801.777 315.716 802.253 316.476L810.724 311.161ZM804.9 305.822C802.449 304.506 799.754 303.909 796.943 303.909V313.909C798.314 313.909 799.347 314.191 800.168 314.632L804.9 305.822ZM796.943 303.909C794.164 303.909 791.505 304.518 789.053 305.787L793.652 314.667C794.594 314.179 795.662 313.909 796.943 313.909V303.909ZM789.116 305.755C786.683 306.972 784.655 308.714 783.127 310.961L791.396 316.584C791.928 315.801 792.628 315.18 793.588 314.699L789.116 305.755ZM783.088 311.019C781.518 313.398 780.758 316.097 780.673 318.942L790.668 319.24C790.705 318.024 791.005 317.178 791.434 316.527L783.088 311.019ZM780.67 319.091V334H790.67V319.091H780.67ZM780.67 334C780.67 336.96 781.297 339.787 782.67 342.357L791.489 337.643C790.984 336.697 790.67 335.525 790.67 334H780.67ZM782.67 342.357C784.061 344.96 786.087 347.023 788.652 348.482L793.598 339.791C792.648 339.25 791.977 338.555 791.489 337.643L782.67 342.357ZM788.652 348.482C791.318 349.999 794.334 350.636 797.489 350.636V340.636C795.674 340.636 794.447 340.274 793.598 339.791L788.652 348.482ZM797.489 350.636C799.684 350.636 801.814 350.328 803.827 349.642L800.605 340.176C799.77 340.46 798.748 340.636 797.489 340.636V350.636ZM803.797 349.653C805.814 348.98 807.663 347.969 809.251 346.567L802.635 339.069C802.163 339.485 801.527 339.868 800.635 340.166L803.797 349.653ZM809.312 346.513C810.929 345.039 812.139 343.249 812.902 341.198L803.53 337.711C803.323 338.266 803.018 338.719 802.574 339.123L809.312 346.513ZM808.216 344.455H831.125V334.455H808.216V344.455ZM826.19 338.653C825.535 342.685 824.015 346.065 821.672 348.916L829.397 355.266C832.932 350.966 835.14 345.922 836.06 340.257L826.19 338.653ZM821.685 348.9C819.34 351.728 816.16 354.029 811.97 355.731L815.734 364.996C821.242 362.758 825.849 359.545 829.383 355.282L821.685 348.9ZM811.985 355.725C807.885 357.376 802.908 358.273 796.943 358.273V368.273C803.887 368.273 810.183 367.231 815.719 365.002L811.985 355.725ZM841.364 362H836.364V367H841.364V362ZM841.364 292.182V287.182H836.364V292.182H841.364ZM866.455 292.182H871.455V287.182H866.455V292.182ZM866.455 362V367H871.455V362H866.455ZM845.182 281.545L841.787 285.216L841.787 285.216L845.182 281.545ZM845.182 265.364L841.787 261.693L841.787 261.693L845.182 265.364ZM862.636 265.364L859.218 269.013L859.23 269.023L859.241 269.034L862.636 265.364ZM862.636 281.545L859.241 277.875L859.23 277.886L859.218 277.896L862.636 281.545ZM846.364 362V292.182H836.364V362H846.364ZM841.364 297.182H866.455V287.182H841.364V297.182ZM861.455 292.182V362H871.455V292.182H861.455ZM866.455 357H841.364V367H866.455V357ZM853.909 279.909C851.735 279.909 850.049 279.237 848.577 277.875L841.787 285.216C845.163 288.339 849.295 289.909 853.909 289.909V279.909ZM848.577 277.875C847.121 276.528 846.545 275.139 846.545 273.455H836.545C836.545 278.073 838.394 282.078 841.787 285.216L848.577 277.875ZM846.545 273.455C846.545 271.77 847.121 270.381 848.577 269.034L841.787 261.693C838.394 264.831 836.545 268.836 836.545 273.455H846.545ZM848.577 269.034C850.049 267.672 851.735 267 853.909 267V257C849.295 257 845.163 258.57 841.787 261.693L848.577 269.034ZM853.909 267C856.125 267 857.795 267.679 859.218 269.013L866.055 261.715C862.69 258.563 858.541 257 853.909 257V267ZM859.241 269.034C860.698 270.381 861.273 271.77 861.273 273.455H871.273C871.273 268.836 869.424 264.831 866.032 261.693L859.241 269.034ZM861.273 273.455C861.273 275.139 860.698 276.528 859.241 277.875L866.032 285.216C869.424 282.078 871.273 278.073 871.273 273.455H861.273ZM859.218 277.896C857.795 279.23 856.125 279.909 853.909 279.909V289.909C858.541 289.909 862.69 288.346 866.055 285.195L859.218 277.896ZM943.057 314.909V319.909H948.266L948.053 314.704L943.057 314.909ZM919.966 314.909L914.984 315.333L915.373 319.909H919.966V314.909ZM918.466 311.227L922.27 307.983L922.27 307.983L918.466 311.227ZM915.057 308.864L913.112 313.47L913.173 313.496L913.235 313.52L915.057 308.864ZM904.966 309.182L902.695 304.727L902.695 304.727L904.966 309.182ZM902.693 312.545L907.691 312.692L907.695 312.567L907.692 312.441L902.693 312.545ZM904.011 315.409L900.536 319.004L900.566 319.032L900.596 319.06L904.011 315.409ZM909.42 317.455L908.526 322.374L908.537 322.376L909.42 317.455ZM923.602 320L924.499 315.081L924.486 315.079L923.602 320ZM939.557 326.591L936.239 330.332L936.256 330.347L936.274 330.362L939.557 326.591ZM944.875 338.909L949.875 338.94L949.875 338.91L949.875 338.88L944.875 338.909ZM940.42 351.864L936.519 348.736L936.516 348.74L940.42 351.864ZM928.466 360.318L930.289 364.974L930.296 364.971L930.304 364.968L928.466 360.318ZM886.193 356.727L883.252 360.771L883.262 360.778L886.193 356.727ZM876.148 339.455V334.455H870.637L871.171 339.94L876.148 339.455ZM901.057 339.455L906.001 338.71L905.36 334.455H901.057V339.455ZM904.33 344.591L901.588 348.772L901.627 348.798L901.667 348.823L904.33 344.591ZM917.102 345.182L914.796 340.746L914.777 340.755L914.759 340.765L917.102 345.182ZM919.42 341.818L924.419 341.922L924.422 341.813L924.419 341.705L919.42 341.818ZM917.42 338.636L914.789 342.888L914.811 342.901L914.833 342.915L917.42 338.636ZM911.42 336.727L912.296 331.804L912.289 331.803L911.42 336.727ZM899.057 334.545L899.926 329.622L899.916 329.62L899.057 334.545ZM883.057 327.455L886.562 323.889L886.562 323.889L883.057 327.455ZM877.784 314L882.784 314.028L882.784 313.998L882.784 313.969L877.784 314ZM881.602 301.682L877.637 298.637L877.633 298.642L881.602 301.682ZM892.739 293.955L894.452 298.652L894.46 298.649L894.469 298.646L892.739 293.955ZM933.83 297.545L930.911 301.606L930.921 301.613L933.83 297.545ZM943.057 309.909H919.966V319.909H943.057V309.909ZM924.948 314.485C924.743 312.082 923.865 309.853 922.27 307.983L914.662 314.472C914.824 314.662 914.946 314.888 914.984 315.333L924.948 314.485ZM922.27 307.983C920.802 306.262 918.957 305.021 916.879 304.207L913.235 313.52C913.944 313.797 914.372 314.132 914.662 314.472L922.27 307.983ZM917.002 304.257C914.95 303.391 912.762 303 910.511 303V313C911.594 313 912.437 313.185 913.112 313.47L917.002 304.257ZM910.511 303C907.756 303 905.093 303.505 902.695 304.727L907.237 313.636C907.93 313.283 908.963 313 910.511 313V303ZM902.695 304.727C901.376 305.4 900.064 306.382 899.096 307.814C898.094 309.297 897.659 310.971 897.694 312.65L907.692 312.441C907.694 312.529 907.685 312.682 907.63 312.876C907.575 313.072 907.487 313.257 907.382 313.413C907.171 313.724 907.011 313.752 907.237 313.636L902.695 304.727ZM897.695 312.398C897.615 315.145 898.863 317.387 900.536 319.004L907.486 311.814C907.389 311.72 907.456 311.756 907.542 311.943C907.638 312.153 907.699 312.421 907.691 312.692L897.695 312.398ZM900.596 319.06C902.671 321.002 905.754 321.87 908.526 322.374L910.315 312.535C909.17 312.327 908.367 312.103 907.837 311.903C907.27 311.689 907.244 311.586 907.427 311.758L900.596 319.06ZM908.537 322.376L922.719 324.921L924.486 315.079L910.304 312.533L908.537 322.376ZM922.706 324.919C929.419 326.142 933.72 328.097 936.239 330.332L942.875 322.85C938.424 318.903 932.088 316.464 924.499 315.081L922.706 324.919ZM936.274 330.362C938.584 332.374 939.852 335.053 939.875 338.939L949.875 338.88C949.837 332.462 947.56 326.929 942.84 322.82L936.274 330.362ZM939.875 338.879C939.851 342.791 938.712 346.001 936.519 348.736L944.322 354.991C948.008 350.393 949.838 344.966 949.875 338.94L939.875 338.879ZM936.516 348.74C934.237 351.589 931.016 353.934 926.628 355.668L930.304 364.968C936.037 362.702 940.786 359.411 944.325 354.987L936.516 348.74ZM926.643 355.662C922.295 357.365 917.188 358.273 911.239 358.273V368.273C918.198 368.273 924.577 367.211 930.289 364.974L926.643 355.662ZM911.239 358.273C901.185 358.273 894.004 356.208 889.124 352.677L883.262 360.778C890.443 365.974 899.958 368.273 911.239 368.273V358.273ZM889.134 352.684C884.247 349.13 881.677 344.647 881.124 338.97L871.171 339.94C872.012 348.566 876.139 355.598 883.252 360.771L889.134 352.684ZM876.148 344.455H901.057V334.455H876.148V344.455ZM896.113 340.2C896.655 343.799 898.533 346.769 901.588 348.772L907.071 340.41C906.429 339.988 906.125 339.535 906.001 338.71L896.113 340.2ZM901.667 348.823C904.54 350.631 907.893 351.364 911.42 351.364V341.364C909.25 341.364 907.876 340.915 906.992 340.359L901.667 348.823ZM911.42 351.364C914.253 351.364 917.022 350.885 919.446 349.599L914.759 340.765C914.213 341.055 913.194 341.364 911.42 341.364V351.364ZM919.409 349.618C922.207 348.163 924.344 345.557 924.419 341.922L914.422 341.714C914.423 341.645 914.435 341.519 914.485 341.358C914.536 341.196 914.612 341.043 914.701 340.913C914.882 340.651 915.009 340.635 914.796 340.746L919.409 349.618ZM924.419 341.705C924.344 338.395 922.53 335.883 920.008 334.358L914.833 342.915C914.959 342.991 914.826 342.941 914.665 342.684C914.586 342.558 914.521 342.415 914.478 342.267C914.435 342.121 914.423 342.003 914.422 341.932L924.419 341.705ZM920.052 334.385C917.962 333.091 915.208 332.322 912.296 331.804L910.545 341.65C913.088 342.102 914.334 342.606 914.789 342.888L920.052 334.385ZM912.289 331.803L899.926 329.622L898.188 339.469L910.552 341.651L912.289 331.803ZM899.916 329.62C893.362 328.476 889.124 326.407 886.562 323.889L879.552 331.02C884.081 335.472 890.509 338.13 898.197 339.471L899.916 329.62ZM886.562 323.889C884.084 321.453 882.76 318.316 882.784 314.028L872.784 313.972C872.747 320.654 874.939 326.486 879.552 331.02L886.562 323.889ZM882.784 313.969C882.76 310.062 883.766 307.08 885.572 304.722L877.633 298.642C874.287 303.011 872.748 308.241 872.784 314.031L882.784 313.969ZM885.568 304.727C887.489 302.225 890.347 300.149 894.452 298.652L891.025 289.257C885.494 291.275 880.927 294.351 877.637 298.637L885.568 304.727ZM894.469 298.646C898.631 297.111 903.76 296.273 909.966 296.273V286.273C902.899 286.273 896.543 287.222 891.009 289.263L894.469 298.646ZM909.966 296.273C919.424 296.273 926.227 298.239 930.911 301.606L936.748 293.485C929.795 288.488 920.69 286.273 909.966 286.273V296.273ZM930.921 301.613C935.473 304.868 937.819 309.208 938.061 315.114L948.053 314.704C947.689 305.823 943.883 298.587 936.738 293.478L930.921 301.613ZM996.125 292.182H1001.12V287.182H996.125V292.182ZM996.125 310.364V315.364H1001.12V310.364H996.125ZM950.125 310.364H945.125V315.364H950.125V310.364ZM950.125 292.182V287.182H945.125V292.182H950.125ZM959.034 275.455V270.455H954.034V275.455H959.034ZM984.125 275.455H989.125V270.455H984.125V275.455ZM984.625 342L980.153 344.236L980.174 344.278L980.196 344.32L984.625 342ZM986.17 343.455L984.013 347.965L984.094 348.004L984.177 348.04L986.17 343.455ZM991.489 343.636L990.62 338.712L990.607 338.715L990.594 338.717L991.489 343.636ZM993.761 343.182L998.658 342.172L997.606 337.067L992.549 338.331L993.761 343.182ZM997.398 360.818L998.823 365.611L1003.22 364.303L1002.29 359.808L997.398 360.818ZM992.58 362.045L991.45 357.175L991.442 357.177L991.434 357.178L992.58 362.045ZM985.216 363L985.479 367.993L985.481 367.993L985.216 363ZM970.716 361.227L968.909 365.889L968.925 365.895L968.94 365.901L970.716 361.227ZM961.898 354.091L957.624 356.687L957.624 356.687L961.898 354.091ZM959.034 341.909L964.034 341.971L964.034 341.94V341.909H959.034ZM991.125 292.182V310.364H1001.12V292.182H991.125ZM996.125 305.364H950.125V315.364H996.125V305.364ZM955.125 310.364V292.182H945.125V310.364H955.125ZM950.125 297.182H996.125V287.182H950.125V297.182ZM959.034 280.455H984.125V270.455H959.034V280.455ZM979.125 275.455V339.545H989.125V275.455H979.125ZM979.125 339.545C979.125 341.066 979.384 342.698 980.153 344.236L989.097 339.764C989.148 339.867 989.156 339.919 989.149 339.888C989.143 339.855 989.125 339.747 989.125 339.545H979.125ZM980.196 344.32C981.069 345.987 982.42 347.203 984.013 347.965L988.328 338.944C988.402 338.979 988.537 339.058 988.688 339.2C988.842 339.345 988.967 339.513 989.054 339.68L980.196 344.32ZM984.177 348.04C985.714 348.708 987.351 348.909 988.852 348.909V338.909C988.533 338.909 988.321 338.886 988.199 338.866C988.077 338.845 988.079 338.832 988.164 338.869L984.177 348.04ZM988.852 348.909C989.991 348.909 991.181 348.774 992.383 348.556L990.594 338.717C989.796 338.862 989.228 338.909 988.852 338.909V348.909ZM992.358 348.56C993.407 348.375 994.309 348.199 994.974 348.033L992.549 338.331C992.244 338.407 991.631 338.534 990.62 338.712L992.358 348.56ZM988.864 344.192L992.501 361.828L1002.29 359.808L998.658 342.172L988.864 344.192ZM995.973 356.026C994.998 356.315 993.509 356.697 991.45 357.175L993.709 366.916C995.832 366.424 997.555 365.988 998.823 365.611L995.973 356.026ZM991.434 357.178C989.742 357.576 987.597 357.866 984.95 358.007L985.481 367.993C988.532 367.831 991.296 367.484 993.725 366.913L991.434 357.178ZM984.953 358.007C979.643 358.286 975.554 357.716 972.491 356.553L968.94 365.901C973.696 367.708 979.273 368.32 985.479 367.993L984.953 358.007ZM972.523 356.565C969.527 355.404 967.508 353.696 966.171 351.495L957.624 356.687C960.227 360.97 964.087 364.02 968.909 365.889L972.523 356.565ZM966.171 351.495C964.809 349.252 963.981 346.178 964.034 341.971L954.034 341.847C953.966 347.398 955.047 352.445 957.624 356.687L966.171 351.495ZM964.034 341.909V275.455H954.034V341.909H964.034Z" fill="url(#paint4_linear_148_368)" mask="url(#path-5-outside-1_148_368)"/>
<g opacity="0.33">
<path fill-rule="evenodd" clip-rule="evenodd" d="M232.712 487.191L135.501 434.167L38.2893 487.191L42.3445 503.094H59.282V570.845H50.8133V587.782H220.189V570.845H211.72V503.094H228.657L232.712 487.191ZM76.2195 570.845V503.094H101.626V570.845H76.2195ZM118.564 570.845V503.094H152.439V570.845H118.564ZM169.376 570.845V503.094H194.782V570.845H169.376ZM135.501 453.46L195.445 486.157H75.556L135.501 453.46ZM33.875 613.189H237.125V596.251H33.875V613.189Z" fill="url(#paint5_linear_148_368)"/>
</g>
<path d="M63.5234 34.8515L56 54.625H64.0948L67.8088 43.9341L63.5234 34.8515Z" fill="white"/>
<path d="M74.4751 54.625L64.8566 34H72.7609L82.3794 54.625H74.4751Z" fill="white"/>
<path d="M79.1073 39.0143L76.917 34H84.5356L87.0116 39.0143H79.1073Z" fill="white"/>
<path d="M86.2498 54.625L79.4883 40.3389H87.4878L94.4398 54.625H86.2498Z" fill="white"/>
<path d="M90.882 39.0143L88.6916 34H101.643L104.024 39.0143H90.882Z" fill="white"/>
<path d="M100.405 54.625L93.8342 40.3389H101.643L108.5 54.625H100.405Z" fill="white"/>
<path d="M140.648 39.3636V35.5455H155.818V39.3636H150.568V53H145.898V39.3636H140.648ZM157.602 53V35.5455H170.181V39.3636H162.34V42.3636H169.533V46.1818H162.34V49.1818H170.147V53H157.602ZM188.827 42.0909H184.02C183.986 41.6932 183.895 41.3324 183.747 41.0085C183.605 40.6847 183.406 40.4062 183.151 40.1733C182.901 39.9347 182.597 39.7528 182.239 39.6278C181.881 39.4972 181.474 39.4318 181.02 39.4318C180.224 39.4318 179.551 39.625 179 40.0114C178.455 40.3977 178.04 40.9517 177.756 41.6733C177.477 42.3949 177.338 43.2614 177.338 44.2727C177.338 45.3409 177.48 46.2358 177.764 46.9574C178.054 47.6733 178.472 48.2131 179.017 48.5767C179.563 48.9347 180.219 49.1136 180.986 49.1136C181.423 49.1136 181.815 49.0597 182.162 48.9517C182.509 48.8381 182.81 48.6761 183.065 48.4659C183.321 48.2557 183.528 48.0028 183.688 47.7074C183.852 47.4062 183.963 47.0682 184.02 46.6932L188.827 46.7273C188.77 47.4659 188.563 48.2187 188.205 48.9858C187.847 49.7472 187.338 50.4517 186.679 51.0994C186.026 51.7415 185.216 52.2585 184.25 52.6506C183.284 53.0426 182.162 53.2386 180.884 53.2386C179.281 53.2386 177.844 52.8949 176.571 52.2074C175.304 51.5199 174.301 50.5085 173.562 49.1733C172.83 47.8381 172.463 46.2045 172.463 44.2727C172.463 42.3295 172.838 40.6932 173.588 39.3636C174.338 38.0284 175.349 37.0199 176.622 36.3381C177.895 35.6506 179.315 35.3068 180.884 35.3068C181.986 35.3068 183 35.4574 183.926 35.7585C184.852 36.0597 185.665 36.5 186.364 37.0795C187.063 37.6534 187.625 38.3608 188.051 39.2017C188.477 40.0426 188.736 41.0057 188.827 42.0909ZM190.977 53V35.5455H195.715V42.3636H201.988V35.5455H206.727V53H201.988V46.1818H195.715V53H190.977ZM224.079 35.5455V53H220.124L213.817 43.8295H213.715V53H208.977V35.5455H212.999L219.204 44.6818H219.34V35.5455H224.079ZM243.229 44.2727C243.229 46.2159 242.852 47.8551 242.096 49.1903C241.34 50.5199 240.32 51.5284 239.036 52.2159C237.752 52.8977 236.32 53.2386 234.741 53.2386C233.15 53.2386 231.712 52.8949 230.428 52.2074C229.15 51.5142 228.133 50.5028 227.377 49.1733C226.627 47.8381 226.252 46.2045 226.252 44.2727C226.252 42.3295 226.627 40.6932 227.377 39.3636C228.133 38.0284 229.15 37.0199 230.428 36.3381C231.712 35.6506 233.15 35.3068 234.741 35.3068C236.32 35.3068 237.752 35.6506 239.036 36.3381C240.32 37.0199 241.34 38.0284 242.096 39.3636C242.852 40.6932 243.229 42.3295 243.229 44.2727ZM238.354 44.2727C238.354 43.2273 238.215 42.3466 237.937 41.6307C237.664 40.9091 237.258 40.3636 236.718 39.9943C236.184 39.6193 235.525 39.4318 234.741 39.4318C233.957 39.4318 233.295 39.6193 232.755 39.9943C232.221 40.3636 231.815 40.9091 231.536 41.6307C231.263 42.3466 231.127 43.2273 231.127 44.2727C231.127 45.3182 231.263 46.2017 231.536 46.9233C231.815 47.6392 232.221 48.1847 232.755 48.5597C233.295 48.929 233.957 49.1136 234.741 49.1136C235.525 49.1136 236.184 48.929 236.718 48.5597C237.258 48.1847 237.664 47.6392 237.937 46.9233C238.215 46.2017 238.354 45.3182 238.354 44.2727ZM254.831 41C254.786 40.4318 254.572 39.9886 254.192 39.6705C253.817 39.3523 253.246 39.1932 252.479 39.1932C251.99 39.1932 251.589 39.2528 251.277 39.3722C250.97 39.4858 250.743 39.642 250.595 39.8409C250.447 40.0398 250.371 40.267 250.365 40.5227C250.354 40.733 250.391 40.9233 250.476 41.0938C250.567 41.2585 250.709 41.4091 250.902 41.5455C251.095 41.6761 251.342 41.7955 251.643 41.9034C251.945 42.0114 252.303 42.108 252.717 42.1932L254.149 42.5C255.115 42.7045 255.942 42.9744 256.629 43.3097C257.317 43.6449 257.879 44.0398 258.317 44.4943C258.754 44.9432 259.075 45.4489 259.28 46.0114C259.49 46.5739 259.598 47.1875 259.604 47.8523C259.598 49 259.311 49.9716 258.743 50.767C258.175 51.5625 257.362 52.1676 256.305 52.5824C255.254 52.9972 253.99 53.2045 252.513 53.2045C250.996 53.2045 249.672 52.9801 248.541 52.5312C247.416 52.0824 246.541 51.392 245.916 50.4602C245.297 49.5227 244.984 48.3239 244.979 46.8636H249.479C249.507 47.3977 249.641 47.8466 249.879 48.2102C250.118 48.5739 250.453 48.8494 250.885 49.0369C251.322 49.2244 251.842 49.3182 252.445 49.3182C252.95 49.3182 253.374 49.2557 253.714 49.1307C254.055 49.0057 254.314 48.8324 254.49 48.6108C254.666 48.3892 254.757 48.1364 254.763 47.8523C254.757 47.5852 254.669 47.3523 254.499 47.1534C254.334 46.9489 254.061 46.767 253.68 46.608C253.3 46.4432 252.786 46.2898 252.138 46.1477L250.399 45.7727C248.854 45.4375 247.635 44.8778 246.743 44.0938C245.857 43.304 245.416 42.2273 245.422 40.8636C245.416 39.7557 245.712 38.7869 246.308 37.9574C246.911 37.1222 247.743 36.4716 248.805 36.0057C249.874 35.5398 251.098 35.3068 252.479 35.3068C253.888 35.3068 255.107 35.5426 256.135 36.0142C257.163 36.4858 257.956 37.1506 258.513 38.0085C259.075 38.8608 259.359 39.858 259.365 41H254.831ZM261.406 53V35.5455H268.94C270.236 35.5455 271.369 35.8011 272.341 36.3125C273.313 36.8239 274.068 37.5426 274.608 38.4688C275.148 39.3949 275.418 40.4773 275.418 41.7159C275.418 42.9659 275.139 44.0483 274.582 44.9631C274.031 45.8778 273.256 46.5824 272.256 47.0767C271.261 47.571 270.099 47.8182 268.77 47.8182H264.27V44.1364H267.815C268.372 44.1364 268.847 44.0398 269.239 43.8466C269.636 43.6477 269.94 43.3665 270.151 43.0028C270.366 42.6392 270.474 42.2102 270.474 41.7159C270.474 41.2159 270.366 40.7898 270.151 40.4375C269.94 40.0795 269.636 39.8068 269.239 39.6193C268.847 39.4261 268.372 39.3295 267.815 39.3295H266.145V53H261.406ZM279.511 53H274.397L280.158 35.5455H286.636L292.397 53H287.283L283.465 40.3523H283.329L279.511 53ZM278.556 46.1136H288.17V49.6591H278.556V46.1136ZM294.078 53V35.5455H301.612C302.908 35.5455 304.041 35.7812 305.013 36.2528C305.984 36.7244 306.74 37.4034 307.28 38.2898C307.82 39.1761 308.089 40.2386 308.089 41.4773C308.089 42.7273 307.811 43.7812 307.254 44.6392C306.703 45.4972 305.928 46.1449 304.928 46.5824C303.933 47.0199 302.771 47.2386 301.442 47.2386H296.942V43.5568H300.487C301.044 43.5568 301.518 43.4886 301.911 43.3523C302.308 43.2102 302.612 42.9858 302.822 42.679C303.038 42.3722 303.146 41.9716 303.146 41.4773C303.146 40.9773 303.038 40.571 302.822 40.2585C302.612 39.9403 302.308 39.7074 301.911 39.5597C301.518 39.4062 301.044 39.3295 300.487 39.3295H298.817V53H294.078ZM304.305 44.9886L308.669 53H303.521L299.26 44.9886H304.305ZM315.189 35.5455L318.053 40.625H318.189L321.087 35.5455H326.371L321.155 44.2727L326.575 53H321.155L318.189 47.8182H318.053L315.087 53H309.7L315.053 44.2727L309.871 35.5455H315.189Z" fill="white"/>
<g opacity="0.44">
<path d="M1067 211C1112.84 211 1150 173.84 1150 128C1150 82.1604 1112.84 45 1067 45C1021.16 45 984 82.1604 984 128C984 173.84 1021.16 211 1067 211Z" stroke="url(#paint6_linear_148_368)" stroke-width="15"/>
<path d="M1091.9 110.963C1087.75 105.59 1081.94 98.9502 1067 98.9502C1052.06 98.9502 1042.1 107.366 1042.1 110.963C1042.1 114.559 1042.66 119.1 1050.4 123.85C1056.64 127.683 1072.55 128.365 1079.45 132.15C1089.24 137.518 1090.65 143.108 1090.65 145.033C1090.65 150.275 1078.76 156.927 1067 157.05C1054.85 157.177 1046.25 150.41 1042.1 145.033" stroke="url(#paint7_linear_148_368)" stroke-width="15" stroke-linecap="round" stroke-linejoin="round"/>
<path d="M1067 86.5V169.5" stroke="url(#paint8_linear_148_368)" stroke-width="15" stroke-linecap="round" stroke-linejoin="round"/>
</g>
</g>
<defs>
<linearGradient id="paint0_linear_148_368" x1="-63.757" y1="-34.0071" x2="-63.757" y2="347.166" gradientUnits="userSpaceOnUse">
<stop stop-color="#FF9E0B"/>
<stop offset="1" stop-color="#EC4899"/>
</linearGradient>
<linearGradient id="paint1_linear_148_368" x1="1173" y1="695.827" x2="1173" y2="969.442" gradientUnits="userSpaceOnUse">
<stop stop-color="#FF9E0B"/>
<stop offset="1" stop-color="#F24E52"/>
</linearGradient>
<linearGradient id="paint2_linear_148_368" x1="882.5" y1="530" x2="882.5" y2="919" gradientUnits="userSpaceOnUse">
<stop stop-color="#FF9E0B"/>
<stop offset="1" stop-color="#9C67E7"/>
</linearGradient>
<linearGradient id="paint3_linear_148_368" x1="491" y1="30" x2="491" y2="162" gradientUnits="userSpaceOnUse">
<stop stop-color="#FF9E0B"/>
<stop offset="1" stop-color="#DA46EB"/>
</linearGradient>
<linearGradient id="paint4_linear_148_368" x1="600" y1="238" x2="600" y2="393" gradientUnits="userSpaceOnUse">
<stop stop-color="#FF9E0B"/>
<stop offset="0.49" stop-color="#F24E52"/>
</linearGradient>
<linearGradient id="paint5_linear_148_368" x1="135.5" y1="434.167" x2="135.5" y2="613.189" gradientUnits="userSpaceOnUse">
<stop stop-color="#F24E52"/>
<stop offset="1" stop-color="#FF9E0B"/>
</linearGradient>
<linearGradient id="paint6_linear_148_368" x1="1067" y1="45" x2="1067" y2="211" gradientUnits="userSpaceOnUse">
<stop stop-color="#F24E52"/>
<stop offset="1" stop-color="#DA46EB"/>
</linearGradient>
<linearGradient id="paint7_linear_148_368" x1="1067" y1="98.9502" x2="1067" y2="157.052" gradientUnits="userSpaceOnUse">
<stop stop-color="#F24E52"/>
<stop offset="1" stop-color="#DA46EB"/>
</linearGradient>
<linearGradient id="paint8_linear_148_368" x1="1067.5" y1="86.5" x2="1067.5" y2="169.5" gradientUnits="userSpaceOnUse">
<stop stop-color="#F24E52"/>
<stop offset="1" stop-color="#DA46EB"/>
</linearGradient>
<clipPath id="clip0_148_368">
<rect width="1200" height="630" fill="white"/>
</clipPath>
</defs>
</svg>
