<svg width="1200" height="630" viewBox="0 0 1200 630" fill="none" xmlns="http://www.w3.org/2000/svg">
<g clip-path="url(#clip0_148_146)">
<rect width="1200" height="630" fill="black"/>
<rect x="-427.809" y="-32.4841" width="729.486" height="376.173" transform="rotate(-19.4848 -427.809 -32.4841)" stroke="url(#paint0_linear_148_146)" stroke-width="5"/>
<rect x="883" y="695.827" width="580" height="273.616" transform="rotate(-35.26 883 695.827)" fill="url(#paint1_linear_148_146)"/>
<circle cx="882.5" cy="724.5" r="193" stroke="url(#paint2_linear_148_146)" stroke-width="3"/>
<path opacity="0.49" d="M415 58.3636C414.121 58.3636 413.367 58.0568 412.739 57.4432C412.117 56.822 411.811 56.0682 411.818 55.1818C411.811 54.3182 412.117 53.5795 412.739 52.9659C413.367 52.3523 414.121 52.0455 415 52.0455C415.833 52.0455 416.568 52.3523 417.205 52.9659C417.848 53.5795 418.174 54.3182 418.182 55.1818C418.174 55.7727 418.019 56.3106 417.716 56.7955C417.42 57.2727 417.034 57.6553 416.557 57.9432C416.08 58.2235 415.561 58.3636 415 58.3636ZM459.003 58.3636C458.124 58.3636 457.37 58.0568 456.741 57.4432C456.12 56.822 455.813 56.0682 455.821 55.1818C455.813 54.3182 456.12 53.5795 456.741 52.9659C457.37 52.3523 458.124 52.0455 459.003 52.0455C459.836 52.0455 460.571 52.3523 461.207 52.9659C461.851 53.5795 462.177 54.3182 462.184 55.1818C462.177 55.7727 462.021 56.3106 461.718 56.7955C461.423 57.2727 461.037 57.6553 460.559 57.9432C460.082 58.2235 459.563 58.3636 459.003 58.3636ZM503.005 58.3636C502.126 58.3636 501.372 58.0568 500.744 57.4432C500.122 56.822 499.816 56.0682 499.823 55.1818C499.816 54.3182 500.122 53.5795 500.744 52.9659C501.372 52.3523 502.126 52.0455 503.005 52.0455C503.838 52.0455 504.573 52.3523 505.21 52.9659C505.853 53.5795 506.179 54.3182 506.187 55.1818C506.179 55.7727 506.024 56.3106 505.721 56.7955C505.425 57.2727 505.039 57.6553 504.562 57.9432C504.085 58.2235 503.566 58.3636 503.005 58.3636ZM547.008 58.3636C546.129 58.3636 545.375 58.0568 544.746 57.4432C544.125 56.822 543.818 56.0682 543.826 55.1818C543.818 54.3182 544.125 53.5795 544.746 52.9659C545.375 52.3523 546.129 52.0455 547.008 52.0455C547.841 52.0455 548.576 52.3523 549.212 52.9659C549.856 53.5795 550.182 54.3182 550.189 55.1818C550.182 55.7727 550.026 56.3106 549.723 56.7955C549.428 57.2727 549.042 57.6553 548.564 57.9432C548.087 58.2235 547.568 58.3636 547.008 58.3636ZM415 91.3636C414.121 91.3636 413.367 91.0568 412.739 90.4432C412.117 89.822 411.811 89.0682 411.818 88.1818C411.811 87.3182 412.117 86.5795 412.739 85.9659C413.367 85.3523 414.121 85.0455 415 85.0455C415.833 85.0455 416.568 85.3523 417.205 85.9659C417.848 86.5795 418.174 87.3182 418.182 88.1818C418.174 88.7727 418.019 89.3106 417.716 89.7955C417.42 90.2727 417.034 90.6553 416.557 90.9432C416.08 91.2235 415.561 91.3636 415 91.3636ZM459.003 91.3636C458.124 91.3636 457.37 91.0568 456.741 90.4432C456.12 89.822 455.813 89.0682 455.821 88.1818C455.813 87.3182 456.12 86.5795 456.741 85.9659C457.37 85.3523 458.124 85.0455 459.003 85.0455C459.836 85.0455 460.571 85.3523 461.207 85.9659C461.851 86.5795 462.177 87.3182 462.184 88.1818C462.177 88.7727 462.021 89.3106 461.718 89.7955C461.423 90.2727 461.037 90.6553 460.559 90.9432C460.082 91.2235 459.563 91.3636 459.003 91.3636ZM503.005 91.3636C502.126 91.3636 501.372 91.0568 500.744 90.4432C500.122 89.822 499.816 89.0682 499.823 88.1818C499.816 87.3182 500.122 86.5795 500.744 85.9659C501.372 85.3523 502.126 85.0455 503.005 85.0455C503.838 85.0455 504.573 85.3523 505.21 85.9659C505.853 86.5795 506.179 87.3182 506.187 88.1818C506.179 88.7727 506.024 89.3106 505.721 89.7955C505.425 90.2727 505.039 90.6553 504.562 90.9432C504.085 91.2235 503.566 91.3636 503.005 91.3636ZM547.008 91.3636C546.129 91.3636 545.375 91.0568 544.746 90.4432C544.125 89.822 543.818 89.0682 543.826 88.1818C543.818 87.3182 544.125 86.5795 544.746 85.9659C545.375 85.3523 546.129 85.0455 547.008 85.0455C547.841 85.0455 548.576 85.3523 549.212 85.9659C549.856 86.5795 550.182 87.3182 550.189 88.1818C550.182 88.7727 550.026 89.3106 549.723 89.7955C549.428 90.2727 549.042 90.6553 548.564 90.9432C548.087 91.2235 547.568 91.3636 547.008 91.3636ZM415 124.364C414.121 124.364 413.367 124.057 412.739 123.443C412.117 122.822 411.811 122.068 411.818 121.182C411.811 120.318 412.117 119.58 412.739 118.966C413.367 118.352 414.121 118.045 415 118.045C415.833 118.045 416.568 118.352 417.205 118.966C417.848 119.58 418.174 120.318 418.182 121.182C418.174 121.773 418.019 122.311 417.716 122.795C417.42 123.273 417.034 123.655 416.557 123.943C416.08 124.223 415.561 124.364 415 124.364ZM459.003 124.364C458.124 124.364 457.37 124.057 456.741 123.443C456.12 122.822 455.813 122.068 455.821 121.182C455.813 120.318 456.12 119.58 456.741 118.966C457.37 118.352 458.124 118.045 459.003 118.045C459.836 118.045 460.571 118.352 461.207 118.966C461.851 119.58 462.177 120.318 462.184 121.182C462.177 121.773 462.021 122.311 461.718 122.795C461.423 123.273 461.037 123.655 460.559 123.943C460.082 124.223 459.563 124.364 459.003 124.364ZM503.005 124.364C502.126 124.364 501.372 124.057 500.744 123.443C500.122 122.822 499.816 122.068 499.823 121.182C499.816 120.318 500.122 119.58 500.744 118.966C501.372 118.352 502.126 118.045 503.005 118.045C503.838 118.045 504.573 118.352 505.21 118.966C505.853 119.58 506.179 120.318 506.187 121.182C506.179 121.773 506.024 122.311 505.721 122.795C505.425 123.273 505.039 123.655 504.562 123.943C504.085 124.223 503.566 124.364 503.005 124.364ZM547.008 124.364C546.129 124.364 545.375 124.057 544.746 123.443C544.125 122.822 543.818 122.068 543.826 121.182C543.818 120.318 544.125 119.58 544.746 118.966C545.375 118.352 546.129 118.045 547.008 118.045C547.841 118.045 548.576 118.352 549.212 118.966C549.856 119.58 550.182 120.318 550.189 121.182C550.182 121.773 550.026 122.311 549.723 122.795C549.428 123.273 549.042 123.655 548.564 123.943C548.087 124.223 547.568 124.364 547.008 124.364ZM415 157.364C414.121 157.364 413.367 157.057 412.739 156.443C412.117 155.822 411.811 155.068 411.818 154.182C411.811 153.318 412.117 152.58 412.739 151.966C413.367 151.352 414.121 151.045 415 151.045C415.833 151.045 416.568 151.352 417.205 151.966C417.848 152.58 418.174 153.318 418.182 154.182C418.174 154.773 418.019 155.311 417.716 155.795C417.42 156.273 417.034 156.655 416.557 156.943C416.08 157.223 415.561 157.364 415 157.364ZM459.003 157.364C458.124 157.364 457.37 157.057 456.741 156.443C456.12 155.822 455.813 155.068 455.821 154.182C455.813 153.318 456.12 152.58 456.741 151.966C457.37 151.352 458.124 151.045 459.003 151.045C459.836 151.045 460.571 151.352 461.207 151.966C461.851 152.58 462.177 153.318 462.184 154.182C462.177 154.773 462.021 155.311 461.718 155.795C461.423 156.273 461.037 156.655 460.559 156.943C460.082 157.223 459.563 157.364 459.003 157.364ZM503.005 157.364C502.126 157.364 501.372 157.057 500.744 156.443C500.122 155.822 499.816 155.068 499.823 154.182C499.816 153.318 500.122 152.58 500.744 151.966C501.372 151.352 502.126 151.045 503.005 151.045C503.838 151.045 504.573 151.352 505.21 151.966C505.853 152.58 506.179 153.318 506.187 154.182C506.179 154.773 506.024 155.311 505.721 155.795C505.425 156.273 505.039 156.655 504.562 156.943C504.085 157.223 503.566 157.364 503.005 157.364ZM547.008 157.364C546.129 157.364 545.375 157.057 544.746 156.443C544.125 155.822 543.818 155.068 543.826 154.182C543.818 153.318 544.125 152.58 544.746 151.966C545.375 151.352 546.129 151.045 547.008 151.045C547.841 151.045 548.576 151.352 549.212 151.966C549.856 152.58 550.182 153.318 550.189 154.182C550.182 154.773 550.026 155.311 549.723 155.795C549.428 156.273 549.042 156.655 548.564 156.943C548.087 157.223 547.568 157.364 547.008 157.364Z" fill="url(#paint3_linear_148_146)"/>
<mask id="path-5-outside-1_148_146" maskUnits="userSpaceOnUse" x="260" y="257" width="687" height="137" fill="black">
<rect fill="white" x="260" y="257" width="687" height="137"/>
<path d="M265 362V268.909H305.182C312.091 268.909 318.136 270.273 323.318 273C328.5 275.727 332.53 279.561 335.409 284.5C338.288 289.439 339.727 295.212 339.727 301.818C339.727 308.485 338.242 314.258 335.273 319.136C332.333 324.015 328.197 327.773 322.864 330.409C317.561 333.045 311.364 334.364 304.273 334.364H280.273V314.727H299.182C302.152 314.727 304.682 314.212 306.773 313.182C308.894 312.121 310.515 310.621 311.636 308.682C312.788 306.742 313.364 304.455 313.364 301.818C313.364 299.152 312.788 296.879 311.636 295C310.515 293.091 308.894 291.636 306.773 290.636C304.682 289.606 302.152 289.091 299.182 289.091H290.273V362H265ZM349.364 362V292.182H374.455V362H349.364ZM361.909 284.909C358.515 284.909 355.606 283.788 353.182 281.545C350.758 279.303 349.545 276.606 349.545 273.455C349.545 270.303 350.758 267.606 353.182 265.364C355.606 263.121 358.515 262 361.909 262C365.333 262 368.242 263.121 370.636 265.364C373.061 267.606 374.273 270.303 374.273 273.455C374.273 276.606 373.061 279.303 370.636 281.545C368.242 283.788 365.333 284.909 361.909 284.909ZM408.875 292.182L419.057 313.818L429.784 292.182H454.693L435.966 327.091L455.602 362H430.875L419.057 339.818L407.602 362H382.511L402.33 327.091L383.784 292.182H408.875ZM494.693 363.273C487.239 363.273 480.814 361.848 475.42 359C470.057 356.121 465.92 352 463.011 346.636C460.133 341.242 458.693 334.788 458.693 327.273C458.693 320.061 460.148 313.758 463.057 308.364C465.966 302.97 470.072 298.773 475.375 295.773C480.678 292.773 486.936 291.273 494.148 291.273C499.42 291.273 504.193 292.091 508.466 293.727C512.739 295.364 516.39 297.742 519.42 300.864C522.451 303.955 524.784 307.712 526.42 312.136C528.057 316.561 528.875 321.545 528.875 327.091V332.909H466.511V319.091H505.784C505.754 317.091 505.239 315.333 504.239 313.818C503.269 312.273 501.951 311.076 500.284 310.227C498.648 309.348 496.784 308.909 494.693 308.909C492.663 308.909 490.799 309.348 489.102 310.227C487.405 311.076 486.042 312.258 485.011 313.773C484.011 315.288 483.481 317.061 483.42 319.091V334C483.42 336.242 483.89 338.242 484.83 340C485.769 341.758 487.117 343.136 488.875 344.136C490.633 345.136 492.754 345.636 495.239 345.636C496.966 345.636 498.542 345.394 499.966 344.909C501.42 344.424 502.663 343.727 503.693 342.818C504.723 341.879 505.481 340.758 505.966 339.455H528.875C528.087 344.303 526.223 348.515 523.284 352.091C520.345 355.636 516.451 358.394 511.602 360.364C506.784 362.303 501.148 363.273 494.693 363.273ZM564.205 268.909V362H539.114V268.909H564.205ZM602.125 362V268.909H642.307C649.216 268.909 655.261 270.273 660.443 273C665.625 275.727 669.655 279.561 672.534 284.5C675.413 289.439 676.852 295.212 676.852 301.818C676.852 308.485 675.367 314.258 672.398 319.136C669.458 324.015 665.322 327.773 659.989 330.409C654.686 333.045 648.489 334.364 641.398 334.364H617.398V314.727H636.307C639.277 314.727 641.807 314.212 643.898 313.182C646.019 312.121 647.64 310.621 648.761 308.682C649.913 306.742 650.489 304.455 650.489 301.818C650.489 299.152 649.913 296.879 648.761 295C647.64 293.091 646.019 291.636 643.898 290.636C641.807 289.606 639.277 289.091 636.307 289.091H627.398V362H602.125ZM702.818 363.091C698.364 363.091 694.424 362.364 691 360.909C687.606 359.424 684.939 357.182 683 354.182C681.061 351.182 680.091 347.364 680.091 342.727C680.091 338.909 680.742 335.652 682.045 332.955C683.348 330.227 685.167 328 687.5 326.273C689.833 324.545 692.545 323.227 695.636 322.318C698.758 321.409 702.121 320.818 705.727 320.545C709.636 320.242 712.773 319.879 715.136 319.455C717.53 319 719.258 318.379 720.318 317.591C721.379 316.773 721.909 315.697 721.909 314.364V314.182C721.909 312.364 721.212 310.97 719.818 310C718.424 309.03 716.636 308.545 714.455 308.545C712.061 308.545 710.106 309.076 708.591 310.136C707.106 311.167 706.212 312.758 705.909 314.909H682.818C683.121 310.667 684.47 306.758 686.864 303.182C689.288 299.576 692.818 296.697 697.455 294.545C702.091 292.364 707.879 291.273 714.818 291.273C719.818 291.273 724.303 291.864 728.273 293.045C732.242 294.197 735.621 295.818 738.409 297.909C741.197 299.97 743.318 302.394 744.773 305.182C746.258 307.939 747 310.939 747 314.182V362H723.545V352.182H723C721.606 354.788 719.909 356.894 717.909 358.5C715.939 360.106 713.682 361.273 711.136 362C708.621 362.727 705.848 363.091 702.818 363.091ZM711 347.273C712.909 347.273 714.697 346.879 716.364 346.091C718.061 345.303 719.439 344.167 720.5 342.682C721.561 341.197 722.091 339.394 722.091 337.273V331.455C721.424 331.727 720.712 331.985 719.955 332.227C719.227 332.47 718.439 332.697 717.591 332.909C716.773 333.121 715.894 333.318 714.955 333.5C714.045 333.682 713.091 333.848 712.091 334C710.152 334.303 708.561 334.803 707.318 335.5C706.106 336.167 705.197 337 704.591 338C704.015 338.97 703.727 340.061 703.727 341.273C703.727 343.212 704.409 344.697 705.773 345.727C707.136 346.758 708.879 347.273 711 347.273ZM758.989 362V292.182H783.352V305.455H784.08C785.352 300.545 787.367 296.955 790.125 294.682C792.913 292.409 796.17 291.273 799.898 291.273C800.989 291.273 802.064 291.364 803.125 291.545C804.216 291.697 805.261 291.924 806.261 292.227V313.636C805.019 313.212 803.489 312.894 801.67 312.682C799.852 312.47 798.292 312.364 796.989 312.364C794.534 312.364 792.322 312.924 790.352 314.045C788.413 315.136 786.883 316.682 785.761 318.682C784.64 320.652 784.08 322.97 784.08 325.636V362H758.989ZM859 292.182V310.364H813V292.182H859ZM821.909 275.455H847V339.545C847 340.515 847.167 341.333 847.5 342C847.833 342.636 848.348 343.121 849.045 343.455C849.742 343.758 850.636 343.909 851.727 343.909C852.485 343.909 853.364 343.818 854.364 343.636C855.394 343.455 856.152 343.303 856.636 343.182L860.273 360.818C859.152 361.152 857.545 361.561 855.455 362.045C853.394 362.53 850.939 362.848 848.091 363C842.333 363.303 837.5 362.712 833.591 361.227C829.682 359.712 826.742 357.333 824.773 354.091C822.803 350.848 821.848 346.788 821.909 341.909V275.455ZM884.511 388.182C881.633 388.182 878.89 387.955 876.284 387.5C873.678 387.076 871.39 386.485 869.42 385.727L874.875 367.909C876.936 368.636 878.814 369.106 880.511 369.318C882.239 369.53 883.708 369.409 884.92 368.955C886.163 368.5 887.057 367.636 887.602 366.364L888.148 365.091L863.602 292.182H889.784L901.057 340.545H901.784L913.239 292.182H939.602L914.148 367.818C912.875 371.667 911.027 375.121 908.602 378.182C906.208 381.273 903.057 383.712 899.148 385.5C895.239 387.288 890.36 388.182 884.511 388.182Z"/>
</mask>
<path d="M265 362H260V367H265V362ZM265 268.909V263.909H260V268.909H265ZM323.318 273L320.989 277.425L320.989 277.425L323.318 273ZM335.409 284.5L339.729 281.982L339.729 281.982L335.409 284.5ZM335.273 319.136L331.002 316.537L330.996 316.546L330.99 316.556L335.273 319.136ZM322.864 330.409L320.648 325.927L320.638 325.932L322.864 330.409ZM280.273 334.364H275.273V339.364H280.273V334.364ZM280.273 314.727V309.727H275.273V314.727H280.273ZM306.773 313.182L308.983 317.667L308.996 317.66L309.009 317.654L306.773 313.182ZM311.636 308.682L307.337 306.129L307.322 306.154L307.308 306.179L311.636 308.682ZM311.636 295L307.325 297.532L307.349 297.573L307.373 297.613L311.636 295ZM306.773 290.636L304.563 295.121L304.602 295.141L304.641 295.159L306.773 290.636ZM290.273 289.091V284.091H285.273V289.091H290.273ZM290.273 362V367H295.273V362H290.273ZM270 362V268.909H260V362H270ZM265 273.909H305.182V263.909H265V273.909ZM305.182 273.909C311.425 273.909 316.644 275.138 320.989 277.425L325.647 268.575C319.628 265.408 312.757 263.909 305.182 263.909V273.909ZM320.989 277.425C325.363 279.727 328.694 282.908 331.089 287.018L339.729 281.982C336.366 276.213 331.637 271.728 325.647 268.575L320.989 277.425ZM331.089 287.018C333.457 291.081 334.727 295.957 334.727 301.818H344.727C344.727 294.467 343.118 287.798 339.729 281.982L331.089 287.018ZM334.727 301.818C334.727 307.723 333.42 312.564 331.002 316.537L339.544 321.736C343.065 315.951 344.727 309.246 344.727 301.818H334.727ZM330.99 316.556C328.566 320.579 325.165 323.694 320.648 325.927L325.079 334.891C331.229 331.851 336.1 327.451 339.555 321.717L330.99 316.556ZM320.638 325.932C316.15 328.163 310.742 329.364 304.273 329.364V339.364C311.985 339.364 318.971 337.928 325.089 334.886L320.638 325.932ZM304.273 329.364H280.273V339.364H304.273V329.364ZM285.273 334.364V314.727H275.273V334.364H285.273ZM280.273 319.727H299.182V309.727H280.273V319.727ZM299.182 319.727C302.714 319.727 306.042 319.116 308.983 317.667L304.563 308.697C303.321 309.309 301.589 309.727 299.182 309.727V319.727ZM309.009 317.654C311.951 316.183 314.325 314.022 315.965 311.184L307.308 306.179C306.706 307.221 305.837 308.06 304.537 308.71L309.009 317.654ZM315.936 311.235C317.618 308.401 318.364 305.199 318.364 301.818H308.364C308.364 303.71 307.957 305.084 307.337 306.129L315.936 311.235ZM318.364 301.818C318.364 298.424 317.625 295.203 315.899 292.387L307.373 297.613C307.951 298.554 308.364 299.879 308.364 301.818H318.364ZM315.948 292.468C314.286 289.638 311.879 287.516 308.905 286.114L304.641 295.159C305.909 295.757 306.744 296.543 307.325 297.532L315.948 292.468ZM308.983 286.151C306.042 284.702 302.714 284.091 299.182 284.091V294.091C301.589 294.091 303.321 294.51 304.563 295.121L308.983 286.151ZM299.182 284.091H290.273V294.091H299.182V284.091ZM285.273 289.091V362H295.273V289.091H285.273ZM290.273 357H265V367H290.273V357ZM349.364 362H344.364V367H349.364V362ZM349.364 292.182V287.182H344.364V292.182H349.364ZM374.455 292.182H379.455V287.182H374.455V292.182ZM374.455 362V367H379.455V362H374.455ZM353.182 281.545L349.787 285.216L349.787 285.216L353.182 281.545ZM353.182 265.364L349.787 261.693L349.787 261.693L353.182 265.364ZM370.636 265.364L367.218 269.013L367.23 269.023L367.241 269.034L370.636 265.364ZM370.636 281.545L367.241 277.875L367.23 277.886L367.218 277.896L370.636 281.545ZM354.364 362V292.182H344.364V362H354.364ZM349.364 297.182H374.455V287.182H349.364V297.182ZM369.455 292.182V362H379.455V292.182H369.455ZM374.455 357H349.364V367H374.455V357ZM361.909 279.909C359.735 279.909 358.049 279.237 356.577 277.875L349.787 285.216C353.163 288.339 357.295 289.909 361.909 289.909V279.909ZM356.577 277.875C355.121 276.528 354.545 275.139 354.545 273.455H344.545C344.545 278.073 346.394 282.078 349.787 285.216L356.577 277.875ZM354.545 273.455C354.545 271.77 355.121 270.381 356.577 269.034L349.787 261.693C346.394 264.831 344.545 268.836 344.545 273.455H354.545ZM356.577 269.034C358.049 267.672 359.735 267 361.909 267V257C357.295 257 353.163 258.57 349.787 261.693L356.577 269.034ZM361.909 267C364.125 267 365.795 267.679 367.218 269.013L374.055 261.715C370.69 258.563 366.541 257 361.909 257V267ZM367.241 269.034C368.698 270.381 369.273 271.77 369.273 273.455H379.273C379.273 268.836 377.424 264.831 374.032 261.693L367.241 269.034ZM369.273 273.455C369.273 275.139 368.698 276.528 367.241 277.875L374.032 285.216C377.424 282.078 379.273 278.073 379.273 273.455H369.273ZM367.218 277.896C365.795 279.23 364.125 279.909 361.909 279.909V289.909C366.541 289.909 370.69 288.346 374.055 285.195L367.218 277.896ZM408.875 292.182L413.399 290.053L412.048 287.182H408.875V292.182ZM419.057 313.818L414.533 315.947L418.939 325.311L423.536 316.039L419.057 313.818ZM429.784 292.182V287.182H426.682L425.304 289.961L429.784 292.182ZM454.693 292.182L459.099 294.545L463.05 287.182H454.693V292.182ZM435.966 327.091L431.56 324.727L430.261 327.148L431.608 329.542L435.966 327.091ZM455.602 362V367H464.152L459.96 359.549L455.602 362ZM430.875 362L426.462 364.351L427.874 367H430.875V362ZM419.057 339.818L423.47 337.467L418.988 329.055L414.614 337.524L419.057 339.818ZM407.602 362V367H410.648L412.045 364.294L407.602 362ZM382.511 362L378.163 359.532L373.923 367H382.511V362ZM402.33 327.091L406.678 329.559L408.034 327.171L406.745 324.745L402.33 327.091ZM383.784 292.182V287.182H375.466L379.369 294.528L383.784 292.182ZM404.351 294.311L414.533 315.947L423.581 311.689L413.399 290.053L404.351 294.311ZM423.536 316.039L434.264 294.403L425.304 289.961L414.577 311.597L423.536 316.039ZM429.784 297.182H454.693V287.182H429.784V297.182ZM450.287 289.818L431.56 324.727L440.372 329.455L459.099 294.545L450.287 289.818ZM431.608 329.542L451.244 364.451L459.96 359.549L440.324 324.64L431.608 329.542ZM455.602 357H430.875V367H455.602V357ZM435.288 359.649L423.47 337.467L414.644 342.169L426.462 364.351L435.288 359.649ZM414.614 337.524L403.16 359.706L412.045 364.294L423.499 342.112L414.614 337.524ZM407.602 357H382.511V367H407.602V357ZM386.86 364.468L406.678 329.559L397.981 324.622L378.163 359.532L386.86 364.468ZM406.745 324.745L388.2 289.836L379.369 294.528L397.914 329.437L406.745 324.745ZM383.784 297.182H408.875V287.182H383.784V297.182ZM475.42 359L473.056 363.406L473.071 363.414L473.086 363.421L475.42 359ZM463.011 346.636L458.6 348.991L458.608 349.005L458.616 349.02L463.011 346.636ZM463.057 308.364L467.458 310.737L467.458 310.737L463.057 308.364ZM475.375 295.773L477.837 300.125L477.837 300.125L475.375 295.773ZM508.466 293.727L510.254 289.058L510.254 289.058L508.466 293.727ZM519.42 300.864L515.833 304.347L515.842 304.355L515.85 304.364L519.42 300.864ZM526.42 312.136L521.731 313.871L521.731 313.871L526.42 312.136ZM528.875 332.909V337.909H533.875V332.909H528.875ZM466.511 332.909H461.511V337.909H466.511V332.909ZM466.511 319.091V314.091H461.511V319.091H466.511ZM505.784 319.091V324.091H510.86L510.784 319.015L505.784 319.091ZM504.239 313.818L500.003 316.476L500.034 316.524L500.066 316.572L504.239 313.818ZM500.284 310.227L497.918 314.632L497.967 314.658L498.016 314.683L500.284 310.227ZM489.102 310.227L491.338 314.699L491.37 314.684L491.402 314.667L489.102 310.227ZM485.011 313.773L480.877 310.961L480.857 310.99L480.838 311.019L485.011 313.773ZM483.42 319.091L478.423 318.942L478.42 319.016V319.091H483.42ZM484.83 340L480.42 342.357L480.42 342.357L484.83 340ZM488.875 344.136L486.402 348.482L486.402 348.482L488.875 344.136ZM499.966 344.909L498.385 340.166L498.37 340.171L498.355 340.176L499.966 344.909ZM503.693 342.818L507.001 346.567L507.032 346.54L507.062 346.513L503.693 342.818ZM505.966 339.455V334.455H502.491L501.28 337.711L505.966 339.455ZM528.875 339.455L533.81 340.257L534.753 334.455H528.875V339.455ZM523.284 352.091L527.133 355.282L527.14 355.274L527.147 355.266L523.284 352.091ZM511.602 360.364L513.469 365.002L513.477 364.999L513.484 364.996L511.602 360.364ZM494.693 358.273C487.874 358.273 482.287 356.972 477.755 354.579L473.086 363.421C479.342 366.725 486.603 368.273 494.693 368.273V358.273ZM477.785 354.594C473.283 352.178 469.852 348.761 467.407 344.253L458.616 349.02C461.989 355.239 466.83 360.064 473.056 363.406L477.785 354.594ZM467.422 344.282C465.009 339.761 463.693 334.152 463.693 327.273H453.693C453.693 335.423 455.256 342.724 458.6 348.991L467.422 344.282ZM463.693 327.273C463.693 320.742 465.006 315.283 467.458 310.737L458.656 305.99C455.289 312.232 453.693 319.379 453.693 327.273H463.693ZM467.458 310.737C469.922 306.167 473.359 302.658 477.837 300.125L472.913 291.421C466.785 294.887 462.009 299.772 458.656 305.99L467.458 310.737ZM477.837 300.125C482.262 297.621 487.639 296.273 494.148 296.273V286.273C486.232 286.273 479.094 287.924 472.913 291.421L477.837 300.125ZM494.148 296.273C498.901 296.273 503.056 297.009 506.678 298.397L510.254 289.058C505.331 287.172 499.94 286.273 494.148 286.273V296.273ZM506.678 298.397C510.308 299.787 513.335 301.774 515.833 304.347L523.008 297.381C519.445 293.711 515.17 290.941 510.254 289.058L506.678 298.397ZM515.85 304.364C518.344 306.908 520.317 310.048 521.731 313.871L531.11 310.402C529.251 305.377 526.557 301.001 522.991 297.363L515.85 304.364ZM521.731 313.871C523.129 317.652 523.875 322.036 523.875 327.091H533.875C533.875 321.055 532.984 315.469 531.11 310.402L521.731 313.871ZM523.875 327.091V332.909H533.875V327.091H523.875ZM528.875 327.909H466.511V337.909H528.875V327.909ZM471.511 332.909V319.091H461.511V332.909H471.511ZM466.511 324.091H505.784V314.091H466.511V324.091ZM510.784 319.015C510.74 316.162 509.99 313.455 508.412 311.064L500.066 316.572C500.488 317.212 500.767 318.019 500.785 319.167L510.784 319.015ZM508.474 311.161C507.011 308.829 505.004 307.02 502.553 305.771L498.016 314.683C498.897 315.132 499.527 315.716 500.003 316.476L508.474 311.161ZM502.65 305.822C500.199 304.506 497.504 303.909 494.693 303.909V313.909C496.064 313.909 497.097 314.191 497.918 314.632L502.65 305.822ZM494.693 303.909C491.914 303.909 489.255 304.518 486.803 305.787L491.402 314.667C492.344 314.179 493.412 313.909 494.693 313.909V303.909ZM486.866 305.755C484.433 306.972 482.405 308.714 480.877 310.961L489.146 316.584C489.678 315.801 490.378 315.18 491.338 314.699L486.866 305.755ZM480.838 311.019C479.268 313.398 478.508 316.097 478.423 318.942L488.418 319.24C488.455 318.024 488.755 317.178 489.184 316.527L480.838 311.019ZM478.42 319.091V334H488.42V319.091H478.42ZM478.42 334C478.42 336.96 479.047 339.787 480.42 342.357L489.239 337.643C488.734 336.697 488.42 335.525 488.42 334H478.42ZM480.42 342.357C481.811 344.96 483.837 347.023 486.402 348.482L491.348 339.791C490.398 339.25 489.727 338.555 489.239 337.643L480.42 342.357ZM486.402 348.482C489.068 349.999 492.084 350.636 495.239 350.636V340.636C493.424 340.636 492.197 340.274 491.348 339.791L486.402 348.482ZM495.239 350.636C497.434 350.636 499.564 350.328 501.577 349.642L498.355 340.176C497.52 340.46 496.498 340.636 495.239 340.636V350.636ZM501.547 349.653C503.564 348.98 505.413 347.969 507.001 346.567L500.385 339.069C499.913 339.485 499.277 339.868 498.385 340.166L501.547 349.653ZM507.062 346.513C508.679 345.039 509.889 343.249 510.652 341.198L501.28 337.711C501.073 338.266 500.768 338.719 500.324 339.123L507.062 346.513ZM505.966 344.455H528.875V334.455H505.966V344.455ZM523.94 338.653C523.285 342.685 521.765 346.065 519.422 348.916L527.147 355.266C530.682 350.966 532.89 345.922 533.81 340.257L523.94 338.653ZM519.435 348.9C517.09 351.728 513.91 354.029 509.72 355.731L513.484 364.996C518.992 362.758 523.599 359.545 527.133 355.282L519.435 348.9ZM509.735 355.725C505.635 357.376 500.658 358.273 494.693 358.273V368.273C501.637 368.273 507.933 367.231 513.469 365.002L509.735 355.725ZM564.205 268.909H569.205V263.909H564.205V268.909ZM564.205 362V367H569.205V362H564.205ZM539.114 362H534.114V367H539.114V362ZM539.114 268.909V263.909H534.114V268.909H539.114ZM559.205 268.909V362H569.205V268.909H559.205ZM564.205 357H539.114V367H564.205V357ZM544.114 362V268.909H534.114V362H544.114ZM539.114 273.909H564.205V263.909H539.114V273.909ZM602.125 362H597.125V367H602.125V362ZM602.125 268.909V263.909H597.125V268.909H602.125ZM660.443 273L658.114 277.425L658.114 277.425L660.443 273ZM672.534 284.5L676.854 281.982L676.854 281.982L672.534 284.5ZM672.398 319.136L668.127 316.537L668.121 316.546L668.115 316.556L672.398 319.136ZM659.989 330.409L657.773 325.927L657.763 325.932L659.989 330.409ZM617.398 334.364H612.398V339.364H617.398V334.364ZM617.398 314.727V309.727H612.398V314.727H617.398ZM643.898 313.182L646.108 317.667L646.121 317.66L646.134 317.654L643.898 313.182ZM648.761 308.682L644.462 306.129L644.447 306.154L644.433 306.179L648.761 308.682ZM648.761 295L644.45 297.532L644.474 297.573L644.498 297.613L648.761 295ZM643.898 290.636L641.688 295.121L641.727 295.141L641.766 295.159L643.898 290.636ZM627.398 289.091V284.091H622.398V289.091H627.398ZM627.398 362V367H632.398V362H627.398ZM607.125 362V268.909H597.125V362H607.125ZM602.125 273.909H642.307V263.909H602.125V273.909ZM642.307 273.909C648.55 273.909 653.769 275.138 658.114 277.425L662.772 268.575C656.753 265.408 649.882 263.909 642.307 263.909V273.909ZM658.114 277.425C662.488 279.727 665.819 282.908 668.214 287.018L676.854 281.982C673.491 276.213 668.762 271.728 662.772 268.575L658.114 277.425ZM668.214 287.018C670.582 291.081 671.852 295.957 671.852 301.818H681.852C681.852 294.467 680.243 287.798 676.854 281.982L668.214 287.018ZM671.852 301.818C671.852 307.723 670.545 312.564 668.127 316.537L676.669 321.736C680.19 315.951 681.852 309.246 681.852 301.818H671.852ZM668.115 316.556C665.691 320.579 662.29 323.694 657.773 325.927L662.204 334.891C668.354 331.851 673.225 327.451 676.68 321.717L668.115 316.556ZM657.763 325.932C653.275 328.163 647.867 329.364 641.398 329.364V339.364C649.11 339.364 656.096 337.928 662.214 334.886L657.763 325.932ZM641.398 329.364H617.398V339.364H641.398V329.364ZM622.398 334.364V314.727H612.398V334.364H622.398ZM617.398 319.727H636.307V309.727H617.398V319.727ZM636.307 319.727C639.839 319.727 643.167 319.116 646.108 317.667L641.688 308.697C640.446 309.309 638.714 309.727 636.307 309.727V319.727ZM646.134 317.654C649.076 316.183 651.45 314.022 653.09 311.184L644.433 306.179C643.831 307.221 642.962 308.06 641.662 308.71L646.134 317.654ZM653.061 311.235C654.743 308.401 655.489 305.199 655.489 301.818H645.489C645.489 303.71 645.082 305.084 644.462 306.129L653.061 311.235ZM655.489 301.818C655.489 298.424 654.75 295.203 653.024 292.387L644.498 297.613C645.076 298.554 645.489 299.879 645.489 301.818H655.489ZM653.073 292.468C651.411 289.638 649.004 287.516 646.03 286.114L641.766 295.159C643.034 295.757 643.869 296.543 644.45 297.532L653.073 292.468ZM646.108 286.151C643.167 284.702 639.839 284.091 636.307 284.091V294.091C638.714 294.091 640.446 294.51 641.688 295.121L646.108 286.151ZM636.307 284.091H627.398V294.091H636.307V284.091ZM622.398 289.091V362H632.398V289.091H622.398ZM627.398 357H602.125V367H627.398V357ZM691 360.909L688.996 365.49L689.02 365.501L689.045 365.511L691 360.909ZM683 354.182L678.801 356.896L678.801 356.896L683 354.182ZM682.045 332.955L686.548 335.13L686.552 335.12L686.557 335.11L682.045 332.955ZM687.5 326.273L690.475 330.291L690.475 330.291L687.5 326.273ZM695.636 322.318L694.238 317.518L694.226 317.521L695.636 322.318ZM705.727 320.545L706.104 325.531L706.114 325.53L705.727 320.545ZM715.136 319.455L716.02 324.376L716.044 324.371L716.069 324.367L715.136 319.455ZM720.318 317.591L723.3 321.605L723.336 321.578L723.372 321.55L720.318 317.591ZM719.818 310L716.963 314.105L716.963 314.105L719.818 310ZM708.591 310.136L711.441 314.244L711.45 314.238L711.458 314.233L708.591 310.136ZM705.909 314.909V319.909H710.254L710.86 315.606L705.909 314.909ZM682.818 314.909L677.831 314.553L677.448 319.909H682.818V314.909ZM686.864 303.182L682.714 300.392L682.709 300.4L686.864 303.182ZM697.455 294.545L699.559 299.081L699.571 299.075L699.584 299.07L697.455 294.545ZM728.273 293.045L726.846 297.838L726.863 297.843L726.88 297.848L728.273 293.045ZM738.409 297.909L735.409 301.909L735.423 301.92L735.437 301.93L738.409 297.909ZM744.773 305.182L740.34 307.495L740.355 307.524L740.37 307.552L744.773 305.182ZM747 362V367H752V362H747ZM723.545 362H718.545V367H723.545V362ZM723.545 352.182H728.545V347.182H723.545V352.182ZM723 352.182V347.182H720.004L718.591 349.824L723 352.182ZM717.909 358.5L714.778 354.601L714.764 354.613L714.749 354.625L717.909 358.5ZM711.136 362L709.763 357.192L709.755 357.195L709.747 357.197L711.136 362ZM716.364 346.091L714.258 341.556L714.242 341.563L714.227 341.571L716.364 346.091ZM720.5 342.682L716.431 339.776L716.431 339.776L720.5 342.682ZM722.091 331.455H727.091V324.007L720.198 326.827L722.091 331.455ZM719.955 332.227L718.431 327.465L718.402 327.474L718.373 327.484L719.955 332.227ZM717.591 332.909L716.378 328.058L716.357 328.064L716.336 328.069L717.591 332.909ZM714.955 333.5L714.004 328.591L713.989 328.594L713.974 328.597L714.955 333.5ZM712.091 334L711.342 329.056L711.33 329.058L711.319 329.06L712.091 334ZM707.318 335.5L709.728 339.881L709.746 339.871L709.764 339.861L707.318 335.5ZM704.591 338L700.315 335.408L700.303 335.428L700.292 335.447L704.591 338ZM705.773 345.727L708.787 341.738L708.787 341.738L705.773 345.727ZM702.818 358.091C698.905 358.091 695.651 357.453 692.955 356.307L689.045 365.511C693.197 367.275 697.822 368.091 702.818 368.091V358.091ZM693.004 356.328C690.474 355.221 688.585 353.612 687.199 351.467L678.801 356.896C681.294 360.752 684.738 363.627 688.996 365.49L693.004 356.328ZM687.199 351.467C685.917 349.485 685.091 346.683 685.091 342.727H675.091C675.091 348.044 676.204 352.879 678.801 356.896L687.199 351.467ZM685.091 342.727C685.091 339.462 685.649 336.988 686.548 335.13L677.543 330.779C675.835 334.315 675.091 338.356 675.091 342.727H685.091ZM686.557 335.11C687.523 333.089 688.826 331.512 690.475 330.291L684.525 322.254C681.508 324.488 679.174 327.366 677.534 330.799L686.557 335.11ZM690.475 330.291C692.288 328.95 694.458 327.877 697.047 327.115L694.226 317.521C690.633 318.578 687.379 320.141 684.525 322.254L690.475 330.291ZM697.035 327.119C699.788 326.317 702.806 325.781 706.104 325.531L705.35 315.56C701.436 315.856 697.727 316.501 694.238 317.518L697.035 327.119ZM706.114 325.53C710.1 325.222 713.422 324.842 716.02 324.376L714.253 314.533C712.124 314.915 709.173 315.263 705.341 315.56L706.114 325.53ZM716.069 324.367C718.681 323.871 721.315 323.079 723.3 321.605L717.337 313.577C717.337 313.577 717.281 313.618 717.142 313.688C717.005 313.758 716.807 313.845 716.535 313.943C715.984 314.141 715.221 314.349 714.204 314.542L716.069 324.367ZM723.372 321.55C725.653 319.79 726.909 317.255 726.909 314.364H716.909C716.909 314.364 716.909 314.32 716.927 314.24C716.944 314.159 716.976 314.062 717.027 313.96C717.077 313.857 717.134 313.774 717.186 313.713C717.236 313.653 717.269 313.629 717.264 313.632L723.372 321.55ZM726.909 314.364V314.182H716.909V314.364H726.909ZM726.909 314.182C726.909 310.863 725.519 307.875 722.674 305.895L716.963 314.105C717.009 314.137 717.01 314.144 716.988 314.12C716.978 314.108 716.965 314.092 716.951 314.071C716.937 314.051 716.925 314.03 716.914 314.009C716.904 313.988 716.897 313.971 716.894 313.961C716.89 313.95 716.89 313.949 716.892 313.958C716.896 313.977 716.909 314.047 716.909 314.182H726.909ZM722.674 305.895C720.231 304.197 717.367 303.545 714.455 303.545V313.545C715.906 313.545 716.617 313.864 716.963 314.105L722.674 305.895ZM714.455 303.545C711.335 303.545 708.296 304.24 705.724 306.04L711.458 314.233C711.916 313.912 712.786 313.545 714.455 313.545V303.545ZM705.741 306.028C702.882 308.012 701.413 310.983 700.958 314.212L710.86 315.606C711.011 314.533 711.33 314.321 711.441 314.244L705.741 306.028ZM705.909 309.909H682.818V319.909H705.909V309.909ZM687.805 315.265C688.046 311.901 689.102 308.826 691.018 305.963L682.709 300.4C679.837 304.689 678.197 309.433 677.831 314.553L687.805 315.265ZM691.013 305.971C692.844 303.248 695.603 300.917 699.559 299.081L695.35 290.01C690.033 292.477 685.732 295.904 682.714 300.392L691.013 305.971ZM699.584 299.07C703.362 297.292 708.368 296.273 714.818 296.273V286.273C707.39 286.273 700.82 287.436 695.326 290.021L699.584 299.07ZM714.818 296.273C719.432 296.273 723.424 296.819 726.846 297.838L729.699 288.253C725.183 286.909 720.205 286.273 714.818 286.273V296.273ZM726.88 297.848C730.375 298.861 733.185 300.241 735.409 301.909L741.409 293.909C738.058 291.396 734.11 289.532 729.666 288.243L726.88 297.848ZM735.437 301.93C737.678 303.586 739.271 305.446 740.34 307.495L749.206 302.869C747.365 299.342 744.716 296.353 741.381 293.888L735.437 301.93ZM740.37 307.552C741.449 309.555 742 311.737 742 314.182H752C752 310.142 751.066 306.324 749.175 302.811L740.37 307.552ZM742 314.182V362H752V314.182H742ZM747 357H723.545V367H747V357ZM728.545 362V352.182H718.545V362H728.545ZM723.545 347.182H723V357.182H723.545V347.182ZM718.591 349.824C717.467 351.925 716.179 353.477 714.778 354.601L721.04 362.399C723.639 360.311 725.745 357.651 727.409 354.54L718.591 349.824ZM714.749 354.625C713.328 355.784 711.683 356.644 709.763 357.192L712.51 366.808C715.68 365.902 718.551 364.428 721.069 362.375L714.749 354.625ZM709.747 357.197C707.748 357.775 705.451 358.091 702.818 358.091V368.091C706.246 368.091 709.494 367.68 712.525 366.803L709.747 357.197ZM711 352.273C713.621 352.273 716.142 351.726 718.501 350.611L714.227 341.571C713.252 342.031 712.197 342.273 711 342.273V352.273ZM718.469 350.626C720.93 349.484 722.992 347.795 724.569 345.588L716.431 339.776C715.886 340.539 715.192 341.122 714.258 341.556L718.469 350.626ZM724.569 345.588C726.329 343.123 727.091 340.261 727.091 337.273H717.091C717.091 338.527 716.792 339.271 716.431 339.776L724.569 345.588ZM727.091 337.273V331.455H717.091V337.273H727.091ZM720.198 326.827C719.664 327.045 719.076 327.259 718.431 327.465L721.478 336.989C722.348 336.711 723.184 336.409 723.984 336.082L720.198 326.827ZM718.373 327.484C717.783 327.681 717.119 327.873 716.378 328.058L718.804 337.76C719.759 337.521 720.672 337.259 721.536 336.971L718.373 327.484ZM716.336 328.069C715.631 328.252 714.855 328.427 714.004 328.591L715.905 338.409C716.933 338.21 717.915 337.99 718.846 337.749L716.336 328.069ZM713.974 328.597C713.148 328.762 712.271 328.916 711.342 329.056L712.84 338.944C713.911 338.781 714.943 338.601 715.935 338.403L713.974 328.597ZM711.319 329.06C708.998 329.423 706.789 330.064 704.872 331.139L709.764 339.861C710.332 339.542 711.305 339.183 712.863 338.94L711.319 329.06ZM704.909 331.119C703.07 332.13 701.452 333.532 700.315 335.408L708.867 340.592C708.942 340.468 709.143 340.203 709.728 339.881L704.909 331.119ZM700.292 335.447C699.223 337.247 698.727 339.232 698.727 341.273H708.727C708.727 340.889 708.807 340.692 708.89 340.553L700.292 335.447ZM698.727 341.273C698.727 344.538 699.964 347.605 702.759 349.717L708.787 341.738C708.749 341.71 708.746 341.701 708.757 341.715C708.769 341.73 708.779 341.746 708.782 341.754C708.793 341.777 708.727 341.655 708.727 341.273H698.727ZM702.759 349.717C705.182 351.547 708.058 352.273 711 352.273V342.273C709.7 342.273 709.091 341.968 708.787 341.738L702.759 349.717ZM758.989 362H753.989V367H758.989V362ZM758.989 292.182V287.182H753.989V292.182H758.989ZM783.352 292.182H788.352V287.182H783.352V292.182ZM783.352 305.455H778.352V310.455H783.352V305.455ZM784.08 305.455V310.455H787.949L788.92 306.709L784.08 305.455ZM790.125 294.682L786.966 290.806L786.955 290.815L786.945 290.823L790.125 294.682ZM803.125 291.545L802.28 296.474L802.358 296.487L802.437 296.498L803.125 291.545ZM806.261 292.227H811.261V288.518L807.711 287.442L806.261 292.227ZM806.261 313.636L804.646 318.368L811.261 320.627V313.636H806.261ZM801.67 312.682L802.25 307.716L802.25 307.716L801.67 312.682ZM790.352 314.045L792.804 318.403L792.815 318.397L792.826 318.391L790.352 314.045ZM785.761 318.682L790.107 321.155L790.115 321.141L790.123 321.127L785.761 318.682ZM784.08 362V367H789.08V362H784.08ZM763.989 362V292.182H753.989V362H763.989ZM758.989 297.182H783.352V287.182H758.989V297.182ZM778.352 292.182V305.455H788.352V292.182H778.352ZM783.352 310.455H784.08V300.455H783.352V310.455ZM788.92 306.709C790.035 302.407 791.639 299.913 793.305 298.54L786.945 290.823C783.096 293.996 780.67 298.683 779.24 304.2L788.92 306.709ZM793.284 298.557C795.145 297.04 797.276 296.273 799.898 296.273V286.273C795.065 286.273 790.68 287.778 786.966 290.806L793.284 298.557ZM799.898 296.273C800.709 296.273 801.502 296.34 802.28 296.474L803.97 286.617C802.626 286.387 801.268 286.273 799.898 286.273V296.273ZM802.437 296.498C803.284 296.616 804.074 296.789 804.811 297.012L807.711 287.442C806.449 287.06 805.148 286.778 803.813 286.593L802.437 296.498ZM801.261 292.227V313.636H811.261V292.227H801.261ZM807.877 308.905C806.196 308.331 804.294 307.954 802.25 307.716L801.091 317.648C802.683 317.834 803.842 318.094 804.646 318.368L807.877 308.905ZM802.25 307.716C800.31 307.489 798.545 307.364 796.989 307.364V317.364C798.038 317.364 799.395 317.45 801.091 317.648L802.25 307.716ZM796.989 307.364C793.741 307.364 790.664 308.115 787.879 309.7L792.826 318.391C793.98 317.734 795.327 317.364 796.989 317.364V307.364ZM787.901 309.688C785.136 311.243 782.956 313.461 781.4 316.237L790.123 321.127C790.809 319.902 791.69 319.03 792.804 318.403L787.901 309.688ZM781.416 316.208C779.795 319.055 779.08 322.256 779.08 325.636H789.08C789.08 323.683 789.485 322.248 790.107 321.155L781.416 316.208ZM779.08 325.636V362H789.08V325.636H779.08ZM784.08 357H758.989V367H784.08V357ZM859 292.182H864V287.182H859V292.182ZM859 310.364V315.364H864V310.364H859ZM813 310.364H808V315.364H813V310.364ZM813 292.182V287.182H808V292.182H813ZM821.909 275.455V270.455H816.909V275.455H821.909ZM847 275.455H852V270.455H847V275.455ZM847.5 342L843.028 344.236L843.049 344.278L843.071 344.32L847.5 342ZM849.045 343.455L846.888 347.965L846.969 348.004L847.052 348.04L849.045 343.455ZM854.364 343.636L853.495 338.712L853.482 338.715L853.469 338.717L854.364 343.636ZM856.636 343.182L861.533 342.172L860.481 337.067L855.424 338.331L856.636 343.182ZM860.273 360.818L861.698 365.611L866.096 364.303L865.17 359.808L860.273 360.818ZM855.455 362.045L854.325 357.175L854.317 357.177L854.309 357.178L855.455 362.045ZM848.091 363L848.354 367.993L848.356 367.993L848.091 363ZM833.591 361.227L831.784 365.889L831.8 365.895L831.815 365.901L833.591 361.227ZM824.773 354.091L820.499 356.687L820.499 356.687L824.773 354.091ZM821.909 341.909L826.909 341.971L826.909 341.94V341.909H821.909ZM854 292.182V310.364H864V292.182H854ZM859 305.364H813V315.364H859V305.364ZM818 310.364V292.182H808V310.364H818ZM813 297.182H859V287.182H813V297.182ZM821.909 280.455H847V270.455H821.909V280.455ZM842 275.455V339.545H852V275.455H842ZM842 339.545C842 341.066 842.259 342.698 843.028 344.236L851.972 339.764C852.023 339.867 852.031 339.919 852.024 339.888C852.018 339.855 852 339.747 852 339.545H842ZM843.071 344.32C843.944 345.987 845.295 347.203 846.888 347.965L851.203 338.944C851.277 338.979 851.412 339.058 851.563 339.2C851.717 339.345 851.842 339.513 851.929 339.68L843.071 344.32ZM847.052 348.04C848.589 348.708 850.226 348.909 851.727 348.909V338.909C851.408 338.909 851.196 338.886 851.074 338.866C850.952 338.845 850.954 338.832 851.039 338.869L847.052 348.04ZM851.727 348.909C852.866 348.909 854.056 348.774 855.258 348.556L853.469 338.717C852.671 338.862 852.103 338.909 851.727 338.909V348.909ZM855.233 348.56C856.282 348.375 857.184 348.199 857.849 348.033L855.424 338.331C855.119 338.407 854.506 338.534 853.495 338.712L855.233 348.56ZM851.739 344.192L855.376 361.828L865.17 359.808L861.533 342.172L851.739 344.192ZM858.848 356.026C857.873 356.315 856.384 356.697 854.325 357.175L856.584 366.916C858.707 366.424 860.43 365.988 861.698 365.611L858.848 356.026ZM854.309 357.178C852.617 357.576 850.472 357.866 847.825 358.007L848.356 367.993C851.407 367.831 854.171 367.484 856.6 366.913L854.309 357.178ZM847.828 358.007C842.518 358.286 838.429 357.716 835.366 356.553L831.815 365.901C836.571 367.708 842.148 368.32 848.354 367.993L847.828 358.007ZM835.398 356.565C832.402 355.404 830.383 353.696 829.046 351.495L820.499 356.687C823.102 360.97 826.962 364.02 831.784 365.889L835.398 356.565ZM829.046 351.495C827.684 349.252 826.856 346.178 826.909 341.971L816.909 341.847C816.841 347.398 817.922 352.445 820.499 356.687L829.046 351.495ZM826.909 341.909V275.455H816.909V341.909H826.909ZM876.284 387.5L877.143 382.574L877.115 382.57L877.087 382.565L876.284 387.5ZM869.42 385.727L864.639 384.264L863.275 388.721L867.626 390.394L869.42 385.727ZM874.875 367.909L876.539 363.194L871.621 361.458L870.094 366.446L874.875 367.909ZM880.511 369.318L879.891 374.28L879.902 374.281L880.511 369.318ZM884.92 368.955L883.203 364.259L883.184 364.266L883.165 364.273L884.92 368.955ZM887.602 366.364L892.198 368.333L892.198 368.333L887.602 366.364ZM888.148 365.091L892.743 367.061L893.496 365.305L892.886 363.496L888.148 365.091ZM863.602 292.182V287.182H856.643L858.864 293.777L863.602 292.182ZM889.784 292.182L894.654 291.047L893.753 287.182H889.784V292.182ZM901.057 340.545L896.187 341.68L897.088 345.545H901.057V340.545ZM901.784 340.545V345.545H905.738L906.649 341.698L901.784 340.545ZM913.239 292.182V287.182H909.285L908.373 291.029L913.239 292.182ZM939.602 292.182L944.341 293.777L946.561 287.182H939.602V292.182ZM914.148 367.818L909.409 366.223L909.405 366.236L909.401 366.248L914.148 367.818ZM908.602 378.182L904.683 375.077L904.666 375.099L904.649 375.12L908.602 378.182ZM899.148 385.5L897.068 380.953L897.068 380.953L899.148 385.5ZM884.511 383.182C881.896 383.182 879.442 382.975 877.143 382.574L875.425 392.426C878.338 392.934 881.37 393.182 884.511 393.182V383.182ZM877.087 382.565C874.74 382.183 872.797 381.669 871.215 381.061L867.626 390.394C869.984 391.301 872.616 391.969 875.481 392.435L877.087 382.565ZM874.201 387.191L879.656 369.373L870.094 366.446L864.639 384.264L874.201 387.191ZM873.211 372.624C875.521 373.44 877.756 374.013 879.891 374.28L881.132 364.357C879.873 364.199 878.35 363.833 876.539 363.194L873.211 372.624ZM879.902 374.281C882.165 374.559 884.495 374.454 886.676 373.636L883.165 364.273C882.921 364.364 882.312 364.502 881.121 364.355L879.902 374.281ZM886.638 373.65C889.241 372.698 891.138 370.806 892.198 368.333L883.007 364.394C882.985 364.445 882.973 364.459 882.981 364.448C882.99 364.435 883.012 364.406 883.049 364.37C883.086 364.334 883.126 364.304 883.161 364.282C883.196 364.26 883.214 364.255 883.203 364.259L886.638 373.65ZM892.198 368.333L892.743 367.061L883.552 363.121L883.007 364.394L892.198 368.333ZM892.886 363.496L868.341 290.587L858.864 293.777L883.409 366.686L892.886 363.496ZM863.602 297.182H889.784V287.182H863.602V297.182ZM884.915 293.317L896.187 341.68L905.926 339.41L894.654 291.047L884.915 293.317ZM901.057 345.545H901.784V335.545H901.057V345.545ZM906.649 341.698L918.104 293.334L908.373 291.029L896.919 339.393L906.649 341.698ZM913.239 297.182H939.602V287.182H913.239V297.182ZM934.863 290.587L909.409 366.223L918.887 369.413L944.341 293.777L934.863 290.587ZM909.401 366.248C908.305 369.562 906.73 372.493 904.683 375.077L912.522 381.286C915.323 377.749 917.445 373.771 918.895 369.388L909.401 366.248ZM904.649 375.12C902.798 377.51 900.316 379.467 897.068 380.953L901.227 390.047C905.797 387.957 909.618 385.036 912.555 381.243L904.649 375.12ZM897.068 380.953C894.002 382.355 889.886 383.182 884.511 383.182V393.182C890.833 393.182 896.475 392.221 901.227 390.047L897.068 380.953Z" fill="url(#paint4_linear_148_146)" mask="url(#path-5-outside-1_148_146)"/>
<path d="M63.5234 34.8515L56 54.625H64.0948L67.8088 43.9341L63.5234 34.8515Z" fill="white"/>
<path d="M74.4751 54.625L64.8566 34H72.7609L82.3794 54.625H74.4751Z" fill="white"/>
<path d="M79.1073 39.0143L76.917 34H84.5356L87.0116 39.0143H79.1073Z" fill="white"/>
<path d="M86.2498 54.625L79.4883 40.3389H87.4878L94.4398 54.625H86.2498Z" fill="white"/>
<path d="M90.882 39.0143L88.6916 34H101.643L104.024 39.0143H90.882Z" fill="white"/>
<path d="M100.405 54.625L93.8342 40.3389H101.643L108.5 54.625H100.405Z" fill="white"/>
<path d="M140.648 39.3636V35.5455H155.818V39.3636H150.568V53H145.898V39.3636H140.648ZM157.602 53V35.5455H170.181V39.3636H162.34V42.3636H169.533V46.1818H162.34V49.1818H170.147V53H157.602ZM188.827 42.0909H184.02C183.986 41.6932 183.895 41.3324 183.747 41.0085C183.605 40.6847 183.406 40.4062 183.151 40.1733C182.901 39.9347 182.597 39.7528 182.239 39.6278C181.881 39.4972 181.474 39.4318 181.02 39.4318C180.224 39.4318 179.551 39.625 179 40.0114C178.455 40.3977 178.04 40.9517 177.756 41.6733C177.477 42.3949 177.338 43.2614 177.338 44.2727C177.338 45.3409 177.48 46.2358 177.764 46.9574C178.054 47.6733 178.472 48.2131 179.017 48.5767C179.563 48.9347 180.219 49.1136 180.986 49.1136C181.423 49.1136 181.815 49.0597 182.162 48.9517C182.509 48.8381 182.81 48.6761 183.065 48.4659C183.321 48.2557 183.528 48.0028 183.688 47.7074C183.852 47.4062 183.963 47.0682 184.02 46.6932L188.827 46.7273C188.77 47.4659 188.563 48.2187 188.205 48.9858C187.847 49.7472 187.338 50.4517 186.679 51.0994C186.026 51.7415 185.216 52.2585 184.25 52.6506C183.284 53.0426 182.162 53.2386 180.884 53.2386C179.281 53.2386 177.844 52.8949 176.571 52.2074C175.304 51.5199 174.301 50.5085 173.562 49.1733C172.83 47.8381 172.463 46.2045 172.463 44.2727C172.463 42.3295 172.838 40.6932 173.588 39.3636C174.338 38.0284 175.349 37.0199 176.622 36.3381C177.895 35.6506 179.315 35.3068 180.884 35.3068C181.986 35.3068 183 35.4574 183.926 35.7585C184.852 36.0597 185.665 36.5 186.364 37.0795C187.063 37.6534 187.625 38.3608 188.051 39.2017C188.477 40.0426 188.736 41.0057 188.827 42.0909ZM190.977 53V35.5455H195.715V42.3636H201.988V35.5455H206.727V53H201.988V46.1818H195.715V53H190.977ZM224.079 35.5455V53H220.124L213.817 43.8295H213.715V53H208.977V35.5455H212.999L219.204 44.6818H219.34V35.5455H224.079ZM243.229 44.2727C243.229 46.2159 242.852 47.8551 242.096 49.1903C241.34 50.5199 240.32 51.5284 239.036 52.2159C237.752 52.8977 236.32 53.2386 234.741 53.2386C233.15 53.2386 231.712 52.8949 230.428 52.2074C229.15 51.5142 228.133 50.5028 227.377 49.1733C226.627 47.8381 226.252 46.2045 226.252 44.2727C226.252 42.3295 226.627 40.6932 227.377 39.3636C228.133 38.0284 229.15 37.0199 230.428 36.3381C231.712 35.6506 233.15 35.3068 234.741 35.3068C236.32 35.3068 237.752 35.6506 239.036 36.3381C240.32 37.0199 241.34 38.0284 242.096 39.3636C242.852 40.6932 243.229 42.3295 243.229 44.2727ZM238.354 44.2727C238.354 43.2273 238.215 42.3466 237.937 41.6307C237.664 40.9091 237.258 40.3636 236.718 39.9943C236.184 39.6193 235.525 39.4318 234.741 39.4318C233.957 39.4318 233.295 39.6193 232.755 39.9943C232.221 40.3636 231.815 40.9091 231.536 41.6307C231.263 42.3466 231.127 43.2273 231.127 44.2727C231.127 45.3182 231.263 46.2017 231.536 46.9233C231.815 47.6392 232.221 48.1847 232.755 48.5597C233.295 48.929 233.957 49.1136 234.741 49.1136C235.525 49.1136 236.184 48.929 236.718 48.5597C237.258 48.1847 237.664 47.6392 237.937 46.9233C238.215 46.2017 238.354 45.3182 238.354 44.2727ZM254.831 41C254.786 40.4318 254.572 39.9886 254.192 39.6705C253.817 39.3523 253.246 39.1932 252.479 39.1932C251.99 39.1932 251.589 39.2528 251.277 39.3722C250.97 39.4858 250.743 39.642 250.595 39.8409C250.447 40.0398 250.371 40.267 250.365 40.5227C250.354 40.733 250.391 40.9233 250.476 41.0938C250.567 41.2585 250.709 41.4091 250.902 41.5455C251.095 41.6761 251.342 41.7955 251.643 41.9034C251.945 42.0114 252.303 42.108 252.717 42.1932L254.149 42.5C255.115 42.7045 255.942 42.9744 256.629 43.3097C257.317 43.6449 257.879 44.0398 258.317 44.4943C258.754 44.9432 259.075 45.4489 259.28 46.0114C259.49 46.5739 259.598 47.1875 259.604 47.8523C259.598 49 259.311 49.9716 258.743 50.767C258.175 51.5625 257.362 52.1676 256.305 52.5824C255.254 52.9972 253.99 53.2045 252.513 53.2045C250.996 53.2045 249.672 52.9801 248.541 52.5312C247.416 52.0824 246.541 51.392 245.916 50.4602C245.297 49.5227 244.984 48.3239 244.979 46.8636H249.479C249.507 47.3977 249.641 47.8466 249.879 48.2102C250.118 48.5739 250.453 48.8494 250.885 49.0369C251.322 49.2244 251.842 49.3182 252.445 49.3182C252.95 49.3182 253.374 49.2557 253.714 49.1307C254.055 49.0057 254.314 48.8324 254.49 48.6108C254.666 48.3892 254.757 48.1364 254.763 47.8523C254.757 47.5852 254.669 47.3523 254.499 47.1534C254.334 46.9489 254.061 46.767 253.68 46.608C253.3 46.4432 252.786 46.2898 252.138 46.1477L250.399 45.7727C248.854 45.4375 247.635 44.8778 246.743 44.0938C245.857 43.304 245.416 42.2273 245.422 40.8636C245.416 39.7557 245.712 38.7869 246.308 37.9574C246.911 37.1222 247.743 36.4716 248.805 36.0057C249.874 35.5398 251.098 35.3068 252.479 35.3068C253.888 35.3068 255.107 35.5426 256.135 36.0142C257.163 36.4858 257.956 37.1506 258.513 38.0085C259.075 38.8608 259.359 39.858 259.365 41H254.831ZM261.406 53V35.5455H268.94C270.236 35.5455 271.369 35.8011 272.341 36.3125C273.313 36.8239 274.068 37.5426 274.608 38.4688C275.148 39.3949 275.418 40.4773 275.418 41.7159C275.418 42.9659 275.139 44.0483 274.582 44.9631C274.031 45.8778 273.256 46.5824 272.256 47.0767C271.261 47.571 270.099 47.8182 268.77 47.8182H264.27V44.1364H267.815C268.372 44.1364 268.847 44.0398 269.239 43.8466C269.636 43.6477 269.94 43.3665 270.151 43.0028C270.366 42.6392 270.474 42.2102 270.474 41.7159C270.474 41.2159 270.366 40.7898 270.151 40.4375C269.94 40.0795 269.636 39.8068 269.239 39.6193C268.847 39.4261 268.372 39.3295 267.815 39.3295H266.145V53H261.406ZM279.511 53H274.397L280.158 35.5455H286.636L292.397 53H287.283L283.465 40.3523H283.329L279.511 53ZM278.556 46.1136H288.17V49.6591H278.556V46.1136ZM294.078 53V35.5455H301.612C302.908 35.5455 304.041 35.7812 305.013 36.2528C305.984 36.7244 306.74 37.4034 307.28 38.2898C307.82 39.1761 308.089 40.2386 308.089 41.4773C308.089 42.7273 307.811 43.7812 307.254 44.6392C306.703 45.4972 305.928 46.1449 304.928 46.5824C303.933 47.0199 302.771 47.2386 301.442 47.2386H296.942V43.5568H300.487C301.044 43.5568 301.518 43.4886 301.911 43.3523C302.308 43.2102 302.612 42.9858 302.822 42.679C303.038 42.3722 303.146 41.9716 303.146 41.4773C303.146 40.9773 303.038 40.571 302.822 40.2585C302.612 39.9403 302.308 39.7074 301.911 39.5597C301.518 39.4062 301.044 39.3295 300.487 39.3295H298.817V53H294.078ZM304.305 44.9886L308.669 53H303.521L299.26 44.9886H304.305ZM315.189 35.5455L318.053 40.625H318.189L321.087 35.5455H326.371L321.155 44.2727L326.575 53H321.155L318.189 47.8182H318.053L315.087 53H309.7L315.053 44.2727L309.871 35.5455H315.189Z" fill="white"/>
<g opacity="0.34">
<path d="M973 173.785L1018.76 209.426L1033.9 189.98L1040.77 195.326L1046.11 188.462L1039.25 183.116L1054.4 163.669L1033.81 147.631L1036.48 144.199L1029.62 138.853L1026.94 142.285L1008.64 128.028L973 173.785ZM1115.56 -9.243L1133.87 5.01349L1131.19 8.44526L1138.06 13.7914L1140.73 10.3597L1161.32 26.3982L1176.47 6.95149L1183.33 12.2977L1188.68 5.43412L1181.82 0.0879406L1196.96 -19.3588L1151.21 -55L1115.56 -9.243ZM993.35 171.256L1011.17 148.378L1034.05 166.198L1016.23 189.077L993.35 171.256ZM1135.91 -11.7719L1153.74 -34.6504L1176.61 -16.8298L1158.79 6.04866L1135.91 -11.7719ZM1034.96 131.989L1041.83 137.335L1052.52 123.608L1045.66 118.262L1034.96 131.989ZM1051 111.399L1057.87 116.745L1068.56 103.018L1061.69 97.6714L1051 111.399ZM1067.04 90.8079L1073.9 96.1541L1084.6 82.427L1077.73 77.0808L1067.04 90.8079ZM1083.08 70.2172L1089.94 75.5634L1100.63 61.8363L1093.77 56.4901L1083.08 70.2172ZM1099.12 49.6266L1105.98 54.9728L1116.67 41.2457L1109.81 35.8995L1099.12 49.6266ZM1115.16 29.0359L1122.02 34.3821L1132.71 20.655L1125.85 15.3088L1115.16 29.0359ZM1047.63 200.672L1061.36 211.364L1066.7 204.501L1052.98 193.808L1047.63 200.672ZM1190.2 17.6439L1203.92 28.3362L1209.27 21.4727L1195.54 10.7803L1190.2 17.6439ZM1068.22 216.71L1081.95 227.403L1087.3 220.539L1073.57 209.847L1068.22 216.71ZM1210.79 33.6824L1224.51 44.3748L1229.86 37.5112L1216.13 26.8189L1210.79 33.6824ZM1088.81 232.749L1102.54 243.441L1107.89 236.578L1094.16 225.885L1088.81 232.749ZM1231.38 49.721L1245.1 60.4133L1250.45 53.5498L1236.72 42.8574L1231.38 49.721ZM1109.4 248.788L1123.13 259.48L1128.48 252.616L1114.75 241.924L1109.4 248.788ZM1251.97 65.7595L1265.7 76.4519L1271.04 69.5883L1257.31 58.896L1251.97 65.7595ZM1129.99 264.826L1136.86 270.172L1121.71 289.619L1167.47 325.26L1203.11 279.503L1184.81 265.247L1187.48 261.815L1180.62 256.469L1177.94 259.901L1157.35 243.862L1142.2 263.309L1135.34 257.963L1129.99 264.826ZM1272.56 81.798L1279.42 87.1442L1264.28 106.591L1284.87 122.63L1282.19 126.061L1289.06 131.407L1291.73 127.976L1310.03 142.232L1345.67 96.4752L1299.92 60.834L1284.77 80.2807L1277.91 74.9345L1272.56 81.798ZM1142.06 287.09L1159.88 264.212L1182.76 282.032L1164.94 304.911L1142.06 287.09ZM1284.62 104.062L1302.45 81.1835L1325.32 99.0041L1307.5 121.883L1284.62 104.062ZM1185.96 249.605L1192.82 254.951L1203.52 241.224L1196.65 235.878L1185.96 249.605ZM1202 229.015L1208.86 234.361L1219.56 220.634L1212.69 215.287L1202 229.015ZM1218.04 208.424L1224.9 213.77L1235.59 200.043L1228.73 194.697L1218.04 208.424ZM1234.08 187.833L1240.94 193.179L1251.63 179.452L1244.77 174.106L1234.08 187.833ZM1250.12 167.243L1256.98 172.589L1267.67 158.862L1260.81 153.515L1250.12 167.243ZM1266.15 146.652L1273.02 151.998L1283.71 138.271L1276.85 132.925L1266.15 146.652Z" fill="url(#paint5_linear_148_146)"/>
</g>
<g opacity="0.24" clip-path="url(#clip1_148_146)">
<path d="M95.6435 435.516H59.5156V471.644H95.6435V435.516Z" fill="#F54007"/>
<path d="M333.484 435.516H297.356V471.644H333.484V435.516Z" fill="#F54007"/>
<path d="M315.42 500.248C317.914 500.248 319.936 498.226 319.936 495.732V476.16H333.484C335.978 476.16 338 474.138 338 471.644V435.516C338 433.021 335.978 431 333.484 431H297.356C294.862 431 292.84 433.021 292.84 435.516V449.064H100.16V435.516C100.16 433.021 98.1376 431 95.6437 431H59.5158C57.0219 431 55 433.021 55 435.516V471.644C55 474.138 57.0219 476.16 59.5158 476.16H73.0639V668.84H59.5158C57.0219 668.84 55 670.862 55 673.356V709.484C55 711.979 57.0219 714 59.5158 714H95.6437C98.1376 714 100.16 711.979 100.16 709.484V695.936H292.84V709.484C292.84 711.979 294.862 714 297.356 714H333.484C335.978 714 338 711.979 338 709.484V673.356C338 670.862 335.978 668.84 333.484 668.84H319.936V513.796C319.936 511.301 317.914 509.28 315.42 509.28C312.926 509.28 310.904 511.301 310.904 513.796V668.84H297.356C294.862 668.84 292.84 670.862 292.84 673.356V686.904H100.16V673.356C100.16 670.862 98.1376 668.84 95.6437 668.84H82.0956V476.16H95.6437C98.1376 476.16 100.16 474.138 100.16 471.644V458.096H292.84V471.644C292.84 474.138 294.862 476.16 297.356 476.16H310.904V495.732C310.904 498.226 312.926 500.248 315.42 500.248ZM301.872 677.872H328.968V704.968H301.872V677.872ZM91.1278 704.968H64.0317V677.873H91.1273L91.1278 704.968ZM91.1278 467.128H64.0317V440.032H91.1273L91.1278 467.128ZM301.872 440.032H328.968V467.127H301.872V440.032Z" fill="url(#paint6_linear_148_146)"/>
<path d="M187.469 625.562H119.729C117.235 625.562 115.213 627.584 115.213 630.078C115.213 632.573 117.235 634.594 119.729 634.594H187.469C189.962 634.594 191.984 632.573 191.984 630.078C191.984 627.584 189.962 625.562 187.469 625.562Z" fill="url(#paint7_linear_148_146)"/>
<path d="M273.271 625.562H205.531C203.038 625.562 201.016 627.584 201.016 630.078C201.016 632.573 203.038 634.594 205.531 634.594H273.271C275.765 634.594 277.787 632.573 277.787 630.078C277.787 627.584 275.765 625.562 273.271 625.562Z" fill="url(#paint8_linear_148_146)"/>
<path d="M187.469 606.37H119.729C117.235 606.37 115.213 608.391 115.213 610.886C115.213 613.38 117.235 615.402 119.729 615.402H187.469C189.962 615.402 191.984 613.38 191.984 610.886C191.984 608.391 189.962 606.37 187.469 606.37Z" fill="url(#paint9_linear_148_146)"/>
<path d="M273.271 606.37H205.531C203.038 606.37 201.016 608.391 201.016 610.886C201.016 613.38 203.038 615.402 205.531 615.402H273.271C275.765 615.402 277.787 613.38 277.787 610.886C277.787 608.391 275.765 606.37 273.271 606.37Z" fill="url(#paint10_linear_148_146)"/>
<path d="M273.272 587.176H119.729C117.235 587.176 115.213 589.198 115.213 591.692C115.213 594.187 117.235 596.208 119.729 596.208H273.271C275.765 596.208 277.787 594.187 277.787 591.692C277.788 589.198 275.766 587.176 273.272 587.176Z" fill="url(#paint11_linear_148_146)"/>
<path d="M277.528 573.993C277.557 573.911 277.585 573.828 277.609 573.743C277.628 573.675 277.645 573.607 277.662 573.539C277.679 573.467 277.695 573.396 277.708 573.324C277.724 573.241 277.736 573.157 277.746 573.074C277.754 573.013 277.762 572.953 277.767 572.891C277.775 572.796 277.779 572.702 277.781 572.608C277.782 572.572 277.787 572.536 277.787 572.499V495.732C277.787 495.695 277.782 495.66 277.781 495.623C277.779 495.529 277.775 495.435 277.767 495.34C277.761 495.279 277.753 495.218 277.746 495.157C277.735 495.074 277.724 494.991 277.708 494.908C277.695 494.835 277.679 494.763 277.662 494.692C277.646 494.624 277.628 494.556 277.609 494.488C277.585 494.403 277.557 494.32 277.528 494.238C277.509 494.184 277.49 494.129 277.469 494.075C277.432 493.982 277.392 493.892 277.349 493.803C277.335 493.773 277.324 493.742 277.309 493.713C277.301 493.697 277.291 493.682 277.282 493.666C277.238 493.579 277.189 493.495 277.139 493.411C277.11 493.363 277.081 493.312 277.051 493.265C277.006 493.197 276.957 493.131 276.909 493.065C276.868 493.008 276.827 492.95 276.782 492.896C276.741 492.844 276.696 492.796 276.653 492.746C276.598 492.685 276.544 492.622 276.486 492.563C276.445 492.521 276.401 492.483 276.359 492.443C276.296 492.383 276.232 492.323 276.166 492.268C276.117 492.227 276.066 492.19 276.016 492.152C275.953 492.104 275.89 492.054 275.825 492.009C275.76 491.964 275.691 491.924 275.624 491.883C275.57 491.85 275.518 491.815 275.463 491.785C275.38 491.739 275.293 491.698 275.206 491.657C275.164 491.637 275.122 491.614 275.079 491.596C274.986 491.555 274.891 491.52 274.796 491.486C274.755 491.471 274.714 491.454 274.673 491.441C274.583 491.412 274.491 491.387 274.399 491.364C274.347 491.351 274.296 491.336 274.244 491.324C274.165 491.307 274.084 491.294 274.003 491.281C273.934 491.27 273.864 491.258 273.795 491.249C273.728 491.241 273.661 491.237 273.594 491.232C273.507 491.226 273.421 491.22 273.334 491.219C273.312 491.219 273.291 491.216 273.269 491.216H119.728C119.709 491.216 119.69 491.218 119.672 491.219C119.577 491.22 119.484 491.226 119.39 491.233C119.33 491.237 119.269 491.241 119.209 491.248C119.133 491.257 119.057 491.27 118.982 491.283C118.906 491.296 118.832 491.307 118.758 491.323C118.701 491.336 118.644 491.352 118.588 491.366C118.5 491.389 118.412 491.412 118.327 491.44C118.282 491.454 118.239 491.472 118.194 491.488C118.101 491.522 118.008 491.555 117.918 491.595C117.875 491.614 117.833 491.636 117.79 491.656C117.704 491.697 117.617 491.739 117.533 491.785C117.48 491.815 117.43 491.848 117.378 491.88C117.308 491.922 117.238 491.963 117.171 492.01C117.108 492.053 117.048 492.1 116.987 492.147C116.934 492.187 116.88 492.226 116.829 492.269C116.765 492.323 116.705 492.381 116.643 492.437C116.598 492.479 116.551 492.52 116.508 492.565C116.453 492.621 116.4 492.681 116.347 492.741C116.301 492.793 116.255 492.843 116.212 492.897C116.169 492.95 116.129 493.006 116.089 493.06C116.04 493.128 115.99 493.195 115.944 493.265C115.914 493.312 115.885 493.36 115.856 493.408C115.806 493.492 115.757 493.577 115.712 493.663C115.704 493.679 115.694 493.694 115.686 493.71C115.671 493.74 115.66 493.771 115.646 493.801C115.603 493.89 115.563 493.981 115.526 494.073C115.505 494.127 115.486 494.181 115.466 494.236C115.437 494.318 115.41 494.401 115.385 494.486C115.366 494.554 115.35 494.622 115.333 494.69C115.316 494.762 115.3 494.833 115.287 494.905C115.271 494.988 115.259 495.072 115.248 495.155C115.241 495.216 115.233 495.276 115.227 495.338C115.219 495.433 115.215 495.527 115.213 495.621C115.212 495.657 115.208 495.693 115.208 495.73V572.497C115.208 572.534 115.212 572.569 115.213 572.606C115.215 572.7 115.219 572.794 115.227 572.889C115.233 572.95 115.241 573.011 115.248 573.072C115.259 573.155 115.271 573.238 115.287 573.321C115.3 573.394 115.316 573.466 115.333 573.537C115.349 573.605 115.366 573.673 115.385 573.741C115.41 573.826 115.437 573.909 115.466 573.991C115.486 574.045 115.504 574.1 115.526 574.154C115.562 574.247 115.603 574.337 115.645 574.426C115.66 574.456 115.67 574.486 115.685 574.516C115.691 574.528 115.699 574.538 115.706 574.551C115.796 574.725 115.895 574.895 116.005 575.056C116.024 575.083 116.045 575.109 116.065 575.136C116.156 575.262 116.253 575.382 116.356 575.498C116.394 575.541 116.431 575.583 116.471 575.624C116.594 575.752 116.722 575.875 116.86 575.988C116.886 576.009 116.914 576.028 116.94 576.049C117.061 576.144 117.188 576.232 117.318 576.315C117.362 576.342 117.405 576.369 117.448 576.394C117.595 576.48 117.745 576.558 117.9 576.627C117.913 576.633 117.925 576.639 117.937 576.645C118.109 576.719 118.287 576.781 118.469 576.833C118.508 576.845 118.547 576.853 118.586 576.863C118.727 576.9 118.87 576.93 119.016 576.953C119.069 576.961 119.12 576.97 119.173 576.977C119.337 576.997 119.503 577.01 119.673 577.011C119.691 577.012 119.709 577.015 119.728 577.015C119.734 577.015 119.742 577.014 119.748 577.014H273.243C273.25 577.014 273.256 577.015 273.263 577.015C273.281 577.015 273.299 577.011 273.318 577.011C273.487 577.01 273.654 576.997 273.818 576.977C273.87 576.97 273.922 576.962 273.974 576.954C274.12 576.931 274.264 576.901 274.405 576.864C274.444 576.854 274.483 576.846 274.521 576.835C274.703 576.782 274.882 576.721 275.054 576.646C275.065 576.641 275.076 576.635 275.088 576.63C275.244 576.561 275.395 576.481 275.542 576.396C275.585 576.37 275.628 576.344 275.671 576.317C275.802 576.234 275.929 576.146 276.05 576.05C276.076 576.029 276.104 576.011 276.129 575.99C276.267 575.877 276.396 575.754 276.52 575.626C276.559 575.585 276.595 575.543 276.634 575.5C276.736 575.385 276.834 575.264 276.925 575.138C276.944 575.111 276.966 575.086 276.985 575.059C277.095 574.898 277.194 574.729 277.284 574.553C277.29 574.541 277.298 574.531 277.305 574.519C277.32 574.489 277.33 574.458 277.344 574.428C277.386 574.339 277.427 574.249 277.464 574.157C277.491 574.102 277.51 574.048 277.528 573.993ZM124.245 503.038L186.402 534.115L124.245 565.192V503.038ZM138.858 500.248H254.14L196.5 529.067L138.858 500.248ZM196.5 539.165L254.141 567.984H138.858L196.5 539.165ZM206.598 534.115L268.755 503.038V565.193L206.598 534.115Z" fill="url(#paint12_linear_148_146)"/>
</g>
</g>
<defs>
<linearGradient id="paint0_linear_148_146" x1="-63.757" y1="-34.0071" x2="-63.757" y2="347.166" gradientUnits="userSpaceOnUse">
<stop stop-color="#FF9E0B"/>
<stop offset="1" stop-color="#EC4899"/>
</linearGradient>
<linearGradient id="paint1_linear_148_146" x1="1173" y1="695.827" x2="1173" y2="969.442" gradientUnits="userSpaceOnUse">
<stop stop-color="#FF9E0B"/>
<stop offset="1" stop-color="#F24E52"/>
</linearGradient>
<linearGradient id="paint2_linear_148_146" x1="882.5" y1="530" x2="882.5" y2="919" gradientUnits="userSpaceOnUse">
<stop stop-color="#FF9E0B"/>
<stop offset="1" stop-color="#9C67E7"/>
</linearGradient>
<linearGradient id="paint3_linear_148_146" x1="491" y1="30" x2="491" y2="162" gradientUnits="userSpaceOnUse">
<stop stop-color="#FF9E0B"/>
<stop offset="1" stop-color="#DA46EB"/>
</linearGradient>
<linearGradient id="paint4_linear_148_146" x1="600" y1="238" x2="600" y2="393" gradientUnits="userSpaceOnUse">
<stop stop-color="#FF9E0B"/>
<stop offset="0.49" stop-color="#F24E52"/>
</linearGradient>
<linearGradient id="paint5_linear_148_146" x1="1062.1" y1="59.3925" x2="1256.57" y2="210.868" gradientUnits="userSpaceOnUse">
<stop stop-color="#F24E52"/>
<stop offset="1" stop-color="#FF9E0B"/>
</linearGradient>
<linearGradient id="paint6_linear_148_146" x1="196.5" y1="431" x2="196.5" y2="714" gradientUnits="userSpaceOnUse">
<stop stop-color="#DA46EB"/>
<stop offset="1" stop-color="#FF9E0B"/>
</linearGradient>
<linearGradient id="paint7_linear_148_146" x1="153.599" y1="625.562" x2="153.599" y2="634.594" gradientUnits="userSpaceOnUse">
<stop stop-color="#DA46EB"/>
<stop offset="1" stop-color="#FF9E0B"/>
</linearGradient>
<linearGradient id="paint8_linear_148_146" x1="239.401" y1="625.562" x2="239.401" y2="634.594" gradientUnits="userSpaceOnUse">
<stop stop-color="#DA46EB"/>
<stop offset="1" stop-color="#FF9E0B"/>
</linearGradient>
<linearGradient id="paint9_linear_148_146" x1="153.599" y1="606.37" x2="153.599" y2="615.402" gradientUnits="userSpaceOnUse">
<stop stop-color="#DA46EB"/>
<stop offset="1" stop-color="#FF9E0B"/>
</linearGradient>
<linearGradient id="paint10_linear_148_146" x1="239.401" y1="606.37" x2="239.401" y2="615.402" gradientUnits="userSpaceOnUse">
<stop stop-color="#DA46EB"/>
<stop offset="1" stop-color="#FF9E0B"/>
</linearGradient>
<linearGradient id="paint11_linear_148_146" x1="196.5" y1="587.176" x2="196.5" y2="596.208" gradientUnits="userSpaceOnUse">
<stop stop-color="#DA46EB"/>
<stop offset="1" stop-color="#FF9E0B"/>
</linearGradient>
<linearGradient id="paint12_linear_148_146" x1="196.497" y1="491.216" x2="196.497" y2="577.015" gradientUnits="userSpaceOnUse">
<stop stop-color="#DA46EB"/>
<stop offset="1" stop-color="#FF9E0B"/>
</linearGradient>
<clipPath id="clip0_148_146">
<rect width="1200" height="630" fill="white"/>
</clipPath>
<clipPath id="clip1_148_146">
<rect width="283" height="283" fill="white" transform="translate(55 431)"/>
</clipPath>
</defs>
</svg>
