<svg width="1200" height="630" viewBox="0 0 1200 630" fill="none" xmlns="http://www.w3.org/2000/svg">
<g clip-path="url(#clip0_148_216)">
<rect width="1200" height="630" fill="black"/>
<rect x="-427.809" y="-32.4841" width="729.486" height="376.173" transform="rotate(-19.4848 -427.809 -32.4841)" stroke="url(#paint0_linear_148_216)" stroke-width="5"/>
<rect x="883" y="695.827" width="580" height="273.616" transform="rotate(-35.26 883 695.827)" fill="url(#paint1_linear_148_216)"/>
<circle cx="882.5" cy="724.5" r="193" stroke="url(#paint2_linear_148_216)" stroke-width="3"/>
<path opacity="0.49" d="M415 58.3636C414.121 58.3636 413.367 58.0568 412.739 57.4432C412.117 56.822 411.811 56.0682 411.818 55.1818C411.811 54.3182 412.117 53.5795 412.739 52.9659C413.367 52.3523 414.121 52.0455 415 52.0455C415.833 52.0455 416.568 52.3523 417.205 52.9659C417.848 53.5795 418.174 54.3182 418.182 55.1818C418.174 55.7727 418.019 56.3106 417.716 56.7955C417.42 57.2727 417.034 57.6553 416.557 57.9432C416.08 58.2235 415.561 58.3636 415 58.3636ZM459.003 58.3636C458.124 58.3636 457.37 58.0568 456.741 57.4432C456.12 56.822 455.813 56.0682 455.821 55.1818C455.813 54.3182 456.12 53.5795 456.741 52.9659C457.37 52.3523 458.124 52.0455 459.003 52.0455C459.836 52.0455 460.571 52.3523 461.207 52.9659C461.851 53.5795 462.177 54.3182 462.184 55.1818C462.177 55.7727 462.021 56.3106 461.718 56.7955C461.423 57.2727 461.037 57.6553 460.559 57.9432C460.082 58.2235 459.563 58.3636 459.003 58.3636ZM503.005 58.3636C502.126 58.3636 501.372 58.0568 500.744 57.4432C500.122 56.822 499.816 56.0682 499.823 55.1818C499.816 54.3182 500.122 53.5795 500.744 52.9659C501.372 52.3523 502.126 52.0455 503.005 52.0455C503.838 52.0455 504.573 52.3523 505.21 52.9659C505.853 53.5795 506.179 54.3182 506.187 55.1818C506.179 55.7727 506.024 56.3106 505.721 56.7955C505.425 57.2727 505.039 57.6553 504.562 57.9432C504.085 58.2235 503.566 58.3636 503.005 58.3636ZM547.008 58.3636C546.129 58.3636 545.375 58.0568 544.746 57.4432C544.125 56.822 543.818 56.0682 543.826 55.1818C543.818 54.3182 544.125 53.5795 544.746 52.9659C545.375 52.3523 546.129 52.0455 547.008 52.0455C547.841 52.0455 548.576 52.3523 549.212 52.9659C549.856 53.5795 550.182 54.3182 550.189 55.1818C550.182 55.7727 550.026 56.3106 549.723 56.7955C549.428 57.2727 549.042 57.6553 548.564 57.9432C548.087 58.2235 547.568 58.3636 547.008 58.3636ZM415 91.3636C414.121 91.3636 413.367 91.0568 412.739 90.4432C412.117 89.822 411.811 89.0682 411.818 88.1818C411.811 87.3182 412.117 86.5795 412.739 85.9659C413.367 85.3523 414.121 85.0455 415 85.0455C415.833 85.0455 416.568 85.3523 417.205 85.9659C417.848 86.5795 418.174 87.3182 418.182 88.1818C418.174 88.7727 418.019 89.3106 417.716 89.7955C417.42 90.2727 417.034 90.6553 416.557 90.9432C416.08 91.2235 415.561 91.3636 415 91.3636ZM459.003 91.3636C458.124 91.3636 457.37 91.0568 456.741 90.4432C456.12 89.822 455.813 89.0682 455.821 88.1818C455.813 87.3182 456.12 86.5795 456.741 85.9659C457.37 85.3523 458.124 85.0455 459.003 85.0455C459.836 85.0455 460.571 85.3523 461.207 85.9659C461.851 86.5795 462.177 87.3182 462.184 88.1818C462.177 88.7727 462.021 89.3106 461.718 89.7955C461.423 90.2727 461.037 90.6553 460.559 90.9432C460.082 91.2235 459.563 91.3636 459.003 91.3636ZM503.005 91.3636C502.126 91.3636 501.372 91.0568 500.744 90.4432C500.122 89.822 499.816 89.0682 499.823 88.1818C499.816 87.3182 500.122 86.5795 500.744 85.9659C501.372 85.3523 502.126 85.0455 503.005 85.0455C503.838 85.0455 504.573 85.3523 505.21 85.9659C505.853 86.5795 506.179 87.3182 506.187 88.1818C506.179 88.7727 506.024 89.3106 505.721 89.7955C505.425 90.2727 505.039 90.6553 504.562 90.9432C504.085 91.2235 503.566 91.3636 503.005 91.3636ZM547.008 91.3636C546.129 91.3636 545.375 91.0568 544.746 90.4432C544.125 89.822 543.818 89.0682 543.826 88.1818C543.818 87.3182 544.125 86.5795 544.746 85.9659C545.375 85.3523 546.129 85.0455 547.008 85.0455C547.841 85.0455 548.576 85.3523 549.212 85.9659C549.856 86.5795 550.182 87.3182 550.189 88.1818C550.182 88.7727 550.026 89.3106 549.723 89.7955C549.428 90.2727 549.042 90.6553 548.564 90.9432C548.087 91.2235 547.568 91.3636 547.008 91.3636ZM415 124.364C414.121 124.364 413.367 124.057 412.739 123.443C412.117 122.822 411.811 122.068 411.818 121.182C411.811 120.318 412.117 119.58 412.739 118.966C413.367 118.352 414.121 118.045 415 118.045C415.833 118.045 416.568 118.352 417.205 118.966C417.848 119.58 418.174 120.318 418.182 121.182C418.174 121.773 418.019 122.311 417.716 122.795C417.42 123.273 417.034 123.655 416.557 123.943C416.08 124.223 415.561 124.364 415 124.364ZM459.003 124.364C458.124 124.364 457.37 124.057 456.741 123.443C456.12 122.822 455.813 122.068 455.821 121.182C455.813 120.318 456.12 119.58 456.741 118.966C457.37 118.352 458.124 118.045 459.003 118.045C459.836 118.045 460.571 118.352 461.207 118.966C461.851 119.58 462.177 120.318 462.184 121.182C462.177 121.773 462.021 122.311 461.718 122.795C461.423 123.273 461.037 123.655 460.559 123.943C460.082 124.223 459.563 124.364 459.003 124.364ZM503.005 124.364C502.126 124.364 501.372 124.057 500.744 123.443C500.122 122.822 499.816 122.068 499.823 121.182C499.816 120.318 500.122 119.58 500.744 118.966C501.372 118.352 502.126 118.045 503.005 118.045C503.838 118.045 504.573 118.352 505.21 118.966C505.853 119.58 506.179 120.318 506.187 121.182C506.179 121.773 506.024 122.311 505.721 122.795C505.425 123.273 505.039 123.655 504.562 123.943C504.085 124.223 503.566 124.364 503.005 124.364ZM547.008 124.364C546.129 124.364 545.375 124.057 544.746 123.443C544.125 122.822 543.818 122.068 543.826 121.182C543.818 120.318 544.125 119.58 544.746 118.966C545.375 118.352 546.129 118.045 547.008 118.045C547.841 118.045 548.576 118.352 549.212 118.966C549.856 119.58 550.182 120.318 550.189 121.182C550.182 121.773 550.026 122.311 549.723 122.795C549.428 123.273 549.042 123.655 548.564 123.943C548.087 124.223 547.568 124.364 547.008 124.364ZM415 157.364C414.121 157.364 413.367 157.057 412.739 156.443C412.117 155.822 411.811 155.068 411.818 154.182C411.811 153.318 412.117 152.58 412.739 151.966C413.367 151.352 414.121 151.045 415 151.045C415.833 151.045 416.568 151.352 417.205 151.966C417.848 152.58 418.174 153.318 418.182 154.182C418.174 154.773 418.019 155.311 417.716 155.795C417.42 156.273 417.034 156.655 416.557 156.943C416.08 157.223 415.561 157.364 415 157.364ZM459.003 157.364C458.124 157.364 457.37 157.057 456.741 156.443C456.12 155.822 455.813 155.068 455.821 154.182C455.813 153.318 456.12 152.58 456.741 151.966C457.37 151.352 458.124 151.045 459.003 151.045C459.836 151.045 460.571 151.352 461.207 151.966C461.851 152.58 462.177 153.318 462.184 154.182C462.177 154.773 462.021 155.311 461.718 155.795C461.423 156.273 461.037 156.655 460.559 156.943C460.082 157.223 459.563 157.364 459.003 157.364ZM503.005 157.364C502.126 157.364 501.372 157.057 500.744 156.443C500.122 155.822 499.816 155.068 499.823 154.182C499.816 153.318 500.122 152.58 500.744 151.966C501.372 151.352 502.126 151.045 503.005 151.045C503.838 151.045 504.573 151.352 505.21 151.966C505.853 152.58 506.179 153.318 506.187 154.182C506.179 154.773 506.024 155.311 505.721 155.795C505.425 156.273 505.039 156.655 504.562 156.943C504.085 157.223 503.566 157.364 503.005 157.364ZM547.008 157.364C546.129 157.364 545.375 157.057 544.746 156.443C544.125 155.822 543.818 155.068 543.826 154.182C543.818 153.318 544.125 152.58 544.746 151.966C545.375 151.352 546.129 151.045 547.008 151.045C547.841 151.045 548.576 151.352 549.212 151.966C549.856 152.58 550.182 153.318 550.189 154.182C550.182 154.773 550.026 155.311 549.723 155.795C549.428 156.273 549.042 156.655 548.564 156.943C548.087 157.223 547.568 157.364 547.008 157.364Z" fill="url(#paint3_linear_148_216)"/>
<mask id="path-5-outside-1_148_216" maskUnits="userSpaceOnUse" x="175" y="262" width="850" height="107" fill="black">
<rect fill="white" x="175" y="262" width="850" height="107"/>
<path d="M233.182 298C232.939 294.97 231.803 292.606 229.773 290.909C227.773 289.212 224.727 288.364 220.636 288.364C218.03 288.364 215.894 288.682 214.227 289.318C212.591 289.924 211.379 290.758 210.591 291.818C209.803 292.879 209.394 294.091 209.364 295.455C209.303 296.576 209.5 297.591 209.955 298.5C210.439 299.379 211.197 300.182 212.227 300.909C213.258 301.606 214.576 302.242 216.182 302.818C217.788 303.394 219.697 303.909 221.909 304.364L229.545 306C234.697 307.091 239.106 308.53 242.773 310.318C246.439 312.106 249.439 314.212 251.773 316.636C254.106 319.03 255.818 321.727 256.909 324.727C258.03 327.727 258.606 331 258.636 334.545C258.606 340.667 257.076 345.848 254.045 350.091C251.015 354.333 246.682 357.561 241.045 359.773C235.439 361.985 228.697 363.091 220.818 363.091C212.727 363.091 205.667 361.894 199.636 359.5C193.636 357.106 188.97 353.424 185.636 348.455C182.333 343.455 180.667 337.061 180.636 329.273H204.636C204.788 332.121 205.5 334.515 206.773 336.455C208.045 338.394 209.833 339.864 212.136 340.864C214.47 341.864 217.242 342.364 220.455 342.364C223.152 342.364 225.409 342.03 227.227 341.364C229.045 340.697 230.424 339.773 231.364 338.591C232.303 337.409 232.788 336.061 232.818 334.545C232.788 333.121 232.318 331.879 231.409 330.818C230.53 329.727 229.076 328.758 227.045 327.909C225.015 327.03 222.273 326.212 218.818 325.455L209.545 323.455C201.303 321.667 194.803 318.682 190.045 314.5C185.318 310.288 182.97 304.545 183 297.273C182.97 291.364 184.545 286.197 187.727 281.773C190.939 277.318 195.379 273.848 201.045 271.364C206.742 268.879 213.273 267.636 220.636 267.636C228.152 267.636 234.652 268.894 240.136 271.409C245.621 273.924 249.848 277.47 252.818 282.045C255.818 286.591 257.333 291.909 257.364 298H233.182ZM293.705 322.727V362H268.614V268.909H292.795V305.455H293.523C295.098 301 297.72 297.53 301.386 295.045C305.053 292.53 309.462 291.273 314.614 291.273C319.553 291.273 323.841 292.394 327.477 294.636C331.144 296.879 333.977 299.97 335.977 303.909C338.008 307.848 339.008 312.364 338.977 317.455V362H313.886V322.727C313.917 319.273 313.053 316.561 311.295 314.591C309.568 312.621 307.098 311.636 303.886 311.636C301.856 311.636 300.068 312.091 298.523 313C297.008 313.879 295.826 315.152 294.977 316.818C294.159 318.455 293.735 320.424 293.705 322.727ZM384.818 363.273C377.364 363.273 370.939 361.848 365.545 359C360.182 356.121 356.045 352 353.136 346.636C350.258 341.242 348.818 334.788 348.818 327.273C348.818 320.061 350.273 313.758 353.182 308.364C356.091 302.97 360.197 298.773 365.5 295.773C370.803 292.773 377.061 291.273 384.273 291.273C389.545 291.273 394.318 292.091 398.591 293.727C402.864 295.364 406.515 297.742 409.545 300.864C412.576 303.955 414.909 307.712 416.545 312.136C418.182 316.561 419 321.545 419 327.091V332.909H356.636V319.091H395.909C395.879 317.091 395.364 315.333 394.364 313.818C393.394 312.273 392.076 311.076 390.409 310.227C388.773 309.348 386.909 308.909 384.818 308.909C382.788 308.909 380.924 309.348 379.227 310.227C377.53 311.076 376.167 312.258 375.136 313.773C374.136 315.288 373.606 317.061 373.545 319.091V334C373.545 336.242 374.015 338.242 374.955 340C375.894 341.758 377.242 343.136 379 344.136C380.758 345.136 382.879 345.636 385.364 345.636C387.091 345.636 388.667 345.394 390.091 344.909C391.545 344.424 392.788 343.727 393.818 342.818C394.848 341.879 395.606 340.758 396.091 339.455H419C418.212 344.303 416.348 348.515 413.409 352.091C410.47 355.636 406.576 358.394 401.727 360.364C396.909 362.303 391.273 363.273 384.818 363.273ZM454.33 268.909V362H429.239V268.909H454.33ZM492.205 268.909V362H467.114V268.909H492.205ZM554.807 298C554.564 294.97 553.428 292.606 551.398 290.909C549.398 289.212 546.352 288.364 542.261 288.364C539.655 288.364 537.519 288.682 535.852 289.318C534.216 289.924 533.004 290.758 532.216 291.818C531.428 292.879 531.019 294.091 530.989 295.455C530.928 296.576 531.125 297.591 531.58 298.5C532.064 299.379 532.822 300.182 533.852 300.909C534.883 301.606 536.201 302.242 537.807 302.818C539.413 303.394 541.322 303.909 543.534 304.364L551.17 306C556.322 307.091 560.731 308.53 564.398 310.318C568.064 312.106 571.064 314.212 573.398 316.636C575.731 319.03 577.443 321.727 578.534 324.727C579.655 327.727 580.231 331 580.261 334.545C580.231 340.667 578.701 345.848 575.67 350.091C572.64 354.333 568.307 357.561 562.67 359.773C557.064 361.985 550.322 363.091 542.443 363.091C534.352 363.091 527.292 361.894 521.261 359.5C515.261 357.106 510.595 353.424 507.261 348.455C503.958 343.455 502.292 337.061 502.261 329.273H526.261C526.413 332.121 527.125 334.515 528.398 336.455C529.67 338.394 531.458 339.864 533.761 340.864C536.095 341.864 538.867 342.364 542.08 342.364C544.777 342.364 547.034 342.03 548.852 341.364C550.67 340.697 552.049 339.773 552.989 338.591C553.928 337.409 554.413 336.061 554.443 334.545C554.413 333.121 553.943 331.879 553.034 330.818C552.155 329.727 550.701 328.758 548.67 327.909C546.64 327.03 543.898 326.212 540.443 325.455L531.17 323.455C522.928 321.667 516.428 318.682 511.67 314.5C506.943 310.288 504.595 304.545 504.625 297.273C504.595 291.364 506.17 286.197 509.352 281.773C512.564 277.318 517.004 273.848 522.67 271.364C528.367 268.879 534.898 267.636 542.261 267.636C549.777 267.636 556.277 268.894 561.761 271.409C567.246 273.924 571.473 277.47 574.443 282.045C577.443 286.591 578.958 291.909 578.989 298H554.807ZM623.693 363.273C616.239 363.273 609.814 361.848 604.42 359C599.057 356.121 594.92 352 592.011 346.636C589.133 341.242 587.693 334.788 587.693 327.273C587.693 320.061 589.148 313.758 592.057 308.364C594.966 302.97 599.072 298.773 604.375 295.773C609.678 292.773 615.936 291.273 623.148 291.273C628.42 291.273 633.193 292.091 637.466 293.727C641.739 295.364 645.39 297.742 648.42 300.864C651.451 303.955 653.784 307.712 655.42 312.136C657.057 316.561 657.875 321.545 657.875 327.091V332.909H595.511V319.091H634.784C634.754 317.091 634.239 315.333 633.239 313.818C632.269 312.273 630.951 311.076 629.284 310.227C627.648 309.348 625.784 308.909 623.693 308.909C621.663 308.909 619.799 309.348 618.102 310.227C616.405 311.076 615.042 312.258 614.011 313.773C613.011 315.288 612.481 317.061 612.42 319.091V334C612.42 336.242 612.89 338.242 613.83 340C614.769 341.758 616.117 343.136 617.875 344.136C619.633 345.136 621.754 345.636 624.239 345.636C625.966 345.636 627.542 345.394 628.966 344.909C630.42 344.424 631.663 343.727 632.693 342.818C633.723 341.879 634.481 340.758 634.966 339.455H657.875C657.087 344.303 655.223 348.515 652.284 352.091C649.345 355.636 645.451 358.394 640.602 360.364C635.784 362.303 630.148 363.273 623.693 363.273ZM701.568 363.273C694.114 363.273 687.689 361.848 682.295 359C676.932 356.121 672.795 352 669.886 346.636C667.008 341.242 665.568 334.788 665.568 327.273C665.568 320.061 667.023 313.758 669.932 308.364C672.841 302.97 676.947 298.773 682.25 295.773C687.553 292.773 693.811 291.273 701.023 291.273C706.295 291.273 711.068 292.091 715.341 293.727C719.614 295.364 723.265 297.742 726.295 300.864C729.326 303.955 731.659 307.712 733.295 312.136C734.932 316.561 735.75 321.545 735.75 327.091V332.909H673.386V319.091H712.659C712.629 317.091 712.114 315.333 711.114 313.818C710.144 312.273 708.826 311.076 707.159 310.227C705.523 309.348 703.659 308.909 701.568 308.909C699.538 308.909 697.674 309.348 695.977 310.227C694.28 311.076 692.917 312.258 691.886 313.773C690.886 315.288 690.356 317.061 690.295 319.091V334C690.295 336.242 690.765 338.242 691.705 340C692.644 341.758 693.992 343.136 695.75 344.136C697.508 345.136 699.629 345.636 702.114 345.636C703.841 345.636 705.417 345.394 706.841 344.909C708.295 344.424 709.538 343.727 710.568 342.818C711.598 341.879 712.356 340.758 712.841 339.455H735.75C734.962 344.303 733.098 348.515 730.159 352.091C727.22 355.636 723.326 358.394 718.477 360.364C713.659 362.303 708.023 363.273 701.568 363.273ZM768.534 345.455L768.716 315.636H771.989L788.898 292.182H817.08L788.716 328.727H781.625L768.534 345.455ZM745.989 362V268.909H771.08V362H745.989ZM789.08 362L773.08 334.364L789.443 316.545L817.807 362H789.08ZM854.193 363.273C846.739 363.273 840.314 361.848 834.92 359C829.557 356.121 825.42 352 822.511 346.636C819.633 341.242 818.193 334.788 818.193 327.273C818.193 320.061 819.648 313.758 822.557 308.364C825.466 302.97 829.572 298.773 834.875 295.773C840.178 292.773 846.436 291.273 853.648 291.273C858.92 291.273 863.693 292.091 867.966 293.727C872.239 295.364 875.89 297.742 878.92 300.864C881.951 303.955 884.284 307.712 885.92 312.136C887.557 316.561 888.375 321.545 888.375 327.091V332.909H826.011V319.091H865.284C865.254 317.091 864.739 315.333 863.739 313.818C862.769 312.273 861.451 311.076 859.784 310.227C858.148 309.348 856.284 308.909 854.193 308.909C852.163 308.909 850.299 309.348 848.602 310.227C846.905 311.076 845.542 312.258 844.511 313.773C843.511 315.288 842.981 317.061 842.92 319.091V334C842.92 336.242 843.39 338.242 844.33 340C845.269 341.758 846.617 343.136 848.375 344.136C850.133 345.136 852.254 345.636 854.739 345.636C856.466 345.636 858.042 345.394 859.466 344.909C860.92 344.424 862.163 343.727 863.193 342.818C864.223 341.879 864.981 340.758 865.466 339.455H888.375C887.587 344.303 885.723 348.515 882.784 352.091C879.845 355.636 875.951 358.394 871.102 360.364C866.284 362.303 860.648 363.273 854.193 363.273ZM898.614 362V292.182H922.977V305.455H923.705C924.977 300.545 926.992 296.955 929.75 294.682C932.538 292.409 935.795 291.273 939.523 291.273C940.614 291.273 941.689 291.364 942.75 291.545C943.841 291.697 944.886 291.924 945.886 292.227V313.636C944.644 313.212 943.114 312.894 941.295 312.682C939.477 312.47 937.917 312.364 936.614 312.364C934.159 312.364 931.947 312.924 929.977 314.045C928.038 315.136 926.508 316.682 925.386 318.682C924.265 320.652 923.705 322.97 923.705 325.636V362H898.614ZM1017.93 314.909H994.841C994.72 313.485 994.22 312.258 993.341 311.227C992.462 310.197 991.326 309.409 989.932 308.864C988.568 308.288 987.053 308 985.386 308C983.235 308 981.386 308.394 979.841 309.182C978.295 309.97 977.538 311.091 977.568 312.545C977.538 313.576 977.977 314.53 978.886 315.409C979.826 316.288 981.629 316.97 984.295 317.455L998.477 320C1005.63 321.303 1010.95 323.5 1014.43 326.591C1017.95 329.652 1019.72 333.758 1019.75 338.909C1019.72 343.879 1018.23 348.197 1015.3 351.864C1012.39 355.5 1008.4 358.318 1003.34 360.318C998.311 362.288 992.568 363.273 986.114 363.273C975.447 363.273 967.098 361.091 961.068 356.727C955.068 352.364 951.72 346.606 951.023 339.455H975.932C976.265 341.667 977.356 343.379 979.205 344.591C981.083 345.773 983.447 346.364 986.295 346.364C988.598 346.364 990.492 345.97 991.977 345.182C993.492 344.394 994.265 343.273 994.295 341.818C994.265 340.485 993.598 339.424 992.295 338.636C991.023 337.848 989.023 337.212 986.295 336.727L973.932 334.545C966.811 333.303 961.477 330.939 957.932 327.455C954.386 323.97 952.629 319.485 952.659 314C952.629 309.152 953.902 305.045 956.477 301.682C959.083 298.288 962.795 295.712 967.614 293.955C972.462 292.167 978.205 291.273 984.841 291.273C994.932 291.273 1002.89 293.364 1008.7 297.545C1014.55 301.727 1017.63 307.515 1017.93 314.909Z"/>
</mask>
<path d="M233.182 298L228.198 298.399L228.566 303H233.182V298ZM229.773 290.909L226.538 294.722L226.552 294.734L226.566 294.745L229.773 290.909ZM214.227 289.318L215.964 294.007L215.987 293.998L216.011 293.989L214.227 289.318ZM210.591 291.818L206.577 288.837L206.577 288.837L210.591 291.818ZM209.364 295.455L214.356 295.724L214.361 295.645L214.362 295.566L209.364 295.455ZM209.955 298.5L205.482 300.736L205.528 300.827L205.577 300.915L209.955 298.5ZM212.227 300.909L209.344 304.994L209.385 305.023L209.426 305.051L212.227 300.909ZM221.909 304.364L222.957 299.475L222.936 299.47L222.915 299.466L221.909 304.364ZM229.545 306L228.498 310.889L228.51 310.892L229.545 306ZM242.773 310.318L240.581 314.812L240.581 314.812L242.773 310.318ZM251.773 316.636L248.17 320.104L248.181 320.115L248.192 320.126L251.773 316.636ZM256.909 324.727L252.21 326.436L252.218 326.457L252.226 326.478L256.909 324.727ZM258.636 334.545L263.636 334.57L263.636 334.536L263.636 334.503L258.636 334.545ZM254.045 350.091L258.114 352.997L258.114 352.997L254.045 350.091ZM241.045 359.773L239.219 355.118L239.21 355.122L241.045 359.773ZM199.636 359.5L197.783 364.144L197.791 364.147L199.636 359.5ZM185.636 348.455L181.464 351.211L181.474 351.225L181.484 351.24L185.636 348.455ZM180.636 329.273V324.273H175.617L175.636 329.292L180.636 329.273ZM204.636 329.273L209.629 329.007L209.377 324.273H204.636V329.273ZM206.773 336.455L202.592 339.198L202.592 339.198L206.773 336.455ZM212.136 340.864L210.145 345.45L210.156 345.455L210.167 345.459L212.136 340.864ZM227.227 341.364L228.949 346.058L228.949 346.058L227.227 341.364ZM231.364 338.591L235.278 341.702L235.278 341.702L231.364 338.591ZM232.818 334.545L237.817 334.645L237.819 334.542L237.817 334.439L232.818 334.545ZM231.409 330.818L227.515 333.955L227.563 334.014L227.613 334.072L231.409 330.818ZM227.045 327.909L225.059 332.498L225.088 332.51L225.117 332.522L227.045 327.909ZM218.818 325.455L219.889 320.571L219.881 320.569L219.872 320.567L218.818 325.455ZM209.545 323.455L208.486 328.341L208.491 328.342L209.545 323.455ZM190.045 314.5L186.719 318.233L186.732 318.244L186.744 318.255L190.045 314.5ZM183 297.273L188 297.294L188 297.27L188 297.247L183 297.273ZM187.727 281.773L183.672 278.848L183.668 278.853L187.727 281.773ZM201.045 271.364L199.046 266.781L199.038 266.785L201.045 271.364ZM240.136 271.409L238.052 275.954L238.052 275.954L240.136 271.409ZM252.818 282.045L248.624 284.767L248.635 284.784L248.645 284.8L252.818 282.045ZM257.364 298V303H262.389L262.364 297.975L257.364 298ZM238.166 297.601C237.834 293.45 236.195 289.761 232.979 287.073L226.566 294.745C227.411 295.452 228.045 296.49 228.198 298.399L238.166 297.601ZM233.008 287.097C229.718 284.305 225.282 283.364 220.636 283.364V293.364C224.173 293.364 225.827 294.119 226.538 294.722L233.008 287.097ZM220.636 283.364C217.677 283.364 214.878 283.718 212.444 284.647L216.011 293.989C216.91 293.646 218.384 293.364 220.636 293.364V283.364ZM212.491 284.629C210.232 285.466 208.101 286.785 206.577 288.837L214.605 294.8C214.657 294.73 214.95 294.382 215.964 294.007L212.491 284.629ZM206.577 288.837C205.151 290.757 204.417 292.98 204.365 295.343L214.362 295.566C214.37 295.202 214.456 295 214.605 294.8L206.577 288.837ZM204.371 295.185C204.269 297.079 204.6 298.972 205.482 300.736L214.427 296.264C214.4 296.21 214.338 296.072 214.356 295.724L204.371 295.185ZM205.577 300.915C206.508 302.604 207.85 303.939 209.344 304.994L215.111 296.824C214.544 296.424 214.37 296.153 214.332 296.085L205.577 300.915ZM209.426 305.051C210.904 306.05 212.629 306.856 214.495 307.525L217.869 298.111C216.522 297.629 215.612 297.162 215.029 296.768L209.426 305.051ZM214.495 307.525C216.381 308.201 218.529 308.773 220.903 309.261L222.915 299.466C220.865 299.045 219.195 298.587 217.869 298.111L214.495 307.525ZM220.861 309.253L228.498 310.889L230.593 301.111L222.957 299.475L220.861 309.253ZM228.51 310.892C233.37 311.921 237.371 313.247 240.581 314.812L244.964 305.824C240.842 303.814 236.024 302.261 230.581 301.108L228.51 310.892ZM240.581 314.812C243.83 316.396 246.32 318.181 248.17 320.104L255.375 313.169C252.559 310.243 249.049 307.816 244.964 305.824L240.581 314.812ZM248.192 320.126C250.055 322.037 251.373 324.134 252.21 326.436L261.608 323.019C260.263 319.321 258.158 316.024 255.353 313.146L248.192 320.126ZM252.226 326.478C253.122 328.876 253.611 331.564 253.637 334.588L263.636 334.503C263.601 330.436 262.939 326.579 261.593 322.977L252.226 326.478ZM253.636 334.521C253.61 339.793 252.307 343.922 249.977 347.185L258.114 352.997C261.845 347.775 263.602 341.54 263.636 334.57L253.636 334.521ZM249.977 347.185C247.595 350.519 244.103 353.201 239.219 355.118L242.872 364.427C249.261 361.92 254.435 358.147 258.114 352.997L249.977 347.185ZM239.21 355.122C234.338 357.044 228.252 358.091 220.818 358.091V368.091C229.142 368.091 236.541 366.925 242.881 364.424L239.21 355.122ZM220.818 358.091C213.208 358.091 206.799 356.964 201.481 354.853L197.791 364.147C204.534 366.824 212.246 368.091 220.818 368.091V358.091ZM201.489 354.856C196.347 352.804 192.515 349.735 189.789 345.669L181.484 351.24C185.424 357.114 190.925 361.408 197.783 364.144L201.489 354.856ZM189.808 345.699C187.181 341.721 185.664 336.356 185.636 329.253L175.636 329.292C175.669 337.766 177.486 345.188 181.464 351.211L189.808 345.699ZM180.636 334.273H204.636V324.273H180.636V334.273ZM199.643 329.538C199.831 333.068 200.735 336.367 202.592 339.198L210.953 333.711C210.265 332.664 209.745 331.174 209.629 329.007L199.643 329.538ZM202.592 339.198C204.444 342.019 207.025 344.095 210.145 345.45L214.128 336.277C212.641 335.632 211.647 334.769 210.953 333.711L202.592 339.198ZM210.167 345.459C213.264 346.787 216.738 347.364 220.455 347.364V337.364C217.746 337.364 215.675 336.941 214.106 336.268L210.167 345.459ZM220.455 347.364C223.525 347.364 226.409 346.989 228.949 346.058L225.506 336.669C224.409 337.071 222.778 337.364 220.455 337.364V347.364ZM228.949 346.058C231.389 345.163 233.626 343.78 235.278 341.702L227.45 335.48C227.222 335.766 226.702 336.231 225.506 336.669L228.949 346.058ZM235.278 341.702C236.902 339.659 237.765 337.252 237.817 334.645L227.819 334.445C227.811 334.87 227.704 335.159 227.45 335.48L235.278 341.702ZM237.817 334.439C237.763 331.883 236.884 329.522 235.205 327.564L227.613 334.072C227.753 334.236 227.813 334.359 227.819 334.652L237.817 334.439ZM235.303 327.682C233.686 325.675 231.375 324.299 228.973 323.296L225.117 332.522C226.776 333.216 227.374 333.78 227.515 333.955L235.303 327.682ZM229.032 323.32C226.585 322.262 223.495 321.361 219.889 320.571L217.747 330.338C221.05 331.063 223.445 331.799 225.059 332.498L229.032 323.32ZM219.872 320.567L210.6 318.567L208.491 328.342L217.764 330.342L219.872 320.567ZM210.605 318.568C202.928 316.903 197.288 314.209 193.346 310.745L186.744 318.255C192.318 323.154 199.678 326.43 208.486 328.341L210.605 318.568ZM193.372 310.767C189.879 307.655 187.975 303.369 188 297.294L178 297.252C177.965 305.722 180.757 312.921 186.719 318.233L193.372 310.767ZM188 297.247C187.975 292.3 189.274 288.185 191.787 284.692L183.668 278.853C179.817 284.209 177.965 290.427 178 297.298L188 297.247ZM191.783 284.697C194.409 281.056 198.099 278.115 203.053 275.943L199.038 266.785C192.659 269.582 187.47 273.581 183.672 278.848L191.783 284.697ZM203.044 275.947C208.005 273.783 213.835 272.636 220.636 272.636V262.636C212.71 262.636 205.479 263.975 199.046 266.781L203.044 275.947ZM220.636 272.636C227.604 272.636 233.361 273.803 238.052 275.954L242.221 266.864C235.942 263.985 228.699 262.636 220.636 262.636V272.636ZM238.052 275.954C242.77 278.117 246.225 281.07 248.624 284.767L257.012 279.323C253.472 273.869 248.473 269.731 242.221 266.864L238.052 275.954ZM248.645 284.8C251.048 288.441 252.338 292.786 252.364 298.025L262.364 297.975C262.329 291.032 260.588 284.741 256.991 279.291L248.645 284.8ZM257.364 293H233.182V303H257.364V293ZM293.705 322.727L288.705 322.661L288.705 322.694V322.727H293.705ZM293.705 362V367H298.705V362H293.705ZM268.614 362H263.614V367H268.614V362ZM268.614 268.909V263.909H263.614V268.909H268.614ZM292.795 268.909H297.795V263.909H292.795V268.909ZM292.795 305.455H287.795V310.455H292.795V305.455ZM293.523 305.455V310.455H297.058L298.236 307.122L293.523 305.455ZM301.386 295.045L304.191 299.185L304.203 299.177L304.215 299.169L301.386 295.045ZM327.477 294.636L324.853 298.892L324.861 298.897L324.869 298.902L327.477 294.636ZM335.977 303.909L331.519 306.173L331.526 306.186L331.533 306.2L335.977 303.909ZM338.977 317.455L333.977 317.425L333.977 317.44V317.455H338.977ZM338.977 362V367H343.977V362H338.977ZM313.886 362H308.886V367H313.886V362ZM313.886 322.727L308.887 322.683L308.886 322.705V322.727H313.886ZM311.295 314.591L307.536 317.888L307.55 317.904L307.565 317.92L311.295 314.591ZM298.523 313L301.031 317.325L301.045 317.317L301.058 317.31L298.523 313ZM294.977 316.818L290.521 314.55L290.513 314.566L290.505 314.582L294.977 316.818ZM288.705 322.727V362H298.705V322.727H288.705ZM293.705 357H268.614V367H293.705V357ZM273.614 362V268.909H263.614V362H273.614ZM268.614 273.909H292.795V263.909H268.614V273.909ZM287.795 268.909V305.455H297.795V268.909H287.795ZM292.795 310.455H293.523V300.455H292.795V310.455ZM298.236 307.122C299.481 303.603 301.469 301.029 304.191 299.185L298.581 290.906C293.97 294.031 290.716 298.397 288.809 303.787L298.236 307.122ZM304.215 299.169C306.922 297.311 310.307 296.273 314.614 296.273V286.273C308.617 286.273 303.184 287.749 298.558 290.922L304.215 299.169ZM314.614 296.273C318.774 296.273 322.122 297.208 324.853 298.892L330.102 290.381C325.56 287.58 320.332 286.273 314.614 286.273V296.273ZM324.869 298.902C327.722 300.647 329.926 303.035 331.519 306.173L340.436 301.646C338.029 296.905 334.566 293.11 330.086 290.371L324.869 298.902ZM331.533 306.2C333.142 309.322 334.004 313.02 333.977 317.425L343.977 317.484C344.012 311.707 342.873 306.375 340.422 301.618L331.533 306.2ZM333.977 317.455V362H343.977V317.455H333.977ZM338.977 357H313.886V367H338.977V357ZM318.886 362V322.727H308.886V362H318.886ZM318.886 322.771C318.924 318.467 317.84 314.416 315.026 311.262L307.565 317.92C308.266 318.705 308.909 320.079 308.887 322.683L318.886 322.771ZM315.055 311.294C312.168 308.002 308.185 306.636 303.886 306.636V316.636C306.012 316.636 306.969 317.241 307.536 317.888L315.055 311.294ZM303.886 306.636C301.085 306.636 298.399 307.272 295.988 308.69L301.058 317.31C301.737 316.91 302.627 316.636 303.886 316.636V306.636ZM296.014 308.675C293.608 310.07 291.776 312.085 290.521 314.55L299.433 319.087C299.875 318.218 300.407 317.687 301.031 317.325L296.014 308.675ZM290.505 314.582C289.274 317.044 288.743 319.794 288.705 322.661L298.704 322.793C298.727 321.054 299.044 319.865 299.449 319.054L290.505 314.582ZM365.545 359L363.181 363.406L363.196 363.414L363.211 363.421L365.545 359ZM353.136 346.636L348.725 348.991L348.733 349.005L348.741 349.02L353.136 346.636ZM353.182 308.364L357.583 310.737L357.583 310.737L353.182 308.364ZM365.5 295.773L367.962 300.125L367.962 300.125L365.5 295.773ZM398.591 293.727L400.379 289.058L400.379 289.058L398.591 293.727ZM409.545 300.864L405.958 304.347L405.967 304.355L405.975 304.364L409.545 300.864ZM416.545 312.136L411.856 313.871L411.856 313.871L416.545 312.136ZM419 332.909V337.909H424V332.909H419ZM356.636 332.909H351.636V337.909H356.636V332.909ZM356.636 319.091V314.091H351.636V319.091H356.636ZM395.909 319.091V324.091H400.985L400.909 319.015L395.909 319.091ZM394.364 313.818L390.128 316.476L390.159 316.524L390.191 316.572L394.364 313.818ZM390.409 310.227L388.043 314.632L388.092 314.658L388.141 314.683L390.409 310.227ZM379.227 310.227L381.463 314.699L381.495 314.684L381.527 314.667L379.227 310.227ZM375.136 313.773L371.002 310.961L370.982 310.99L370.963 311.019L375.136 313.773ZM373.545 319.091L368.548 318.942L368.545 319.016V319.091H373.545ZM374.955 340L370.545 342.357L370.545 342.357L374.955 340ZM379 344.136L376.527 348.482L376.527 348.482L379 344.136ZM390.091 344.909L388.51 340.166L388.495 340.171L388.48 340.176L390.091 344.909ZM393.818 342.818L397.126 346.567L397.157 346.54L397.187 346.513L393.818 342.818ZM396.091 339.455V334.455H392.616L391.405 337.711L396.091 339.455ZM419 339.455L423.935 340.257L424.878 334.455H419V339.455ZM413.409 352.091L417.258 355.282L417.265 355.274L417.272 355.266L413.409 352.091ZM401.727 360.364L403.594 365.002L403.602 364.999L403.609 364.996L401.727 360.364ZM384.818 358.273C377.999 358.273 372.412 356.972 367.88 354.579L363.211 363.421C369.467 366.725 376.728 368.273 384.818 368.273V358.273ZM367.91 354.594C363.408 352.178 359.977 348.761 357.532 344.253L348.741 349.02C352.114 355.239 356.955 360.064 363.181 363.406L367.91 354.594ZM357.547 344.282C355.134 339.761 353.818 334.152 353.818 327.273H343.818C343.818 335.423 345.381 342.724 348.725 348.991L357.547 344.282ZM353.818 327.273C353.818 320.742 355.131 315.283 357.583 310.737L348.781 305.99C345.414 312.232 343.818 319.379 343.818 327.273H353.818ZM357.583 310.737C360.047 306.167 363.484 302.658 367.962 300.125L363.038 291.421C356.91 294.887 352.134 299.772 348.781 305.99L357.583 310.737ZM367.962 300.125C372.387 297.621 377.764 296.273 384.273 296.273V286.273C376.357 286.273 369.219 287.924 363.038 291.421L367.962 300.125ZM384.273 296.273C389.026 296.273 393.181 297.009 396.803 298.397L400.379 289.058C395.456 287.172 390.065 286.273 384.273 286.273V296.273ZM396.803 298.397C400.433 299.787 403.46 301.774 405.958 304.347L413.133 297.381C409.57 293.711 405.295 290.941 400.379 289.058L396.803 298.397ZM405.975 304.364C408.469 306.908 410.442 310.048 411.856 313.871L421.235 310.402C419.376 305.377 416.682 301.001 413.116 297.363L405.975 304.364ZM411.856 313.871C413.254 317.652 414 322.036 414 327.091H424C424 321.055 423.109 315.469 421.235 310.402L411.856 313.871ZM414 327.091V332.909H424V327.091H414ZM419 327.909H356.636V337.909H419V327.909ZM361.636 332.909V319.091H351.636V332.909H361.636ZM356.636 324.091H395.909V314.091H356.636V324.091ZM400.909 319.015C400.865 316.162 400.115 313.455 398.537 311.064L390.191 316.572C390.613 317.212 390.892 318.019 390.91 319.167L400.909 319.015ZM398.599 311.161C397.136 308.829 395.129 307.02 392.678 305.771L388.141 314.683C389.022 315.132 389.652 315.716 390.128 316.476L398.599 311.161ZM392.775 305.822C390.324 304.506 387.629 303.909 384.818 303.909V313.909C386.189 313.909 387.222 314.191 388.043 314.632L392.775 305.822ZM384.818 303.909C382.039 303.909 379.38 304.518 376.928 305.787L381.527 314.667C382.469 314.179 383.537 313.909 384.818 313.909V303.909ZM376.991 305.755C374.558 306.972 372.53 308.714 371.002 310.961L379.271 316.584C379.803 315.801 380.503 315.18 381.463 314.699L376.991 305.755ZM370.963 311.019C369.393 313.398 368.633 316.097 368.548 318.942L378.543 319.24C378.58 318.024 378.88 317.178 379.309 316.527L370.963 311.019ZM368.545 319.091V334H378.545V319.091H368.545ZM368.545 334C368.545 336.96 369.172 339.787 370.545 342.357L379.364 337.643C378.859 336.697 378.545 335.525 378.545 334H368.545ZM370.545 342.357C371.936 344.96 373.962 347.023 376.527 348.482L381.473 339.791C380.523 339.25 379.852 338.555 379.364 337.643L370.545 342.357ZM376.527 348.482C379.193 349.999 382.209 350.636 385.364 350.636V340.636C383.549 340.636 382.322 340.274 381.473 339.791L376.527 348.482ZM385.364 350.636C387.559 350.636 389.689 350.328 391.702 349.642L388.48 340.176C387.645 340.46 386.623 340.636 385.364 340.636V350.636ZM391.672 349.653C393.689 348.98 395.538 347.969 397.126 346.567L390.51 339.069C390.038 339.485 389.402 339.868 388.51 340.166L391.672 349.653ZM397.187 346.513C398.804 345.039 400.014 343.249 400.777 341.198L391.405 337.711C391.198 338.266 390.893 338.719 390.449 339.123L397.187 346.513ZM396.091 344.455H419V334.455H396.091V344.455ZM414.065 338.653C413.41 342.685 411.89 346.065 409.547 348.916L417.272 355.266C420.807 350.966 423.015 345.922 423.935 340.257L414.065 338.653ZM409.56 348.9C407.215 351.728 404.035 354.029 399.845 355.731L403.609 364.996C409.117 362.758 413.724 359.545 417.258 355.282L409.56 348.9ZM399.86 355.725C395.76 357.376 390.783 358.273 384.818 358.273V368.273C391.762 368.273 398.058 367.231 403.594 365.002L399.86 355.725ZM454.33 268.909H459.33V263.909H454.33V268.909ZM454.33 362V367H459.33V362H454.33ZM429.239 362H424.239V367H429.239V362ZM429.239 268.909V263.909H424.239V268.909H429.239ZM449.33 268.909V362H459.33V268.909H449.33ZM454.33 357H429.239V367H454.33V357ZM434.239 362V268.909H424.239V362H434.239ZM429.239 273.909H454.33V263.909H429.239V273.909ZM492.205 268.909H497.205V263.909H492.205V268.909ZM492.205 362V367H497.205V362H492.205ZM467.114 362H462.114V367H467.114V362ZM467.114 268.909V263.909H462.114V268.909H467.114ZM487.205 268.909V362H497.205V268.909H487.205ZM492.205 357H467.114V367H492.205V357ZM472.114 362V268.909H462.114V362H472.114ZM467.114 273.909H492.205V263.909H467.114V273.909ZM554.807 298L549.823 298.399L550.191 303H554.807V298ZM551.398 290.909L548.163 294.722L548.177 294.734L548.191 294.745L551.398 290.909ZM535.852 289.318L537.589 294.007L537.612 293.998L537.636 293.989L535.852 289.318ZM532.216 291.818L528.202 288.837L528.202 288.837L532.216 291.818ZM530.989 295.455L535.981 295.724L535.986 295.645L535.987 295.566L530.989 295.455ZM531.58 298.5L527.107 300.736L527.153 300.827L527.202 300.915L531.58 298.5ZM533.852 300.909L530.969 304.994L531.01 305.023L531.051 305.051L533.852 300.909ZM543.534 304.364L544.582 299.475L544.561 299.47L544.54 299.466L543.534 304.364ZM551.17 306L550.123 310.889L550.135 310.892L551.17 306ZM564.398 310.318L562.206 314.812L562.206 314.812L564.398 310.318ZM573.398 316.636L569.795 320.104L569.806 320.115L569.817 320.126L573.398 316.636ZM578.534 324.727L573.835 326.436L573.843 326.457L573.851 326.478L578.534 324.727ZM580.261 334.545L585.261 334.57L585.261 334.536L585.261 334.503L580.261 334.545ZM575.67 350.091L579.739 352.997L579.739 352.997L575.67 350.091ZM562.67 359.773L560.844 355.118L560.835 355.122L562.67 359.773ZM521.261 359.5L519.408 364.144L519.416 364.147L521.261 359.5ZM507.261 348.455L503.089 351.211L503.099 351.225L503.109 351.24L507.261 348.455ZM502.261 329.273V324.273H497.242L497.261 329.292L502.261 329.273ZM526.261 329.273L531.254 329.007L531.002 324.273H526.261V329.273ZM528.398 336.455L524.217 339.198L524.217 339.198L528.398 336.455ZM533.761 340.864L531.77 345.45L531.781 345.455L531.792 345.459L533.761 340.864ZM548.852 341.364L550.574 346.058L550.574 346.058L548.852 341.364ZM552.989 338.591L556.903 341.702L556.903 341.702L552.989 338.591ZM554.443 334.545L559.442 334.645L559.444 334.542L559.442 334.439L554.443 334.545ZM553.034 330.818L549.14 333.955L549.188 334.014L549.238 334.072L553.034 330.818ZM548.67 327.909L546.684 332.498L546.713 332.51L546.742 332.522L548.67 327.909ZM540.443 325.455L541.514 320.571L541.506 320.569L541.497 320.567L540.443 325.455ZM531.17 323.455L530.111 328.341L530.116 328.342L531.17 323.455ZM511.67 314.5L508.344 318.233L508.357 318.244L508.369 318.255L511.67 314.5ZM504.625 297.273L509.625 297.294L509.625 297.27L509.625 297.247L504.625 297.273ZM509.352 281.773L505.297 278.848L505.293 278.853L509.352 281.773ZM522.67 271.364L520.671 266.781L520.663 266.785L522.67 271.364ZM561.761 271.409L559.677 275.954L559.677 275.954L561.761 271.409ZM574.443 282.045L570.249 284.767L570.26 284.784L570.27 284.8L574.443 282.045ZM578.989 298V303H584.014L583.989 297.975L578.989 298ZM559.791 297.601C559.459 293.45 557.82 289.761 554.604 287.073L548.191 294.745C549.036 295.452 549.67 296.49 549.823 298.399L559.791 297.601ZM554.633 287.097C551.343 284.305 546.907 283.364 542.261 283.364V293.364C545.798 293.364 547.452 294.119 548.163 294.722L554.633 287.097ZM542.261 283.364C539.302 283.364 536.503 283.718 534.069 284.647L537.636 293.989C538.535 293.646 540.009 293.364 542.261 293.364V283.364ZM534.116 284.629C531.857 285.466 529.726 286.785 528.202 288.837L536.23 294.8C536.282 294.73 536.575 294.382 537.589 294.007L534.116 284.629ZM528.202 288.837C526.776 290.757 526.042 292.98 525.99 295.343L535.987 295.566C535.995 295.202 536.081 295 536.23 294.8L528.202 288.837ZM525.996 295.185C525.894 297.079 526.225 298.972 527.107 300.736L536.052 296.264C536.025 296.21 535.963 296.072 535.981 295.724L525.996 295.185ZM527.202 300.915C528.133 302.604 529.475 303.939 530.969 304.994L536.736 296.824C536.169 296.424 535.995 296.153 535.957 296.085L527.202 300.915ZM531.051 305.051C532.529 306.05 534.254 306.856 536.12 307.525L539.494 298.111C538.147 297.629 537.237 297.162 536.654 296.768L531.051 305.051ZM536.12 307.525C538.006 308.201 540.154 308.773 542.528 309.261L544.54 299.466C542.49 299.045 540.82 298.587 539.494 298.111L536.12 307.525ZM542.486 309.253L550.123 310.889L552.218 301.111L544.582 299.475L542.486 309.253ZM550.135 310.892C554.995 311.921 558.996 313.247 562.206 314.812L566.589 305.824C562.467 303.814 557.649 302.261 552.206 301.108L550.135 310.892ZM562.206 314.812C565.455 316.396 567.945 318.181 569.795 320.104L577 313.169C574.184 310.243 570.674 307.816 566.589 305.824L562.206 314.812ZM569.817 320.126C571.68 322.037 572.998 324.134 573.835 326.436L583.233 323.019C581.888 319.321 579.783 316.024 576.978 313.146L569.817 320.126ZM573.851 326.478C574.747 328.876 575.236 331.564 575.262 334.588L585.261 334.503C585.226 330.436 584.564 326.579 583.218 322.977L573.851 326.478ZM575.261 334.521C575.235 339.793 573.932 343.922 571.602 347.185L579.739 352.997C583.47 347.775 585.227 341.54 585.261 334.57L575.261 334.521ZM571.602 347.185C569.22 350.519 565.728 353.201 560.844 355.118L564.497 364.427C570.886 361.92 576.06 358.147 579.739 352.997L571.602 347.185ZM560.835 355.122C555.963 357.044 549.877 358.091 542.443 358.091V368.091C550.767 368.091 558.166 366.925 564.506 364.424L560.835 355.122ZM542.443 358.091C534.833 358.091 528.424 356.964 523.106 354.853L519.416 364.147C526.159 366.824 533.871 368.091 542.443 368.091V358.091ZM523.114 354.856C517.972 352.804 514.14 349.735 511.414 345.669L503.109 351.24C507.049 357.114 512.55 361.408 519.408 364.144L523.114 354.856ZM511.433 345.699C508.806 341.721 507.289 336.356 507.261 329.253L497.261 329.292C497.294 337.766 499.111 345.188 503.089 351.211L511.433 345.699ZM502.261 334.273H526.261V324.273H502.261V334.273ZM521.268 329.538C521.456 333.068 522.36 336.367 524.217 339.198L532.578 333.711C531.89 332.664 531.37 331.174 531.254 329.007L521.268 329.538ZM524.217 339.198C526.069 342.019 528.65 344.095 531.77 345.45L535.753 336.277C534.266 335.632 533.272 334.769 532.578 333.711L524.217 339.198ZM531.792 345.459C534.889 346.787 538.363 347.364 542.08 347.364V337.364C539.371 337.364 537.3 336.941 535.731 336.268L531.792 345.459ZM542.08 347.364C545.15 347.364 548.034 346.989 550.574 346.058L547.131 336.669C546.034 337.071 544.403 337.364 542.08 337.364V347.364ZM550.574 346.058C553.014 345.163 555.251 343.78 556.903 341.702L549.075 335.48C548.847 335.766 548.327 336.231 547.131 336.669L550.574 346.058ZM556.903 341.702C558.527 339.659 559.39 337.252 559.442 334.645L549.444 334.445C549.436 334.87 549.329 335.159 549.075 335.48L556.903 341.702ZM559.442 334.439C559.388 331.883 558.509 329.522 556.83 327.564L549.238 334.072C549.378 334.236 549.438 334.359 549.444 334.652L559.442 334.439ZM556.928 327.682C555.311 325.675 553 324.299 550.598 323.296L546.742 332.522C548.401 333.216 548.999 333.78 549.14 333.955L556.928 327.682ZM550.657 323.32C548.21 322.262 545.12 321.361 541.514 320.571L539.372 330.338C542.675 331.063 545.07 331.799 546.684 332.498L550.657 323.32ZM541.497 320.567L532.225 318.567L530.116 328.342L539.389 330.342L541.497 320.567ZM532.23 318.568C524.553 316.903 518.913 314.209 514.971 310.745L508.369 318.255C513.943 323.154 521.303 326.43 530.111 328.341L532.23 318.568ZM514.997 310.767C511.504 307.655 509.6 303.369 509.625 297.294L499.625 297.252C499.59 305.722 502.382 312.921 508.344 318.233L514.997 310.767ZM509.625 297.247C509.6 292.3 510.899 288.185 513.412 284.692L505.293 278.853C501.442 284.209 499.59 290.427 499.625 297.298L509.625 297.247ZM513.408 284.697C516.034 281.056 519.724 278.115 524.678 275.943L520.663 266.785C514.284 269.582 509.095 273.581 505.297 278.848L513.408 284.697ZM524.669 275.947C529.63 273.783 535.46 272.636 542.261 272.636V262.636C534.335 262.636 527.104 263.975 520.671 266.781L524.669 275.947ZM542.261 272.636C549.229 272.636 554.986 273.803 559.677 275.954L563.846 266.864C557.567 263.985 550.324 262.636 542.261 262.636V272.636ZM559.677 275.954C564.395 278.117 567.85 281.07 570.249 284.767L578.637 279.323C575.097 273.869 570.098 269.731 563.846 266.864L559.677 275.954ZM570.27 284.8C572.673 288.441 573.963 292.786 573.989 298.025L583.989 297.975C583.954 291.032 582.213 284.741 578.616 279.291L570.27 284.8ZM578.989 293H554.807V303H578.989V293ZM604.42 359L602.056 363.406L602.071 363.414L602.086 363.421L604.42 359ZM592.011 346.636L587.6 348.991L587.608 349.005L587.616 349.02L592.011 346.636ZM592.057 308.364L596.458 310.737L596.458 310.737L592.057 308.364ZM604.375 295.773L606.837 300.125L606.837 300.125L604.375 295.773ZM637.466 293.727L639.254 289.058L639.254 289.058L637.466 293.727ZM648.42 300.864L644.833 304.347L644.842 304.355L644.85 304.364L648.42 300.864ZM655.42 312.136L650.731 313.871L650.731 313.871L655.42 312.136ZM657.875 332.909V337.909H662.875V332.909H657.875ZM595.511 332.909H590.511V337.909H595.511V332.909ZM595.511 319.091V314.091H590.511V319.091H595.511ZM634.784 319.091V324.091H639.86L639.784 319.015L634.784 319.091ZM633.239 313.818L629.003 316.476L629.034 316.524L629.066 316.572L633.239 313.818ZM629.284 310.227L626.918 314.632L626.967 314.658L627.016 314.683L629.284 310.227ZM618.102 310.227L620.338 314.699L620.37 314.684L620.402 314.667L618.102 310.227ZM614.011 313.773L609.877 310.961L609.857 310.99L609.838 311.019L614.011 313.773ZM612.42 319.091L607.423 318.942L607.42 319.016V319.091H612.42ZM613.83 340L609.42 342.357L609.42 342.357L613.83 340ZM617.875 344.136L615.402 348.482L615.402 348.482L617.875 344.136ZM628.966 344.909L627.385 340.166L627.37 340.171L627.355 340.176L628.966 344.909ZM632.693 342.818L636.001 346.567L636.032 346.54L636.062 346.513L632.693 342.818ZM634.966 339.455V334.455H631.491L630.28 337.711L634.966 339.455ZM657.875 339.455L662.81 340.257L663.753 334.455H657.875V339.455ZM652.284 352.091L656.133 355.282L656.14 355.274L656.147 355.266L652.284 352.091ZM640.602 360.364L642.469 365.002L642.477 364.999L642.484 364.996L640.602 360.364ZM623.693 358.273C616.874 358.273 611.287 356.972 606.755 354.579L602.086 363.421C608.342 366.725 615.603 368.273 623.693 368.273V358.273ZM606.785 354.594C602.283 352.178 598.852 348.761 596.407 344.253L587.616 349.02C590.989 355.239 595.83 360.064 602.056 363.406L606.785 354.594ZM596.422 344.282C594.009 339.761 592.693 334.152 592.693 327.273H582.693C582.693 335.423 584.256 342.724 587.6 348.991L596.422 344.282ZM592.693 327.273C592.693 320.742 594.006 315.283 596.458 310.737L587.656 305.99C584.289 312.232 582.693 319.379 582.693 327.273H592.693ZM596.458 310.737C598.922 306.167 602.359 302.658 606.837 300.125L601.913 291.421C595.785 294.887 591.009 299.772 587.656 305.99L596.458 310.737ZM606.837 300.125C611.262 297.621 616.639 296.273 623.148 296.273V286.273C615.232 286.273 608.094 287.924 601.913 291.421L606.837 300.125ZM623.148 296.273C627.901 296.273 632.056 297.009 635.678 298.397L639.254 289.058C634.331 287.172 628.94 286.273 623.148 286.273V296.273ZM635.678 298.397C639.308 299.787 642.335 301.774 644.833 304.347L652.008 297.381C648.445 293.711 644.17 290.941 639.254 289.058L635.678 298.397ZM644.85 304.364C647.344 306.908 649.317 310.048 650.731 313.871L660.11 310.402C658.251 305.377 655.557 301.001 651.991 297.363L644.85 304.364ZM650.731 313.871C652.129 317.652 652.875 322.036 652.875 327.091H662.875C662.875 321.055 661.984 315.469 660.11 310.402L650.731 313.871ZM652.875 327.091V332.909H662.875V327.091H652.875ZM657.875 327.909H595.511V337.909H657.875V327.909ZM600.511 332.909V319.091H590.511V332.909H600.511ZM595.511 324.091H634.784V314.091H595.511V324.091ZM639.784 319.015C639.74 316.162 638.99 313.455 637.412 311.064L629.066 316.572C629.488 317.212 629.767 318.019 629.785 319.167L639.784 319.015ZM637.474 311.161C636.011 308.829 634.004 307.02 631.553 305.771L627.016 314.683C627.897 315.132 628.527 315.716 629.003 316.476L637.474 311.161ZM631.65 305.822C629.199 304.506 626.504 303.909 623.693 303.909V313.909C625.064 313.909 626.097 314.191 626.918 314.632L631.65 305.822ZM623.693 303.909C620.914 303.909 618.255 304.518 615.803 305.787L620.402 314.667C621.344 314.179 622.412 313.909 623.693 313.909V303.909ZM615.866 305.755C613.433 306.972 611.405 308.714 609.877 310.961L618.146 316.584C618.678 315.801 619.378 315.18 620.338 314.699L615.866 305.755ZM609.838 311.019C608.268 313.398 607.508 316.097 607.423 318.942L617.418 319.24C617.455 318.024 617.755 317.178 618.184 316.527L609.838 311.019ZM607.42 319.091V334H617.42V319.091H607.42ZM607.42 334C607.42 336.96 608.047 339.787 609.42 342.357L618.239 337.643C617.734 336.697 617.42 335.525 617.42 334H607.42ZM609.42 342.357C610.811 344.96 612.837 347.023 615.402 348.482L620.348 339.791C619.398 339.25 618.727 338.555 618.239 337.643L609.42 342.357ZM615.402 348.482C618.068 349.999 621.084 350.636 624.239 350.636V340.636C622.424 340.636 621.197 340.274 620.348 339.791L615.402 348.482ZM624.239 350.636C626.434 350.636 628.564 350.328 630.577 349.642L627.355 340.176C626.52 340.46 625.498 340.636 624.239 340.636V350.636ZM630.547 349.653C632.564 348.98 634.413 347.969 636.001 346.567L629.385 339.069C628.913 339.485 628.277 339.868 627.385 340.166L630.547 349.653ZM636.062 346.513C637.679 345.039 638.889 343.249 639.652 341.198L630.28 337.711C630.073 338.266 629.768 338.719 629.324 339.123L636.062 346.513ZM634.966 344.455H657.875V334.455H634.966V344.455ZM652.94 338.653C652.285 342.685 650.765 346.065 648.422 348.916L656.147 355.266C659.682 350.966 661.89 345.922 662.81 340.257L652.94 338.653ZM648.435 348.9C646.09 351.728 642.91 354.029 638.72 355.731L642.484 364.996C647.992 362.758 652.599 359.545 656.133 355.282L648.435 348.9ZM638.735 355.725C634.635 357.376 629.658 358.273 623.693 358.273V368.273C630.637 368.273 636.933 367.231 642.469 365.002L638.735 355.725ZM682.295 359L679.931 363.406L679.946 363.414L679.961 363.421L682.295 359ZM669.886 346.636L665.475 348.991L665.483 349.005L665.491 349.02L669.886 346.636ZM669.932 308.364L674.333 310.737L674.333 310.737L669.932 308.364ZM682.25 295.773L684.712 300.125L684.712 300.125L682.25 295.773ZM715.341 293.727L717.129 289.058L717.129 289.058L715.341 293.727ZM726.295 300.864L722.708 304.347L722.717 304.355L722.725 304.364L726.295 300.864ZM733.295 312.136L728.606 313.871L728.606 313.871L733.295 312.136ZM735.75 332.909V337.909H740.75V332.909H735.75ZM673.386 332.909H668.386V337.909H673.386V332.909ZM673.386 319.091V314.091H668.386V319.091H673.386ZM712.659 319.091V324.091H717.735L717.659 319.015L712.659 319.091ZM711.114 313.818L706.878 316.476L706.909 316.524L706.941 316.572L711.114 313.818ZM707.159 310.227L704.793 314.632L704.842 314.658L704.891 314.683L707.159 310.227ZM695.977 310.227L698.213 314.699L698.245 314.684L698.277 314.667L695.977 310.227ZM691.886 313.773L687.752 310.961L687.732 310.99L687.713 311.019L691.886 313.773ZM690.295 319.091L685.298 318.942L685.295 319.016V319.091H690.295ZM691.705 340L687.295 342.357L687.295 342.357L691.705 340ZM695.75 344.136L693.277 348.482L693.277 348.482L695.75 344.136ZM706.841 344.909L705.26 340.166L705.245 340.171L705.23 340.176L706.841 344.909ZM710.568 342.818L713.876 346.567L713.907 346.54L713.937 346.513L710.568 342.818ZM712.841 339.455V334.455H709.366L708.155 337.711L712.841 339.455ZM735.75 339.455L740.685 340.257L741.628 334.455H735.75V339.455ZM730.159 352.091L734.008 355.282L734.015 355.274L734.022 355.266L730.159 352.091ZM718.477 360.364L720.344 365.002L720.352 364.999L720.359 364.996L718.477 360.364ZM701.568 358.273C694.749 358.273 689.162 356.972 684.63 354.579L679.961 363.421C686.217 366.725 693.478 368.273 701.568 368.273V358.273ZM684.66 354.594C680.158 352.178 676.727 348.761 674.282 344.253L665.491 349.02C668.864 355.239 673.705 360.064 679.931 363.406L684.66 354.594ZM674.297 344.282C671.884 339.761 670.568 334.152 670.568 327.273H660.568C660.568 335.423 662.131 342.724 665.475 348.991L674.297 344.282ZM670.568 327.273C670.568 320.742 671.881 315.283 674.333 310.737L665.531 305.99C662.164 312.232 660.568 319.379 660.568 327.273H670.568ZM674.333 310.737C676.797 306.167 680.234 302.658 684.712 300.125L679.788 291.421C673.66 294.887 668.884 299.772 665.531 305.99L674.333 310.737ZM684.712 300.125C689.137 297.621 694.514 296.273 701.023 296.273V286.273C693.107 286.273 685.969 287.924 679.788 291.421L684.712 300.125ZM701.023 296.273C705.776 296.273 709.931 297.009 713.553 298.397L717.129 289.058C712.206 287.172 706.815 286.273 701.023 286.273V296.273ZM713.553 298.397C717.183 299.787 720.21 301.774 722.708 304.347L729.883 297.381C726.32 293.711 722.045 290.941 717.129 289.058L713.553 298.397ZM722.725 304.364C725.219 306.908 727.192 310.048 728.606 313.871L737.985 310.402C736.126 305.377 733.432 301.001 729.866 297.363L722.725 304.364ZM728.606 313.871C730.004 317.652 730.75 322.036 730.75 327.091H740.75C740.75 321.055 739.859 315.469 737.985 310.402L728.606 313.871ZM730.75 327.091V332.909H740.75V327.091H730.75ZM735.75 327.909H673.386V337.909H735.75V327.909ZM678.386 332.909V319.091H668.386V332.909H678.386ZM673.386 324.091H712.659V314.091H673.386V324.091ZM717.659 319.015C717.615 316.162 716.865 313.455 715.287 311.064L706.941 316.572C707.363 317.212 707.642 318.019 707.66 319.167L717.659 319.015ZM715.349 311.161C713.886 308.829 711.879 307.02 709.428 305.771L704.891 314.683C705.772 315.132 706.402 315.716 706.878 316.476L715.349 311.161ZM709.525 305.822C707.074 304.506 704.379 303.909 701.568 303.909V313.909C702.939 313.909 703.972 314.191 704.793 314.632L709.525 305.822ZM701.568 303.909C698.789 303.909 696.13 304.518 693.678 305.787L698.277 314.667C699.219 314.179 700.287 313.909 701.568 313.909V303.909ZM693.741 305.755C691.308 306.972 689.28 308.714 687.752 310.961L696.021 316.584C696.553 315.801 697.253 315.18 698.213 314.699L693.741 305.755ZM687.713 311.019C686.143 313.398 685.383 316.097 685.298 318.942L695.293 319.24C695.33 318.024 695.63 317.178 696.059 316.527L687.713 311.019ZM685.295 319.091V334H695.295V319.091H685.295ZM685.295 334C685.295 336.96 685.922 339.787 687.295 342.357L696.114 337.643C695.609 336.697 695.295 335.525 695.295 334H685.295ZM687.295 342.357C688.686 344.96 690.712 347.023 693.277 348.482L698.223 339.791C697.273 339.25 696.602 338.555 696.114 337.643L687.295 342.357ZM693.277 348.482C695.943 349.999 698.959 350.636 702.114 350.636V340.636C700.299 340.636 699.072 340.274 698.223 339.791L693.277 348.482ZM702.114 350.636C704.309 350.636 706.439 350.328 708.452 349.642L705.23 340.176C704.395 340.46 703.373 340.636 702.114 340.636V350.636ZM708.422 349.653C710.439 348.98 712.288 347.969 713.876 346.567L707.26 339.069C706.788 339.485 706.152 339.868 705.26 340.166L708.422 349.653ZM713.937 346.513C715.554 345.039 716.764 343.249 717.527 341.198L708.155 337.711C707.948 338.266 707.643 338.719 707.199 339.123L713.937 346.513ZM712.841 344.455H735.75V334.455H712.841V344.455ZM730.815 338.653C730.16 342.685 728.64 346.065 726.297 348.916L734.022 355.266C737.557 350.966 739.765 345.922 740.685 340.257L730.815 338.653ZM726.31 348.9C723.965 351.728 720.785 354.029 716.595 355.731L720.359 364.996C725.867 362.758 730.474 359.545 734.008 355.282L726.31 348.9ZM716.61 355.725C712.51 357.376 707.533 358.273 701.568 358.273V368.273C708.512 368.273 714.808 367.231 720.344 365.002L716.61 355.725ZM768.534 345.455L763.534 345.424L763.445 360.07L772.472 348.536L768.534 345.455ZM768.716 315.636V310.636H763.746L763.716 315.606L768.716 315.636ZM771.989 315.636V320.636H774.548L776.045 318.56L771.989 315.636ZM788.898 292.182V287.182H786.338L784.842 289.258L788.898 292.182ZM817.08 292.182L821.029 295.247L827.289 287.182H817.08V292.182ZM788.716 328.727V333.727H791.165L792.666 331.793L788.716 328.727ZM781.625 328.727V323.727H779.189L777.687 325.646L781.625 328.727ZM745.989 362H740.989V367H745.989V362ZM745.989 268.909V263.909H740.989V268.909H745.989ZM771.08 268.909H776.08V263.909H771.08V268.909ZM771.08 362V367H776.08V362H771.08ZM789.08 362L784.752 364.505L786.197 367H789.08V362ZM773.08 334.364L769.397 330.982L766.911 333.688L768.752 336.869L773.08 334.364ZM789.443 316.545L793.685 313.899L790.206 308.323L785.761 313.163L789.443 316.545ZM817.807 362V367H826.82L822.049 359.353L817.807 362ZM773.534 345.485L773.716 315.667L763.716 315.606L763.534 345.424L773.534 345.485ZM768.716 320.636H771.989V310.636H768.716V320.636ZM776.045 318.56L792.954 295.106L784.842 289.258L767.933 312.712L776.045 318.56ZM788.898 297.182H817.08V287.182H788.898V297.182ZM813.13 289.116L784.766 325.662L792.666 331.793L821.029 295.247L813.13 289.116ZM788.716 323.727H781.625V333.727H788.716V323.727ZM777.687 325.646L764.597 342.373L772.472 348.536L785.563 331.809L777.687 325.646ZM750.989 362V268.909H740.989V362H750.989ZM745.989 273.909H771.08V263.909H745.989V273.909ZM766.08 268.909V362H776.08V268.909H766.08ZM771.08 357H745.989V367H771.08V357ZM793.407 359.495L777.407 331.858L768.752 336.869L784.752 364.505L793.407 359.495ZM776.762 337.746L793.126 319.927L785.761 313.163L769.397 330.982L776.762 337.746ZM785.201 319.192L813.565 364.647L822.049 359.353L793.685 313.899L785.201 319.192ZM817.807 357H789.08V367H817.807V357ZM834.92 359L832.556 363.406L832.571 363.414L832.586 363.421L834.92 359ZM822.511 346.636L818.1 348.991L818.108 349.005L818.116 349.02L822.511 346.636ZM822.557 308.364L826.958 310.737L826.958 310.737L822.557 308.364ZM834.875 295.773L837.337 300.125L837.337 300.125L834.875 295.773ZM867.966 293.727L869.754 289.058L869.754 289.058L867.966 293.727ZM878.92 300.864L875.333 304.347L875.342 304.355L875.35 304.364L878.92 300.864ZM885.92 312.136L881.231 313.871L881.231 313.871L885.92 312.136ZM888.375 332.909V337.909H893.375V332.909H888.375ZM826.011 332.909H821.011V337.909H826.011V332.909ZM826.011 319.091V314.091H821.011V319.091H826.011ZM865.284 319.091V324.091H870.36L870.284 319.015L865.284 319.091ZM863.739 313.818L859.503 316.476L859.534 316.524L859.566 316.572L863.739 313.818ZM859.784 310.227L857.418 314.632L857.467 314.658L857.516 314.683L859.784 310.227ZM848.602 310.227L850.838 314.699L850.87 314.684L850.902 314.667L848.602 310.227ZM844.511 313.773L840.377 310.961L840.357 310.99L840.338 311.019L844.511 313.773ZM842.92 319.091L837.923 318.942L837.92 319.016V319.091H842.92ZM844.33 340L839.92 342.357L839.92 342.357L844.33 340ZM848.375 344.136L845.902 348.482L845.902 348.482L848.375 344.136ZM859.466 344.909L857.885 340.166L857.87 340.171L857.855 340.176L859.466 344.909ZM863.193 342.818L866.501 346.567L866.532 346.54L866.562 346.513L863.193 342.818ZM865.466 339.455V334.455H861.991L860.78 337.711L865.466 339.455ZM888.375 339.455L893.31 340.257L894.253 334.455H888.375V339.455ZM882.784 352.091L886.633 355.282L886.64 355.274L886.647 355.266L882.784 352.091ZM871.102 360.364L872.969 365.002L872.977 364.999L872.984 364.996L871.102 360.364ZM854.193 358.273C847.374 358.273 841.787 356.972 837.255 354.579L832.586 363.421C838.842 366.725 846.103 368.273 854.193 368.273V358.273ZM837.285 354.594C832.783 352.178 829.352 348.761 826.907 344.253L818.116 349.02C821.489 355.239 826.33 360.064 832.556 363.406L837.285 354.594ZM826.922 344.282C824.509 339.761 823.193 334.152 823.193 327.273H813.193C813.193 335.423 814.756 342.724 818.1 348.991L826.922 344.282ZM823.193 327.273C823.193 320.742 824.506 315.283 826.958 310.737L818.156 305.99C814.789 312.232 813.193 319.379 813.193 327.273H823.193ZM826.958 310.737C829.422 306.167 832.859 302.658 837.337 300.125L832.413 291.421C826.285 294.887 821.509 299.772 818.156 305.99L826.958 310.737ZM837.337 300.125C841.762 297.621 847.139 296.273 853.648 296.273V286.273C845.732 286.273 838.594 287.924 832.413 291.421L837.337 300.125ZM853.648 296.273C858.401 296.273 862.556 297.009 866.178 298.397L869.754 289.058C864.831 287.172 859.44 286.273 853.648 286.273V296.273ZM866.178 298.397C869.808 299.787 872.835 301.774 875.333 304.347L882.508 297.381C878.945 293.711 874.67 290.941 869.754 289.058L866.178 298.397ZM875.35 304.364C877.844 306.908 879.817 310.048 881.231 313.871L890.61 310.402C888.751 305.377 886.057 301.001 882.491 297.363L875.35 304.364ZM881.231 313.871C882.629 317.652 883.375 322.036 883.375 327.091H893.375C893.375 321.055 892.484 315.469 890.61 310.402L881.231 313.871ZM883.375 327.091V332.909H893.375V327.091H883.375ZM888.375 327.909H826.011V337.909H888.375V327.909ZM831.011 332.909V319.091H821.011V332.909H831.011ZM826.011 324.091H865.284V314.091H826.011V324.091ZM870.284 319.015C870.24 316.162 869.49 313.455 867.912 311.064L859.566 316.572C859.988 317.212 860.267 318.019 860.285 319.167L870.284 319.015ZM867.974 311.161C866.511 308.829 864.504 307.02 862.053 305.771L857.516 314.683C858.397 315.132 859.027 315.716 859.503 316.476L867.974 311.161ZM862.15 305.822C859.699 304.506 857.004 303.909 854.193 303.909V313.909C855.564 313.909 856.597 314.191 857.418 314.632L862.15 305.822ZM854.193 303.909C851.414 303.909 848.755 304.518 846.303 305.787L850.902 314.667C851.844 314.179 852.912 313.909 854.193 313.909V303.909ZM846.366 305.755C843.933 306.972 841.905 308.714 840.377 310.961L848.646 316.584C849.178 315.801 849.878 315.18 850.838 314.699L846.366 305.755ZM840.338 311.019C838.768 313.398 838.008 316.097 837.923 318.942L847.918 319.24C847.955 318.024 848.255 317.178 848.684 316.527L840.338 311.019ZM837.92 319.091V334H847.92V319.091H837.92ZM837.92 334C837.92 336.96 838.547 339.787 839.92 342.357L848.739 337.643C848.234 336.697 847.92 335.525 847.92 334H837.92ZM839.92 342.357C841.311 344.96 843.337 347.023 845.902 348.482L850.848 339.791C849.898 339.25 849.227 338.555 848.739 337.643L839.92 342.357ZM845.902 348.482C848.568 349.999 851.584 350.636 854.739 350.636V340.636C852.924 340.636 851.697 340.274 850.848 339.791L845.902 348.482ZM854.739 350.636C856.934 350.636 859.064 350.328 861.077 349.642L857.855 340.176C857.02 340.46 855.998 340.636 854.739 340.636V350.636ZM861.047 349.653C863.064 348.98 864.913 347.969 866.501 346.567L859.885 339.069C859.413 339.485 858.777 339.868 857.885 340.166L861.047 349.653ZM866.562 346.513C868.179 345.039 869.389 343.249 870.152 341.198L860.78 337.711C860.573 338.266 860.268 338.719 859.824 339.123L866.562 346.513ZM865.466 344.455H888.375V334.455H865.466V344.455ZM883.44 338.653C882.785 342.685 881.265 346.065 878.922 348.916L886.647 355.266C890.182 350.966 892.39 345.922 893.31 340.257L883.44 338.653ZM878.935 348.9C876.59 351.728 873.41 354.029 869.22 355.731L872.984 364.996C878.492 362.758 883.099 359.545 886.633 355.282L878.935 348.9ZM869.235 355.725C865.135 357.376 860.158 358.273 854.193 358.273V368.273C861.137 368.273 867.433 367.231 872.969 365.002L869.235 355.725ZM898.614 362H893.614V367H898.614V362ZM898.614 292.182V287.182H893.614V292.182H898.614ZM922.977 292.182H927.977V287.182H922.977V292.182ZM922.977 305.455H917.977V310.455H922.977V305.455ZM923.705 305.455V310.455H927.574L928.545 306.709L923.705 305.455ZM929.75 294.682L926.591 290.806L926.58 290.815L926.57 290.823L929.75 294.682ZM942.75 291.545L941.905 296.474L941.983 296.487L942.062 296.498L942.75 291.545ZM945.886 292.227H950.886V288.518L947.336 287.442L945.886 292.227ZM945.886 313.636L944.271 318.368L950.886 320.627V313.636H945.886ZM941.295 312.682L941.875 307.716L941.875 307.716L941.295 312.682ZM929.977 314.045L932.429 318.403L932.44 318.397L932.451 318.391L929.977 314.045ZM925.386 318.682L929.732 321.155L929.74 321.141L929.748 321.127L925.386 318.682ZM923.705 362V367H928.705V362H923.705ZM903.614 362V292.182H893.614V362H903.614ZM898.614 297.182H922.977V287.182H898.614V297.182ZM917.977 292.182V305.455H927.977V292.182H917.977ZM922.977 310.455H923.705V300.455H922.977V310.455ZM928.545 306.709C929.66 302.407 931.264 299.913 932.93 298.54L926.57 290.823C922.721 293.996 920.295 298.683 918.865 304.2L928.545 306.709ZM932.909 298.557C934.77 297.04 936.901 296.273 939.523 296.273V286.273C934.69 286.273 930.305 287.778 926.591 290.806L932.909 298.557ZM939.523 296.273C940.334 296.273 941.127 296.34 941.905 296.474L943.595 286.617C942.251 286.387 940.893 286.273 939.523 286.273V296.273ZM942.062 296.498C942.909 296.616 943.699 296.789 944.436 297.012L947.336 287.442C946.074 287.06 944.773 286.778 943.438 286.593L942.062 296.498ZM940.886 292.227V313.636H950.886V292.227H940.886ZM947.502 308.905C945.821 308.331 943.919 307.954 941.875 307.716L940.716 317.648C942.308 317.834 943.467 318.094 944.271 318.368L947.502 308.905ZM941.875 307.716C939.935 307.489 938.17 307.364 936.614 307.364V317.364C937.663 317.364 939.02 317.45 940.716 317.648L941.875 307.716ZM936.614 307.364C933.366 307.364 930.289 308.115 927.504 309.7L932.451 318.391C933.605 317.734 934.952 317.364 936.614 317.364V307.364ZM927.526 309.688C924.761 311.243 922.581 313.461 921.025 316.237L929.748 321.127C930.434 319.902 931.315 319.03 932.429 318.403L927.526 309.688ZM921.041 316.208C919.42 319.055 918.705 322.256 918.705 325.636H928.705C928.705 323.683 929.11 322.248 929.732 321.155L921.041 316.208ZM918.705 325.636V362H928.705V325.636H918.705ZM923.705 357H898.614V367H923.705V357ZM1017.93 314.909V319.909H1023.14L1022.93 314.704L1017.93 314.909ZM994.841 314.909L989.859 315.333L990.248 319.909H994.841V314.909ZM993.341 311.227L997.145 307.983L997.145 307.983L993.341 311.227ZM989.932 308.864L987.987 313.47L988.048 313.496L988.11 313.52L989.932 308.864ZM979.841 309.182L977.57 304.727L977.57 304.727L979.841 309.182ZM977.568 312.545L982.566 312.692L982.57 312.567L982.567 312.441L977.568 312.545ZM978.886 315.409L975.411 319.004L975.441 319.032L975.471 319.06L978.886 315.409ZM984.295 317.455L983.401 322.374L983.412 322.376L984.295 317.455ZM998.477 320L999.374 315.081L999.361 315.079L998.477 320ZM1014.43 326.591L1011.11 330.332L1011.13 330.347L1011.15 330.362L1014.43 326.591ZM1019.75 338.909L1024.75 338.94L1024.75 338.91L1024.75 338.88L1019.75 338.909ZM1015.3 351.864L1011.39 348.736L1011.39 348.74L1015.3 351.864ZM1003.34 360.318L1005.16 364.974L1005.17 364.971L1005.18 364.968L1003.34 360.318ZM961.068 356.727L958.127 360.771L958.137 360.778L961.068 356.727ZM951.023 339.455V334.455H945.512L946.046 339.94L951.023 339.455ZM975.932 339.455L980.876 338.71L980.235 334.455H975.932V339.455ZM979.205 344.591L976.463 348.772L976.502 348.798L976.542 348.823L979.205 344.591ZM991.977 345.182L989.671 340.746L989.652 340.755L989.634 340.765L991.977 345.182ZM994.295 341.818L999.294 341.922L999.297 341.813L999.294 341.705L994.295 341.818ZM992.295 338.636L989.664 342.888L989.686 342.901L989.708 342.915L992.295 338.636ZM986.295 336.727L987.171 331.804L987.164 331.803L986.295 336.727ZM973.932 334.545L974.801 329.622L974.791 329.62L973.932 334.545ZM957.932 327.455L961.437 323.889L961.437 323.889L957.932 327.455ZM952.659 314L957.659 314.028L957.659 313.998L957.659 313.969L952.659 314ZM956.477 301.682L952.512 298.637L952.508 298.642L956.477 301.682ZM967.614 293.955L969.327 298.652L969.335 298.649L969.344 298.646L967.614 293.955ZM1008.7 297.545L1005.79 301.606L1005.8 301.613L1008.7 297.545ZM1017.93 309.909H994.841V319.909H1017.93V309.909ZM999.823 314.485C999.618 312.082 998.74 309.853 997.145 307.983L989.537 314.472C989.699 314.662 989.821 314.888 989.859 315.333L999.823 314.485ZM997.145 307.983C995.677 306.262 993.832 305.021 991.754 304.207L988.11 313.52C988.819 313.797 989.247 314.132 989.537 314.472L997.145 307.983ZM991.877 304.257C989.825 303.391 987.637 303 985.386 303V313C986.469 313 987.312 313.185 987.987 313.47L991.877 304.257ZM985.386 303C982.631 303 979.968 303.505 977.57 304.727L982.112 313.636C982.805 313.283 983.838 313 985.386 313V303ZM977.57 304.727C976.251 305.4 974.939 306.382 973.971 307.814C972.969 309.297 972.534 310.971 972.569 312.65L982.567 312.441C982.569 312.529 982.56 312.682 982.505 312.876C982.45 313.072 982.362 313.257 982.257 313.413C982.046 313.724 981.886 313.752 982.112 313.636L977.57 304.727ZM972.57 312.398C972.49 315.145 973.738 317.387 975.411 319.004L982.361 311.814C982.264 311.72 982.331 311.756 982.417 311.943C982.513 312.153 982.574 312.421 982.566 312.692L972.57 312.398ZM975.471 319.06C977.546 321.002 980.629 321.87 983.401 322.374L985.19 312.535C984.045 312.327 983.242 312.103 982.712 311.903C982.145 311.689 982.119 311.586 982.302 311.758L975.471 319.06ZM983.412 322.376L997.594 324.921L999.361 315.079L985.179 312.533L983.412 322.376ZM997.581 324.919C1004.29 326.142 1008.6 328.097 1011.11 330.332L1017.75 322.85C1013.3 318.903 1006.96 316.464 999.374 315.081L997.581 324.919ZM1011.15 330.362C1013.46 332.374 1014.73 335.053 1014.75 338.939L1024.75 338.88C1024.71 332.462 1022.43 326.929 1017.72 322.82L1011.15 330.362ZM1014.75 338.879C1014.73 342.791 1013.59 346.001 1011.39 348.736L1019.2 354.991C1022.88 350.393 1024.71 344.966 1024.75 338.94L1014.75 338.879ZM1011.39 348.74C1009.11 351.589 1005.89 353.934 1001.5 355.668L1005.18 364.968C1010.91 362.702 1015.66 359.411 1019.2 354.987L1011.39 348.74ZM1001.52 355.662C997.17 357.365 992.063 358.273 986.114 358.273V368.273C993.073 368.273 999.452 367.211 1005.16 364.974L1001.52 355.662ZM986.114 358.273C976.06 358.273 968.879 356.208 963.999 352.677L958.137 360.778C965.318 365.974 974.833 368.273 986.114 368.273V358.273ZM964.009 352.684C959.122 349.13 956.552 344.647 955.999 338.97L946.046 339.94C946.887 348.566 951.014 355.598 958.127 360.771L964.009 352.684ZM951.023 344.455H975.932V334.455H951.023V344.455ZM970.988 340.2C971.53 343.799 973.408 346.769 976.463 348.772L981.946 340.41C981.304 339.988 981 339.535 980.876 338.71L970.988 340.2ZM976.542 348.823C979.415 350.631 982.768 351.364 986.295 351.364V341.364C984.125 341.364 982.751 340.915 981.867 340.359L976.542 348.823ZM986.295 351.364C989.128 351.364 991.897 350.885 994.321 349.599L989.634 340.765C989.088 341.055 988.069 341.364 986.295 341.364V351.364ZM994.284 349.618C997.082 348.163 999.219 345.557 999.294 341.922L989.297 341.714C989.298 341.645 989.31 341.519 989.36 341.358C989.411 341.196 989.487 341.043 989.576 340.913C989.757 340.651 989.884 340.635 989.671 340.746L994.284 349.618ZM999.294 341.705C999.219 338.395 997.405 335.883 994.883 334.358L989.708 342.915C989.834 342.991 989.701 342.941 989.54 342.684C989.461 342.558 989.396 342.415 989.353 342.267C989.31 342.121 989.298 342.003 989.297 341.932L999.294 341.705ZM994.927 334.385C992.837 333.091 990.083 332.322 987.171 331.804L985.42 341.65C987.963 342.102 989.209 342.606 989.664 342.888L994.927 334.385ZM987.164 331.803L974.801 329.622L973.063 339.469L985.427 341.651L987.164 331.803ZM974.791 329.62C968.237 328.476 963.999 326.407 961.437 323.889L954.427 331.02C958.956 335.472 965.384 338.13 973.072 339.471L974.791 329.62ZM961.437 323.889C958.959 321.453 957.635 318.316 957.659 314.028L947.659 313.972C947.622 320.654 949.814 326.486 954.427 331.02L961.437 323.889ZM957.659 313.969C957.635 310.062 958.641 307.08 960.447 304.722L952.508 298.642C949.162 303.011 947.623 308.241 947.659 314.031L957.659 313.969ZM960.443 304.727C962.364 302.225 965.222 300.149 969.327 298.652L965.9 289.257C960.369 291.275 955.802 294.351 952.512 298.637L960.443 304.727ZM969.344 298.646C973.506 297.111 978.635 296.273 984.841 296.273V286.273C977.774 286.273 971.418 287.222 965.884 289.263L969.344 298.646ZM984.841 296.273C994.299 296.273 1001.1 298.239 1005.79 301.606L1011.62 293.485C1004.67 288.488 995.565 286.273 984.841 286.273V296.273ZM1005.8 301.613C1010.35 304.868 1012.69 309.208 1012.94 315.114L1022.93 314.704C1022.56 305.823 1018.76 298.587 1011.61 293.478L1005.8 301.613Z" fill="url(#paint4_linear_148_216)" mask="url(#path-5-outside-1_148_216)"/>
<path d="M63.5234 34.8515L56 54.625H64.0948L67.8088 43.9341L63.5234 34.8515Z" fill="white"/>
<path d="M74.4751 54.625L64.8566 34H72.7609L82.3794 54.625H74.4751Z" fill="white"/>
<path d="M79.1073 39.0143L76.917 34H84.5356L87.0116 39.0143H79.1073Z" fill="white"/>
<path d="M86.2498 54.625L79.4883 40.3389H87.4878L94.4398 54.625H86.2498Z" fill="white"/>
<path d="M90.882 39.0143L88.6916 34H101.643L104.024 39.0143H90.882Z" fill="white"/>
<path d="M100.405 54.625L93.8342 40.3389H101.643L108.5 54.625H100.405Z" fill="white"/>
<path d="M140.648 39.3636V35.5455H155.818V39.3636H150.568V53H145.898V39.3636H140.648ZM157.602 53V35.5455H170.181V39.3636H162.34V42.3636H169.533V46.1818H162.34V49.1818H170.147V53H157.602ZM188.827 42.0909H184.02C183.986 41.6932 183.895 41.3324 183.747 41.0085C183.605 40.6847 183.406 40.4062 183.151 40.1733C182.901 39.9347 182.597 39.7528 182.239 39.6278C181.881 39.4972 181.474 39.4318 181.02 39.4318C180.224 39.4318 179.551 39.625 179 40.0114C178.455 40.3977 178.04 40.9517 177.756 41.6733C177.477 42.3949 177.338 43.2614 177.338 44.2727C177.338 45.3409 177.48 46.2358 177.764 46.9574C178.054 47.6733 178.472 48.2131 179.017 48.5767C179.563 48.9347 180.219 49.1136 180.986 49.1136C181.423 49.1136 181.815 49.0597 182.162 48.9517C182.509 48.8381 182.81 48.6761 183.065 48.4659C183.321 48.2557 183.528 48.0028 183.688 47.7074C183.852 47.4062 183.963 47.0682 184.02 46.6932L188.827 46.7273C188.77 47.4659 188.563 48.2187 188.205 48.9858C187.847 49.7472 187.338 50.4517 186.679 51.0994C186.026 51.7415 185.216 52.2585 184.25 52.6506C183.284 53.0426 182.162 53.2386 180.884 53.2386C179.281 53.2386 177.844 52.8949 176.571 52.2074C175.304 51.5199 174.301 50.5085 173.562 49.1733C172.83 47.8381 172.463 46.2045 172.463 44.2727C172.463 42.3295 172.838 40.6932 173.588 39.3636C174.338 38.0284 175.349 37.0199 176.622 36.3381C177.895 35.6506 179.315 35.3068 180.884 35.3068C181.986 35.3068 183 35.4574 183.926 35.7585C184.852 36.0597 185.665 36.5 186.364 37.0795C187.063 37.6534 187.625 38.3608 188.051 39.2017C188.477 40.0426 188.736 41.0057 188.827 42.0909ZM190.977 53V35.5455H195.715V42.3636H201.988V35.5455H206.727V53H201.988V46.1818H195.715V53H190.977ZM224.079 35.5455V53H220.124L213.817 43.8295H213.715V53H208.977V35.5455H212.999L219.204 44.6818H219.34V35.5455H224.079ZM243.229 44.2727C243.229 46.2159 242.852 47.8551 242.096 49.1903C241.34 50.5199 240.32 51.5284 239.036 52.2159C237.752 52.8977 236.32 53.2386 234.741 53.2386C233.15 53.2386 231.712 52.8949 230.428 52.2074C229.15 51.5142 228.133 50.5028 227.377 49.1733C226.627 47.8381 226.252 46.2045 226.252 44.2727C226.252 42.3295 226.627 40.6932 227.377 39.3636C228.133 38.0284 229.15 37.0199 230.428 36.3381C231.712 35.6506 233.15 35.3068 234.741 35.3068C236.32 35.3068 237.752 35.6506 239.036 36.3381C240.32 37.0199 241.34 38.0284 242.096 39.3636C242.852 40.6932 243.229 42.3295 243.229 44.2727ZM238.354 44.2727C238.354 43.2273 238.215 42.3466 237.937 41.6307C237.664 40.9091 237.258 40.3636 236.718 39.9943C236.184 39.6193 235.525 39.4318 234.741 39.4318C233.957 39.4318 233.295 39.6193 232.755 39.9943C232.221 40.3636 231.815 40.9091 231.536 41.6307C231.263 42.3466 231.127 43.2273 231.127 44.2727C231.127 45.3182 231.263 46.2017 231.536 46.9233C231.815 47.6392 232.221 48.1847 232.755 48.5597C233.295 48.929 233.957 49.1136 234.741 49.1136C235.525 49.1136 236.184 48.929 236.718 48.5597C237.258 48.1847 237.664 47.6392 237.937 46.9233C238.215 46.2017 238.354 45.3182 238.354 44.2727ZM254.831 41C254.786 40.4318 254.572 39.9886 254.192 39.6705C253.817 39.3523 253.246 39.1932 252.479 39.1932C251.99 39.1932 251.589 39.2528 251.277 39.3722C250.97 39.4858 250.743 39.642 250.595 39.8409C250.447 40.0398 250.371 40.267 250.365 40.5227C250.354 40.733 250.391 40.9233 250.476 41.0938C250.567 41.2585 250.709 41.4091 250.902 41.5455C251.095 41.6761 251.342 41.7955 251.643 41.9034C251.945 42.0114 252.303 42.108 252.717 42.1932L254.149 42.5C255.115 42.7045 255.942 42.9744 256.629 43.3097C257.317 43.6449 257.879 44.0398 258.317 44.4943C258.754 44.9432 259.075 45.4489 259.28 46.0114C259.49 46.5739 259.598 47.1875 259.604 47.8523C259.598 49 259.311 49.9716 258.743 50.767C258.175 51.5625 257.362 52.1676 256.305 52.5824C255.254 52.9972 253.99 53.2045 252.513 53.2045C250.996 53.2045 249.672 52.9801 248.541 52.5312C247.416 52.0824 246.541 51.392 245.916 50.4602C245.297 49.5227 244.984 48.3239 244.979 46.8636H249.479C249.507 47.3977 249.641 47.8466 249.879 48.2102C250.118 48.5739 250.453 48.8494 250.885 49.0369C251.322 49.2244 251.842 49.3182 252.445 49.3182C252.95 49.3182 253.374 49.2557 253.714 49.1307C254.055 49.0057 254.314 48.8324 254.49 48.6108C254.666 48.3892 254.757 48.1364 254.763 47.8523C254.757 47.5852 254.669 47.3523 254.499 47.1534C254.334 46.9489 254.061 46.767 253.68 46.608C253.3 46.4432 252.786 46.2898 252.138 46.1477L250.399 45.7727C248.854 45.4375 247.635 44.8778 246.743 44.0938C245.857 43.304 245.416 42.2273 245.422 40.8636C245.416 39.7557 245.712 38.7869 246.308 37.9574C246.911 37.1222 247.743 36.4716 248.805 36.0057C249.874 35.5398 251.098 35.3068 252.479 35.3068C253.888 35.3068 255.107 35.5426 256.135 36.0142C257.163 36.4858 257.956 37.1506 258.513 38.0085C259.075 38.8608 259.359 39.858 259.365 41H254.831ZM261.406 53V35.5455H268.94C270.236 35.5455 271.369 35.8011 272.341 36.3125C273.313 36.8239 274.068 37.5426 274.608 38.4688C275.148 39.3949 275.418 40.4773 275.418 41.7159C275.418 42.9659 275.139 44.0483 274.582 44.9631C274.031 45.8778 273.256 46.5824 272.256 47.0767C271.261 47.571 270.099 47.8182 268.77 47.8182H264.27V44.1364H267.815C268.372 44.1364 268.847 44.0398 269.239 43.8466C269.636 43.6477 269.94 43.3665 270.151 43.0028C270.366 42.6392 270.474 42.2102 270.474 41.7159C270.474 41.2159 270.366 40.7898 270.151 40.4375C269.94 40.0795 269.636 39.8068 269.239 39.6193C268.847 39.4261 268.372 39.3295 267.815 39.3295H266.145V53H261.406ZM279.511 53H274.397L280.158 35.5455H286.636L292.397 53H287.283L283.465 40.3523H283.329L279.511 53ZM278.556 46.1136H288.17V49.6591H278.556V46.1136ZM294.078 53V35.5455H301.612C302.908 35.5455 304.041 35.7812 305.013 36.2528C305.984 36.7244 306.74 37.4034 307.28 38.2898C307.82 39.1761 308.089 40.2386 308.089 41.4773C308.089 42.7273 307.811 43.7812 307.254 44.6392C306.703 45.4972 305.928 46.1449 304.928 46.5824C303.933 47.0199 302.771 47.2386 301.442 47.2386H296.942V43.5568H300.487C301.044 43.5568 301.518 43.4886 301.911 43.3523C302.308 43.2102 302.612 42.9858 302.822 42.679C303.038 42.3722 303.146 41.9716 303.146 41.4773C303.146 40.9773 303.038 40.571 302.822 40.2585C302.612 39.9403 302.308 39.7074 301.911 39.5597C301.518 39.4062 301.044 39.3295 300.487 39.3295H298.817V53H294.078ZM304.305 44.9886L308.669 53H303.521L299.26 44.9886H304.305ZM315.189 35.5455L318.053 40.625H318.189L321.087 35.5455H326.371L321.155 44.2727L326.575 53H321.155L318.189 47.8182H318.053L315.087 53H309.7L315.053 44.2727L309.871 35.5455H315.189Z" fill="white"/>
<g opacity="0.37">
<path d="M246.33 439.231H144.44L131.005 413.97C130.194 412.446 128.608 411.493 126.882 411.493H33.6698C31.0912 411.493 29 413.584 29 416.163V591.837C29 594.416 31.0912 596.507 33.6698 596.507H246.33C248.909 596.507 251 594.416 251 591.837V443.901C251 441.322 248.909 439.231 246.33 439.231ZM38.3396 587.168V420.833H124.076L137.511 446.094C138.322 447.618 139.908 448.571 141.634 448.571H241.66V587.168H38.3396V587.168Z" fill="url(#paint5_linear_148_216)"/>
<path d="M99.8231 439.326H99.9337C102.513 439.326 104.603 437.235 104.603 434.656C104.603 432.078 102.513 429.986 99.9337 429.986H99.8231C97.2445 429.986 95.1533 432.078 95.1533 434.656C95.1533 437.236 97.2445 439.326 99.8231 439.326Z" fill="url(#paint6_linear_148_216)"/>
<path d="M86.5429 429.985H52.1615C49.5829 429.985 47.4917 432.076 47.4917 434.655C47.4917 437.234 49.5829 439.325 52.1615 439.325H86.5429C89.1215 439.325 91.2127 437.234 91.2127 434.655C91.2127 432.076 89.1215 429.985 86.5429 429.985Z" fill="url(#paint7_linear_148_216)"/>
<path d="M184.302 480.745C170.097 476.853 155.207 470.538 142.374 462.962C140.909 462.097 139.091 462.097 137.626 462.962C124.232 470.869 110.517 476.685 95.6984 480.745C93.6688 481.301 92.2622 483.145 92.2622 485.249V508.084C92.2622 532.446 103.508 548.578 112.942 557.821C123.807 568.467 135.511 573.426 140 573.426C144.489 573.426 156.193 568.467 167.058 557.821C176.492 548.578 187.738 532.446 187.738 508.084V485.249C187.737 483.145 186.33 481.301 184.302 480.745ZM178.398 508.084C178.398 528.93 168.906 542.782 160.944 550.732C151.515 560.147 141.925 563.859 140 564.081C138.075 563.859 128.485 560.147 119.056 550.732C111.094 542.782 101.602 528.93 101.602 508.084V488.776C115.06 484.81 127.679 479.423 140.002 472.382C152.055 479.246 165.213 484.862 178.399 488.773L178.398 508.084Z" fill="url(#paint8_linear_148_216)"/>
<path d="M120.423 514.669C118.599 512.846 115.644 512.846 113.819 514.669C111.995 516.493 111.995 519.45 113.819 521.274L129.004 536.458C129.916 537.37 131.111 537.826 132.306 537.826C133.501 537.826 134.696 537.371 135.607 536.458L166.181 505.885C168.005 504.061 168.005 501.104 166.181 499.28C164.358 497.457 161.402 497.457 159.577 499.28L132.305 526.552L120.423 514.669Z" fill="url(#paint9_linear_148_216)"/>
<path d="M194.046 568.677H193.935C191.356 568.677 189.265 570.768 189.265 573.347C189.265 575.926 191.356 578.017 193.935 578.017H194.046C196.625 578.017 198.716 575.925 198.716 573.347C198.716 570.768 196.625 568.677 194.046 568.677Z" fill="url(#paint10_linear_148_216)"/>
<path d="M227.837 568.677H207.327C204.748 568.677 202.657 570.767 202.657 573.346C202.657 575.925 204.748 578.016 207.327 578.016H227.837C230.415 578.016 232.507 575.925 232.507 573.346C232.507 570.767 230.415 568.677 227.837 568.677Z" fill="url(#paint11_linear_148_216)"/>
</g>
<g opacity="0.38">
<path d="M998 89L1036 127L998 165M1055 165H1105.67M960 51H1137.33V203H960V51Z" stroke="url(#paint12_linear_148_216)" stroke-width="16"/>
</g>
</g>
<defs>
<linearGradient id="paint0_linear_148_216" x1="-63.757" y1="-34.0071" x2="-63.757" y2="347.166" gradientUnits="userSpaceOnUse">
<stop stop-color="#FF9E0B"/>
<stop offset="1" stop-color="#EC4899"/>
</linearGradient>
<linearGradient id="paint1_linear_148_216" x1="1173" y1="695.827" x2="1173" y2="969.442" gradientUnits="userSpaceOnUse">
<stop stop-color="#FF9E0B"/>
<stop offset="1" stop-color="#F24E52"/>
</linearGradient>
<linearGradient id="paint2_linear_148_216" x1="882.5" y1="530" x2="882.5" y2="919" gradientUnits="userSpaceOnUse">
<stop stop-color="#FF9E0B"/>
<stop offset="1" stop-color="#9C67E7"/>
</linearGradient>
<linearGradient id="paint3_linear_148_216" x1="491" y1="30" x2="491" y2="162" gradientUnits="userSpaceOnUse">
<stop stop-color="#FF9E0B"/>
<stop offset="1" stop-color="#DA46EB"/>
</linearGradient>
<linearGradient id="paint4_linear_148_216" x1="600" y1="238" x2="600" y2="393" gradientUnits="userSpaceOnUse">
<stop stop-color="#FF9E0B"/>
<stop offset="0.49" stop-color="#F24E52"/>
</linearGradient>
<linearGradient id="paint5_linear_148_216" x1="140" y1="411.493" x2="140" y2="596.507" gradientUnits="userSpaceOnUse">
<stop stop-color="#F24E52"/>
<stop offset="1" stop-color="#9C67E7"/>
</linearGradient>
<linearGradient id="paint6_linear_148_216" x1="99.8784" y1="429.986" x2="99.8784" y2="439.326" gradientUnits="userSpaceOnUse">
<stop stop-color="#F24E52"/>
<stop offset="1" stop-color="#9C67E7"/>
</linearGradient>
<linearGradient id="paint7_linear_148_216" x1="69.3522" y1="429.985" x2="69.3522" y2="439.325" gradientUnits="userSpaceOnUse">
<stop stop-color="#F24E52"/>
<stop offset="1" stop-color="#9C67E7"/>
</linearGradient>
<linearGradient id="paint8_linear_148_216" x1="140" y1="462.313" x2="140" y2="573.426" gradientUnits="userSpaceOnUse">
<stop stop-color="#F24E52"/>
<stop offset="1" stop-color="#9C67E7"/>
</linearGradient>
<linearGradient id="paint9_linear_148_216" x1="140" y1="497.913" x2="140" y2="537.826" gradientUnits="userSpaceOnUse">
<stop stop-color="#F24E52"/>
<stop offset="1" stop-color="#9C67E7"/>
</linearGradient>
<linearGradient id="paint10_linear_148_216" x1="193.99" y1="568.677" x2="193.99" y2="578.017" gradientUnits="userSpaceOnUse">
<stop stop-color="#F24E52"/>
<stop offset="1" stop-color="#9C67E7"/>
</linearGradient>
<linearGradient id="paint11_linear_148_216" x1="217.582" y1="568.677" x2="217.582" y2="578.016" gradientUnits="userSpaceOnUse">
<stop stop-color="#F24E52"/>
<stop offset="1" stop-color="#9C67E7"/>
</linearGradient>
<linearGradient id="paint12_linear_148_216" x1="1048.67" y1="51" x2="1048.67" y2="203" gradientUnits="userSpaceOnUse">
<stop stop-color="#FF9E0B"/>
<stop offset="1" stop-color="#F24E52"/>
</linearGradient>
<clipPath id="clip0_148_216">
<rect width="1200" height="630" fill="white"/>
</clipPath>
</defs>
</svg>
