<svg width="1200" height="630" viewBox="0 0 1200 630" fill="none" xmlns="http://www.w3.org/2000/svg">
<g clip-path="url(#clip0_148_399)">
<rect width="1200" height="630" fill="black"/>
<rect x="-427.809" y="-32.4841" width="729.486" height="376.173" transform="rotate(-19.4848 -427.809 -32.4841)" stroke="url(#paint0_linear_148_399)" stroke-width="5"/>
<rect x="883" y="695.827" width="580" height="273.616" transform="rotate(-35.26 883 695.827)" fill="url(#paint1_linear_148_399)"/>
<circle cx="882.5" cy="724.5" r="193" stroke="url(#paint2_linear_148_399)" stroke-width="3"/>
<path opacity="0.49" d="M415 58.3636C414.121 58.3636 413.367 58.0568 412.739 57.4432C412.117 56.822 411.811 56.0682 411.818 55.1818C411.811 54.3182 412.117 53.5795 412.739 52.9659C413.367 52.3523 414.121 52.0455 415 52.0455C415.833 52.0455 416.568 52.3523 417.205 52.9659C417.848 53.5795 418.174 54.3182 418.182 55.1818C418.174 55.7727 418.019 56.3106 417.716 56.7955C417.42 57.2727 417.034 57.6553 416.557 57.9432C416.08 58.2235 415.561 58.3636 415 58.3636ZM459.003 58.3636C458.124 58.3636 457.37 58.0568 456.741 57.4432C456.12 56.822 455.813 56.0682 455.821 55.1818C455.813 54.3182 456.12 53.5795 456.741 52.9659C457.37 52.3523 458.124 52.0455 459.003 52.0455C459.836 52.0455 460.571 52.3523 461.207 52.9659C461.851 53.5795 462.177 54.3182 462.184 55.1818C462.177 55.7727 462.021 56.3106 461.718 56.7955C461.423 57.2727 461.037 57.6553 460.559 57.9432C460.082 58.2235 459.563 58.3636 459.003 58.3636ZM503.005 58.3636C502.126 58.3636 501.372 58.0568 500.744 57.4432C500.122 56.822 499.816 56.0682 499.823 55.1818C499.816 54.3182 500.122 53.5795 500.744 52.9659C501.372 52.3523 502.126 52.0455 503.005 52.0455C503.838 52.0455 504.573 52.3523 505.21 52.9659C505.853 53.5795 506.179 54.3182 506.187 55.1818C506.179 55.7727 506.024 56.3106 505.721 56.7955C505.425 57.2727 505.039 57.6553 504.562 57.9432C504.085 58.2235 503.566 58.3636 503.005 58.3636ZM547.008 58.3636C546.129 58.3636 545.375 58.0568 544.746 57.4432C544.125 56.822 543.818 56.0682 543.826 55.1818C543.818 54.3182 544.125 53.5795 544.746 52.9659C545.375 52.3523 546.129 52.0455 547.008 52.0455C547.841 52.0455 548.576 52.3523 549.212 52.9659C549.856 53.5795 550.182 54.3182 550.189 55.1818C550.182 55.7727 550.026 56.3106 549.723 56.7955C549.428 57.2727 549.042 57.6553 548.564 57.9432C548.087 58.2235 547.568 58.3636 547.008 58.3636ZM415 91.3636C414.121 91.3636 413.367 91.0568 412.739 90.4432C412.117 89.822 411.811 89.0682 411.818 88.1818C411.811 87.3182 412.117 86.5795 412.739 85.9659C413.367 85.3523 414.121 85.0455 415 85.0455C415.833 85.0455 416.568 85.3523 417.205 85.9659C417.848 86.5795 418.174 87.3182 418.182 88.1818C418.174 88.7727 418.019 89.3106 417.716 89.7955C417.42 90.2727 417.034 90.6553 416.557 90.9432C416.08 91.2235 415.561 91.3636 415 91.3636ZM459.003 91.3636C458.124 91.3636 457.37 91.0568 456.741 90.4432C456.12 89.822 455.813 89.0682 455.821 88.1818C455.813 87.3182 456.12 86.5795 456.741 85.9659C457.37 85.3523 458.124 85.0455 459.003 85.0455C459.836 85.0455 460.571 85.3523 461.207 85.9659C461.851 86.5795 462.177 87.3182 462.184 88.1818C462.177 88.7727 462.021 89.3106 461.718 89.7955C461.423 90.2727 461.037 90.6553 460.559 90.9432C460.082 91.2235 459.563 91.3636 459.003 91.3636ZM503.005 91.3636C502.126 91.3636 501.372 91.0568 500.744 90.4432C500.122 89.822 499.816 89.0682 499.823 88.1818C499.816 87.3182 500.122 86.5795 500.744 85.9659C501.372 85.3523 502.126 85.0455 503.005 85.0455C503.838 85.0455 504.573 85.3523 505.21 85.9659C505.853 86.5795 506.179 87.3182 506.187 88.1818C506.179 88.7727 506.024 89.3106 505.721 89.7955C505.425 90.2727 505.039 90.6553 504.562 90.9432C504.085 91.2235 503.566 91.3636 503.005 91.3636ZM547.008 91.3636C546.129 91.3636 545.375 91.0568 544.746 90.4432C544.125 89.822 543.818 89.0682 543.826 88.1818C543.818 87.3182 544.125 86.5795 544.746 85.9659C545.375 85.3523 546.129 85.0455 547.008 85.0455C547.841 85.0455 548.576 85.3523 549.212 85.9659C549.856 86.5795 550.182 87.3182 550.189 88.1818C550.182 88.7727 550.026 89.3106 549.723 89.7955C549.428 90.2727 549.042 90.6553 548.564 90.9432C548.087 91.2235 547.568 91.3636 547.008 91.3636ZM415 124.364C414.121 124.364 413.367 124.057 412.739 123.443C412.117 122.822 411.811 122.068 411.818 121.182C411.811 120.318 412.117 119.58 412.739 118.966C413.367 118.352 414.121 118.045 415 118.045C415.833 118.045 416.568 118.352 417.205 118.966C417.848 119.58 418.174 120.318 418.182 121.182C418.174 121.773 418.019 122.311 417.716 122.795C417.42 123.273 417.034 123.655 416.557 123.943C416.08 124.223 415.561 124.364 415 124.364ZM459.003 124.364C458.124 124.364 457.37 124.057 456.741 123.443C456.12 122.822 455.813 122.068 455.821 121.182C455.813 120.318 456.12 119.58 456.741 118.966C457.37 118.352 458.124 118.045 459.003 118.045C459.836 118.045 460.571 118.352 461.207 118.966C461.851 119.58 462.177 120.318 462.184 121.182C462.177 121.773 462.021 122.311 461.718 122.795C461.423 123.273 461.037 123.655 460.559 123.943C460.082 124.223 459.563 124.364 459.003 124.364ZM503.005 124.364C502.126 124.364 501.372 124.057 500.744 123.443C500.122 122.822 499.816 122.068 499.823 121.182C499.816 120.318 500.122 119.58 500.744 118.966C501.372 118.352 502.126 118.045 503.005 118.045C503.838 118.045 504.573 118.352 505.21 118.966C505.853 119.58 506.179 120.318 506.187 121.182C506.179 121.773 506.024 122.311 505.721 122.795C505.425 123.273 505.039 123.655 504.562 123.943C504.085 124.223 503.566 124.364 503.005 124.364ZM547.008 124.364C546.129 124.364 545.375 124.057 544.746 123.443C544.125 122.822 543.818 122.068 543.826 121.182C543.818 120.318 544.125 119.58 544.746 118.966C545.375 118.352 546.129 118.045 547.008 118.045C547.841 118.045 548.576 118.352 549.212 118.966C549.856 119.58 550.182 120.318 550.189 121.182C550.182 121.773 550.026 122.311 549.723 122.795C549.428 123.273 549.042 123.655 548.564 123.943C548.087 124.223 547.568 124.364 547.008 124.364ZM415 157.364C414.121 157.364 413.367 157.057 412.739 156.443C412.117 155.822 411.811 155.068 411.818 154.182C411.811 153.318 412.117 152.58 412.739 151.966C413.367 151.352 414.121 151.045 415 151.045C415.833 151.045 416.568 151.352 417.205 151.966C417.848 152.58 418.174 153.318 418.182 154.182C418.174 154.773 418.019 155.311 417.716 155.795C417.42 156.273 417.034 156.655 416.557 156.943C416.08 157.223 415.561 157.364 415 157.364ZM459.003 157.364C458.124 157.364 457.37 157.057 456.741 156.443C456.12 155.822 455.813 155.068 455.821 154.182C455.813 153.318 456.12 152.58 456.741 151.966C457.37 151.352 458.124 151.045 459.003 151.045C459.836 151.045 460.571 151.352 461.207 151.966C461.851 152.58 462.177 153.318 462.184 154.182C462.177 154.773 462.021 155.311 461.718 155.795C461.423 156.273 461.037 156.655 460.559 156.943C460.082 157.223 459.563 157.364 459.003 157.364ZM503.005 157.364C502.126 157.364 501.372 157.057 500.744 156.443C500.122 155.822 499.816 155.068 499.823 154.182C499.816 153.318 500.122 152.58 500.744 151.966C501.372 151.352 502.126 151.045 503.005 151.045C503.838 151.045 504.573 151.352 505.21 151.966C505.853 152.58 506.179 153.318 506.187 154.182C506.179 154.773 506.024 155.311 505.721 155.795C505.425 156.273 505.039 156.655 504.562 156.943C504.085 157.223 503.566 157.364 503.005 157.364ZM547.008 157.364C546.129 157.364 545.375 157.057 544.746 156.443C544.125 155.822 543.818 155.068 543.826 154.182C543.818 153.318 544.125 152.58 544.746 151.966C545.375 151.352 546.129 151.045 547.008 151.045C547.841 151.045 548.576 151.352 549.212 151.966C549.856 152.58 550.182 153.318 550.189 154.182C550.182 154.773 550.026 155.311 549.723 155.795C549.428 156.273 549.042 156.655 548.564 156.943C548.087 157.223 547.568 157.364 547.008 157.364Z" fill="url(#paint3_linear_148_399)"/>
<mask id="path-5-outside-1_148_399" maskUnits="userSpaceOnUse" x="174" y="262" width="853" height="133" fill="black">
<rect fill="white" x="174" y="262" width="853" height="133"/>
<path d="M232.182 298C231.939 294.97 230.803 292.606 228.773 290.909C226.773 289.212 223.727 288.364 219.636 288.364C217.03 288.364 214.894 288.682 213.227 289.318C211.591 289.924 210.379 290.758 209.591 291.818C208.803 292.879 208.394 294.091 208.364 295.455C208.303 296.576 208.5 297.591 208.955 298.5C209.439 299.379 210.197 300.182 211.227 300.909C212.258 301.606 213.576 302.242 215.182 302.818C216.788 303.394 218.697 303.909 220.909 304.364L228.545 306C233.697 307.091 238.106 308.53 241.773 310.318C245.439 312.106 248.439 314.212 250.773 316.636C253.106 319.03 254.818 321.727 255.909 324.727C257.03 327.727 257.606 331 257.636 334.545C257.606 340.667 256.076 345.848 253.045 350.091C250.015 354.333 245.682 357.561 240.045 359.773C234.439 361.985 227.697 363.091 219.818 363.091C211.727 363.091 204.667 361.894 198.636 359.5C192.636 357.106 187.97 353.424 184.636 348.455C181.333 343.455 179.667 337.061 179.636 329.273H203.636C203.788 332.121 204.5 334.515 205.773 336.455C207.045 338.394 208.833 339.864 211.136 340.864C213.47 341.864 216.242 342.364 219.455 342.364C222.152 342.364 224.409 342.03 226.227 341.364C228.045 340.697 229.424 339.773 230.364 338.591C231.303 337.409 231.788 336.061 231.818 334.545C231.788 333.121 231.318 331.879 230.409 330.818C229.53 329.727 228.076 328.758 226.045 327.909C224.015 327.03 221.273 326.212 217.818 325.455L208.545 323.455C200.303 321.667 193.803 318.682 189.045 314.5C184.318 310.288 181.97 304.545 182 297.273C181.97 291.364 183.545 286.197 186.727 281.773C189.939 277.318 194.379 273.848 200.045 271.364C205.742 268.879 212.273 267.636 219.636 267.636C227.152 267.636 233.652 268.894 239.136 271.409C244.621 273.924 248.848 277.47 251.818 282.045C254.818 286.591 256.333 291.909 256.364 298H232.182ZM292.705 322.727V362H267.614V268.909H291.795V305.455H292.523C294.098 301 296.72 297.53 300.386 295.045C304.053 292.53 308.462 291.273 313.614 291.273C318.553 291.273 322.841 292.394 326.477 294.636C330.144 296.879 332.977 299.97 334.977 303.909C337.008 307.848 338.008 312.364 337.977 317.455V362H312.886V322.727C312.917 319.273 312.053 316.561 310.295 314.591C308.568 312.621 306.098 311.636 302.886 311.636C300.856 311.636 299.068 312.091 297.523 313C296.008 313.879 294.826 315.152 293.977 316.818C293.159 318.455 292.735 320.424 292.705 322.727ZM383.818 363.273C376.364 363.273 369.939 361.848 364.545 359C359.182 356.121 355.045 352 352.136 346.636C349.258 341.242 347.818 334.788 347.818 327.273C347.818 320.061 349.273 313.758 352.182 308.364C355.091 302.97 359.197 298.773 364.5 295.773C369.803 292.773 376.061 291.273 383.273 291.273C388.545 291.273 393.318 292.091 397.591 293.727C401.864 295.364 405.515 297.742 408.545 300.864C411.576 303.955 413.909 307.712 415.545 312.136C417.182 316.561 418 321.545 418 327.091V332.909H355.636V319.091H394.909C394.879 317.091 394.364 315.333 393.364 313.818C392.394 312.273 391.076 311.076 389.409 310.227C387.773 309.348 385.909 308.909 383.818 308.909C381.788 308.909 379.924 309.348 378.227 310.227C376.53 311.076 375.167 312.258 374.136 313.773C373.136 315.288 372.606 317.061 372.545 319.091V334C372.545 336.242 373.015 338.242 373.955 340C374.894 341.758 376.242 343.136 378 344.136C379.758 345.136 381.879 345.636 384.364 345.636C386.091 345.636 387.667 345.394 389.091 344.909C390.545 344.424 391.788 343.727 392.818 342.818C393.848 341.879 394.606 340.758 395.091 339.455H418C417.212 344.303 415.348 348.515 412.409 352.091C409.47 355.636 405.576 358.394 400.727 360.364C395.909 362.303 390.273 363.273 383.818 363.273ZM453.33 268.909V362H428.239V268.909H453.33ZM465.75 362V268.909H490.841V304.364H491.205C492.114 302 493.447 299.833 495.205 297.864C496.962 295.864 499.144 294.273 501.75 293.091C504.356 291.879 507.386 291.273 510.841 291.273C515.447 291.273 519.826 292.5 523.977 294.955C528.159 297.409 531.553 301.273 534.159 306.545C536.795 311.818 538.114 318.667 538.114 327.091C538.114 335.152 536.856 341.833 534.341 347.136C531.856 352.439 528.523 356.394 524.341 359C520.189 361.606 515.629 362.909 510.659 362.909C507.386 362.909 504.462 362.379 501.886 361.318C499.341 360.227 497.159 358.758 495.341 356.909C493.553 355.03 492.174 352.909 491.205 350.545H490.659V362H465.75ZM490.295 327.091C490.295 330.485 490.735 333.424 491.614 335.909C492.523 338.364 493.795 340.273 495.432 341.636C497.098 342.97 499.083 343.636 501.386 343.636C503.689 343.636 505.644 342.985 507.25 341.682C508.886 340.348 510.129 338.455 510.977 336C511.856 333.515 512.295 330.545 512.295 327.091C512.295 323.636 511.856 320.682 510.977 318.227C510.129 315.742 508.886 313.848 507.25 312.545C505.644 311.212 503.689 310.545 501.386 310.545C499.083 310.545 497.098 311.212 495.432 312.545C493.795 313.848 492.523 315.742 491.614 318.227C490.735 320.682 490.295 323.636 490.295 327.091ZM561.761 388.182C558.883 388.182 556.14 387.955 553.534 387.5C550.928 387.076 548.64 386.485 546.67 385.727L552.125 367.909C554.186 368.636 556.064 369.106 557.761 369.318C559.489 369.53 560.958 369.409 562.17 368.955C563.413 368.5 564.307 367.636 564.852 366.364L565.398 365.091L540.852 292.182H567.034L578.307 340.545H579.034L590.489 292.182H616.852L591.398 367.818C590.125 371.667 588.277 375.121 585.852 378.182C583.458 381.273 580.307 383.712 576.398 385.5C572.489 387.288 567.61 388.182 561.761 388.182ZM699.307 298C699.064 294.97 697.928 292.606 695.898 290.909C693.898 289.212 690.852 288.364 686.761 288.364C684.155 288.364 682.019 288.682 680.352 289.318C678.716 289.924 677.504 290.758 676.716 291.818C675.928 292.879 675.519 294.091 675.489 295.455C675.428 296.576 675.625 297.591 676.08 298.5C676.564 299.379 677.322 300.182 678.352 300.909C679.383 301.606 680.701 302.242 682.307 302.818C683.913 303.394 685.822 303.909 688.034 304.364L695.67 306C700.822 307.091 705.231 308.53 708.898 310.318C712.564 312.106 715.564 314.212 717.898 316.636C720.231 319.03 721.943 321.727 723.034 324.727C724.155 327.727 724.731 331 724.761 334.545C724.731 340.667 723.201 345.848 720.17 350.091C717.14 354.333 712.807 357.561 707.17 359.773C701.564 361.985 694.822 363.091 686.943 363.091C678.852 363.091 671.792 361.894 665.761 359.5C659.761 357.106 655.095 353.424 651.761 348.455C648.458 343.455 646.792 337.061 646.761 329.273H670.761C670.913 332.121 671.625 334.515 672.898 336.455C674.17 338.394 675.958 339.864 678.261 340.864C680.595 341.864 683.367 342.364 686.58 342.364C689.277 342.364 691.534 342.03 693.352 341.364C695.17 340.697 696.549 339.773 697.489 338.591C698.428 337.409 698.913 336.061 698.943 334.545C698.913 333.121 698.443 331.879 697.534 330.818C696.655 329.727 695.201 328.758 693.17 327.909C691.14 327.03 688.398 326.212 684.943 325.455L675.67 323.455C667.428 321.667 660.928 318.682 656.17 314.5C651.443 310.288 649.095 304.545 649.125 297.273C649.095 291.364 650.67 286.197 653.852 281.773C657.064 277.318 661.504 273.848 667.17 271.364C672.867 268.879 679.398 267.636 686.761 267.636C694.277 267.636 700.777 268.894 706.261 271.409C711.746 273.924 715.973 277.47 718.943 282.045C721.943 286.591 723.458 291.909 723.489 298H699.307ZM780.011 331.455V292.182H805.102V362H781.284V348.727H780.557C779.042 353.182 776.39 356.667 772.602 359.182C768.814 361.667 764.314 362.909 759.102 362.909C754.223 362.909 749.951 361.788 746.284 359.545C742.648 357.303 739.814 354.212 737.784 350.273C735.784 346.333 734.769 341.818 734.739 336.727V292.182H759.83V331.455C759.86 334.909 760.739 337.621 762.466 339.591C764.223 341.561 766.678 342.545 769.83 342.545C771.92 342.545 773.723 342.106 775.239 341.227C776.784 340.318 777.966 339.045 778.784 337.409C779.633 335.742 780.042 333.758 780.011 331.455ZM817.864 362V292.182H842.227V305.455H842.955C844.227 300.545 846.242 296.955 849 294.682C851.788 292.409 855.045 291.273 858.773 291.273C859.864 291.273 860.939 291.364 862 291.545C863.091 291.697 864.136 291.924 865.136 292.227V313.636C863.894 313.212 862.364 312.894 860.545 312.682C858.727 312.47 857.167 312.364 855.864 312.364C853.409 312.364 851.197 312.924 849.227 314.045C847.288 315.136 845.758 316.682 844.636 318.682C843.515 320.652 842.955 322.97 842.955 325.636V362H817.864ZM903 389.636C896 389.636 890 388.636 885 386.636C880.03 384.667 876.167 381.939 873.409 378.455C870.682 375 869.152 371.03 868.818 366.545H893C893.242 368.03 893.848 369.227 894.818 370.136C895.788 371.045 897.03 371.697 898.545 372.091C900.091 372.515 901.818 372.727 903.727 372.727C906.97 372.727 909.652 371.939 911.773 370.364C913.924 368.788 915 365.939 915 361.818V350H914.273C913.364 352.364 911.97 354.379 910.091 356.045C908.212 357.682 905.955 358.939 903.318 359.818C900.682 360.667 897.788 361.091 894.636 361.091C889.667 361.091 885.091 359.939 880.909 357.636C876.758 355.333 873.424 351.682 870.909 346.682C868.424 341.682 867.182 335.152 867.182 327.091C867.182 318.667 868.485 311.818 871.091 306.545C873.727 301.273 877.121 297.409 881.273 294.955C885.455 292.5 889.848 291.273 894.455 291.273C897.909 291.273 900.939 291.879 903.545 293.091C906.152 294.273 908.333 295.864 910.091 297.864C911.848 299.833 913.182 302 914.091 304.364H914.636V292.182H939.727V361.818C939.727 367.727 938.197 372.742 935.136 376.864C932.106 381.015 927.833 384.182 922.318 386.364C916.803 388.545 910.364 389.636 903 389.636ZM903.909 343.273C906.212 343.273 908.182 342.636 909.818 341.364C911.485 340.061 912.758 338.212 913.636 335.818C914.545 333.394 915 330.485 915 327.091C915 323.636 914.545 320.682 913.636 318.227C912.758 315.742 911.485 313.848 909.818 312.545C908.182 311.212 906.212 310.545 903.909 310.545C901.606 310.545 899.636 311.212 898 312.545C896.394 313.848 895.152 315.742 894.273 318.227C893.424 320.682 893 323.636 893 327.091C893 330.545 893.424 333.485 894.273 335.909C895.152 338.303 896.394 340.136 898 341.409C899.636 342.652 901.606 343.273 903.909 343.273ZM985.943 363.273C978.489 363.273 972.064 361.848 966.67 359C961.307 356.121 957.17 352 954.261 346.636C951.383 341.242 949.943 334.788 949.943 327.273C949.943 320.061 951.398 313.758 954.307 308.364C957.216 302.97 961.322 298.773 966.625 295.773C971.928 292.773 978.186 291.273 985.398 291.273C990.67 291.273 995.443 292.091 999.716 293.727C1003.99 295.364 1007.64 297.742 1010.67 300.864C1013.7 303.955 1016.03 307.712 1017.67 312.136C1019.31 316.561 1020.12 321.545 1020.12 327.091V332.909H957.761V319.091H997.034C997.004 317.091 996.489 315.333 995.489 313.818C994.519 312.273 993.201 311.076 991.534 310.227C989.898 309.348 988.034 308.909 985.943 308.909C983.913 308.909 982.049 309.348 980.352 310.227C978.655 311.076 977.292 312.258 976.261 313.773C975.261 315.288 974.731 317.061 974.67 319.091V334C974.67 336.242 975.14 338.242 976.08 340C977.019 341.758 978.367 343.136 980.125 344.136C981.883 345.136 984.004 345.636 986.489 345.636C988.216 345.636 989.792 345.394 991.216 344.909C992.67 344.424 993.913 343.727 994.943 342.818C995.973 341.879 996.731 340.758 997.216 339.455H1020.12C1019.34 344.303 1017.47 348.515 1014.53 352.091C1011.59 355.636 1007.7 358.394 1002.85 360.364C998.034 362.303 992.398 363.273 985.943 363.273Z"/>
</mask>
<path d="M232.182 298L227.198 298.399L227.566 303H232.182V298ZM228.773 290.909L225.538 294.722L225.552 294.734L225.566 294.745L228.773 290.909ZM213.227 289.318L214.964 294.007L214.987 293.998L215.011 293.989L213.227 289.318ZM209.591 291.818L205.577 288.837L205.577 288.837L209.591 291.818ZM208.364 295.455L213.356 295.724L213.361 295.645L213.362 295.566L208.364 295.455ZM208.955 298.5L204.482 300.736L204.528 300.827L204.577 300.915L208.955 298.5ZM211.227 300.909L208.344 304.994L208.385 305.023L208.426 305.051L211.227 300.909ZM220.909 304.364L221.957 299.475L221.936 299.47L221.915 299.466L220.909 304.364ZM228.545 306L227.498 310.889L227.51 310.892L228.545 306ZM241.773 310.318L239.581 314.812L239.581 314.812L241.773 310.318ZM250.773 316.636L247.17 320.104L247.181 320.115L247.192 320.126L250.773 316.636ZM255.909 324.727L251.21 326.436L251.218 326.457L251.226 326.478L255.909 324.727ZM257.636 334.545L262.636 334.57L262.636 334.536L262.636 334.503L257.636 334.545ZM253.045 350.091L257.114 352.997L257.114 352.997L253.045 350.091ZM240.045 359.773L238.219 355.118L238.21 355.122L240.045 359.773ZM198.636 359.5L196.783 364.144L196.791 364.147L198.636 359.5ZM184.636 348.455L180.464 351.211L180.474 351.225L180.484 351.24L184.636 348.455ZM179.636 329.273V324.273H174.617L174.636 329.292L179.636 329.273ZM203.636 329.273L208.629 329.007L208.377 324.273H203.636V329.273ZM205.773 336.455L201.592 339.198L201.592 339.198L205.773 336.455ZM211.136 340.864L209.145 345.45L209.156 345.455L209.167 345.459L211.136 340.864ZM226.227 341.364L227.949 346.058L227.949 346.058L226.227 341.364ZM230.364 338.591L234.278 341.702L234.278 341.702L230.364 338.591ZM231.818 334.545L236.817 334.645L236.819 334.542L236.817 334.439L231.818 334.545ZM230.409 330.818L226.515 333.955L226.563 334.014L226.613 334.072L230.409 330.818ZM226.045 327.909L224.059 332.498L224.088 332.51L224.117 332.522L226.045 327.909ZM217.818 325.455L218.889 320.571L218.881 320.569L218.872 320.567L217.818 325.455ZM208.545 323.455L207.486 328.341L207.491 328.342L208.545 323.455ZM189.045 314.5L185.719 318.233L185.732 318.244L185.744 318.255L189.045 314.5ZM182 297.273L187 297.294L187 297.27L187 297.247L182 297.273ZM186.727 281.773L182.672 278.848L182.668 278.853L186.727 281.773ZM200.045 271.364L198.046 266.781L198.038 266.785L200.045 271.364ZM239.136 271.409L237.052 275.954L237.052 275.954L239.136 271.409ZM251.818 282.045L247.624 284.767L247.635 284.784L247.645 284.8L251.818 282.045ZM256.364 298V303H261.389L261.364 297.975L256.364 298ZM237.166 297.601C236.834 293.45 235.195 289.761 231.979 287.073L225.566 294.745C226.411 295.452 227.045 296.49 227.198 298.399L237.166 297.601ZM232.008 287.097C228.718 284.305 224.282 283.364 219.636 283.364V293.364C223.173 293.364 224.827 294.119 225.538 294.722L232.008 287.097ZM219.636 283.364C216.677 283.364 213.878 283.718 211.444 284.647L215.011 293.989C215.91 293.646 217.384 293.364 219.636 293.364V283.364ZM211.491 284.629C209.232 285.466 207.101 286.785 205.577 288.837L213.605 294.8C213.657 294.73 213.95 294.382 214.964 294.007L211.491 284.629ZM205.577 288.837C204.151 290.757 203.417 292.98 203.365 295.343L213.362 295.566C213.37 295.202 213.456 295 213.605 294.8L205.577 288.837ZM203.371 295.185C203.269 297.079 203.6 298.972 204.482 300.736L213.427 296.264C213.4 296.21 213.338 296.072 213.356 295.724L203.371 295.185ZM204.577 300.915C205.508 302.604 206.85 303.939 208.344 304.994L214.111 296.824C213.544 296.424 213.37 296.153 213.332 296.085L204.577 300.915ZM208.426 305.051C209.904 306.05 211.629 306.856 213.495 307.525L216.869 298.111C215.522 297.629 214.612 297.162 214.029 296.768L208.426 305.051ZM213.495 307.525C215.381 308.201 217.529 308.773 219.903 309.261L221.915 299.466C219.865 299.045 218.195 298.587 216.869 298.111L213.495 307.525ZM219.861 309.253L227.498 310.889L229.593 301.111L221.957 299.475L219.861 309.253ZM227.51 310.892C232.37 311.921 236.371 313.247 239.581 314.812L243.964 305.824C239.842 303.814 235.024 302.261 229.581 301.108L227.51 310.892ZM239.581 314.812C242.83 316.396 245.32 318.181 247.17 320.104L254.375 313.169C251.559 310.243 248.049 307.816 243.964 305.824L239.581 314.812ZM247.192 320.126C249.055 322.037 250.373 324.134 251.21 326.436L260.608 323.019C259.263 319.321 257.158 316.024 254.353 313.146L247.192 320.126ZM251.226 326.478C252.122 328.876 252.611 331.564 252.637 334.588L262.636 334.503C262.601 330.436 261.939 326.579 260.593 322.977L251.226 326.478ZM252.636 334.521C252.61 339.793 251.307 343.922 248.977 347.185L257.114 352.997C260.845 347.775 262.602 341.54 262.636 334.57L252.636 334.521ZM248.977 347.185C246.595 350.519 243.103 353.201 238.219 355.118L241.872 364.427C248.261 361.92 253.435 358.147 257.114 352.997L248.977 347.185ZM238.21 355.122C233.338 357.044 227.252 358.091 219.818 358.091V368.091C228.142 368.091 235.541 366.925 241.881 364.424L238.21 355.122ZM219.818 358.091C212.208 358.091 205.799 356.964 200.481 354.853L196.791 364.147C203.534 366.824 211.246 368.091 219.818 368.091V358.091ZM200.489 354.856C195.347 352.804 191.515 349.735 188.789 345.669L180.484 351.24C184.424 357.114 189.925 361.408 196.783 364.144L200.489 354.856ZM188.808 345.699C186.181 341.721 184.664 336.356 184.636 329.253L174.636 329.292C174.669 337.766 176.486 345.188 180.464 351.211L188.808 345.699ZM179.636 334.273H203.636V324.273H179.636V334.273ZM198.643 329.538C198.831 333.068 199.735 336.367 201.592 339.198L209.953 333.711C209.265 332.664 208.745 331.174 208.629 329.007L198.643 329.538ZM201.592 339.198C203.444 342.019 206.025 344.095 209.145 345.45L213.128 336.277C211.641 335.632 210.647 334.769 209.953 333.711L201.592 339.198ZM209.167 345.459C212.264 346.787 215.738 347.364 219.455 347.364V337.364C216.746 337.364 214.675 336.941 213.106 336.268L209.167 345.459ZM219.455 347.364C222.525 347.364 225.409 346.989 227.949 346.058L224.506 336.669C223.409 337.071 221.778 337.364 219.455 337.364V347.364ZM227.949 346.058C230.389 345.163 232.626 343.78 234.278 341.702L226.45 335.48C226.222 335.766 225.702 336.231 224.506 336.669L227.949 346.058ZM234.278 341.702C235.902 339.659 236.765 337.252 236.817 334.645L226.819 334.445C226.811 334.87 226.704 335.159 226.45 335.48L234.278 341.702ZM236.817 334.439C236.763 331.883 235.884 329.522 234.205 327.564L226.613 334.072C226.753 334.236 226.813 334.359 226.819 334.652L236.817 334.439ZM234.303 327.682C232.686 325.675 230.375 324.299 227.973 323.296L224.117 332.522C225.776 333.216 226.374 333.78 226.515 333.955L234.303 327.682ZM228.032 323.32C225.585 322.262 222.495 321.361 218.889 320.571L216.747 330.338C220.05 331.063 222.445 331.799 224.059 332.498L228.032 323.32ZM218.872 320.567L209.6 318.567L207.491 328.342L216.764 330.342L218.872 320.567ZM209.605 318.568C201.928 316.903 196.288 314.209 192.346 310.745L185.744 318.255C191.318 323.154 198.678 326.43 207.486 328.341L209.605 318.568ZM192.372 310.767C188.879 307.655 186.975 303.369 187 297.294L177 297.252C176.965 305.722 179.757 312.921 185.719 318.233L192.372 310.767ZM187 297.247C186.975 292.3 188.274 288.185 190.787 284.692L182.668 278.853C178.817 284.209 176.965 290.427 177 297.298L187 297.247ZM190.783 284.697C193.409 281.056 197.099 278.115 202.053 275.943L198.038 266.785C191.659 269.582 186.47 273.581 182.672 278.848L190.783 284.697ZM202.044 275.947C207.005 273.783 212.835 272.636 219.636 272.636V262.636C211.71 262.636 204.479 263.975 198.046 266.781L202.044 275.947ZM219.636 272.636C226.604 272.636 232.361 273.803 237.052 275.954L241.221 266.864C234.942 263.985 227.699 262.636 219.636 262.636V272.636ZM237.052 275.954C241.77 278.117 245.225 281.07 247.624 284.767L256.012 279.323C252.472 273.869 247.473 269.731 241.221 266.864L237.052 275.954ZM247.645 284.8C250.048 288.441 251.338 292.786 251.364 298.025L261.364 297.975C261.329 291.032 259.588 284.741 255.991 279.291L247.645 284.8ZM256.364 293H232.182V303H256.364V293ZM292.705 322.727L287.705 322.661L287.705 322.694V322.727H292.705ZM292.705 362V367H297.705V362H292.705ZM267.614 362H262.614V367H267.614V362ZM267.614 268.909V263.909H262.614V268.909H267.614ZM291.795 268.909H296.795V263.909H291.795V268.909ZM291.795 305.455H286.795V310.455H291.795V305.455ZM292.523 305.455V310.455H296.058L297.236 307.122L292.523 305.455ZM300.386 295.045L303.191 299.185L303.203 299.177L303.215 299.169L300.386 295.045ZM326.477 294.636L323.853 298.892L323.861 298.897L323.869 298.902L326.477 294.636ZM334.977 303.909L330.519 306.173L330.526 306.186L330.533 306.2L334.977 303.909ZM337.977 317.455L332.977 317.425L332.977 317.44V317.455H337.977ZM337.977 362V367H342.977V362H337.977ZM312.886 362H307.886V367H312.886V362ZM312.886 322.727L307.887 322.683L307.886 322.705V322.727H312.886ZM310.295 314.591L306.536 317.888L306.55 317.904L306.565 317.92L310.295 314.591ZM297.523 313L300.031 317.325L300.045 317.317L300.058 317.31L297.523 313ZM293.977 316.818L289.521 314.55L289.513 314.566L289.505 314.582L293.977 316.818ZM287.705 322.727V362H297.705V322.727H287.705ZM292.705 357H267.614V367H292.705V357ZM272.614 362V268.909H262.614V362H272.614ZM267.614 273.909H291.795V263.909H267.614V273.909ZM286.795 268.909V305.455H296.795V268.909H286.795ZM291.795 310.455H292.523V300.455H291.795V310.455ZM297.236 307.122C298.481 303.603 300.469 301.029 303.191 299.185L297.581 290.906C292.97 294.031 289.716 298.397 287.809 303.787L297.236 307.122ZM303.215 299.169C305.922 297.311 309.307 296.273 313.614 296.273V286.273C307.617 286.273 302.184 287.749 297.558 290.922L303.215 299.169ZM313.614 296.273C317.774 296.273 321.122 297.208 323.853 298.892L329.102 290.381C324.56 287.58 319.332 286.273 313.614 286.273V296.273ZM323.869 298.902C326.722 300.647 328.926 303.035 330.519 306.173L339.436 301.646C337.029 296.905 333.566 293.11 329.086 290.371L323.869 298.902ZM330.533 306.2C332.142 309.322 333.004 313.02 332.977 317.425L342.977 317.484C343.012 311.707 341.873 306.375 339.422 301.618L330.533 306.2ZM332.977 317.455V362H342.977V317.455H332.977ZM337.977 357H312.886V367H337.977V357ZM317.886 362V322.727H307.886V362H317.886ZM317.886 322.771C317.924 318.467 316.84 314.416 314.026 311.262L306.565 317.92C307.266 318.705 307.909 320.079 307.887 322.683L317.886 322.771ZM314.055 311.294C311.168 308.002 307.185 306.636 302.886 306.636V316.636C305.012 316.636 305.969 317.241 306.536 317.888L314.055 311.294ZM302.886 306.636C300.085 306.636 297.399 307.272 294.988 308.69L300.058 317.31C300.737 316.91 301.627 316.636 302.886 316.636V306.636ZM295.014 308.675C292.608 310.07 290.776 312.085 289.521 314.55L298.433 319.087C298.875 318.218 299.407 317.687 300.031 317.325L295.014 308.675ZM289.505 314.582C288.274 317.044 287.743 319.794 287.705 322.661L297.704 322.793C297.727 321.054 298.044 319.865 298.449 319.054L289.505 314.582ZM364.545 359L362.181 363.406L362.196 363.414L362.211 363.421L364.545 359ZM352.136 346.636L347.725 348.991L347.733 349.005L347.741 349.02L352.136 346.636ZM352.182 308.364L356.583 310.737L356.583 310.737L352.182 308.364ZM364.5 295.773L366.962 300.125L366.962 300.125L364.5 295.773ZM397.591 293.727L399.379 289.058L399.379 289.058L397.591 293.727ZM408.545 300.864L404.958 304.347L404.967 304.355L404.975 304.364L408.545 300.864ZM415.545 312.136L410.856 313.871L410.856 313.871L415.545 312.136ZM418 332.909V337.909H423V332.909H418ZM355.636 332.909H350.636V337.909H355.636V332.909ZM355.636 319.091V314.091H350.636V319.091H355.636ZM394.909 319.091V324.091H399.985L399.909 319.015L394.909 319.091ZM393.364 313.818L389.128 316.476L389.159 316.524L389.191 316.572L393.364 313.818ZM389.409 310.227L387.043 314.632L387.092 314.658L387.141 314.683L389.409 310.227ZM378.227 310.227L380.463 314.699L380.495 314.684L380.527 314.667L378.227 310.227ZM374.136 313.773L370.002 310.961L369.982 310.99L369.963 311.019L374.136 313.773ZM372.545 319.091L367.548 318.942L367.545 319.016V319.091H372.545ZM373.955 340L369.545 342.357L369.545 342.357L373.955 340ZM378 344.136L375.527 348.482L375.527 348.482L378 344.136ZM389.091 344.909L387.51 340.166L387.495 340.171L387.48 340.176L389.091 344.909ZM392.818 342.818L396.126 346.567L396.157 346.54L396.187 346.513L392.818 342.818ZM395.091 339.455V334.455H391.616L390.405 337.711L395.091 339.455ZM418 339.455L422.935 340.257L423.878 334.455H418V339.455ZM412.409 352.091L416.258 355.282L416.265 355.274L416.272 355.266L412.409 352.091ZM400.727 360.364L402.594 365.002L402.602 364.999L402.609 364.996L400.727 360.364ZM383.818 358.273C376.999 358.273 371.412 356.972 366.88 354.579L362.211 363.421C368.467 366.725 375.728 368.273 383.818 368.273V358.273ZM366.91 354.594C362.408 352.178 358.977 348.761 356.532 344.253L347.741 349.02C351.114 355.239 355.955 360.064 362.181 363.406L366.91 354.594ZM356.547 344.282C354.134 339.761 352.818 334.152 352.818 327.273H342.818C342.818 335.423 344.381 342.724 347.725 348.991L356.547 344.282ZM352.818 327.273C352.818 320.742 354.131 315.283 356.583 310.737L347.781 305.99C344.414 312.232 342.818 319.379 342.818 327.273H352.818ZM356.583 310.737C359.047 306.167 362.484 302.658 366.962 300.125L362.038 291.421C355.91 294.887 351.134 299.772 347.781 305.99L356.583 310.737ZM366.962 300.125C371.387 297.621 376.764 296.273 383.273 296.273V286.273C375.357 286.273 368.219 287.924 362.038 291.421L366.962 300.125ZM383.273 296.273C388.026 296.273 392.181 297.009 395.803 298.397L399.379 289.058C394.456 287.172 389.065 286.273 383.273 286.273V296.273ZM395.803 298.397C399.433 299.787 402.46 301.774 404.958 304.347L412.133 297.381C408.57 293.711 404.295 290.941 399.379 289.058L395.803 298.397ZM404.975 304.364C407.469 306.908 409.442 310.048 410.856 313.871L420.235 310.402C418.376 305.377 415.682 301.001 412.116 297.363L404.975 304.364ZM410.856 313.871C412.254 317.652 413 322.036 413 327.091H423C423 321.055 422.109 315.469 420.235 310.402L410.856 313.871ZM413 327.091V332.909H423V327.091H413ZM418 327.909H355.636V337.909H418V327.909ZM360.636 332.909V319.091H350.636V332.909H360.636ZM355.636 324.091H394.909V314.091H355.636V324.091ZM399.909 319.015C399.865 316.162 399.115 313.455 397.537 311.064L389.191 316.572C389.613 317.212 389.892 318.019 389.91 319.167L399.909 319.015ZM397.599 311.161C396.136 308.829 394.129 307.02 391.678 305.771L387.141 314.683C388.022 315.132 388.652 315.716 389.128 316.476L397.599 311.161ZM391.775 305.822C389.324 304.506 386.629 303.909 383.818 303.909V313.909C385.189 313.909 386.222 314.191 387.043 314.632L391.775 305.822ZM383.818 303.909C381.039 303.909 378.38 304.518 375.928 305.787L380.527 314.667C381.469 314.179 382.537 313.909 383.818 313.909V303.909ZM375.991 305.755C373.558 306.972 371.53 308.714 370.002 310.961L378.271 316.584C378.803 315.801 379.503 315.18 380.463 314.699L375.991 305.755ZM369.963 311.019C368.393 313.398 367.633 316.097 367.548 318.942L377.543 319.24C377.58 318.024 377.88 317.178 378.309 316.527L369.963 311.019ZM367.545 319.091V334H377.545V319.091H367.545ZM367.545 334C367.545 336.96 368.172 339.787 369.545 342.357L378.364 337.643C377.859 336.697 377.545 335.525 377.545 334H367.545ZM369.545 342.357C370.936 344.96 372.962 347.023 375.527 348.482L380.473 339.791C379.523 339.25 378.852 338.555 378.364 337.643L369.545 342.357ZM375.527 348.482C378.193 349.999 381.209 350.636 384.364 350.636V340.636C382.549 340.636 381.322 340.274 380.473 339.791L375.527 348.482ZM384.364 350.636C386.559 350.636 388.689 350.328 390.702 349.642L387.48 340.176C386.645 340.46 385.623 340.636 384.364 340.636V350.636ZM390.672 349.653C392.689 348.98 394.538 347.969 396.126 346.567L389.51 339.069C389.038 339.485 388.402 339.868 387.51 340.166L390.672 349.653ZM396.187 346.513C397.804 345.039 399.014 343.249 399.777 341.198L390.405 337.711C390.198 338.266 389.893 338.719 389.449 339.123L396.187 346.513ZM395.091 344.455H418V334.455H395.091V344.455ZM413.065 338.653C412.41 342.685 410.89 346.065 408.547 348.916L416.272 355.266C419.807 350.966 422.015 345.922 422.935 340.257L413.065 338.653ZM408.56 348.9C406.215 351.728 403.035 354.029 398.845 355.731L402.609 364.996C408.117 362.758 412.724 359.545 416.258 355.282L408.56 348.9ZM398.86 355.725C394.76 357.376 389.783 358.273 383.818 358.273V368.273C390.762 368.273 397.058 367.231 402.594 365.002L398.86 355.725ZM453.33 268.909H458.33V263.909H453.33V268.909ZM453.33 362V367H458.33V362H453.33ZM428.239 362H423.239V367H428.239V362ZM428.239 268.909V263.909H423.239V268.909H428.239ZM448.33 268.909V362H458.33V268.909H448.33ZM453.33 357H428.239V367H453.33V357ZM433.239 362V268.909H423.239V362H433.239ZM428.239 273.909H453.33V263.909H428.239V273.909ZM465.75 362H460.75V367H465.75V362ZM465.75 268.909V263.909H460.75V268.909H465.75ZM490.841 268.909H495.841V263.909H490.841V268.909ZM490.841 304.364H485.841V309.364H490.841V304.364ZM491.205 304.364V309.364H494.639L495.871 306.159L491.205 304.364ZM495.205 297.864L498.935 301.193L498.948 301.178L498.96 301.164L495.205 297.864ZM501.75 293.091L503.815 297.645L503.837 297.635L503.859 297.625L501.75 293.091ZM523.977 294.955L521.433 299.259L521.439 299.263L521.446 299.267L523.977 294.955ZM534.159 306.545L529.677 308.761L529.682 308.771L529.687 308.782L534.159 306.545ZM534.341 347.136L529.823 344.994L529.818 345.004L529.813 345.015L534.341 347.136ZM524.341 359L521.696 354.757L521.69 354.761L521.683 354.765L524.341 359ZM501.886 361.318L499.917 365.914L499.95 365.928L499.983 365.942L501.886 361.318ZM495.341 356.909L491.719 360.356L491.747 360.386L491.776 360.415L495.341 356.909ZM491.205 350.545L495.83 348.648L494.558 345.545H491.205V350.545ZM490.659 350.545V345.545H485.659V350.545H490.659ZM490.659 362V367H495.659V362H490.659ZM491.614 335.909L486.9 337.576L486.912 337.611L486.925 337.646L491.614 335.909ZM495.432 341.636L492.231 345.477L492.269 345.509L492.308 345.541L495.432 341.636ZM507.25 341.682L510.4 345.565L510.408 345.558L507.25 341.682ZM510.977 336L506.263 334.333L506.257 334.35L506.252 334.366L510.977 336ZM510.977 318.227L506.246 319.843L506.257 319.878L506.27 319.913L510.977 318.227ZM507.25 312.545L504.056 316.392L504.095 316.425L504.135 316.457L507.25 312.545ZM495.432 312.545L498.546 316.457L498.555 316.45L495.432 312.545ZM491.614 318.227L486.918 316.509L486.912 316.526L486.906 316.542L491.614 318.227ZM470.75 362V268.909H460.75V362H470.75ZM465.75 273.909H490.841V263.909H465.75V273.909ZM485.841 268.909V304.364H495.841V268.909H485.841ZM490.841 309.364H491.205V299.364H490.841V309.364ZM495.871 306.159C496.554 304.382 497.562 302.731 498.935 301.193L491.474 294.535C489.331 296.936 487.673 299.618 486.538 302.569L495.871 306.159ZM498.96 301.164C500.215 299.736 501.806 298.556 503.815 297.645L499.685 288.537C496.482 289.99 493.709 291.991 491.449 294.563L498.96 301.164ZM503.859 297.625C505.684 296.775 507.97 296.273 510.841 296.273V286.273C506.803 286.273 503.028 286.982 499.641 288.557L503.859 297.625ZM510.841 296.273C514.509 296.273 518.014 297.237 521.433 299.259L526.522 290.651C521.638 287.763 516.385 286.273 510.841 286.273V296.273ZM521.446 299.267C524.623 301.131 527.41 304.174 529.677 308.761L538.641 304.33C535.696 298.371 531.695 293.687 526.508 290.642L521.446 299.267ZM529.687 308.782C531.86 313.127 533.114 319.132 533.114 327.091H543.114C543.114 318.201 541.731 310.509 538.631 304.309L529.687 308.782ZM533.114 327.091C533.114 334.671 531.925 340.562 529.823 344.994L538.859 349.279C541.787 343.105 543.114 335.632 543.114 327.091H533.114ZM529.813 345.015C527.66 349.611 524.915 352.751 521.696 354.757L526.985 363.243C532.13 360.037 536.052 355.268 538.869 349.258L529.813 345.015ZM521.683 354.765C518.339 356.864 514.702 357.909 510.659 357.909V367.909C516.555 367.909 522.04 366.348 526.999 363.235L521.683 354.765ZM510.659 357.909C507.927 357.909 505.666 357.467 503.79 356.695L499.983 365.942C503.258 367.29 506.846 367.909 510.659 367.909V357.909ZM503.856 356.722C501.867 355.87 500.238 354.757 498.906 353.403L491.776 360.415C494.081 362.758 496.815 364.585 499.917 365.914L503.856 356.722ZM498.963 353.462C497.596 352.026 496.561 350.428 495.83 348.648L486.579 352.443C487.788 355.39 489.51 358.035 491.719 360.356L498.963 353.462ZM491.205 345.545H490.659V355.545H491.205V345.545ZM485.659 350.545V362H495.659V350.545H485.659ZM490.659 357H465.75V367H490.659V357ZM485.295 327.091C485.295 330.898 485.786 334.427 486.9 337.576L496.328 334.242C495.684 332.422 495.295 330.072 495.295 327.091H485.295ZM486.925 337.646C488.069 340.733 489.786 343.44 492.231 345.477L498.633 337.795C497.805 337.106 496.977 335.994 496.302 334.173L486.925 337.646ZM492.308 345.541C494.934 347.641 498.044 348.636 501.386 348.636V338.636C500.123 338.636 499.263 338.298 498.555 337.732L492.308 345.541ZM501.386 348.636C504.698 348.636 507.801 347.673 510.4 345.565L504.1 337.799C503.486 338.297 502.681 338.636 501.386 338.636V348.636ZM510.408 345.558C512.915 343.515 514.621 340.764 515.703 337.634L506.252 334.366C505.637 336.145 504.858 337.182 504.092 337.806L510.408 345.558ZM515.691 337.667C516.808 334.51 517.295 330.947 517.295 327.091H507.295C507.295 330.144 506.904 332.521 506.263 334.333L515.691 337.667ZM517.295 327.091C517.295 323.238 516.809 319.681 515.685 316.542L506.27 319.913C506.904 321.683 507.295 324.035 507.295 327.091H517.295ZM515.709 316.612C514.63 313.453 512.918 310.667 510.365 308.634L504.135 316.457C504.855 317.03 505.627 318.032 506.246 319.843L515.709 316.612ZM510.444 308.698C507.846 306.542 504.727 305.545 501.386 305.545V315.545C502.652 315.545 503.442 315.883 504.056 316.392L510.444 308.698ZM501.386 305.545C498.044 305.545 494.934 306.541 492.308 308.641L498.555 316.45C499.263 315.883 500.123 315.545 501.386 315.545V305.545ZM492.317 308.634C489.795 310.643 488.06 313.388 486.918 316.509L496.309 319.945C496.985 318.097 497.796 317.054 498.546 316.457L492.317 308.634ZM486.906 316.542C485.782 319.681 485.295 323.238 485.295 327.091H495.295C495.295 324.035 495.687 321.683 496.321 319.913L486.906 316.542ZM553.534 387.5L554.393 382.574L554.365 382.57L554.337 382.565L553.534 387.5ZM546.67 385.727L541.889 384.264L540.525 388.721L544.876 390.394L546.67 385.727ZM552.125 367.909L553.789 363.194L548.871 361.458L547.344 366.446L552.125 367.909ZM557.761 369.318L557.141 374.28L557.152 374.281L557.761 369.318ZM562.17 368.955L560.453 364.259L560.434 364.266L560.415 364.273L562.17 368.955ZM564.852 366.364L569.448 368.333L569.448 368.333L564.852 366.364ZM565.398 365.091L569.993 367.061L570.746 365.305L570.136 363.496L565.398 365.091ZM540.852 292.182V287.182H533.893L536.114 293.777L540.852 292.182ZM567.034 292.182L571.904 291.047L571.003 287.182H567.034V292.182ZM578.307 340.545L573.437 341.68L574.338 345.545H578.307V340.545ZM579.034 340.545V345.545H582.988L583.899 341.698L579.034 340.545ZM590.489 292.182V287.182H586.535L585.623 291.029L590.489 292.182ZM616.852 292.182L621.591 293.777L623.811 287.182H616.852V292.182ZM591.398 367.818L586.659 366.223L586.655 366.236L586.651 366.248L591.398 367.818ZM585.852 378.182L581.933 375.077L581.916 375.099L581.899 375.12L585.852 378.182ZM576.398 385.5L574.318 380.953L574.318 380.953L576.398 385.5ZM561.761 383.182C559.146 383.182 556.692 382.975 554.393 382.574L552.675 392.426C555.588 392.934 558.62 393.182 561.761 393.182V383.182ZM554.337 382.565C551.99 382.183 550.047 381.669 548.465 381.061L544.876 390.394C547.234 391.301 549.866 391.969 552.731 392.435L554.337 382.565ZM551.451 387.191L556.906 369.373L547.344 366.446L541.889 384.264L551.451 387.191ZM550.461 372.624C552.771 373.44 555.006 374.013 557.141 374.28L558.382 364.357C557.123 364.199 555.6 363.833 553.789 363.194L550.461 372.624ZM557.152 374.281C559.415 374.559 561.745 374.454 563.926 373.636L560.415 364.273C560.171 364.364 559.562 364.502 558.371 364.355L557.152 374.281ZM563.888 373.65C566.491 372.698 568.388 370.806 569.448 368.333L560.257 364.394C560.235 364.445 560.223 364.459 560.231 364.448C560.24 364.435 560.262 364.406 560.299 364.37C560.336 364.334 560.376 364.304 560.411 364.282C560.446 364.26 560.464 364.255 560.453 364.259L563.888 373.65ZM569.448 368.333L569.993 367.061L560.802 363.121L560.257 364.394L569.448 368.333ZM570.136 363.496L545.591 290.587L536.114 293.777L560.659 366.686L570.136 363.496ZM540.852 297.182H567.034V287.182H540.852V297.182ZM562.165 293.317L573.437 341.68L583.176 339.41L571.904 291.047L562.165 293.317ZM578.307 345.545H579.034V335.545H578.307V345.545ZM583.899 341.698L595.354 293.334L585.623 291.029L574.169 339.393L583.899 341.698ZM590.489 297.182H616.852V287.182H590.489V297.182ZM612.113 290.587L586.659 366.223L596.137 369.413L621.591 293.777L612.113 290.587ZM586.651 366.248C585.555 369.562 583.98 372.493 581.933 375.077L589.772 381.286C592.573 377.749 594.695 373.771 596.145 369.388L586.651 366.248ZM581.899 375.12C580.048 377.51 577.566 379.467 574.318 380.953L578.477 390.047C583.047 387.957 586.868 385.036 589.805 381.243L581.899 375.12ZM574.318 380.953C571.252 382.355 567.136 383.182 561.761 383.182V393.182C568.083 393.182 573.725 392.221 578.477 390.047L574.318 380.953ZM699.307 298L694.323 298.399L694.691 303H699.307V298ZM695.898 290.909L692.663 294.722L692.677 294.734L692.691 294.745L695.898 290.909ZM680.352 289.318L682.089 294.007L682.112 293.998L682.136 293.989L680.352 289.318ZM676.716 291.818L672.702 288.837L672.702 288.837L676.716 291.818ZM675.489 295.455L680.481 295.724L680.486 295.645L680.487 295.566L675.489 295.455ZM676.08 298.5L671.607 300.736L671.653 300.827L671.702 300.915L676.08 298.5ZM678.352 300.909L675.469 304.994L675.51 305.023L675.551 305.051L678.352 300.909ZM688.034 304.364L689.082 299.475L689.061 299.47L689.04 299.466L688.034 304.364ZM695.67 306L694.623 310.889L694.635 310.892L695.67 306ZM708.898 310.318L706.706 314.812L706.706 314.812L708.898 310.318ZM717.898 316.636L714.295 320.104L714.306 320.115L714.317 320.126L717.898 316.636ZM723.034 324.727L718.335 326.436L718.343 326.457L718.351 326.478L723.034 324.727ZM724.761 334.545L729.761 334.57L729.761 334.536L729.761 334.503L724.761 334.545ZM720.17 350.091L724.239 352.997L724.239 352.997L720.17 350.091ZM707.17 359.773L705.344 355.118L705.335 355.122L707.17 359.773ZM665.761 359.5L663.908 364.144L663.916 364.147L665.761 359.5ZM651.761 348.455L647.589 351.211L647.599 351.225L647.609 351.24L651.761 348.455ZM646.761 329.273V324.273H641.742L641.761 329.292L646.761 329.273ZM670.761 329.273L675.754 329.007L675.502 324.273H670.761V329.273ZM672.898 336.455L668.717 339.198L668.717 339.198L672.898 336.455ZM678.261 340.864L676.27 345.45L676.281 345.455L676.292 345.459L678.261 340.864ZM693.352 341.364L695.074 346.058L695.074 346.058L693.352 341.364ZM697.489 338.591L701.403 341.702L701.403 341.702L697.489 338.591ZM698.943 334.545L703.942 334.645L703.944 334.542L703.942 334.439L698.943 334.545ZM697.534 330.818L693.64 333.955L693.688 334.014L693.738 334.072L697.534 330.818ZM693.17 327.909L691.184 332.498L691.213 332.51L691.242 332.522L693.17 327.909ZM684.943 325.455L686.014 320.571L686.006 320.569L685.997 320.567L684.943 325.455ZM675.67 323.455L674.611 328.341L674.616 328.342L675.67 323.455ZM656.17 314.5L652.844 318.233L652.857 318.244L652.869 318.255L656.17 314.5ZM649.125 297.273L654.125 297.294L654.125 297.27L654.125 297.247L649.125 297.273ZM653.852 281.773L649.797 278.848L649.793 278.853L653.852 281.773ZM667.17 271.364L665.171 266.781L665.163 266.785L667.17 271.364ZM706.261 271.409L704.177 275.954L704.177 275.954L706.261 271.409ZM718.943 282.045L714.749 284.767L714.76 284.784L714.77 284.8L718.943 282.045ZM723.489 298V303H728.514L728.489 297.975L723.489 298ZM704.291 297.601C703.959 293.45 702.32 289.761 699.104 287.073L692.691 294.745C693.536 295.452 694.17 296.49 694.323 298.399L704.291 297.601ZM699.133 287.097C695.843 284.305 691.407 283.364 686.761 283.364V293.364C690.298 293.364 691.952 294.119 692.663 294.722L699.133 287.097ZM686.761 283.364C683.802 283.364 681.003 283.718 678.569 284.647L682.136 293.989C683.035 293.646 684.509 293.364 686.761 293.364V283.364ZM678.616 284.629C676.357 285.466 674.226 286.785 672.702 288.837L680.73 294.8C680.782 294.73 681.075 294.382 682.089 294.007L678.616 284.629ZM672.702 288.837C671.276 290.757 670.542 292.98 670.49 295.343L680.487 295.566C680.495 295.202 680.581 295 680.73 294.8L672.702 288.837ZM670.496 295.185C670.394 297.079 670.725 298.972 671.607 300.736L680.552 296.264C680.525 296.21 680.463 296.072 680.481 295.724L670.496 295.185ZM671.702 300.915C672.633 302.604 673.975 303.939 675.469 304.994L681.236 296.824C680.669 296.424 680.495 296.153 680.457 296.085L671.702 300.915ZM675.551 305.051C677.029 306.05 678.754 306.856 680.62 307.525L683.994 298.111C682.647 297.629 681.737 297.162 681.154 296.768L675.551 305.051ZM680.62 307.525C682.506 308.201 684.654 308.773 687.028 309.261L689.04 299.466C686.99 299.045 685.32 298.587 683.994 298.111L680.62 307.525ZM686.986 309.253L694.623 310.889L696.718 301.111L689.082 299.475L686.986 309.253ZM694.635 310.892C699.495 311.921 703.496 313.247 706.706 314.812L711.089 305.824C706.967 303.814 702.149 302.261 696.706 301.108L694.635 310.892ZM706.706 314.812C709.955 316.396 712.445 318.181 714.295 320.104L721.5 313.169C718.684 310.243 715.174 307.816 711.089 305.824L706.706 314.812ZM714.317 320.126C716.18 322.037 717.498 324.134 718.335 326.436L727.733 323.019C726.388 319.321 724.283 316.024 721.478 313.146L714.317 320.126ZM718.351 326.478C719.247 328.876 719.736 331.564 719.762 334.588L729.761 334.503C729.726 330.436 729.064 326.579 727.718 322.977L718.351 326.478ZM719.761 334.521C719.735 339.793 718.432 343.922 716.102 347.185L724.239 352.997C727.97 347.775 729.727 341.54 729.761 334.57L719.761 334.521ZM716.102 347.185C713.72 350.519 710.228 353.201 705.344 355.118L708.997 364.427C715.386 361.92 720.56 358.147 724.239 352.997L716.102 347.185ZM705.335 355.122C700.463 357.044 694.377 358.091 686.943 358.091V368.091C695.267 368.091 702.666 366.925 709.006 364.424L705.335 355.122ZM686.943 358.091C679.333 358.091 672.924 356.964 667.606 354.853L663.916 364.147C670.659 366.824 678.371 368.091 686.943 368.091V358.091ZM667.614 354.856C662.472 352.804 658.64 349.735 655.914 345.669L647.609 351.24C651.549 357.114 657.05 361.408 663.908 364.144L667.614 354.856ZM655.933 345.699C653.306 341.721 651.789 336.356 651.761 329.253L641.761 329.292C641.794 337.766 643.611 345.188 647.589 351.211L655.933 345.699ZM646.761 334.273H670.761V324.273H646.761V334.273ZM665.768 329.538C665.956 333.068 666.86 336.367 668.717 339.198L677.078 333.711C676.39 332.664 675.87 331.174 675.754 329.007L665.768 329.538ZM668.717 339.198C670.569 342.019 673.15 344.095 676.27 345.45L680.253 336.277C678.766 335.632 677.772 334.769 677.078 333.711L668.717 339.198ZM676.292 345.459C679.389 346.787 682.863 347.364 686.58 347.364V337.364C683.871 337.364 681.8 336.941 680.231 336.268L676.292 345.459ZM686.58 347.364C689.65 347.364 692.534 346.989 695.074 346.058L691.631 336.669C690.534 337.071 688.903 337.364 686.58 337.364V347.364ZM695.074 346.058C697.514 345.163 699.751 343.78 701.403 341.702L693.575 335.48C693.347 335.766 692.827 336.231 691.631 336.669L695.074 346.058ZM701.403 341.702C703.027 339.659 703.89 337.252 703.942 334.645L693.944 334.445C693.936 334.87 693.829 335.159 693.575 335.48L701.403 341.702ZM703.942 334.439C703.888 331.883 703.009 329.522 701.33 327.564L693.738 334.072C693.878 334.236 693.938 334.359 693.944 334.652L703.942 334.439ZM701.428 327.682C699.811 325.675 697.5 324.299 695.098 323.296L691.242 332.522C692.901 333.216 693.499 333.78 693.64 333.955L701.428 327.682ZM695.157 323.32C692.71 322.262 689.62 321.361 686.014 320.571L683.872 330.338C687.175 331.063 689.57 331.799 691.184 332.498L695.157 323.32ZM685.997 320.567L676.725 318.567L674.616 328.342L683.889 330.342L685.997 320.567ZM676.73 318.568C669.053 316.903 663.413 314.209 659.471 310.745L652.869 318.255C658.443 323.154 665.803 326.43 674.611 328.341L676.73 318.568ZM659.497 310.767C656.004 307.655 654.1 303.369 654.125 297.294L644.125 297.252C644.09 305.722 646.882 312.921 652.844 318.233L659.497 310.767ZM654.125 297.247C654.1 292.3 655.399 288.185 657.912 284.692L649.793 278.853C645.942 284.209 644.09 290.427 644.125 297.298L654.125 297.247ZM657.908 284.697C660.534 281.056 664.224 278.115 669.178 275.943L665.163 266.785C658.784 269.582 653.595 273.581 649.797 278.848L657.908 284.697ZM669.169 275.947C674.13 273.783 679.96 272.636 686.761 272.636V262.636C678.835 262.636 671.604 263.975 665.171 266.781L669.169 275.947ZM686.761 272.636C693.729 272.636 699.486 273.803 704.177 275.954L708.346 266.864C702.067 263.985 694.824 262.636 686.761 262.636V272.636ZM704.177 275.954C708.895 278.117 712.35 281.07 714.749 284.767L723.137 279.323C719.597 273.869 714.598 269.731 708.346 266.864L704.177 275.954ZM714.77 284.8C717.173 288.441 718.463 292.786 718.489 298.025L728.489 297.975C728.454 291.032 726.713 284.741 723.116 279.291L714.77 284.8ZM723.489 293H699.307V303H723.489V293ZM780.011 331.455H775.011V331.487L775.012 331.52L780.011 331.455ZM780.011 292.182V287.182H775.011V292.182H780.011ZM805.102 292.182H810.102V287.182H805.102V292.182ZM805.102 362V367H810.102V362H805.102ZM781.284 362H776.284V367H781.284V362ZM781.284 348.727H786.284V343.727H781.284V348.727ZM780.557 348.727V343.727H776.976L775.823 347.117L780.557 348.727ZM772.602 359.182L775.345 363.363L775.356 363.355L775.368 363.347L772.602 359.182ZM746.284 359.545L743.66 363.801L743.668 363.806L743.675 363.811L746.284 359.545ZM737.784 350.273L733.326 352.536L733.333 352.55L733.34 352.563L737.784 350.273ZM734.739 336.727H729.739V336.742L729.739 336.757L734.739 336.727ZM734.739 292.182V287.182H729.739V292.182H734.739ZM759.83 292.182H764.83V287.182H759.83V292.182ZM759.83 331.455H754.83V331.476L754.83 331.498L759.83 331.455ZM762.466 339.591L758.707 342.888L758.721 342.904L758.735 342.92L762.466 339.591ZM775.239 341.227L777.747 345.552L777.761 345.545L777.774 345.537L775.239 341.227ZM778.784 337.409L774.328 335.141L774.32 335.157L774.312 335.173L778.784 337.409ZM785.011 331.455V292.182H775.011V331.455H785.011ZM780.011 297.182H805.102V287.182H780.011V297.182ZM800.102 292.182V362H810.102V292.182H800.102ZM805.102 357H781.284V367H805.102V357ZM786.284 362V348.727H776.284V362H786.284ZM781.284 343.727H780.557V353.727H781.284V343.727ZM775.823 347.117C774.65 350.565 772.67 353.135 769.836 355.016L775.368 363.347C780.11 360.199 783.433 355.798 785.29 350.337L775.823 347.117ZM769.86 355.001C767.004 356.874 763.49 357.909 759.102 357.909V367.909C765.138 367.909 770.625 366.459 775.345 363.363L769.86 355.001ZM759.102 357.909C755.017 357.909 751.672 356.98 748.893 355.28L743.675 363.811C748.229 366.596 753.43 367.909 759.102 367.909V357.909ZM748.909 355.29C746.076 353.543 743.859 351.145 742.229 347.982L733.34 352.563C735.77 357.279 739.219 361.063 743.66 363.801L748.909 355.29ZM742.242 348.009C740.644 344.861 739.765 341.13 739.739 336.698L729.739 336.757C729.773 342.506 730.924 347.806 733.326 352.536L742.242 348.009ZM739.739 336.727V292.182H729.739V336.727H739.739ZM734.739 297.182H759.83V287.182H734.739V297.182ZM754.83 292.182V331.455H764.83V292.182H754.83ZM754.83 331.498C754.867 335.763 755.967 339.763 758.707 342.888L766.225 336.294C765.51 335.479 764.853 334.055 764.829 331.411L754.83 331.498ZM758.735 342.92C761.625 346.159 765.555 347.545 769.83 347.545V337.545C767.801 337.545 766.822 336.963 766.197 336.262L758.735 342.92ZM769.83 347.545C772.63 347.545 775.334 346.952 777.747 345.552L772.73 336.902C772.113 337.26 771.211 337.545 769.83 337.545V347.545ZM777.774 345.537C780.169 344.128 782.015 342.127 783.256 339.645L774.312 335.173C773.916 335.964 773.399 336.509 772.704 336.918L777.774 345.537ZM783.24 339.678C784.532 337.14 785.049 334.318 785.011 331.389L775.012 331.52C775.034 333.198 774.733 334.345 774.328 335.141L783.24 339.678ZM817.864 362H812.864V367H817.864V362ZM817.864 292.182V287.182H812.864V292.182H817.864ZM842.227 292.182H847.227V287.182H842.227V292.182ZM842.227 305.455H837.227V310.455H842.227V305.455ZM842.955 305.455V310.455H846.824L847.795 306.709L842.955 305.455ZM849 294.682L845.841 290.806L845.83 290.815L845.82 290.823L849 294.682ZM862 291.545L861.155 296.474L861.233 296.487L861.312 296.498L862 291.545ZM865.136 292.227H870.136V288.518L866.586 287.442L865.136 292.227ZM865.136 313.636L863.521 318.368L870.136 320.627V313.636H865.136ZM860.545 312.682L861.125 307.716L861.125 307.716L860.545 312.682ZM849.227 314.045L851.679 318.403L851.69 318.397L851.701 318.391L849.227 314.045ZM844.636 318.682L848.982 321.155L848.99 321.141L848.998 321.127L844.636 318.682ZM842.955 362V367H847.955V362H842.955ZM822.864 362V292.182H812.864V362H822.864ZM817.864 297.182H842.227V287.182H817.864V297.182ZM837.227 292.182V305.455H847.227V292.182H837.227ZM842.227 310.455H842.955V300.455H842.227V310.455ZM847.795 306.709C848.91 302.407 850.514 299.913 852.18 298.54L845.82 290.823C841.971 293.996 839.545 298.683 838.115 304.2L847.795 306.709ZM852.159 298.557C854.02 297.04 856.151 296.273 858.773 296.273V286.273C853.94 286.273 849.555 287.778 845.841 290.806L852.159 298.557ZM858.773 296.273C859.584 296.273 860.377 296.34 861.155 296.474L862.845 286.617C861.501 286.387 860.143 286.273 858.773 286.273V296.273ZM861.312 296.498C862.159 296.616 862.949 296.789 863.686 297.012L866.586 287.442C865.324 287.06 864.023 286.778 862.688 286.593L861.312 296.498ZM860.136 292.227V313.636H870.136V292.227H860.136ZM866.752 308.905C865.071 308.331 863.169 307.954 861.125 307.716L859.966 317.648C861.558 317.834 862.717 318.094 863.521 318.368L866.752 308.905ZM861.125 307.716C859.185 307.489 857.42 307.364 855.864 307.364V317.364C856.913 317.364 858.27 317.45 859.966 317.648L861.125 307.716ZM855.864 307.364C852.616 307.364 849.539 308.115 846.754 309.7L851.701 318.391C852.855 317.734 854.202 317.364 855.864 317.364V307.364ZM846.776 309.688C844.011 311.243 841.831 313.461 840.275 316.237L848.998 321.127C849.684 319.902 850.565 319.03 851.679 318.403L846.776 309.688ZM840.291 316.208C838.67 319.055 837.955 322.256 837.955 325.636H847.955C847.955 323.683 848.36 322.248 848.982 321.155L840.291 316.208ZM837.955 325.636V362H847.955V325.636H837.955ZM842.955 357H817.864V367H842.955V357ZM885 386.636L886.857 381.994L886.85 381.991L886.842 381.988L885 386.636ZM873.409 378.455L869.485 381.553L869.488 381.557L873.409 378.455ZM868.818 366.545V361.545H863.433L863.832 366.916L868.818 366.545ZM893 366.545L897.935 365.74L897.25 361.545H893V366.545ZM894.818 370.136L891.398 373.784L891.398 373.784L894.818 370.136ZM898.545 372.091L899.869 367.269L899.836 367.26L899.804 367.252L898.545 372.091ZM911.773 370.364L908.818 366.33L908.805 366.34L908.791 366.35L911.773 370.364ZM915 350H920V345H915V350ZM914.273 350V345H910.839L909.606 348.205L914.273 350ZM910.091 356.045L913.375 359.816L913.392 359.801L913.409 359.786L910.091 356.045ZM903.318 359.818L904.85 364.578L904.875 364.57L904.899 364.562L903.318 359.818ZM880.909 357.636L878.484 362.009L878.49 362.012L878.497 362.016L880.909 357.636ZM870.909 346.682L866.432 348.907L866.437 348.918L866.442 348.929L870.909 346.682ZM871.091 306.545L866.619 304.309L866.614 304.32L866.609 304.33L871.091 306.545ZM881.273 294.955L878.742 290.642L878.735 290.646L878.728 290.651L881.273 294.955ZM903.545 293.091L901.437 297.625L901.459 297.635L901.48 297.645L903.545 293.091ZM910.091 297.864L906.335 301.164L906.348 301.178L906.36 301.193L910.091 297.864ZM914.091 304.364L909.424 306.159L910.657 309.364H914.091V304.364ZM914.636 304.364V309.364H919.636V304.364H914.636ZM914.636 292.182V287.182H909.636V292.182H914.636ZM939.727 292.182H944.727V287.182H939.727V292.182ZM935.136 376.864L931.122 373.883L931.11 373.899L931.098 373.916L935.136 376.864ZM922.318 386.364L924.158 391.013L924.158 391.013L922.318 386.364ZM909.818 341.364L912.888 345.31L912.898 345.303L909.818 341.364ZM913.636 335.818L908.955 334.063L908.949 334.079L908.943 334.095L913.636 335.818ZM913.636 318.227L908.922 319.894L908.935 319.929L908.948 319.964L913.636 318.227ZM909.818 312.545L906.66 316.422L906.699 316.453L906.739 316.484L909.818 312.545ZM898 312.545L901.15 316.428L901.158 316.422L898 312.545ZM894.273 318.227L889.559 316.56L889.553 316.577L889.547 316.594L894.273 318.227ZM894.273 335.909L889.553 337.561L889.566 337.597L889.579 337.632L894.273 335.909ZM898 341.409L894.895 345.328L894.935 345.36L894.976 345.391L898 341.409ZM903 384.636C896.455 384.636 891.118 383.699 886.857 381.994L883.143 391.279C888.882 393.574 895.545 394.636 903 394.636V384.636ZM886.842 381.988C882.523 380.276 879.442 378.02 877.33 375.352L869.488 381.557C872.892 385.858 877.537 389.057 883.158 391.285L886.842 381.988ZM877.334 375.356C875.239 372.703 874.066 369.688 873.804 366.175L863.832 366.916C864.237 372.373 866.125 377.297 869.485 381.553L877.334 375.356ZM868.818 371.545H893V361.545H868.818V371.545ZM888.065 367.351C888.461 369.774 889.519 372.022 891.398 373.784L898.238 366.489C898.178 366.432 898.024 366.287 897.935 365.74L888.065 367.351ZM891.398 373.784C893.078 375.358 895.107 376.363 897.287 376.93L899.804 367.252C898.953 367.031 898.498 366.732 898.238 366.489L891.398 373.784ZM897.222 376.913C899.272 377.475 901.454 377.727 903.727 377.727V367.727C902.183 367.727 900.91 367.555 899.869 367.269L897.222 376.913ZM903.727 377.727C907.795 377.727 911.591 376.728 914.754 374.377L908.791 366.35C907.712 367.151 906.144 367.727 903.727 367.727V377.727ZM914.727 374.397C918.746 371.454 920 366.64 920 361.818H910C910 365.239 909.102 366.122 908.818 366.33L914.727 374.397ZM920 361.818V350H910V361.818H920ZM915 345H914.273V355H915V345ZM909.606 348.205C908.982 349.828 908.048 351.174 906.773 352.305L913.409 359.786C915.892 357.583 917.746 354.899 918.939 351.795L909.606 348.205ZM906.807 352.275C905.48 353.43 903.819 354.381 901.737 355.075L904.899 364.562C908.09 363.498 910.944 361.933 913.375 359.816L906.807 352.275ZM901.786 355.059C899.708 355.728 897.338 356.091 894.636 356.091V366.091C898.237 366.091 901.656 365.606 904.85 364.578L901.786 355.059ZM894.636 356.091C890.474 356.091 886.733 355.136 883.321 353.257L878.497 362.016C883.449 364.743 888.859 366.091 894.636 366.091V356.091ZM883.335 353.264C880.21 351.531 877.522 348.702 875.376 344.435L866.442 348.929C869.326 354.662 873.306 359.136 878.484 362.009L883.335 353.264ZM875.387 344.457C873.363 340.386 872.182 334.698 872.182 327.091H862.182C862.182 335.606 863.485 342.978 866.432 348.907L875.387 344.457ZM872.182 327.091C872.182 319.126 873.422 313.113 875.573 308.761L866.609 304.33C863.547 310.524 862.182 318.208 862.182 327.091H872.182ZM875.563 308.782C877.865 304.177 880.661 301.125 883.817 299.259L878.728 290.651C873.581 293.694 869.589 298.369 866.619 304.309L875.563 308.782ZM883.804 299.267C887.26 297.238 890.786 296.273 894.455 296.273V286.273C888.911 286.273 883.649 287.762 878.742 290.642L883.804 299.267ZM894.455 296.273C897.325 296.273 899.611 296.775 901.437 297.625L905.654 288.557C902.268 286.982 898.493 286.273 894.455 286.273V296.273ZM901.48 297.645C903.489 298.556 905.08 299.736 906.335 301.164L913.847 294.563C911.587 291.991 908.814 289.99 905.61 288.537L901.48 297.645ZM906.36 301.193C907.733 302.731 908.741 304.382 909.424 306.159L918.758 302.569C917.623 299.618 915.964 296.936 913.822 294.535L906.36 301.193ZM914.091 309.364H914.636V299.364H914.091V309.364ZM919.636 304.364V292.182H909.636V304.364H919.636ZM914.636 297.182H939.727V287.182H914.636V297.182ZM934.727 292.182V361.818H944.727V292.182H934.727ZM934.727 361.818C934.727 366.822 933.449 370.75 931.122 373.883L939.15 379.845C942.945 374.735 944.727 368.632 944.727 361.818H934.727ZM931.098 373.916C928.707 377.192 925.253 379.826 920.479 381.714L924.158 391.013C930.414 388.538 935.506 384.839 939.175 379.812L931.098 373.916ZM920.479 381.714C915.672 383.616 909.881 384.636 903 384.636V394.636C910.846 394.636 917.934 393.475 924.158 391.013L920.479 381.714ZM903.909 348.273C907.194 348.273 910.276 347.342 912.888 345.31L906.748 337.417C906.087 337.931 905.231 338.273 903.909 338.273V348.273ZM912.898 345.303C915.437 343.318 917.197 340.629 918.33 337.541L908.943 334.095C908.319 335.795 907.533 336.803 906.739 337.425L912.898 345.303ZM918.318 337.574C919.492 334.444 920 330.908 920 327.091H910C910 330.062 909.599 332.344 908.955 334.063L918.318 337.574ZM920 327.091C920 323.222 919.494 319.647 918.325 316.491L908.948 319.964C909.597 321.716 910 324.05 910 327.091H920ZM918.35 316.56C917.232 313.398 915.479 310.625 912.898 308.606L906.739 316.484C907.49 317.072 908.283 318.087 908.922 319.894L918.35 316.56ZM912.977 308.669C910.365 306.541 907.251 305.545 903.909 305.545V315.545C905.173 315.545 905.999 315.883 906.66 316.422L912.977 308.669ZM903.909 305.545C900.567 305.545 897.453 306.541 894.842 308.669L901.158 316.422C901.819 315.883 902.645 315.545 903.909 315.545V305.545ZM894.85 308.663C892.357 310.685 890.662 313.442 889.559 316.56L898.987 319.894C899.641 318.043 900.431 317.012 901.15 316.428L894.85 308.663ZM889.547 316.594C888.468 319.715 888 323.253 888 327.091H898C898 324.02 898.38 321.649 898.998 319.861L889.547 316.594ZM888 327.091C888 330.926 888.467 334.458 889.553 337.561L898.992 334.257C898.381 332.512 898 330.164 898 327.091H888ZM889.579 337.632C890.698 340.68 892.41 343.359 894.895 345.328L901.105 337.49C900.378 336.914 899.605 335.926 898.966 334.186L889.579 337.632ZM894.976 345.391C897.587 347.373 900.653 348.273 903.909 348.273V338.273C902.559 338.273 901.686 337.93 901.024 337.427L894.976 345.391ZM966.67 359L964.306 363.406L964.321 363.414L964.336 363.421L966.67 359ZM954.261 346.636L949.85 348.991L949.858 349.005L949.866 349.02L954.261 346.636ZM954.307 308.364L958.708 310.737L958.708 310.737L954.307 308.364ZM966.625 295.773L969.087 300.125L969.087 300.125L966.625 295.773ZM999.716 293.727L1001.5 289.058L1001.5 289.058L999.716 293.727ZM1010.67 300.864L1007.08 304.347L1007.09 304.355L1007.1 304.364L1010.67 300.864ZM1017.67 312.136L1012.98 313.871L1012.98 313.871L1017.67 312.136ZM1020.12 332.909V337.909H1025.12V332.909H1020.12ZM957.761 332.909H952.761V337.909H957.761V332.909ZM957.761 319.091V314.091H952.761V319.091H957.761ZM997.034 319.091V324.091H1002.11L1002.03 319.015L997.034 319.091ZM995.489 313.818L991.253 316.476L991.284 316.524L991.316 316.572L995.489 313.818ZM991.534 310.227L989.168 314.632L989.217 314.658L989.266 314.683L991.534 310.227ZM980.352 310.227L982.588 314.699L982.62 314.684L982.652 314.667L980.352 310.227ZM976.261 313.773L972.127 310.961L972.107 310.99L972.088 311.019L976.261 313.773ZM974.67 319.091L969.673 318.942L969.67 319.016V319.091H974.67ZM976.08 340L971.67 342.357L971.67 342.357L976.08 340ZM980.125 344.136L977.652 348.482L977.652 348.482L980.125 344.136ZM991.216 344.909L989.635 340.166L989.62 340.171L989.605 340.176L991.216 344.909ZM994.943 342.818L998.251 346.567L998.282 346.54L998.312 346.513L994.943 342.818ZM997.216 339.455V334.455H993.741L992.53 337.711L997.216 339.455ZM1020.12 339.455L1025.06 340.257L1026 334.455H1020.12V339.455ZM1014.53 352.091L1018.38 355.282L1018.39 355.274L1018.4 355.266L1014.53 352.091ZM1002.85 360.364L1004.72 365.002L1004.73 364.999L1004.73 364.996L1002.85 360.364ZM985.943 358.273C979.124 358.273 973.537 356.972 969.005 354.579L964.336 363.421C970.592 366.725 977.853 368.273 985.943 368.273V358.273ZM969.035 354.594C964.533 352.178 961.102 348.761 958.657 344.253L949.866 349.02C953.239 355.239 958.08 360.064 964.306 363.406L969.035 354.594ZM958.672 344.282C956.259 339.761 954.943 334.152 954.943 327.273H944.943C944.943 335.423 946.506 342.724 949.85 348.991L958.672 344.282ZM954.943 327.273C954.943 320.742 956.256 315.283 958.708 310.737L949.906 305.99C946.539 312.232 944.943 319.379 944.943 327.273H954.943ZM958.708 310.737C961.172 306.167 964.609 302.658 969.087 300.125L964.163 291.421C958.035 294.887 953.259 299.772 949.906 305.99L958.708 310.737ZM969.087 300.125C973.512 297.621 978.889 296.273 985.398 296.273V286.273C977.482 286.273 970.344 287.924 964.163 291.421L969.087 300.125ZM985.398 296.273C990.151 296.273 994.306 297.009 997.928 298.397L1001.5 289.058C996.581 287.172 991.19 286.273 985.398 286.273V296.273ZM997.928 298.397C1001.56 299.787 1004.59 301.774 1007.08 304.347L1014.26 297.381C1010.7 293.711 1006.42 290.941 1001.5 289.058L997.928 298.397ZM1007.1 304.364C1009.59 306.908 1011.57 310.048 1012.98 313.871L1022.36 310.402C1020.5 305.377 1017.81 301.001 1014.24 297.363L1007.1 304.364ZM1012.98 313.871C1014.38 317.652 1015.12 322.036 1015.12 327.091H1025.12C1025.12 321.055 1024.23 315.469 1022.36 310.402L1012.98 313.871ZM1015.12 327.091V332.909H1025.12V327.091H1015.12ZM1020.12 327.909H957.761V337.909H1020.12V327.909ZM962.761 332.909V319.091H952.761V332.909H962.761ZM957.761 324.091H997.034V314.091H957.761V324.091ZM1002.03 319.015C1001.99 316.162 1001.24 313.455 999.662 311.064L991.316 316.572C991.738 317.212 992.017 318.019 992.035 319.167L1002.03 319.015ZM999.724 311.161C998.261 308.829 996.254 307.02 993.803 305.771L989.266 314.683C990.147 315.132 990.777 315.716 991.253 316.476L999.724 311.161ZM993.9 305.822C991.449 304.506 988.754 303.909 985.943 303.909V313.909C987.314 313.909 988.347 314.191 989.168 314.632L993.9 305.822ZM985.943 303.909C983.164 303.909 980.505 304.518 978.053 305.787L982.652 314.667C983.594 314.179 984.662 313.909 985.943 313.909V303.909ZM978.116 305.755C975.683 306.972 973.655 308.714 972.127 310.961L980.396 316.584C980.928 315.801 981.628 315.18 982.588 314.699L978.116 305.755ZM972.088 311.019C970.518 313.398 969.758 316.097 969.673 318.942L979.668 319.24C979.705 318.024 980.005 317.178 980.434 316.527L972.088 311.019ZM969.67 319.091V334H979.67V319.091H969.67ZM969.67 334C969.67 336.96 970.297 339.787 971.67 342.357L980.489 337.643C979.984 336.697 979.67 335.525 979.67 334H969.67ZM971.67 342.357C973.061 344.96 975.087 347.023 977.652 348.482L982.598 339.791C981.648 339.25 980.977 338.555 980.489 337.643L971.67 342.357ZM977.652 348.482C980.318 349.999 983.334 350.636 986.489 350.636V340.636C984.674 340.636 983.447 340.274 982.598 339.791L977.652 348.482ZM986.489 350.636C988.684 350.636 990.814 350.328 992.827 349.642L989.605 340.176C988.77 340.46 987.748 340.636 986.489 340.636V350.636ZM992.797 349.653C994.814 348.98 996.663 347.969 998.251 346.567L991.635 339.069C991.163 339.485 990.527 339.868 989.635 340.166L992.797 349.653ZM998.312 346.513C999.929 345.039 1001.14 343.249 1001.9 341.198L992.53 337.711C992.323 338.266 992.018 338.719 991.574 339.123L998.312 346.513ZM997.216 344.455H1020.12V334.455H997.216V344.455ZM1015.19 338.653C1014.53 342.685 1013.02 346.065 1010.67 348.916L1018.4 355.266C1021.93 350.966 1024.14 345.922 1025.06 340.257L1015.19 338.653ZM1010.68 348.9C1008.34 351.728 1005.16 354.029 1000.97 355.731L1004.73 364.996C1010.24 362.758 1014.85 359.545 1018.38 355.282L1010.68 348.9ZM1000.99 355.725C996.885 357.376 991.908 358.273 985.943 358.273V368.273C992.887 368.273 999.183 367.231 1004.72 365.002L1000.99 355.725Z" fill="url(#paint4_linear_148_399)" mask="url(#path-5-outside-1_148_399)"/>
<path d="M63.5234 34.8515L56 54.625H64.0948L67.8088 43.9341L63.5234 34.8515Z" fill="white"/>
<path d="M74.4751 54.625L64.8566 34H72.7609L82.3794 54.625H74.4751Z" fill="white"/>
<path d="M79.1073 39.0143L76.917 34H84.5356L87.0116 39.0143H79.1073Z" fill="white"/>
<path d="M86.2498 54.625L79.4883 40.3389H87.4878L94.4398 54.625H86.2498Z" fill="white"/>
<path d="M90.882 39.0143L88.6916 34H101.643L104.024 39.0143H90.882Z" fill="white"/>
<path d="M100.405 54.625L93.8342 40.3389H101.643L108.5 54.625H100.405Z" fill="white"/>
<path d="M140.648 39.3636V35.5455H155.818V39.3636H150.568V53H145.898V39.3636H140.648ZM157.602 53V35.5455H170.181V39.3636H162.34V42.3636H169.533V46.1818H162.34V49.1818H170.147V53H157.602ZM188.827 42.0909H184.02C183.986 41.6932 183.895 41.3324 183.747 41.0085C183.605 40.6847 183.406 40.4062 183.151 40.1733C182.901 39.9347 182.597 39.7528 182.239 39.6278C181.881 39.4972 181.474 39.4318 181.02 39.4318C180.224 39.4318 179.551 39.625 179 40.0114C178.455 40.3977 178.04 40.9517 177.756 41.6733C177.477 42.3949 177.338 43.2614 177.338 44.2727C177.338 45.3409 177.48 46.2358 177.764 46.9574C178.054 47.6733 178.472 48.2131 179.017 48.5767C179.563 48.9347 180.219 49.1136 180.986 49.1136C181.423 49.1136 181.815 49.0597 182.162 48.9517C182.509 48.8381 182.81 48.6761 183.065 48.4659C183.321 48.2557 183.528 48.0028 183.688 47.7074C183.852 47.4062 183.963 47.0682 184.02 46.6932L188.827 46.7273C188.77 47.4659 188.563 48.2187 188.205 48.9858C187.847 49.7472 187.338 50.4517 186.679 51.0994C186.026 51.7415 185.216 52.2585 184.25 52.6506C183.284 53.0426 182.162 53.2386 180.884 53.2386C179.281 53.2386 177.844 52.8949 176.571 52.2074C175.304 51.5199 174.301 50.5085 173.562 49.1733C172.83 47.8381 172.463 46.2045 172.463 44.2727C172.463 42.3295 172.838 40.6932 173.588 39.3636C174.338 38.0284 175.349 37.0199 176.622 36.3381C177.895 35.6506 179.315 35.3068 180.884 35.3068C181.986 35.3068 183 35.4574 183.926 35.7585C184.852 36.0597 185.665 36.5 186.364 37.0795C187.063 37.6534 187.625 38.3608 188.051 39.2017C188.477 40.0426 188.736 41.0057 188.827 42.0909ZM190.977 53V35.5455H195.715V42.3636H201.988V35.5455H206.727V53H201.988V46.1818H195.715V53H190.977ZM224.079 35.5455V53H220.124L213.817 43.8295H213.715V53H208.977V35.5455H212.999L219.204 44.6818H219.34V35.5455H224.079ZM243.229 44.2727C243.229 46.2159 242.852 47.8551 242.096 49.1903C241.34 50.5199 240.32 51.5284 239.036 52.2159C237.752 52.8977 236.32 53.2386 234.741 53.2386C233.15 53.2386 231.712 52.8949 230.428 52.2074C229.15 51.5142 228.133 50.5028 227.377 49.1733C226.627 47.8381 226.252 46.2045 226.252 44.2727C226.252 42.3295 226.627 40.6932 227.377 39.3636C228.133 38.0284 229.15 37.0199 230.428 36.3381C231.712 35.6506 233.15 35.3068 234.741 35.3068C236.32 35.3068 237.752 35.6506 239.036 36.3381C240.32 37.0199 241.34 38.0284 242.096 39.3636C242.852 40.6932 243.229 42.3295 243.229 44.2727ZM238.354 44.2727C238.354 43.2273 238.215 42.3466 237.937 41.6307C237.664 40.9091 237.258 40.3636 236.718 39.9943C236.184 39.6193 235.525 39.4318 234.741 39.4318C233.957 39.4318 233.295 39.6193 232.755 39.9943C232.221 40.3636 231.815 40.9091 231.536 41.6307C231.263 42.3466 231.127 43.2273 231.127 44.2727C231.127 45.3182 231.263 46.2017 231.536 46.9233C231.815 47.6392 232.221 48.1847 232.755 48.5597C233.295 48.929 233.957 49.1136 234.741 49.1136C235.525 49.1136 236.184 48.929 236.718 48.5597C237.258 48.1847 237.664 47.6392 237.937 46.9233C238.215 46.2017 238.354 45.3182 238.354 44.2727ZM254.831 41C254.786 40.4318 254.572 39.9886 254.192 39.6705C253.817 39.3523 253.246 39.1932 252.479 39.1932C251.99 39.1932 251.589 39.2528 251.277 39.3722C250.97 39.4858 250.743 39.642 250.595 39.8409C250.447 40.0398 250.371 40.267 250.365 40.5227C250.354 40.733 250.391 40.9233 250.476 41.0938C250.567 41.2585 250.709 41.4091 250.902 41.5455C251.095 41.6761 251.342 41.7955 251.643 41.9034C251.945 42.0114 252.303 42.108 252.717 42.1932L254.149 42.5C255.115 42.7045 255.942 42.9744 256.629 43.3097C257.317 43.6449 257.879 44.0398 258.317 44.4943C258.754 44.9432 259.075 45.4489 259.28 46.0114C259.49 46.5739 259.598 47.1875 259.604 47.8523C259.598 49 259.311 49.9716 258.743 50.767C258.175 51.5625 257.362 52.1676 256.305 52.5824C255.254 52.9972 253.99 53.2045 252.513 53.2045C250.996 53.2045 249.672 52.9801 248.541 52.5312C247.416 52.0824 246.541 51.392 245.916 50.4602C245.297 49.5227 244.984 48.3239 244.979 46.8636H249.479C249.507 47.3977 249.641 47.8466 249.879 48.2102C250.118 48.5739 250.453 48.8494 250.885 49.0369C251.322 49.2244 251.842 49.3182 252.445 49.3182C252.95 49.3182 253.374 49.2557 253.714 49.1307C254.055 49.0057 254.314 48.8324 254.49 48.6108C254.666 48.3892 254.757 48.1364 254.763 47.8523C254.757 47.5852 254.669 47.3523 254.499 47.1534C254.334 46.9489 254.061 46.767 253.68 46.608C253.3 46.4432 252.786 46.2898 252.138 46.1477L250.399 45.7727C248.854 45.4375 247.635 44.8778 246.743 44.0938C245.857 43.304 245.416 42.2273 245.422 40.8636C245.416 39.7557 245.712 38.7869 246.308 37.9574C246.911 37.1222 247.743 36.4716 248.805 36.0057C249.874 35.5398 251.098 35.3068 252.479 35.3068C253.888 35.3068 255.107 35.5426 256.135 36.0142C257.163 36.4858 257.956 37.1506 258.513 38.0085C259.075 38.8608 259.359 39.858 259.365 41H254.831ZM261.406 53V35.5455H268.94C270.236 35.5455 271.369 35.8011 272.341 36.3125C273.313 36.8239 274.068 37.5426 274.608 38.4688C275.148 39.3949 275.418 40.4773 275.418 41.7159C275.418 42.9659 275.139 44.0483 274.582 44.9631C274.031 45.8778 273.256 46.5824 272.256 47.0767C271.261 47.571 270.099 47.8182 268.77 47.8182H264.27V44.1364H267.815C268.372 44.1364 268.847 44.0398 269.239 43.8466C269.636 43.6477 269.94 43.3665 270.151 43.0028C270.366 42.6392 270.474 42.2102 270.474 41.7159C270.474 41.2159 270.366 40.7898 270.151 40.4375C269.94 40.0795 269.636 39.8068 269.239 39.6193C268.847 39.4261 268.372 39.3295 267.815 39.3295H266.145V53H261.406ZM279.511 53H274.397L280.158 35.5455H286.636L292.397 53H287.283L283.465 40.3523H283.329L279.511 53ZM278.556 46.1136H288.17V49.6591H278.556V46.1136ZM294.078 53V35.5455H301.612C302.908 35.5455 304.041 35.7812 305.013 36.2528C305.984 36.7244 306.74 37.4034 307.28 38.2898C307.82 39.1761 308.089 40.2386 308.089 41.4773C308.089 42.7273 307.811 43.7812 307.254 44.6392C306.703 45.4972 305.928 46.1449 304.928 46.5824C303.933 47.0199 302.771 47.2386 301.442 47.2386H296.942V43.5568H300.487C301.044 43.5568 301.518 43.4886 301.911 43.3523C302.308 43.2102 302.612 42.9858 302.822 42.679C303.038 42.3722 303.146 41.9716 303.146 41.4773C303.146 40.9773 303.038 40.571 302.822 40.2585C302.612 39.9403 302.308 39.7074 301.911 39.5597C301.518 39.4062 301.044 39.3295 300.487 39.3295H298.817V53H294.078ZM304.305 44.9886L308.669 53H303.521L299.26 44.9886H304.305ZM315.189 35.5455L318.053 40.625H318.189L321.087 35.5455H326.371L321.155 44.2727L326.575 53H321.155L318.189 47.8182H318.053L315.087 53H309.7L315.053 44.2727L309.871 35.5455H315.189Z" fill="white"/>
<g opacity="0.47">
<path d="M1058.6 179.164C1056.3 179.164 1054.43 181.035 1054.43 183.341C1054.43 185.648 1056.3 187.518 1058.6 187.518C1060.91 187.518 1062.78 185.648 1062.78 183.341C1062.78 181.035 1060.91 179.164 1058.6 179.164Z" fill="url(#paint5_linear_148_399)"/>
<path d="M1133.07 164.442H984.141C973.569 164.442 965 172.944 965 183.515C965 194.086 973.569 202.588 984.141 202.588H1133.07C1143.64 202.588 1152.21 194.086 1152.21 183.515C1152.21 172.944 1143.64 164.442 1133.07 164.442ZM1009.05 193.438C1003.48 193.438 998.958 188.917 998.958 183.341C998.958 177.765 1003.48 173.244 1009.05 173.244C1014.63 173.244 1019.15 177.765 1019.15 183.341C1019.15 188.917 1014.63 193.438 1009.05 193.438ZM1058.6 193.438C1053.03 193.438 1048.51 188.917 1048.51 183.341C1048.51 177.765 1053.03 173.244 1058.6 173.244C1064.18 173.244 1068.7 177.765 1068.7 183.341C1068.7 188.917 1064.18 193.438 1058.6 193.438ZM1108.16 193.438C1102.58 193.438 1098.06 188.917 1098.06 183.341C1098.06 177.765 1102.58 173.244 1108.16 173.244C1113.73 173.244 1118.25 177.765 1118.25 183.341C1118.25 188.917 1113.73 193.438 1108.16 193.438Z" fill="url(#paint6_linear_148_399)"/>
<path d="M1108.16 187.518C1110.46 187.518 1112.33 185.648 1112.33 183.341C1112.33 181.034 1110.46 179.164 1108.16 179.164C1105.85 179.164 1103.98 181.034 1103.98 183.341C1103.98 185.648 1105.85 187.518 1108.16 187.518Z" fill="url(#paint7_linear_148_399)"/>
<path d="M1009.05 187.518C1011.36 187.518 1013.23 185.648 1013.23 183.341C1013.23 181.034 1011.36 179.164 1009.05 179.164C1006.75 179.164 1004.88 181.034 1004.88 183.341C1004.88 185.648 1006.75 187.518 1009.05 187.518Z" fill="url(#paint8_linear_148_399)"/>
<path d="M1077.08 212.991H1017.94C1016.63 212.991 1015.56 214.179 1015.56 215.495C1015.56 216.812 1016.63 218 1017.94 218H1077.08C1078.4 218 1079.46 216.812 1079.46 215.495C1079.46 214.179 1078.4 212.991 1077.08 212.991Z" fill="url(#paint9_linear_148_399)"/>
<path d="M1099.23 212.991H1089.87C1088.55 212.991 1087.48 214.179 1087.48 215.495C1087.48 216.812 1088.55 218 1089.87 218H1099.23C1100.54 218 1101.61 216.812 1101.61 215.495C1101.61 214.179 1100.54 212.991 1099.23 212.991Z" fill="url(#paint10_linear_148_399)"/>
<path d="M1119.38 140.322C1122.19 141.352 1123.6 142.761 1124.63 145.569C1125.07 146.769 1126.75 146.769 1127.19 145.569C1128.22 142.761 1129.63 141.352 1132.44 140.322C1133.64 139.88 1133.64 138.206 1132.44 137.765C1129.63 136.735 1128.22 135.325 1127.19 132.516C1126.75 131.317 1125.07 131.317 1124.63 132.516C1123.6 135.325 1122.19 136.735 1119.38 137.765C1118.18 138.206 1118.18 139.881 1119.38 140.322Z" fill="url(#paint11_linear_148_399)"/>
<path d="M992.43 39.8375C995.24 40.8678 996.649 42.2773 997.679 45.085C998.12 46.2853 999.795 46.2853 1000.24 45.085C1001.27 42.2773 1002.68 40.8678 1005.48 39.8375C1006.68 39.3963 1006.68 37.7214 1005.48 37.281C1002.68 36.2507 1001.27 34.8412 1000.24 32.0319C999.795 30.8325 998.12 30.8325 997.679 32.0319C996.649 34.8412 995.24 36.2507 992.43 37.281C991.232 37.7214 991.232 39.3963 992.43 39.8375Z" fill="url(#paint12_linear_148_399)"/>
<path d="M1006.98 71.8135C1008.15 72.3976 1009.59 71.9503 1010.17 70.772C1019.22 52.5692 1037.45 41.277 1057.76 41.2704C1063.63 41.272 1069.32 42.1651 1074.67 43.9472C1075 42.3555 1075.55 40.7322 1076.31 39.3458C1070.45 37.3815 1064.22 36.1343 1057.79 36.1343C1057.78 36.1343 1057.77 36.1343 1057.76 36.1343C1057.75 36.1343 1057.74 36.1343 1057.74 36.1343C1035.61 36.1343 1015.76 48.6653 1005.9 68.4917C1005.32 69.6716 1005.8 71.2274 1006.98 71.8135Z" fill="url(#paint13_linear_148_399)"/>
<path d="M1004.58 78.3322C1003.31 78.0117 1002.01 78.7769 1001.68 80.0534C1000.49 84.723 999.883 89.5551 999.883 94.4166C999.883 99.2788 1000.49 104.111 1001.68 108.78C1001.96 109.858 1002.92 110.575 1003.99 110.575C1004.18 110.575 1004.38 110.551 1004.58 110.499C1005.85 110.174 1006.63 108.876 1006.3 107.6C1005.21 103.317 1004.65 98.8815 1004.65 94.4166C1004.65 89.9524 1005.21 85.5167 1006.3 81.2317C1006.63 79.9563 1005.85 78.6582 1004.58 78.3322Z" fill="url(#paint14_linear_148_399)"/>
<path d="M1057.74 152.112C1057.74 152.112 1057.74 152.112 1057.74 152.112C1057.75 152.112 1057.77 152.112 1057.78 152.112C1057.78 152.112 1057.79 152.112 1057.79 152.112C1079.91 152.112 1099.77 139.875 1109.62 120.048C1110.21 118.87 1109.73 117.489 1108.55 116.903C1107.37 116.317 1105.94 116.824 1105.35 118.003C1096.31 136.204 1078.07 147.527 1057.76 147.534C1037.45 147.527 1019.22 136.224 1010.17 118.021C1009.59 116.842 1008.15 116.364 1006.98 116.951C1005.8 117.537 1005.31 118.867 1005.9 120.047C1015.75 139.874 1035.61 152.112 1057.74 152.112Z" fill="url(#paint15_linear_148_399)"/>
<path d="M1109.23 81.2317C1110.32 85.5167 1110.87 89.9523 1110.87 94.4165C1110.87 98.8815 1110.32 103.317 1109.23 107.6C1108.9 108.876 1109.67 110.175 1110.95 110.499C1111.15 110.551 1111.34 110.575 1111.54 110.575C1112.6 110.575 1113.57 109.858 1113.85 108.78C1115.04 104.111 1115.64 99.2787 1115.64 94.4165C1115.64 89.5551 1115.04 84.7229 1113.85 80.0534C1113.52 78.7776 1112.22 78.0101 1110.95 78.3322C1109.67 78.6582 1108.9 79.9563 1109.23 81.2317Z" fill="url(#paint16_linear_148_399)"/>
<path d="M1090.64 63.5836C1093.78 63.5836 1096.7 62.6789 1099.19 61.1377C1101.55 64.0876 1103.62 67.3192 1105.35 70.8059C1105.77 71.6443 1106.61 72.1298 1107.49 72.1298C1107.85 72.1298 1108.21 72.05 1108.55 71.8801C1109.73 71.2944 1110.21 69.8634 1109.62 68.6847C1107.72 64.8498 1105.44 61.3007 1102.84 58.0625C1105.38 55.1901 1106.93 51.4271 1106.93 47.292C1106.93 38.2943 1099.63 31 1090.64 31C1081.64 31 1074.34 38.2947 1074.34 47.292C1074.34 56.2897 1081.64 63.5836 1090.64 63.5836ZM1084.29 44.611H1087.78V40.9429C1087.78 39.6267 1089.16 38.5586 1090.48 38.5586C1091.79 38.5586 1093.18 39.6263 1093.18 40.9429V44.611H1096.98C1098.3 44.611 1099.37 45.992 1099.37 47.3082C1099.37 48.6244 1098.3 50.0054 1096.98 50.0054H1093.18V53.6384C1093.18 54.9554 1091.79 56.0227 1090.48 56.0227C1089.16 56.0227 1087.78 54.9554 1087.78 53.6384V50.0054H1084.29C1082.97 50.0054 1081.9 48.6244 1081.9 47.3082C1081.9 45.992 1082.97 44.611 1084.29 44.611Z" fill="url(#paint17_linear_148_399)"/>
<path d="M1025.15 86.8819L1054.38 127.284C1054.96 128.072 1055.78 128.635 1056.7 128.875C1057.04 128.958 1057.39 129.011 1057.74 129.011C1058.1 129.011 1058.45 128.963 1058.79 128.88C1059.71 128.639 1060.54 128.085 1061.1 127.297L1090.35 86.9081C1090.48 86.7177 1090.58 86.5019 1090.62 86.2777C1090.72 85.8473 1090.64 85.3903 1090.39 85.0174L1083.26 74.0669C1082.96 73.6026 1082.44 73.124 1081.88 73.124H1065.5H1050.03H1033.65C1033.09 73.124 1032.57 73.603 1032.26 74.0673L1025.38 84.5627L1025.14 84.9414C1024.89 85.3148 1024.81 85.4539 1024.91 86.2245H1024.87C1024.91 86.2245 1025.01 86.6907 1025.15 86.8819ZM1076.13 83.5274H1081.29C1082.61 83.5274 1083.68 84.523 1083.68 85.8392C1083.68 87.1554 1082.61 88.1511 1081.29 88.1511H1076.13C1074.81 88.1511 1073.74 87.1554 1073.74 85.8392C1073.74 84.523 1074.81 83.5274 1076.13 83.5274ZM1034.43 83.5274H1064.48C1065.79 83.5274 1066.86 84.523 1066.86 85.8392C1066.86 87.1554 1065.79 88.1511 1064.48 88.1511H1034.43C1033.11 88.1511 1032.05 87.1554 1032.05 85.8392C1032.05 84.523 1033.11 83.5274 1034.43 83.5274Z" fill="url(#paint18_linear_148_399)"/>
</g>
<g opacity="0.31">
<path d="M28.4385 504.625C31.5427 500.735 45.2128 487.318 49.3668 483.261C49.4443 448.365 81.1156 420 120.035 420C159.002 420 190.703 448.437 190.703 483.391C190.703 506.936 176.391 528.272 153.282 539.333C153.267 539.343 143.608 543.713 143.608 555.696V604.086C143.608 606.248 141.79 608 139.547 608H82.7362C80.4935 608 78.6752 606.248 78.6752 604.086V582.959C78.1473 574.462 76.9285 572.595 71.8892 572.496H71.8876C71.8876 572.496 58.1157 572.514 57.7085 572.514C55.3727 572.514 50.1243 572.061 45.9605 568.389C42.5066 565.343 40.7555 560.968 40.7555 555.387V531.247C39.1014 529.355 35.5976 525.404 33.1373 523.033C23.6033 513.842 26.1011 507.555 28.4385 504.625ZM38.8794 517.496C42.4541 520.942 47.7219 527.07 47.9444 527.33C48.5471 528.032 48.8768 528.914 48.8768 529.825V555.387C48.8768 558.655 49.7269 561.075 51.4038 562.578C54.0298 564.932 58.126 564.675 58.1352 564.674C58.2554 564.664 72.0181 564.668 72.0181 564.668C72.024 564.668 72.0289 564.668 72.0348 564.668C88.0191 565.069 86.7971 582.767 86.7971 582.843V600.17H135.486V555.575C135.486 555.499 134.133 540.059 147.913 533.208C172.463 521.004 182.582 504.23 182.582 483.392C182.582 452.754 154.523 427.829 120.035 427.829C85.5463 427.829 57.4881 452.754 57.4881 483.391C57.4881 483.885 57.4962 484.377 57.5103 484.868C57.5515 486.279 56.8097 487.548 55.6499 488.269C50.172 493.609 37.4916 506.121 34.8759 509.398C33.0571 511.678 37.8918 516.544 38.8794 517.496Z" fill="url(#paint19_linear_148_399)"/>
<path d="M107.867 465.037H113.243C113.85 461.688 115.219 458.59 117.173 455.915L113.365 452.244C111.779 450.715 111.779 448.237 113.365 446.708C114.951 445.18 117.523 445.18 119.108 446.709L122.915 450.379C125.691 448.495 128.905 447.176 132.379 446.591V441.409C132.379 439.246 134.197 437.494 136.44 437.494C138.683 437.494 140.501 439.246 140.501 441.409V446.591C143.975 447.176 147.188 448.495 149.963 450.379L153.771 446.709C155.357 445.18 157.928 445.18 159.513 446.708C161.1 448.237 161.1 450.716 159.513 452.244L155.706 455.915C157.659 458.59 159.028 461.688 159.635 465.037H165.011C167.255 465.037 169.072 466.789 169.072 468.951C169.072 471.113 167.255 472.865 165.011 472.865H159.635C159.028 476.214 157.66 479.312 155.705 481.988L159.513 485.659C161.1 487.187 161.1 489.666 159.513 491.195C158.721 491.959 157.681 492.341 156.642 492.341C155.602 492.341 154.563 491.959 153.77 491.194L149.963 487.523C147.187 489.408 143.974 490.728 140.5 491.312V496.493C140.5 498.656 138.682 500.408 136.439 500.408C134.196 500.408 132.378 498.656 132.378 496.493V491.312C128.904 490.728 125.69 489.408 122.915 487.524L119.107 491.194C118.314 491.959 117.275 492.341 116.235 492.341C115.196 492.341 114.157 491.959 113.364 491.195C111.778 489.666 111.778 487.187 113.364 485.659L117.172 481.988C115.218 479.312 113.849 476.215 113.242 472.865H107.866C105.623 472.865 103.805 471.113 103.805 468.951C103.805 466.789 105.625 465.037 107.867 465.037ZM136.439 483.827C144.948 483.827 151.871 477.154 151.871 468.951C151.871 460.748 144.948 454.075 136.439 454.075C127.93 454.075 121.007 460.748 121.007 468.951C121.007 477.154 127.93 483.827 136.439 483.827Z" fill="url(#paint20_linear_148_399)"/>
<path d="M70.4869 494.259H73.7449C74.2094 492.22 75.0416 490.246 76.241 488.432L73.9425 486.217C72.3566 484.688 72.3566 482.209 73.9425 480.681C75.5284 479.153 78.0998 479.152 79.6852 480.682L81.9804 482.894C83.8354 481.749 85.8767 480.934 88.0284 480.479V477.35C88.0284 475.188 89.8461 473.436 92.0888 473.436C94.3315 473.436 96.1503 475.188 96.1503 477.35V480.479C98.302 480.934 100.343 481.749 102.198 482.894L104.493 480.682C106.079 479.153 108.65 479.152 110.236 480.681C111.822 482.21 111.822 484.688 110.236 486.217L107.938 488.432C109.138 490.246 109.969 492.22 110.434 494.259H113.691C115.934 494.259 117.752 496.011 117.753 498.173C117.753 500.335 115.934 502.088 113.692 502.088H110.434C109.97 504.127 109.138 506.102 107.938 507.915L110.236 510.13C111.822 511.659 111.822 514.137 110.236 515.666C109.443 516.431 108.404 516.813 107.364 516.813C106.325 516.813 105.286 516.431 104.493 515.667L102.198 513.455C100.343 514.599 98.3015 515.415 96.1497 515.869V518.998C96.1492 521.16 94.3315 522.912 92.0883 522.912C89.8456 522.912 88.0274 521.159 88.0279 518.997V515.869C85.8762 515.414 83.8349 514.599 81.9798 513.454L79.6846 515.667C78.8914 516.431 77.8523 516.813 76.8127 516.813C75.7737 516.813 74.7341 516.431 73.9414 515.667C72.3549 514.137 72.3549 511.659 73.9414 510.131L76.2393 507.915C75.0395 506.102 74.2083 504.127 73.7438 502.089H70.4853C68.2426 502.089 66.4244 500.336 66.4249 498.174C66.4255 496.012 68.2442 494.259 70.4869 494.259ZM84.5393 505.452C86.5568 507.397 89.238 508.467 92.0904 508.467C94.9428 508.467 97.6236 507.396 99.6399 505.453C103.803 501.44 103.803 494.909 99.6394 490.896C97.6225 488.952 94.9412 487.882 92.0893 487.882C89.237 487.882 86.5557 488.952 84.5393 490.896C80.3761 494.909 80.3761 501.439 84.5393 505.452Z" fill="url(#paint21_linear_148_399)"/>
</g>
</g>
<defs>
<linearGradient id="paint0_linear_148_399" x1="-63.757" y1="-34.0071" x2="-63.757" y2="347.166" gradientUnits="userSpaceOnUse">
<stop stop-color="#FF9E0B"/>
<stop offset="1" stop-color="#EC4899"/>
</linearGradient>
<linearGradient id="paint1_linear_148_399" x1="1173" y1="695.827" x2="1173" y2="969.442" gradientUnits="userSpaceOnUse">
<stop stop-color="#FF9E0B"/>
<stop offset="1" stop-color="#F24E52"/>
</linearGradient>
<linearGradient id="paint2_linear_148_399" x1="882.5" y1="530" x2="882.5" y2="919" gradientUnits="userSpaceOnUse">
<stop stop-color="#FF9E0B"/>
<stop offset="1" stop-color="#9C67E7"/>
</linearGradient>
<linearGradient id="paint3_linear_148_399" x1="491" y1="30" x2="491" y2="162" gradientUnits="userSpaceOnUse">
<stop stop-color="#FF9E0B"/>
<stop offset="1" stop-color="#DA46EB"/>
</linearGradient>
<linearGradient id="paint4_linear_148_399" x1="600" y1="238" x2="600" y2="393" gradientUnits="userSpaceOnUse">
<stop stop-color="#FF9E0B"/>
<stop offset="0.49" stop-color="#F24E52"/>
</linearGradient>
<linearGradient id="paint5_linear_148_399" x1="1058.6" y1="179.164" x2="1058.6" y2="187.518" gradientUnits="userSpaceOnUse">
<stop stop-color="#F24E52"/>
<stop offset="1" stop-color="#FF9E0B"/>
</linearGradient>
<linearGradient id="paint6_linear_148_399" x1="1058.61" y1="164.442" x2="1058.61" y2="202.588" gradientUnits="userSpaceOnUse">
<stop stop-color="#F24E52"/>
<stop offset="1" stop-color="#FF9E0B"/>
</linearGradient>
<linearGradient id="paint7_linear_148_399" x1="1108.16" y1="179.164" x2="1108.16" y2="187.518" gradientUnits="userSpaceOnUse">
<stop stop-color="#F24E52"/>
<stop offset="1" stop-color="#FF9E0B"/>
</linearGradient>
<linearGradient id="paint8_linear_148_399" x1="1009.05" y1="179.164" x2="1009.05" y2="187.518" gradientUnits="userSpaceOnUse">
<stop stop-color="#F24E52"/>
<stop offset="1" stop-color="#FF9E0B"/>
</linearGradient>
<linearGradient id="paint9_linear_148_399" x1="1047.51" y1="212.991" x2="1047.51" y2="218" gradientUnits="userSpaceOnUse">
<stop stop-color="#F24E52"/>
<stop offset="1" stop-color="#FF9E0B"/>
</linearGradient>
<linearGradient id="paint10_linear_148_399" x1="1094.55" y1="212.991" x2="1094.55" y2="218" gradientUnits="userSpaceOnUse">
<stop stop-color="#F24E52"/>
<stop offset="1" stop-color="#FF9E0B"/>
</linearGradient>
<linearGradient id="paint11_linear_148_399" x1="1125.91" y1="131.616" x2="1125.91" y2="146.469" gradientUnits="userSpaceOnUse">
<stop stop-color="#F24E52"/>
<stop offset="1" stop-color="#FF9E0B"/>
</linearGradient>
<linearGradient id="paint12_linear_148_399" x1="998.957" y1="31.1323" x2="998.957" y2="45.9852" gradientUnits="userSpaceOnUse">
<stop stop-color="#F24E52"/>
<stop offset="1" stop-color="#FF9E0B"/>
</linearGradient>
<linearGradient id="paint13_linear_148_399" x1="1040.98" y1="36.1343" x2="1040.98" y2="72.0689" gradientUnits="userSpaceOnUse">
<stop stop-color="#F24E52"/>
<stop offset="1" stop-color="#FF9E0B"/>
</linearGradient>
<linearGradient id="paint14_linear_148_399" x1="1003.13" y1="78.2593" x2="1003.13" y2="110.575" gradientUnits="userSpaceOnUse">
<stop stop-color="#F24E52"/>
<stop offset="1" stop-color="#FF9E0B"/>
</linearGradient>
<linearGradient id="paint15_linear_148_399" x1="1057.76" y1="116.658" x2="1057.76" y2="152.112" gradientUnits="userSpaceOnUse">
<stop stop-color="#F24E52"/>
<stop offset="1" stop-color="#FF9E0B"/>
</linearGradient>
<linearGradient id="paint16_linear_148_399" x1="1112.4" y1="78.2588" x2="1112.4" y2="110.575" gradientUnits="userSpaceOnUse">
<stop stop-color="#F24E52"/>
<stop offset="1" stop-color="#FF9E0B"/>
</linearGradient>
<linearGradient id="paint17_linear_148_399" x1="1092.11" y1="31" x2="1092.11" y2="72.1298" gradientUnits="userSpaceOnUse">
<stop stop-color="#F24E52"/>
<stop offset="1" stop-color="#FF9E0B"/>
</linearGradient>
<linearGradient id="paint18_linear_148_399" x1="1057.76" y1="73.124" x2="1057.76" y2="129.011" gradientUnits="userSpaceOnUse">
<stop stop-color="#F24E52"/>
<stop offset="1" stop-color="#FF9E0B"/>
</linearGradient>
<linearGradient id="paint19_linear_148_399" x1="108.5" y1="420" x2="108.5" y2="608" gradientUnits="userSpaceOnUse">
<stop stop-color="#F24E52"/>
<stop offset="1" stop-color="#FF9E0B"/>
</linearGradient>
<linearGradient id="paint20_linear_148_399" x1="136.439" y1="437.494" x2="136.439" y2="500.408" gradientUnits="userSpaceOnUse">
<stop stop-color="#F24E52"/>
<stop offset="1" stop-color="#FF9E0B"/>
</linearGradient>
<linearGradient id="paint21_linear_148_399" x1="92.0888" y1="473.436" x2="92.0888" y2="522.912" gradientUnits="userSpaceOnUse">
<stop stop-color="#F24E52"/>
<stop offset="1" stop-color="#FF9E0B"/>
</linearGradient>
<clipPath id="clip0_148_399">
<rect width="1200" height="630" fill="white"/>
</clipPath>
</defs>
</svg>
