<svg width="1200" height="630" viewBox="0 0 1200 630" fill="none" xmlns="http://www.w3.org/2000/svg">
<g clip-path="url(#clip0_148_312)">
<rect width="1200" height="630" fill="black"/>
<rect x="-427.809" y="-32.4841" width="729.486" height="376.173" transform="rotate(-19.4848 -427.809 -32.4841)" stroke="url(#paint0_linear_148_312)" stroke-width="5"/>
<rect x="883" y="695.827" width="580" height="273.616" transform="rotate(-35.26 883 695.827)" fill="url(#paint1_linear_148_312)"/>
<circle cx="882.5" cy="724.5" r="193" stroke="url(#paint2_linear_148_312)" stroke-width="3"/>
<path opacity="0.49" d="M415 58.3636C414.121 58.3636 413.367 58.0568 412.739 57.4432C412.117 56.822 411.811 56.0682 411.818 55.1818C411.811 54.3182 412.117 53.5795 412.739 52.9659C413.367 52.3523 414.121 52.0455 415 52.0455C415.833 52.0455 416.568 52.3523 417.205 52.9659C417.848 53.5795 418.174 54.3182 418.182 55.1818C418.174 55.7727 418.019 56.3106 417.716 56.7955C417.42 57.2727 417.034 57.6553 416.557 57.9432C416.08 58.2235 415.561 58.3636 415 58.3636ZM459.003 58.3636C458.124 58.3636 457.37 58.0568 456.741 57.4432C456.12 56.822 455.813 56.0682 455.821 55.1818C455.813 54.3182 456.12 53.5795 456.741 52.9659C457.37 52.3523 458.124 52.0455 459.003 52.0455C459.836 52.0455 460.571 52.3523 461.207 52.9659C461.851 53.5795 462.177 54.3182 462.184 55.1818C462.177 55.7727 462.021 56.3106 461.718 56.7955C461.423 57.2727 461.037 57.6553 460.559 57.9432C460.082 58.2235 459.563 58.3636 459.003 58.3636ZM503.005 58.3636C502.126 58.3636 501.372 58.0568 500.744 57.4432C500.122 56.822 499.816 56.0682 499.823 55.1818C499.816 54.3182 500.122 53.5795 500.744 52.9659C501.372 52.3523 502.126 52.0455 503.005 52.0455C503.838 52.0455 504.573 52.3523 505.21 52.9659C505.853 53.5795 506.179 54.3182 506.187 55.1818C506.179 55.7727 506.024 56.3106 505.721 56.7955C505.425 57.2727 505.039 57.6553 504.562 57.9432C504.085 58.2235 503.566 58.3636 503.005 58.3636ZM547.008 58.3636C546.129 58.3636 545.375 58.0568 544.746 57.4432C544.125 56.822 543.818 56.0682 543.826 55.1818C543.818 54.3182 544.125 53.5795 544.746 52.9659C545.375 52.3523 546.129 52.0455 547.008 52.0455C547.841 52.0455 548.576 52.3523 549.212 52.9659C549.856 53.5795 550.182 54.3182 550.189 55.1818C550.182 55.7727 550.026 56.3106 549.723 56.7955C549.428 57.2727 549.042 57.6553 548.564 57.9432C548.087 58.2235 547.568 58.3636 547.008 58.3636ZM415 91.3636C414.121 91.3636 413.367 91.0568 412.739 90.4432C412.117 89.822 411.811 89.0682 411.818 88.1818C411.811 87.3182 412.117 86.5795 412.739 85.9659C413.367 85.3523 414.121 85.0455 415 85.0455C415.833 85.0455 416.568 85.3523 417.205 85.9659C417.848 86.5795 418.174 87.3182 418.182 88.1818C418.174 88.7727 418.019 89.3106 417.716 89.7955C417.42 90.2727 417.034 90.6553 416.557 90.9432C416.08 91.2235 415.561 91.3636 415 91.3636ZM459.003 91.3636C458.124 91.3636 457.37 91.0568 456.741 90.4432C456.12 89.822 455.813 89.0682 455.821 88.1818C455.813 87.3182 456.12 86.5795 456.741 85.9659C457.37 85.3523 458.124 85.0455 459.003 85.0455C459.836 85.0455 460.571 85.3523 461.207 85.9659C461.851 86.5795 462.177 87.3182 462.184 88.1818C462.177 88.7727 462.021 89.3106 461.718 89.7955C461.423 90.2727 461.037 90.6553 460.559 90.9432C460.082 91.2235 459.563 91.3636 459.003 91.3636ZM503.005 91.3636C502.126 91.3636 501.372 91.0568 500.744 90.4432C500.122 89.822 499.816 89.0682 499.823 88.1818C499.816 87.3182 500.122 86.5795 500.744 85.9659C501.372 85.3523 502.126 85.0455 503.005 85.0455C503.838 85.0455 504.573 85.3523 505.21 85.9659C505.853 86.5795 506.179 87.3182 506.187 88.1818C506.179 88.7727 506.024 89.3106 505.721 89.7955C505.425 90.2727 505.039 90.6553 504.562 90.9432C504.085 91.2235 503.566 91.3636 503.005 91.3636ZM547.008 91.3636C546.129 91.3636 545.375 91.0568 544.746 90.4432C544.125 89.822 543.818 89.0682 543.826 88.1818C543.818 87.3182 544.125 86.5795 544.746 85.9659C545.375 85.3523 546.129 85.0455 547.008 85.0455C547.841 85.0455 548.576 85.3523 549.212 85.9659C549.856 86.5795 550.182 87.3182 550.189 88.1818C550.182 88.7727 550.026 89.3106 549.723 89.7955C549.428 90.2727 549.042 90.6553 548.564 90.9432C548.087 91.2235 547.568 91.3636 547.008 91.3636ZM415 124.364C414.121 124.364 413.367 124.057 412.739 123.443C412.117 122.822 411.811 122.068 411.818 121.182C411.811 120.318 412.117 119.58 412.739 118.966C413.367 118.352 414.121 118.045 415 118.045C415.833 118.045 416.568 118.352 417.205 118.966C417.848 119.58 418.174 120.318 418.182 121.182C418.174 121.773 418.019 122.311 417.716 122.795C417.42 123.273 417.034 123.655 416.557 123.943C416.08 124.223 415.561 124.364 415 124.364ZM459.003 124.364C458.124 124.364 457.37 124.057 456.741 123.443C456.12 122.822 455.813 122.068 455.821 121.182C455.813 120.318 456.12 119.58 456.741 118.966C457.37 118.352 458.124 118.045 459.003 118.045C459.836 118.045 460.571 118.352 461.207 118.966C461.851 119.58 462.177 120.318 462.184 121.182C462.177 121.773 462.021 122.311 461.718 122.795C461.423 123.273 461.037 123.655 460.559 123.943C460.082 124.223 459.563 124.364 459.003 124.364ZM503.005 124.364C502.126 124.364 501.372 124.057 500.744 123.443C500.122 122.822 499.816 122.068 499.823 121.182C499.816 120.318 500.122 119.58 500.744 118.966C501.372 118.352 502.126 118.045 503.005 118.045C503.838 118.045 504.573 118.352 505.21 118.966C505.853 119.58 506.179 120.318 506.187 121.182C506.179 121.773 506.024 122.311 505.721 122.795C505.425 123.273 505.039 123.655 504.562 123.943C504.085 124.223 503.566 124.364 503.005 124.364ZM547.008 124.364C546.129 124.364 545.375 124.057 544.746 123.443C544.125 122.822 543.818 122.068 543.826 121.182C543.818 120.318 544.125 119.58 544.746 118.966C545.375 118.352 546.129 118.045 547.008 118.045C547.841 118.045 548.576 118.352 549.212 118.966C549.856 119.58 550.182 120.318 550.189 121.182C550.182 121.773 550.026 122.311 549.723 122.795C549.428 123.273 549.042 123.655 548.564 123.943C548.087 124.223 547.568 124.364 547.008 124.364ZM415 157.364C414.121 157.364 413.367 157.057 412.739 156.443C412.117 155.822 411.811 155.068 411.818 154.182C411.811 153.318 412.117 152.58 412.739 151.966C413.367 151.352 414.121 151.045 415 151.045C415.833 151.045 416.568 151.352 417.205 151.966C417.848 152.58 418.174 153.318 418.182 154.182C418.174 154.773 418.019 155.311 417.716 155.795C417.42 156.273 417.034 156.655 416.557 156.943C416.08 157.223 415.561 157.364 415 157.364ZM459.003 157.364C458.124 157.364 457.37 157.057 456.741 156.443C456.12 155.822 455.813 155.068 455.821 154.182C455.813 153.318 456.12 152.58 456.741 151.966C457.37 151.352 458.124 151.045 459.003 151.045C459.836 151.045 460.571 151.352 461.207 151.966C461.851 152.58 462.177 153.318 462.184 154.182C462.177 154.773 462.021 155.311 461.718 155.795C461.423 156.273 461.037 156.655 460.559 156.943C460.082 157.223 459.563 157.364 459.003 157.364ZM503.005 157.364C502.126 157.364 501.372 157.057 500.744 156.443C500.122 155.822 499.816 155.068 499.823 154.182C499.816 153.318 500.122 152.58 500.744 151.966C501.372 151.352 502.126 151.045 503.005 151.045C503.838 151.045 504.573 151.352 505.21 151.966C505.853 152.58 506.179 153.318 506.187 154.182C506.179 154.773 506.024 155.311 505.721 155.795C505.425 156.273 505.039 156.655 504.562 156.943C504.085 157.223 503.566 157.364 503.005 157.364ZM547.008 157.364C546.129 157.364 545.375 157.057 544.746 156.443C544.125 155.822 543.818 155.068 543.826 154.182C543.818 153.318 544.125 152.58 544.746 151.966C545.375 151.352 546.129 151.045 547.008 151.045C547.841 151.045 548.576 151.352 549.212 151.966C549.856 152.58 550.182 153.318 550.189 154.182C550.182 154.773 550.026 155.311 549.723 155.795C549.428 156.273 549.042 156.655 548.564 156.943C548.087 157.223 547.568 157.364 547.008 157.364Z" fill="url(#paint3_linear_148_312)"/>
<mask id="path-5-outside-1_148_312" maskUnits="userSpaceOnUse" x="248" y="257" width="705" height="112" fill="black">
<rect fill="white" x="248" y="257" width="705" height="112"/>
<path d="M306.182 298C305.939 294.97 304.803 292.606 302.773 290.909C300.773 289.212 297.727 288.364 293.636 288.364C291.03 288.364 288.894 288.682 287.227 289.318C285.591 289.924 284.379 290.758 283.591 291.818C282.803 292.879 282.394 294.091 282.364 295.455C282.303 296.576 282.5 297.591 282.955 298.5C283.439 299.379 284.197 300.182 285.227 300.909C286.258 301.606 287.576 302.242 289.182 302.818C290.788 303.394 292.697 303.909 294.909 304.364L302.545 306C307.697 307.091 312.106 308.53 315.773 310.318C319.439 312.106 322.439 314.212 324.773 316.636C327.106 319.03 328.818 321.727 329.909 324.727C331.03 327.727 331.606 331 331.636 334.545C331.606 340.667 330.076 345.848 327.045 350.091C324.015 354.333 319.682 357.561 314.045 359.773C308.439 361.985 301.697 363.091 293.818 363.091C285.727 363.091 278.667 361.894 272.636 359.5C266.636 357.106 261.97 353.424 258.636 348.455C255.333 343.455 253.667 337.061 253.636 329.273H277.636C277.788 332.121 278.5 334.515 279.773 336.455C281.045 338.394 282.833 339.864 285.136 340.864C287.47 341.864 290.242 342.364 293.455 342.364C296.152 342.364 298.409 342.03 300.227 341.364C302.045 340.697 303.424 339.773 304.364 338.591C305.303 337.409 305.788 336.061 305.818 334.545C305.788 333.121 305.318 331.879 304.409 330.818C303.53 329.727 302.076 328.758 300.045 327.909C298.015 327.03 295.273 326.212 291.818 325.455L282.545 323.455C274.303 321.667 267.803 318.682 263.045 314.5C258.318 310.288 255.97 304.545 256 297.273C255.97 291.364 257.545 286.197 260.727 281.773C263.939 277.318 268.379 273.848 274.045 271.364C279.742 268.879 286.273 267.636 293.636 267.636C301.152 267.636 307.652 268.894 313.136 271.409C318.621 273.924 322.848 277.47 325.818 282.045C328.818 286.591 330.333 291.909 330.364 298H306.182ZM341.614 362V292.182H366.705V362H341.614ZM354.159 284.909C350.765 284.909 347.856 283.788 345.432 281.545C343.008 279.303 341.795 276.606 341.795 273.455C341.795 270.303 343.008 267.606 345.432 265.364C347.856 263.121 350.765 262 354.159 262C357.583 262 360.492 263.121 362.886 265.364C365.311 267.606 366.523 270.303 366.523 273.455C366.523 276.606 365.311 279.303 362.886 281.545C360.492 283.788 357.583 284.909 354.159 284.909ZM379.489 362V292.182H403.307V305.455H404.034C405.489 301.091 407.973 297.636 411.489 295.091C415.004 292.545 419.186 291.273 424.034 291.273C428.943 291.273 433.17 292.576 436.716 295.182C440.261 297.758 442.398 301.182 443.125 305.455H443.852C445.034 301.182 447.549 297.758 451.398 295.182C455.246 292.576 459.761 291.273 464.943 291.273C471.64 291.273 477.064 293.424 481.216 297.727C485.398 302.03 487.489 307.758 487.489 314.909V362H462.398V321.273C462.398 318.212 461.625 315.818 460.08 314.091C458.534 312.333 456.458 311.455 453.852 311.455C451.277 311.455 449.231 312.333 447.716 314.091C446.231 315.818 445.489 318.212 445.489 321.273V362H421.489V321.273C421.489 318.212 420.716 315.818 419.17 314.091C417.625 312.333 415.549 311.455 412.943 311.455C411.216 311.455 409.731 311.848 408.489 312.636C407.246 313.424 406.277 314.561 405.58 316.045C404.913 317.5 404.58 319.242 404.58 321.273V362H379.489ZM541.5 292.182V310.364H495.5V292.182H541.5ZM504.409 275.455H529.5V339.545C529.5 340.515 529.667 341.333 530 342C530.333 342.636 530.848 343.121 531.545 343.455C532.242 343.758 533.136 343.909 534.227 343.909C534.985 343.909 535.864 343.818 536.864 343.636C537.894 343.455 538.652 343.303 539.136 343.182L542.773 360.818C541.652 361.152 540.045 361.561 537.955 362.045C535.894 362.53 533.439 362.848 530.591 363C524.833 363.303 520 362.712 516.091 361.227C512.182 359.712 509.242 357.333 507.273 354.091C505.303 350.848 504.348 346.788 504.409 341.909V275.455ZM551.739 362V292.182H576.102V305.455H576.83C578.102 300.545 580.117 296.955 582.875 294.682C585.663 292.409 588.92 291.273 592.648 291.273C593.739 291.273 594.814 291.364 595.875 291.545C596.966 291.697 598.011 291.924 599.011 292.227V313.636C597.769 313.212 596.239 312.894 594.42 312.682C592.602 312.47 591.042 312.364 589.739 312.364C587.284 312.364 585.072 312.924 583.102 314.045C581.163 315.136 579.633 316.682 578.511 318.682C577.39 320.652 576.83 322.97 576.83 325.636V362H551.739ZM636.875 363.273C629.299 363.273 622.814 361.773 617.42 358.773C612.027 355.742 607.89 351.53 605.011 346.136C602.133 340.712 600.693 334.424 600.693 327.273C600.693 320.121 602.133 313.848 605.011 308.455C607.89 303.03 612.027 298.818 617.42 295.818C622.814 292.788 629.299 291.273 636.875 291.273C644.451 291.273 650.936 292.788 656.33 295.818C661.723 298.818 665.86 303.03 668.739 308.455C671.617 313.848 673.057 320.121 673.057 327.273C673.057 334.424 671.617 340.712 668.739 346.136C665.86 351.53 661.723 355.742 656.33 358.773C650.936 361.773 644.451 363.273 636.875 363.273ZM637.057 344.727C639.178 344.727 641.011 344.015 642.557 342.591C644.102 341.167 645.299 339.136 646.148 336.5C646.996 333.864 647.42 330.727 647.42 327.091C647.42 323.424 646.996 320.288 646.148 317.682C645.299 315.045 644.102 313.015 642.557 311.591C641.011 310.167 639.178 309.455 637.057 309.455C634.814 309.455 632.89 310.167 631.284 311.591C629.678 313.015 628.451 315.045 627.602 317.682C626.754 320.288 626.33 323.424 626.33 327.091C626.33 330.727 626.754 333.864 627.602 336.5C628.451 339.136 629.678 341.167 631.284 342.591C632.89 344.015 634.814 344.727 637.057 344.727ZM708.33 322.727V362H683.239V292.182H707.057V305.455H707.784C709.299 301.03 711.966 297.561 715.784 295.045C719.633 292.53 724.117 291.273 729.239 291.273C734.178 291.273 738.466 292.409 742.102 294.682C745.769 296.924 748.602 300.015 750.602 303.955C752.633 307.894 753.633 312.394 753.602 317.455V362H728.511V322.727C728.542 319.273 727.663 316.561 725.875 314.591C724.117 312.621 721.663 311.636 718.511 311.636C716.451 311.636 714.648 312.091 713.102 313C711.587 313.879 710.42 315.152 709.602 316.818C708.784 318.455 708.36 320.424 708.33 322.727ZM765.989 362V292.182H791.08V362H765.989ZM778.534 284.909C775.14 284.909 772.231 283.788 769.807 281.545C767.383 279.303 766.17 276.606 766.17 273.455C766.17 270.303 767.383 267.606 769.807 265.364C772.231 263.121 775.14 262 778.534 262C781.958 262 784.867 263.121 787.261 265.364C789.686 267.606 790.898 270.303 790.898 273.455C790.898 276.606 789.686 279.303 787.261 281.545C784.867 283.788 781.958 284.909 778.534 284.909ZM837.5 363.273C829.924 363.273 823.439 361.773 818.045 358.773C812.652 355.742 808.515 351.53 805.636 346.136C802.758 340.712 801.318 334.424 801.318 327.273C801.318 320.121 802.758 313.848 805.636 308.455C808.515 303.03 812.652 298.818 818.045 295.818C823.439 292.788 829.924 291.273 837.5 291.273C844.348 291.273 850.273 292.515 855.273 295C860.303 297.455 864.197 300.939 866.955 305.455C869.712 309.939 871.106 315.212 871.136 321.273H847.864C847.53 317.606 846.47 314.818 844.682 312.909C842.924 310.97 840.652 310 837.864 310C835.682 310 833.773 310.636 832.136 311.909C830.5 313.152 829.227 315.045 828.318 317.591C827.409 320.106 826.955 323.273 826.955 327.091C826.955 330.909 827.409 334.091 828.318 336.636C829.227 339.152 830.5 341.045 832.136 342.318C833.773 343.561 835.682 344.182 837.864 344.182C839.712 344.182 841.348 343.758 842.773 342.909C844.197 342.03 845.348 340.758 846.227 339.091C847.136 337.394 847.682 335.333 847.864 332.909H871.136C871.045 339.061 869.636 344.424 866.909 349C864.182 353.545 860.318 357.061 855.318 359.545C850.348 362.03 844.409 363.273 837.5 363.273ZM945.307 314.909H922.216C922.095 313.485 921.595 312.258 920.716 311.227C919.837 310.197 918.701 309.409 917.307 308.864C915.943 308.288 914.428 308 912.761 308C910.61 308 908.761 308.394 907.216 309.182C905.67 309.97 904.913 311.091 904.943 312.545C904.913 313.576 905.352 314.53 906.261 315.409C907.201 316.288 909.004 316.97 911.67 317.455L925.852 320C933.004 321.303 938.322 323.5 941.807 326.591C945.322 329.652 947.095 333.758 947.125 338.909C947.095 343.879 945.61 348.197 942.67 351.864C939.761 355.5 935.777 358.318 930.716 360.318C925.686 362.288 919.943 363.273 913.489 363.273C902.822 363.273 894.473 361.091 888.443 356.727C882.443 352.364 879.095 346.606 878.398 339.455H903.307C903.64 341.667 904.731 343.379 906.58 344.591C908.458 345.773 910.822 346.364 913.67 346.364C915.973 346.364 917.867 345.97 919.352 345.182C920.867 344.394 921.64 343.273 921.67 341.818C921.64 340.485 920.973 339.424 919.67 338.636C918.398 337.848 916.398 337.212 913.67 336.727L901.307 334.545C894.186 333.303 888.852 330.939 885.307 327.455C881.761 323.97 880.004 319.485 880.034 314C880.004 309.152 881.277 305.045 883.852 301.682C886.458 298.288 890.17 295.712 894.989 293.955C899.837 292.167 905.58 291.273 912.216 291.273C922.307 291.273 930.261 293.364 936.08 297.545C941.928 301.727 945.004 307.515 945.307 314.909Z"/>
</mask>
<path d="M306.182 298L301.198 298.399L301.566 303H306.182V298ZM302.773 290.909L299.538 294.722L299.552 294.734L299.566 294.745L302.773 290.909ZM287.227 289.318L288.964 294.007L288.987 293.998L289.011 293.989L287.227 289.318ZM283.591 291.818L279.577 288.837L279.577 288.837L283.591 291.818ZM282.364 295.455L287.356 295.724L287.361 295.645L287.362 295.566L282.364 295.455ZM282.955 298.5L278.482 300.736L278.528 300.827L278.577 300.915L282.955 298.5ZM285.227 300.909L282.344 304.994L282.385 305.023L282.426 305.051L285.227 300.909ZM294.909 304.364L295.957 299.475L295.936 299.47L295.915 299.466L294.909 304.364ZM302.545 306L301.498 310.889L301.51 310.892L302.545 306ZM315.773 310.318L313.581 314.812L313.581 314.812L315.773 310.318ZM324.773 316.636L321.17 320.104L321.181 320.115L321.192 320.126L324.773 316.636ZM329.909 324.727L325.21 326.436L325.218 326.457L325.226 326.478L329.909 324.727ZM331.636 334.545L336.636 334.57L336.636 334.536L336.636 334.503L331.636 334.545ZM327.045 350.091L331.114 352.997L331.114 352.997L327.045 350.091ZM314.045 359.773L312.219 355.118L312.21 355.122L314.045 359.773ZM272.636 359.5L270.783 364.144L270.791 364.147L272.636 359.5ZM258.636 348.455L254.464 351.211L254.474 351.225L254.484 351.24L258.636 348.455ZM253.636 329.273V324.273H248.617L248.636 329.292L253.636 329.273ZM277.636 329.273L282.629 329.007L282.377 324.273H277.636V329.273ZM279.773 336.455L275.592 339.198L275.592 339.198L279.773 336.455ZM285.136 340.864L283.145 345.45L283.156 345.455L283.167 345.459L285.136 340.864ZM300.227 341.364L301.949 346.058L301.949 346.058L300.227 341.364ZM304.364 338.591L308.278 341.702L308.278 341.702L304.364 338.591ZM305.818 334.545L310.817 334.645L310.819 334.542L310.817 334.439L305.818 334.545ZM304.409 330.818L300.515 333.955L300.563 334.014L300.613 334.072L304.409 330.818ZM300.045 327.909L298.059 332.498L298.088 332.51L298.117 332.522L300.045 327.909ZM291.818 325.455L292.889 320.571L292.881 320.569L292.872 320.567L291.818 325.455ZM282.545 323.455L281.486 328.341L281.491 328.342L282.545 323.455ZM263.045 314.5L259.719 318.233L259.732 318.244L259.744 318.255L263.045 314.5ZM256 297.273L261 297.294L261 297.27L261 297.247L256 297.273ZM260.727 281.773L256.672 278.848L256.668 278.853L260.727 281.773ZM274.045 271.364L272.046 266.781L272.038 266.785L274.045 271.364ZM313.136 271.409L311.052 275.954L311.052 275.954L313.136 271.409ZM325.818 282.045L321.624 284.767L321.635 284.784L321.645 284.8L325.818 282.045ZM330.364 298V303H335.389L335.364 297.975L330.364 298ZM311.166 297.601C310.834 293.45 309.195 289.761 305.979 287.073L299.566 294.745C300.411 295.452 301.045 296.49 301.198 298.399L311.166 297.601ZM306.008 287.097C302.718 284.305 298.282 283.364 293.636 283.364V293.364C297.173 293.364 298.827 294.119 299.538 294.722L306.008 287.097ZM293.636 283.364C290.677 283.364 287.878 283.718 285.444 284.647L289.011 293.989C289.91 293.646 291.384 293.364 293.636 293.364V283.364ZM285.491 284.629C283.232 285.466 281.101 286.785 279.577 288.837L287.605 294.8C287.657 294.73 287.95 294.382 288.964 294.007L285.491 284.629ZM279.577 288.837C278.151 290.757 277.417 292.98 277.365 295.343L287.362 295.566C287.37 295.202 287.456 295 287.605 294.8L279.577 288.837ZM277.371 295.185C277.269 297.079 277.6 298.972 278.482 300.736L287.427 296.264C287.4 296.21 287.338 296.072 287.356 295.724L277.371 295.185ZM278.577 300.915C279.508 302.604 280.85 303.939 282.344 304.994L288.111 296.824C287.544 296.424 287.37 296.153 287.332 296.085L278.577 300.915ZM282.426 305.051C283.904 306.05 285.629 306.856 287.495 307.525L290.869 298.111C289.522 297.629 288.612 297.162 288.029 296.768L282.426 305.051ZM287.495 307.525C289.381 308.201 291.529 308.773 293.903 309.261L295.915 299.466C293.865 299.045 292.195 298.587 290.869 298.111L287.495 307.525ZM293.861 309.253L301.498 310.889L303.593 301.111L295.957 299.475L293.861 309.253ZM301.51 310.892C306.37 311.921 310.371 313.247 313.581 314.812L317.964 305.824C313.842 303.814 309.024 302.261 303.581 301.108L301.51 310.892ZM313.581 314.812C316.83 316.396 319.32 318.181 321.17 320.104L328.375 313.169C325.559 310.243 322.049 307.816 317.964 305.824L313.581 314.812ZM321.192 320.126C323.055 322.037 324.373 324.134 325.21 326.436L334.608 323.019C333.263 319.321 331.158 316.024 328.353 313.146L321.192 320.126ZM325.226 326.478C326.122 328.876 326.611 331.564 326.637 334.588L336.636 334.503C336.601 330.436 335.939 326.579 334.593 322.977L325.226 326.478ZM326.636 334.521C326.61 339.793 325.307 343.922 322.977 347.185L331.114 352.997C334.845 347.775 336.602 341.54 336.636 334.57L326.636 334.521ZM322.977 347.185C320.595 350.519 317.103 353.201 312.219 355.118L315.872 364.427C322.261 361.92 327.435 358.147 331.114 352.997L322.977 347.185ZM312.21 355.122C307.338 357.044 301.252 358.091 293.818 358.091V368.091C302.142 368.091 309.541 366.925 315.881 364.424L312.21 355.122ZM293.818 358.091C286.208 358.091 279.799 356.964 274.481 354.853L270.791 364.147C277.534 366.824 285.246 368.091 293.818 368.091V358.091ZM274.489 354.856C269.347 352.804 265.515 349.735 262.789 345.669L254.484 351.24C258.424 357.114 263.925 361.408 270.783 364.144L274.489 354.856ZM262.808 345.699C260.181 341.721 258.664 336.356 258.636 329.253L248.636 329.292C248.669 337.766 250.486 345.188 254.464 351.211L262.808 345.699ZM253.636 334.273H277.636V324.273H253.636V334.273ZM272.643 329.538C272.831 333.068 273.735 336.367 275.592 339.198L283.953 333.711C283.265 332.664 282.745 331.174 282.629 329.007L272.643 329.538ZM275.592 339.198C277.444 342.019 280.025 344.095 283.145 345.45L287.128 336.277C285.641 335.632 284.647 334.769 283.953 333.711L275.592 339.198ZM283.167 345.459C286.264 346.787 289.738 347.364 293.455 347.364V337.364C290.746 337.364 288.675 336.941 287.106 336.268L283.167 345.459ZM293.455 347.364C296.525 347.364 299.409 346.989 301.949 346.058L298.506 336.669C297.409 337.071 295.778 337.364 293.455 337.364V347.364ZM301.949 346.058C304.389 345.163 306.626 343.78 308.278 341.702L300.45 335.48C300.222 335.766 299.702 336.231 298.506 336.669L301.949 346.058ZM308.278 341.702C309.902 339.659 310.765 337.252 310.817 334.645L300.819 334.445C300.811 334.87 300.704 335.159 300.45 335.48L308.278 341.702ZM310.817 334.439C310.763 331.883 309.884 329.522 308.205 327.564L300.613 334.072C300.753 334.236 300.813 334.359 300.819 334.652L310.817 334.439ZM308.303 327.682C306.686 325.675 304.375 324.299 301.973 323.296L298.117 332.522C299.776 333.216 300.374 333.78 300.515 333.955L308.303 327.682ZM302.032 323.32C299.585 322.262 296.495 321.361 292.889 320.571L290.747 330.338C294.05 331.063 296.445 331.799 298.059 332.498L302.032 323.32ZM292.872 320.567L283.6 318.567L281.491 328.342L290.764 330.342L292.872 320.567ZM283.605 318.568C275.928 316.903 270.288 314.209 266.346 310.745L259.744 318.255C265.318 323.154 272.678 326.43 281.486 328.341L283.605 318.568ZM266.372 310.767C262.879 307.655 260.975 303.369 261 297.294L251 297.252C250.965 305.722 253.757 312.921 259.719 318.233L266.372 310.767ZM261 297.247C260.975 292.3 262.274 288.185 264.787 284.692L256.668 278.853C252.817 284.209 250.965 290.427 251 297.298L261 297.247ZM264.783 284.697C267.409 281.056 271.099 278.115 276.053 275.943L272.038 266.785C265.659 269.582 260.47 273.581 256.672 278.848L264.783 284.697ZM276.044 275.947C281.005 273.783 286.835 272.636 293.636 272.636V262.636C285.71 262.636 278.479 263.975 272.046 266.781L276.044 275.947ZM293.636 272.636C300.604 272.636 306.361 273.803 311.052 275.954L315.221 266.864C308.942 263.985 301.699 262.636 293.636 262.636V272.636ZM311.052 275.954C315.77 278.117 319.225 281.07 321.624 284.767L330.012 279.323C326.472 273.869 321.473 269.731 315.221 266.864L311.052 275.954ZM321.645 284.8C324.048 288.441 325.338 292.786 325.364 298.025L335.364 297.975C335.329 291.032 333.588 284.741 329.991 279.291L321.645 284.8ZM330.364 293H306.182V303H330.364V293ZM341.614 362H336.614V367H341.614V362ZM341.614 292.182V287.182H336.614V292.182H341.614ZM366.705 292.182H371.705V287.182H366.705V292.182ZM366.705 362V367H371.705V362H366.705ZM345.432 281.545L342.037 285.216L342.037 285.216L345.432 281.545ZM345.432 265.364L342.037 261.693L342.037 261.693L345.432 265.364ZM362.886 265.364L359.468 269.013L359.48 269.023L359.491 269.034L362.886 265.364ZM362.886 281.545L359.491 277.875L359.48 277.886L359.468 277.896L362.886 281.545ZM346.614 362V292.182H336.614V362H346.614ZM341.614 297.182H366.705V287.182H341.614V297.182ZM361.705 292.182V362H371.705V292.182H361.705ZM366.705 357H341.614V367H366.705V357ZM354.159 279.909C351.985 279.909 350.299 279.237 348.827 277.875L342.037 285.216C345.413 288.339 349.545 289.909 354.159 289.909V279.909ZM348.827 277.875C347.371 276.528 346.795 275.139 346.795 273.455H336.795C336.795 278.073 338.644 282.078 342.037 285.216L348.827 277.875ZM346.795 273.455C346.795 271.77 347.371 270.381 348.827 269.034L342.037 261.693C338.644 264.831 336.795 268.836 336.795 273.455H346.795ZM348.827 269.034C350.299 267.672 351.985 267 354.159 267V257C349.545 257 345.413 258.57 342.037 261.693L348.827 269.034ZM354.159 267C356.375 267 358.045 267.679 359.468 269.013L366.305 261.715C362.94 258.563 358.791 257 354.159 257V267ZM359.491 269.034C360.948 270.381 361.523 271.77 361.523 273.455H371.523C371.523 268.836 369.674 264.831 366.282 261.693L359.491 269.034ZM361.523 273.455C361.523 275.139 360.948 276.528 359.491 277.875L366.282 285.216C369.674 282.078 371.523 278.073 371.523 273.455H361.523ZM359.468 277.896C358.045 279.23 356.375 279.909 354.159 279.909V289.909C358.791 289.909 362.94 288.346 366.305 285.195L359.468 277.896ZM379.489 362H374.489V367H379.489V362ZM379.489 292.182V287.182H374.489V292.182H379.489ZM403.307 292.182H408.307V287.182H403.307V292.182ZM403.307 305.455H398.307V310.455H403.307V305.455ZM404.034 305.455V310.455H407.638L408.778 307.036L404.034 305.455ZM411.489 295.091L408.556 291.041L408.556 291.041L411.489 295.091ZM436.716 295.182L433.755 299.211L433.766 299.219L433.777 299.227L436.716 295.182ZM443.125 305.455L438.196 306.294L438.904 310.455H443.125V305.455ZM443.852 305.455V310.455H447.657L448.671 306.787L443.852 305.455ZM451.398 295.182L454.179 299.337L454.19 299.329L454.201 299.322L451.398 295.182ZM481.216 297.727L477.618 301.199L477.624 301.205L477.63 301.212L481.216 297.727ZM487.489 362V367H492.489V362H487.489ZM462.398 362H457.398V367H462.398V362ZM460.08 314.091L456.325 317.393L456.339 317.409L456.353 317.425L460.08 314.091ZM447.716 314.091L443.929 310.826L443.924 310.831L447.716 314.091ZM445.489 362V367H450.489V362H445.489ZM421.489 362H416.489V367H421.489V362ZM419.17 314.091L415.416 317.393L415.43 317.409L415.444 317.425L419.17 314.091ZM408.489 312.636L411.166 316.859L411.166 316.859L408.489 312.636ZM405.58 316.045L401.053 313.921L401.044 313.942L401.034 313.962L405.58 316.045ZM404.58 362V367H409.58V362H404.58ZM384.489 362V292.182H374.489V362H384.489ZM379.489 297.182H403.307V287.182H379.489V297.182ZM398.307 292.182V305.455H408.307V292.182H398.307ZM403.307 310.455H404.034V300.455H403.307V310.455ZM408.778 307.036C409.922 303.601 411.805 301.035 414.421 299.141L408.556 291.041C404.142 294.238 401.055 298.581 399.291 303.873L408.778 307.036ZM414.421 299.141C416.984 297.285 420.11 296.273 424.034 296.273V286.273C418.262 286.273 413.023 287.806 408.556 291.041L414.421 299.141ZM424.034 296.273C428.007 296.273 431.166 297.308 433.755 299.211L439.677 291.153C435.175 287.844 429.879 286.273 424.034 286.273V296.273ZM433.777 299.227C436.279 301.045 437.691 303.324 438.196 306.294L448.054 304.616C447.105 299.039 444.244 294.471 439.655 291.137L433.777 299.227ZM443.125 310.455H443.852V300.455H443.125V310.455ZM448.671 306.787C449.519 303.724 451.277 301.279 454.179 299.337L448.617 291.027C443.821 294.236 440.55 298.639 439.033 304.122L448.671 306.787ZM454.201 299.322C457.129 297.34 460.641 296.273 464.943 296.273V286.273C458.881 286.273 453.364 287.812 448.594 291.042L454.201 299.322ZM464.943 296.273C470.462 296.273 474.526 297.994 477.618 301.199L484.814 294.256C479.603 288.854 472.818 286.273 464.943 286.273V296.273ZM477.63 301.212C480.735 304.407 482.489 308.792 482.489 314.909H492.489C492.489 306.723 490.061 299.654 484.802 294.243L477.63 301.212ZM482.489 314.909V362H492.489V314.909H482.489ZM487.489 357H462.398V367H487.489V357ZM467.398 362V321.273H457.398V362H467.398ZM467.398 321.273C467.398 317.384 466.405 313.662 463.806 310.757L456.353 317.425C456.845 317.974 457.398 319.04 457.398 321.273H467.398ZM463.834 310.789C461.225 307.822 457.713 306.455 453.852 306.455V316.455C455.203 316.455 455.843 316.844 456.325 317.393L463.834 310.789ZM453.852 306.455C450.002 306.455 446.505 307.838 443.929 310.826L451.503 317.356C451.957 316.829 452.552 316.455 453.852 316.455V306.455ZM443.924 310.831C441.427 313.737 440.489 317.43 440.489 321.273H450.489C450.489 318.994 451.036 317.899 451.507 317.35L443.924 310.831ZM440.489 321.273V362H450.489V321.273H440.489ZM445.489 357H421.489V367H445.489V357ZM426.489 362V321.273H416.489V362H426.489ZM426.489 321.273C426.489 317.384 425.496 313.662 422.897 310.757L415.444 317.425C415.936 317.974 416.489 319.04 416.489 321.273H426.489ZM422.925 310.789C420.316 307.822 416.804 306.455 412.943 306.455V316.455C414.294 316.455 414.934 316.844 415.416 317.393L422.925 310.789ZM412.943 306.455C410.435 306.455 407.985 307.035 405.811 308.414L411.166 316.859C411.477 316.662 411.996 316.455 412.943 316.455V306.455ZM405.811 308.414C403.675 309.768 402.106 311.677 401.053 313.921L410.106 318.17C410.447 317.444 410.817 317.08 411.166 316.859L405.811 308.414ZM401.034 313.962C399.999 316.221 399.58 318.71 399.58 321.273H409.58C409.58 319.775 409.827 318.779 410.125 318.129L401.034 313.962ZM399.58 321.273V362H409.58V321.273H399.58ZM404.58 357H379.489V367H404.58V357ZM541.5 292.182H546.5V287.182H541.5V292.182ZM541.5 310.364V315.364H546.5V310.364H541.5ZM495.5 310.364H490.5V315.364H495.5V310.364ZM495.5 292.182V287.182H490.5V292.182H495.5ZM504.409 275.455V270.455H499.409V275.455H504.409ZM529.5 275.455H534.5V270.455H529.5V275.455ZM530 342L525.528 344.236L525.549 344.278L525.571 344.32L530 342ZM531.545 343.455L529.388 347.965L529.469 348.004L529.552 348.04L531.545 343.455ZM536.864 343.636L535.995 338.712L535.982 338.715L535.969 338.717L536.864 343.636ZM539.136 343.182L544.033 342.172L542.981 337.067L537.924 338.331L539.136 343.182ZM542.773 360.818L544.198 365.611L548.596 364.303L547.67 359.808L542.773 360.818ZM537.955 362.045L536.825 357.175L536.817 357.177L536.809 357.178L537.955 362.045ZM530.591 363L530.854 367.993L530.856 367.993L530.591 363ZM516.091 361.227L514.284 365.889L514.3 365.895L514.315 365.901L516.091 361.227ZM507.273 354.091L502.999 356.687L502.999 356.687L507.273 354.091ZM504.409 341.909L509.409 341.971L509.409 341.94V341.909H504.409ZM536.5 292.182V310.364H546.5V292.182H536.5ZM541.5 305.364H495.5V315.364H541.5V305.364ZM500.5 310.364V292.182H490.5V310.364H500.5ZM495.5 297.182H541.5V287.182H495.5V297.182ZM504.409 280.455H529.5V270.455H504.409V280.455ZM524.5 275.455V339.545H534.5V275.455H524.5ZM524.5 339.545C524.5 341.066 524.759 342.698 525.528 344.236L534.472 339.764C534.523 339.867 534.531 339.919 534.524 339.888C534.518 339.855 534.5 339.747 534.5 339.545H524.5ZM525.571 344.32C526.444 345.987 527.795 347.203 529.388 347.965L533.703 338.944C533.777 338.979 533.912 339.058 534.063 339.2C534.217 339.345 534.342 339.513 534.429 339.68L525.571 344.32ZM529.552 348.04C531.089 348.708 532.726 348.909 534.227 348.909V338.909C533.908 338.909 533.696 338.886 533.574 338.866C533.452 338.845 533.454 338.832 533.539 338.869L529.552 348.04ZM534.227 348.909C535.366 348.909 536.556 348.774 537.758 348.556L535.969 338.717C535.171 338.862 534.603 338.909 534.227 338.909V348.909ZM537.733 348.56C538.782 348.375 539.684 348.199 540.349 348.033L537.924 338.331C537.619 338.407 537.006 338.534 535.995 338.712L537.733 348.56ZM534.239 344.192L537.876 361.828L547.67 359.808L544.033 342.172L534.239 344.192ZM541.348 356.026C540.373 356.315 538.884 356.697 536.825 357.175L539.084 366.916C541.207 366.424 542.93 365.988 544.198 365.611L541.348 356.026ZM536.809 357.178C535.117 357.576 532.972 357.866 530.325 358.007L530.856 367.993C533.907 367.831 536.671 367.484 539.1 366.913L536.809 357.178ZM530.328 358.007C525.018 358.286 520.929 357.716 517.866 356.553L514.315 365.901C519.071 367.708 524.648 368.32 530.854 367.993L530.328 358.007ZM517.898 356.565C514.902 355.404 512.883 353.696 511.546 351.495L502.999 356.687C505.602 360.97 509.462 364.02 514.284 365.889L517.898 356.565ZM511.546 351.495C510.184 349.252 509.356 346.178 509.409 341.971L499.409 341.847C499.341 347.398 500.422 352.445 502.999 356.687L511.546 351.495ZM509.409 341.909V275.455H499.409V341.909H509.409ZM551.739 362H546.739V367H551.739V362ZM551.739 292.182V287.182H546.739V292.182H551.739ZM576.102 292.182H581.102V287.182H576.102V292.182ZM576.102 305.455H571.102V310.455H576.102V305.455ZM576.83 305.455V310.455H580.699L581.67 306.709L576.83 305.455ZM582.875 294.682L579.716 290.806L579.705 290.815L579.695 290.823L582.875 294.682ZM595.875 291.545L595.03 296.474L595.108 296.487L595.187 296.498L595.875 291.545ZM599.011 292.227H604.011V288.518L600.461 287.442L599.011 292.227ZM599.011 313.636L597.396 318.368L604.011 320.627V313.636H599.011ZM594.42 312.682L595 307.716L595 307.716L594.42 312.682ZM583.102 314.045L585.554 318.403L585.565 318.397L585.576 318.391L583.102 314.045ZM578.511 318.682L582.857 321.155L582.865 321.141L582.873 321.127L578.511 318.682ZM576.83 362V367H581.83V362H576.83ZM556.739 362V292.182H546.739V362H556.739ZM551.739 297.182H576.102V287.182H551.739V297.182ZM571.102 292.182V305.455H581.102V292.182H571.102ZM576.102 310.455H576.83V300.455H576.102V310.455ZM581.67 306.709C582.785 302.407 584.389 299.913 586.055 298.54L579.695 290.823C575.846 293.996 573.42 298.683 571.99 304.2L581.67 306.709ZM586.034 298.557C587.895 297.04 590.026 296.273 592.648 296.273V286.273C587.815 286.273 583.43 287.778 579.716 290.806L586.034 298.557ZM592.648 296.273C593.459 296.273 594.252 296.34 595.03 296.474L596.72 286.617C595.376 286.387 594.018 286.273 592.648 286.273V296.273ZM595.187 296.498C596.034 296.616 596.824 296.789 597.561 297.012L600.461 287.442C599.199 287.06 597.898 286.778 596.563 286.593L595.187 296.498ZM594.011 292.227V313.636H604.011V292.227H594.011ZM600.627 308.905C598.946 308.331 597.044 307.954 595 307.716L593.841 317.648C595.433 317.834 596.592 318.094 597.396 318.368L600.627 308.905ZM595 307.716C593.06 307.489 591.295 307.364 589.739 307.364V317.364C590.788 317.364 592.145 317.45 593.841 317.648L595 307.716ZM589.739 307.364C586.491 307.364 583.414 308.115 580.629 309.7L585.576 318.391C586.73 317.734 588.077 317.364 589.739 317.364V307.364ZM580.651 309.688C577.886 311.243 575.706 313.461 574.15 316.237L582.873 321.127C583.559 319.902 584.44 319.03 585.554 318.403L580.651 309.688ZM574.166 316.208C572.545 319.055 571.83 322.256 571.83 325.636H581.83C581.83 323.683 582.235 322.248 582.857 321.155L574.166 316.208ZM571.83 325.636V362H581.83V325.636H571.83ZM576.83 357H551.739V367H576.83V357ZM617.42 358.773L614.971 363.132L614.981 363.137L614.99 363.142L617.42 358.773ZM605.011 346.136L600.595 348.48L600.6 348.491L605.011 346.136ZM605.011 308.455L609.422 310.809L609.428 310.799L605.011 308.455ZM617.42 295.818L619.851 300.188L619.86 300.183L619.869 300.177L617.42 295.818ZM656.33 295.818L653.881 300.177L653.89 300.183L653.899 300.188L656.33 295.818ZM668.739 308.455L664.322 310.799L664.328 310.809L668.739 308.455ZM668.739 346.136L673.15 348.491L673.155 348.48L668.739 346.136ZM656.33 358.773L658.76 363.142L658.769 363.137L658.779 363.132L656.33 358.773ZM642.557 342.591L645.945 346.268L645.945 346.268L642.557 342.591ZM646.148 336.5L650.907 338.032L650.907 338.032L646.148 336.5ZM646.148 317.682L641.388 319.214L641.391 319.222L641.393 319.23L646.148 317.682ZM642.557 311.591L645.945 307.914L645.945 307.914L642.557 311.591ZM627.602 317.682L632.357 319.23L632.359 319.222L632.362 319.214L627.602 317.682ZM627.602 336.5L632.362 334.968L632.362 334.968L627.602 336.5ZM636.875 358.273C629.958 358.273 624.35 356.906 619.851 354.403L614.99 363.142C621.279 366.64 628.64 368.273 636.875 368.273V358.273ZM619.869 354.414C615.297 351.845 611.846 348.324 609.422 343.782L600.6 348.491C603.934 354.737 608.756 359.64 614.971 363.132L619.869 354.414ZM609.428 343.792C606.991 339.201 605.693 333.742 605.693 327.273H595.693C595.693 335.107 597.274 342.224 600.595 348.48L609.428 343.792ZM605.693 327.273C605.693 320.803 606.991 315.364 609.422 310.809L600.6 306.1C597.274 312.333 595.693 319.44 595.693 327.273H605.693ZM609.428 310.799C611.852 306.232 615.296 302.721 619.851 300.188L614.99 291.449C608.757 294.915 603.929 299.829 600.595 306.111L609.428 310.799ZM619.869 300.177C624.365 297.652 629.966 296.273 636.875 296.273V286.273C628.633 286.273 621.264 287.924 614.971 291.459L619.869 300.177ZM636.875 296.273C643.784 296.273 649.385 297.652 653.881 300.177L658.779 291.459C652.486 287.924 645.117 286.273 636.875 286.273V296.273ZM653.899 300.188C658.454 302.721 661.898 306.232 664.322 310.799L673.155 306.111C669.821 299.829 664.993 294.915 658.76 291.449L653.899 300.188ZM664.328 310.809C666.759 315.364 668.057 320.803 668.057 327.273H678.057C678.057 319.44 676.476 312.333 673.15 306.1L664.328 310.809ZM668.057 327.273C668.057 333.742 666.759 339.201 664.322 343.792L673.155 348.48C676.476 342.224 678.057 335.107 678.057 327.273H668.057ZM664.328 343.782C661.904 348.324 658.453 351.845 653.881 354.414L658.779 363.132C664.994 359.64 669.816 354.737 673.15 348.491L664.328 343.782ZM653.899 354.403C649.4 356.906 643.792 358.273 636.875 358.273V368.273C645.11 368.273 652.471 366.64 658.76 363.142L653.899 354.403ZM637.057 349.727C640.421 349.727 643.467 348.552 645.945 346.268L639.168 338.914C638.556 339.479 637.935 339.727 637.057 339.727V349.727ZM645.945 346.268C648.295 344.102 649.876 341.237 650.907 338.032L641.388 334.968C640.723 337.036 639.909 338.232 639.168 338.914L645.945 346.268ZM650.907 338.032C651.956 334.773 652.42 331.094 652.42 327.091H642.42C642.42 330.36 642.036 332.954 641.388 334.968L650.907 338.032ZM652.42 327.091C652.42 323.065 651.958 319.376 650.902 316.134L641.393 319.23C642.035 321.199 642.42 323.784 642.42 327.091H652.42ZM650.907 316.15C649.876 312.945 648.295 310.08 645.945 307.914L639.168 315.268C639.909 315.95 640.723 317.146 641.388 319.214L650.907 316.15ZM645.945 307.914C643.467 305.63 640.421 304.455 637.057 304.455V314.455C637.935 314.455 638.556 314.703 639.168 315.268L645.945 307.914ZM637.057 304.455C633.652 304.455 630.531 305.576 627.967 307.85L634.602 315.332C635.249 314.758 635.977 314.455 637.057 314.455V304.455ZM627.967 307.85C625.523 310.017 623.887 312.904 622.843 316.15L632.362 319.214C633.014 317.187 633.833 316.013 634.602 315.332L627.967 307.85ZM622.848 316.134C621.792 319.376 621.33 323.065 621.33 327.091H631.33C631.33 323.784 631.715 321.199 632.357 319.23L622.848 316.134ZM621.33 327.091C621.33 331.094 621.794 334.773 622.843 338.032L632.362 334.968C631.714 332.954 631.33 330.36 631.33 327.091H621.33ZM622.843 338.032C623.887 341.278 625.523 344.165 627.967 346.332L634.602 338.85C633.833 338.168 633.014 336.995 632.362 334.968L622.843 338.032ZM627.967 346.332C630.531 348.606 633.652 349.727 637.057 349.727V339.727C635.977 339.727 635.249 339.424 634.602 338.85L627.967 346.332ZM708.33 322.727L703.33 322.661L703.33 322.694V322.727H708.33ZM708.33 362V367H713.33V362H708.33ZM683.239 362H678.239V367H683.239V362ZM683.239 292.182V287.182H678.239V292.182H683.239ZM707.057 292.182H712.057V287.182H707.057V292.182ZM707.057 305.455H702.057V310.455H707.057V305.455ZM707.784 305.455V310.455H711.357L712.514 307.075L707.784 305.455ZM715.784 295.045L713.049 290.86L713.041 290.865L713.034 290.87L715.784 295.045ZM742.102 294.682L739.452 298.922L739.473 298.935L739.494 298.947L742.102 294.682ZM750.602 303.955L746.144 306.218L746.151 306.232L746.158 306.245L750.602 303.955ZM753.602 317.455L748.602 317.425L748.602 317.44V317.455H753.602ZM753.602 362V367H758.602V362H753.602ZM728.511 362H723.511V367H728.511V362ZM728.511 322.727L723.512 322.683L723.511 322.705V322.727H728.511ZM725.875 314.591L722.144 317.92L722.158 317.936L722.173 317.951L725.875 314.591ZM713.102 313L715.611 317.325L715.624 317.317L715.637 317.31L713.102 313ZM709.602 316.818L714.074 319.054L714.083 319.038L714.091 319.022L709.602 316.818ZM703.33 322.727V362H713.33V322.727H703.33ZM708.33 357H683.239V367H708.33V357ZM688.239 362V292.182H678.239V362H688.239ZM683.239 297.182H707.057V287.182H683.239V297.182ZM702.057 292.182V305.455H712.057V292.182H702.057ZM707.057 310.455H707.784V300.455H707.057V310.455ZM712.514 307.075C713.68 303.672 715.664 301.112 718.535 299.221L713.034 290.87C708.268 294.009 704.919 298.389 703.054 303.835L712.514 307.075ZM718.519 299.231C721.464 297.307 724.974 296.273 729.239 296.273V286.273C723.26 286.273 717.801 287.754 713.049 290.86L718.519 299.231ZM729.239 296.273C733.386 296.273 736.725 297.218 739.452 298.922L744.752 290.442C740.206 287.601 734.97 286.273 729.239 286.273V296.273ZM739.494 298.947C742.347 300.693 744.551 303.08 746.144 306.218L755.061 301.691C752.654 296.95 749.191 293.156 744.711 290.416L739.494 298.947ZM746.158 306.245C747.769 309.371 748.629 313.056 748.602 317.425L758.602 317.484C758.637 311.732 757.496 306.417 755.047 301.664L746.158 306.245ZM748.602 317.455V362H758.602V317.455H748.602ZM753.602 357H728.511V367H753.602V357ZM733.511 362V322.727H723.511V362H733.511ZM733.511 322.771C733.549 318.446 732.439 314.383 729.577 311.23L722.173 317.951C722.887 318.738 723.534 320.099 723.512 322.683L733.511 322.771ZM729.606 311.262C726.716 308.023 722.786 306.636 718.511 306.636V316.636C720.54 316.636 721.519 317.219 722.144 317.92L729.606 311.262ZM718.511 306.636C715.694 306.636 712.99 307.265 710.567 308.69L715.637 317.31C716.306 316.917 717.207 316.636 718.511 316.636V306.636ZM710.594 308.675C708.171 310.08 706.34 312.117 705.114 314.615L714.091 319.022C714.501 318.186 715.003 317.678 715.611 317.325L710.594 308.675ZM705.13 314.582C703.899 317.044 703.368 319.794 703.33 322.661L713.329 322.793C713.352 321.054 713.669 319.865 714.074 319.054L705.13 314.582ZM765.989 362H760.989V367H765.989V362ZM765.989 292.182V287.182H760.989V292.182H765.989ZM791.08 292.182H796.08V287.182H791.08V292.182ZM791.08 362V367H796.08V362H791.08ZM769.807 281.545L766.412 285.216L766.412 285.216L769.807 281.545ZM769.807 265.364L766.412 261.693L766.412 261.693L769.807 265.364ZM787.261 265.364L783.843 269.013L783.855 269.023L783.866 269.034L787.261 265.364ZM787.261 281.545L783.866 277.875L783.855 277.886L783.843 277.896L787.261 281.545ZM770.989 362V292.182H760.989V362H770.989ZM765.989 297.182H791.08V287.182H765.989V297.182ZM786.08 292.182V362H796.08V292.182H786.08ZM791.08 357H765.989V367H791.08V357ZM778.534 279.909C776.36 279.909 774.674 279.237 773.202 277.875L766.412 285.216C769.788 288.339 773.92 289.909 778.534 289.909V279.909ZM773.202 277.875C771.746 276.528 771.17 275.139 771.17 273.455H761.17C761.17 278.073 763.019 282.078 766.412 285.216L773.202 277.875ZM771.17 273.455C771.17 271.77 771.746 270.381 773.202 269.034L766.412 261.693C763.019 264.831 761.17 268.836 761.17 273.455H771.17ZM773.202 269.034C774.674 267.672 776.36 267 778.534 267V257C773.92 257 769.788 258.57 766.412 261.693L773.202 269.034ZM778.534 267C780.75 267 782.42 267.679 783.843 269.013L790.68 261.715C787.315 258.563 783.166 257 778.534 257V267ZM783.866 269.034C785.323 270.381 785.898 271.77 785.898 273.455H795.898C795.898 268.836 794.049 264.831 790.657 261.693L783.866 269.034ZM785.898 273.455C785.898 275.139 785.323 276.528 783.866 277.875L790.657 285.216C794.049 282.078 795.898 278.073 795.898 273.455H785.898ZM783.843 277.896C782.42 279.23 780.75 279.909 778.534 279.909V289.909C783.166 289.909 787.315 288.346 790.68 285.195L783.843 277.896ZM818.045 358.773L815.596 363.132L815.606 363.137L815.615 363.142L818.045 358.773ZM805.636 346.136L801.22 348.48L801.225 348.491L805.636 346.136ZM805.636 308.455L810.047 310.809L810.053 310.799L805.636 308.455ZM818.045 295.818L820.476 300.188L820.485 300.183L820.494 300.177L818.045 295.818ZM855.273 295L853.048 299.478L853.064 299.486L853.08 299.494L855.273 295ZM866.955 305.455L862.687 308.061L862.691 308.067L862.695 308.073L866.955 305.455ZM871.136 321.273V326.273H876.161L876.136 321.248L871.136 321.273ZM847.864 321.273L842.884 321.725L843.298 326.273H847.864V321.273ZM844.682 312.909L840.977 316.267L841.004 316.297L841.032 316.327L844.682 312.909ZM832.136 311.909L835.16 315.891L835.183 315.874L835.206 315.856L832.136 311.909ZM828.318 317.591L833.02 319.291L833.024 319.282L833.027 319.273L828.318 317.591ZM828.318 336.636L823.609 338.318L823.613 338.327L823.616 338.336L828.318 336.636ZM832.136 342.318L829.067 346.265L829.09 346.283L829.113 346.3L832.136 342.318ZM842.773 342.909L845.332 347.205L845.365 347.185L845.398 347.164L842.773 342.909ZM846.227 339.091L841.82 336.73L841.812 336.744L841.804 336.759L846.227 339.091ZM847.864 332.909V327.909H843.225L842.878 332.535L847.864 332.909ZM871.136 332.909L876.136 332.983L876.211 327.909H871.136V332.909ZM866.909 349L871.197 351.572L871.2 351.566L871.204 351.56L866.909 349ZM855.318 359.545L853.093 355.068L853.082 355.073L855.318 359.545ZM837.5 358.273C830.583 358.273 824.975 356.906 820.476 354.403L815.615 363.142C821.904 366.64 829.265 368.273 837.5 368.273V358.273ZM820.494 354.414C815.922 351.845 812.471 348.324 810.047 343.782L801.225 348.491C804.559 354.737 809.381 359.64 815.596 363.132L820.494 354.414ZM810.053 343.792C807.616 339.201 806.318 333.742 806.318 327.273H796.318C796.318 335.107 797.899 342.224 801.22 348.48L810.053 343.792ZM806.318 327.273C806.318 320.803 807.616 315.364 810.047 310.809L801.225 306.1C797.899 312.333 796.318 319.44 796.318 327.273H806.318ZM810.053 310.799C812.477 306.232 815.921 302.721 820.476 300.188L815.615 291.449C809.382 294.915 804.554 299.829 801.22 306.111L810.053 310.799ZM820.494 300.177C824.99 297.652 830.591 296.273 837.5 296.273V286.273C829.258 286.273 821.889 287.924 815.596 291.459L820.494 300.177ZM837.5 296.273C843.748 296.273 848.878 297.405 853.048 299.478L857.498 290.522C851.667 287.625 844.949 286.273 837.5 286.273V296.273ZM853.08 299.494C857.305 301.555 860.456 304.408 862.687 308.061L871.222 302.848C867.937 297.471 863.301 293.354 857.465 290.506L853.08 299.494ZM862.695 308.073C864.904 311.666 866.11 316.012 866.136 321.298L876.136 321.248C876.102 314.412 874.52 308.213 871.214 302.836L862.695 308.073ZM871.136 316.273H847.864V326.273H871.136V316.273ZM852.843 320.82C852.449 316.487 851.136 312.487 848.331 309.491L841.032 316.327C841.803 317.15 842.611 318.725 842.884 321.725L852.843 320.82ZM848.387 309.551C845.614 306.492 841.959 305 837.864 305V315C839.344 315 840.235 315.448 840.977 316.267L848.387 309.551ZM837.864 305C834.633 305 831.629 305.97 829.067 307.962L835.206 315.856C835.917 315.303 836.731 315 837.864 315V305ZM829.113 307.927C826.494 309.915 824.744 312.733 823.609 315.909L833.027 319.273C833.711 317.358 834.506 316.388 835.16 315.891L829.113 307.927ZM823.616 315.891C822.445 319.13 821.955 322.92 821.955 327.091H831.955C831.955 323.625 832.373 321.082 833.02 319.291L823.616 315.891ZM821.955 327.091C821.955 331.265 822.446 335.06 823.609 338.318L833.027 334.955C832.372 333.121 831.955 330.553 831.955 327.091H821.955ZM823.616 338.336C824.754 341.485 826.497 344.266 829.067 346.265L835.206 338.371C834.503 337.825 833.7 336.818 833.02 334.937L823.616 338.336ZM829.113 346.3C831.675 348.246 834.662 349.182 837.864 349.182V339.182C836.702 339.182 835.871 338.876 835.16 338.336L829.113 346.3ZM837.864 349.182C840.507 349.182 843.047 348.566 845.332 347.205L840.214 338.614C839.65 338.949 838.918 339.182 837.864 339.182V349.182ZM845.398 347.164C847.675 345.76 849.408 343.778 850.65 341.423L841.804 336.759C841.289 337.737 840.719 338.301 840.147 338.654L845.398 347.164ZM850.635 341.452C851.948 339.001 852.629 336.226 852.85 333.283L842.878 332.535C842.735 334.44 842.325 335.787 841.82 336.73L850.635 341.452ZM847.864 337.909H871.136V327.909H847.864V337.909ZM866.137 332.835C866.057 338.248 864.827 342.727 862.614 346.44L871.204 351.56C874.445 346.122 876.034 339.873 876.136 332.983L866.137 332.835ZM862.622 346.428C860.413 350.109 857.286 352.984 853.093 355.068L857.543 364.023C863.351 361.137 867.951 356.982 871.197 351.572L862.622 346.428ZM853.082 355.073C848.955 357.137 843.818 358.273 837.5 358.273V368.273C845 368.273 851.742 366.924 857.554 364.018L853.082 355.073ZM945.307 314.909V319.909H950.516L950.303 314.704L945.307 314.909ZM922.216 314.909L917.234 315.333L917.623 319.909H922.216V314.909ZM920.716 311.227L924.52 307.983L924.52 307.983L920.716 311.227ZM917.307 308.864L915.362 313.47L915.423 313.496L915.485 313.52L917.307 308.864ZM907.216 309.182L904.945 304.727L904.945 304.727L907.216 309.182ZM904.943 312.545L909.941 312.692L909.945 312.567L909.942 312.441L904.943 312.545ZM906.261 315.409L902.786 319.004L902.816 319.032L902.846 319.06L906.261 315.409ZM911.67 317.455L910.776 322.374L910.787 322.376L911.67 317.455ZM925.852 320L926.749 315.081L926.736 315.079L925.852 320ZM941.807 326.591L938.489 330.332L938.506 330.347L938.524 330.362L941.807 326.591ZM947.125 338.909L952.125 338.94L952.125 338.91L952.125 338.88L947.125 338.909ZM942.67 351.864L938.769 348.736L938.766 348.74L942.67 351.864ZM930.716 360.318L932.539 364.974L932.546 364.971L932.554 364.968L930.716 360.318ZM888.443 356.727L885.502 360.771L885.512 360.778L888.443 356.727ZM878.398 339.455V334.455H872.887L873.421 339.94L878.398 339.455ZM903.307 339.455L908.251 338.71L907.61 334.455H903.307V339.455ZM906.58 344.591L903.838 348.772L903.877 348.798L903.917 348.823L906.58 344.591ZM919.352 345.182L917.046 340.746L917.027 340.755L917.009 340.765L919.352 345.182ZM921.67 341.818L926.669 341.922L926.672 341.813L926.669 341.705L921.67 341.818ZM919.67 338.636L917.039 342.888L917.061 342.901L917.083 342.915L919.67 338.636ZM913.67 336.727L914.546 331.804L914.539 331.803L913.67 336.727ZM901.307 334.545L902.176 329.622L902.166 329.62L901.307 334.545ZM885.307 327.455L888.812 323.889L888.812 323.889L885.307 327.455ZM880.034 314L885.034 314.028L885.034 313.998L885.034 313.969L880.034 314ZM883.852 301.682L879.887 298.637L879.883 298.642L883.852 301.682ZM894.989 293.955L896.702 298.652L896.71 298.649L896.719 298.646L894.989 293.955ZM936.08 297.545L933.161 301.606L933.171 301.613L936.08 297.545ZM945.307 309.909H922.216V319.909H945.307V309.909ZM927.198 314.485C926.993 312.082 926.115 309.853 924.52 307.983L916.912 314.472C917.074 314.662 917.196 314.888 917.234 315.333L927.198 314.485ZM924.52 307.983C923.052 306.262 921.207 305.021 919.129 304.207L915.485 313.52C916.194 313.797 916.622 314.132 916.912 314.472L924.52 307.983ZM919.252 304.257C917.2 303.391 915.012 303 912.761 303V313C913.844 313 914.687 313.185 915.362 313.47L919.252 304.257ZM912.761 303C910.006 303 907.343 303.505 904.945 304.727L909.487 313.636C910.18 313.283 911.213 313 912.761 313V303ZM904.945 304.727C903.626 305.4 902.314 306.382 901.346 307.814C900.344 309.297 899.909 310.971 899.944 312.65L909.942 312.441C909.944 312.529 909.935 312.682 909.88 312.876C909.825 313.072 909.737 313.257 909.632 313.413C909.421 313.724 909.261 313.752 909.487 313.636L904.945 304.727ZM899.945 312.398C899.865 315.145 901.113 317.387 902.786 319.004L909.736 311.814C909.639 311.72 909.706 311.756 909.792 311.943C909.888 312.153 909.949 312.421 909.941 312.692L899.945 312.398ZM902.846 319.06C904.921 321.002 908.004 321.87 910.776 322.374L912.565 312.535C911.42 312.327 910.617 312.103 910.087 311.903C909.52 311.689 909.494 311.586 909.677 311.758L902.846 319.06ZM910.787 322.376L924.969 324.921L926.736 315.079L912.554 312.533L910.787 322.376ZM924.956 324.919C931.669 326.142 935.97 328.097 938.489 330.332L945.125 322.85C940.674 318.903 934.338 316.464 926.749 315.081L924.956 324.919ZM938.524 330.362C940.834 332.374 942.102 335.053 942.125 338.939L952.125 338.88C952.087 332.462 949.81 326.929 945.09 322.82L938.524 330.362ZM942.125 338.879C942.101 342.791 940.962 346.001 938.769 348.736L946.572 354.991C950.258 350.393 952.088 344.966 952.125 338.94L942.125 338.879ZM938.766 348.74C936.487 351.589 933.266 353.934 928.878 355.668L932.554 364.968C938.287 362.702 943.036 359.411 946.575 354.987L938.766 348.74ZM928.893 355.662C924.545 357.365 919.438 358.273 913.489 358.273V368.273C920.448 368.273 926.827 367.211 932.539 364.974L928.893 355.662ZM913.489 358.273C903.435 358.273 896.254 356.208 891.374 352.677L885.512 360.778C892.693 365.974 902.208 368.273 913.489 368.273V358.273ZM891.384 352.684C886.497 349.13 883.927 344.647 883.374 338.97L873.421 339.94C874.262 348.566 878.389 355.598 885.502 360.771L891.384 352.684ZM878.398 344.455H903.307V334.455H878.398V344.455ZM898.363 340.2C898.905 343.799 900.783 346.769 903.838 348.772L909.321 340.41C908.679 339.988 908.375 339.535 908.251 338.71L898.363 340.2ZM903.917 348.823C906.79 350.631 910.143 351.364 913.67 351.364V341.364C911.5 341.364 910.126 340.915 909.242 340.359L903.917 348.823ZM913.67 351.364C916.503 351.364 919.272 350.885 921.696 349.599L917.009 340.765C916.463 341.055 915.444 341.364 913.67 341.364V351.364ZM921.659 349.618C924.457 348.163 926.594 345.557 926.669 341.922L916.672 341.714C916.673 341.645 916.685 341.519 916.735 341.358C916.786 341.196 916.862 341.043 916.951 340.913C917.132 340.651 917.259 340.635 917.046 340.746L921.659 349.618ZM926.669 341.705C926.594 338.395 924.78 335.883 922.258 334.358L917.083 342.915C917.209 342.991 917.076 342.941 916.915 342.684C916.836 342.558 916.771 342.415 916.728 342.267C916.685 342.121 916.673 342.003 916.672 341.932L926.669 341.705ZM922.302 334.385C920.212 333.091 917.458 332.322 914.546 331.804L912.795 341.65C915.338 342.102 916.584 342.606 917.039 342.888L922.302 334.385ZM914.539 331.803L902.176 329.622L900.438 339.469L912.802 341.651L914.539 331.803ZM902.166 329.62C895.612 328.476 891.374 326.407 888.812 323.889L881.802 331.02C886.331 335.472 892.759 338.13 900.447 339.471L902.166 329.62ZM888.812 323.889C886.334 321.453 885.01 318.316 885.034 314.028L875.034 313.972C874.997 320.654 877.189 326.486 881.802 331.02L888.812 323.889ZM885.034 313.969C885.01 310.062 886.016 307.08 887.822 304.722L879.883 298.642C876.537 303.011 874.998 308.241 875.034 314.031L885.034 313.969ZM887.818 304.727C889.739 302.225 892.597 300.149 896.702 298.652L893.275 289.257C887.744 291.275 883.177 294.351 879.887 298.637L887.818 304.727ZM896.719 298.646C900.881 297.111 906.01 296.273 912.216 296.273V286.273C905.149 286.273 898.793 287.222 893.259 289.263L896.719 298.646ZM912.216 296.273C921.674 296.273 928.477 298.239 933.161 301.606L938.998 293.485C932.045 288.488 922.94 286.273 912.216 286.273V296.273ZM933.171 301.613C937.723 304.868 940.069 309.208 940.311 315.114L950.303 314.704C949.939 305.823 946.133 298.587 938.988 293.478L933.171 301.613Z" fill="url(#paint4_linear_148_312)" mask="url(#path-5-outside-1_148_312)"/>
<path d="M63.5234 34.8515L56 54.625H64.0948L67.8088 43.9341L63.5234 34.8515Z" fill="white"/>
<path d="M74.4751 54.625L64.8566 34H72.7609L82.3794 54.625H74.4751Z" fill="white"/>
<path d="M79.1073 39.0143L76.917 34H84.5356L87.0116 39.0143H79.1073Z" fill="white"/>
<path d="M86.2498 54.625L79.4883 40.3389H87.4878L94.4398 54.625H86.2498Z" fill="white"/>
<path d="M90.882 39.0143L88.6916 34H101.643L104.024 39.0143H90.882Z" fill="white"/>
<path d="M100.405 54.625L93.8342 40.3389H101.643L108.5 54.625H100.405Z" fill="white"/>
<path d="M140.648 39.3636V35.5455H155.818V39.3636H150.568V53H145.898V39.3636H140.648ZM157.602 53V35.5455H170.181V39.3636H162.34V42.3636H169.533V46.1818H162.34V49.1818H170.147V53H157.602ZM188.827 42.0909H184.02C183.986 41.6932 183.895 41.3324 183.747 41.0085C183.605 40.6847 183.406 40.4062 183.151 40.1733C182.901 39.9347 182.597 39.7528 182.239 39.6278C181.881 39.4972 181.474 39.4318 181.02 39.4318C180.224 39.4318 179.551 39.625 179 40.0114C178.455 40.3977 178.04 40.9517 177.756 41.6733C177.477 42.3949 177.338 43.2614 177.338 44.2727C177.338 45.3409 177.48 46.2358 177.764 46.9574C178.054 47.6733 178.472 48.2131 179.017 48.5767C179.563 48.9347 180.219 49.1136 180.986 49.1136C181.423 49.1136 181.815 49.0597 182.162 48.9517C182.509 48.8381 182.81 48.6761 183.065 48.4659C183.321 48.2557 183.528 48.0028 183.688 47.7074C183.852 47.4062 183.963 47.0682 184.02 46.6932L188.827 46.7273C188.77 47.4659 188.563 48.2187 188.205 48.9858C187.847 49.7472 187.338 50.4517 186.679 51.0994C186.026 51.7415 185.216 52.2585 184.25 52.6506C183.284 53.0426 182.162 53.2386 180.884 53.2386C179.281 53.2386 177.844 52.8949 176.571 52.2074C175.304 51.5199 174.301 50.5085 173.562 49.1733C172.83 47.8381 172.463 46.2045 172.463 44.2727C172.463 42.3295 172.838 40.6932 173.588 39.3636C174.338 38.0284 175.349 37.0199 176.622 36.3381C177.895 35.6506 179.315 35.3068 180.884 35.3068C181.986 35.3068 183 35.4574 183.926 35.7585C184.852 36.0597 185.665 36.5 186.364 37.0795C187.063 37.6534 187.625 38.3608 188.051 39.2017C188.477 40.0426 188.736 41.0057 188.827 42.0909ZM190.977 53V35.5455H195.715V42.3636H201.988V35.5455H206.727V53H201.988V46.1818H195.715V53H190.977ZM224.079 35.5455V53H220.124L213.817 43.8295H213.715V53H208.977V35.5455H212.999L219.204 44.6818H219.34V35.5455H224.079ZM243.229 44.2727C243.229 46.2159 242.852 47.8551 242.096 49.1903C241.34 50.5199 240.32 51.5284 239.036 52.2159C237.752 52.8977 236.32 53.2386 234.741 53.2386C233.15 53.2386 231.712 52.8949 230.428 52.2074C229.15 51.5142 228.133 50.5028 227.377 49.1733C226.627 47.8381 226.252 46.2045 226.252 44.2727C226.252 42.3295 226.627 40.6932 227.377 39.3636C228.133 38.0284 229.15 37.0199 230.428 36.3381C231.712 35.6506 233.15 35.3068 234.741 35.3068C236.32 35.3068 237.752 35.6506 239.036 36.3381C240.32 37.0199 241.34 38.0284 242.096 39.3636C242.852 40.6932 243.229 42.3295 243.229 44.2727ZM238.354 44.2727C238.354 43.2273 238.215 42.3466 237.937 41.6307C237.664 40.9091 237.258 40.3636 236.718 39.9943C236.184 39.6193 235.525 39.4318 234.741 39.4318C233.957 39.4318 233.295 39.6193 232.755 39.9943C232.221 40.3636 231.815 40.9091 231.536 41.6307C231.263 42.3466 231.127 43.2273 231.127 44.2727C231.127 45.3182 231.263 46.2017 231.536 46.9233C231.815 47.6392 232.221 48.1847 232.755 48.5597C233.295 48.929 233.957 49.1136 234.741 49.1136C235.525 49.1136 236.184 48.929 236.718 48.5597C237.258 48.1847 237.664 47.6392 237.937 46.9233C238.215 46.2017 238.354 45.3182 238.354 44.2727ZM254.831 41C254.786 40.4318 254.572 39.9886 254.192 39.6705C253.817 39.3523 253.246 39.1932 252.479 39.1932C251.99 39.1932 251.589 39.2528 251.277 39.3722C250.97 39.4858 250.743 39.642 250.595 39.8409C250.447 40.0398 250.371 40.267 250.365 40.5227C250.354 40.733 250.391 40.9233 250.476 41.0938C250.567 41.2585 250.709 41.4091 250.902 41.5455C251.095 41.6761 251.342 41.7955 251.643 41.9034C251.945 42.0114 252.303 42.108 252.717 42.1932L254.149 42.5C255.115 42.7045 255.942 42.9744 256.629 43.3097C257.317 43.6449 257.879 44.0398 258.317 44.4943C258.754 44.9432 259.075 45.4489 259.28 46.0114C259.49 46.5739 259.598 47.1875 259.604 47.8523C259.598 49 259.311 49.9716 258.743 50.767C258.175 51.5625 257.362 52.1676 256.305 52.5824C255.254 52.9972 253.99 53.2045 252.513 53.2045C250.996 53.2045 249.672 52.9801 248.541 52.5312C247.416 52.0824 246.541 51.392 245.916 50.4602C245.297 49.5227 244.984 48.3239 244.979 46.8636H249.479C249.507 47.3977 249.641 47.8466 249.879 48.2102C250.118 48.5739 250.453 48.8494 250.885 49.0369C251.322 49.2244 251.842 49.3182 252.445 49.3182C252.95 49.3182 253.374 49.2557 253.714 49.1307C254.055 49.0057 254.314 48.8324 254.49 48.6108C254.666 48.3892 254.757 48.1364 254.763 47.8523C254.757 47.5852 254.669 47.3523 254.499 47.1534C254.334 46.9489 254.061 46.767 253.68 46.608C253.3 46.4432 252.786 46.2898 252.138 46.1477L250.399 45.7727C248.854 45.4375 247.635 44.8778 246.743 44.0938C245.857 43.304 245.416 42.2273 245.422 40.8636C245.416 39.7557 245.712 38.7869 246.308 37.9574C246.911 37.1222 247.743 36.4716 248.805 36.0057C249.874 35.5398 251.098 35.3068 252.479 35.3068C253.888 35.3068 255.107 35.5426 256.135 36.0142C257.163 36.4858 257.956 37.1506 258.513 38.0085C259.075 38.8608 259.359 39.858 259.365 41H254.831ZM261.406 53V35.5455H268.94C270.236 35.5455 271.369 35.8011 272.341 36.3125C273.313 36.8239 274.068 37.5426 274.608 38.4688C275.148 39.3949 275.418 40.4773 275.418 41.7159C275.418 42.9659 275.139 44.0483 274.582 44.9631C274.031 45.8778 273.256 46.5824 272.256 47.0767C271.261 47.571 270.099 47.8182 268.77 47.8182H264.27V44.1364H267.815C268.372 44.1364 268.847 44.0398 269.239 43.8466C269.636 43.6477 269.94 43.3665 270.151 43.0028C270.366 42.6392 270.474 42.2102 270.474 41.7159C270.474 41.2159 270.366 40.7898 270.151 40.4375C269.94 40.0795 269.636 39.8068 269.239 39.6193C268.847 39.4261 268.372 39.3295 267.815 39.3295H266.145V53H261.406ZM279.511 53H274.397L280.158 35.5455H286.636L292.397 53H287.283L283.465 40.3523H283.329L279.511 53ZM278.556 46.1136H288.17V49.6591H278.556V46.1136ZM294.078 53V35.5455H301.612C302.908 35.5455 304.041 35.7812 305.013 36.2528C305.984 36.7244 306.74 37.4034 307.28 38.2898C307.82 39.1761 308.089 40.2386 308.089 41.4773C308.089 42.7273 307.811 43.7812 307.254 44.6392C306.703 45.4972 305.928 46.1449 304.928 46.5824C303.933 47.0199 302.771 47.2386 301.442 47.2386H296.942V43.5568H300.487C301.044 43.5568 301.518 43.4886 301.911 43.3523C302.308 43.2102 302.612 42.9858 302.822 42.679C303.038 42.3722 303.146 41.9716 303.146 41.4773C303.146 40.9773 303.038 40.571 302.822 40.2585C302.612 39.9403 302.308 39.7074 301.911 39.5597C301.518 39.4062 301.044 39.3295 300.487 39.3295H298.817V53H294.078ZM304.305 44.9886L308.669 53H303.521L299.26 44.9886H304.305ZM315.189 35.5455L318.053 40.625H318.189L321.087 35.5455H326.371L321.155 44.2727L326.575 53H321.155L318.189 47.8182H318.053L315.087 53H309.7L315.053 44.2727L309.871 35.5455H315.189Z" fill="white"/>
<g opacity="0.37">
<path d="M160.333 514.333C158.487 514.333 156.683 514.881 155.148 515.906C153.613 516.932 152.417 518.39 151.71 520.095C151.004 521.8 150.819 523.677 151.179 525.488C151.539 527.298 152.428 528.961 153.734 530.266C155.039 531.572 156.702 532.461 158.512 532.821C160.323 533.181 162.199 532.996 163.905 532.29C165.61 531.583 167.068 530.387 168.094 528.852C169.119 527.317 169.667 525.513 169.667 523.667C169.667 521.191 168.683 518.817 166.933 517.067C165.182 515.317 162.809 514.333 160.333 514.333ZM160.333 477C158.487 477 156.683 477.547 155.148 478.573C153.613 479.599 152.417 481.056 151.71 482.762C151.004 484.467 150.819 486.344 151.179 488.154C151.539 489.965 152.428 491.628 153.734 492.933C155.039 494.238 156.702 495.127 158.512 495.487C160.323 495.848 162.199 495.663 163.905 494.956C165.61 494.25 167.068 493.054 168.094 491.519C169.119 489.984 169.667 488.179 169.667 486.333C169.667 483.858 168.683 481.484 166.933 479.734C165.182 477.983 162.809 477 160.333 477ZM197.667 477C195.821 477 194.016 477.547 192.481 478.573C190.946 479.599 189.75 481.056 189.044 482.762C188.337 484.467 188.152 486.344 188.513 488.154C188.873 489.965 189.762 491.628 191.067 492.933C192.372 494.238 194.035 495.127 195.846 495.487C197.656 495.848 199.533 495.663 201.238 494.956C202.944 494.25 204.401 493.054 205.427 491.519C206.452 489.984 207 488.179 207 486.333C207 483.858 206.017 481.484 204.266 479.734C202.516 477.983 200.142 477 197.667 477ZM263 514.333C265.475 514.333 267.849 513.35 269.6 511.6C271.35 509.849 272.333 507.475 272.333 505C272.333 502.525 271.35 500.151 269.6 498.4C267.849 496.65 265.475 495.667 263 495.667H244.333V477H263C265.475 477 267.849 476.017 269.6 474.266C271.35 472.516 272.333 470.142 272.333 467.667C272.333 465.191 271.35 462.817 269.6 461.067C267.849 459.317 265.475 458.333 263 458.333H242.653C241.26 454.419 239.012 450.864 236.074 447.926C233.136 444.988 229.581 442.74 225.666 441.347V421C225.666 418.525 224.683 416.151 222.933 414.4C221.182 412.65 218.809 411.667 216.333 411.667C213.858 411.667 211.484 412.65 209.734 414.4C207.983 416.151 207 418.525 207 421V439.667H188.333V421C188.333 418.525 187.35 416.151 185.599 414.4C183.849 412.65 181.475 411.667 179 411.667C176.524 411.667 174.151 412.65 172.4 414.4C170.65 416.151 169.667 418.525 169.667 421V439.667H151V421C151 418.525 150.017 416.151 148.266 414.4C146.516 412.65 144.142 411.667 141.667 411.667C139.191 411.667 136.817 412.65 135.067 414.4C133.317 416.151 132.333 418.525 132.333 421V441.347C128.419 442.74 124.864 444.988 121.926 447.926C118.987 450.864 116.74 454.419 115.347 458.333H94.9998C92.5245 458.333 90.1505 459.317 88.4002 461.067C86.6498 462.817 85.6665 465.191 85.6665 467.667C85.6665 470.142 86.6498 472.516 88.4002 474.266C90.1505 476.017 92.5245 477 94.9998 477H113.667V495.667H94.9998C92.5245 495.667 90.1505 496.65 88.4002 498.4C86.6498 500.151 85.6665 502.525 85.6665 505C85.6665 507.475 86.6498 509.849 88.4002 511.6C90.1505 513.35 92.5245 514.333 94.9998 514.333H113.667V533H94.9998C92.5245 533 90.1505 533.983 88.4002 535.734C86.6498 537.484 85.6665 539.858 85.6665 542.333C85.6665 544.809 86.6498 547.183 88.4002 548.933C90.1505 550.683 92.5245 551.667 94.9998 551.667H115.347C116.74 555.581 118.987 559.136 121.926 562.074C124.864 565.012 128.419 567.26 132.333 568.653V589C132.333 591.475 133.317 593.849 135.067 595.6C136.817 597.35 139.191 598.333 141.667 598.333C144.142 598.333 146.516 597.35 148.266 595.6C150.017 593.849 151 591.475 151 589V570.333H169.667V589C169.667 591.475 170.65 593.849 172.4 595.6C174.151 597.35 176.524 598.333 179 598.333C181.475 598.333 183.849 597.35 185.599 595.6C187.35 593.849 188.333 591.475 188.333 589V570.333H207V589C207 591.475 207.983 593.849 209.734 595.6C211.484 597.35 213.858 598.333 216.333 598.333C218.809 598.333 221.182 597.35 222.933 595.6C224.683 593.849 225.666 591.475 225.666 589V568.653C229.581 567.26 233.136 565.012 236.074 562.074C239.012 559.136 241.26 555.581 242.653 551.667H263C265.475 551.667 267.849 550.683 269.6 548.933C271.35 547.183 272.333 544.809 272.333 542.333C272.333 539.858 271.35 537.484 269.6 535.734C267.849 533.983 265.475 533 263 533H244.333V514.333H263ZM225.666 542.333C225.666 544.809 224.683 547.183 222.933 548.933C221.182 550.683 218.809 551.667 216.333 551.667H141.667C139.191 551.667 136.817 550.683 135.067 548.933C133.317 547.183 132.333 544.809 132.333 542.333V467.667C132.333 465.191 133.317 462.817 135.067 461.067C136.817 459.317 139.191 458.333 141.667 458.333H216.333C218.809 458.333 221.182 459.317 222.933 461.067C224.683 462.817 225.666 465.191 225.666 467.667V542.333ZM197.667 514.333C195.821 514.333 194.016 514.881 192.481 515.906C190.946 516.932 189.75 518.39 189.044 520.095C188.337 521.8 188.152 523.677 188.513 525.488C188.873 527.298 189.762 528.961 191.067 530.266C192.372 531.572 194.035 532.461 195.846 532.821C197.656 533.181 199.533 532.996 201.238 532.29C202.944 531.583 204.401 530.387 205.427 528.852C206.452 527.317 207 525.513 207 523.667C207 521.191 206.017 518.817 204.266 517.067C202.516 515.317 200.142 514.333 197.667 514.333Z" fill="url(#paint5_linear_148_312)"/>
</g>
<g opacity="0.52">
<path d="M1145.84 36.4375H971.156L964.438 43.1563V217.844L971.156 224.563H1145.84L1152.56 217.844V43.1563L1145.84 36.4375ZM1139.13 211.125H1018.19V184.25H1049.09C1053.13 192.313 1062.53 197.688 1071.94 197.688C1086.72 197.688 1098.81 185.594 1098.81 170.813C1098.81 156.031 1086.72 143.938 1071.94 143.938C1057.16 143.938 1045.06 156.031 1045.06 170.813H1004.75V211.125H977.875V49.875H1004.75V80.7813C996.688 84.8125 991.313 94.2188 991.313 103.625C991.313 118.406 1003.41 130.5 1018.19 130.5C1032.97 130.5 1045.06 118.406 1045.06 103.625H1071.94C1071.94 118.406 1084.03 130.5 1098.81 130.5C1113.59 130.5 1125.69 118.406 1125.69 103.625C1125.69 88.8438 1113.59 76.75 1098.81 76.75C1089.41 76.75 1080 82.125 1075.97 90.1875H1041.03C1037 82.125 1027.59 76.75 1018.19 76.75V49.875H1139.13V211.125ZM1058.5 170.813C1058.5 162.75 1063.88 157.375 1071.94 157.375C1080 157.375 1085.38 162.75 1085.38 170.813C1085.38 178.875 1080 184.25 1071.94 184.25C1063.88 184.25 1058.5 178.875 1058.5 170.813ZM1018.19 90.1875C1026.25 90.1875 1031.63 95.5625 1031.63 103.625C1031.63 111.688 1026.25 117.063 1018.19 117.063C1010.13 117.063 1004.75 111.688 1004.75 103.625C1004.75 95.5625 1010.13 90.1875 1018.19 90.1875ZM1098.81 90.1875C1106.88 90.1875 1112.25 95.5625 1112.25 103.625C1112.25 111.688 1106.88 117.063 1098.81 117.063C1090.75 117.063 1085.38 111.688 1085.38 103.625C1085.38 95.5625 1090.75 90.1875 1098.81 90.1875Z" fill="url(#paint6_linear_148_312)"/>
</g>
</g>
<defs>
<linearGradient id="paint0_linear_148_312" x1="-63.757" y1="-34.0071" x2="-63.757" y2="347.166" gradientUnits="userSpaceOnUse">
<stop stop-color="#FF9E0B"/>
<stop offset="1" stop-color="#EC4899"/>
</linearGradient>
<linearGradient id="paint1_linear_148_312" x1="1173" y1="695.827" x2="1173" y2="969.442" gradientUnits="userSpaceOnUse">
<stop stop-color="#FF9E0B"/>
<stop offset="1" stop-color="#F24E52"/>
</linearGradient>
<linearGradient id="paint2_linear_148_312" x1="882.5" y1="530" x2="882.5" y2="919" gradientUnits="userSpaceOnUse">
<stop stop-color="#FF9E0B"/>
<stop offset="1" stop-color="#9C67E7"/>
</linearGradient>
<linearGradient id="paint3_linear_148_312" x1="491" y1="30" x2="491" y2="162" gradientUnits="userSpaceOnUse">
<stop stop-color="#FF9E0B"/>
<stop offset="1" stop-color="#DA46EB"/>
</linearGradient>
<linearGradient id="paint4_linear_148_312" x1="600.5" y1="238" x2="600.5" y2="393" gradientUnits="userSpaceOnUse">
<stop stop-color="#FF9E0B"/>
<stop offset="0.49" stop-color="#F24E52"/>
</linearGradient>
<linearGradient id="paint5_linear_148_312" x1="179" y1="411.667" x2="179" y2="598.333" gradientUnits="userSpaceOnUse">
<stop stop-color="#F24E52"/>
<stop offset="1" stop-color="#FF9E0B"/>
</linearGradient>
<linearGradient id="paint6_linear_148_312" x1="1058.5" y1="36.4375" x2="1058.5" y2="224.562" gradientUnits="userSpaceOnUse">
<stop stop-color="#F24E52"/>
<stop offset="1" stop-color="#9C67E7"/>
</linearGradient>
<clipPath id="clip0_148_312">
<rect width="1200" height="630" fill="white"/>
</clipPath>
</defs>
</svg>
