<svg width="1200" height="630" viewBox="0 0 1200 630" fill="none" xmlns="http://www.w3.org/2000/svg">
<g clip-path="url(#clip0_148_265)">
<rect width="1200" height="630" fill="black"/>
<rect x="-427.809" y="-32.4841" width="729.486" height="376.173" transform="rotate(-19.4848 -427.809 -32.4841)" stroke="url(#paint0_linear_148_265)" stroke-width="5"/>
<rect x="883" y="695.827" width="580" height="273.616" transform="rotate(-35.26 883 695.827)" fill="url(#paint1_linear_148_265)"/>
<circle cx="882.5" cy="724.5" r="193" stroke="url(#paint2_linear_148_265)" stroke-width="3"/>
<path opacity="0.49" d="M415 58.3636C414.121 58.3636 413.367 58.0568 412.739 57.4432C412.117 56.822 411.811 56.0682 411.818 55.1818C411.811 54.3182 412.117 53.5795 412.739 52.9659C413.367 52.3523 414.121 52.0455 415 52.0455C415.833 52.0455 416.568 52.3523 417.205 52.9659C417.848 53.5795 418.174 54.3182 418.182 55.1818C418.174 55.7727 418.019 56.3106 417.716 56.7955C417.42 57.2727 417.034 57.6553 416.557 57.9432C416.08 58.2235 415.561 58.3636 415 58.3636ZM459.003 58.3636C458.124 58.3636 457.37 58.0568 456.741 57.4432C456.12 56.822 455.813 56.0682 455.821 55.1818C455.813 54.3182 456.12 53.5795 456.741 52.9659C457.37 52.3523 458.124 52.0455 459.003 52.0455C459.836 52.0455 460.571 52.3523 461.207 52.9659C461.851 53.5795 462.177 54.3182 462.184 55.1818C462.177 55.7727 462.021 56.3106 461.718 56.7955C461.423 57.2727 461.037 57.6553 460.559 57.9432C460.082 58.2235 459.563 58.3636 459.003 58.3636ZM503.005 58.3636C502.126 58.3636 501.372 58.0568 500.744 57.4432C500.122 56.822 499.816 56.0682 499.823 55.1818C499.816 54.3182 500.122 53.5795 500.744 52.9659C501.372 52.3523 502.126 52.0455 503.005 52.0455C503.838 52.0455 504.573 52.3523 505.21 52.9659C505.853 53.5795 506.179 54.3182 506.187 55.1818C506.179 55.7727 506.024 56.3106 505.721 56.7955C505.425 57.2727 505.039 57.6553 504.562 57.9432C504.085 58.2235 503.566 58.3636 503.005 58.3636ZM547.008 58.3636C546.129 58.3636 545.375 58.0568 544.746 57.4432C544.125 56.822 543.818 56.0682 543.826 55.1818C543.818 54.3182 544.125 53.5795 544.746 52.9659C545.375 52.3523 546.129 52.0455 547.008 52.0455C547.841 52.0455 548.576 52.3523 549.212 52.9659C549.856 53.5795 550.182 54.3182 550.189 55.1818C550.182 55.7727 550.026 56.3106 549.723 56.7955C549.428 57.2727 549.042 57.6553 548.564 57.9432C548.087 58.2235 547.568 58.3636 547.008 58.3636ZM415 91.3636C414.121 91.3636 413.367 91.0568 412.739 90.4432C412.117 89.822 411.811 89.0682 411.818 88.1818C411.811 87.3182 412.117 86.5795 412.739 85.9659C413.367 85.3523 414.121 85.0455 415 85.0455C415.833 85.0455 416.568 85.3523 417.205 85.9659C417.848 86.5795 418.174 87.3182 418.182 88.1818C418.174 88.7727 418.019 89.3106 417.716 89.7955C417.42 90.2727 417.034 90.6553 416.557 90.9432C416.08 91.2235 415.561 91.3636 415 91.3636ZM459.003 91.3636C458.124 91.3636 457.37 91.0568 456.741 90.4432C456.12 89.822 455.813 89.0682 455.821 88.1818C455.813 87.3182 456.12 86.5795 456.741 85.9659C457.37 85.3523 458.124 85.0455 459.003 85.0455C459.836 85.0455 460.571 85.3523 461.207 85.9659C461.851 86.5795 462.177 87.3182 462.184 88.1818C462.177 88.7727 462.021 89.3106 461.718 89.7955C461.423 90.2727 461.037 90.6553 460.559 90.9432C460.082 91.2235 459.563 91.3636 459.003 91.3636ZM503.005 91.3636C502.126 91.3636 501.372 91.0568 500.744 90.4432C500.122 89.822 499.816 89.0682 499.823 88.1818C499.816 87.3182 500.122 86.5795 500.744 85.9659C501.372 85.3523 502.126 85.0455 503.005 85.0455C503.838 85.0455 504.573 85.3523 505.21 85.9659C505.853 86.5795 506.179 87.3182 506.187 88.1818C506.179 88.7727 506.024 89.3106 505.721 89.7955C505.425 90.2727 505.039 90.6553 504.562 90.9432C504.085 91.2235 503.566 91.3636 503.005 91.3636ZM547.008 91.3636C546.129 91.3636 545.375 91.0568 544.746 90.4432C544.125 89.822 543.818 89.0682 543.826 88.1818C543.818 87.3182 544.125 86.5795 544.746 85.9659C545.375 85.3523 546.129 85.0455 547.008 85.0455C547.841 85.0455 548.576 85.3523 549.212 85.9659C549.856 86.5795 550.182 87.3182 550.189 88.1818C550.182 88.7727 550.026 89.3106 549.723 89.7955C549.428 90.2727 549.042 90.6553 548.564 90.9432C548.087 91.2235 547.568 91.3636 547.008 91.3636ZM415 124.364C414.121 124.364 413.367 124.057 412.739 123.443C412.117 122.822 411.811 122.068 411.818 121.182C411.811 120.318 412.117 119.58 412.739 118.966C413.367 118.352 414.121 118.045 415 118.045C415.833 118.045 416.568 118.352 417.205 118.966C417.848 119.58 418.174 120.318 418.182 121.182C418.174 121.773 418.019 122.311 417.716 122.795C417.42 123.273 417.034 123.655 416.557 123.943C416.08 124.223 415.561 124.364 415 124.364ZM459.003 124.364C458.124 124.364 457.37 124.057 456.741 123.443C456.12 122.822 455.813 122.068 455.821 121.182C455.813 120.318 456.12 119.58 456.741 118.966C457.37 118.352 458.124 118.045 459.003 118.045C459.836 118.045 460.571 118.352 461.207 118.966C461.851 119.58 462.177 120.318 462.184 121.182C462.177 121.773 462.021 122.311 461.718 122.795C461.423 123.273 461.037 123.655 460.559 123.943C460.082 124.223 459.563 124.364 459.003 124.364ZM503.005 124.364C502.126 124.364 501.372 124.057 500.744 123.443C500.122 122.822 499.816 122.068 499.823 121.182C499.816 120.318 500.122 119.58 500.744 118.966C501.372 118.352 502.126 118.045 503.005 118.045C503.838 118.045 504.573 118.352 505.21 118.966C505.853 119.58 506.179 120.318 506.187 121.182C506.179 121.773 506.024 122.311 505.721 122.795C505.425 123.273 505.039 123.655 504.562 123.943C504.085 124.223 503.566 124.364 503.005 124.364ZM547.008 124.364C546.129 124.364 545.375 124.057 544.746 123.443C544.125 122.822 543.818 122.068 543.826 121.182C543.818 120.318 544.125 119.58 544.746 118.966C545.375 118.352 546.129 118.045 547.008 118.045C547.841 118.045 548.576 118.352 549.212 118.966C549.856 119.58 550.182 120.318 550.189 121.182C550.182 121.773 550.026 122.311 549.723 122.795C549.428 123.273 549.042 123.655 548.564 123.943C548.087 124.223 547.568 124.364 547.008 124.364ZM415 157.364C414.121 157.364 413.367 157.057 412.739 156.443C412.117 155.822 411.811 155.068 411.818 154.182C411.811 153.318 412.117 152.58 412.739 151.966C413.367 151.352 414.121 151.045 415 151.045C415.833 151.045 416.568 151.352 417.205 151.966C417.848 152.58 418.174 153.318 418.182 154.182C418.174 154.773 418.019 155.311 417.716 155.795C417.42 156.273 417.034 156.655 416.557 156.943C416.08 157.223 415.561 157.364 415 157.364ZM459.003 157.364C458.124 157.364 457.37 157.057 456.741 156.443C456.12 155.822 455.813 155.068 455.821 154.182C455.813 153.318 456.12 152.58 456.741 151.966C457.37 151.352 458.124 151.045 459.003 151.045C459.836 151.045 460.571 151.352 461.207 151.966C461.851 152.58 462.177 153.318 462.184 154.182C462.177 154.773 462.021 155.311 461.718 155.795C461.423 156.273 461.037 156.655 460.559 156.943C460.082 157.223 459.563 157.364 459.003 157.364ZM503.005 157.364C502.126 157.364 501.372 157.057 500.744 156.443C500.122 155.822 499.816 155.068 499.823 154.182C499.816 153.318 500.122 152.58 500.744 151.966C501.372 151.352 502.126 151.045 503.005 151.045C503.838 151.045 504.573 151.352 505.21 151.966C505.853 152.58 506.179 153.318 506.187 154.182C506.179 154.773 506.024 155.311 505.721 155.795C505.425 156.273 505.039 156.655 504.562 156.943C504.085 157.223 503.566 157.364 503.005 157.364ZM547.008 157.364C546.129 157.364 545.375 157.057 544.746 156.443C544.125 155.822 543.818 155.068 543.826 154.182C543.818 153.318 544.125 152.58 544.746 151.966C545.375 151.352 546.129 151.045 547.008 151.045C547.841 151.045 548.576 151.352 549.212 151.966C549.856 152.58 550.182 153.318 550.189 154.182C550.182 154.773 550.026 155.311 549.723 155.795C549.428 156.273 549.042 156.655 548.564 156.943C548.087 157.223 547.568 157.364 547.008 157.364Z" fill="url(#paint3_linear_148_265)"/>
<mask id="path-5-outside-1_148_265" maskUnits="userSpaceOnUse" x="42" y="270" width="1118" height="108" fill="black">
<rect fill="white" x="42" y="270" width="1118" height="108"/>
<path d="M88.892 302C88.7027 299.633 87.8149 297.786 86.2287 296.46C84.6662 295.134 82.2869 294.472 79.0909 294.472C77.0549 294.472 75.3859 294.72 74.0838 295.217C72.8054 295.691 71.8584 296.342 71.2429 297.17C70.6274 297.999 70.3078 298.946 70.2841 300.011C70.2367 300.887 70.3906 301.68 70.7457 302.391C71.1245 303.077 71.7164 303.705 72.5213 304.273C73.3262 304.817 74.3561 305.314 75.6108 305.764C76.8655 306.214 78.357 306.616 80.0852 306.972L86.0511 308.25C90.0758 309.102 93.5204 310.227 96.3849 311.624C99.2495 313.02 101.593 314.666 103.416 316.56C105.239 318.43 106.577 320.537 107.429 322.881C108.305 325.224 108.755 327.781 108.778 330.551C108.755 335.333 107.559 339.382 105.192 342.696C102.824 346.01 99.4389 348.532 95.0355 350.26C90.6558 351.988 85.3883 352.852 79.233 352.852C72.9119 352.852 67.3958 351.917 62.6847 350.047C57.9972 348.177 54.3513 345.3 51.7472 341.418C49.1667 337.511 47.8646 332.516 47.8409 326.432H66.5909C66.7093 328.657 67.2656 330.527 68.2599 332.043C69.2543 333.558 70.651 334.706 72.4503 335.487C74.2732 336.268 76.4394 336.659 78.9489 336.659C81.0559 336.659 82.8196 336.399 84.2401 335.878C85.6605 335.357 86.7377 334.635 87.4716 333.712C88.2055 332.788 88.5843 331.735 88.608 330.551C88.5843 329.438 88.2173 328.468 87.5071 327.639C86.8206 326.787 85.6842 326.029 84.098 325.366C82.5118 324.68 80.3693 324.041 77.6705 323.449L70.4261 321.886C63.9867 320.49 58.9086 318.158 55.1918 314.891C51.4986 311.6 49.6638 307.114 49.6875 301.432C49.6638 296.815 50.8949 292.779 53.3807 289.322C55.8902 285.842 59.3584 283.132 63.7855 281.19C68.2363 279.249 73.3381 278.278 79.0909 278.278C84.9621 278.278 90.0402 279.261 94.3253 281.226C98.6103 283.191 101.913 285.961 104.233 289.536C106.577 293.087 107.76 297.241 107.784 302H88.892ZM116.573 372.455V297.455H136.033V306.972H136.46C137.17 305.125 138.211 303.432 139.585 301.893C140.958 300.331 142.662 299.088 144.698 298.165C146.734 297.218 149.102 296.744 151.8 296.744C155.399 296.744 158.82 297.703 162.063 299.621C165.33 301.538 167.982 304.557 170.018 308.676C172.077 312.795 173.107 318.146 173.107 324.727C173.107 331.025 172.125 336.245 170.16 340.388C168.219 344.531 165.614 347.62 162.347 349.656C159.104 351.692 155.541 352.71 151.658 352.71C149.102 352.71 146.817 352.296 144.805 351.467C142.816 350.615 141.112 349.467 139.691 348.023C138.294 346.555 137.217 344.898 136.46 343.051H136.175V372.455H116.573ZM135.749 324.727C135.749 327.379 136.093 329.675 136.779 331.616C137.489 333.534 138.484 335.026 139.762 336.091C141.064 337.133 142.615 337.653 144.414 337.653C146.213 337.653 147.74 337.144 148.995 336.126C150.273 335.085 151.244 333.605 151.907 331.688C152.594 329.746 152.937 327.426 152.937 324.727C152.937 322.028 152.594 319.72 151.907 317.803C151.244 315.861 150.273 314.382 148.995 313.364C147.74 312.322 146.213 311.801 144.414 311.801C142.615 311.801 141.064 312.322 139.762 313.364C138.484 314.382 137.489 315.861 136.779 317.803C136.093 319.72 135.749 322.028 135.749 324.727ZM216.689 328.136V297.455H236.291V352H217.683V341.631H217.115C215.931 345.111 213.859 347.833 210.9 349.798C207.941 351.74 204.425 352.71 200.353 352.71C196.542 352.71 193.204 351.834 190.339 350.082C187.498 348.33 185.285 345.916 183.699 342.838C182.136 339.76 181.343 336.233 181.319 332.256V297.455H200.922V328.136C200.945 330.835 201.632 332.954 202.981 334.493C204.354 336.032 206.272 336.801 208.734 336.801C210.368 336.801 211.776 336.458 212.96 335.771C214.167 335.061 215.091 334.067 215.73 332.788C216.393 331.486 216.712 329.936 216.689 328.136ZM246.261 352V297.455H265.295V307.824H265.863C266.857 303.989 268.432 301.183 270.586 299.408C272.764 297.632 275.309 296.744 278.221 296.744C279.073 296.744 279.914 296.815 280.742 296.957C281.594 297.076 282.411 297.253 283.192 297.49V314.216C282.222 313.884 281.026 313.636 279.606 313.47C278.185 313.304 276.966 313.222 275.948 313.222C274.031 313.222 272.302 313.66 270.763 314.536C269.248 315.388 268.053 316.595 267.177 318.158C266.301 319.696 265.863 321.508 265.863 323.591V352H246.261ZM325.415 315.636V330.409H291.325V315.636H325.415ZM407.251 315.636C407.251 323.733 405.677 330.563 402.528 336.126C399.38 341.666 395.13 345.868 389.78 348.733C384.429 351.574 378.464 352.994 371.882 352.994C365.253 352.994 359.264 351.562 353.913 348.697C348.587 345.809 344.349 341.595 341.2 336.055C338.075 330.492 336.513 323.686 336.513 315.636C336.513 307.54 338.075 300.722 341.2 295.182C344.349 289.618 348.587 285.416 353.913 282.575C359.264 279.711 365.253 278.278 371.882 278.278C378.464 278.278 384.429 279.711 389.78 282.575C395.13 285.416 399.38 289.618 402.528 295.182C405.677 300.722 407.251 307.54 407.251 315.636ZM386.939 315.636C386.939 311.28 386.359 307.611 385.199 304.628C384.062 301.621 382.37 299.348 380.121 297.81C377.895 296.247 375.149 295.466 371.882 295.466C368.615 295.466 365.857 296.247 363.608 297.81C361.383 299.348 359.69 301.621 358.53 304.628C357.393 307.611 356.825 311.28 356.825 315.636C356.825 319.992 357.393 323.674 358.53 326.68C359.69 329.663 361.383 331.936 363.608 333.499C365.857 335.037 368.615 335.807 371.882 335.807C375.149 335.807 377.895 335.037 380.121 333.499C382.37 331.936 384.062 329.663 385.199 326.68C386.359 323.674 386.939 319.992 386.939 315.636ZM449.341 297.455V311.659H412.836V297.455H449.341ZM419.796 352V295.892C419.796 291.394 420.601 287.665 422.211 284.706C423.82 281.747 426.093 279.533 429.029 278.065C431.964 276.598 435.421 275.864 439.398 275.864C441.884 275.864 444.299 276.053 446.642 276.432C449.01 276.811 450.762 277.142 451.898 277.426L449.057 291.489C448.347 291.276 447.518 291.11 446.571 290.991C445.624 290.849 444.796 290.778 444.086 290.778C442.239 290.778 440.996 291.169 440.357 291.95C439.718 292.732 439.398 293.761 439.398 295.04V352H419.796ZM491.333 315.636V330.409H457.243V315.636H491.333ZM500.726 295.182V279.273H563.936V295.182H542.061V352H522.601V295.182H500.726ZM591.254 321.318V352H571.651V279.273H590.543V307.824H591.112C592.343 304.344 594.39 301.633 597.255 299.692C600.12 297.727 603.564 296.744 607.589 296.744C611.448 296.744 614.798 297.62 617.638 299.372C620.503 301.124 622.717 303.539 624.279 306.616C625.865 309.694 626.647 313.222 626.623 317.199V352H607.021V321.318C607.044 318.619 606.37 316.5 604.996 314.962C603.647 313.423 601.718 312.653 599.208 312.653C597.622 312.653 596.225 313.009 595.018 313.719C593.834 314.405 592.911 315.4 592.248 316.702C591.609 317.98 591.277 319.519 591.254 321.318ZM662.436 352.994C656.612 352.994 651.593 351.882 647.379 349.656C643.189 347.407 639.957 344.187 637.685 339.997C635.436 335.783 634.311 330.741 634.311 324.869C634.311 319.235 635.447 314.311 637.72 310.097C639.993 305.883 643.201 302.604 647.344 300.26C651.487 297.916 656.375 296.744 662.01 296.744C666.129 296.744 669.858 297.384 673.196 298.662C676.534 299.94 679.387 301.799 681.754 304.237C684.122 306.652 685.945 309.588 687.223 313.044C688.501 316.5 689.141 320.395 689.141 324.727V329.273H640.419V318.477H671.101C671.077 316.915 670.675 315.542 669.893 314.358C669.136 313.151 668.106 312.215 666.804 311.553C665.526 310.866 664.07 310.523 662.436 310.523C660.85 310.523 659.394 310.866 658.068 311.553C656.742 312.215 655.677 313.139 654.872 314.322C654.091 315.506 653.677 316.891 653.629 318.477V330.125C653.629 331.877 653.996 333.439 654.73 334.812C655.464 336.186 656.518 337.263 657.891 338.044C659.264 338.825 660.921 339.216 662.862 339.216C664.212 339.216 665.443 339.027 666.555 338.648C667.692 338.269 668.662 337.724 669.467 337.014C670.272 336.28 670.864 335.404 671.243 334.386H689.141C688.525 338.174 687.069 341.465 684.773 344.259C682.476 347.028 679.434 349.183 675.646 350.722C671.882 352.237 667.479 352.994 662.436 352.994ZM732.935 315.636V330.409H698.844V315.636H732.935ZM744.316 279.273H768.89L785.794 320.466H786.646L803.549 279.273H828.123V352H808.805V309.955H808.237L792.044 351.432H780.396L764.203 309.67H763.635V352H744.316V279.273ZM864.043 352.994C858.124 352.994 853.058 351.822 848.844 349.479C844.63 347.111 841.399 343.821 839.15 339.607C836.9 335.369 835.776 330.456 835.776 324.869C835.776 319.282 836.9 314.382 839.15 310.168C841.399 305.93 844.63 302.639 848.844 300.295C853.058 297.928 858.124 296.744 864.043 296.744C869.962 296.744 875.028 297.928 879.242 300.295C883.456 302.639 886.687 305.93 888.936 310.168C891.185 314.382 892.31 319.282 892.31 324.869C892.31 330.456 891.185 335.369 888.936 339.607C886.687 343.821 883.456 347.111 879.242 349.479C875.028 351.822 869.962 352.994 864.043 352.994ZM864.185 338.506C865.842 338.506 867.275 337.949 868.482 336.837C869.689 335.724 870.624 334.138 871.287 332.078C871.95 330.018 872.282 327.568 872.282 324.727C872.282 321.863 871.95 319.412 871.287 317.376C870.624 315.317 869.689 313.731 868.482 312.618C867.275 311.505 865.842 310.949 864.185 310.949C862.433 310.949 860.93 311.505 859.675 312.618C858.42 313.731 857.462 315.317 856.799 317.376C856.136 319.412 855.804 321.863 855.804 324.727C855.804 327.568 856.136 330.018 856.799 332.078C857.462 334.138 858.42 335.724 859.675 336.837C860.93 337.949 862.433 338.506 864.185 338.506ZM900.265 352V297.455H918.873V307.824H919.441C920.577 304.415 922.518 301.716 925.265 299.727C928.011 297.739 931.278 296.744 935.066 296.744C938.901 296.744 942.203 297.762 944.973 299.798C947.743 301.811 949.412 304.486 949.98 307.824H950.549C951.472 304.486 953.437 301.811 956.444 299.798C959.45 297.762 962.978 296.744 967.026 296.744C972.258 296.744 976.496 298.425 979.739 301.787C983.006 305.149 984.64 309.623 984.64 315.21V352H965.037V320.182C965.037 317.791 964.434 315.92 963.226 314.571C962.019 313.198 960.397 312.511 958.361 312.511C956.349 312.511 954.751 313.198 953.567 314.571C952.407 315.92 951.827 317.791 951.827 320.182V352H933.077V320.182C933.077 317.791 932.473 315.92 931.266 314.571C930.059 313.198 928.437 312.511 926.401 312.511C925.051 312.511 923.891 312.819 922.921 313.435C921.95 314.05 921.193 314.938 920.648 316.098C920.127 317.234 919.867 318.596 919.867 320.182V352H900.265ZM1020.44 352.994C1014.62 352.994 1009.6 351.882 1005.39 349.656C1001.2 347.407 997.965 344.187 995.692 339.997C993.443 335.783 992.319 330.741 992.319 324.869C992.319 319.235 993.455 314.311 995.728 310.097C998.001 305.883 1001.21 302.604 1005.35 300.26C1009.49 297.916 1014.38 296.744 1020.02 296.744C1024.14 296.744 1027.87 297.384 1031.2 298.662C1034.54 299.94 1037.39 301.799 1039.76 304.237C1042.13 306.652 1043.95 309.588 1045.23 313.044C1046.51 316.5 1047.15 320.395 1047.15 324.727V329.273H998.427V318.477H1029.11C1029.08 316.915 1028.68 315.542 1027.9 314.358C1027.14 313.151 1026.11 312.215 1024.81 311.553C1023.53 310.866 1022.08 310.523 1020.44 310.523C1018.86 310.523 1017.4 310.866 1016.08 311.553C1014.75 312.215 1013.68 313.139 1012.88 314.322C1012.1 315.506 1011.68 316.891 1011.64 318.477V330.125C1011.64 331.877 1012 333.439 1012.74 334.812C1013.47 336.186 1014.53 337.263 1015.9 338.044C1017.27 338.825 1018.93 339.216 1020.87 339.216C1022.22 339.216 1023.45 339.027 1024.56 338.648C1025.7 338.269 1026.67 337.724 1027.48 337.014C1028.28 336.28 1028.87 335.404 1029.25 334.386H1047.15C1046.53 338.174 1045.08 341.465 1042.78 344.259C1040.48 347.028 1037.44 349.183 1033.65 350.722C1029.89 352.237 1025.49 352.994 1020.44 352.994ZM1074.75 321.318V352H1055.15V297.455H1073.76V307.824H1074.32C1075.51 304.367 1077.59 301.657 1080.57 299.692C1083.58 297.727 1087.08 296.744 1091.08 296.744C1094.94 296.744 1098.29 297.632 1101.13 299.408C1104 301.16 1106.21 303.574 1107.78 306.652C1109.36 309.73 1110.14 313.245 1110.12 317.199V352H1090.52V321.318C1090.54 318.619 1089.85 316.5 1088.46 314.962C1087.08 313.423 1085.17 312.653 1082.7 312.653C1081.09 312.653 1079.69 313.009 1078.48 313.719C1077.29 314.405 1076.38 315.4 1075.74 316.702C1075.1 317.98 1074.77 319.519 1074.75 321.318ZM1152.32 297.455V311.659H1116.39V297.455H1152.32ZM1123.35 284.386H1142.95V334.457C1142.95 335.215 1143.08 335.854 1143.34 336.375C1143.6 336.872 1144 337.251 1144.55 337.511C1145.09 337.748 1145.79 337.866 1146.64 337.866C1147.23 337.866 1147.92 337.795 1148.7 337.653C1149.51 337.511 1150.1 337.393 1150.48 337.298L1153.32 351.077C1152.44 351.337 1151.19 351.657 1149.55 352.036C1147.94 352.414 1146.03 352.663 1143.8 352.781C1139.3 353.018 1135.53 352.556 1132.47 351.396C1129.42 350.213 1127.12 348.354 1125.58 345.821C1124.05 343.288 1123.3 340.116 1123.35 336.304V284.386Z"/>
</mask>
<path d="M88.892 302L83.908 302.399L84.2761 307H88.892V302ZM86.2287 296.46L82.9938 300.273L83.0079 300.285L83.0221 300.297L86.2287 296.46ZM74.0838 295.217L75.8204 299.906L75.8439 299.897L75.8673 299.888L74.0838 295.217ZM71.2429 297.17L67.2292 294.189L67.2292 294.189L71.2429 297.17ZM70.2841 300.011L75.2768 300.281L75.2811 300.202L75.2829 300.122L70.2841 300.011ZM70.7457 302.391L66.2736 304.627L66.3189 304.717L66.3679 304.806L70.7457 302.391ZM72.5213 304.273L69.6379 308.358L69.6785 308.386L69.7198 308.414L72.5213 304.273ZM80.0852 306.972L81.1329 302.083L81.1123 302.078L81.0916 302.074L80.0852 306.972ZM86.0511 308.25L85.0035 313.139L85.0153 313.142L86.0511 308.25ZM96.3849 311.624L94.1936 316.118L96.3849 311.624ZM103.416 316.56L99.8138 320.027L99.8247 320.038L99.8356 320.05L103.416 316.56ZM107.429 322.881L102.73 324.589L102.738 324.61L102.745 324.631L107.429 322.881ZM108.778 330.551L113.778 330.576L113.779 330.542L113.778 330.508L108.778 330.551ZM105.192 342.696L109.26 345.602L109.26 345.602L105.192 342.696ZM95.0355 350.26L93.2088 345.606L93.2003 345.609L95.0355 350.26ZM62.6847 350.047L60.8317 354.691L60.8398 354.694L62.6847 350.047ZM51.7472 341.418L47.5753 344.174L47.5849 344.188L47.5947 344.203L51.7472 341.418ZM47.8409 326.432V321.432H42.8214L42.8409 326.451L47.8409 326.432ZM66.5909 326.432L71.5839 326.166L71.332 321.432H66.5909V326.432ZM68.2599 332.043L64.0797 334.786L64.0797 334.786L68.2599 332.043ZM72.4503 335.487L70.4589 340.074L70.4698 340.078L70.4807 340.083L72.4503 335.487ZM84.2401 335.878L85.9613 340.572L85.9613 340.572L84.2401 335.878ZM87.4716 333.712L91.3857 336.823L91.3857 336.823L87.4716 333.712ZM88.608 330.551L93.607 330.651L93.609 330.548L93.6068 330.445L88.608 330.551ZM87.5071 327.639L83.6133 330.776L83.6612 330.835L83.7108 330.893L87.5071 327.639ZM84.098 325.366L82.1119 329.955L82.1409 329.968L82.17 329.98L84.098 325.366ZM77.6705 323.449L78.7415 318.565L78.7331 318.563L78.7246 318.561L77.6705 323.449ZM70.4261 321.886L69.3662 326.773L69.3719 326.774L70.4261 321.886ZM55.1918 314.891L51.8655 318.624L51.8781 318.635L51.8908 318.646L55.1918 314.891ZM49.6875 301.432L54.6875 301.453L54.6876 301.429L54.6874 301.406L49.6875 301.432ZM53.3807 289.322L49.3251 286.398L49.3214 286.403L53.3807 289.322ZM63.7855 281.19L61.7865 276.607L61.7776 276.611L63.7855 281.19ZM94.3253 281.226L92.2411 285.771L92.2411 285.771L94.3253 281.226ZM104.233 289.536L100.039 292.258L100.049 292.274L100.06 292.29L104.233 289.536ZM107.784 302V307H112.809L112.784 301.975L107.784 302ZM93.8761 301.601C93.597 298.113 92.207 294.94 89.4352 292.624L83.0221 300.297C83.4227 300.631 83.8083 301.153 83.908 302.399L93.8761 301.601ZM89.4636 292.648C86.6116 290.228 82.8417 289.472 79.0909 289.472V299.472C81.7322 299.472 82.7208 300.041 82.9938 300.273L89.4636 292.648ZM79.0909 289.472C76.7012 289.472 74.37 289.756 72.3003 290.546L75.8673 299.888C76.4018 299.684 77.4087 299.472 79.0909 299.472V289.472ZM72.3472 290.529C70.4462 291.233 68.5806 292.37 67.2292 294.189L75.2566 300.152C75.1362 300.314 75.1646 300.149 75.8204 299.906L72.3472 290.529ZM67.2292 294.189C65.9748 295.877 65.3312 297.835 65.2853 299.9L75.2829 300.122C75.2836 300.09 75.2861 300.075 75.2861 300.075C75.2862 300.075 75.2858 300.078 75.2845 300.082C75.2833 300.087 75.2815 300.094 75.279 300.101C75.2737 300.117 75.2671 300.132 75.2607 300.144C75.2544 300.156 75.2516 300.159 75.2566 300.152L67.2292 294.189ZM65.2914 299.741C65.2022 301.391 65.4909 303.061 66.2736 304.627L75.2179 300.155C75.2313 300.181 75.2433 300.21 75.253 300.239C75.2628 300.268 75.2689 300.292 75.2724 300.311C75.28 300.349 75.2734 300.345 75.2768 300.281L65.2914 299.741ZM66.3679 304.806C67.1935 306.303 68.3692 307.462 69.6379 308.358L75.4047 300.188C75.0635 299.947 75.0555 299.852 75.1236 299.975L66.3679 304.806ZM69.7198 308.414C70.9722 309.261 72.4097 309.928 73.9235 310.471L77.2981 301.058C76.3024 300.701 75.6803 300.373 75.3229 300.131L69.7198 308.414ZM73.9235 310.471C75.4582 311.021 77.1886 311.481 79.0789 311.869L81.0916 302.074C79.5254 301.752 78.2729 301.407 77.2981 301.058L73.9235 310.471ZM79.0376 311.861L85.0035 313.139L87.0988 303.361L81.1329 302.083L79.0376 311.861ZM85.0153 313.142C88.7492 313.932 91.7848 314.943 94.1936 316.118L98.5763 307.129C95.2559 305.51 91.4024 304.272 87.087 303.358L85.0153 313.142ZM94.1936 316.118C96.6397 317.311 98.4734 318.634 99.8138 320.027L107.019 313.092C104.713 310.697 101.859 308.73 98.5763 307.129L94.1936 316.118ZM99.8356 320.05C101.188 321.437 102.131 322.943 102.73 324.589L112.128 321.172C111.022 318.13 109.291 315.423 106.997 313.07L99.8356 320.05ZM102.745 324.631C103.396 326.373 103.759 328.345 103.779 330.594L113.778 330.508C113.75 327.217 113.213 324.076 112.113 321.13L102.745 324.631ZM103.778 330.526C103.759 334.46 102.79 337.456 101.123 339.79L109.26 345.602C112.328 341.308 113.75 336.207 113.778 330.576L103.778 330.526ZM101.123 339.79C99.4042 342.196 96.8601 344.173 93.2088 345.606L96.8622 354.914C102.018 352.891 106.244 349.825 109.26 345.602L101.123 339.79ZM93.2003 345.609C89.5541 347.048 84.9433 347.852 79.233 347.852V357.852C85.8332 357.852 91.7575 356.929 96.8708 354.911L93.2003 345.609ZM79.233 347.852C73.3931 347.852 68.5282 346.987 64.5295 345.4L60.8398 354.694C66.2634 356.847 72.4307 357.852 79.233 357.852V347.852ZM64.5376 345.403C60.7083 343.875 57.8971 341.61 55.8996 338.632L47.5947 344.203C50.8056 348.99 55.2861 352.478 60.8318 354.691L64.5376 345.403ZM55.919 338.662C54.0143 335.778 52.8619 331.811 52.8409 326.412L42.8409 326.451C42.8673 333.221 44.319 339.244 47.5753 344.174L55.919 338.662ZM47.8409 331.432H66.5909V321.432H47.8409V331.432ZM61.598 326.697C61.7526 329.604 62.5002 332.379 64.0797 334.786L72.4402 329.299C72.0311 328.676 71.666 327.71 71.5839 326.166L61.598 326.697ZM64.0797 334.786C65.6527 337.183 67.8429 338.938 70.4589 340.074L74.4417 330.901C73.4592 330.474 72.8558 329.933 72.4402 329.299L64.0797 334.786ZM70.4807 340.083C73.0675 341.192 75.9354 341.659 78.9489 341.659V331.659C76.9434 331.659 75.4789 331.345 74.4199 330.891L70.4807 340.083ZM78.9489 341.659C81.4297 341.659 83.8195 341.358 85.9613 340.572L82.5188 331.183C81.8197 331.44 80.682 331.659 78.9489 331.659V341.659ZM85.9613 340.572C88.0042 339.823 89.9396 338.642 91.3857 336.823L83.5575 330.6C83.5358 330.628 83.3168 330.891 82.5188 331.183L85.9613 340.572ZM91.3857 336.823C92.8042 335.038 93.5615 332.926 93.607 330.651L83.609 330.451C83.6081 330.495 83.6044 330.519 83.6026 330.529C83.6009 330.539 83.5999 330.54 83.601 330.537C83.6021 330.534 83.6021 330.535 83.5983 330.542C83.5942 330.549 83.5826 330.569 83.5575 330.6L91.3857 336.823ZM93.6068 330.445C93.5591 328.2 92.7827 326.111 91.3034 324.385L83.7108 330.893C83.7122 330.895 83.7015 330.882 83.6855 330.856C83.6692 330.828 83.6524 330.795 83.638 330.757C83.6237 330.719 83.6156 330.687 83.6115 330.665C83.6074 330.643 83.6087 330.639 83.6091 330.657L93.6068 330.445ZM91.4009 324.503C89.9765 322.734 87.9837 321.571 86.026 320.753L82.17 329.98C82.7395 330.218 83.1229 330.43 83.3664 330.592C83.6115 330.755 83.6569 330.83 83.6133 330.776L91.4009 324.503ZM86.0841 320.778C84.0821 319.911 81.5919 319.19 78.7415 318.565L76.5994 328.333C79.1468 328.891 80.9416 329.449 82.1119 329.955L86.0841 320.778ZM78.7246 318.561L71.4803 316.999L69.3719 326.774L76.6163 328.336L78.7246 318.561ZM71.486 317C65.612 315.726 61.3938 313.685 58.4927 311.135L51.8908 318.646C56.4234 322.63 62.3614 325.253 69.3662 326.773L71.486 317ZM58.518 311.158C56.0594 308.967 54.6688 305.937 54.6875 301.453L44.6875 301.411C44.6589 308.29 46.9378 314.233 51.8655 318.624L58.518 311.158ZM54.6874 301.406C54.6687 297.752 55.6237 294.767 57.4399 292.242L49.3214 286.403C46.1661 290.791 44.659 295.879 44.6876 301.457L54.6874 301.406ZM57.4363 292.247C59.3595 289.58 62.0786 287.398 65.7935 285.769L61.7776 276.611C56.6383 278.865 52.4208 282.105 49.3251 286.398L57.4363 292.247ZM65.7845 285.773C69.4993 284.153 73.9008 283.278 79.0909 283.278V273.278C72.7753 273.278 66.9733 274.345 61.7865 276.607L65.7845 285.773ZM79.0909 283.278C84.4145 283.278 88.7499 284.17 92.2411 285.771L96.4094 276.681C91.3306 274.352 85.5098 273.278 79.0909 273.278V283.278ZM92.2411 285.771C95.7589 287.384 98.2889 289.561 100.039 292.258L108.427 286.814C105.537 282.36 101.462 278.998 96.4094 276.681L92.2411 285.771ZM100.06 292.29C101.807 294.937 102.765 298.118 102.784 302.025L112.784 301.975C112.756 296.365 111.346 291.236 108.406 286.781L100.06 292.29ZM107.784 297H88.892V307H107.784V297ZM116.573 372.455H111.573V377.455H116.573V372.455ZM116.573 297.455V292.455H111.573V297.455H116.573ZM136.033 297.455H141.033V292.455H136.033V297.455ZM136.033 306.972H131.033V311.972H136.033V306.972ZM136.46 306.972V311.972H139.894L141.126 308.766L136.46 306.972ZM139.585 301.893L143.315 305.222L143.328 305.208L143.34 305.194L139.585 301.893ZM144.698 298.165L146.763 302.718L146.785 302.708L146.807 302.698L144.698 298.165ZM162.063 299.621L159.519 303.925L159.525 303.929L159.532 303.933L162.063 299.621ZM170.018 308.676L165.535 310.892L165.54 310.902L165.546 310.912L170.018 308.676ZM170.16 340.388L165.642 338.245L165.637 338.256L165.632 338.266L170.16 340.388ZM162.347 349.656L159.703 345.413L159.696 345.417L159.689 345.421L162.347 349.656ZM144.805 351.467L142.835 356.063L142.868 356.077L142.901 356.091L144.805 351.467ZM139.691 348.023L136.069 351.47L136.097 351.499L136.126 351.529L139.691 348.023ZM136.46 343.051L141.085 341.153L139.813 338.051H136.46V343.051ZM136.175 343.051V338.051H131.175V343.051H136.175ZM136.175 372.455V377.455H141.175V372.455H136.175ZM136.779 331.616L132.065 333.284L132.078 333.318L132.09 333.353L136.779 331.616ZM139.762 336.091L136.561 339.932L136.6 339.964L136.639 339.995L139.762 336.091ZM148.995 336.126L152.145 340.009L152.153 340.003L148.995 336.126ZM151.907 331.688L147.193 330.02L147.187 330.037L147.181 330.054L151.907 331.688ZM151.907 317.803L147.175 319.418L147.187 319.453L147.2 319.488L151.907 317.803ZM148.995 313.364L145.801 317.211L145.84 317.243L145.88 317.275L148.995 313.364ZM139.762 313.364L142.877 317.275L142.886 317.268L139.762 313.364ZM136.779 317.803L132.084 316.085L132.078 316.101L132.072 316.117L136.779 317.803ZM121.573 372.455V297.455H111.573V372.455H121.573ZM116.573 302.455H136.033V292.455H116.573V302.455ZM131.033 297.455V306.972H141.033V297.455H131.033ZM136.033 311.972H136.46V301.972H136.033V311.972ZM141.126 308.766C141.611 307.507 142.327 306.33 143.315 305.222L135.854 298.565C134.096 300.535 132.729 302.743 131.793 305.177L141.126 308.766ZM143.34 305.194C144.211 304.203 145.324 303.371 146.763 302.718L142.633 293.611C140 294.805 137.704 296.458 135.829 298.593L143.34 305.194ZM146.807 302.698C148.062 302.114 149.685 301.744 151.8 301.744V291.744C148.518 291.744 145.406 292.321 142.59 293.631L146.807 302.698ZM151.8 301.744C154.461 301.744 157.008 302.44 159.519 303.925L164.608 295.317C160.632 292.966 156.337 291.744 151.8 291.744V301.744ZM159.532 303.933C161.794 305.26 163.839 307.458 165.535 310.892L174.5 306.461C172.125 301.655 168.867 297.816 164.594 295.309L159.532 303.933ZM165.546 310.912C167.142 314.105 168.107 318.612 168.107 324.727H178.107C178.107 317.68 177.013 311.486 174.49 306.44L165.546 310.912ZM168.107 324.727C168.107 330.544 167.194 334.973 165.642 338.245L174.677 342.53C177.055 337.516 178.107 331.505 178.107 324.727H168.107ZM165.632 338.266C164.022 341.702 162.007 343.977 159.703 345.413L164.992 353.9C169.222 351.263 172.415 347.359 174.687 342.509L165.632 338.266ZM159.689 345.421C157.254 346.95 154.614 347.71 151.658 347.71V357.71C156.468 357.71 160.954 356.434 165.006 353.891L159.689 345.421ZM151.658 347.71C149.642 347.71 148.021 347.384 146.708 346.844L142.901 356.091C145.613 357.207 148.561 357.71 151.658 357.71V347.71ZM146.774 346.872C145.342 346.258 144.19 345.466 143.256 344.517L136.126 351.529C138.033 353.467 140.29 354.972 142.835 356.063L146.774 346.872ZM143.313 344.576C142.338 343.551 141.604 342.417 141.085 341.153L131.834 344.949C132.83 347.379 134.251 349.559 136.069 351.47L143.313 344.576ZM136.46 338.051H136.175V348.051H136.46V338.051ZM131.175 343.051V372.455H141.175V343.051H131.175ZM136.175 367.455H116.573V377.455H136.175V367.455ZM130.749 324.727C130.749 327.792 131.144 330.678 132.065 333.284L141.493 329.949C141.041 328.672 140.749 326.966 140.749 324.727H130.749ZM132.09 333.353C133.035 335.904 134.474 338.193 136.561 339.932L142.963 332.25C142.494 331.859 141.944 331.164 141.468 329.88L132.09 333.353ZM136.639 339.995C138.899 341.804 141.575 342.653 144.414 342.653V332.653C143.654 332.653 143.229 332.461 142.886 332.187L136.639 339.995ZM144.414 342.653C147.222 342.653 149.898 341.833 152.145 340.009L145.845 332.244C145.583 332.456 145.205 332.653 144.414 332.653V342.653ZM152.153 340.003C154.302 338.252 155.736 335.915 156.633 333.321L147.181 330.054C146.752 331.295 146.245 331.918 145.837 332.25L152.153 340.003ZM156.621 333.355C157.545 330.741 157.937 327.828 157.937 324.727H147.937C147.937 327.025 147.642 328.752 147.193 330.02L156.621 333.355ZM157.937 324.727C157.937 321.63 157.546 318.719 156.614 316.117L147.2 319.488C147.641 320.721 147.937 322.427 147.937 324.727H157.937ZM156.639 316.187C155.746 313.571 154.305 311.2 152.11 309.452L145.88 317.275C146.242 317.563 146.743 318.151 147.175 319.418L156.639 316.187ZM152.189 309.517C149.942 307.652 147.251 306.801 144.414 306.801V316.801C145.176 316.801 145.538 316.992 145.801 317.211L152.189 309.517ZM144.414 306.801C141.575 306.801 138.899 307.651 136.639 309.459L142.886 317.268C143.229 316.993 143.654 316.801 144.414 316.801V306.801ZM136.647 309.452C134.483 311.176 133.027 313.507 132.084 316.085L141.475 319.52C141.952 318.216 142.484 317.588 142.877 317.275L136.647 309.452ZM132.072 316.117C131.14 318.719 130.749 321.63 130.749 324.727H140.749C140.749 322.427 141.045 320.721 141.487 319.488L132.072 316.117ZM216.689 328.136H211.689V328.169L211.689 328.202L216.689 328.136ZM216.689 297.455V292.455H211.689V297.455H216.689ZM236.291 297.455H241.291V292.455H236.291V297.455ZM236.291 352V357H241.291V352H236.291ZM217.683 352H212.683V357H217.683V352ZM217.683 341.631H222.683V336.631H217.683V341.631ZM217.115 341.631V336.631H213.534L212.381 340.021L217.115 341.631ZM210.9 349.798L213.643 353.979L213.654 353.971L213.666 353.964L210.9 349.798ZM190.339 350.082L187.715 354.338L187.723 354.343L187.73 354.348L190.339 350.082ZM183.699 342.838L179.24 345.102L179.247 345.115L179.254 345.129L183.699 342.838ZM181.319 332.256H176.319V332.271L176.319 332.285L181.319 332.256ZM181.319 297.455V292.455H176.319V297.455H181.319ZM200.922 297.455H205.922V292.455H200.922V297.455ZM200.922 328.136H195.922V328.158L195.922 328.18L200.922 328.136ZM202.981 334.493L199.222 337.79L199.236 337.806L199.25 337.822L202.981 334.493ZM212.96 335.771L215.468 340.096L215.482 340.089L215.495 340.081L212.96 335.771ZM215.73 332.788L211.274 330.52L211.266 330.536L211.258 330.552L215.73 332.788ZM221.689 328.136V297.455H211.689V328.136H221.689ZM216.689 302.455H236.291V292.455H216.689V302.455ZM231.291 297.455V352H241.291V297.455H231.291ZM236.291 347H217.683V357H236.291V347ZM222.683 352V341.631H212.683V352H222.683ZM217.683 336.631H217.115V346.631H217.683V336.631ZM212.381 340.021C211.54 342.494 210.14 344.301 208.134 345.633L213.666 353.964C217.579 351.365 220.322 347.727 221.848 343.241L212.381 340.021ZM208.158 345.618C206.131 346.947 203.601 347.71 200.353 347.71V357.71C205.249 357.71 209.751 356.532 213.643 353.979L208.158 345.618ZM200.353 347.71C197.335 347.71 194.925 347.026 192.948 345.817L187.73 354.348C191.482 356.642 195.748 357.71 200.353 357.71V347.71ZM192.964 345.827C190.927 344.57 189.329 342.848 188.143 340.547L179.254 345.129C181.241 348.983 184.07 352.091 187.715 354.338L192.964 345.827ZM188.157 340.575C186.996 338.288 186.339 335.545 186.319 332.226L176.319 332.285C176.347 336.921 177.276 341.233 179.24 345.102L188.157 340.575ZM186.319 332.256V297.455H176.319V332.256H186.319ZM181.319 302.455H200.922V292.455H181.319V302.455ZM195.922 297.455V328.136H205.922V297.455H195.922ZM195.922 328.18C195.952 331.69 196.86 335.096 199.222 337.79L206.74 331.196C206.403 330.812 205.938 329.981 205.921 328.093L195.922 328.18ZM199.25 337.822C201.756 340.63 205.149 341.801 208.734 341.801V331.801C207.395 331.801 206.953 331.434 206.712 331.164L199.25 337.822ZM208.734 341.801C211.077 341.801 213.387 341.304 215.468 340.096L210.451 331.446C210.165 331.612 209.658 331.801 208.734 331.801V341.801ZM215.495 340.081C217.553 338.871 219.14 337.148 220.202 335.024L211.258 330.552C211.041 330.986 210.782 331.252 210.425 331.462L215.495 340.081ZM220.186 335.057C221.292 332.884 221.72 330.496 221.688 328.071L211.689 328.202C211.704 329.376 211.493 330.089 211.274 330.52L220.186 335.057ZM246.261 352H241.261V357H246.261V352ZM246.261 297.455V292.455H241.261V297.455H246.261ZM265.295 297.455H270.295V292.455H265.295V297.455ZM265.295 307.824H260.295V312.824H265.295V307.824ZM265.863 307.824V312.824H269.732L270.703 309.079L265.863 307.824ZM270.586 299.408L267.427 295.532L267.416 295.541L267.406 295.549L270.586 299.408ZM280.742 296.957L279.897 301.885L279.976 301.899L280.054 301.91L280.742 296.957ZM283.192 297.49H288.192V293.781L284.643 292.705L283.192 297.49ZM283.192 314.216L281.577 318.948L288.192 321.207V314.216H283.192ZM279.606 313.47L280.185 308.504L280.185 308.504L279.606 313.47ZM270.763 314.536L273.215 318.893L273.226 318.887L273.237 318.881L270.763 314.536ZM267.177 318.158L271.522 320.631L271.53 320.617L271.538 320.603L267.177 318.158ZM265.863 352V357H270.863V352H265.863ZM251.261 352V297.455H241.261V352H251.261ZM246.261 302.455H265.295V292.455H246.261V302.455ZM260.295 297.455V307.824H270.295V297.455H260.295ZM265.295 312.824H265.863V302.824H265.295V312.824ZM270.703 309.079C271.54 305.851 272.703 304.142 273.766 303.266L267.406 295.549C264.16 298.225 262.175 302.127 261.023 306.569L270.703 309.079ZM273.745 303.283C274.997 302.263 276.415 301.744 278.221 301.744V291.744C274.203 291.744 270.531 293.001 267.427 295.532L273.745 303.283ZM278.221 301.744C278.794 301.744 279.352 301.792 279.897 301.885L281.587 292.029C280.476 291.839 279.352 291.744 278.221 291.744V301.744ZM280.054 301.91C280.662 301.994 281.224 302.118 281.742 302.275L284.643 292.705C283.599 292.389 282.527 292.157 281.43 292.005L280.054 301.91ZM278.192 297.49V314.216H288.192V297.49H278.192ZM284.808 309.484C283.399 309.003 281.832 308.696 280.185 308.504L279.026 318.436C280.221 318.576 281.045 318.766 281.577 318.948L284.808 309.484ZM280.185 308.504C278.643 308.324 277.22 308.222 275.948 308.222V318.222C276.713 318.222 277.728 318.285 279.026 318.436L280.185 308.504ZM275.948 308.222C273.237 308.222 270.645 308.85 268.29 310.19L273.237 318.881C273.96 318.469 274.824 318.222 275.948 318.222V308.222ZM268.312 310.178C265.972 311.494 264.126 313.375 262.815 315.713L271.538 320.603C271.98 319.816 272.525 319.281 273.215 318.893L268.312 310.178ZM262.832 315.684C261.456 318.1 260.863 320.794 260.863 323.591H270.863C270.863 322.221 271.146 321.293 271.522 320.631L262.832 315.684ZM260.863 323.591V352H270.863V323.591H260.863ZM265.863 347H246.261V357H265.863V347ZM325.415 315.636H330.415V310.636H325.415V315.636ZM325.415 330.409V335.409H330.415V330.409H325.415ZM291.325 330.409H286.325V335.409H291.325V330.409ZM291.325 315.636V310.636H286.325V315.636H291.325ZM320.415 315.636V330.409H330.415V315.636H320.415ZM325.415 325.409H291.325V335.409H325.415V325.409ZM296.325 330.409V315.636H286.325V330.409H296.325ZM291.325 320.636H325.415V310.636H291.325V320.636ZM402.528 336.126L406.875 338.597L406.88 338.589L402.528 336.126ZM389.78 348.733L392.125 353.149L392.132 353.145L392.14 353.141L389.78 348.733ZM353.913 348.697L351.53 353.093L351.542 353.099L351.553 353.105L353.913 348.697ZM341.2 336.055L336.841 338.504L336.847 338.515L336.853 338.526L341.2 336.055ZM341.2 295.182L336.849 292.719L336.845 292.725L341.2 295.182ZM353.913 282.575L356.266 286.987L356.273 286.983L353.913 282.575ZM389.78 282.575L387.42 286.983L387.427 286.987L387.435 286.991L389.78 282.575ZM402.528 295.182L398.177 297.645L398.181 297.653L402.528 295.182ZM385.199 304.628L380.522 306.396L380.53 306.418L380.539 306.44L385.199 304.628ZM380.121 297.81L377.248 301.902L377.272 301.919L377.297 301.936L380.121 297.81ZM363.608 297.81L366.452 301.922L366.461 301.916L363.608 297.81ZM358.53 304.628L353.865 302.828L353.861 302.838L353.857 302.848L358.53 304.628ZM358.53 326.68L353.853 328.448L353.861 328.47L353.87 328.493L358.53 326.68ZM363.608 333.499L360.735 337.591L360.76 337.608L360.785 337.625L363.608 333.499ZM380.121 333.499L382.965 337.611L382.974 337.605L380.121 333.499ZM385.199 326.68L380.534 324.881L380.53 324.89L380.526 324.9L385.199 326.68ZM402.251 315.636C402.251 323.096 400.802 329.026 398.177 333.664L406.88 338.589C410.553 332.1 412.251 324.37 412.251 315.636H402.251ZM398.181 333.656C395.475 338.418 391.896 341.929 387.42 344.325L392.14 353.141C398.365 349.808 403.285 344.914 406.875 338.597L398.181 333.656ZM387.435 344.317C382.868 346.742 377.718 347.994 371.882 347.994V357.994C379.209 357.994 385.991 356.406 392.125 353.149L387.435 344.317ZM371.882 347.994C365.999 347.994 360.832 346.73 356.273 344.289L351.553 353.105C357.695 356.394 364.508 357.994 371.882 357.994V347.994ZM356.297 344.302C351.835 341.883 348.259 338.356 345.547 333.585L336.853 338.526C340.439 344.834 345.338 349.736 351.53 353.093L356.297 344.302ZM345.56 333.607C342.951 328.962 341.513 323.048 341.513 315.636H331.513C331.513 324.323 333.2 332.022 336.841 338.504L345.56 333.607ZM341.513 315.636C341.513 308.17 342.953 302.251 345.555 297.638L336.845 292.725C333.197 299.193 331.513 306.909 331.513 315.636H341.513ZM345.552 297.645C348.262 292.856 351.828 289.354 356.266 286.987L351.56 278.164C345.346 281.478 340.436 286.38 336.849 292.719L345.552 297.645ZM356.273 286.983C360.832 284.542 365.999 283.278 371.882 283.278V273.278C364.508 273.278 357.695 274.879 351.553 278.167L356.273 286.983ZM371.882 283.278C377.711 283.278 382.856 284.54 387.42 286.983L392.14 278.167C386.003 274.882 379.216 273.278 371.882 273.278V283.278ZM387.435 286.991C391.897 289.36 395.47 292.862 398.177 297.645L406.88 292.719C403.289 286.375 398.364 281.472 392.125 278.159L387.435 286.991ZM398.181 297.653C400.801 302.262 402.251 308.176 402.251 315.636H412.251C412.251 306.904 410.553 299.182 406.875 292.711L398.181 297.653ZM391.939 315.636C391.939 310.87 391.309 306.544 389.859 302.816L380.539 306.44C381.409 308.678 381.939 311.691 381.939 315.636H391.939ZM389.876 302.86C388.444 299.072 386.181 295.898 382.944 293.683L377.297 301.936C378.558 302.799 379.681 304.17 380.522 306.396L389.876 302.86ZM382.994 293.718C379.769 291.453 375.966 290.466 371.882 290.466V300.466C374.332 300.466 376.022 301.041 377.248 301.902L382.994 293.718ZM371.882 290.466C367.796 290.466 363.993 291.454 360.755 293.703L366.461 301.916C367.721 301.04 369.434 300.466 371.882 300.466V290.466ZM360.764 293.697C357.566 295.909 355.316 299.068 353.865 302.828L363.195 306.428C364.064 304.175 365.199 302.788 366.452 301.922L360.764 293.697ZM353.857 302.848C352.441 306.565 351.825 310.879 351.825 315.636H361.825C361.825 311.682 362.346 308.656 363.202 306.408L353.857 302.848ZM351.825 315.636C351.825 320.396 352.442 324.715 353.853 328.448L363.207 324.913C362.345 322.632 361.825 319.589 361.825 315.636H351.825ZM353.87 328.493C355.323 332.229 357.567 335.367 360.735 337.591L366.481 329.407C365.198 328.505 364.057 327.098 363.19 324.868L353.87 328.493ZM360.785 337.625C364.019 339.838 367.811 340.807 371.882 340.807V330.807C369.419 330.807 367.695 330.237 366.431 329.372L360.785 337.625ZM371.882 340.807C375.951 340.807 379.743 339.839 382.965 337.611L377.277 329.386C376.048 330.236 374.347 330.807 371.882 330.807V340.807ZM382.974 337.605C386.18 335.377 388.437 332.224 389.871 328.46L380.526 324.9C379.688 327.102 378.56 328.495 377.268 329.392L382.974 337.605ZM389.864 328.48C391.308 324.736 391.939 320.405 391.939 315.636H381.939C381.939 319.58 381.41 322.611 380.534 324.881L389.864 328.48ZM449.341 297.455H454.341V292.455H449.341V297.455ZM449.341 311.659V316.659H454.341V311.659H449.341ZM412.836 311.659H407.836V316.659H412.836V311.659ZM412.836 297.455V292.455H407.836V297.455H412.836ZM419.796 352H414.796V357H419.796V352ZM422.211 284.706L417.818 282.317L417.818 282.317L422.211 284.706ZM429.029 278.065L426.793 273.593L426.793 273.593L429.029 278.065ZM446.642 276.432L445.845 281.368L445.852 281.369L446.642 276.432ZM451.898 277.426L456.799 278.416L457.745 273.734L453.111 272.575L451.898 277.426ZM449.057 291.489L447.62 296.278L452.872 297.853L453.958 292.479L449.057 291.489ZM446.571 290.991L445.83 295.936L445.89 295.945L445.951 295.953L446.571 290.991ZM439.398 352V357H444.398V352H439.398ZM444.341 297.455V311.659H454.341V297.455H444.341ZM449.341 306.659H412.836V316.659H449.341V306.659ZM417.836 311.659V297.455H407.836V311.659H417.836ZM412.836 302.455H449.341V292.455H412.836V302.455ZM424.796 352V295.892H414.796V352H424.796ZM424.796 295.892C424.796 291.96 425.503 289.117 426.603 287.095L417.818 282.317C415.698 286.214 414.796 290.828 414.796 295.892H424.796ZM426.603 287.095C427.738 285.009 429.269 283.535 431.265 282.537L426.793 273.593C422.917 275.531 419.903 278.484 417.818 282.317L426.603 287.095ZM431.265 282.537C433.374 281.483 436.035 280.864 439.398 280.864V270.864C434.807 270.864 430.554 271.712 426.793 273.593L431.265 282.537ZM439.398 280.864C441.629 280.864 443.777 281.034 445.845 281.368L447.44 271.496C444.821 271.073 442.139 270.864 439.398 270.864V280.864ZM445.852 281.369C448.192 281.743 449.768 282.048 450.685 282.277L453.111 272.575C451.755 272.237 449.827 271.878 447.432 271.495L445.852 281.369ZM446.997 276.436L444.156 290.499L453.958 292.479L456.799 278.416L446.997 276.436ZM450.494 286.7C449.454 286.387 448.341 286.174 447.192 286.03L445.951 295.953C446.696 296.046 447.24 296.164 447.62 296.278L450.494 286.7ZM447.313 286.047C446.199 285.88 445.113 285.778 444.086 285.778V295.778C444.479 295.778 445.05 295.819 445.83 295.936L447.313 286.047ZM444.086 285.778C441.902 285.778 438.625 286.171 436.487 288.784L444.227 295.116C443.773 295.671 443.308 295.829 443.268 295.841C443.245 295.848 443.295 295.831 443.441 295.812C443.585 295.794 443.796 295.778 444.086 295.778V285.778ZM436.487 288.784C434.94 290.675 434.398 292.921 434.398 295.04H444.398C444.398 294.813 444.427 294.746 444.413 294.791C444.406 294.814 444.389 294.861 444.356 294.922C444.323 294.985 444.28 295.051 444.227 295.116L436.487 288.784ZM434.398 295.04V352H444.398V295.04H434.398ZM439.398 347H419.796V357H439.398V347ZM491.333 315.636H496.333V310.636H491.333V315.636ZM491.333 330.409V335.409H496.333V330.409H491.333ZM457.243 330.409H452.243V335.409H457.243V330.409ZM457.243 315.636V310.636H452.243V315.636H457.243ZM486.333 315.636V330.409H496.333V315.636H486.333ZM491.333 325.409H457.243V335.409H491.333V325.409ZM462.243 330.409V315.636H452.243V330.409H462.243ZM457.243 320.636H491.333V310.636H457.243V320.636ZM500.726 295.182H495.726V300.182H500.726V295.182ZM500.726 279.273V274.273H495.726V279.273H500.726ZM563.936 279.273H568.936V274.273H563.936V279.273ZM563.936 295.182V300.182H568.936V295.182H563.936ZM542.061 295.182V290.182H537.061V295.182H542.061ZM542.061 352V357H547.061V352H542.061ZM522.601 352H517.601V357H522.601V352ZM522.601 295.182H527.601V290.182H522.601V295.182ZM505.726 295.182V279.273H495.726V295.182H505.726ZM500.726 284.273H563.936V274.273H500.726V284.273ZM558.936 279.273V295.182H568.936V279.273H558.936ZM563.936 290.182H542.061V300.182H563.936V290.182ZM537.061 295.182V352H547.061V295.182H537.061ZM542.061 347H522.601V357H542.061V347ZM527.601 352V295.182H517.601V352H527.601ZM522.601 290.182H500.726V300.182H522.601V290.182ZM591.254 321.318L586.254 321.252L586.254 321.285V321.318H591.254ZM591.254 352V357H596.254V352H591.254ZM571.651 352H566.651V357H571.651V352ZM571.651 279.273V274.273H566.651V279.273H571.651ZM590.543 279.273H595.543V274.273H590.543V279.273ZM590.543 307.824H585.543V312.824H590.543V307.824ZM591.112 307.824V312.824H594.646L595.825 309.491L591.112 307.824ZM597.255 299.692L600.06 303.831L600.072 303.823L600.083 303.815L597.255 299.692ZM617.638 299.372L615.014 303.628L615.022 303.633L615.03 303.638L617.638 299.372ZM624.279 306.616L619.821 308.88L619.828 308.894L619.835 308.907L624.279 306.616ZM626.623 317.199L621.623 317.169L621.623 317.184V317.199H626.623ZM626.623 352V357H631.623V352H626.623ZM607.021 352H602.021V357H607.021V352ZM607.021 321.318L602.021 321.274L602.021 321.296V321.318H607.021ZM604.996 314.962L601.237 318.258L601.251 318.274L601.266 318.291L604.996 314.962ZM595.018 313.719L597.526 318.044L597.54 318.036L597.553 318.028L595.018 313.719ZM592.248 316.702L587.792 314.433L587.784 314.449L587.776 314.466L592.248 316.702ZM586.254 321.318V352H596.254V321.318H586.254ZM591.254 347H571.651V357H591.254V347ZM576.651 352V279.273H566.651V352H576.651ZM571.651 284.273H590.543V274.273H571.651V284.273ZM585.543 279.273V307.824H595.543V279.273H585.543ZM590.543 312.824H591.112V302.824H590.543V312.824ZM595.825 309.491C596.726 306.946 598.14 305.132 600.06 303.831L594.45 295.553C590.641 298.134 587.96 301.741 586.398 306.156L595.825 309.491ZM600.083 303.815C601.989 302.508 604.409 301.744 607.589 301.744V291.744C602.719 291.744 598.25 292.946 594.427 295.569L600.083 303.815ZM607.589 301.744C610.668 301.744 613.079 302.435 615.014 303.628L620.263 295.116C616.516 292.806 612.227 291.744 607.589 291.744V301.744ZM615.03 303.638C617.081 304.892 618.665 306.604 619.821 308.88L628.737 304.353C626.768 300.474 623.925 297.356 620.247 295.107L615.03 303.638ZM619.835 308.907C621 311.167 621.643 313.878 621.623 317.169L631.623 317.229C631.651 312.565 630.731 308.221 628.724 304.326L619.835 308.907ZM621.623 317.199V352H631.623V317.199H621.623ZM626.623 347H607.021V357H626.623V347ZM612.021 352V321.318H602.021V352H612.021ZM612.02 321.362C612.052 317.814 611.157 314.356 608.727 311.633L601.266 318.291C601.582 318.645 602.037 319.425 602.021 321.274L612.02 321.362ZM608.756 311.665C606.246 308.803 602.804 307.653 599.208 307.653V317.653C600.631 317.653 601.048 318.042 601.237 318.258L608.756 311.665ZM599.208 307.653C596.851 307.653 594.556 308.189 592.483 309.409L597.553 318.028C597.894 317.828 598.393 317.653 599.208 317.653V307.653ZM592.509 309.394C590.434 310.597 588.861 312.333 587.792 314.433L596.704 318.97C596.96 318.466 597.234 318.214 597.526 318.044L592.509 309.394ZM587.776 314.466C586.724 316.57 586.285 318.889 586.254 321.252L596.253 321.384C596.269 320.149 596.494 319.39 596.72 318.938L587.776 314.466ZM647.379 349.656L645.015 354.062L645.03 354.07L645.044 354.078L647.379 349.656ZM637.685 339.997L633.274 342.351L633.281 342.366L633.289 342.381L637.685 339.997ZM637.72 310.097L642.121 312.47L642.121 312.47L637.72 310.097ZM647.344 300.26L649.806 304.612L649.806 304.612L647.344 300.26ZM673.196 298.662L674.984 293.993L674.984 293.993L673.196 298.662ZM681.754 304.237L678.167 307.72L678.175 307.729L678.184 307.738L681.754 304.237ZM687.223 313.044L682.533 314.779L682.533 314.779L687.223 313.044ZM689.141 329.273V334.273H694.141V329.273H689.141ZM640.419 329.273H635.419V334.273H640.419V329.273ZM640.419 318.477V313.477H635.419V318.477H640.419ZM671.101 318.477V323.477H676.177L676.1 318.402L671.101 318.477ZM669.893 314.358L665.658 317.015L665.689 317.064L665.72 317.112L669.893 314.358ZM666.804 311.553L664.438 315.958L664.487 315.983L664.536 316.008L666.804 311.553ZM658.068 311.553L660.304 316.025L660.336 316.009L660.367 315.993L658.068 311.553ZM654.872 314.322L650.738 311.511L650.718 311.539L650.699 311.568L654.872 314.322ZM653.629 318.477L648.631 318.328L648.629 318.403V318.477H653.629ZM654.73 334.812L650.32 337.169L650.32 337.169L654.73 334.812ZM657.891 338.044L655.418 342.39L655.418 342.39L657.891 338.044ZM666.555 338.648L664.974 333.904L664.959 333.909L664.944 333.914L666.555 338.648ZM669.467 337.014L672.775 340.763L672.806 340.736L672.836 340.709L669.467 337.014ZM671.243 334.386V329.386H667.768L666.557 332.643L671.243 334.386ZM689.141 334.386L694.076 335.188L695.019 329.386H689.141V334.386ZM684.773 344.259L688.622 347.45L688.629 347.442L688.635 347.434L684.773 344.259ZM675.646 350.722L677.513 355.36L677.521 355.357L677.528 355.354L675.646 350.722ZM662.436 347.994C657.247 347.994 653.066 347.005 649.714 345.235L645.044 354.078C650.121 356.758 655.977 357.994 662.436 357.994V347.994ZM649.744 345.251C646.415 343.464 643.889 340.948 642.08 337.613L633.289 342.381C636.026 347.427 639.963 351.35 645.015 354.062L649.744 345.251ZM642.096 337.643C640.312 334.301 639.311 330.105 639.311 324.869H629.311C629.311 331.376 630.559 337.265 633.274 342.351L642.096 337.643ZM639.311 324.869C639.311 319.917 640.306 315.836 642.121 312.47L633.319 307.723C630.589 312.785 629.311 318.553 629.311 324.869H639.311ZM642.121 312.47C643.949 309.08 646.487 306.489 649.806 304.612L644.882 295.908C639.914 298.718 636.036 302.685 633.319 307.723L642.121 312.47ZM649.806 304.612C653.07 302.765 657.079 301.744 662.01 301.744V291.744C655.672 291.744 649.903 293.067 644.882 295.908L649.806 304.612ZM662.01 301.744C665.61 301.744 668.721 302.302 671.408 303.331L674.984 293.993C670.995 292.465 666.649 291.744 662.01 291.744V301.744ZM671.408 303.331C674.103 304.363 676.332 305.83 678.167 307.72L685.342 300.754C682.442 297.767 678.965 295.517 674.984 293.993L671.408 303.331ZM678.184 307.738C680.015 309.605 681.477 311.923 682.533 314.779L691.913 311.31C690.412 307.252 688.228 303.699 685.325 300.737L678.184 307.738ZM682.533 314.779C683.574 317.592 684.141 320.885 684.141 324.727H694.141C694.141 319.905 693.429 315.409 691.913 311.31L682.533 314.779ZM684.141 324.727V329.273H694.141V324.727H684.141ZM689.141 324.273H640.419V334.273H689.141V324.273ZM645.419 329.273V318.477H635.419V329.273H645.419ZM640.419 323.477H671.101V313.477H640.419V323.477ZM676.1 318.402C676.064 315.986 675.426 313.663 674.067 311.604L665.72 317.112C665.924 317.42 666.091 317.843 666.101 318.553L676.1 318.402ZM674.129 311.7C672.878 309.707 671.16 308.159 669.072 307.097L664.536 316.008C665.053 316.272 665.394 316.594 665.658 317.015L674.129 311.7ZM669.17 307.148C667.076 306.023 664.79 305.523 662.436 305.523V315.523C663.349 315.523 663.975 315.709 664.438 315.958L669.17 307.148ZM662.436 305.523C660.101 305.523 657.849 306.035 655.769 307.113L660.367 315.993C660.938 315.697 661.599 315.523 662.436 315.523V305.523ZM655.832 307.08C653.77 308.111 652.04 309.595 650.738 311.511L659.007 317.134C659.314 316.683 659.715 316.32 660.304 316.025L655.832 307.08ZM650.699 311.568C649.347 313.616 648.703 315.927 648.631 318.328L658.627 318.626C658.65 317.855 658.835 317.396 659.045 317.077L650.699 311.568ZM648.629 318.477V330.125H658.629V318.477H648.629ZM648.629 330.125C648.629 332.595 649.153 334.984 650.32 337.169L659.14 332.456C658.84 331.894 658.629 331.159 658.629 330.125H648.629ZM650.32 337.169C651.506 339.388 653.237 341.149 655.418 342.39L660.363 333.698C659.798 333.377 659.422 332.983 659.14 332.456L650.32 337.169ZM655.418 342.39C657.699 343.688 660.251 344.216 662.862 344.216V334.216C661.591 334.216 660.828 333.963 660.363 333.698L655.418 342.39ZM662.862 344.216C664.68 344.216 666.465 343.96 668.167 343.381L664.944 333.914C664.421 334.093 663.743 334.216 662.862 334.216V344.216ZM668.137 343.391C669.836 342.825 671.412 341.966 672.775 340.763L666.159 333.265C665.913 333.483 665.548 333.713 664.974 333.904L668.137 343.391ZM672.836 340.709C674.227 339.44 675.272 337.896 675.929 336.13L666.557 332.643C666.456 332.913 666.317 333.12 666.099 333.319L672.836 340.709ZM671.243 339.386H689.141V329.386H671.243V339.386ZM684.205 333.584C683.723 336.556 682.611 339.014 680.91 341.083L688.635 347.434C691.527 343.916 693.328 339.793 694.076 335.188L684.205 333.584ZM680.924 341.067C679.222 343.12 676.893 344.818 673.764 346.089L677.528 355.354C681.975 353.547 685.731 350.937 688.622 347.45L680.924 341.067ZM673.779 346.083C670.733 347.309 666.989 347.994 662.436 347.994V357.994C667.968 357.994 673.031 357.164 677.513 355.36L673.779 346.083ZM732.935 315.636H737.935V310.636H732.935V315.636ZM732.935 330.409V335.409H737.935V330.409H732.935ZM698.844 330.409H693.844V335.409H698.844V330.409ZM698.844 315.636V310.636H693.844V315.636H698.844ZM727.935 315.636V330.409H737.935V315.636H727.935ZM732.935 325.409H698.844V335.409H732.935V325.409ZM703.844 330.409V315.636H693.844V330.409H703.844ZM698.844 320.636H732.935V310.636H698.844V320.636ZM744.316 279.273V274.273H739.316V279.273H744.316ZM768.89 279.273L773.516 277.375L772.243 274.273H768.89V279.273ZM785.794 320.466L781.168 322.364L782.441 325.466H785.794V320.466ZM786.646 320.466V325.466H789.999L791.272 322.364L786.646 320.466ZM803.549 279.273V274.273H800.196L798.924 277.375L803.549 279.273ZM828.123 279.273H833.123V274.273H828.123V279.273ZM828.123 352V357H833.123V352H828.123ZM808.805 352H803.805V357H808.805V352ZM808.805 309.955H813.805V304.955H808.805V309.955ZM808.237 309.955V304.955H804.821L803.579 308.136L808.237 309.955ZM792.044 351.432V356.432H795.459L796.701 353.25L792.044 351.432ZM780.396 351.432L775.734 353.239L776.972 356.432H780.396V351.432ZM764.203 309.67L768.865 307.863L767.627 304.67H764.203V309.67ZM763.635 309.67V304.67H758.635V309.67H763.635ZM763.635 352V357H768.635V352H763.635ZM744.316 352H739.316V357H744.316V352ZM744.316 284.273H768.89V274.273H744.316V284.273ZM764.265 281.171L781.168 322.364L790.419 318.568L773.516 277.375L764.265 281.171ZM785.794 325.466H786.646V315.466H785.794V325.466ZM791.272 322.364L808.175 281.171L798.924 277.375L782.02 318.568L791.272 322.364ZM803.549 284.273H828.123V274.273H803.549V284.273ZM823.123 279.273V352H833.123V279.273H823.123ZM828.123 347H808.805V357H828.123V347ZM813.805 352V309.955H803.805V352H813.805ZM808.805 304.955H808.237V314.955H808.805V304.955ZM803.579 308.136L787.386 349.613L796.701 353.25L812.894 311.773L803.579 308.136ZM792.044 346.432H780.396V356.432H792.044V346.432ZM785.058 349.624L768.865 307.863L759.541 311.478L775.734 353.239L785.058 349.624ZM764.203 304.67H763.635V314.67H764.203V304.67ZM758.635 309.67V352H768.635V309.67H758.635ZM763.635 347H744.316V357H763.635V347ZM749.316 352V279.273H739.316V352H749.316ZM848.844 349.479L846.395 353.838L846.404 353.843L846.414 353.848L848.844 349.479ZM839.15 339.607L834.733 341.951L834.738 341.961L839.15 339.607ZM839.15 310.168L843.561 312.522L843.566 312.512L839.15 310.168ZM848.844 300.295L851.274 304.665L851.284 304.66L851.293 304.655L848.844 300.295ZM879.242 300.295L876.793 304.655L876.802 304.66L876.812 304.665L879.242 300.295ZM888.936 310.168L884.52 312.512L884.525 312.522L888.936 310.168ZM888.936 339.607L893.348 341.961L893.353 341.951L888.936 339.607ZM879.242 349.479L881.672 353.848L881.681 353.843L881.691 353.838L879.242 349.479ZM868.482 336.837L871.87 340.513L871.87 340.513L868.482 336.837ZM871.287 332.078L876.047 333.61L876.047 333.61L871.287 332.078ZM871.287 317.376L866.528 318.908L866.53 318.916L866.533 318.924L871.287 317.376ZM868.482 312.618L871.87 308.941L871.87 308.941L868.482 312.618ZM856.799 317.376L861.553 318.924L861.556 318.916L861.558 318.908L856.799 317.376ZM856.799 332.078L861.558 330.546L861.558 330.546L856.799 332.078ZM859.675 336.837L856.358 340.578L859.675 336.837ZM864.043 347.994C858.783 347.994 854.594 346.955 851.274 345.109L846.414 353.848C851.522 356.69 857.466 357.994 864.043 357.994V347.994ZM851.293 345.12C847.901 343.214 845.355 340.614 843.561 337.252L834.738 341.961C837.442 347.027 841.36 351.009 846.395 353.838L851.293 345.12ZM843.566 337.263C841.759 333.857 840.776 329.774 840.776 324.869H830.776C830.776 331.139 832.042 336.88 834.733 341.951L843.566 337.263ZM840.776 324.869C840.776 319.964 841.759 315.897 843.561 312.522L834.738 307.813C832.042 312.866 830.776 318.601 830.776 324.869H840.776ZM843.566 312.512C845.36 309.131 847.9 306.542 851.274 304.665L846.414 295.926C841.361 298.736 837.437 302.729 834.733 307.824L843.566 312.512ZM851.293 304.655C854.609 302.792 858.791 301.744 864.043 301.744V291.744C857.458 291.744 851.508 293.064 846.395 295.936L851.293 304.655ZM864.043 301.744C869.295 301.744 873.477 302.792 876.793 304.655L881.691 295.936C876.578 293.064 870.628 291.744 864.043 291.744V301.744ZM876.812 304.665C880.186 306.542 882.726 309.131 884.52 312.512L893.353 307.824C890.649 302.729 886.725 298.736 881.672 295.926L876.812 304.665ZM884.525 312.522C886.327 315.897 887.31 319.964 887.31 324.869H897.31C897.31 318.601 896.044 312.866 893.348 307.813L884.525 312.522ZM887.31 324.869C887.31 329.774 886.327 333.857 884.52 337.263L893.353 341.951C896.044 336.88 897.31 331.139 897.31 324.869H887.31ZM884.525 337.252C882.731 340.614 880.185 343.214 876.793 345.12L881.691 353.838C886.726 351.009 890.644 347.027 893.348 341.961L884.525 337.252ZM876.812 345.109C873.492 346.955 869.303 347.994 864.043 347.994V357.994C870.62 357.994 876.564 356.69 881.672 353.848L876.812 345.109ZM864.185 343.506C867.085 343.506 869.73 342.486 871.87 340.513L865.093 333.16C864.819 333.413 864.6 333.506 864.185 333.506V343.506ZM871.87 340.513C873.882 338.659 875.201 336.238 876.047 333.61L866.528 330.546C866.048 332.038 865.496 332.789 865.093 333.16L871.87 340.513ZM876.047 333.61C876.91 330.928 877.282 327.935 877.282 324.727H867.282C867.282 327.201 866.99 329.109 866.528 330.546L876.047 333.61ZM877.282 324.727C877.282 321.503 876.912 318.501 876.042 315.828L866.533 318.924C866.989 320.324 867.282 322.222 867.282 324.727H877.282ZM876.047 315.845C875.201 313.217 873.882 310.795 871.87 308.941L865.093 316.295C865.496 316.666 866.048 317.417 866.528 318.908L876.047 315.845ZM871.87 308.941C869.73 306.969 867.085 305.949 864.185 305.949V315.949C864.6 315.949 864.819 316.042 865.093 316.295L871.87 308.941ZM864.185 305.949C861.27 305.949 858.571 306.914 856.358 308.877L862.993 316.359C863.289 316.096 863.596 315.949 864.185 315.949V305.949ZM856.358 308.877C854.265 310.732 852.898 313.175 852.039 315.845L861.558 318.908C862.025 317.458 862.575 316.729 862.993 316.359L856.358 308.877ZM852.044 315.828C851.174 318.501 850.804 321.503 850.804 324.727H860.804C860.804 322.222 861.097 320.324 861.553 318.924L852.044 315.828ZM850.804 324.727C850.804 327.935 851.176 330.928 852.039 333.61L861.558 330.546C861.096 329.109 860.804 327.201 860.804 324.727H850.804ZM852.039 333.61C852.898 336.279 854.265 338.722 856.358 340.578L862.993 333.096C862.575 332.726 862.025 331.996 861.558 330.546L852.039 333.61ZM856.358 340.578C858.571 342.54 861.27 343.506 864.185 343.506V333.506C863.596 333.506 863.289 333.358 862.993 333.096L856.358 340.578ZM900.265 352H895.265V357H900.265V352ZM900.265 297.455V292.455H895.265V297.455H900.265ZM918.873 297.455H923.873V292.455H918.873V297.455ZM918.873 307.824H913.873V312.824H918.873V307.824ZM919.441 307.824V312.824H923.044L924.184 309.405L919.441 307.824ZM925.265 299.727L922.332 295.678L922.332 295.678L925.265 299.727ZM944.973 299.798L942.012 303.827L942.023 303.835L942.035 303.843L944.973 299.798ZM949.98 307.824L945.051 308.663L945.76 312.824H949.98V307.824ZM950.549 307.824V312.824H954.353L955.368 309.157L950.549 307.824ZM956.444 299.798L959.225 303.954L959.236 303.946L959.247 303.938L956.444 299.798ZM979.739 301.787L976.141 305.259L976.147 305.265L976.153 305.272L979.739 301.787ZM984.64 352V357H989.64V352H984.64ZM965.037 352H960.037V357H965.037V352ZM963.226 314.571L959.471 317.873L959.486 317.889L959.5 317.905L963.226 314.571ZM953.567 314.571L949.78 311.306L949.776 311.312L953.567 314.571ZM951.827 352V357H956.827V352H951.827ZM933.077 352H928.077V357H933.077V352ZM931.266 314.571L927.511 317.873L927.525 317.889L927.54 317.905L931.266 314.571ZM922.921 313.435L925.599 317.657L925.599 317.657L922.921 313.435ZM920.648 316.098L916.122 313.973L916.112 313.994L916.103 314.015L920.648 316.098ZM919.867 352V357H924.867V352H919.867ZM905.265 352V297.455H895.265V352H905.265ZM900.265 302.455H918.873V292.455H900.265V302.455ZM913.873 297.455V307.824H923.873V297.455H913.873ZM918.873 312.824H919.441V302.824H918.873V312.824ZM924.184 309.405C925.011 306.925 926.35 305.115 928.197 303.777L922.332 295.678C918.687 298.317 916.143 301.905 914.697 306.243L924.184 309.405ZM928.197 303.777C929.991 302.478 932.202 301.744 935.066 301.744V291.744C930.354 291.744 926.03 293 922.332 295.678L928.197 303.777ZM935.066 301.744C937.965 301.744 940.199 302.494 942.012 303.827L947.935 295.77C944.208 293.03 939.837 291.744 935.066 291.744V301.744ZM942.035 303.843C943.761 305.098 944.705 306.628 945.051 308.663L954.91 306.985C954.12 302.343 951.726 298.524 947.912 295.753L942.035 303.843ZM949.98 312.824H950.549V302.824H949.98V312.824ZM955.368 309.157C955.956 307.028 957.165 305.332 959.225 303.954L953.662 295.643C949.709 298.289 946.987 301.943 945.73 306.491L955.368 309.157ZM959.247 303.938C961.333 302.526 963.858 301.744 967.026 301.744V291.744C962.098 291.744 957.568 292.998 953.64 295.658L959.247 303.938ZM967.026 301.744C971.08 301.744 973.957 302.995 976.141 305.259L983.337 298.315C979.034 293.855 973.436 291.744 967.026 291.744V301.744ZM976.153 305.272C978.343 307.525 979.64 310.658 979.64 315.21H989.64C989.64 308.588 987.669 302.772 983.325 298.302L976.153 305.272ZM979.64 315.21V352H989.64V315.21H979.64ZM984.64 347H965.037V357H984.64V347ZM970.037 352V320.182H960.037V352H970.037ZM970.037 320.182C970.037 316.963 969.214 313.764 966.952 311.237L959.5 317.905C959.654 318.077 960.037 318.619 960.037 320.182H970.037ZM966.981 311.269C964.71 308.687 961.652 307.511 958.361 307.511V317.511C959.142 317.511 959.327 317.709 959.471 317.873L966.981 311.269ZM958.361 307.511C955.074 307.511 952.025 308.702 949.78 311.306L957.354 317.836C957.477 317.694 957.624 317.511 958.361 317.511V307.511ZM949.776 311.312C947.603 313.839 946.827 317.009 946.827 320.182H956.827C956.827 318.572 957.212 318.002 957.359 317.83L949.776 311.312ZM946.827 320.182V352H956.827V320.182H946.827ZM951.827 347H933.077V357H951.827V347ZM938.077 352V320.182H928.077V352H938.077ZM938.077 320.182C938.077 316.963 937.253 313.764 934.992 311.237L927.54 317.905C927.693 318.077 928.077 318.619 928.077 320.182H938.077ZM935.021 311.269C932.75 308.687 929.692 307.511 926.401 307.511V317.511C927.182 317.511 927.367 317.709 927.511 317.873L935.021 311.269ZM926.401 307.511C924.271 307.511 922.145 308.006 920.243 309.212L925.599 317.657C925.638 317.632 925.832 317.511 926.401 317.511V307.511ZM920.243 309.212C918.379 310.394 917.023 312.055 916.122 313.973L925.174 318.223C925.363 317.821 925.521 317.706 925.599 317.657L920.243 309.212ZM916.103 314.015C915.213 315.956 914.867 318.064 914.867 320.182H924.867C924.867 319.128 925.041 318.513 925.193 318.181L916.103 314.015ZM914.867 320.182V352H924.867V320.182H914.867ZM919.867 347H900.265V357H919.867V347ZM1005.39 349.656L1003.02 354.062L1003.04 354.07L1003.05 354.078L1005.39 349.656ZM995.692 339.997L991.281 342.351L991.289 342.366L991.297 342.381L995.692 339.997ZM995.728 310.097L1000.13 312.47L1000.13 312.47L995.728 310.097ZM1005.35 300.26L1007.81 304.612L1007.81 304.612L1005.35 300.26ZM1031.2 298.662L1032.99 293.993L1032.99 293.993L1031.2 298.662ZM1039.76 304.237L1036.17 307.72L1036.18 307.729L1036.19 307.738L1039.76 304.237ZM1045.23 313.044L1040.54 314.779L1040.54 314.779L1045.23 313.044ZM1047.15 329.273V334.273H1052.15V329.273H1047.15ZM998.427 329.273H993.427V334.273H998.427V329.273ZM998.427 318.477V313.477H993.427V318.477H998.427ZM1029.11 318.477V323.477H1034.18L1034.11 318.402L1029.11 318.477ZM1027.9 314.358L1023.67 317.015L1023.7 317.064L1023.73 317.112L1027.9 314.358ZM1024.81 311.553L1022.45 315.958L1022.49 315.983L1022.54 316.008L1024.81 311.553ZM1016.08 311.553L1018.31 316.025L1018.34 316.009L1018.38 315.993L1016.08 311.553ZM1012.88 314.322L1008.75 311.511L1008.73 311.539L1008.71 311.568L1012.88 314.322ZM1011.64 318.477L1006.64 318.328L1006.64 318.403V318.477H1011.64ZM1012.74 334.812L1008.33 337.169L1008.33 337.169L1012.74 334.812ZM1015.9 338.044L1013.43 342.39L1013.43 342.39L1015.9 338.044ZM1024.56 338.648L1022.98 333.904L1022.97 333.909L1022.95 333.914L1024.56 338.648ZM1027.48 337.014L1030.78 340.763L1030.81 340.736L1030.84 340.709L1027.48 337.014ZM1029.25 334.386V329.386H1025.78L1024.56 332.643L1029.25 334.386ZM1047.15 334.386L1052.08 335.188L1053.03 329.386H1047.15V334.386ZM1042.78 344.259L1046.63 347.45L1046.64 347.442L1046.64 347.434L1042.78 344.259ZM1033.65 350.722L1035.52 355.36L1035.53 355.357L1035.54 355.354L1033.65 350.722ZM1020.44 347.994C1015.26 347.994 1011.07 347.005 1007.72 345.235L1003.05 354.078C1008.13 356.758 1013.98 357.994 1020.44 357.994V347.994ZM1007.75 345.251C1004.42 343.464 1001.9 340.948 1000.09 337.613L991.297 342.381C994.034 347.427 997.97 351.35 1003.02 354.062L1007.75 345.251ZM1000.1 337.643C998.32 334.301 997.319 330.105 997.319 324.869H987.319C987.319 331.376 988.567 337.265 991.281 342.351L1000.1 337.643ZM997.319 324.869C997.319 319.917 998.314 315.836 1000.13 312.47L991.327 307.723C988.597 312.785 987.319 318.553 987.319 324.869H997.319ZM1000.13 312.47C1001.96 309.08 1004.5 306.489 1007.81 304.612L1002.89 295.908C997.922 298.718 994.044 302.685 991.327 307.723L1000.13 312.47ZM1007.81 304.612C1011.08 302.765 1015.09 301.744 1020.02 301.744V291.744C1013.68 291.744 1007.91 293.067 1002.89 295.908L1007.81 304.612ZM1020.02 301.744C1023.62 301.744 1026.73 302.302 1029.42 303.331L1032.99 293.993C1029 292.465 1024.66 291.744 1020.02 291.744V301.744ZM1029.42 303.331C1032.11 304.363 1034.34 305.83 1036.17 307.72L1043.35 300.754C1040.45 297.767 1036.97 295.517 1032.99 293.993L1029.42 303.331ZM1036.19 307.738C1038.02 309.605 1039.49 311.923 1040.54 314.779L1049.92 311.31C1048.42 307.252 1046.24 303.699 1043.33 300.737L1036.19 307.738ZM1040.54 314.779C1041.58 317.592 1042.15 320.885 1042.15 324.727H1052.15C1052.15 319.905 1051.44 315.409 1049.92 311.31L1040.54 314.779ZM1042.15 324.727V329.273H1052.15V324.727H1042.15ZM1047.15 324.273H998.427V334.273H1047.15V324.273ZM1003.43 329.273V318.477H993.427V329.273H1003.43ZM998.427 323.477H1029.11V313.477H998.427V323.477ZM1034.11 318.402C1034.07 315.986 1033.43 313.663 1032.07 311.604L1023.73 317.112C1023.93 317.42 1024.1 317.843 1024.11 318.553L1034.11 318.402ZM1032.14 311.7C1030.89 309.707 1029.17 308.159 1027.08 307.097L1022.54 316.008C1023.06 316.272 1023.4 316.594 1023.67 317.015L1032.14 311.7ZM1027.18 307.148C1025.08 306.023 1022.8 305.523 1020.44 305.523V315.523C1021.36 315.523 1021.98 315.709 1022.45 315.958L1027.18 307.148ZM1020.44 305.523C1018.11 305.523 1015.86 306.035 1013.78 307.113L1018.38 315.993C1018.95 315.697 1019.61 315.523 1020.44 315.523V305.523ZM1013.84 307.08C1011.78 308.111 1010.05 309.595 1008.75 311.511L1017.01 317.134C1017.32 316.683 1017.72 316.32 1018.31 316.025L1013.84 307.08ZM1008.71 311.568C1007.36 313.616 1006.71 315.927 1006.64 318.328L1016.63 318.626C1016.66 317.855 1016.84 317.396 1017.05 317.077L1008.71 311.568ZM1006.64 318.477V330.125H1016.64V318.477H1006.64ZM1006.64 330.125C1006.64 332.595 1007.16 334.984 1008.33 337.169L1017.15 332.456C1016.85 331.894 1016.64 331.159 1016.64 330.125H1006.64ZM1008.33 337.169C1009.51 339.388 1011.24 341.149 1013.43 342.39L1018.37 333.698C1017.81 333.377 1017.43 332.983 1017.15 332.456L1008.33 337.169ZM1013.43 342.39C1015.71 343.688 1018.26 344.216 1020.87 344.216V334.216C1019.6 334.216 1018.84 333.963 1018.37 333.698L1013.43 342.39ZM1020.87 344.216C1022.69 344.216 1024.47 343.96 1026.17 343.381L1022.95 333.914C1022.43 334.093 1021.75 334.216 1020.87 334.216V344.216ZM1026.14 343.391C1027.84 342.825 1029.42 341.966 1030.78 340.763L1024.17 333.265C1023.92 333.483 1023.56 333.713 1022.98 333.904L1026.14 343.391ZM1030.84 340.709C1032.24 339.44 1033.28 337.896 1033.94 336.13L1024.56 332.643C1024.46 332.913 1024.32 333.12 1024.11 333.319L1030.84 340.709ZM1029.25 339.386H1047.15V329.386H1029.25V339.386ZM1042.21 333.584C1041.73 336.556 1040.62 339.014 1038.92 341.083L1046.64 347.434C1049.53 343.916 1051.34 339.793 1052.08 335.188L1042.21 333.584ZM1038.93 341.067C1037.23 343.12 1034.9 344.818 1031.77 346.089L1035.54 355.354C1039.98 353.547 1043.74 350.937 1046.63 347.45L1038.93 341.067ZM1031.79 346.083C1028.74 347.309 1025 347.994 1020.44 347.994V357.994C1025.98 357.994 1031.04 357.164 1035.52 355.36L1031.79 346.083ZM1074.75 321.318L1069.75 321.252L1069.75 321.285V321.318H1074.75ZM1074.75 352V357H1079.75V352H1074.75ZM1055.15 352H1050.15V357H1055.15V352ZM1055.15 297.455V292.455H1050.15V297.455H1055.15ZM1073.76 297.455H1078.76V292.455H1073.76V297.455ZM1073.76 307.824H1068.76V312.824H1073.76V307.824ZM1074.32 307.824V312.824H1077.9L1079.05 309.444L1074.32 307.824ZM1080.57 299.692L1077.84 295.506L1077.83 295.511L1077.82 295.516L1080.57 299.692ZM1101.13 299.408L1098.48 303.648L1098.51 303.661L1098.53 303.673L1101.13 299.408ZM1107.78 306.652L1103.32 308.915L1103.32 308.929L1103.33 308.943L1107.78 306.652ZM1110.12 317.199L1105.12 317.169L1105.12 317.184V317.199H1110.12ZM1110.12 352V357H1115.12V352H1110.12ZM1090.52 352H1085.52V357H1090.52V352ZM1090.52 321.318L1085.52 321.274L1085.52 321.296V321.318H1090.52ZM1088.46 314.962L1084.73 318.291L1084.74 318.306L1084.75 318.322L1088.46 314.962ZM1078.48 313.719L1080.99 318.044L1081 318.036L1081.01 318.028L1078.48 313.719ZM1075.74 316.702L1080.22 318.938L1080.22 318.921L1080.23 318.905L1075.74 316.702ZM1069.75 321.318V352H1079.75V321.318H1069.75ZM1074.75 347H1055.15V357H1074.75V347ZM1060.15 352V297.455H1050.15V352H1060.15ZM1055.15 302.455H1073.76V292.455H1055.15V302.455ZM1068.76 297.455V307.824H1078.76V297.455H1068.76ZM1073.76 312.824H1074.32V302.824H1073.76V312.824ZM1079.05 309.444C1079.89 307.009 1081.29 305.208 1083.32 303.867L1077.82 295.516C1073.89 298.105 1071.13 301.726 1069.59 306.204L1079.05 309.444ZM1083.31 303.877C1085.41 302.503 1087.94 301.744 1091.08 301.744V291.744C1086.23 291.744 1081.75 292.95 1077.84 295.506L1083.31 303.877ZM1091.08 301.744C1094.15 301.744 1096.55 302.441 1098.48 303.648L1103.78 295.168C1100.03 292.824 1095.74 291.744 1091.08 291.744V301.744ZM1098.53 303.673C1100.58 304.928 1102.16 306.639 1103.32 308.915L1112.23 304.389C1110.26 300.509 1107.42 297.391 1103.74 295.142L1098.53 303.673ZM1103.33 308.943C1104.5 311.207 1105.14 313.907 1105.12 317.169L1115.12 317.229C1115.15 312.584 1114.23 308.252 1112.22 304.361L1103.33 308.943ZM1105.12 317.199V352H1115.12V317.199H1105.12ZM1110.12 347H1090.52V357H1110.12V347ZM1095.52 352V321.318H1085.52V352H1095.52ZM1095.52 321.362C1095.55 317.793 1094.63 314.323 1092.16 311.601L1084.75 318.322C1085.08 318.678 1085.53 319.446 1085.52 321.274L1095.52 321.362ZM1092.19 311.633C1089.68 308.825 1086.29 307.653 1082.7 307.653V317.653C1084.04 317.653 1084.49 318.021 1084.73 318.291L1092.19 311.633ZM1082.7 307.653C1080.34 307.653 1078.03 308.183 1075.94 309.409L1081.01 318.028C1081.34 317.834 1081.85 317.653 1082.7 317.653V307.653ZM1075.97 309.394C1073.88 310.607 1072.3 312.365 1071.26 314.498L1080.23 318.905C1080.46 318.434 1080.71 318.204 1080.99 318.044L1075.97 309.394ZM1071.27 314.466C1070.22 316.57 1069.78 318.889 1069.75 321.252L1079.75 321.384C1079.77 320.149 1079.99 319.39 1080.22 318.938L1071.27 314.466ZM1152.32 297.455H1157.32V292.455H1152.32V297.455ZM1152.32 311.659V316.659H1157.32V311.659H1152.32ZM1116.39 311.659H1111.39V316.659H1116.39V311.659ZM1116.39 297.455V292.455H1111.39V297.455H1116.39ZM1123.35 284.386V279.386H1118.35V284.386H1123.35ZM1142.95 284.386H1147.95V279.386H1142.95V284.386ZM1143.34 336.375L1138.87 338.611L1138.89 338.653L1138.91 338.695L1143.34 336.375ZM1144.55 337.511L1142.39 342.022L1142.47 342.061L1142.55 342.097L1144.55 337.511ZM1148.7 337.653L1147.83 332.729L1147.82 332.732L1147.81 332.734L1148.7 337.653ZM1150.48 337.298L1155.37 336.289L1154.32 331.183L1149.26 332.448L1150.48 337.298ZM1153.32 351.077L1154.74 355.869L1159.14 354.562L1158.22 350.067L1153.32 351.077ZM1149.55 352.036L1148.42 347.165L1148.42 347.167L1148.41 347.168L1149.55 352.036ZM1143.8 352.781L1144.06 357.774L1144.07 357.774L1143.8 352.781ZM1132.47 351.396L1130.67 356.058L1130.68 356.064L1130.7 356.07L1132.47 351.396ZM1125.58 345.821L1121.31 348.417L1121.31 348.417L1125.58 345.821ZM1123.35 336.304L1128.35 336.366L1128.35 336.335V336.304H1123.35ZM1147.32 297.455V311.659H1157.32V297.455H1147.32ZM1152.32 306.659H1116.39V316.659H1152.32V306.659ZM1121.39 311.659V297.455H1111.39V311.659H1121.39ZM1116.39 302.455H1152.32V292.455H1116.39V302.455ZM1123.35 289.386H1142.95V279.386H1123.35V289.386ZM1137.95 284.386V334.457H1147.95V284.386H1137.95ZM1137.95 334.457C1137.95 335.766 1138.17 337.219 1138.87 338.611L1147.81 334.139C1147.99 334.489 1147.95 334.664 1147.95 334.457H1137.95ZM1138.91 338.695C1139.71 340.222 1140.95 341.333 1142.39 342.022L1146.7 333.001C1146.86 333.073 1147.06 333.196 1147.26 333.391C1147.47 333.589 1147.65 333.818 1147.77 334.055L1138.91 338.695ZM1142.55 342.097C1143.94 342.699 1145.38 342.866 1146.64 342.866V332.866C1146.54 332.866 1146.47 332.863 1146.41 332.859C1146.36 332.855 1146.33 332.85 1146.31 332.848C1146.3 332.846 1146.32 332.848 1146.36 332.859C1146.4 332.87 1146.46 332.89 1146.54 332.926L1142.55 342.097ZM1146.64 342.866C1147.62 342.866 1148.61 342.752 1149.6 342.573L1147.81 332.734C1147.23 332.839 1146.85 332.866 1146.64 332.866V342.866ZM1149.57 342.577C1150.4 342.432 1151.13 342.289 1151.69 342.149L1149.26 332.448C1149.07 332.497 1148.62 332.591 1147.83 332.729L1149.57 342.577ZM1145.58 338.308L1148.42 352.086L1158.22 350.067L1155.37 336.289L1145.58 338.308ZM1151.89 346.284C1151.16 346.501 1150.03 346.793 1148.42 347.165L1150.68 356.906C1152.35 356.52 1153.72 356.173 1154.74 355.869L1151.89 346.284ZM1148.41 347.168C1147.17 347.46 1145.56 347.681 1143.54 347.788L1144.07 357.774C1146.49 357.645 1148.72 357.368 1150.7 356.903L1148.41 347.168ZM1143.54 347.788C1139.49 348.001 1136.46 347.561 1134.25 346.722L1130.7 356.07C1134.6 357.552 1139.12 358.035 1144.06 357.774L1143.54 347.788ZM1134.28 346.734C1132.14 345.904 1130.76 344.717 1129.86 343.225L1121.31 348.417C1123.48 351.991 1126.7 354.521 1130.67 356.058L1134.28 346.734ZM1129.86 343.225C1128.93 341.692 1128.31 339.505 1128.35 336.366L1118.35 336.242C1118.29 340.726 1119.16 344.884 1121.31 348.417L1129.86 343.225ZM1128.35 336.304V284.386H1118.35V336.304H1128.35Z" fill="url(#paint4_linear_148_265)" mask="url(#path-5-outside-1_148_265)"/>
<path d="M63.5234 34.8515L56 54.625H64.0948L67.8088 43.9341L63.5234 34.8515Z" fill="white"/>
<path d="M74.4751 54.625L64.8566 34H72.7609L82.3794 54.625H74.4751Z" fill="white"/>
<path d="M79.1073 39.0143L76.917 34H84.5356L87.0116 39.0143H79.1073Z" fill="white"/>
<path d="M86.2498 54.625L79.4883 40.3389H87.4878L94.4398 54.625H86.2498Z" fill="white"/>
<path d="M90.882 39.0143L88.6916 34H101.643L104.024 39.0143H90.882Z" fill="white"/>
<path d="M100.405 54.625L93.8342 40.3389H101.643L108.5 54.625H100.405Z" fill="white"/>
<path d="M140.648 39.3636V35.5455H155.818V39.3636H150.568V53H145.898V39.3636H140.648ZM157.602 53V35.5455H170.181V39.3636H162.34V42.3636H169.533V46.1818H162.34V49.1818H170.147V53H157.602ZM188.827 42.0909H184.02C183.986 41.6932 183.895 41.3324 183.747 41.0085C183.605 40.6847 183.406 40.4062 183.151 40.1733C182.901 39.9347 182.597 39.7528 182.239 39.6278C181.881 39.4972 181.474 39.4318 181.02 39.4318C180.224 39.4318 179.551 39.625 179 40.0114C178.455 40.3977 178.04 40.9517 177.756 41.6733C177.477 42.3949 177.338 43.2614 177.338 44.2727C177.338 45.3409 177.48 46.2358 177.764 46.9574C178.054 47.6733 178.472 48.2131 179.017 48.5767C179.563 48.9347 180.219 49.1136 180.986 49.1136C181.423 49.1136 181.815 49.0597 182.162 48.9517C182.509 48.8381 182.81 48.6761 183.065 48.4659C183.321 48.2557 183.528 48.0028 183.688 47.7074C183.852 47.4062 183.963 47.0682 184.02 46.6932L188.827 46.7273C188.77 47.4659 188.563 48.2187 188.205 48.9858C187.847 49.7472 187.338 50.4517 186.679 51.0994C186.026 51.7415 185.216 52.2585 184.25 52.6506C183.284 53.0426 182.162 53.2386 180.884 53.2386C179.281 53.2386 177.844 52.8949 176.571 52.2074C175.304 51.5199 174.301 50.5085 173.562 49.1733C172.83 47.8381 172.463 46.2045 172.463 44.2727C172.463 42.3295 172.838 40.6932 173.588 39.3636C174.338 38.0284 175.349 37.0199 176.622 36.3381C177.895 35.6506 179.315 35.3068 180.884 35.3068C181.986 35.3068 183 35.4574 183.926 35.7585C184.852 36.0597 185.665 36.5 186.364 37.0795C187.063 37.6534 187.625 38.3608 188.051 39.2017C188.477 40.0426 188.736 41.0057 188.827 42.0909ZM190.977 53V35.5455H195.715V42.3636H201.988V35.5455H206.727V53H201.988V46.1818H195.715V53H190.977ZM224.079 35.5455V53H220.124L213.817 43.8295H213.715V53H208.977V35.5455H212.999L219.204 44.6818H219.34V35.5455H224.079ZM243.229 44.2727C243.229 46.2159 242.852 47.8551 242.096 49.1903C241.34 50.5199 240.32 51.5284 239.036 52.2159C237.752 52.8977 236.32 53.2386 234.741 53.2386C233.15 53.2386 231.712 52.8949 230.428 52.2074C229.15 51.5142 228.133 50.5028 227.377 49.1733C226.627 47.8381 226.252 46.2045 226.252 44.2727C226.252 42.3295 226.627 40.6932 227.377 39.3636C228.133 38.0284 229.15 37.0199 230.428 36.3381C231.712 35.6506 233.15 35.3068 234.741 35.3068C236.32 35.3068 237.752 35.6506 239.036 36.3381C240.32 37.0199 241.34 38.0284 242.096 39.3636C242.852 40.6932 243.229 42.3295 243.229 44.2727ZM238.354 44.2727C238.354 43.2273 238.215 42.3466 237.937 41.6307C237.664 40.9091 237.258 40.3636 236.718 39.9943C236.184 39.6193 235.525 39.4318 234.741 39.4318C233.957 39.4318 233.295 39.6193 232.755 39.9943C232.221 40.3636 231.815 40.9091 231.536 41.6307C231.263 42.3466 231.127 43.2273 231.127 44.2727C231.127 45.3182 231.263 46.2017 231.536 46.9233C231.815 47.6392 232.221 48.1847 232.755 48.5597C233.295 48.929 233.957 49.1136 234.741 49.1136C235.525 49.1136 236.184 48.929 236.718 48.5597C237.258 48.1847 237.664 47.6392 237.937 46.9233C238.215 46.2017 238.354 45.3182 238.354 44.2727ZM254.831 41C254.786 40.4318 254.572 39.9886 254.192 39.6705C253.817 39.3523 253.246 39.1932 252.479 39.1932C251.99 39.1932 251.589 39.2528 251.277 39.3722C250.97 39.4858 250.743 39.642 250.595 39.8409C250.447 40.0398 250.371 40.267 250.365 40.5227C250.354 40.733 250.391 40.9233 250.476 41.0938C250.567 41.2585 250.709 41.4091 250.902 41.5455C251.095 41.6761 251.342 41.7955 251.643 41.9034C251.945 42.0114 252.303 42.108 252.717 42.1932L254.149 42.5C255.115 42.7045 255.942 42.9744 256.629 43.3097C257.317 43.6449 257.879 44.0398 258.317 44.4943C258.754 44.9432 259.075 45.4489 259.28 46.0114C259.49 46.5739 259.598 47.1875 259.604 47.8523C259.598 49 259.311 49.9716 258.743 50.767C258.175 51.5625 257.362 52.1676 256.305 52.5824C255.254 52.9972 253.99 53.2045 252.513 53.2045C250.996 53.2045 249.672 52.9801 248.541 52.5312C247.416 52.0824 246.541 51.392 245.916 50.4602C245.297 49.5227 244.984 48.3239 244.979 46.8636H249.479C249.507 47.3977 249.641 47.8466 249.879 48.2102C250.118 48.5739 250.453 48.8494 250.885 49.0369C251.322 49.2244 251.842 49.3182 252.445 49.3182C252.95 49.3182 253.374 49.2557 253.714 49.1307C254.055 49.0057 254.314 48.8324 254.49 48.6108C254.666 48.3892 254.757 48.1364 254.763 47.8523C254.757 47.5852 254.669 47.3523 254.499 47.1534C254.334 46.9489 254.061 46.767 253.68 46.608C253.3 46.4432 252.786 46.2898 252.138 46.1477L250.399 45.7727C248.854 45.4375 247.635 44.8778 246.743 44.0938C245.857 43.304 245.416 42.2273 245.422 40.8636C245.416 39.7557 245.712 38.7869 246.308 37.9574C246.911 37.1222 247.743 36.4716 248.805 36.0057C249.874 35.5398 251.098 35.3068 252.479 35.3068C253.888 35.3068 255.107 35.5426 256.135 36.0142C257.163 36.4858 257.956 37.1506 258.513 38.0085C259.075 38.8608 259.359 39.858 259.365 41H254.831ZM261.406 53V35.5455H268.94C270.236 35.5455 271.369 35.8011 272.341 36.3125C273.313 36.8239 274.068 37.5426 274.608 38.4688C275.148 39.3949 275.418 40.4773 275.418 41.7159C275.418 42.9659 275.139 44.0483 274.582 44.9631C274.031 45.8778 273.256 46.5824 272.256 47.0767C271.261 47.571 270.099 47.8182 268.77 47.8182H264.27V44.1364H267.815C268.372 44.1364 268.847 44.0398 269.239 43.8466C269.636 43.6477 269.94 43.3665 270.151 43.0028C270.366 42.6392 270.474 42.2102 270.474 41.7159C270.474 41.2159 270.366 40.7898 270.151 40.4375C269.94 40.0795 269.636 39.8068 269.239 39.6193C268.847 39.4261 268.372 39.3295 267.815 39.3295H266.145V53H261.406ZM279.511 53H274.397L280.158 35.5455H286.636L292.397 53H287.283L283.465 40.3523H283.329L279.511 53ZM278.556 46.1136H288.17V49.6591H278.556V46.1136ZM294.078 53V35.5455H301.612C302.908 35.5455 304.041 35.7812 305.013 36.2528C305.984 36.7244 306.74 37.4034 307.28 38.2898C307.82 39.1761 308.089 40.2386 308.089 41.4773C308.089 42.7273 307.811 43.7812 307.254 44.6392C306.703 45.4972 305.928 46.1449 304.928 46.5824C303.933 47.0199 302.771 47.2386 301.442 47.2386H296.942V43.5568H300.487C301.044 43.5568 301.518 43.4886 301.911 43.3523C302.308 43.2102 302.612 42.9858 302.822 42.679C303.038 42.3722 303.146 41.9716 303.146 41.4773C303.146 40.9773 303.038 40.571 302.822 40.2585C302.612 39.9403 302.308 39.7074 301.911 39.5597C301.518 39.4062 301.044 39.3295 300.487 39.3295H298.817V53H294.078ZM304.305 44.9886L308.669 53H303.521L299.26 44.9886H304.305ZM315.189 35.5455L318.053 40.625H318.189L321.087 35.5455H326.371L321.155 44.2727L326.575 53H321.155L318.189 47.8182H318.053L315.087 53H309.7L315.053 44.2727L309.871 35.5455H315.189Z" fill="white"/>
<g opacity="0.4" clip-path="url(#clip1_148_265)">
<path d="M217.176 448.238C217.097 448.161 217.01 448.1 216.931 448.023C216.852 447.947 216.769 447.843 216.682 447.757C209.597 440.845 200.287 436.292 190.181 434.796C180.075 433.3 169.731 434.943 160.736 439.475C151.74 444.007 144.59 451.176 140.382 459.882C136.174 468.589 135.141 478.352 137.44 487.675C136.25 488.349 135.166 489.174 134.217 490.125L83.7862 540.876C81.1157 543.615 79.6056 547.172 79.5382 550.881C79.4709 554.591 80.8508 558.199 83.4202 561.033L68.2508 574.405C66.4058 576.03 64.9253 577.983 63.8951 580.15C62.8649 582.316 62.3056 584.653 62.2496 587.025C62.1936 589.398 62.6421 591.758 63.569 593.969C64.4958 596.18 65.8826 598.198 67.6489 599.906L72.616 604.714C76.2799 608.138 81.1418 610.21 86.3045 610.549C91.4672 610.887 96.5825 609.469 100.706 606.556L187.23 543.204C189.532 541.567 192.366 540.718 195.26 540.799C198.651 540.817 201.9 542.083 204.303 544.323L207.78 547.687C208.663 548.501 209.364 549.472 209.841 550.543C210.319 551.613 210.563 552.761 210.56 553.92C210.517 555.252 210.143 556.555 209.467 557.726C208.791 558.897 207.832 559.904 206.667 560.667L159.266 593.632C158.832 593.934 158.466 594.313 158.189 594.747C157.912 595.182 157.729 595.663 157.651 596.164C157.573 596.665 157.602 597.175 157.735 597.666C157.868 598.157 158.103 598.619 158.427 599.026C158.75 599.432 159.156 599.776 159.622 600.036C160.087 600.296 160.602 600.468 161.138 600.542C161.674 600.616 162.22 600.591 162.745 600.467C163.27 600.344 163.763 600.125 164.197 599.824L211.598 566.857C213.638 565.5 215.335 563.742 216.571 561.706C217.807 559.67 218.551 557.405 218.752 555.07C218.953 552.734 218.605 550.385 217.734 548.186C216.862 545.987 215.488 543.992 213.706 542.339L210.228 538.976C206.566 535.548 201.704 533.472 196.54 533.134C191.376 532.795 186.26 534.216 182.138 537.133L95.6125 600.48C93.31 602.116 90.4759 602.965 87.5815 602.885C84.1935 602.868 80.9462 601.602 78.5449 599.362L73.5736 594.554C72.567 593.581 71.7768 592.431 71.2488 591.17C70.7207 589.91 70.4654 588.565 70.4976 587.213C70.5297 585.861 70.8488 584.529 71.4362 583.294C72.0236 582.06 72.8677 580.947 73.9195 580.021L89.1267 566.614L90.3333 567.792C93.333 570.662 97.4258 572.304 101.713 572.358L101.734 572.359C105.703 572.443 109.563 571.152 112.571 568.736L168.565 523.367C169.615 522.51 170.533 521.521 171.296 520.43C174.897 521.329 178.6 521.822 182.324 521.901L182.357 521.902C188.498 522.01 194.599 520.984 200.31 518.882C206.02 516.781 211.229 513.645 215.636 509.655L212.766 506.879L215.636 509.651C218.708 506.862 221.353 503.689 223.498 500.223C223.609 500.16 223.721 500.108 223.831 500.036L224.787 499.474L225.302 498.531C229.713 490.413 231.302 481.205 229.848 472.191C228.393 463.176 223.968 454.803 217.189 448.24L217.176 448.238ZM107.156 562.897C105.606 564.103 103.629 564.725 101.612 564.64C99.5952 564.554 97.683 563.769 96.2499 562.436L89.9481 556.341C88.5717 554.956 87.7965 553.142 87.7743 551.254C87.7521 549.366 88.4845 547.539 89.8281 546.132L140.154 495.476C144.62 505.229 152.768 513.111 163.043 517.615L107.156 562.897ZM182.444 514.187C175.282 514.075 168.29 512.099 162.254 508.479C156.218 504.86 151.378 499.741 148.276 493.698C145.175 487.654 143.936 480.926 144.697 474.269C145.459 467.611 148.192 461.289 152.589 456.012C152.237 458.055 152.039 460.12 151.997 462.191C151.878 468.693 153.313 475.141 156.196 481.065C159.079 486.989 163.339 492.24 168.664 496.436C173.989 500.631 180.245 503.665 186.977 505.316C193.709 506.967 200.746 507.194 207.577 505.98C200.522 511.434 191.608 514.345 182.444 514.187ZM217.37 494.605C210.232 498.256 202.036 499.698 193.957 498.725C185.878 497.751 178.329 494.412 172.394 489.186C166.458 483.96 162.441 477.115 160.916 469.633C159.392 462.151 160.439 454.414 163.908 447.533C171.024 443.57 179.334 441.887 187.578 442.738C195.821 443.588 203.55 446.927 209.593 452.248C215.636 457.569 219.665 464.582 221.068 472.225C222.471 479.868 221.173 487.725 217.37 494.605ZM128.627 614.936L123.448 618.534C122.571 619.144 121.989 620.054 121.832 621.066C121.674 622.078 121.953 623.107 122.607 623.929C123.261 624.75 124.236 625.295 125.319 625.445C126.401 625.595 127.502 625.337 128.379 624.727L133.558 621.123C134.006 620.826 134.385 620.448 134.674 620.012C134.963 619.576 135.155 619.09 135.241 618.583C135.326 618.076 135.301 617.558 135.169 617.059C135.037 616.56 134.8 616.091 134.471 615.679C134.143 615.266 133.73 614.919 133.256 614.658C132.782 614.397 132.258 614.227 131.714 614.158C131.169 614.088 130.616 614.122 130.085 614.255C129.555 614.389 129.059 614.62 128.627 614.936ZM146.155 602.753L143.651 604.497C143.209 604.796 142.834 605.174 142.55 605.609C142.266 606.045 142.077 606.529 141.994 607.034C141.912 607.539 141.938 608.054 142.07 608.55C142.203 609.046 142.44 609.513 142.767 609.923C143.094 610.333 143.504 610.678 143.975 610.939C144.445 611.199 144.967 611.37 145.508 611.441C146.049 611.512 146.6 611.481 147.128 611.351C147.656 611.221 148.151 610.995 148.584 610.684L151.089 608.942C151.952 608.328 152.52 607.42 152.671 606.415C152.821 605.41 152.541 604.389 151.892 603.574C151.243 602.759 150.276 602.216 149.202 602.062C148.129 601.908 147.033 602.156 146.155 602.753Z" fill="url(#paint5_linear_148_265)"/>
</g>
<g opacity="0.43" clip-path="url(#clip2_148_265)">
<path fill-rule="evenodd" clip-rule="evenodd" d="M1101.77 0H1115.82C1119.04 0 1121.66 2.24023 1121.66 4.98633V47.6592L1138.89 62.3652C1138.99 62.3291 1139.12 62.311 1139.23 62.293C1174.71 55.1206 1169.25 33.6035 1164.38 14.417C1163.73 11.8696 1163.09 9.3584 1162.46 6.46777C1161.89 3.88428 1163.9 1.39111 1166.92 0.90332C1169.95 0.415527 1172.87 2.13184 1173.44 4.71533C1173.93 6.90137 1174.62 9.64746 1175.32 12.4116C1180.99 34.814 1187.32 59.7817 1147.99 70.1699L1164.38 84.1714C1167.71 87.0078 1169.36 90.7295 1169.36 94.4512C1169.36 98.1728 1167.71 101.913 1164.38 104.731L1120.16 142.49C1119.78 142.815 1119.34 143.086 1118.87 143.285C1123.34 158.768 1120.18 174.648 1105.16 187.457L1103.3 189.047C1101.35 190.709 1098.18 190.709 1096.21 189.047L1073.42 169.607C1044.39 184.874 1003.47 151.433 1023.42 126.916L996.256 103.701C994.309 102.039 994.309 99.3291 996.256 97.6489L998.118 96.0591C1011.62 84.5327 1028.4 81.3891 1045.18 83.9004L1045.26 83.7558C1045.51 83.3223 1045.83 82.9429 1046.21 82.6177L1092.36 43.2148C1093.46 42.2754 1094.67 41.4985 1095.94 40.8843V4.98633C1095.94 2.24023 1098.56 0 1101.77 0ZM1121.66 59.7817V80.5942C1121.66 83.3403 1119.04 85.5806 1115.82 85.5806H1101.77C1098.56 85.5806 1095.94 83.3403 1095.94 80.5942V52.2661L1058.15 84.5146C1068.68 89.2661 1079.07 94.8486 1088.91 102.166C1099.38 109.952 1109.18 119.672 1117.77 132.427L1157.3 98.6787C1158.65 97.5224 1159.33 95.9868 1159.33 94.4512C1159.33 92.9155 1158.65 91.3799 1157.3 90.2236L1121.66 59.7817ZM981.572 123.556C984.661 123.556 987.157 125.688 987.157 128.326C987.157 130.963 984.661 133.095 981.572 133.095L964.052 133.149C960.963 133.131 958.466 130.999 958.466 128.38C958.466 125.742 960.963 123.61 964.052 123.61L981.572 123.556ZM1002.12 174.54C1004.49 172.859 1008 173.13 1009.97 175.154C1011.93 177.177 1011.62 180.176 1009.25 181.856L979.159 203.283C976.79 204.963 973.277 204.692 971.309 202.669C969.342 200.645 969.659 197.646 972.029 195.966L1002.12 174.54ZM1025.96 194.629C1027.32 192.263 1030.66 191.269 1033.45 192.425C1036.25 193.582 1037.39 196.436 1036.03 198.821L1024.31 219.326C1022.96 221.693 1019.62 222.686 1016.82 221.53C1014.05 220.374 1012.89 217.52 1014.24 215.135L1025.96 194.629ZM987.2 147.332C990.141 146.537 993.272 147.928 994.203 150.439C995.134 152.95 993.505 155.624 990.564 156.419L966.147 163.049C963.206 163.844 960.074 162.453 959.143 159.942C958.212 157.431 959.841 154.757 962.782 153.962L987.2 147.332ZM1061.62 193.076C1062.31 190.51 1065.3 188.902 1068.3 189.48C1071.31 190.077 1073.19 192.624 1072.51 195.189L1066.46 217.61C1065.76 220.175 1062.78 221.783 1059.77 221.205C1056.77 220.609 1054.89 218.061 1055.56 215.496L1061.62 193.076ZM1006.94 100.72L1099.72 179.941C1114.45 166.048 1112.99 147.837 1102.94 131.632C1098.73 124.839 1093.02 118.389 1086.37 112.716C1079.71 107.043 1072.11 102.184 1064.09 98.5522C1044.75 89.8081 1023.02 88.3447 1006.94 100.72Z" fill="url(#paint6_linear_148_265)"/>
</g>
</g>
<defs>
<linearGradient id="paint0_linear_148_265" x1="-63.757" y1="-34.0071" x2="-63.757" y2="347.166" gradientUnits="userSpaceOnUse">
<stop stop-color="#FF9E0B"/>
<stop offset="1" stop-color="#EC4899"/>
</linearGradient>
<linearGradient id="paint1_linear_148_265" x1="1173" y1="695.827" x2="1173" y2="969.442" gradientUnits="userSpaceOnUse">
<stop stop-color="#FF9E0B"/>
<stop offset="1" stop-color="#F24E52"/>
</linearGradient>
<linearGradient id="paint2_linear_148_265" x1="882.5" y1="530" x2="882.5" y2="919" gradientUnits="userSpaceOnUse">
<stop stop-color="#FF9E0B"/>
<stop offset="1" stop-color="#9C67E7"/>
</linearGradient>
<linearGradient id="paint3_linear_148_265" x1="491" y1="30" x2="491" y2="162" gradientUnits="userSpaceOnUse">
<stop stop-color="#FF9E0B"/>
<stop offset="1" stop-color="#DA46EB"/>
</linearGradient>
<linearGradient id="paint4_linear_148_265" x1="600.5" y1="255" x2="600.5" y2="376" gradientUnits="userSpaceOnUse">
<stop stop-color="#FF9E0B"/>
<stop offset="0.49" stop-color="#F24E52"/>
</linearGradient>
<linearGradient id="paint5_linear_148_265" x1="148.014" y1="433.653" x2="144.721" y2="625.81" gradientUnits="userSpaceOnUse">
<stop stop-color="#EC4899"/>
<stop offset="1" stop-color="#FF9E0B"/>
</linearGradient>
<linearGradient id="paint6_linear_148_265" x1="1069" y1="0" x2="1069" y2="222.013" gradientUnits="userSpaceOnUse">
<stop stop-color="#FF9B0E"/>
<stop offset="1"/>
</linearGradient>
<clipPath id="clip0_148_265">
<rect width="1200" height="630" fill="white"/>
</clipPath>
<clipPath id="clip1_148_265">
<rect width="205.458" height="192.077" fill="white" transform="translate(45.2905 432) rotate(0.981624)"/>
</clipPath>
<clipPath id="clip2_148_265">
<rect width="260" height="222" fill="white" transform="translate(939)"/>
</clipPath>
</defs>
</svg>
