<svg width="1200" height="630" viewBox="0 0 1200 630" fill="none" xmlns="http://www.w3.org/2000/svg">
<g clip-path="url(#clip0_146_73)">
<rect width="1200" height="630" fill="black"/>
<rect x="-427.809" y="-32.4844" width="729.486" height="376.173" transform="rotate(-19.4848 -427.809 -32.4844)" stroke="url(#paint0_linear_146_73)" stroke-width="5"/>
<rect x="883" y="695.827" width="580" height="273.616" transform="rotate(-35.26 883 695.827)" fill="url(#paint1_linear_146_73)"/>
<circle cx="882.5" cy="724.5" r="193" stroke="url(#paint2_linear_146_73)" stroke-width="3"/>
<path opacity="0.49" d="M415 58.3636C414.121 58.3636 413.367 58.0568 412.739 57.4432C412.117 56.822 411.811 56.0682 411.818 55.1818C411.811 54.3182 412.117 53.5795 412.739 52.9659C413.367 52.3523 414.121 52.0455 415 52.0455C415.833 52.0455 416.568 52.3523 417.205 52.9659C417.848 53.5795 418.174 54.3182 418.182 55.1818C418.174 55.7727 418.019 56.3106 417.716 56.7955C417.42 57.2727 417.034 57.6553 416.557 57.9432C416.08 58.2235 415.561 58.3636 415 58.3636ZM459.003 58.3636C458.124 58.3636 457.37 58.0568 456.741 57.4432C456.12 56.822 455.813 56.0682 455.821 55.1818C455.813 54.3182 456.12 53.5795 456.741 52.9659C457.37 52.3523 458.124 52.0455 459.003 52.0455C459.836 52.0455 460.571 52.3523 461.207 52.9659C461.851 53.5795 462.177 54.3182 462.184 55.1818C462.177 55.7727 462.021 56.3106 461.718 56.7955C461.423 57.2727 461.037 57.6553 460.559 57.9432C460.082 58.2235 459.563 58.3636 459.003 58.3636ZM503.005 58.3636C502.126 58.3636 501.372 58.0568 500.744 57.4432C500.122 56.822 499.816 56.0682 499.823 55.1818C499.816 54.3182 500.122 53.5795 500.744 52.9659C501.372 52.3523 502.126 52.0455 503.005 52.0455C503.838 52.0455 504.573 52.3523 505.21 52.9659C505.853 53.5795 506.179 54.3182 506.187 55.1818C506.179 55.7727 506.024 56.3106 505.721 56.7955C505.425 57.2727 505.039 57.6553 504.562 57.9432C504.085 58.2235 503.566 58.3636 503.005 58.3636ZM547.008 58.3636C546.129 58.3636 545.375 58.0568 544.746 57.4432C544.125 56.822 543.818 56.0682 543.826 55.1818C543.818 54.3182 544.125 53.5795 544.746 52.9659C545.375 52.3523 546.129 52.0455 547.008 52.0455C547.841 52.0455 548.576 52.3523 549.212 52.9659C549.856 53.5795 550.182 54.3182 550.189 55.1818C550.182 55.7727 550.026 56.3106 549.723 56.7955C549.428 57.2727 549.042 57.6553 548.564 57.9432C548.087 58.2235 547.568 58.3636 547.008 58.3636ZM415 91.3636C414.121 91.3636 413.367 91.0568 412.739 90.4432C412.117 89.822 411.811 89.0682 411.818 88.1818C411.811 87.3182 412.117 86.5795 412.739 85.9659C413.367 85.3523 414.121 85.0455 415 85.0455C415.833 85.0455 416.568 85.3523 417.205 85.9659C417.848 86.5795 418.174 87.3182 418.182 88.1818C418.174 88.7727 418.019 89.3106 417.716 89.7955C417.42 90.2727 417.034 90.6553 416.557 90.9432C416.08 91.2235 415.561 91.3636 415 91.3636ZM459.003 91.3636C458.124 91.3636 457.37 91.0568 456.741 90.4432C456.12 89.822 455.813 89.0682 455.821 88.1818C455.813 87.3182 456.12 86.5795 456.741 85.9659C457.37 85.3523 458.124 85.0455 459.003 85.0455C459.836 85.0455 460.571 85.3523 461.207 85.9659C461.851 86.5795 462.177 87.3182 462.184 88.1818C462.177 88.7727 462.021 89.3106 461.718 89.7955C461.423 90.2727 461.037 90.6553 460.559 90.9432C460.082 91.2235 459.563 91.3636 459.003 91.3636ZM503.005 91.3636C502.126 91.3636 501.372 91.0568 500.744 90.4432C500.122 89.822 499.816 89.0682 499.823 88.1818C499.816 87.3182 500.122 86.5795 500.744 85.9659C501.372 85.3523 502.126 85.0455 503.005 85.0455C503.838 85.0455 504.573 85.3523 505.21 85.9659C505.853 86.5795 506.179 87.3182 506.187 88.1818C506.179 88.7727 506.024 89.3106 505.721 89.7955C505.425 90.2727 505.039 90.6553 504.562 90.9432C504.085 91.2235 503.566 91.3636 503.005 91.3636ZM547.008 91.3636C546.129 91.3636 545.375 91.0568 544.746 90.4432C544.125 89.822 543.818 89.0682 543.826 88.1818C543.818 87.3182 544.125 86.5795 544.746 85.9659C545.375 85.3523 546.129 85.0455 547.008 85.0455C547.841 85.0455 548.576 85.3523 549.212 85.9659C549.856 86.5795 550.182 87.3182 550.189 88.1818C550.182 88.7727 550.026 89.3106 549.723 89.7955C549.428 90.2727 549.042 90.6553 548.564 90.9432C548.087 91.2235 547.568 91.3636 547.008 91.3636ZM415 124.364C414.121 124.364 413.367 124.057 412.739 123.443C412.117 122.822 411.811 122.068 411.818 121.182C411.811 120.318 412.117 119.58 412.739 118.966C413.367 118.352 414.121 118.045 415 118.045C415.833 118.045 416.568 118.352 417.205 118.966C417.848 119.58 418.174 120.318 418.182 121.182C418.174 121.773 418.019 122.311 417.716 122.795C417.42 123.273 417.034 123.655 416.557 123.943C416.08 124.223 415.561 124.364 415 124.364ZM459.003 124.364C458.124 124.364 457.37 124.057 456.741 123.443C456.12 122.822 455.813 122.068 455.821 121.182C455.813 120.318 456.12 119.58 456.741 118.966C457.37 118.352 458.124 118.045 459.003 118.045C459.836 118.045 460.571 118.352 461.207 118.966C461.851 119.58 462.177 120.318 462.184 121.182C462.177 121.773 462.021 122.311 461.718 122.795C461.423 123.273 461.037 123.655 460.559 123.943C460.082 124.223 459.563 124.364 459.003 124.364ZM503.005 124.364C502.126 124.364 501.372 124.057 500.744 123.443C500.122 122.822 499.816 122.068 499.823 121.182C499.816 120.318 500.122 119.58 500.744 118.966C501.372 118.352 502.126 118.045 503.005 118.045C503.838 118.045 504.573 118.352 505.21 118.966C505.853 119.58 506.179 120.318 506.187 121.182C506.179 121.773 506.024 122.311 505.721 122.795C505.425 123.273 505.039 123.655 504.562 123.943C504.085 124.223 503.566 124.364 503.005 124.364ZM547.008 124.364C546.129 124.364 545.375 124.057 544.746 123.443C544.125 122.822 543.818 122.068 543.826 121.182C543.818 120.318 544.125 119.58 544.746 118.966C545.375 118.352 546.129 118.045 547.008 118.045C547.841 118.045 548.576 118.352 549.212 118.966C549.856 119.58 550.182 120.318 550.189 121.182C550.182 121.773 550.026 122.311 549.723 122.795C549.428 123.273 549.042 123.655 548.564 123.943C548.087 124.223 547.568 124.364 547.008 124.364ZM415 157.364C414.121 157.364 413.367 157.057 412.739 156.443C412.117 155.822 411.811 155.068 411.818 154.182C411.811 153.318 412.117 152.58 412.739 151.966C413.367 151.352 414.121 151.045 415 151.045C415.833 151.045 416.568 151.352 417.205 151.966C417.848 152.58 418.174 153.318 418.182 154.182C418.174 154.773 418.019 155.311 417.716 155.795C417.42 156.273 417.034 156.655 416.557 156.943C416.08 157.223 415.561 157.364 415 157.364ZM459.003 157.364C458.124 157.364 457.37 157.057 456.741 156.443C456.12 155.822 455.813 155.068 455.821 154.182C455.813 153.318 456.12 152.58 456.741 151.966C457.37 151.352 458.124 151.045 459.003 151.045C459.836 151.045 460.571 151.352 461.207 151.966C461.851 152.58 462.177 153.318 462.184 154.182C462.177 154.773 462.021 155.311 461.718 155.795C461.423 156.273 461.037 156.655 460.559 156.943C460.082 157.223 459.563 157.364 459.003 157.364ZM503.005 157.364C502.126 157.364 501.372 157.057 500.744 156.443C500.122 155.822 499.816 155.068 499.823 154.182C499.816 153.318 500.122 152.58 500.744 151.966C501.372 151.352 502.126 151.045 503.005 151.045C503.838 151.045 504.573 151.352 505.21 151.966C505.853 152.58 506.179 153.318 506.187 154.182C506.179 154.773 506.024 155.311 505.721 155.795C505.425 156.273 505.039 156.655 504.562 156.943C504.085 157.223 503.566 157.364 503.005 157.364ZM547.008 157.364C546.129 157.364 545.375 157.057 544.746 156.443C544.125 155.822 543.818 155.068 543.826 154.182C543.818 153.318 544.125 152.58 544.746 151.966C545.375 151.352 546.129 151.045 547.008 151.045C547.841 151.045 548.576 151.352 549.212 151.966C549.856 152.58 550.182 153.318 550.189 154.182C550.182 154.773 550.026 155.311 549.723 155.795C549.428 156.273 549.042 156.655 548.564 156.943C548.087 157.223 547.568 157.364 547.008 157.364Z" fill="url(#paint3_linear_146_73)"/>
<mask id="path-5-outside-1_146_73" maskUnits="userSpaceOnUse" x="232" y="256" width="749" height="112" fill="black">
<rect fill="white" x="232" y="256" width="749" height="112"/>
<path d="M290.182 297C289.939 293.97 288.803 291.606 286.773 289.909C284.773 288.212 281.727 287.364 277.636 287.364C275.03 287.364 272.894 287.682 271.227 288.318C269.591 288.924 268.379 289.758 267.591 290.818C266.803 291.879 266.394 293.091 266.364 294.455C266.303 295.576 266.5 296.591 266.955 297.5C267.439 298.379 268.197 299.182 269.227 299.909C270.258 300.606 271.576 301.242 273.182 301.818C274.788 302.394 276.697 302.909 278.909 303.364L286.545 305C291.697 306.091 296.106 307.53 299.773 309.318C303.439 311.106 306.439 313.212 308.773 315.636C311.106 318.03 312.818 320.727 313.909 323.727C315.03 326.727 315.606 330 315.636 333.545C315.606 339.667 314.076 344.848 311.045 349.091C308.015 353.333 303.682 356.561 298.045 358.773C292.439 360.985 285.697 362.091 277.818 362.091C269.727 362.091 262.667 360.894 256.636 358.5C250.636 356.106 245.97 352.424 242.636 347.455C239.333 342.455 237.667 336.061 237.636 328.273H261.636C261.788 331.121 262.5 333.515 263.773 335.455C265.045 337.394 266.833 338.864 269.136 339.864C271.47 340.864 274.242 341.364 277.455 341.364C280.152 341.364 282.409 341.03 284.227 340.364C286.045 339.697 287.424 338.773 288.364 337.591C289.303 336.409 289.788 335.061 289.818 333.545C289.788 332.121 289.318 330.879 288.409 329.818C287.53 328.727 286.076 327.758 284.045 326.909C282.015 326.03 279.273 325.212 275.818 324.455L266.545 322.455C258.303 320.667 251.803 317.682 247.045 313.5C242.318 309.288 239.97 303.545 240 296.273C239.97 290.364 241.545 285.197 244.727 280.773C247.939 276.318 252.379 272.848 258.045 270.364C263.742 267.879 270.273 266.636 277.636 266.636C285.152 266.636 291.652 267.894 297.136 270.409C302.621 272.924 306.848 276.47 309.818 281.045C312.818 285.591 314.333 290.909 314.364 297H290.182ZM370.886 330.455V291.182H395.977V361H372.159V347.727H371.432C369.917 352.182 367.265 355.667 363.477 358.182C359.689 360.667 355.189 361.909 349.977 361.909C345.098 361.909 340.826 360.788 337.159 358.545C333.523 356.303 330.689 353.212 328.659 349.273C326.659 345.333 325.644 340.818 325.614 335.727V291.182H350.705V330.455C350.735 333.909 351.614 336.621 353.341 338.591C355.098 340.561 357.553 341.545 360.705 341.545C362.795 341.545 364.598 341.106 366.114 340.227C367.659 339.318 368.841 338.045 369.659 336.409C370.508 334.742 370.917 332.758 370.886 330.455ZM408.739 361V291.182H433.102V304.455H433.83C435.102 299.545 437.117 295.955 439.875 293.682C442.663 291.409 445.92 290.273 449.648 290.273C450.739 290.273 451.814 290.364 452.875 290.545C453.966 290.697 455.011 290.924 456.011 291.227V312.636C454.769 312.212 453.239 311.894 451.42 311.682C449.602 311.47 448.042 311.364 446.739 311.364C444.284 311.364 442.072 311.924 440.102 313.045C438.163 314.136 436.633 315.682 435.511 317.682C434.39 319.652 433.83 321.97 433.83 324.636V361H408.739ZM569.92 267.909V361H548.83L515.193 312.091H514.648V361H489.375V267.909H510.83L543.92 316.636H544.648V267.909H569.92ZM582.239 361V291.182H607.33V361H582.239ZM594.784 283.909C591.39 283.909 588.481 282.788 586.057 280.545C583.633 278.303 582.42 275.606 582.42 272.455C582.42 269.303 583.633 266.606 586.057 264.364C588.481 262.121 591.39 261 594.784 261C598.208 261 601.117 262.121 603.511 264.364C605.936 266.606 607.148 269.303 607.148 272.455C607.148 275.606 605.936 278.303 603.511 280.545C601.117 282.788 598.208 283.909 594.784 283.909ZM620.114 361V291.182H644.477V304.455H645.205C646.477 299.545 648.492 295.955 651.25 293.682C654.038 291.409 657.295 290.273 661.023 290.273C662.114 290.273 663.189 290.364 664.25 290.545C665.341 290.697 666.386 290.924 667.386 291.227V312.636C666.144 312.212 664.614 311.894 662.795 311.682C660.977 311.47 659.417 311.364 658.114 311.364C655.659 311.364 653.447 311.924 651.477 313.045C649.538 314.136 648.008 315.682 646.886 317.682C645.765 319.652 645.205 321.97 645.205 324.636V361H620.114ZM748.102 291.182L724.648 361H695.557L672.102 291.182H698.466L709.739 337.364H710.466L721.739 291.182H748.102ZM772.943 362.091C768.489 362.091 764.549 361.364 761.125 359.909C757.731 358.424 755.064 356.182 753.125 353.182C751.186 350.182 750.216 346.364 750.216 341.727C750.216 337.909 750.867 334.652 752.17 331.955C753.473 329.227 755.292 327 757.625 325.273C759.958 323.545 762.67 322.227 765.761 321.318C768.883 320.409 772.246 319.818 775.852 319.545C779.761 319.242 782.898 318.879 785.261 318.455C787.655 318 789.383 317.379 790.443 316.591C791.504 315.773 792.034 314.697 792.034 313.364V313.182C792.034 311.364 791.337 309.97 789.943 309C788.549 308.03 786.761 307.545 784.58 307.545C782.186 307.545 780.231 308.076 778.716 309.136C777.231 310.167 776.337 311.758 776.034 313.909H752.943C753.246 309.667 754.595 305.758 756.989 302.182C759.413 298.576 762.943 295.697 767.58 293.545C772.216 291.364 778.004 290.273 784.943 290.273C789.943 290.273 794.428 290.864 798.398 292.045C802.367 293.197 805.746 294.818 808.534 296.909C811.322 298.97 813.443 301.394 814.898 304.182C816.383 306.939 817.125 309.939 817.125 313.182V361H793.67V351.182H793.125C791.731 353.788 790.034 355.894 788.034 357.5C786.064 359.106 783.807 360.273 781.261 361C778.746 361.727 775.973 362.091 772.943 362.091ZM781.125 346.273C783.034 346.273 784.822 345.879 786.489 345.091C788.186 344.303 789.564 343.167 790.625 341.682C791.686 340.197 792.216 338.394 792.216 336.273V330.455C791.549 330.727 790.837 330.985 790.08 331.227C789.352 331.47 788.564 331.697 787.716 331.909C786.898 332.121 786.019 332.318 785.08 332.5C784.17 332.682 783.216 332.848 782.216 333C780.277 333.303 778.686 333.803 777.443 334.5C776.231 335.167 775.322 336 774.716 337C774.14 337.97 773.852 339.061 773.852 340.273C773.852 342.212 774.534 343.697 775.898 344.727C777.261 345.758 779.004 346.273 781.125 346.273ZM854.205 321.727V361H829.114V291.182H852.932V304.455H853.659C855.174 300.03 857.841 296.561 861.659 294.045C865.508 291.53 869.992 290.273 875.114 290.273C880.053 290.273 884.341 291.409 887.977 293.682C891.644 295.924 894.477 299.015 896.477 302.955C898.508 306.894 899.508 311.394 899.477 316.455V361H874.386V321.727C874.417 318.273 873.538 315.561 871.75 313.591C869.992 311.621 867.538 310.636 864.386 310.636C862.326 310.636 860.523 311.091 858.977 312C857.462 312.879 856.295 314.152 855.477 315.818C854.659 317.455 854.235 319.424 854.205 321.727ZM931.318 362.091C926.864 362.091 922.924 361.364 919.5 359.909C916.106 358.424 913.439 356.182 911.5 353.182C909.561 350.182 908.591 346.364 908.591 341.727C908.591 337.909 909.242 334.652 910.545 331.955C911.848 329.227 913.667 327 916 325.273C918.333 323.545 921.045 322.227 924.136 321.318C927.258 320.409 930.621 319.818 934.227 319.545C938.136 319.242 941.273 318.879 943.636 318.455C946.03 318 947.758 317.379 948.818 316.591C949.879 315.773 950.409 314.697 950.409 313.364V313.182C950.409 311.364 949.712 309.97 948.318 309C946.924 308.03 945.136 307.545 942.955 307.545C940.561 307.545 938.606 308.076 937.091 309.136C935.606 310.167 934.712 311.758 934.409 313.909H911.318C911.621 309.667 912.97 305.758 915.364 302.182C917.788 298.576 921.318 295.697 925.955 293.545C930.591 291.364 936.379 290.273 943.318 290.273C948.318 290.273 952.803 290.864 956.773 292.045C960.742 293.197 964.121 294.818 966.909 296.909C969.697 298.97 971.818 301.394 973.273 304.182C974.758 306.939 975.5 309.939 975.5 313.182V361H952.045V351.182H951.5C950.106 353.788 948.409 355.894 946.409 357.5C944.439 359.106 942.182 360.273 939.636 361C937.121 361.727 934.348 362.091 931.318 362.091ZM939.5 346.273C941.409 346.273 943.197 345.879 944.864 345.091C946.561 344.303 947.939 343.167 949 341.682C950.061 340.197 950.591 338.394 950.591 336.273V330.455C949.924 330.727 949.212 330.985 948.455 331.227C947.727 331.47 946.939 331.697 946.091 331.909C945.273 332.121 944.394 332.318 943.455 332.5C942.545 332.682 941.591 332.848 940.591 333C938.652 333.303 937.061 333.803 935.818 334.5C934.606 335.167 933.697 336 933.091 337C932.515 337.97 932.227 339.061 932.227 340.273C932.227 342.212 932.909 343.697 934.273 344.727C935.636 345.758 937.379 346.273 939.5 346.273Z"/>
</mask>
<path d="M290.182 297L285.198 297.399L285.566 302H290.182V297ZM286.773 289.909L283.538 293.722L283.552 293.734L283.566 293.745L286.773 289.909ZM271.227 288.318L272.964 293.007L272.987 292.998L273.011 292.989L271.227 288.318ZM267.591 290.818L263.577 287.837H263.577L267.591 290.818ZM266.364 294.455L271.356 294.724L271.361 294.645L271.362 294.566L266.364 294.455ZM266.955 297.5L262.482 299.736L262.528 299.827L262.577 299.915L266.955 297.5ZM269.227 299.909L266.344 303.994L266.385 304.023L266.426 304.051L269.227 299.909ZM278.909 303.364L279.957 298.475L279.936 298.47L279.915 298.466L278.909 303.364ZM286.545 305L285.498 309.889L285.51 309.892L286.545 305ZM299.773 309.318L297.581 313.812L299.773 309.318ZM308.773 315.636L305.17 319.104L305.181 319.115L305.192 319.126L308.773 315.636ZM313.909 323.727L309.21 325.436L309.218 325.457L309.226 325.478L313.909 323.727ZM315.636 333.545L320.636 333.57L320.636 333.536L320.636 333.503L315.636 333.545ZM311.045 349.091L315.114 351.997L311.045 349.091ZM298.045 358.773L296.219 354.118L296.21 354.122L298.045 358.773ZM256.636 358.5L254.783 363.144L254.791 363.147L256.636 358.5ZM242.636 347.455L238.464 350.211L238.474 350.225L238.484 350.24L242.636 347.455ZM237.636 328.273V323.273H232.617L232.636 328.292L237.636 328.273ZM261.636 328.273L266.629 328.007L266.377 323.273H261.636V328.273ZM263.773 335.455L259.592 338.198L259.592 338.198L263.773 335.455ZM269.136 339.864L267.145 344.45L267.156 344.455L267.167 344.459L269.136 339.864ZM284.227 340.364L285.949 345.058L285.949 345.058L284.227 340.364ZM288.364 337.591L292.278 340.702H292.278L288.364 337.591ZM289.818 333.545L294.817 333.645L294.819 333.542L294.817 333.439L289.818 333.545ZM288.409 329.818L284.515 332.955L284.563 333.014L284.613 333.072L288.409 329.818ZM284.045 326.909L282.059 331.498L282.088 331.51L282.117 331.522L284.045 326.909ZM275.818 324.455L276.889 319.571L276.881 319.569L276.872 319.567L275.818 324.455ZM266.545 322.455L265.486 327.341L265.491 327.342L266.545 322.455ZM247.045 313.5L243.719 317.233L243.732 317.244L243.744 317.255L247.045 313.5ZM240 296.273L245 296.294L245 296.27L245 296.247L240 296.273ZM244.727 280.773L240.672 277.848L240.668 277.853L244.727 280.773ZM258.045 270.364L256.046 265.781L256.038 265.785L258.045 270.364ZM297.136 270.409L295.052 274.954V274.954L297.136 270.409ZM309.818 281.045L305.624 283.767L305.635 283.784L305.645 283.8L309.818 281.045ZM314.364 297V302H319.389L319.364 296.975L314.364 297ZM295.166 296.601C294.834 292.45 293.195 288.761 289.979 286.073L283.566 293.745C284.411 294.452 285.045 295.49 285.198 297.399L295.166 296.601ZM290.008 286.097C286.718 283.305 282.282 282.364 277.636 282.364V292.364C281.173 292.364 282.827 293.119 283.538 293.722L290.008 286.097ZM277.636 282.364C274.677 282.364 271.878 282.718 269.444 283.647L273.011 292.989C273.91 292.646 275.384 292.364 277.636 292.364V282.364ZM269.491 283.629C267.232 284.466 265.101 285.785 263.577 287.837L271.605 293.8C271.657 293.73 271.95 293.382 272.964 293.007L269.491 283.629ZM263.577 287.837C262.151 289.757 261.417 291.98 261.365 294.343L271.362 294.566C271.37 294.202 271.456 294 271.605 293.8L263.577 287.837ZM261.371 294.185C261.269 296.079 261.6 297.972 262.482 299.736L271.427 295.264C271.4 295.21 271.338 295.072 271.356 294.724L261.371 294.185ZM262.577 299.915C263.508 301.604 264.85 302.939 266.344 303.994L272.111 295.824C271.544 295.424 271.37 295.153 271.332 295.085L262.577 299.915ZM266.426 304.051C267.904 305.05 269.629 305.856 271.495 306.525L274.869 297.111C273.522 296.629 272.612 296.162 272.029 295.768L266.426 304.051ZM271.495 306.525C273.381 307.201 275.529 307.773 277.903 308.261L279.915 298.466C277.865 298.045 276.195 297.587 274.869 297.111L271.495 306.525ZM277.861 308.253L285.498 309.889L287.593 300.111L279.957 298.475L277.861 308.253ZM285.51 309.892C290.37 310.921 294.371 312.247 297.581 313.812L301.964 304.824C297.842 302.814 293.024 301.261 287.581 300.108L285.51 309.892ZM297.581 313.812C300.83 315.396 303.32 317.181 305.17 319.104L312.375 312.169C309.559 309.243 306.049 306.816 301.964 304.824L297.581 313.812ZM305.192 319.126C307.055 321.037 308.373 323.134 309.21 325.436L318.608 322.019C317.263 318.321 315.158 315.024 312.353 312.146L305.192 319.126ZM309.226 325.478C310.122 327.876 310.611 330.564 310.637 333.588L320.636 333.503C320.601 329.436 319.939 325.579 318.593 321.977L309.226 325.478ZM310.636 333.521C310.61 338.793 309.307 342.922 306.977 346.185L315.114 351.997C318.845 346.775 320.602 340.54 320.636 333.57L310.636 333.521ZM306.977 346.185C304.595 349.519 301.103 352.201 296.219 354.118L299.872 363.427C306.261 360.92 311.435 357.147 315.114 351.997L306.977 346.185ZM296.21 354.122C291.338 356.044 285.252 357.091 277.818 357.091V367.091C286.142 367.091 293.541 365.925 299.881 363.424L296.21 354.122ZM277.818 357.091C270.208 357.091 263.799 355.964 258.481 353.853L254.791 363.147C261.534 365.824 269.246 367.091 277.818 367.091V357.091ZM258.489 353.856C253.347 351.804 249.515 348.735 246.789 344.669L238.484 350.24C242.424 356.114 247.925 360.408 254.783 363.144L258.489 353.856ZM246.808 344.699C244.181 340.721 242.664 335.356 242.636 328.253L232.636 328.292C232.669 336.766 234.486 344.188 238.464 350.211L246.808 344.699ZM237.636 333.273H261.636V323.273H237.636V333.273ZM256.643 328.538C256.831 332.068 257.735 335.367 259.592 338.198L267.953 332.711C267.265 331.664 266.745 330.174 266.629 328.007L256.643 328.538ZM259.592 338.198C261.444 341.019 264.025 343.095 267.145 344.45L271.128 335.277C269.641 334.632 268.647 333.769 267.953 332.711L259.592 338.198ZM267.167 344.459C270.264 345.787 273.738 346.364 277.455 346.364V336.364C274.746 336.364 272.675 335.941 271.106 335.268L267.167 344.459ZM277.455 346.364C280.525 346.364 283.409 345.989 285.949 345.058L282.506 335.669C281.409 336.071 279.778 336.364 277.455 336.364V346.364ZM285.949 345.058C288.389 344.163 290.626 342.78 292.278 340.702L284.45 334.48C284.222 334.766 283.702 335.231 282.506 335.669L285.949 345.058ZM292.278 340.702C293.902 338.659 294.765 336.252 294.817 333.645L284.819 333.445C284.811 333.87 284.704 334.159 284.45 334.48L292.278 340.702ZM294.817 333.439C294.763 330.883 293.884 328.522 292.205 326.564L284.613 333.072C284.753 333.236 284.813 333.359 284.819 333.652L294.817 333.439ZM292.303 326.682C290.686 324.675 288.375 323.299 285.973 322.296L282.117 331.522C283.776 332.216 284.374 332.78 284.515 332.955L292.303 326.682ZM286.032 322.32C283.585 321.262 280.495 320.361 276.889 319.571L274.747 329.338C278.05 330.063 280.445 330.799 282.059 331.498L286.032 322.32ZM276.872 319.567L267.6 317.567L265.491 327.342L274.764 329.342L276.872 319.567ZM267.605 317.568C259.928 315.903 254.288 313.209 250.346 309.745L243.744 317.255C249.318 322.154 256.678 325.43 265.486 327.341L267.605 317.568ZM250.372 309.767C246.879 306.655 244.975 302.369 245 296.294L235 296.252C234.965 304.722 237.757 311.921 243.719 317.233L250.372 309.767ZM245 296.247C244.975 291.3 246.274 287.185 248.787 283.692L240.668 277.853C236.817 283.209 234.965 289.427 235 296.298L245 296.247ZM248.783 283.697C251.409 280.056 255.099 277.115 260.053 274.943L256.038 265.785C249.659 268.582 244.47 272.581 240.672 277.848L248.783 283.697ZM260.044 274.947C265.005 272.783 270.835 271.636 277.636 271.636V261.636C269.71 261.636 262.479 262.975 256.046 265.781L260.044 274.947ZM277.636 271.636C284.604 271.636 290.361 272.803 295.052 274.954L299.221 265.864C292.942 262.985 285.699 261.636 277.636 261.636V271.636ZM295.052 274.954C299.77 277.117 303.225 280.07 305.624 283.767L314.012 278.323C310.472 272.869 305.473 268.731 299.221 265.864L295.052 274.954ZM305.645 283.8C308.048 287.441 309.338 291.786 309.364 297.025L319.364 296.975C319.329 290.032 317.588 283.741 313.991 278.291L305.645 283.8ZM314.364 292H290.182V302H314.364V292ZM370.886 330.455H365.886V330.487L365.887 330.52L370.886 330.455ZM370.886 291.182V286.182H365.886V291.182H370.886ZM395.977 291.182H400.977V286.182H395.977V291.182ZM395.977 361V366H400.977V361H395.977ZM372.159 361H367.159V366H372.159V361ZM372.159 347.727H377.159V342.727H372.159V347.727ZM371.432 347.727V342.727H367.851L366.698 346.117L371.432 347.727ZM363.477 358.182L366.22 362.363L366.231 362.355L366.243 362.347L363.477 358.182ZM337.159 358.545L334.535 362.801L334.543 362.806L334.55 362.811L337.159 358.545ZM328.659 349.273L324.201 351.536L324.208 351.55L324.215 351.563L328.659 349.273ZM325.614 335.727H320.614V335.742L320.614 335.757L325.614 335.727ZM325.614 291.182V286.182H320.614V291.182H325.614ZM350.705 291.182H355.705V286.182H350.705V291.182ZM350.705 330.455H345.705V330.476L345.705 330.498L350.705 330.455ZM353.341 338.591L349.582 341.888L349.596 341.904L349.61 341.92L353.341 338.591ZM366.114 340.227L368.622 344.552L368.635 344.545L368.649 344.537L366.114 340.227ZM369.659 336.409L365.203 334.141L365.195 334.157L365.187 334.173L369.659 336.409ZM375.886 330.455V291.182H365.886V330.455H375.886ZM370.886 296.182H395.977V286.182H370.886V296.182ZM390.977 291.182V361H400.977V291.182H390.977ZM395.977 356H372.159V366H395.977V356ZM377.159 361V347.727H367.159V361H377.159ZM372.159 342.727H371.432V352.727H372.159V342.727ZM366.698 346.117C365.525 349.565 363.545 352.135 360.711 354.016L366.243 362.347C370.985 359.199 374.308 354.798 376.165 349.337L366.698 346.117ZM360.735 354.001C357.879 355.874 354.365 356.909 349.977 356.909V366.909C356.013 366.909 361.5 365.459 366.22 362.363L360.735 354.001ZM349.977 356.909C345.892 356.909 342.547 355.98 339.768 354.28L334.55 362.811C339.104 365.596 344.305 366.909 349.977 366.909V356.909ZM339.784 354.29C336.951 352.543 334.734 350.145 333.104 346.982L324.215 351.563C326.645 356.279 330.094 360.063 334.535 362.801L339.784 354.29ZM333.117 347.009C331.519 343.861 330.64 340.13 330.614 335.698L320.614 335.757C320.648 341.506 321.799 346.806 324.201 351.536L333.117 347.009ZM330.614 335.727V291.182H320.614V335.727H330.614ZM325.614 296.182H350.705V286.182H325.614V296.182ZM345.705 291.182V330.455H355.705V291.182H345.705ZM345.705 330.498C345.742 334.763 346.842 338.763 349.582 341.888L357.1 335.294C356.385 334.479 355.728 333.055 355.704 330.411L345.705 330.498ZM349.61 341.92C352.5 345.159 356.43 346.545 360.705 346.545V336.545C358.676 336.545 357.697 335.963 357.072 335.262L349.61 341.92ZM360.705 346.545C363.505 346.545 366.209 345.952 368.622 344.552L363.605 335.902C362.988 336.26 362.086 336.545 360.705 336.545V346.545ZM368.649 344.537C371.044 343.128 372.89 341.127 374.131 338.645L365.187 334.173C364.791 334.964 364.274 335.509 363.579 335.918L368.649 344.537ZM374.115 338.678C375.407 336.14 375.924 333.318 375.886 330.389L365.887 330.52C365.909 332.198 365.608 333.345 365.203 334.141L374.115 338.678ZM408.739 361H403.739V366H408.739V361ZM408.739 291.182V286.182H403.739V291.182H408.739ZM433.102 291.182H438.102V286.182H433.102V291.182ZM433.102 304.455H428.102V309.455H433.102V304.455ZM433.83 304.455V309.455H437.699L438.67 305.709L433.83 304.455ZM439.875 293.682L436.716 289.806L436.705 289.815L436.695 289.823L439.875 293.682ZM452.875 290.545L452.03 295.474L452.108 295.487L452.187 295.498L452.875 290.545ZM456.011 291.227H461.011V287.518L457.461 286.442L456.011 291.227ZM456.011 312.636L454.396 317.368L461.011 319.627V312.636H456.011ZM451.42 311.682L452 306.715L451.42 311.682ZM440.102 313.045L442.554 317.403L442.565 317.397L442.576 317.391L440.102 313.045ZM435.511 317.682L439.857 320.155L439.865 320.141L439.873 320.127L435.511 317.682ZM433.83 361V366H438.83V361H433.83ZM413.739 361V291.182H403.739V361H413.739ZM408.739 296.182H433.102V286.182H408.739V296.182ZM428.102 291.182V304.455H438.102V291.182H428.102ZM433.102 309.455H433.83V299.455H433.102V309.455ZM438.67 305.709C439.785 301.407 441.389 298.913 443.055 297.54L436.695 289.823C432.846 292.996 430.42 297.683 428.99 303.2L438.67 305.709ZM443.034 297.557C444.895 296.04 447.026 295.273 449.648 295.273V285.273C444.815 285.273 440.43 286.778 436.716 289.806L443.034 297.557ZM449.648 295.273C450.459 295.273 451.252 295.34 452.03 295.474L453.72 285.617C452.376 285.387 451.018 285.273 449.648 285.273V295.273ZM452.187 295.498C453.034 295.616 453.824 295.789 454.561 296.012L457.461 286.442C456.199 286.06 454.898 285.778 453.563 285.593L452.187 295.498ZM451.011 291.227V312.636H461.011V291.227H451.011ZM457.627 307.905C455.946 307.331 454.044 306.954 452 306.715L450.841 316.648C452.433 316.834 453.592 317.094 454.396 317.368L457.627 307.905ZM452 306.715C450.06 306.489 448.295 306.364 446.739 306.364V316.364C447.788 316.364 449.145 316.45 450.841 316.648L452 306.715ZM446.739 306.364C443.491 306.364 440.414 307.115 437.629 308.7L442.576 317.391C443.73 316.734 445.077 316.364 446.739 316.364V306.364ZM437.651 308.688C434.886 310.243 432.706 312.461 431.15 315.237L439.873 320.127C440.559 318.902 441.44 318.03 442.554 317.403L437.651 308.688ZM431.166 315.208C429.546 318.055 428.83 321.256 428.83 324.636H438.83C438.83 322.683 439.235 321.248 439.857 320.155L431.166 315.208ZM428.83 324.636V361H438.83V324.636H428.83ZM433.83 356H408.739V366H433.83V356ZM569.92 267.909H574.92V262.909H569.92V267.909ZM569.92 361V366H574.92V361H569.92ZM548.83 361L544.71 363.833L546.2 366H548.83V361ZM515.193 312.091L519.313 309.258L517.823 307.091H515.193V312.091ZM514.648 312.091V307.091H509.648V312.091H514.648ZM514.648 361V366H519.648V361H514.648ZM489.375 361H484.375V366H489.375V361ZM489.375 267.909V262.909H484.375V267.909H489.375ZM510.83 267.909L514.966 265.1L513.478 262.909H510.83V267.909ZM543.92 316.636L539.784 319.445L541.272 321.636H543.92V316.636ZM544.648 316.636V321.636H549.648V316.636H544.648ZM544.648 267.909V262.909H539.648V267.909H544.648ZM564.92 267.909V361H574.92V267.909H564.92ZM569.92 356H548.83V366H569.92V356ZM552.949 358.167L519.313 309.258L511.073 314.924L544.71 363.833L552.949 358.167ZM515.193 307.091H514.648V317.091H515.193V307.091ZM509.648 312.091V361H519.648V312.091H509.648ZM514.648 356H489.375V366H514.648V356ZM494.375 361V267.909H484.375V361H494.375ZM489.375 272.909H510.83V262.909H489.375V272.909ZM506.693 270.718L539.784 319.445L548.057 313.827L514.966 265.1L506.693 270.718ZM543.92 321.636H544.648V311.636H543.92V321.636ZM549.648 316.636V267.909H539.648V316.636H549.648ZM544.648 272.909H569.92V262.909H544.648V272.909ZM582.239 361H577.239V366H582.239V361ZM582.239 291.182V286.182H577.239V291.182H582.239ZM607.33 291.182H612.33V286.182H607.33V291.182ZM607.33 361V366H612.33V361H607.33ZM586.057 280.545L582.662 284.216V284.216L586.057 280.545ZM586.057 264.364L582.662 260.693V260.693L586.057 264.364ZM603.511 264.364L600.093 268.013L600.105 268.023L600.116 268.034L603.511 264.364ZM603.511 280.545L600.116 276.875L600.105 276.886L600.093 276.896L603.511 280.545ZM587.239 361V291.182H577.239V361H587.239ZM582.239 296.182H607.33V286.182H582.239V296.182ZM602.33 291.182V361H612.33V291.182H602.33ZM607.33 356H582.239V366H607.33V356ZM594.784 278.909C592.61 278.909 590.924 278.237 589.452 276.875L582.662 284.216C586.038 287.339 590.17 288.909 594.784 288.909V278.909ZM589.452 276.875C587.996 275.528 587.42 274.139 587.42 272.455H577.42C577.42 277.073 579.269 281.078 582.662 284.216L589.452 276.875ZM587.42 272.455C587.42 270.77 587.996 269.381 589.452 268.034L582.662 260.693C579.269 263.831 577.42 267.836 577.42 272.455H587.42ZM589.452 268.034C590.924 266.672 592.61 266 594.784 266V256C590.17 256 586.038 257.57 582.662 260.693L589.452 268.034ZM594.784 266C597 266 598.67 266.679 600.093 268.013L606.93 260.715C603.565 257.563 599.416 256 594.784 256V266ZM600.116 268.034C601.573 269.381 602.148 270.77 602.148 272.455H612.148C612.148 267.836 610.299 263.831 606.907 260.693L600.116 268.034ZM602.148 272.455C602.148 274.139 601.573 275.528 600.116 276.875L606.907 284.216C610.299 281.078 612.148 277.073 612.148 272.455H602.148ZM600.093 276.896C598.67 278.23 597 278.909 594.784 278.909V288.909C599.416 288.909 603.565 287.346 606.93 284.195L600.093 276.896ZM620.114 361H615.114V366H620.114V361ZM620.114 291.182V286.182H615.114V291.182H620.114ZM644.477 291.182H649.477V286.182H644.477V291.182ZM644.477 304.455H639.477V309.455H644.477V304.455ZM645.205 304.455V309.455H649.074L650.045 305.709L645.205 304.455ZM651.25 293.682L648.091 289.806L648.08 289.815L648.07 289.823L651.25 293.682ZM664.25 290.545L663.405 295.474L663.483 295.487L663.562 295.498L664.25 290.545ZM667.386 291.227H672.386V287.518L668.836 286.442L667.386 291.227ZM667.386 312.636L665.771 317.368L672.386 319.627V312.636H667.386ZM662.795 311.682L663.375 306.715H663.375L662.795 311.682ZM651.477 313.045L653.929 317.403L653.94 317.397L653.951 317.391L651.477 313.045ZM646.886 317.682L651.232 320.155L651.24 320.141L651.248 320.127L646.886 317.682ZM645.205 361V366H650.205V361H645.205ZM625.114 361V291.182H615.114V361H625.114ZM620.114 296.182H644.477V286.182H620.114V296.182ZM639.477 291.182V304.455H649.477V291.182H639.477ZM644.477 309.455H645.205V299.455H644.477V309.455ZM650.045 305.709C651.16 301.407 652.764 298.913 654.43 297.54L648.07 289.823C644.221 292.996 641.795 297.683 640.365 303.2L650.045 305.709ZM654.409 297.557C656.27 296.04 658.401 295.273 661.023 295.273V285.273C656.19 285.273 651.805 286.778 648.091 289.806L654.409 297.557ZM661.023 295.273C661.834 295.273 662.627 295.34 663.405 295.474L665.095 285.617C663.751 285.387 662.393 285.273 661.023 285.273V295.273ZM663.562 295.498C664.409 295.616 665.199 295.789 665.936 296.012L668.836 286.442C667.574 286.06 666.273 285.778 664.938 285.593L663.562 295.498ZM662.386 291.227V312.636H672.386V291.227H662.386ZM669.002 307.905C667.321 307.331 665.419 306.954 663.375 306.715L662.216 316.648C663.808 316.834 664.967 317.094 665.771 317.368L669.002 307.905ZM663.375 306.715C661.435 306.489 659.67 306.364 658.114 306.364V316.364C659.163 316.364 660.52 316.45 662.216 316.648L663.375 306.715ZM658.114 306.364C654.866 306.364 651.789 307.115 649.004 308.7L653.951 317.391C655.105 316.734 656.452 316.364 658.114 316.364V306.364ZM649.026 308.688C646.261 310.243 644.081 312.461 642.525 315.237L651.248 320.127C651.934 318.902 652.815 318.03 653.929 317.403L649.026 308.688ZM642.541 315.208C640.921 318.055 640.205 321.256 640.205 324.636H650.205C650.205 322.683 650.61 321.248 651.232 320.155L642.541 315.208ZM640.205 324.636V361H650.205V324.636H640.205ZM645.205 356H620.114V366H645.205V356ZM748.102 291.182L752.842 292.774L755.057 286.182H748.102V291.182ZM724.648 361V366H728.243L729.387 362.592L724.648 361ZM695.557 361L690.817 362.592L691.962 366H695.557V361ZM672.102 291.182V286.182H665.148L667.363 292.774L672.102 291.182ZM698.466 291.182L703.323 289.996L702.392 286.182H698.466V291.182ZM709.739 337.364L704.881 338.549L705.812 342.364H709.739V337.364ZM710.466 337.364V342.364H714.392L715.323 338.549L710.466 337.364ZM721.739 291.182V286.182H717.812L716.881 289.996L721.739 291.182ZM743.363 289.59L719.908 359.408L729.387 362.592L752.842 292.774L743.363 289.59ZM724.648 356H695.557V366H724.648V356ZM700.297 359.408L676.842 289.59L667.363 292.774L690.817 362.592L700.297 359.408ZM672.102 296.182H698.466V286.182H672.102V296.182ZM693.609 292.367L704.881 338.549L714.596 336.178L703.323 289.996L693.609 292.367ZM709.739 342.364H710.466V332.364H709.739V342.364ZM715.323 338.549L726.596 292.367L716.881 289.996L705.609 336.178L715.323 338.549ZM721.739 296.182H748.102V286.182H721.739V296.182ZM761.125 359.909L759.121 364.49L759.145 364.501L759.17 364.511L761.125 359.909ZM753.125 353.182L748.926 355.896L753.125 353.182ZM752.17 331.955L756.673 334.13L756.677 334.12L756.682 334.11L752.17 331.955ZM757.625 325.273L760.6 329.291L757.625 325.273ZM765.761 321.318L764.363 316.518L764.351 316.521L765.761 321.318ZM775.852 319.545L776.229 324.531L776.239 324.53L775.852 319.545ZM785.261 318.455L786.145 323.376L786.169 323.371L786.194 323.367L785.261 318.455ZM790.443 316.591L793.425 320.605L793.461 320.578L793.497 320.55L790.443 316.591ZM789.943 309L787.088 313.105V313.105L789.943 309ZM778.716 309.136L781.566 313.244L781.575 313.238L781.583 313.233L778.716 309.136ZM776.034 313.909V318.909H780.379L780.985 314.606L776.034 313.909ZM752.943 313.909L747.956 313.553L747.573 318.909H752.943V313.909ZM756.989 302.182L752.839 299.392L752.834 299.4L756.989 302.182ZM767.58 293.545L769.684 298.081L769.696 298.075L769.709 298.07L767.58 293.545ZM798.398 292.045L796.971 296.838L796.988 296.843L797.005 296.848L798.398 292.045ZM808.534 296.909L805.534 300.909L805.548 300.92L805.562 300.93L808.534 296.909ZM814.898 304.182L810.465 306.495L810.48 306.524L810.495 306.552L814.898 304.182ZM817.125 361V366H822.125V361H817.125ZM793.67 361H788.67V366H793.67V361ZM793.67 351.182H798.67V346.182H793.67V351.182ZM793.125 351.182V346.182H790.129L788.716 348.824L793.125 351.182ZM788.034 357.5L784.903 353.601L784.889 353.613L784.874 353.625L788.034 357.5ZM781.261 361L779.888 356.192L779.88 356.195L779.872 356.197L781.261 361ZM786.489 345.091L784.383 340.556L784.367 340.563L784.352 340.571L786.489 345.091ZM790.625 341.682L786.556 338.776L790.625 341.682ZM792.216 330.455H797.216V323.007L790.323 325.827L792.216 330.455ZM790.08 331.227L788.556 326.465L788.527 326.474L788.498 326.484L790.08 331.227ZM787.716 331.909L786.503 327.058L786.482 327.064L786.461 327.069L787.716 331.909ZM785.08 332.5L784.129 327.591L784.114 327.594L784.099 327.597L785.08 332.5ZM782.216 333L781.467 328.056L781.455 328.058L781.444 328.06L782.216 333ZM777.443 334.5L779.853 338.881L779.871 338.871L779.889 338.861L777.443 334.5ZM774.716 337L770.44 334.408L770.428 334.428L770.417 334.447L774.716 337ZM775.898 344.727L778.912 340.738L775.898 344.727ZM772.943 357.091C769.03 357.091 765.776 356.453 763.08 355.307L759.17 364.511C763.322 366.275 767.947 367.091 772.943 367.091V357.091ZM763.129 355.328C760.599 354.221 758.71 352.612 757.324 350.467L748.926 355.896C751.419 359.752 754.863 362.627 759.121 364.49L763.129 355.328ZM757.324 350.467C756.042 348.485 755.216 345.683 755.216 341.727H745.216C745.216 347.044 746.329 351.879 748.926 355.896L757.324 350.467ZM755.216 341.727C755.216 338.462 755.774 335.988 756.673 334.13L747.668 329.779C745.96 333.315 745.216 337.356 745.216 341.727H755.216ZM756.682 334.11C757.648 332.089 758.951 330.512 760.6 329.291L754.65 321.254C751.633 323.488 749.299 326.366 747.659 329.799L756.682 334.11ZM760.6 329.291C762.413 327.95 764.583 326.877 767.172 326.115L764.351 316.521C760.758 317.578 757.504 319.141 754.65 321.254L760.6 329.291ZM767.16 326.119C769.913 325.317 772.931 324.781 776.229 324.531L775.475 314.56C771.561 314.856 767.852 315.501 764.363 316.518L767.16 326.119ZM776.239 324.53C780.225 324.222 783.547 323.842 786.145 323.376L784.378 313.533C782.249 313.915 779.298 314.263 775.466 314.56L776.239 324.53ZM786.194 323.367C788.806 322.871 791.44 322.079 793.425 320.605L787.462 312.577C787.462 312.577 787.406 312.618 787.267 312.688C787.13 312.758 786.932 312.845 786.66 312.943C786.109 313.141 785.346 313.349 784.329 313.542L786.194 323.367ZM793.497 320.55C795.778 318.79 797.034 316.255 797.034 313.364H787.034C787.034 313.364 787.034 313.32 787.052 313.24C787.069 313.159 787.101 313.062 787.152 312.96C787.202 312.857 787.259 312.774 787.311 312.713C787.361 312.653 787.394 312.629 787.389 312.632L793.497 320.55ZM797.034 313.364V313.182H787.034V313.364H797.034ZM797.034 313.182C797.034 309.863 795.644 306.875 792.799 304.895L787.088 313.105C787.134 313.137 787.135 313.144 787.113 313.12C787.103 313.108 787.09 313.092 787.076 313.071C787.062 313.051 787.05 313.03 787.039 313.009C787.029 312.988 787.022 312.971 787.019 312.961C787.015 312.95 787.015 312.949 787.017 312.958C787.021 312.977 787.034 313.047 787.034 313.182H797.034ZM792.799 304.895C790.356 303.197 787.492 302.545 784.58 302.545V312.545C786.031 312.545 786.742 312.864 787.088 313.105L792.799 304.895ZM784.58 302.545C781.46 302.545 778.421 303.24 775.849 305.04L781.583 313.233C782.041 312.912 782.911 312.545 784.58 312.545V302.545ZM775.865 305.028C773.007 307.012 771.538 309.983 771.083 313.212L780.985 314.606C781.136 313.533 781.455 313.321 781.566 313.244L775.865 305.028ZM776.034 308.909H752.943V318.909H776.034V308.909ZM757.93 314.265C758.171 310.901 759.227 307.826 761.143 304.963L752.834 299.4C749.962 303.689 748.322 308.433 747.956 313.553L757.93 314.265ZM761.138 304.971C762.969 302.248 765.728 299.917 769.684 298.081L765.475 289.01C760.158 291.477 755.857 294.904 752.839 299.392L761.138 304.971ZM769.709 298.07C773.487 296.292 778.493 295.273 784.943 295.273V285.273C777.515 285.273 770.945 286.436 765.451 289.021L769.709 298.07ZM784.943 295.273C789.557 295.273 793.549 295.819 796.971 296.838L799.824 287.253C795.308 285.909 790.33 285.273 784.943 285.273V295.273ZM797.005 296.848C800.5 297.861 803.31 299.241 805.534 300.909L811.534 292.909C808.183 290.396 804.235 288.532 799.791 287.243L797.005 296.848ZM805.562 300.93C807.803 302.586 809.396 304.446 810.465 306.495L819.331 301.869C817.49 298.342 814.841 295.353 811.506 292.888L805.562 300.93ZM810.495 306.552C811.574 308.555 812.125 310.737 812.125 313.182H822.125C822.125 309.142 821.191 305.324 819.3 301.811L810.495 306.552ZM812.125 313.182V361H822.125V313.182H812.125ZM817.125 356H793.67V366H817.125V356ZM798.67 361V351.182H788.67V361H798.67ZM793.67 346.182H793.125V356.182H793.67V346.182ZM788.716 348.824C787.592 350.925 786.304 352.477 784.903 353.601L791.165 361.399C793.764 359.311 795.87 356.651 797.534 353.54L788.716 348.824ZM784.874 353.625C783.453 354.784 781.808 355.644 779.888 356.192L782.635 365.808C785.805 364.902 788.676 363.428 791.194 361.375L784.874 353.625ZM779.872 356.197C777.873 356.775 775.576 357.091 772.943 357.091V367.091C776.371 367.091 779.619 366.68 782.65 365.803L779.872 356.197ZM781.125 351.273C783.746 351.273 786.267 350.726 788.626 349.611L784.352 340.571C783.377 341.031 782.322 341.273 781.125 341.273V351.273ZM788.594 349.626C791.055 348.484 793.117 346.795 794.694 344.588L786.556 338.776C786.011 339.539 785.317 340.122 784.383 340.556L788.594 349.626ZM794.694 344.588C796.454 342.123 797.216 339.261 797.216 336.273H787.216C787.216 337.527 786.917 338.271 786.556 338.776L794.694 344.588ZM797.216 336.273V330.455H787.216V336.273H797.216ZM790.323 325.827C789.789 326.045 789.201 326.259 788.556 326.465L791.603 335.989C792.473 335.711 793.309 335.409 794.109 335.082L790.323 325.827ZM788.498 326.484C787.908 326.681 787.244 326.873 786.503 327.058L788.929 336.76C789.884 336.521 790.797 336.259 791.661 335.971L788.498 326.484ZM786.461 327.069C785.756 327.252 784.98 327.427 784.129 327.591L786.03 337.409C787.058 337.21 788.04 336.99 788.971 336.749L786.461 327.069ZM784.099 327.597C783.273 327.762 782.396 327.916 781.467 328.056L782.965 337.944C784.036 337.781 785.068 337.601 786.06 337.403L784.099 327.597ZM781.444 328.06C779.123 328.423 776.914 329.064 774.997 330.139L779.889 338.861C780.457 338.542 781.43 338.183 782.988 337.94L781.444 328.06ZM775.034 330.119C773.195 331.13 771.577 332.532 770.44 334.408L778.992 339.592C779.067 339.468 779.268 339.203 779.853 338.881L775.034 330.119ZM770.417 334.447C769.348 336.247 768.852 338.232 768.852 340.273H778.852C778.852 339.889 778.932 339.692 779.015 339.553L770.417 334.447ZM768.852 340.273C768.852 343.538 770.089 346.605 772.884 348.717L778.912 340.738C778.874 340.71 778.871 340.701 778.882 340.715C778.894 340.73 778.904 340.746 778.907 340.754C778.918 340.777 778.852 340.655 778.852 340.273H768.852ZM772.884 348.717C775.307 350.547 778.183 351.273 781.125 351.273V341.273C779.825 341.273 779.216 340.968 778.912 340.738L772.884 348.717ZM854.205 321.727L849.205 321.661L849.205 321.694V321.727H854.205ZM854.205 361V366H859.205V361H854.205ZM829.114 361H824.114V366H829.114V361ZM829.114 291.182V286.182H824.114V291.182H829.114ZM852.932 291.182H857.932V286.182H852.932V291.182ZM852.932 304.455H847.932V309.455H852.932V304.455ZM853.659 304.455V309.455H857.232L858.389 306.075L853.659 304.455ZM861.659 294.045L858.924 289.86L858.916 289.865L858.909 289.87L861.659 294.045ZM887.977 293.682L885.327 297.922L885.348 297.935L885.369 297.947L887.977 293.682ZM896.477 302.955L892.019 305.218L892.026 305.232L892.033 305.245L896.477 302.955ZM899.477 316.455L894.477 316.425L894.477 316.44V316.455H899.477ZM899.477 361V366H904.477V361H899.477ZM874.386 361H869.386V366H874.386V361ZM874.386 321.727L869.387 321.683L869.386 321.705V321.727H874.386ZM871.75 313.591L868.019 316.92L868.033 316.936L868.048 316.951L871.75 313.591ZM858.977 312L861.486 316.325L861.499 316.317L861.512 316.31L858.977 312ZM855.477 315.818L859.949 318.054L859.958 318.038L859.966 318.022L855.477 315.818ZM849.205 321.727V361H859.205V321.727H849.205ZM854.205 356H829.114V366H854.205V356ZM834.114 361V291.182H824.114V361H834.114ZM829.114 296.182H852.932V286.182H829.114V296.182ZM847.932 291.182V304.455H857.932V291.182H847.932ZM852.932 309.455H853.659V299.455H852.932V309.455ZM858.389 306.075C859.555 302.672 861.539 300.112 864.41 298.221L858.909 289.87C854.143 293.009 850.794 297.389 848.929 302.835L858.389 306.075ZM864.394 298.231C867.339 296.307 870.849 295.273 875.114 295.273V285.273C869.135 285.273 863.676 286.754 858.924 289.86L864.394 298.231ZM875.114 295.273C879.261 295.273 882.6 296.218 885.327 297.922L890.627 289.442C886.081 286.601 880.845 285.273 875.114 285.273V295.273ZM885.369 297.947C888.222 299.693 890.426 302.08 892.019 305.218L900.936 300.691C898.529 295.95 895.066 292.156 890.586 289.416L885.369 297.947ZM892.033 305.245C893.644 308.371 894.504 312.056 894.477 316.425L904.477 316.484C904.512 310.732 903.371 305.417 900.922 300.664L892.033 305.245ZM894.477 316.455V361H904.477V316.455H894.477ZM899.477 356H874.386V366H899.477V356ZM879.386 361V321.727H869.386V361H879.386ZM879.386 321.771C879.424 317.446 878.314 313.383 875.452 310.23L868.048 316.951C868.762 317.738 869.409 319.099 869.387 321.683L879.386 321.771ZM875.481 310.262C872.591 307.023 868.661 305.636 864.386 305.636V315.636C866.415 315.636 867.394 316.219 868.019 316.92L875.481 310.262ZM864.386 305.636C861.569 305.636 858.865 306.265 856.442 307.69L861.512 316.31C862.181 315.917 863.082 315.636 864.386 315.636V305.636ZM856.469 307.675C854.046 309.08 852.215 311.117 850.989 313.615L859.966 318.022C860.376 317.186 860.878 316.678 861.486 316.325L856.469 307.675ZM851.005 313.582C849.774 316.044 849.243 318.794 849.205 321.661L859.204 321.793C859.227 320.054 859.544 318.865 859.949 318.054L851.005 313.582ZM919.5 359.909L917.496 364.49L917.52 364.501L917.545 364.511L919.5 359.909ZM911.5 353.182L907.301 355.896L911.5 353.182ZM910.545 331.955L915.048 334.13L915.052 334.12L915.057 334.11L910.545 331.955ZM916 325.273L918.975 329.291L916 325.273ZM924.136 321.318L922.738 316.518L922.726 316.521L924.136 321.318ZM934.227 319.545L934.604 324.531L934.614 324.53L934.227 319.545ZM943.636 318.455L944.52 323.376L944.544 323.371L944.569 323.367L943.636 318.455ZM948.818 316.591L951.8 320.605L951.836 320.578L951.872 320.55L948.818 316.591ZM948.318 309L945.463 313.105V313.105L948.318 309ZM937.091 309.136L939.941 313.244L939.95 313.238L939.958 313.233L937.091 309.136ZM934.409 313.909V318.909H938.754L939.36 314.606L934.409 313.909ZM911.318 313.909L906.331 313.553L905.948 318.909H911.318V313.909ZM915.364 302.182L911.214 299.392L911.209 299.4L915.364 302.182ZM925.955 293.545L928.059 298.081L928.071 298.075L928.084 298.07L925.955 293.545ZM956.773 292.045L955.346 296.838L955.363 296.843L955.38 296.848L956.773 292.045ZM966.909 296.909L963.909 300.909L963.923 300.92L963.937 300.93L966.909 296.909ZM973.273 304.182L968.84 306.495L968.855 306.524L968.87 306.552L973.273 304.182ZM975.5 361V366H980.5V361H975.5ZM952.045 361H947.045V366H952.045V361ZM952.045 351.182H957.045V346.182H952.045V351.182ZM951.5 351.182V346.182H948.504L947.091 348.824L951.5 351.182ZM946.409 357.5L943.278 353.601L943.264 353.613L943.249 353.625L946.409 357.5ZM939.636 361L938.263 356.192L938.255 356.195L938.247 356.197L939.636 361ZM944.864 345.091L942.758 340.556L942.742 340.563L942.727 340.571L944.864 345.091ZM949 341.682L944.931 338.776L949 341.682ZM950.591 330.455H955.591V323.007L948.698 325.827L950.591 330.455ZM948.455 331.227L946.931 326.465L946.902 326.474L946.873 326.484L948.455 331.227ZM946.091 331.909L944.878 327.058L944.857 327.064L944.836 327.069L946.091 331.909ZM943.455 332.5L942.504 327.591L942.489 327.594L942.474 327.597L943.455 332.5ZM940.591 333L939.842 328.056L939.83 328.058L939.819 328.06L940.591 333ZM935.818 334.5L938.228 338.881L938.246 338.871L938.264 338.861L935.818 334.5ZM933.091 337L928.815 334.408L928.803 334.428L928.792 334.447L933.091 337ZM934.273 344.727L937.287 340.738L934.273 344.727ZM931.318 357.091C927.405 357.091 924.151 356.453 921.455 355.307L917.545 364.511C921.697 366.275 926.322 367.091 931.318 367.091V357.091ZM921.504 355.328C918.974 354.221 917.085 352.612 915.699 350.467L907.301 355.896C909.794 359.752 913.238 362.627 917.496 364.49L921.504 355.328ZM915.699 350.467C914.417 348.485 913.591 345.683 913.591 341.727H903.591C903.591 347.044 904.704 351.879 907.301 355.896L915.699 350.467ZM913.591 341.727C913.591 338.462 914.149 335.988 915.048 334.13L906.043 329.779C904.335 333.315 903.591 337.356 903.591 341.727H913.591ZM915.057 334.11C916.023 332.089 917.326 330.512 918.975 329.291L913.025 321.254C910.008 323.488 907.674 326.366 906.034 329.799L915.057 334.11ZM918.975 329.291C920.788 327.95 922.958 326.877 925.547 326.115L922.726 316.521C919.133 317.578 915.879 319.141 913.025 321.254L918.975 329.291ZM925.535 326.119C928.288 325.317 931.306 324.781 934.604 324.531L933.85 314.56C929.936 314.856 926.227 315.501 922.738 316.518L925.535 326.119ZM934.614 324.53C938.6 324.222 941.922 323.842 944.52 323.376L942.753 313.533C940.624 313.915 937.673 314.263 933.841 314.56L934.614 324.53ZM944.569 323.367C947.181 322.871 949.815 322.079 951.8 320.605L945.837 312.577C945.837 312.577 945.781 312.618 945.642 312.688C945.505 312.758 945.307 312.845 945.035 312.943C944.484 313.141 943.721 313.349 942.704 313.542L944.569 323.367ZM951.872 320.55C954.153 318.79 955.409 316.255 955.409 313.364H945.409C945.409 313.364 945.409 313.32 945.427 313.24C945.444 313.159 945.476 313.062 945.527 312.96C945.577 312.857 945.634 312.774 945.686 312.713C945.736 312.653 945.769 312.629 945.764 312.632L951.872 320.55ZM955.409 313.364V313.182H945.409V313.364H955.409ZM955.409 313.182C955.409 309.863 954.019 306.875 951.174 304.895L945.463 313.105C945.509 313.137 945.51 313.144 945.488 313.12C945.478 313.108 945.465 313.092 945.451 313.071C945.437 313.051 945.425 313.03 945.414 313.009C945.404 312.988 945.397 312.971 945.394 312.961C945.39 312.95 945.39 312.949 945.392 312.958C945.396 312.977 945.409 313.047 945.409 313.182H955.409ZM951.174 304.895C948.731 303.197 945.867 302.545 942.955 302.545V312.545C944.406 312.545 945.117 312.864 945.463 313.105L951.174 304.895ZM942.955 302.545C939.835 302.545 936.796 303.24 934.224 305.04L939.958 313.233C940.416 312.912 941.286 312.545 942.955 312.545V302.545ZM934.24 305.028C931.382 307.012 929.913 309.983 929.458 313.212L939.36 314.606C939.511 313.533 939.83 313.321 939.941 313.244L934.24 305.028ZM934.409 308.909H911.318V318.909H934.409V308.909ZM916.305 314.265C916.546 310.901 917.602 307.826 919.518 304.963L911.209 299.4C908.337 303.689 906.697 308.433 906.331 313.553L916.305 314.265ZM919.513 304.971C921.344 302.248 924.103 299.917 928.059 298.081L923.85 289.01C918.533 291.477 914.232 294.904 911.214 299.392L919.513 304.971ZM928.084 298.07C931.862 296.292 936.868 295.273 943.318 295.273V285.273C935.89 285.273 929.32 286.436 923.826 289.021L928.084 298.07ZM943.318 295.273C947.932 295.273 951.924 295.819 955.346 296.838L958.199 287.253C953.683 285.909 948.705 285.273 943.318 285.273V295.273ZM955.38 296.848C958.875 297.861 961.685 299.241 963.909 300.909L969.909 292.909C966.558 290.396 962.61 288.532 958.166 287.243L955.38 296.848ZM963.937 300.93C966.178 302.586 967.771 304.446 968.84 306.495L977.706 301.869C975.865 298.342 973.216 295.353 969.881 292.888L963.937 300.93ZM968.87 306.552C969.949 308.555 970.5 310.737 970.5 313.182H980.5C980.5 309.142 979.566 305.324 977.675 301.811L968.87 306.552ZM970.5 313.182V361H980.5V313.182H970.5ZM975.5 356H952.045V366H975.5V356ZM957.045 361V351.182H947.045V361H957.045ZM952.045 346.182H951.5V356.182H952.045V346.182ZM947.091 348.824C945.967 350.925 944.679 352.477 943.278 353.601L949.54 361.399C952.139 359.311 954.245 356.651 955.909 353.54L947.091 348.824ZM943.249 353.625C941.828 354.784 940.183 355.644 938.263 356.192L941.01 365.808C944.18 364.902 947.051 363.428 949.569 361.375L943.249 353.625ZM938.247 356.197C936.248 356.775 933.951 357.091 931.318 357.091V367.091C934.746 367.091 937.994 366.68 941.025 365.803L938.247 356.197ZM939.5 351.273C942.121 351.273 944.642 350.726 947.001 349.611L942.727 340.571C941.752 341.031 940.697 341.273 939.5 341.273V351.273ZM946.969 349.626C949.43 348.484 951.492 346.795 953.069 344.588L944.931 338.776C944.386 339.539 943.692 340.122 942.758 340.556L946.969 349.626ZM953.069 344.588C954.829 342.123 955.591 339.261 955.591 336.273H945.591C945.591 337.527 945.292 338.271 944.931 338.776L953.069 344.588ZM955.591 336.273V330.455H945.591V336.273H955.591ZM948.698 325.827C948.164 326.045 947.576 326.259 946.931 326.465L949.978 335.989C950.848 335.711 951.684 335.409 952.484 335.082L948.698 325.827ZM946.873 326.484C946.283 326.681 945.619 326.873 944.878 327.058L947.304 336.76C948.259 336.521 949.172 336.259 950.036 335.971L946.873 326.484ZM944.836 327.069C944.131 327.252 943.355 327.427 942.504 327.591L944.405 337.409C945.433 337.21 946.415 336.99 947.346 336.749L944.836 327.069ZM942.474 327.597C941.648 327.762 940.771 327.916 939.842 328.056L941.34 337.944C942.411 337.781 943.443 337.601 944.435 337.403L942.474 327.597ZM939.819 328.06C937.498 328.423 935.289 329.064 933.372 330.139L938.264 338.861C938.832 338.542 939.805 338.183 941.363 337.94L939.819 328.06ZM933.409 330.119C931.57 331.13 929.952 332.532 928.815 334.408L937.367 339.592C937.442 339.468 937.643 339.203 938.228 338.881L933.409 330.119ZM928.792 334.447C927.723 336.247 927.227 338.232 927.227 340.273H937.227C937.227 339.889 937.307 339.692 937.39 339.553L928.792 334.447ZM927.227 340.273C927.227 343.538 928.464 346.605 931.259 348.717L937.287 340.738C937.249 340.71 937.246 340.701 937.257 340.715C937.269 340.73 937.279 340.746 937.282 340.754C937.293 340.777 937.227 340.655 937.227 340.273H927.227ZM931.259 348.717C933.682 350.547 936.558 351.273 939.5 351.273V341.273C938.2 341.273 937.591 340.968 937.287 340.738L931.259 348.717Z" fill="url(#paint4_linear_146_73)" mask="url(#path-5-outside-1_146_73)"/>
<path d="M63.5234 34.8515L56 54.625H64.0948L67.8088 43.9341L63.5234 34.8515Z" fill="white"/>
<path d="M74.4751 54.625L64.8566 34H72.7609L82.3794 54.625H74.4751Z" fill="white"/>
<path d="M79.1073 39.0143L76.917 34H84.5356L87.0116 39.0143H79.1073Z" fill="white"/>
<path d="M86.2498 54.625L79.4883 40.3389H87.4878L94.4398 54.625H86.2498Z" fill="white"/>
<path d="M90.882 39.0143L88.6916 34H101.643L104.024 39.0143H90.882Z" fill="white"/>
<path d="M100.405 54.625L93.8342 40.3389H101.643L108.5 54.625H100.405Z" fill="white"/>
<path d="M140.648 39.3636V35.5455H155.818V39.3636H150.568V53H145.898V39.3636H140.648ZM157.602 53V35.5455H170.181V39.3636H162.34V42.3636H169.533V46.1818H162.34V49.1818H170.147V53H157.602ZM188.827 42.0909H184.02C183.986 41.6932 183.895 41.3324 183.747 41.0085C183.605 40.6847 183.406 40.4062 183.151 40.1733C182.901 39.9347 182.597 39.7528 182.239 39.6278C181.881 39.4972 181.474 39.4318 181.02 39.4318C180.224 39.4318 179.551 39.625 179 40.0114C178.455 40.3977 178.04 40.9517 177.756 41.6733C177.477 42.3949 177.338 43.2614 177.338 44.2727C177.338 45.3409 177.48 46.2358 177.764 46.9574C178.054 47.6733 178.472 48.2131 179.017 48.5767C179.563 48.9347 180.219 49.1136 180.986 49.1136C181.423 49.1136 181.815 49.0597 182.162 48.9517C182.509 48.8381 182.81 48.6761 183.065 48.4659C183.321 48.2557 183.528 48.0028 183.688 47.7074C183.852 47.4062 183.963 47.0682 184.02 46.6932L188.827 46.7273C188.77 47.4659 188.563 48.2187 188.205 48.9858C187.847 49.7472 187.338 50.4517 186.679 51.0994C186.026 51.7415 185.216 52.2585 184.25 52.6506C183.284 53.0426 182.162 53.2386 180.884 53.2386C179.281 53.2386 177.844 52.8949 176.571 52.2074C175.304 51.5199 174.301 50.5085 173.562 49.1733C172.83 47.8381 172.463 46.2045 172.463 44.2727C172.463 42.3295 172.838 40.6932 173.588 39.3636C174.338 38.0284 175.349 37.0199 176.622 36.3381C177.895 35.6506 179.315 35.3068 180.884 35.3068C181.986 35.3068 183 35.4574 183.926 35.7585C184.852 36.0597 185.665 36.5 186.364 37.0795C187.063 37.6534 187.625 38.3608 188.051 39.2017C188.477 40.0426 188.736 41.0057 188.827 42.0909ZM190.977 53V35.5455H195.715V42.3636H201.988V35.5455H206.727V53H201.988V46.1818H195.715V53H190.977ZM224.079 35.5455V53H220.124L213.817 43.8295H213.715V53H208.977V35.5455H212.999L219.204 44.6818H219.34V35.5455H224.079ZM243.229 44.2727C243.229 46.2159 242.852 47.8551 242.096 49.1903C241.34 50.5199 240.32 51.5284 239.036 52.2159C237.752 52.8977 236.32 53.2386 234.741 53.2386C233.15 53.2386 231.712 52.8949 230.428 52.2074C229.15 51.5142 228.133 50.5028 227.377 49.1733C226.627 47.8381 226.252 46.2045 226.252 44.2727C226.252 42.3295 226.627 40.6932 227.377 39.3636C228.133 38.0284 229.15 37.0199 230.428 36.3381C231.712 35.6506 233.15 35.3068 234.741 35.3068C236.32 35.3068 237.752 35.6506 239.036 36.3381C240.32 37.0199 241.34 38.0284 242.096 39.3636C242.852 40.6932 243.229 42.3295 243.229 44.2727ZM238.354 44.2727C238.354 43.2273 238.215 42.3466 237.937 41.6307C237.664 40.9091 237.258 40.3636 236.718 39.9943C236.184 39.6193 235.525 39.4318 234.741 39.4318C233.957 39.4318 233.295 39.6193 232.755 39.9943C232.221 40.3636 231.815 40.9091 231.536 41.6307C231.263 42.3466 231.127 43.2273 231.127 44.2727C231.127 45.3182 231.263 46.2017 231.536 46.9233C231.815 47.6392 232.221 48.1847 232.755 48.5597C233.295 48.929 233.957 49.1136 234.741 49.1136C235.525 49.1136 236.184 48.929 236.718 48.5597C237.258 48.1847 237.664 47.6392 237.937 46.9233C238.215 46.2017 238.354 45.3182 238.354 44.2727ZM254.831 41C254.786 40.4318 254.572 39.9886 254.192 39.6705C253.817 39.3523 253.246 39.1932 252.479 39.1932C251.99 39.1932 251.589 39.2528 251.277 39.3722C250.97 39.4858 250.743 39.642 250.595 39.8409C250.447 40.0398 250.371 40.267 250.365 40.5227C250.354 40.733 250.391 40.9233 250.476 41.0938C250.567 41.2585 250.709 41.4091 250.902 41.5455C251.095 41.6761 251.342 41.7955 251.643 41.9034C251.945 42.0114 252.303 42.108 252.717 42.1932L254.149 42.5C255.115 42.7045 255.942 42.9744 256.629 43.3097C257.317 43.6449 257.879 44.0398 258.317 44.4943C258.754 44.9432 259.075 45.4489 259.28 46.0114C259.49 46.5739 259.598 47.1875 259.604 47.8523C259.598 49 259.311 49.9716 258.743 50.767C258.175 51.5625 257.362 52.1676 256.305 52.5824C255.254 52.9972 253.99 53.2045 252.513 53.2045C250.996 53.2045 249.672 52.9801 248.541 52.5312C247.416 52.0824 246.541 51.392 245.916 50.4602C245.297 49.5227 244.984 48.3239 244.979 46.8636H249.479C249.507 47.3977 249.641 47.8466 249.879 48.2102C250.118 48.5739 250.453 48.8494 250.885 49.0369C251.322 49.2244 251.842 49.3182 252.445 49.3182C252.95 49.3182 253.374 49.2557 253.714 49.1307C254.055 49.0057 254.314 48.8324 254.49 48.6108C254.666 48.3892 254.757 48.1364 254.763 47.8523C254.757 47.5852 254.669 47.3523 254.499 47.1534C254.334 46.9489 254.061 46.767 253.68 46.608C253.3 46.4432 252.786 46.2898 252.138 46.1477L250.399 45.7727C248.854 45.4375 247.635 44.8778 246.743 44.0938C245.857 43.304 245.416 42.2273 245.422 40.8636C245.416 39.7557 245.712 38.7869 246.308 37.9574C246.911 37.1222 247.743 36.4716 248.805 36.0057C249.874 35.5398 251.098 35.3068 252.479 35.3068C253.888 35.3068 255.107 35.5426 256.135 36.0142C257.163 36.4858 257.956 37.1506 258.513 38.0085C259.075 38.8608 259.359 39.858 259.365 41H254.831ZM261.406 53V35.5455H268.94C270.236 35.5455 271.369 35.8011 272.341 36.3125C273.313 36.8239 274.068 37.5426 274.608 38.4688C275.148 39.3949 275.418 40.4773 275.418 41.7159C275.418 42.9659 275.139 44.0483 274.582 44.9631C274.031 45.8778 273.256 46.5824 272.256 47.0767C271.261 47.571 270.099 47.8182 268.77 47.8182H264.27V44.1364H267.815C268.372 44.1364 268.847 44.0398 269.239 43.8466C269.636 43.6477 269.94 43.3665 270.151 43.0028C270.366 42.6392 270.474 42.2102 270.474 41.7159C270.474 41.2159 270.366 40.7898 270.151 40.4375C269.94 40.0795 269.636 39.8068 269.239 39.6193C268.847 39.4261 268.372 39.3295 267.815 39.3295H266.145V53H261.406ZM279.511 53H274.397L280.158 35.5455H286.636L292.397 53H287.283L283.465 40.3523H283.329L279.511 53ZM278.556 46.1136H288.17V49.6591H278.556V46.1136ZM294.078 53V35.5455H301.612C302.908 35.5455 304.041 35.7812 305.013 36.2528C305.984 36.7244 306.74 37.4034 307.28 38.2898C307.82 39.1761 308.089 40.2386 308.089 41.4773C308.089 42.7273 307.811 43.7812 307.254 44.6392C306.703 45.4972 305.928 46.1449 304.928 46.5824C303.933 47.0199 302.771 47.2386 301.442 47.2386H296.942V43.5568H300.487C301.044 43.5568 301.518 43.4886 301.911 43.3523C302.308 43.2102 302.612 42.9858 302.822 42.679C303.038 42.3722 303.146 41.9716 303.146 41.4773C303.146 40.9773 303.038 40.571 302.822 40.2585C302.612 39.9403 302.308 39.7074 301.911 39.5597C301.518 39.4062 301.044 39.3295 300.487 39.3295H298.817V53H294.078ZM304.305 44.9886L308.669 53H303.521L299.26 44.9886H304.305ZM315.189 35.5455L318.053 40.625H318.189L321.087 35.5455H326.371L321.155 44.2727L326.575 53H321.155L318.189 47.8182H318.053L315.087 53H309.7L315.053 44.2727L309.871 35.5455H315.189Z" fill="white"/>
<g opacity="0.25" clip-path="url(#clip1_146_73)">
<path d="M153.814 504.586L147.527 506.529C155.356 531.869 143.391 558.147 120.857 565.109C98.3227 572.071 73.6198 557.123 65.7906 531.783L59.5032 533.725C68.017 561.281 94.1694 577.979 119.088 572.617L129.295 605.651L91.5674 617.307L93.5957 623.872L178.475 597.647L176.447 591.082L135.579 603.709L125.393 570.741C149.746 561.584 162.465 532.585 153.814 504.586Z" fill="url(#paint5_linear_146_73)"/>
<path d="M152.494 426.082C156.531 425.515 161.232 424.4 165.834 422.978C170.436 421.556 174.952 419.82 178.6 418.017C188.042 413.344 194.057 406.664 199.304 399.926L211.181 381.924L180.594 376.175C175.445 374.991 169.069 376.939 165.065 380.898L155.7 390.177L142.729 387.799C137.19 386.781 130.822 388.785 127.333 392.563L105.232 414.659L125.442 422.913C133.327 425.428 142.061 427.547 152.494 426.082ZM132.067 397.45C134.17 395.175 138.327 393.916 141.729 394.537L157.967 397.517L169.692 385.897C172.142 383.461 176.288 382.155 179.442 382.878L199.92 386.73L193.977 395.751C187.653 403.85 182.345 408.503 175.638 411.819C168.869 415.169 158.923 418.242 151.447 419.293C144.041 420.334 137.03 419.49 127.487 416.456L117.246 412.267L132.067 397.45Z" fill="url(#paint6_linear_146_73)"/>
<path d="M161.624 409.353C164.715 408.398 167.705 407.122 170.576 405.534L177.204 401.864L173.98 395.809L167.356 399.481C162.383 402.233 156.985 403.901 151.323 404.435L143.78 405.144L144.533 411.962L152.076 411.253C155.345 410.944 158.534 410.308 161.624 409.353Z" fill="url(#paint7_linear_146_73)"/>
<path d="M46.032 458.782C46.0005 458.68 45.946 458.592 45.9124 458.495L45.9271 458.487L33.0454 426.837L51.6089 421.101L49.5806 414.536L24.1324 422.399L35.962 451.469C35.1624 451.5 34.3569 451.602 33.5584 451.848C28.3588 453.455 25.4924 459.18 27.1698 464.609C28.8472 470.038 34.4437 473.149 39.6433 471.543C44.843 469.936 47.7094 464.211 46.032 458.782ZM37.615 464.978C35.8797 465.514 34.017 464.479 33.4572 462.667C32.8974 460.855 33.8514 458.949 35.5867 458.413C37.278 457.89 39.0702 458.876 39.6799 460.604L39.7504 460.776C40.2769 462.57 39.3346 464.447 37.615 464.978Z" fill="url(#paint8_linear_146_73)"/>
<path d="M200.768 469.17C199.667 469.104 198.544 469.192 197.437 469.534C192.237 471.14 189.371 476.866 191.048 482.295C192.726 487.724 198.322 490.835 203.522 489.228C208.722 487.621 211.588 481.896 209.911 476.467L194.475 426.509L159.185 446.042L167.302 472.315C166.201 472.252 165.078 472.34 163.972 472.682C158.772 474.288 155.906 480.014 157.583 485.443C159.261 490.872 164.857 493.983 170.057 492.376C175.256 490.77 178.123 485.044 176.445 479.615L171.192 462.612L194.719 449.59L200.768 469.17ZM201.494 482.663C199.758 483.199 197.896 482.164 197.336 480.352C196.776 478.54 197.73 476.635 199.465 476.098C201.201 475.562 203.063 476.598 203.623 478.41C204.183 480.221 203.229 482.127 201.494 482.663ZM168.028 485.811C166.293 486.348 164.43 485.312 163.871 483.5C163.311 481.688 164.265 479.783 166 479.247C167.736 478.71 169.598 479.746 170.158 481.558C170.718 483.37 169.764 485.275 168.028 485.811ZM169.124 455.92L167.136 449.483L190.662 436.461L192.651 442.897L169.124 455.92Z" fill="url(#paint9_linear_146_73)"/>
<path d="M217.135 522.141L227.135 554.508C226.035 554.446 224.912 554.534 223.805 554.876C218.605 556.482 215.739 562.208 217.416 567.637C219.094 573.066 224.69 576.177 229.89 574.57C235.09 572.963 237.956 567.238 236.279 561.809L228.852 537.772L250.756 519.498L254.516 531.666C253.415 531.603 252.292 531.691 251.185 532.033C245.986 533.64 243.119 539.365 244.797 544.794C246.474 550.223 252.071 553.334 257.27 551.727C262.47 550.121 265.336 544.395 263.659 538.966L249.991 494.73L217.135 522.141ZM227.862 568.005C226.126 568.541 224.264 567.506 223.704 565.694C223.144 563.882 224.098 561.977 225.833 561.44C227.569 560.904 229.431 561.94 229.991 563.752C230.551 565.563 229.597 567.469 227.862 568.005ZM255.242 545.163C253.507 545.699 251.644 544.664 251.084 542.852C250.524 541.04 251.478 539.134 253.214 538.598C254.949 538.062 256.812 539.097 257.372 540.909C257.931 542.721 256.977 544.627 255.242 545.163ZM248.572 512.428L226.667 530.702L224.795 524.643L246.7 506.369L248.572 512.428Z" fill="url(#paint10_linear_146_73)"/>
<path d="M56.2747 480.787L72.5011 533.305C78.6519 553.213 99.1709 564.618 118.237 558.727C137.304 552.836 147.813 531.844 141.662 511.936L125.436 459.418C119.285 439.511 98.7662 428.105 79.6997 433.996C60.6332 439.887 50.1239 460.879 56.2747 480.787ZM81.728 440.561C95.1673 436.409 109.462 442.772 116.391 455.021L98.2581 460.624L100.286 467.189L119.149 461.361L121.177 467.926L102.315 473.753L104.343 480.318L123.205 474.49L125.233 481.055L106.371 486.883L108.4 493.448L127.262 487.62L135.375 513.879C140.408 530.17 131.811 547.342 116.209 552.162C100.607 556.983 83.8217 547.653 78.7885 531.362L70.6753 505.103L89.5374 499.276L87.5091 492.711L68.647 498.539L66.6187 491.974L85.4808 486.146L83.4525 479.581L64.5904 485.409L62.5621 478.844L81.4242 473.017L79.3959 466.452L61.2631 472.054C60.0715 458.032 68.2887 444.713 81.728 440.561Z" fill="url(#paint11_linear_146_73)"/>
</g>
<g opacity="0.25" clip-path="url(#clip2_146_73)">
<path fill-rule="evenodd" clip-rule="evenodd" d="M1117.02 58.1252C1114.38 60.094 1112.71 63.0295 1112.16 66.176C1111.61 69.3401 1112.18 72.7326 1113.99 75.5979C1114.46 76.3361 1114.98 77.0041 1115.56 77.6018C1118.8 78.0061 1122.78 76.1779 1126.27 73.4533C1129.88 70.6233 1132.91 66.8791 1134.07 63.592C1134.1 63.5217 1134.12 63.4514 1134.14 63.3811C1133.86 62.7131 1133.52 62.0451 1133.12 61.4123C1131.3 58.5471 1128.6 56.7365 1125.7 56.1389C1122.78 55.5588 1119.66 56.1565 1117.02 58.1252ZM1050.96 79.1838C1051.84 78.6213 1052.74 78.217 1053.68 77.9358L1053.75 77.549H1053.89H1053.91L1055.35 77.5842C1056.5 77.4436 1057.67 77.5139 1058.78 77.7776C1061.47 77.9709 1064.19 78.2346 1066.61 78.4807C1068.42 78.6565 1070.05 78.8322 1071.46 78.9377C1090.49 80.2912 1099.42 91.1545 1106.33 99.6096C1109.38 103.354 1112.05 106.571 1114.9 108.047C1116.24 108.733 1118.36 107.766 1120.78 106.658C1122.23 105.99 1123.77 105.27 1125.41 104.813C1126.46 104.391 1127.04 104.145 1127.48 103.951C1128.06 103.705 1128.45 103.547 1128.68 103.459L1136.53 100.102C1132.74 95.7248 1127.5 89.01 1123.98 84.51C1122.77 82.9631 1121.76 81.6799 1121.07 80.801C1120.03 80.5549 1119.04 80.1506 1118.1 79.6057C1121.16 79.0256 1124.44 77.3029 1127.35 75.0178C1130.51 72.5393 1133.29 69.3928 1134.98 66.3166C1135.19 67.635 1135.21 68.9533 1135.04 70.2541C1135.63 71.4494 1136.47 73.1194 1137.47 75.1233C1140.6 81.3283 1145.21 90.5217 1147.21 95.7072C1149.25 95.3381 1151.48 95.9182 1153.47 97.2014C1155.14 98.2736 1156.68 99.8733 1157.78 101.789C1158.88 103.74 1159.56 106.061 1159.55 108.627C1159.53 112.301 1158.02 116.414 1154.27 120.475C1154.1 120.651 1153.91 120.774 1153.7 120.844L1136.36 128.297L1134.75 128.912C1125.46 132.498 1118.74 135.065 1106.96 131.918C1106.86 131.901 1106.8 131.848 1106.72 131.813C1098.48 128.332 1094.2 123.516 1090.05 118.805L1089.44 118.119L1084.18 144.328C1088.87 147.545 1093.59 149.918 1098.02 152.168C1111.51 159.006 1122.59 164.613 1124.97 187.606C1125.49 192.58 1125.1 197.748 1124.86 202.758L1126.35 235.383C1126.31 236.262 1125.63 236.93 1124.84 236.912L1104 236.983C1103.19 236.983 1102.54 236.262 1102.54 235.401C1102.77 220.055 1100.05 215.889 1100.78 200.561C1101.02 195.955 1101.6 190.453 1099.8 186.199L1099.59 185.725C1098.75 183.738 1097.97 181.91 1096.82 181.313C1094.52 180.153 1090.86 178.711 1086.72 177.235C1081.96 175.529 1076.65 173.824 1071.97 172.383L1048.37 236.033C1048.11 236.596 1047.54 236.93 1047.01 236.895L1025.11 237.018C1024.3 237.018 1023.66 236.332 1023.66 235.453C1023.66 235.242 1034.31 207.082 1035.67 202.846C1040.74 187.043 1043.53 174.281 1047.12 161.344C1044.99 158.496 1042.94 155.332 1041.57 151.834C1040.03 147.967 1039.28 143.783 1040.05 139.283L1047.82 108.838L1033.21 118.278C1029.6 120.598 1025.28 120.405 1021.92 118.19L1021.89 118.242L998.701 102.756C993.535 99.3283 991.931 91.9983 995.089 86.3908C998.264 80.7834 1005.02 79.0432 1010.17 82.4885L1027.72 94.2131L1050.96 79.1838ZM1149.04 48.4924L1150.02 48.9143L1149.89 49.2658C1152.13 50.9358 1151.95 52.3596 1149.78 53.7658C1150.67 51.8147 1150.64 51.3049 1149.39 50.6545L1147.53 55.7346C1147.53 55.7697 1147.51 55.7873 1147.51 55.8225C1147.27 56.4904 1146.4 56.8596 1145.55 56.6662C1144.71 56.4729 1144.23 55.7873 1144.47 55.1194C1144.79 54.2229 1146.22 53.924 1146.85 54.5217L1149.04 48.4924ZM1127.59 45.9084C1127.98 45.9963 1128.32 46.1545 1128.6 46.3655L1131.43 38.6487L1123.04 37.7522L1119.76 46.717C1119.74 46.7697 1119.72 46.8225 1119.71 46.8752C1119.27 48.0881 1117.67 48.7737 1116.13 48.4221C1114.59 48.0705 1113.7 46.8049 1114.15 45.592C1114.59 44.3791 1116.21 43.6936 1117.73 44.0451C1118.31 44.1682 1118.8 44.4494 1119.16 44.7834L1123.21 33.7444L1123.27 33.7795L1133.89 35.5549L1129.34 47.9826C1129.33 48.0881 1129.29 48.176 1129.26 48.2639C1128.89 49.2658 1127.55 49.8635 1126.27 49.5647C1124.99 49.2658 1124.24 48.2112 1124.61 47.2092C1124.95 46.1897 1126.3 45.6096 1127.59 45.9084ZM1138.8 99.1174L1145.08 96.4104C1141.98 88.4123 1137.93 81.3283 1134.1 73.6994C1133.29 75.9846 1132.1 77.3908 1130.09 78.8674C1128.11 80.3264 1126.91 80.9944 1124.7 81.0295C1129.47 87.1643 1133.73 93.299 1138.8 99.1174ZM1107.17 79.2541C1105.83 78.9729 1104.53 79.9397 1104.27 81.3987C1104.01 82.8576 1104.91 84.2639 1106.25 84.5451C1107.59 84.8264 1108.89 83.8596 1109.15 82.4006C1109.41 80.9416 1108.52 79.5354 1107.17 79.2541ZM1073 22.3362C1078.96 20.1213 1085.2 20.7541 1090.44 23.5315C1095.69 26.3088 1099.97 31.301 1102.01 37.7697C1104.05 44.2385 1103.46 51.0061 1100.91 56.7014C1098.35 62.3967 1093.75 67.0373 1087.79 69.2522C1081.83 71.467 1075.59 70.8342 1070.35 68.0569C1065.1 65.2795 1060.82 60.2873 1058.78 53.8186C1056.74 47.3498 1057.33 40.5822 1059.88 34.8869C1062.44 29.1916 1067.03 24.551 1073 22.3362Z" fill="url(#paint12_linear_146_73)"/>
</g>
</g>
<defs>
<linearGradient id="paint0_linear_146_73" x1="-63.757" y1="-34.0073" x2="-63.757" y2="347.166" gradientUnits="userSpaceOnUse">
<stop stop-color="#FF9E0B"/>
<stop offset="1" stop-color="#EC4899"/>
</linearGradient>
<linearGradient id="paint1_linear_146_73" x1="1173" y1="695.827" x2="1173" y2="969.442" gradientUnits="userSpaceOnUse">
<stop stop-color="#FF9E0B"/>
<stop offset="1" stop-color="#F24E52"/>
</linearGradient>
<linearGradient id="paint2_linear_146_73" x1="882.5" y1="530" x2="882.5" y2="919" gradientUnits="userSpaceOnUse">
<stop stop-color="#FF9E0B"/>
<stop offset="1" stop-color="#9C67E7"/>
</linearGradient>
<linearGradient id="paint3_linear_146_73" x1="491" y1="30" x2="491" y2="162" gradientUnits="userSpaceOnUse">
<stop stop-color="#FF9E0B"/>
<stop offset="1" stop-color="#DA46EB"/>
</linearGradient>
<linearGradient id="paint4_linear_146_73" x1="608" y1="237" x2="608" y2="392" gradientUnits="userSpaceOnUse">
<stop stop-color="#FF9E0B"/>
<stop offset="0.49" stop-color="#F24E52"/>
</linearGradient>
<linearGradient id="paint5_linear_146_73" x1="106.659" y1="519.156" x2="135.055" y2="611.062" gradientUnits="userSpaceOnUse">
<stop stop-color="#FF9E0B"/>
<stop offset="1" stop-color="#EC4899"/>
</linearGradient>
<linearGradient id="paint6_linear_146_73" x1="153.325" y1="382.493" x2="165.834" y2="422.978" gradientUnits="userSpaceOnUse">
<stop stop-color="#FF9E0B"/>
<stop offset="1" stop-color="#EC4899"/>
</linearGradient>
<linearGradient id="paint7_linear_146_73" x1="158.879" y1="400.475" x2="161.623" y2="409.353" gradientUnits="userSpaceOnUse">
<stop stop-color="#FF9E0B"/>
<stop offset="1" stop-color="#EC4899"/>
</linearGradient>
<linearGradient id="paint8_linear_146_73" x1="32.2903" y1="419.879" x2="47.5026" y2="469.114" gradientUnits="userSpaceOnUse">
<stop stop-color="#FF9E0B"/>
<stop offset="1" stop-color="#EC4899"/>
</linearGradient>
<linearGradient id="paint9_linear_146_73" x1="169.326" y1="434.279" x2="187.804" y2="494.084" gradientUnits="userSpaceOnUse">
<stop stop-color="#FF9E0B"/>
<stop offset="1" stop-color="#EC4899"/>
</linearGradient>
<linearGradient id="paint10_linear_146_73" x1="224.842" y1="502.5" x2="245.608" y2="569.714" gradientUnits="userSpaceOnUse">
<stop stop-color="#FF9E0B"/>
<stop offset="1" stop-color="#EC4899"/>
</linearGradient>
<linearGradient id="paint11_linear_146_73" x1="79.6997" y1="433.996" x2="118.237" y2="558.727" gradientUnits="userSpaceOnUse">
<stop stop-color="#FF9E0B"/>
<stop offset="1" stop-color="#EC4899"/>
</linearGradient>
<linearGradient id="paint12_linear_146_73" x1="1076.51" y1="20.9995" x2="1076.51" y2="237.018" gradientUnits="userSpaceOnUse">
<stop stop-color="#EC4899"/>
<stop offset="1" stop-color="#FF9E0B"/>
</linearGradient>
<clipPath id="clip0_146_73">
<rect width="1200" height="630" fill="white"/>
</clipPath>
<clipPath id="clip1_146_73">
<rect width="204" height="213" fill="white" transform="translate(15 425.221) rotate(-17.1694)"/>
</clipPath>
<clipPath id="clip2_146_73">
<rect width="199" height="216" fill="white" transform="translate(977 21)"/>
</clipPath>
</defs>
</svg>
