<svg width="1200" height="630" viewBox="0 0 1200 630" fill="none" xmlns="http://www.w3.org/2000/svg">
<g clip-path="url(#clip0_133_103)">
<rect width="1200" height="630" fill="black"/>
<rect x="-427.809" y="-32.4841" width="729.486" height="376.173" transform="rotate(-19.4848 -427.809 -32.4841)" stroke="url(#paint0_linear_133_103)" stroke-width="5"/>
<rect x="883" y="695.827" width="580" height="273.616" transform="rotate(-35.26 883 695.827)" fill="url(#paint1_linear_133_103)"/>
<circle cx="882.5" cy="724.5" r="193" stroke="url(#paint2_linear_133_103)" stroke-width="3"/>
<path opacity="0.49" d="M415 58.3636C414.121 58.3636 413.367 58.0568 412.739 57.4432C412.117 56.822 411.811 56.0682 411.818 55.1818C411.811 54.3182 412.117 53.5795 412.739 52.9659C413.367 52.3523 414.121 52.0455 415 52.0455C415.833 52.0455 416.568 52.3523 417.205 52.9659C417.848 53.5795 418.174 54.3182 418.182 55.1818C418.174 55.7727 418.019 56.3106 417.716 56.7955C417.42 57.2727 417.034 57.6553 416.557 57.9432C416.08 58.2235 415.561 58.3636 415 58.3636ZM459.003 58.3636C458.124 58.3636 457.37 58.0568 456.741 57.4432C456.12 56.822 455.813 56.0682 455.821 55.1818C455.813 54.3182 456.12 53.5795 456.741 52.9659C457.37 52.3523 458.124 52.0455 459.003 52.0455C459.836 52.0455 460.571 52.3523 461.207 52.9659C461.851 53.5795 462.177 54.3182 462.184 55.1818C462.177 55.7727 462.021 56.3106 461.718 56.7955C461.423 57.2727 461.037 57.6553 460.559 57.9432C460.082 58.2235 459.563 58.3636 459.003 58.3636ZM503.005 58.3636C502.126 58.3636 501.372 58.0568 500.744 57.4432C500.122 56.822 499.816 56.0682 499.823 55.1818C499.816 54.3182 500.122 53.5795 500.744 52.9659C501.372 52.3523 502.126 52.0455 503.005 52.0455C503.838 52.0455 504.573 52.3523 505.21 52.9659C505.853 53.5795 506.179 54.3182 506.187 55.1818C506.179 55.7727 506.024 56.3106 505.721 56.7955C505.425 57.2727 505.039 57.6553 504.562 57.9432C504.085 58.2235 503.566 58.3636 503.005 58.3636ZM547.008 58.3636C546.129 58.3636 545.375 58.0568 544.746 57.4432C544.125 56.822 543.818 56.0682 543.826 55.1818C543.818 54.3182 544.125 53.5795 544.746 52.9659C545.375 52.3523 546.129 52.0455 547.008 52.0455C547.841 52.0455 548.576 52.3523 549.212 52.9659C549.856 53.5795 550.182 54.3182 550.189 55.1818C550.182 55.7727 550.026 56.3106 549.723 56.7955C549.428 57.2727 549.042 57.6553 548.564 57.9432C548.087 58.2235 547.568 58.3636 547.008 58.3636ZM415 91.3636C414.121 91.3636 413.367 91.0568 412.739 90.4432C412.117 89.822 411.811 89.0682 411.818 88.1818C411.811 87.3182 412.117 86.5795 412.739 85.9659C413.367 85.3523 414.121 85.0455 415 85.0455C415.833 85.0455 416.568 85.3523 417.205 85.9659C417.848 86.5795 418.174 87.3182 418.182 88.1818C418.174 88.7727 418.019 89.3106 417.716 89.7955C417.42 90.2727 417.034 90.6553 416.557 90.9432C416.08 91.2235 415.561 91.3636 415 91.3636ZM459.003 91.3636C458.124 91.3636 457.37 91.0568 456.741 90.4432C456.12 89.822 455.813 89.0682 455.821 88.1818C455.813 87.3182 456.12 86.5795 456.741 85.9659C457.37 85.3523 458.124 85.0455 459.003 85.0455C459.836 85.0455 460.571 85.3523 461.207 85.9659C461.851 86.5795 462.177 87.3182 462.184 88.1818C462.177 88.7727 462.021 89.3106 461.718 89.7955C461.423 90.2727 461.037 90.6553 460.559 90.9432C460.082 91.2235 459.563 91.3636 459.003 91.3636ZM503.005 91.3636C502.126 91.3636 501.372 91.0568 500.744 90.4432C500.122 89.822 499.816 89.0682 499.823 88.1818C499.816 87.3182 500.122 86.5795 500.744 85.9659C501.372 85.3523 502.126 85.0455 503.005 85.0455C503.838 85.0455 504.573 85.3523 505.21 85.9659C505.853 86.5795 506.179 87.3182 506.187 88.1818C506.179 88.7727 506.024 89.3106 505.721 89.7955C505.425 90.2727 505.039 90.6553 504.562 90.9432C504.085 91.2235 503.566 91.3636 503.005 91.3636ZM547.008 91.3636C546.129 91.3636 545.375 91.0568 544.746 90.4432C544.125 89.822 543.818 89.0682 543.826 88.1818C543.818 87.3182 544.125 86.5795 544.746 85.9659C545.375 85.3523 546.129 85.0455 547.008 85.0455C547.841 85.0455 548.576 85.3523 549.212 85.9659C549.856 86.5795 550.182 87.3182 550.189 88.1818C550.182 88.7727 550.026 89.3106 549.723 89.7955C549.428 90.2727 549.042 90.6553 548.564 90.9432C548.087 91.2235 547.568 91.3636 547.008 91.3636ZM415 124.364C414.121 124.364 413.367 124.057 412.739 123.443C412.117 122.822 411.811 122.068 411.818 121.182C411.811 120.318 412.117 119.58 412.739 118.966C413.367 118.352 414.121 118.045 415 118.045C415.833 118.045 416.568 118.352 417.205 118.966C417.848 119.58 418.174 120.318 418.182 121.182C418.174 121.773 418.019 122.311 417.716 122.795C417.42 123.273 417.034 123.655 416.557 123.943C416.08 124.223 415.561 124.364 415 124.364ZM459.003 124.364C458.124 124.364 457.37 124.057 456.741 123.443C456.12 122.822 455.813 122.068 455.821 121.182C455.813 120.318 456.12 119.58 456.741 118.966C457.37 118.352 458.124 118.045 459.003 118.045C459.836 118.045 460.571 118.352 461.207 118.966C461.851 119.58 462.177 120.318 462.184 121.182C462.177 121.773 462.021 122.311 461.718 122.795C461.423 123.273 461.037 123.655 460.559 123.943C460.082 124.223 459.563 124.364 459.003 124.364ZM503.005 124.364C502.126 124.364 501.372 124.057 500.744 123.443C500.122 122.822 499.816 122.068 499.823 121.182C499.816 120.318 500.122 119.58 500.744 118.966C501.372 118.352 502.126 118.045 503.005 118.045C503.838 118.045 504.573 118.352 505.21 118.966C505.853 119.58 506.179 120.318 506.187 121.182C506.179 121.773 506.024 122.311 505.721 122.795C505.425 123.273 505.039 123.655 504.562 123.943C504.085 124.223 503.566 124.364 503.005 124.364ZM547.008 124.364C546.129 124.364 545.375 124.057 544.746 123.443C544.125 122.822 543.818 122.068 543.826 121.182C543.818 120.318 544.125 119.58 544.746 118.966C545.375 118.352 546.129 118.045 547.008 118.045C547.841 118.045 548.576 118.352 549.212 118.966C549.856 119.58 550.182 120.318 550.189 121.182C550.182 121.773 550.026 122.311 549.723 122.795C549.428 123.273 549.042 123.655 548.564 123.943C548.087 124.223 547.568 124.364 547.008 124.364ZM415 157.364C414.121 157.364 413.367 157.057 412.739 156.443C412.117 155.822 411.811 155.068 411.818 154.182C411.811 153.318 412.117 152.58 412.739 151.966C413.367 151.352 414.121 151.045 415 151.045C415.833 151.045 416.568 151.352 417.205 151.966C417.848 152.58 418.174 153.318 418.182 154.182C418.174 154.773 418.019 155.311 417.716 155.795C417.42 156.273 417.034 156.655 416.557 156.943C416.08 157.223 415.561 157.364 415 157.364ZM459.003 157.364C458.124 157.364 457.37 157.057 456.741 156.443C456.12 155.822 455.813 155.068 455.821 154.182C455.813 153.318 456.12 152.58 456.741 151.966C457.37 151.352 458.124 151.045 459.003 151.045C459.836 151.045 460.571 151.352 461.207 151.966C461.851 152.58 462.177 153.318 462.184 154.182C462.177 154.773 462.021 155.311 461.718 155.795C461.423 156.273 461.037 156.655 460.559 156.943C460.082 157.223 459.563 157.364 459.003 157.364ZM503.005 157.364C502.126 157.364 501.372 157.057 500.744 156.443C500.122 155.822 499.816 155.068 499.823 154.182C499.816 153.318 500.122 152.58 500.744 151.966C501.372 151.352 502.126 151.045 503.005 151.045C503.838 151.045 504.573 151.352 505.21 151.966C505.853 152.58 506.179 153.318 506.187 154.182C506.179 154.773 506.024 155.311 505.721 155.795C505.425 156.273 505.039 156.655 504.562 156.943C504.085 157.223 503.566 157.364 503.005 157.364ZM547.008 157.364C546.129 157.364 545.375 157.057 544.746 156.443C544.125 155.822 543.818 155.068 543.826 154.182C543.818 153.318 544.125 152.58 544.746 151.966C545.375 151.352 546.129 151.045 547.008 151.045C547.841 151.045 548.576 151.352 549.212 151.966C549.856 152.58 550.182 153.318 550.189 154.182C550.182 154.773 550.026 155.311 549.723 155.795C549.428 156.273 549.042 156.655 548.564 156.943C548.087 157.223 547.568 157.364 547.008 157.364Z" fill="url(#paint3_linear_133_103)"/>
<mask id="path-5-outside-1_133_103" maskUnits="userSpaceOnUse" x="118" y="273" width="962" height="85" fill="black">
<rect fill="white" x="118" y="273" width="962" height="85"/>
<path d="M123.699 295.182V279.273H186.909V295.182H165.034V352H145.574V295.182H123.699ZM194.34 352V279.273H246.755V295.182H214.084V307.682H244.056V323.591H214.084V336.091H246.613V352H194.34ZM324.445 306.545H304.416C304.274 304.888 303.895 303.385 303.28 302.036C302.688 300.686 301.859 299.526 300.794 298.555C299.752 297.561 298.486 296.804 296.994 296.283C295.503 295.738 293.81 295.466 291.916 295.466C288.602 295.466 285.796 296.271 283.5 297.881C281.227 299.491 279.499 301.799 278.315 304.805C277.155 307.812 276.575 311.422 276.575 315.636C276.575 320.087 277.167 323.816 278.351 326.822C279.558 329.805 281.298 332.054 283.571 333.57C285.844 335.061 288.578 335.807 291.774 335.807C293.597 335.807 295.231 335.582 296.675 335.132C298.119 334.659 299.374 333.984 300.439 333.108C301.504 332.232 302.368 331.179 303.031 329.947C303.718 328.693 304.179 327.284 304.416 325.722L324.445 325.864C324.208 328.941 323.344 332.078 321.852 335.274C320.361 338.446 318.242 341.382 315.496 344.081C312.773 346.756 309.4 348.911 305.375 350.544C301.35 352.178 296.675 352.994 291.348 352.994C284.672 352.994 278.682 351.562 273.379 348.697C268.1 345.833 263.921 341.619 260.844 336.055C257.79 330.492 256.263 323.686 256.263 315.636C256.263 307.54 257.825 300.722 260.95 295.182C264.075 289.618 268.289 285.416 273.592 282.575C278.895 279.711 284.814 278.278 291.348 278.278C295.941 278.278 300.167 278.906 304.026 280.161C307.884 281.415 311.27 283.25 314.182 285.665C317.094 288.056 319.438 291.003 321.213 294.507C322.989 298.011 324.066 302.024 324.445 306.545ZM333.402 352V279.273H353.147V307.682H379.283V279.273H399.027V352H379.283V323.591H353.147V352H333.402ZM467.529 302C467.339 299.633 466.452 297.786 464.865 296.46C463.303 295.134 460.924 294.472 457.728 294.472C455.692 294.472 454.023 294.72 452.721 295.217C451.442 295.691 450.495 296.342 449.88 297.17C449.264 297.999 448.944 298.946 448.921 300.011C448.873 300.887 449.027 301.68 449.382 302.391C449.761 303.077 450.353 303.705 451.158 304.273C451.963 304.817 452.993 305.314 454.248 305.764C455.502 306.214 456.994 306.616 458.722 306.972L464.688 308.25C468.712 309.102 472.157 310.227 475.022 311.624C477.886 313.02 480.23 314.666 482.053 316.56C483.876 318.43 485.213 320.537 486.066 322.881C486.942 325.224 487.391 327.781 487.415 330.551C487.391 335.333 486.196 339.382 483.828 342.696C481.461 346.01 478.076 348.532 473.672 350.26C469.292 351.988 464.025 352.852 457.87 352.852C451.549 352.852 446.033 351.917 441.321 350.047C436.634 348.177 432.988 345.3 430.384 341.418C427.803 337.511 426.501 332.516 426.478 326.432H445.228C445.346 328.657 445.902 330.527 446.897 332.043C447.891 333.558 449.288 334.706 451.087 335.487C452.91 336.268 455.076 336.659 457.586 336.659C459.693 336.659 461.456 336.399 462.877 335.878C464.297 335.357 465.374 334.635 466.108 333.712C466.842 332.788 467.221 331.735 467.245 330.551C467.221 329.438 466.854 328.468 466.144 327.639C465.457 326.787 464.321 326.029 462.735 325.366C461.149 324.68 459.006 324.041 456.307 323.449L449.063 321.886C442.623 320.49 437.545 318.158 433.828 314.891C430.135 311.6 428.301 307.114 428.324 301.432C428.301 296.815 429.532 292.779 432.017 289.322C434.527 285.842 437.995 283.132 442.422 281.19C446.873 279.249 451.975 278.278 457.728 278.278C463.599 278.278 468.677 279.261 472.962 281.226C477.247 283.191 480.55 285.961 482.87 289.536C485.213 293.087 486.397 297.241 486.421 302H467.529ZM494.926 352V279.273H514.67V307.682H540.806V279.273H560.551V352H540.806V323.591H514.67V352H494.926ZM640.38 315.636C640.38 323.733 638.806 330.563 635.657 336.126C632.509 341.666 628.259 345.868 622.909 348.733C617.558 351.574 611.592 352.994 605.011 352.994C598.382 352.994 592.393 351.562 587.042 348.697C581.716 345.809 577.478 341.595 574.329 336.055C571.204 330.492 569.642 323.686 569.642 315.636C569.642 307.54 571.204 300.722 574.329 295.182C577.478 289.618 581.716 285.416 587.042 282.575C592.393 279.711 598.382 278.278 605.011 278.278C611.592 278.278 617.558 279.711 622.909 282.575C628.259 285.416 632.509 289.618 635.657 295.182C638.806 300.722 640.38 307.54 640.38 315.636ZM620.068 315.636C620.068 311.28 619.488 307.611 618.328 304.628C617.191 301.621 615.499 299.348 613.25 297.81C611.024 296.247 608.278 295.466 605.011 295.466C601.744 295.466 598.986 296.247 596.737 297.81C594.511 299.348 592.819 301.621 591.659 304.628C590.522 307.611 589.954 311.28 589.954 315.636C589.954 319.992 590.522 323.674 591.659 326.68C592.819 329.663 594.511 331.936 596.737 333.499C598.986 335.037 601.744 335.807 605.011 335.807C608.278 335.807 611.024 335.037 613.25 333.499C615.499 331.936 617.191 329.663 618.328 326.68C619.488 323.674 620.068 319.992 620.068 315.636ZM663.392 352L641.943 279.273H663.96L673.903 324.017H674.471L686.261 279.273H703.591L715.38 324.159H715.949L725.892 279.273H747.909L726.46 352H707.568L695.21 311.375H694.642L682.284 352H663.392ZM782.284 352H754.301V279.273H782C789.481 279.273 795.944 280.729 801.389 283.641C806.858 286.529 811.072 290.696 814.031 296.141C817.014 301.562 818.505 308.061 818.505 315.636C818.505 323.212 817.026 329.723 814.066 335.168C811.107 340.589 806.917 344.756 801.495 347.668C796.074 350.556 789.67 352 782.284 352ZM774.045 335.239H781.574C785.172 335.239 788.238 334.659 790.771 333.499C793.328 332.339 795.269 330.338 796.595 327.497C797.944 324.656 798.619 320.703 798.619 315.636C798.619 310.57 797.932 306.616 796.559 303.776C795.21 300.935 793.221 298.934 790.593 297.774C787.989 296.614 784.793 296.034 781.005 296.034H774.045V335.239ZM898.095 315.636C898.095 323.733 896.521 330.563 893.372 336.126C890.223 341.666 885.974 345.868 880.624 348.733C875.273 351.574 869.307 352.994 862.726 352.994C856.097 352.994 850.107 351.562 844.757 348.697C839.43 345.809 835.193 341.595 832.044 336.055C828.919 330.492 827.357 323.686 827.357 315.636C827.357 307.54 828.919 300.722 832.044 295.182C835.193 289.618 839.43 285.416 844.757 282.575C850.107 279.711 856.097 278.278 862.726 278.278C869.307 278.278 875.273 279.711 880.624 282.575C885.974 285.416 890.223 289.618 893.372 295.182C896.521 300.722 898.095 307.54 898.095 315.636ZM877.783 315.636C877.783 311.28 877.203 307.611 876.043 304.628C874.906 301.621 873.214 299.348 870.964 297.81C868.739 296.247 865.993 295.466 862.726 295.466C859.459 295.466 856.701 296.247 854.452 297.81C852.226 299.348 850.534 301.621 849.374 304.628C848.237 307.611 847.669 311.28 847.669 315.636C847.669 319.992 848.237 323.674 849.374 326.68C850.534 329.663 852.226 331.936 854.452 333.499C856.701 335.037 859.459 335.807 862.726 335.807C865.993 335.807 868.739 335.037 870.964 333.499C873.214 331.936 874.906 329.663 876.043 326.68C877.203 323.674 877.783 319.992 877.783 315.636ZM921.107 352L899.658 279.273H921.675L931.618 324.017H932.186L943.976 279.273H961.305L973.095 324.159H973.663L983.607 279.273H1005.62L984.175 352H965.283L952.925 311.375H952.357L939.999 352H921.107ZM1074.94 279.273V352H1058.46L1032.19 313.79H1031.76V352H1012.02V279.273H1028.78L1054.63 317.341H1055.2V279.273H1074.94Z"/>
</mask>
<path d="M123.699 295.182H118.699V300.182H123.699V295.182ZM123.699 279.273V274.273H118.699V279.273H123.699ZM186.909 279.273H191.909V274.273H186.909V279.273ZM186.909 295.182V300.182H191.909V295.182H186.909ZM165.034 295.182V290.182H160.034V295.182H165.034ZM165.034 352V357H170.034V352H165.034ZM145.574 352H140.574V357H145.574V352ZM145.574 295.182H150.574V290.182H145.574V295.182ZM128.699 295.182V279.273H118.699V295.182H128.699ZM123.699 284.273H186.909V274.273H123.699V284.273ZM181.909 279.273V295.182H191.909V279.273H181.909ZM186.909 290.182H165.034V300.182H186.909V290.182ZM160.034 295.182V352H170.034V295.182H160.034ZM165.034 347H145.574V357H165.034V347ZM150.574 352V295.182H140.574V352H150.574ZM145.574 290.182H123.699V300.182H145.574V290.182ZM194.34 352H189.34V357H194.34V352ZM194.34 279.273V274.273H189.34V279.273H194.34ZM246.755 279.273H251.755V274.273H246.755V279.273ZM246.755 295.182V300.182H251.755V295.182H246.755ZM214.084 295.182V290.182H209.084V295.182H214.084ZM214.084 307.682H209.084V312.682H214.084V307.682ZM244.056 307.682H249.056V302.682H244.056V307.682ZM244.056 323.591V328.591H249.056V323.591H244.056ZM214.084 323.591V318.591H209.084V323.591H214.084ZM214.084 336.091H209.084V341.091H214.084V336.091ZM246.613 336.091H251.613V331.091H246.613V336.091ZM246.613 352V357H251.613V352H246.613ZM199.34 352V279.273H189.34V352H199.34ZM194.34 284.273H246.755V274.273H194.34V284.273ZM241.755 279.273V295.182H251.755V279.273H241.755ZM246.755 290.182H214.084V300.182H246.755V290.182ZM209.084 295.182V307.682H219.084V295.182H209.084ZM214.084 312.682H244.056V302.682H214.084V312.682ZM239.056 307.682V323.591H249.056V307.682H239.056ZM244.056 318.591H214.084V328.591H244.056V318.591ZM209.084 323.591V336.091H219.084V323.591H209.084ZM214.084 341.091H246.613V331.091H214.084V341.091ZM241.613 336.091V352H251.613V336.091H241.613ZM246.613 347H194.34V357H246.613V347ZM324.445 306.545V311.545H329.881L329.427 306.128L324.445 306.545ZM304.416 306.545L299.434 306.972L299.826 311.545H304.416V306.545ZM303.28 302.036L298.701 304.044L298.716 304.077L298.731 304.111L303.28 302.036ZM300.794 298.555L297.342 302.172L297.384 302.212L297.427 302.251L300.794 298.555ZM296.994 296.283L295.28 300.979L295.313 300.992L295.346 301.003L296.994 296.283ZM283.5 297.881L280.63 293.787L280.62 293.794L280.61 293.801L283.5 297.881ZM278.315 304.805L273.663 302.974L273.657 302.99L273.651 303.006L278.315 304.805ZM278.351 326.822L273.698 328.654L273.707 328.676L273.716 328.698L278.351 326.822ZM283.571 333.57L280.798 337.73L280.813 337.74L280.828 337.75L283.571 333.57ZM296.675 335.132L298.162 339.906L298.197 339.895L298.232 339.883L296.675 335.132ZM300.439 333.108L303.614 336.97L303.614 336.97L300.439 333.108ZM303.031 329.947L298.645 327.547L298.637 327.562L298.629 327.577L303.031 329.947ZM304.416 325.722L304.452 320.722L300.121 320.691L299.473 324.973L304.416 325.722ZM324.445 325.864L329.43 326.247L329.841 320.902L324.48 320.864L324.445 325.864ZM321.852 335.274L326.377 337.402L326.38 337.395L326.383 337.389L321.852 335.274ZM315.496 344.081L319 347.647L319 347.647L315.496 344.081ZM305.375 350.544L303.495 345.911L305.375 350.544ZM273.379 348.697L270.995 353.092L271.003 353.097L273.379 348.697ZM260.844 336.055L256.461 338.461L256.465 338.469L256.469 338.476L260.844 336.055ZM260.95 295.182L265.305 297.638L265.31 297.63L260.95 295.182ZM273.592 282.575L275.953 286.983L275.961 286.979L275.969 286.974L273.592 282.575ZM304.026 280.161L305.572 275.406V275.406L304.026 280.161ZM314.182 285.665L310.99 289.514L310.999 289.521L311.009 289.529L314.182 285.665ZM321.213 294.507L316.753 296.767V296.767L321.213 294.507ZM324.445 301.545H304.416V311.545H324.445V301.545ZM309.398 306.118C309.213 303.96 308.709 301.89 307.829 299.96L298.731 304.111C299.082 304.88 299.335 305.817 299.434 306.972L309.398 306.118ZM307.859 300.027C306.992 298.051 305.756 296.312 304.161 294.859L297.427 302.251C297.963 302.74 298.384 303.321 298.701 304.044L307.859 300.027ZM304.246 294.939C302.641 293.406 300.741 292.295 298.643 291.562L295.346 301.003C296.23 301.312 296.864 301.716 297.342 302.172L304.246 294.939ZM298.709 291.586C296.574 290.806 294.285 290.466 291.916 290.466V300.466C293.335 300.466 294.432 300.67 295.28 300.979L298.709 291.586ZM291.916 290.466C287.766 290.466 283.911 291.486 280.63 293.787L286.37 301.975C287.681 301.056 289.437 300.466 291.916 300.466V290.466ZM280.61 293.801C277.423 296.058 275.145 299.211 273.663 302.974L282.968 306.637C283.854 304.387 285.032 302.923 286.39 301.961L280.61 293.801ZM273.651 303.006C272.212 306.733 271.575 310.986 271.575 315.636H281.575C281.575 311.858 282.098 308.891 282.98 306.605L273.651 303.006ZM271.575 315.636C271.575 320.494 272.216 324.889 273.698 328.654L283.003 324.991C282.118 322.743 281.575 319.681 281.575 315.636H271.575ZM273.716 328.698C275.232 332.443 277.549 335.564 280.798 337.73L286.345 329.409C285.048 328.545 283.885 327.168 282.986 324.946L273.716 328.698ZM280.828 337.75C284.05 339.865 287.778 340.807 291.774 340.807V330.807C289.378 330.807 287.637 330.258 286.314 329.389L280.828 337.75ZM291.774 340.807C294.001 340.807 296.149 340.533 298.162 339.906L295.188 330.358C294.312 330.631 293.193 330.807 291.774 330.807V340.807ZM298.232 339.883C300.206 339.236 302.023 338.278 303.614 336.97L297.263 329.246C296.724 329.689 296.031 330.081 295.117 330.381L298.232 339.883ZM303.614 336.97C305.189 335.676 306.467 334.113 307.434 332.318L298.629 327.577C298.27 328.244 297.82 328.788 297.263 329.246L303.614 336.97ZM307.418 332.348C308.413 330.528 309.045 328.551 309.36 326.471L299.473 324.973C299.314 326.017 299.023 326.857 298.645 327.547L307.418 332.348ZM304.381 330.721L324.409 330.864L324.48 320.864L304.452 320.722L304.381 330.721ZM319.459 325.48C319.275 327.879 318.594 330.432 317.321 333.16L326.383 337.389C328.093 333.724 329.141 330.003 329.43 326.247L319.459 325.48ZM317.327 333.147C316.112 335.733 314.356 338.19 311.991 340.515L319 347.647C322.128 344.574 324.61 341.16 326.377 337.402L317.327 333.147ZM311.991 340.515C309.795 342.673 306.996 344.49 303.495 345.911L307.255 355.177C311.803 353.331 315.751 350.84 319 347.647L311.991 340.515ZM303.495 345.911C300.186 347.254 296.172 347.994 291.348 347.994V357.994C297.178 357.994 302.515 357.101 307.255 355.177L303.495 345.911ZM291.348 347.994C285.411 347.994 280.253 346.727 275.756 344.298L271.003 353.097C277.112 356.397 283.933 357.994 291.348 357.994V347.994ZM275.764 344.303C271.373 341.92 267.863 338.415 265.219 333.635L256.469 338.476C259.98 344.822 264.827 349.746 270.995 353.092L275.764 344.303ZM265.227 333.649C262.672 328.995 261.263 323.065 261.263 315.636H251.263C251.263 324.306 252.908 331.989 256.461 338.461L265.227 333.649ZM261.263 315.636C261.263 308.17 262.703 302.251 265.305 297.638L256.595 292.725C252.947 299.193 251.263 306.909 251.263 315.636H261.263ZM265.31 297.63C267.998 292.844 271.541 289.346 275.953 286.983L271.231 278.168C265.038 281.486 260.152 286.393 256.591 292.733L265.31 297.63ZM275.969 286.974C280.481 284.537 285.572 283.278 291.348 283.278V273.278C284.056 273.278 277.309 274.885 271.216 278.176L275.969 286.974ZM291.348 283.278C295.484 283.278 299.181 283.843 302.479 284.915L305.572 275.406C301.152 273.969 296.398 273.278 291.348 273.278V283.278ZM302.479 284.915C305.782 285.989 308.599 287.531 310.99 289.514L317.374 281.816C313.941 278.969 309.987 276.841 305.572 275.406L302.479 284.915ZM311.009 289.529C313.362 291.462 315.277 293.855 316.753 296.767L325.673 292.247C323.598 288.152 320.825 284.65 317.355 281.801L311.009 289.529ZM316.753 296.767C318.196 299.614 319.129 302.985 319.462 306.963L329.427 306.128C329.003 301.063 327.782 296.408 325.673 292.247L316.753 296.767ZM333.402 352H328.402V357H333.402V352ZM333.402 279.273V274.273H328.402V279.273H333.402ZM353.147 279.273H358.147V274.273H353.147V279.273ZM353.147 307.682H348.147V312.682H353.147V307.682ZM379.283 307.682V312.682H384.283V307.682H379.283ZM379.283 279.273V274.273H374.283V279.273H379.283ZM399.027 279.273H404.027V274.273H399.027V279.273ZM399.027 352V357H404.027V352H399.027ZM379.283 352H374.283V357H379.283V352ZM379.283 323.591H384.283V318.591H379.283V323.591ZM353.147 323.591V318.591H348.147V323.591H353.147ZM353.147 352V357H358.147V352H353.147ZM338.402 352V279.273H328.402V352H338.402ZM333.402 284.273H353.147V274.273H333.402V284.273ZM348.147 279.273V307.682H358.147V279.273H348.147ZM353.147 312.682H379.283V302.682H353.147V312.682ZM384.283 307.682V279.273H374.283V307.682H384.283ZM379.283 284.273H399.027V274.273H379.283V284.273ZM394.027 279.273V352H404.027V279.273H394.027ZM399.027 347H379.283V357H399.027V347ZM384.283 352V323.591H374.283V352H384.283ZM379.283 318.591H353.147V328.591H379.283V318.591ZM348.147 323.591V352H358.147V323.591H348.147ZM353.147 347H333.402V357H353.147V347ZM467.529 302L462.545 302.399L462.913 307H467.529V302ZM464.865 296.46L461.631 300.273L461.645 300.285L461.659 300.297L464.865 296.46ZM452.721 295.217L454.457 299.906L454.481 299.897L454.504 299.888L452.721 295.217ZM449.88 297.17L445.866 294.189V294.189L449.88 297.17ZM448.921 300.011L453.914 300.281L453.918 300.202L453.92 300.122L448.921 300.011ZM449.382 302.391L444.91 304.627L444.956 304.717L445.005 304.806L449.382 302.391ZM451.158 304.273L448.275 308.358L448.315 308.386L448.356 308.414L451.158 304.273ZM458.722 306.972L459.77 302.083L459.749 302.078L459.728 302.074L458.722 306.972ZM464.688 308.25L463.64 313.139L463.652 313.142L464.688 308.25ZM475.022 311.624L472.83 316.118L475.022 311.624ZM482.053 316.56L478.45 320.027L478.461 320.038L478.472 320.05L482.053 316.56ZM486.066 322.881L481.367 324.589L481.374 324.61L481.382 324.631L486.066 322.881ZM487.415 330.551L492.415 330.576L492.415 330.542L492.415 330.508L487.415 330.551ZM483.828 342.696L487.897 345.602L483.828 342.696ZM473.672 350.26L471.846 345.606L471.837 345.609L473.672 350.26ZM441.321 350.047L439.468 354.691L439.477 354.694L441.321 350.047ZM430.384 341.418L426.212 344.174L426.222 344.188L426.231 344.203L430.384 341.418ZM426.478 326.432V321.432H421.458L421.478 326.451L426.478 326.432ZM445.228 326.432L450.221 326.166L449.969 321.432H445.228V326.432ZM446.897 332.043L442.716 334.786L446.897 332.043ZM451.087 335.487L449.096 340.074L449.106 340.078L449.117 340.083L451.087 335.487ZM462.877 335.878L464.598 340.572L462.877 335.878ZM466.108 333.712L470.022 336.823L466.108 333.712ZM467.245 330.551L472.244 330.651L472.246 330.548L472.244 330.445L467.245 330.551ZM466.144 327.639L462.25 330.776L462.298 330.835L462.348 330.893L466.144 327.639ZM462.735 325.366L460.749 329.955L460.778 329.968L460.807 329.98L462.735 325.366ZM456.307 323.449L457.378 318.565L457.37 318.563L457.361 318.561L456.307 323.449ZM449.063 321.886L448.003 326.773L448.009 326.774L449.063 321.886ZM433.828 314.891L430.502 318.624L430.515 318.635L430.527 318.646L433.828 314.891ZM428.324 301.432L433.324 301.453L433.324 301.429L433.324 301.406L428.324 301.432ZM432.017 289.322L427.962 286.398L427.958 286.403L432.017 289.322ZM442.422 281.19L440.423 276.607L440.414 276.611L442.422 281.19ZM472.962 281.226L470.878 285.771V285.771L472.962 281.226ZM482.87 289.536L478.676 292.258L478.686 292.274L478.697 292.29L482.87 289.536ZM486.421 302V307H491.446L491.421 301.975L486.421 302ZM472.513 301.601C472.234 298.113 470.844 294.94 468.072 292.624L461.659 300.297C462.059 300.631 462.445 301.153 462.545 302.399L472.513 301.601ZM468.1 292.648C465.248 290.228 461.478 289.472 457.728 289.472V299.472C460.369 299.472 461.357 300.041 461.631 300.273L468.1 292.648ZM457.728 289.472C455.338 289.472 453.007 289.756 450.937 290.546L454.504 299.888C455.039 299.684 456.045 299.472 457.728 299.472V289.472ZM450.984 290.529C449.083 291.233 447.217 292.37 445.866 294.189L453.893 300.152C453.773 300.314 453.801 300.149 454.457 299.906L450.984 290.529ZM445.866 294.189C444.612 295.877 443.968 297.835 443.922 299.9L453.92 300.122C453.92 300.09 453.923 300.075 453.923 300.075C453.923 300.075 453.922 300.078 453.921 300.082C453.92 300.087 453.918 300.094 453.916 300.101C453.91 300.117 453.904 300.132 453.897 300.144C453.891 300.156 453.888 300.159 453.893 300.152L445.866 294.189ZM443.928 299.741C443.839 301.391 444.128 303.061 444.91 304.627L453.855 300.155C453.868 300.181 453.88 300.21 453.89 300.239C453.9 300.268 453.906 300.292 453.909 300.311C453.917 300.349 453.91 300.345 453.914 300.281L443.928 299.741ZM445.005 304.806C445.83 306.303 447.006 307.462 448.275 308.358L454.041 300.188C453.7 299.947 453.692 299.852 453.76 299.975L445.005 304.806ZM448.356 308.414C449.609 309.261 451.046 309.928 452.56 310.471L455.935 301.058C454.939 300.701 454.317 300.373 453.96 300.131L448.356 308.414ZM452.56 310.471C454.095 311.021 455.825 311.481 457.716 311.869L459.728 302.074C458.162 301.752 456.91 301.407 455.935 301.058L452.56 310.471ZM457.674 311.861L463.64 313.139L465.736 303.361L459.77 302.083L457.674 311.861ZM463.652 313.142C467.386 313.932 470.422 314.943 472.83 316.118L477.213 307.129C473.893 305.51 470.039 304.272 465.724 303.358L463.652 313.142ZM472.83 316.118C475.276 317.311 477.11 318.634 478.45 320.027L485.655 313.092C483.35 310.697 480.496 308.73 477.213 307.129L472.83 316.118ZM478.472 320.05C479.824 321.437 480.768 322.943 481.367 324.589L490.765 321.172C489.659 318.13 487.927 315.423 485.633 313.07L478.472 320.05ZM481.382 324.631C482.033 326.373 482.396 328.345 482.415 330.594L492.415 330.508C492.387 327.217 491.85 324.076 490.749 321.13L481.382 324.631ZM482.415 330.526C482.396 334.46 481.427 337.456 479.76 339.79L487.897 345.602C490.965 341.308 492.387 336.207 492.415 330.576L482.415 330.526ZM479.76 339.79C478.041 342.196 475.497 344.173 471.846 345.606L475.499 354.914C480.654 352.891 484.881 349.825 487.897 345.602L479.76 339.79ZM471.837 345.609C468.191 347.048 463.58 347.852 457.87 347.852V357.852C464.47 357.852 470.394 356.929 475.507 354.911L471.837 345.609ZM457.87 347.852C452.03 347.852 447.165 346.987 443.166 345.4L439.477 354.694C444.9 356.847 451.067 357.852 457.87 357.852V347.852ZM443.174 345.403C439.345 343.875 436.534 341.61 434.536 338.632L426.231 344.203C429.442 348.99 433.923 352.478 439.468 354.691L443.174 345.403ZM434.556 338.662C432.651 335.778 431.499 331.811 431.478 326.412L421.478 326.451C421.504 333.221 422.956 339.244 426.212 344.174L434.556 338.662ZM426.478 331.432H445.228V321.432H426.478V331.432ZM440.235 326.697C440.389 329.604 441.137 332.379 442.716 334.786L451.077 329.299C450.668 328.676 450.303 327.71 450.221 326.166L440.235 326.697ZM442.716 334.786C444.289 337.183 446.48 338.938 449.096 340.074L453.078 330.901C452.096 330.474 451.493 329.933 451.077 329.299L442.716 334.786ZM449.117 340.083C451.704 341.192 454.572 341.659 457.586 341.659V331.659C455.58 331.659 454.116 331.345 453.057 330.891L449.117 340.083ZM457.586 341.659C460.066 341.659 462.456 341.358 464.598 340.572L461.156 331.183C460.456 331.44 459.319 331.659 457.586 331.659V341.659ZM464.598 340.572C466.641 339.823 468.576 338.642 470.022 336.823L462.194 330.6C462.172 330.628 461.954 330.891 461.156 331.183L464.598 340.572ZM470.022 336.823C471.441 335.038 472.198 332.926 472.244 330.651L462.246 330.451C462.245 330.495 462.241 330.519 462.239 330.529C462.238 330.539 462.237 330.54 462.238 330.537C462.239 330.534 462.239 330.535 462.235 330.542C462.231 330.549 462.219 330.569 462.194 330.6L470.022 336.823ZM472.244 330.445C472.196 328.2 471.419 326.111 469.94 324.385L462.348 330.893C462.349 330.895 462.338 330.882 462.322 330.856C462.306 330.828 462.289 330.795 462.275 330.757C462.26 330.719 462.252 330.687 462.248 330.665C462.244 330.643 462.245 330.639 462.246 330.658L472.244 330.445ZM470.038 324.503C468.613 322.734 466.62 321.571 464.663 320.753L460.807 329.98C461.376 330.218 461.76 330.43 462.003 330.592C462.248 330.755 462.294 330.83 462.25 330.776L470.038 324.503ZM464.721 320.778C462.719 319.911 460.229 319.19 457.378 318.565L455.236 328.333C457.784 328.891 459.578 329.449 460.749 329.955L464.721 320.778ZM457.361 318.561L450.117 316.999L448.009 326.774L455.253 328.336L457.361 318.561ZM450.123 317C444.249 315.726 440.031 313.685 437.129 311.135L430.527 318.646C435.06 322.63 440.998 325.253 448.003 326.773L450.123 317ZM437.155 311.158C434.696 308.967 433.305 305.937 433.324 301.453L423.324 301.411C423.296 308.29 425.575 314.233 430.502 318.624L437.155 311.158ZM433.324 301.406C433.305 297.752 434.26 294.767 436.077 292.242L427.958 286.403C424.803 290.791 423.296 295.879 423.324 301.457L433.324 301.406ZM436.073 292.247C437.996 289.58 440.715 287.398 444.43 285.769L440.414 276.611C435.275 278.865 431.057 282.105 427.962 286.398L436.073 292.247ZM444.421 285.773C448.136 284.153 452.538 283.278 457.728 283.278V273.278C451.412 273.278 445.61 274.345 440.423 276.607L444.421 285.773ZM457.728 283.278C463.051 283.278 467.387 284.17 470.878 285.771L475.046 276.681C469.967 274.352 464.146 273.278 457.728 273.278V283.278ZM470.878 285.771C474.396 287.384 476.926 289.561 478.676 292.258L487.064 286.814C484.174 282.36 480.098 278.998 475.046 276.681L470.878 285.771ZM478.697 292.29C480.444 294.937 481.401 298.118 481.421 302.025L491.421 301.975C491.393 296.365 489.983 291.236 487.043 286.781L478.697 292.29ZM486.421 297H467.529V307H486.421V297ZM494.926 352H489.926V357H494.926V352ZM494.926 279.273V274.273H489.926V279.273H494.926ZM514.67 279.273H519.67V274.273H514.67V279.273ZM514.67 307.682H509.67V312.682H514.67V307.682ZM540.806 307.682V312.682H545.806V307.682H540.806ZM540.806 279.273V274.273H535.806V279.273H540.806ZM560.551 279.273H565.551V274.273H560.551V279.273ZM560.551 352V357H565.551V352H560.551ZM540.806 352H535.806V357H540.806V352ZM540.806 323.591H545.806V318.591H540.806V323.591ZM514.67 323.591V318.591H509.67V323.591H514.67ZM514.67 352V357H519.67V352H514.67ZM499.926 352V279.273H489.926V352H499.926ZM494.926 284.273H514.67V274.273H494.926V284.273ZM509.67 279.273V307.682H519.67V279.273H509.67ZM514.67 312.682H540.806V302.682H514.67V312.682ZM545.806 307.682V279.273H535.806V307.682H545.806ZM540.806 284.273H560.551V274.273H540.806V284.273ZM555.551 279.273V352H565.551V279.273H555.551ZM560.551 347H540.806V357H560.551V347ZM545.806 352V323.591H535.806V352H545.806ZM540.806 318.591H514.67V328.591H540.806V318.591ZM509.67 323.591V352H519.67V323.591H509.67ZM514.67 347H494.926V357H514.67V347ZM635.657 336.126L640.004 338.597L640.009 338.589L635.657 336.126ZM622.909 348.733L625.254 353.149L625.261 353.145L625.269 353.141L622.909 348.733ZM587.042 348.697L584.659 353.093L584.671 353.099L584.682 353.105L587.042 348.697ZM574.329 336.055L569.97 338.504L569.976 338.515L569.982 338.526L574.329 336.055ZM574.329 295.182L569.978 292.719L569.974 292.725L574.329 295.182ZM587.042 282.575L589.395 286.987L589.402 286.983L587.042 282.575ZM622.909 282.575L620.549 286.983L620.556 286.987L620.564 286.991L622.909 282.575ZM635.657 295.182L631.306 297.645L631.31 297.653L635.657 295.182ZM618.328 304.628L613.651 306.396L613.659 306.418L613.668 306.44L618.328 304.628ZM613.25 297.81L610.376 301.902L610.401 301.919L610.426 301.936L613.25 297.81ZM596.737 297.81L599.581 301.922L599.59 301.916L596.737 297.81ZM591.659 304.628L586.994 302.828L586.99 302.838L586.986 302.848L591.659 304.628ZM591.659 326.68L586.982 328.448L586.99 328.47L586.999 328.493L591.659 326.68ZM596.737 333.499L593.864 337.591L593.888 337.608L593.913 337.625L596.737 333.499ZM613.25 333.499L616.093 337.611L616.102 337.605L613.25 333.499ZM618.328 326.68L613.663 324.881L613.659 324.89L613.655 324.9L618.328 326.68ZM635.38 315.636C635.38 323.096 633.93 329.026 631.306 333.664L640.009 338.589C643.682 332.1 645.38 324.37 645.38 315.636H635.38ZM631.31 333.656C628.604 338.418 625.025 341.929 620.549 344.325L625.269 353.141C631.493 349.808 636.414 344.914 640.004 338.597L631.31 333.656ZM620.564 344.317C615.997 346.742 610.847 347.994 605.011 347.994V357.994C612.338 357.994 619.12 356.406 625.254 353.149L620.564 344.317ZM605.011 347.994C599.128 347.994 593.961 346.73 589.402 344.289L584.682 353.105C590.824 356.394 597.636 357.994 605.011 357.994V347.994ZM589.426 344.302C584.964 341.883 581.388 338.356 578.676 333.585L569.982 338.526C573.568 344.834 578.467 349.736 584.659 353.093L589.426 344.302ZM578.689 333.607C576.08 328.962 574.642 323.048 574.642 315.636H564.642C564.642 324.323 566.329 332.022 569.97 338.504L578.689 333.607ZM574.642 315.636C574.642 308.17 576.082 302.251 578.684 297.638L569.974 292.725C566.326 299.193 564.642 306.909 564.642 315.636H574.642ZM578.681 297.645C581.391 292.856 584.956 289.354 589.395 286.987L584.689 278.164C578.475 281.478 573.565 286.38 569.978 292.719L578.681 297.645ZM589.402 286.983C593.961 284.542 599.128 283.278 605.011 283.278V273.278C597.636 273.278 590.824 274.879 584.682 278.167L589.402 286.983ZM605.011 283.278C610.84 283.278 615.985 284.54 620.549 286.983L625.269 278.167C619.132 274.882 612.345 273.278 605.011 273.278V283.278ZM620.564 286.991C625.026 289.36 628.599 292.862 631.306 297.645L640.009 292.719C636.418 286.375 631.493 281.472 625.254 278.159L620.564 286.991ZM631.31 297.653C633.93 302.262 635.38 308.176 635.38 315.636H645.38C645.38 306.904 643.682 299.182 640.004 292.711L631.31 297.653ZM625.068 315.636C625.068 310.87 624.438 306.544 622.988 302.816L613.668 306.44C614.538 308.678 615.068 311.691 615.068 315.636H625.068ZM623.005 302.86C621.573 299.072 619.31 295.898 616.073 293.683L610.426 301.936C611.687 302.799 612.81 304.17 613.651 306.396L623.005 302.86ZM616.123 293.718C612.898 291.453 609.095 290.466 605.011 290.466V300.466C607.461 300.466 609.151 301.041 610.376 301.902L616.123 293.718ZM605.011 290.466C600.925 290.466 597.122 291.454 593.884 293.703L599.59 301.916C600.85 301.04 602.563 300.466 605.011 300.466V290.466ZM593.893 293.697C590.695 295.909 588.445 299.068 586.994 302.828L596.324 306.428C597.193 304.175 598.328 302.788 599.581 301.922L593.893 293.697ZM586.986 302.848C585.57 306.565 584.954 310.879 584.954 315.636H594.954C594.954 311.682 595.475 308.656 596.331 306.408L586.986 302.848ZM584.954 315.636C584.954 320.396 585.571 324.715 586.982 328.448L596.336 324.913C595.474 322.632 594.954 319.589 594.954 315.636H584.954ZM586.999 328.493C588.452 332.229 590.696 335.367 593.864 337.591L599.61 329.407C598.327 328.505 597.186 327.098 596.319 324.868L586.999 328.493ZM593.913 337.625C597.148 339.838 600.94 340.807 605.011 340.807V330.807C602.548 330.807 600.824 330.237 599.56 329.372L593.913 337.625ZM605.011 340.807C609.08 340.807 612.872 339.839 616.093 337.611L610.406 329.386C609.177 330.236 607.476 330.807 605.011 330.807V340.807ZM616.102 337.605C619.309 335.377 621.566 332.224 623 328.46L613.655 324.9C612.816 327.102 611.689 328.495 610.397 329.392L616.102 337.605ZM622.993 328.48C624.437 324.736 625.068 320.405 625.068 315.636H615.068C615.068 319.58 614.539 322.611 613.663 324.881L622.993 328.48ZM663.392 352L658.596 353.414L659.653 357H663.392V352ZM641.943 279.273V274.273H635.255L637.147 280.687L641.943 279.273ZM663.96 279.273L668.841 278.188L667.971 274.273H663.96V279.273ZM673.903 324.017L669.022 325.102L669.892 329.017H673.903V324.017ZM674.471 324.017V329.017H678.324L679.306 325.291L674.471 324.017ZM686.261 279.273V274.273H682.408L681.426 277.999L686.261 279.273ZM703.591 279.273L708.427 278.003L707.447 274.273H703.591V279.273ZM715.38 324.159L710.544 325.429L711.524 329.159H715.38V324.159ZM715.948 324.159V329.159H719.962L720.83 325.24L715.948 324.159ZM725.892 279.273V274.273H721.878L721.01 278.191L725.892 279.273ZM747.909 279.273L752.705 280.687L754.596 274.273H747.909V279.273ZM726.46 352V357H730.198L731.256 353.414L726.46 352ZM707.568 352L702.784 353.455L703.863 357H707.568V352ZM695.21 311.375L699.993 309.92L698.915 306.375H695.21V311.375ZM694.642 311.375V306.375H690.936L689.858 309.92L694.642 311.375ZM682.284 352V357H685.989L687.067 353.455L682.284 352ZM668.188 350.586L646.739 277.858L637.147 280.687L658.596 353.414L668.188 350.586ZM641.943 284.273H663.96V274.273H641.943V284.273ZM659.079 280.357L669.022 325.102L678.784 322.932L668.841 278.188L659.079 280.357ZM673.903 329.017H674.471V319.017H673.903V329.017ZM679.306 325.291L691.096 280.547L681.426 277.999L669.636 322.743L679.306 325.291ZM686.261 284.273H703.591V274.273H686.261V284.273ZM698.755 280.543L710.544 325.429L720.216 322.889L708.427 278.003L698.755 280.543ZM715.38 329.159H715.948V319.159H715.38V329.159ZM720.83 325.24L730.773 280.354L721.01 278.191L711.067 323.078L720.83 325.24ZM725.892 284.273H747.909V274.273H725.892V284.273ZM743.113 277.858L721.664 350.586L731.256 353.414L752.705 280.687L743.113 277.858ZM726.46 347H707.568V357H726.46V347ZM712.351 350.545L699.993 309.92L690.426 312.83L702.784 353.455L712.351 350.545ZM695.21 306.375H694.642V316.375H695.21V306.375ZM689.858 309.92L677.5 350.545L687.067 353.455L699.425 312.83L689.858 309.92ZM682.284 347H663.392V357H682.284V347ZM754.301 352H749.301V357H754.301V352ZM754.301 279.273V274.273H749.301V279.273H754.301ZM801.389 283.641L799.031 288.05L799.042 288.056L799.054 288.062L801.389 283.641ZM814.031 296.141L809.638 298.528L809.644 298.54L809.65 298.551L814.031 296.141ZM814.066 335.168L818.455 337.563L818.46 337.555L814.066 335.168ZM801.495 347.668L803.846 352.08L803.854 352.076L803.861 352.072L801.495 347.668ZM774.045 335.239H769.045V340.239H774.045V335.239ZM790.771 333.499L788.705 328.945L788.697 328.949L788.689 328.953L790.771 333.499ZM796.595 327.497L792.078 325.352L792.071 325.367L792.064 325.383L796.595 327.497ZM796.559 303.776L792.043 305.921L792.05 305.936L792.058 305.951L796.559 303.776ZM790.593 297.774L788.559 302.341L788.567 302.345L788.574 302.348L790.593 297.774ZM774.045 296.034V291.034H769.045V296.034H774.045ZM782.284 347H754.301V357H782.284V347ZM759.301 352V279.273H749.301V352H759.301ZM754.301 284.273H782V274.273H754.301V284.273ZM782 284.273C788.831 284.273 794.45 285.6 799.031 288.05L803.747 279.232C797.438 275.858 790.131 274.273 782 274.273V284.273ZM799.054 288.062C803.649 290.489 807.148 293.947 809.638 298.528L818.424 293.753C814.995 287.444 810.066 282.569 803.724 279.219L799.054 288.062ZM809.65 298.551C812.145 303.086 813.505 308.716 813.505 315.636H823.505C823.505 307.405 821.882 300.038 818.412 293.73L809.65 298.551ZM813.505 315.636C813.505 322.562 812.155 328.214 809.673 332.78L818.46 337.555C821.896 331.231 823.505 323.862 823.505 315.636H813.505ZM809.678 332.772C807.182 337.345 803.693 340.812 799.129 343.263L803.861 352.072C810.141 348.699 815.033 343.833 818.455 337.563L809.678 332.772ZM799.144 343.255C794.579 345.687 789.015 347 782.284 347V357C790.325 357 797.568 355.425 803.846 352.08L799.144 343.255ZM774.045 340.239H781.573V330.239H774.045V340.239ZM781.573 340.239C785.689 340.239 789.505 339.578 792.853 338.045L788.689 328.953C786.97 329.74 784.655 330.239 781.573 330.239V340.239ZM792.837 338.052C796.608 336.341 799.358 333.399 801.126 329.612L792.064 325.383C791.18 327.277 790.047 328.336 788.705 328.945L792.837 338.052ZM801.111 329.642C802.915 325.844 803.619 321.043 803.619 315.636H793.619C793.619 320.363 792.973 323.468 792.078 325.352L801.111 329.642ZM803.619 315.636C803.619 310.222 802.902 305.408 801.061 301.6L792.058 305.951C792.963 307.825 793.619 310.918 793.619 315.636H803.619ZM801.076 301.63C799.264 297.817 796.444 294.891 792.613 293.2L788.574 302.348C789.998 302.977 791.155 304.052 792.043 305.921L801.076 301.63ZM792.628 293.207C789.21 291.684 785.275 291.034 781.005 291.034V301.034C784.311 301.034 786.769 301.544 788.559 302.341L792.628 293.207ZM781.005 291.034H774.045V301.034H781.005V291.034ZM769.045 296.034V335.239H779.045V296.034H769.045ZM893.372 336.126L897.719 338.597L897.724 338.589L893.372 336.126ZM880.624 348.733L882.968 353.149L882.976 353.145L882.984 353.141L880.624 348.733ZM844.757 348.697L842.374 353.093L842.385 353.099L842.397 353.105L844.757 348.697ZM832.044 336.055L827.685 338.504L827.691 338.515L827.697 338.526L832.044 336.055ZM832.044 295.182L827.693 292.719L827.689 292.725L832.044 295.182ZM844.757 282.575L847.11 286.987L847.117 286.983L844.757 282.575ZM880.624 282.575L878.264 286.983L878.271 286.987L878.279 286.991L880.624 282.575ZM893.372 295.182L889.021 297.645L889.025 297.653L893.372 295.182ZM876.043 304.628L871.366 306.396L871.374 306.418L871.383 306.44L876.043 304.628ZM870.964 297.81L868.091 301.902L868.116 301.919L868.141 301.936L870.964 297.81ZM854.452 297.81L857.295 301.922L857.305 301.916L854.452 297.81ZM849.374 304.628L844.709 302.828L844.705 302.838L844.701 302.848L849.374 304.628ZM849.374 326.68L844.696 328.448L844.705 328.47L844.714 328.493L849.374 326.68ZM854.452 333.499L851.579 337.591L851.603 337.608L851.628 337.625L854.452 333.499ZM870.964 333.499L873.808 337.611L873.817 337.605L870.964 333.499ZM876.043 326.68L871.378 324.881L871.374 324.89L871.37 324.9L876.043 326.68ZM893.095 315.636C893.095 323.096 891.645 329.026 889.021 333.664L897.724 338.589C901.396 332.1 903.095 324.37 903.095 315.636H893.095ZM889.025 333.656C886.318 338.418 882.74 341.929 878.264 344.325L882.984 353.141C889.208 349.808 894.129 344.914 897.719 338.597L889.025 333.656ZM878.279 344.317C873.712 346.742 868.562 347.994 862.726 347.994V357.994C870.053 357.994 876.835 356.406 882.968 353.149L878.279 344.317ZM862.726 347.994C856.843 347.994 851.676 346.73 847.117 344.289L842.397 353.105C848.539 356.394 855.351 357.994 862.726 357.994V347.994ZM847.14 344.302C842.679 341.883 839.103 338.356 836.391 333.585L827.697 338.526C831.283 344.834 836.182 349.736 842.374 353.093L847.14 344.302ZM836.403 333.607C833.795 328.962 832.357 323.048 832.357 315.636H822.357C822.357 324.323 824.044 332.022 827.685 338.504L836.403 333.607ZM832.357 315.636C832.357 308.17 833.797 302.251 836.399 297.638L827.689 292.725C824.041 299.193 822.357 306.909 822.357 315.636H832.357ZM836.395 297.645C839.105 292.856 842.671 289.354 847.11 286.987L842.404 278.164C836.19 281.478 831.28 286.38 827.693 292.719L836.395 297.645ZM847.117 286.983C851.676 284.542 856.843 283.278 862.726 283.278V273.278C855.351 273.278 848.539 274.879 842.397 278.167L847.117 286.983ZM862.726 283.278C868.555 283.278 873.699 284.54 878.264 286.983L882.984 278.167C876.847 274.882 870.059 273.278 862.726 273.278V283.278ZM878.279 286.991C882.74 289.36 886.314 292.862 889.021 297.645L897.724 292.719C894.133 286.375 889.208 281.472 882.968 278.159L878.279 286.991ZM889.025 297.653C891.645 302.262 893.095 308.176 893.095 315.636H903.095C903.095 306.904 901.397 299.182 897.719 292.711L889.025 297.653ZM882.783 315.636C882.783 310.87 882.152 306.544 880.703 302.816L871.383 306.44C872.253 308.678 872.783 311.691 872.783 315.636H882.783ZM880.72 302.86C879.288 299.072 877.025 295.898 873.788 293.683L868.141 301.936C869.402 302.799 870.524 304.17 871.366 306.396L880.72 302.86ZM873.838 293.718C870.613 291.453 866.81 290.466 862.726 290.466V300.466C865.176 300.466 866.865 301.041 868.091 301.902L873.838 293.718ZM862.726 290.466C858.64 290.466 854.837 291.454 851.599 293.703L857.305 301.916C858.565 301.04 860.278 300.466 862.726 300.466V290.466ZM851.608 293.697C848.41 295.909 846.16 299.068 844.709 302.828L854.038 306.428C854.908 304.175 856.043 302.788 857.295 301.922L851.608 293.697ZM844.701 302.848C843.285 306.565 842.669 310.879 842.669 315.636H852.669C852.669 311.682 853.189 308.656 854.046 306.408L844.701 302.848ZM842.669 315.636C842.669 320.396 843.286 324.715 844.696 328.448L854.051 324.913C853.189 322.632 852.669 319.589 852.669 315.636H842.669ZM844.714 328.493C846.167 332.229 848.411 335.367 851.579 337.591L857.325 329.407C856.042 328.505 854.901 327.098 854.034 324.868L844.714 328.493ZM851.628 337.625C854.863 339.838 858.655 340.807 862.726 340.807V330.807C860.262 330.807 858.539 330.237 857.275 329.372L851.628 337.625ZM862.726 340.807C866.795 340.807 870.587 339.839 873.808 337.611L868.121 329.386C866.892 330.236 865.191 330.807 862.726 330.807V340.807ZM873.817 337.605C877.024 335.377 879.281 332.224 880.715 328.46L871.37 324.9C870.531 327.102 869.404 328.495 868.112 329.392L873.817 337.605ZM880.707 328.48C882.152 324.736 882.783 320.405 882.783 315.636H872.783C872.783 319.58 872.253 322.611 871.378 324.881L880.707 328.48ZM921.107 352L916.311 353.414L917.368 357H921.107V352ZM899.658 279.273V274.273H892.97L894.862 280.687L899.658 279.273ZM921.675 279.273L926.556 278.188L925.686 274.273H921.675V279.273ZM931.618 324.017L926.737 325.102L927.607 329.017H931.618V324.017ZM932.186 324.017V329.017H936.039L937.021 325.291L932.186 324.017ZM943.976 279.273V274.273H940.123L939.141 277.999L943.976 279.273ZM961.305 279.273L966.141 278.003L965.162 274.273H961.305V279.273ZM973.095 324.159L968.259 325.429L969.239 329.159H973.095V324.159ZM973.663 324.159V329.159H977.677L978.545 325.24L973.663 324.159ZM983.607 279.273V274.273H979.593L978.725 278.191L983.607 279.273ZM1005.62 279.273L1010.42 280.687L1012.31 274.273H1005.62V279.273ZM984.175 352V357H987.913L988.971 353.414L984.175 352ZM965.283 352L960.499 353.455L961.577 357H965.283V352ZM952.925 311.375L957.708 309.92L956.63 306.375H952.925V311.375ZM952.357 311.375V306.375H948.651L947.573 309.92L952.357 311.375ZM939.999 352V357H943.704L944.782 353.455L939.999 352ZM925.902 350.586L904.453 277.858L894.862 280.687L916.311 353.414L925.902 350.586ZM899.658 284.273H921.675V274.273H899.658V284.273ZM916.794 280.357L926.737 325.102L936.499 322.932L926.556 278.188L916.794 280.357ZM931.618 329.017H932.186V319.017H931.618V329.017ZM937.021 325.291L948.811 280.547L939.141 277.999L927.351 322.743L937.021 325.291ZM943.976 284.273H961.305V274.273H943.976V284.273ZM956.469 280.543L968.259 325.429L977.931 322.889L966.141 278.003L956.469 280.543ZM973.095 329.159H973.663V319.159H973.095V329.159ZM978.545 325.24L988.488 280.354L978.725 278.191L968.782 323.078L978.545 325.24ZM983.607 284.273H1005.62V274.273H983.607V284.273ZM1000.83 277.858L979.379 350.586L988.971 353.414L1010.42 280.687L1000.83 277.858ZM984.175 347H965.283V357H984.175V347ZM970.066 350.545L957.708 309.92L948.141 312.83L960.499 353.455L970.066 350.545ZM952.925 306.375H952.357V316.375H952.925V306.375ZM947.573 309.92L935.215 350.545L944.782 353.455L957.14 312.83L947.573 309.92ZM939.999 347H921.107V357H939.999V347ZM1074.94 279.273H1079.94V274.273H1074.94V279.273ZM1074.94 352V357H1079.94V352H1074.94ZM1058.46 352L1054.34 354.833L1055.83 357H1058.46V352ZM1032.19 313.79L1036.31 310.956L1034.82 308.79H1032.19V313.79ZM1031.76 313.79V308.79H1026.76V313.79H1031.76ZM1031.76 352V357H1036.76V352H1031.76ZM1012.02 352H1007.02V357H1012.02V352ZM1012.02 279.273V274.273H1007.02V279.273H1012.02ZM1028.78 279.273L1032.91 276.464L1031.43 274.273H1028.78V279.273ZM1054.63 317.341L1050.49 320.15L1051.98 322.341H1054.63V317.341ZM1055.2 317.341V322.341H1060.2V317.341H1055.2ZM1055.2 279.273V274.273H1050.2V279.273H1055.2ZM1069.94 279.273V352H1079.94V279.273H1069.94ZM1074.94 347H1058.46V357H1074.94V347ZM1062.58 349.167L1036.31 310.956L1028.07 316.623L1054.34 354.833L1062.58 349.167ZM1032.19 308.79H1031.76V318.79H1032.19V308.79ZM1026.76 313.79V352H1036.76V313.79H1026.76ZM1031.76 347H1012.02V357H1031.76V347ZM1017.02 352V279.273H1007.02V352H1017.02ZM1012.02 284.273H1028.78V274.273H1012.02V284.273ZM1024.64 282.082L1050.49 320.15L1058.77 314.532L1032.91 276.464L1024.64 282.082ZM1054.63 322.341H1055.2V312.341H1054.63V322.341ZM1060.2 317.341V279.273H1050.2V317.341H1060.2ZM1055.2 284.273H1074.94V274.273H1055.2V284.273Z" fill="url(#paint4_linear_133_103)" mask="url(#path-5-outside-1_133_103)"/>
<path d="M63.5234 34.8515L56 54.625H64.0948L67.8088 43.9341L63.5234 34.8515Z" fill="white"/>
<path d="M74.4751 54.625L64.8566 34H72.7609L82.3794 54.625H74.4751Z" fill="white"/>
<path d="M79.1073 39.0143L76.917 34H84.5356L87.0116 39.0143H79.1073Z" fill="white"/>
<path d="M86.2498 54.625L79.4883 40.3389H87.4878L94.4398 54.625H86.2498Z" fill="white"/>
<path d="M90.882 39.0143L88.6916 34H101.643L104.024 39.0143H90.882Z" fill="white"/>
<path d="M100.405 54.625L93.8342 40.3389H101.643L108.5 54.625H100.405Z" fill="white"/>
<g opacity="0.38">
<path d="M153.692 534.061L119.894 711.424H119.866L-23 732.592L167.623 801L337.329 778.197L389.669 557.199L153.692 534.061ZM120.173 774.313L73.3942 756.471L95.9314 753.439L148.425 770.988L120.173 774.313ZM321.834 759.642L133.042 706.255L163.361 549.654L365.902 573.463L321.834 759.642ZM96.2527 522.492H118.748V543.898H96.2527V522.492ZM102.107 492.424H79.514C79.7236 489.057 80.4083 485.689 81.568 482.406C82.7137 479.15 84.4742 476.216 86.8494 473.603C89.2387 471.019 92.2846 468.909 96.0012 467.316C99.7178 465.681 104.245 464.857 109.568 464.857C114.822 464.857 119.265 465.555 122.87 466.981C126.475 468.378 129.395 470.194 131.63 472.374C133.866 474.581 135.515 476.999 136.549 479.625C137.596 482.252 138.183 484.767 138.337 487.142C138.337 490.454 137.89 493.15 137.038 495.19C136.185 497.23 135.04 498.963 133.628 500.332C132.217 501.715 130.666 502.833 128.934 503.741C127.201 504.636 125.427 505.544 123.638 506.494C122.409 507.151 121.403 507.793 120.606 508.436C119.81 509.093 119.181 509.763 118.762 510.476C118.343 511.203 118.035 512.027 117.84 512.977C117.658 513.899 117.574 514.975 117.574 516.191H97.5661C97.4963 515.129 97.4544 513.787 97.4544 512.111C97.4544 510.392 97.6779 508.618 98.111 506.829C98.5302 505.027 99.2847 503.238 100.375 501.52C101.464 499.815 103.043 498.362 105.139 497.188C105.991 496.741 107.011 496.28 108.171 495.777C109.331 495.302 110.421 494.743 111.468 494.101C112.488 493.5 113.383 492.759 114.109 491.921C114.822 491.055 115.185 490.007 115.185 488.777C115.185 485.075 113.117 483.244 108.926 483.244C106.327 483.244 104.482 484.18 103.407 486.053C102.317 487.939 101.884 490.063 102.107 492.424ZM227.675 652.741L252.839 669.759L236.659 693.721L211.468 676.703L227.675 652.741ZM305.207 623.371C306.059 627.521 306.059 631.475 305.235 635.234C304.383 638.964 303.167 642.22 301.518 644.972C299.017 648.717 296.53 651.372 293.987 653.006C291.43 654.655 288.915 655.703 286.247 656.192C283.648 656.709 281.049 656.765 278.408 656.486C275.782 656.192 273.099 655.871 270.388 655.591C268.53 655.354 266.923 655.326 265.512 655.466C264.129 655.591 262.941 655.871 261.907 656.346C260.873 656.849 259.881 657.519 258.987 658.428C258.107 659.322 257.185 660.468 256.234 661.823L233.823 646.705C234.564 645.433 235.542 643.911 236.827 642.01C238.14 640.082 239.719 638.266 241.55 636.589C243.408 634.884 245.588 633.487 248.103 632.369C250.66 631.224 253.524 630.819 256.723 631.112C257.981 631.28 259.476 631.503 261.139 631.825C262.801 632.146 264.464 632.342 266.085 632.453C267.72 632.565 269.284 632.397 270.724 631.964C272.177 631.545 273.378 630.651 274.328 629.31C277.081 625.16 276.187 621.527 271.492 618.369C268.6 616.413 265.819 616.078 263.165 617.377C260.538 618.635 258.442 620.717 256.919 623.525L231.601 606.395C234.41 602.804 237.707 599.549 241.48 596.768C245.266 593.96 249.416 592.018 254.055 590.9C258.666 589.796 263.668 589.74 269.061 590.732C274.44 591.71 280.141 594.225 286.121 598.249C292.017 602.245 296.432 606.395 299.409 610.699C302.399 614.974 304.299 619.222 305.207 623.371ZM-7.7703 663.723L-20.485 662.703L-19.4091 649.36L-6.69444 650.38L-7.7703 663.723ZM16.0383 659.769C16.1641 658.232 15.703 657.086 14.6411 656.332C13.5792 655.591 12.3357 655.242 10.8966 655.256L12.0143 641.829C14.0124 642.122 15.9405 642.695 17.8547 643.547C19.727 644.386 21.3897 645.587 22.8288 647.124C24.24 648.633 25.3438 650.561 26.1263 652.853C26.9087 655.13 27.1881 657.855 26.9227 661.04C26.6712 664.17 26.0145 666.755 25.0364 668.851C24.0165 670.905 22.8009 672.595 21.3897 673.797C19.9645 675.055 18.4416 675.893 16.8347 676.396C15.2279 676.885 13.7189 677.15 12.2798 677.122C10.3097 676.927 8.74484 676.55 7.57118 675.949C6.38354 675.348 5.43343 674.566 4.66496 673.685C3.9384 672.791 3.32363 671.785 2.86254 670.709C2.41543 669.619 1.96832 668.557 1.49327 667.468C1.17191 666.671 0.836575 666.043 0.48727 665.553C0.137965 665.009 -0.239284 664.631 -0.644478 664.352C-1.06364 664.031 -1.5387 663.807 -2.06964 663.639C-2.62853 663.5 -3.27125 663.388 -3.99781 663.346L-3.03372 651.456C-2.37703 651.456 -1.56664 651.483 -0.574617 651.567C0.459326 651.651 1.49327 651.861 2.54118 652.224C3.5891 652.573 4.5951 653.09 5.57315 653.831C6.55121 654.585 7.33365 655.549 7.90651 656.863C8.13006 657.408 8.36759 658.008 8.60512 658.749C8.84265 659.448 9.13606 660.146 9.44345 660.789C9.76481 661.474 10.17 662.018 10.6451 662.48C11.1061 662.955 11.7069 663.248 12.4475 663.304C14.6411 663.43 15.8287 662.284 16.0383 659.769ZM327.94 482.923L331.489 495.19L318.592 498.907L315.057 486.625L327.94 482.923ZM300.512 472.164C300.079 470.194 299.912 468.154 300.051 466.086C300.163 464.018 300.708 462.048 301.602 460.162C302.552 458.29 303.95 456.585 305.836 455.034C307.666 453.497 310.153 452.282 313.171 451.402C316.175 450.535 318.83 450.214 321.121 450.41C323.413 450.619 325.425 451.192 327.06 452.072C328.68 452.952 330.036 454.07 331.056 455.426C332.062 456.767 332.83 458.094 333.319 459.422C333.864 461.336 334.074 462.943 333.892 464.27C333.724 465.583 333.375 466.743 332.802 467.763C332.229 468.797 331.517 469.677 330.664 470.502C329.798 471.298 328.974 472.094 328.08 472.947C327.479 473.506 326.99 474.05 326.64 474.567C326.305 475.043 326.04 475.546 325.928 476.021C325.788 476.51 325.732 477.041 325.788 477.613C325.844 478.172 325.956 478.801 326.165 479.5L314.708 482.797C314.485 482.196 314.247 481.414 313.968 480.478C313.674 479.472 313.506 478.424 313.451 477.306C313.423 476.216 313.562 475.07 313.884 473.911C314.205 472.723 314.89 471.661 315.91 470.655C316.343 470.25 316.832 469.817 317.405 469.328C317.978 468.853 318.495 468.378 319.012 467.847C319.501 467.316 319.878 466.757 320.157 466.128C320.437 465.527 320.451 464.871 320.269 464.158C319.668 462.048 318.173 461.35 315.77 462.02C314.303 462.468 313.395 463.32 313.073 464.563C312.78 465.807 312.85 467.106 313.395 468.42L300.512 472.164ZM228.751 511.72L236.534 512.488L235.793 519.907L228.025 519.125L228.751 511.72ZM231.825 501.534L223.987 500.779C224.154 499.606 224.518 498.474 225.007 497.384C225.524 496.28 226.236 495.33 227.144 494.506C228.011 493.695 229.184 493.039 230.526 492.62C231.881 492.186 233.446 492.075 235.304 492.256C237.12 492.438 238.629 492.829 239.803 493.43C241.005 494.017 241.955 494.757 242.667 495.596C243.352 496.434 243.841 497.328 244.121 498.264C244.4 499.214 244.47 500.081 244.47 500.919C244.358 502.079 244.121 502.973 243.715 503.658C243.352 504.356 242.891 504.901 242.374 505.348C241.829 505.739 241.256 506.075 240.627 506.34C239.999 506.592 239.328 506.843 238.671 507.123C238.252 507.318 237.847 507.486 237.554 507.696C237.26 507.905 237.037 508.101 236.869 508.338C236.673 508.576 236.562 508.855 236.478 509.177C236.352 509.512 236.296 509.875 236.268 510.28L229.366 509.624C229.366 509.232 229.394 508.757 229.478 508.185C229.534 507.57 229.673 506.983 229.855 506.368C230.037 505.753 230.4 505.167 230.819 504.608C231.252 504.035 231.853 503.602 232.621 503.252C232.929 503.155 233.32 503.015 233.711 502.861C234.144 502.735 234.55 502.582 234.913 502.414C235.276 502.232 235.639 502.009 235.891 501.715C236.184 501.45 236.338 501.101 236.366 500.682C236.492 499.424 235.821 498.711 234.368 498.558C233.474 498.474 232.789 498.753 232.342 499.354C231.951 499.955 231.769 500.695 231.825 501.534ZM187.701 669.326C187.98 670.29 188.078 671.156 188.05 671.967C187.938 673.14 187.715 674.021 187.338 674.719C186.96 675.404 186.499 675.977 185.968 676.368C185.423 676.787 184.85 677.15 184.222 677.388C183.579 677.667 182.95 677.891 182.294 678.184C181.846 678.352 181.469 678.534 181.176 678.743C180.882 678.981 180.645 679.134 180.463 679.386C180.296 679.651 180.156 679.931 180.072 680.238C179.974 680.56 179.904 680.951 179.848 681.328L172.932 680.671C172.946 680.294 172.988 679.805 173.044 679.218C173.1 678.617 173.226 678.017 173.449 677.416C173.645 676.815 173.966 676.228 174.399 675.655C174.846 675.083 175.433 674.649 176.202 674.328C176.523 674.188 176.886 674.049 177.292 673.937C177.711 673.797 178.102 673.643 178.493 673.49C178.87 673.294 179.206 673.098 179.485 672.777C179.751 672.526 179.904 672.162 179.96 671.771C180.072 670.486 179.415 669.787 177.976 669.633C177.054 669.55 176.397 669.843 175.95 670.444C175.517 671.059 175.293 671.813 175.293 672.609L167.469 671.841C167.637 670.667 168 669.522 168.503 668.46C169.006 667.342 169.747 666.406 170.641 665.567C171.535 664.729 172.667 664.114 174.022 663.681C175.349 663.248 176.942 663.136 178.787 663.318C180.631 663.486 182.14 663.877 183.314 664.492C184.529 665.106 185.465 665.805 186.164 666.657C186.876 667.496 187.379 668.404 187.701 669.326ZM172.234 682.795L180.03 683.578L179.317 690.955L171.535 690.2L172.234 682.795ZM24.6033 445.841L16.7509 445.072C16.9326 443.912 17.2958 442.795 17.7988 441.691C18.3298 440.601 19.0284 439.637 19.9366 438.799C20.8308 437.988 21.9625 437.346 23.3039 436.926C24.6452 436.493 26.238 436.381 28.0824 436.549C29.9127 436.731 31.4357 437.122 32.6513 437.737C33.8389 438.324 34.789 439.05 35.4876 439.902C36.1862 440.741 36.6613 441.621 36.9407 442.571C37.2062 443.521 37.318 444.387 37.304 445.268C37.1922 446.399 36.9407 447.308 36.5775 448.006C36.2002 448.677 35.7391 449.222 35.2222 449.669C34.6912 450.06 34.1044 450.396 33.4756 450.661C32.8329 450.913 32.1902 451.192 31.5475 451.443C31.1004 451.639 30.7231 451.807 30.4437 452.016C30.1363 452.226 29.8848 452.408 29.7171 452.659C29.5634 452.897 29.4237 453.176 29.3259 453.497C29.2281 453.805 29.1582 454.196 29.1163 454.573L22.1861 453.931C22.214 453.553 22.242 453.078 22.3118 452.491C22.3677 451.891 22.4935 451.304 22.7031 450.675C22.9266 450.088 23.234 449.501 23.6672 448.928C24.1003 448.356 24.6871 447.936 25.4696 447.587C25.777 447.489 26.1402 447.35 26.5454 447.21C26.9646 447.084 27.3558 446.916 27.761 446.735C28.1383 446.567 28.4736 446.33 28.753 446.05C29.0325 445.799 29.1722 445.435 29.2141 445.016C29.3399 443.731 28.6971 443.032 27.244 442.878C26.3358 442.795 25.6652 443.06 25.232 443.675C24.7989 444.29 24.5893 445.016 24.6033 445.841ZM21.5434 456.04L29.3259 456.809L28.5854 464.214L20.8029 463.446L21.5434 456.04ZM40.7831 603.573L21.3338 609.162L16.0104 590.662L35.4597 585.074L40.7831 603.573ZM-5.96789 568.838C-6.63855 565.834 -6.83416 562.802 -6.69444 559.686C-6.48486 556.556 -5.70241 553.594 -4.27725 550.758C-2.90797 547.922 -0.756255 545.309 2.03819 542.989C4.86057 540.656 8.57717 538.854 13.188 537.498C17.729 536.185 21.739 535.724 25.2041 536.031C28.6413 536.339 31.6313 537.177 34.0764 538.532C36.5635 539.874 38.5755 541.578 40.1264 543.562C41.6773 545.616 42.837 547.628 43.5636 549.626C44.3879 552.504 44.6674 554.95 44.4438 556.92C44.2063 558.918 43.6474 560.664 42.7671 562.215C41.9009 563.738 40.839 565.121 39.5535 566.323C38.2821 567.552 36.9966 568.782 35.6693 570.026C34.7751 570.92 34.0485 571.716 33.5315 572.485C33.0146 573.225 32.6513 573.952 32.4557 574.706C32.2601 575.447 32.1902 576.229 32.274 577.081C32.3439 577.92 32.5535 578.898 32.8469 579.96L15.5493 584.92C15.2279 584.012 14.8507 582.838 14.4595 581.399C13.9984 579.904 13.7469 578.325 13.677 576.648C13.6072 574.986 13.8028 573.281 14.3477 571.507C14.8367 569.732 15.8567 568.111 17.3797 566.602C18.0364 565.988 18.7629 565.331 19.6292 564.59C20.5234 563.892 21.3338 563.137 22.0603 562.341C22.8288 561.53 23.4017 560.678 23.7929 559.742C24.24 558.82 24.268 557.856 23.9745 556.78C23.0663 553.622 20.8029 552.532 17.1841 553.58C14.9485 554.195 13.5792 555.48 13.1042 557.367C12.6571 559.267 12.7828 561.195 13.5792 563.221L-5.96789 568.838ZM204.551 440.154L209.875 458.639L190.425 464.228L185.116 445.743L204.551 440.154ZM163.138 423.918C162.481 420.914 162.257 417.882 162.439 414.752C162.635 411.623 163.417 408.647 164.814 405.81C166.212 402.988 168.335 400.389 171.158 398.056C173.952 395.736 177.683 393.906 182.294 392.579C186.835 391.265 190.845 390.79 194.31 391.084C197.761 391.419 200.723 392.271 203.21 393.599C205.697 394.926 207.709 396.617 209.274 398.656C210.825 400.668 211.943 402.68 212.711 404.706C213.535 407.585 213.773 410.016 213.577 411.986C213.312 413.984 212.767 415.744 211.887 417.295C211.02 418.818 209.959 420.188 208.673 421.389C207.416 422.605 206.102 423.848 204.831 425.106C203.881 425.986 203.182 426.769 202.651 427.551C202.134 428.305 201.785 429.046 201.575 429.787C201.366 430.499 201.31 431.296 201.366 432.162C201.477 433 201.659 433.978 201.966 435.026L184.669 439.986C184.347 439.078 183.956 437.89 183.551 436.451C183.104 434.97 182.852 433.405 182.783 431.715C182.727 430.052 182.922 428.347 183.439 426.587C183.942 424.812 184.962 423.178 186.485 421.655C187.142 421.054 187.882 420.411 188.749 419.671C189.615 418.944 190.411 418.19 191.18 417.421C191.92 416.611 192.521 415.758 192.898 414.822C193.332 413.886 193.36 412.908 193.094 411.846C192.172 408.675 189.908 407.613 186.304 408.605C184.068 409.261 182.699 410.533 182.238 412.419C181.777 414.319 181.916 416.275 182.699 418.273L163.138 423.918ZM84.2646 641.158L69.3842 638.364C69.9571 636.142 70.8233 634.032 71.997 632.006C73.1567 630.022 74.6657 628.304 76.5519 626.878C78.4242 625.467 80.7157 624.447 83.3564 623.846C85.9971 623.232 89.085 623.246 92.592 623.902C96.0851 624.545 98.9075 625.565 101.101 626.934C103.295 628.332 104.985 629.882 106.187 631.573C107.389 633.306 108.171 635.15 108.534 637.008C108.898 638.867 108.981 640.585 108.786 642.164C108.395 644.316 107.766 646.034 106.941 647.292C106.103 648.577 105.167 649.513 104.063 650.296C102.959 651.008 101.8 651.553 100.542 651.903C99.2847 652.294 98.0132 652.699 96.7278 653.076C95.8336 653.356 95.0791 653.649 94.4783 653.998C93.8914 654.292 93.3884 654.655 93.0112 655.102C92.6619 655.507 92.3545 656.01 92.103 656.583C91.8794 657.184 91.6838 657.911 91.5301 658.693L78.3544 656.192C78.4522 655.507 78.5919 654.585 78.8015 653.495C78.9971 652.364 79.3743 651.232 79.8773 650.058C80.3803 648.927 81.0929 647.865 82.029 646.859C82.9652 645.853 84.1808 645.112 85.6898 644.595C86.3325 644.4 87.0451 644.274 87.8694 644.064C88.7077 643.855 89.4622 643.631 90.2447 643.338C90.9992 643.072 91.6838 642.709 92.2707 642.22C92.8435 641.745 93.2068 641.13 93.3745 640.25C93.8216 637.861 92.6759 636.407 89.9233 635.89C88.2187 635.569 86.8634 635.96 85.9413 637.036C84.9911 638.182 84.4323 639.551 84.2646 641.158ZM76.7336 660.258L91.5441 663.011L88.9173 677.108L74.1068 674.342L76.7336 660.258Z" fill="url(#paint5_linear_133_103)"/>
</g>
<g opacity="0.27">
<path d="M1162.33 188.665L1136.56 162.888L1156.26 143.185L1144.11 131.035L1124.9 150.248L1094.07 114.28L1133 80.9151V34H1086.08L1055.67 69.4871L1025.25 34H978.335V80.9151L1017.27 114.288L986.438 150.257L967.225 131.044L955.075 143.194L974.778 162.888L949 188.665L978.335 218L1004.11 192.222L1023.81 211.925L1035.96 199.775L1016.74 180.554L1055.67 147.198L1094.59 180.554L1075.37 199.775L1087.52 211.925L1107.22 192.222L1133 218L1162.33 188.665ZM973.3 188.665L986.927 175.037L991.963 180.073L978.335 193.7L973.3 188.665ZM995.52 73.01V51.185H1017.34L1044.35 82.6938L1028.45 101.245L995.52 73.01ZM1093.99 51.185H1115.81V73.01L1004.57 168.37L998.639 162.441L1093.99 51.185ZM1081.02 125.467L1112.7 162.432L1106.78 168.361L1068.87 135.873L1081.02 125.467ZM1133 193.7L1119.37 180.073L1124.41 175.037L1138.04 188.665L1133 193.7Z" fill="url(#paint6_linear_133_103)"/>
</g>
<path d="M140.648 39.3636V35.5455H155.818V39.3636H150.568V53H145.898V39.3636H140.648ZM157.602 53V35.5455H170.181V39.3636H162.34V42.3636H169.533V46.1818H162.34V49.1818H170.147V53H157.602ZM188.827 42.0909H184.02C183.986 41.6932 183.895 41.3324 183.747 41.0085C183.605 40.6847 183.406 40.4062 183.151 40.1733C182.901 39.9347 182.597 39.7528 182.239 39.6278C181.881 39.4972 181.474 39.4318 181.02 39.4318C180.224 39.4318 179.551 39.625 179 40.0114C178.455 40.3977 178.04 40.9517 177.756 41.6733C177.477 42.3949 177.338 43.2614 177.338 44.2727C177.338 45.3409 177.48 46.2358 177.764 46.9574C178.054 47.6733 178.472 48.2131 179.017 48.5767C179.563 48.9347 180.219 49.1136 180.986 49.1136C181.423 49.1136 181.815 49.0597 182.162 48.9517C182.509 48.8381 182.81 48.6761 183.065 48.4659C183.321 48.2557 183.528 48.0028 183.688 47.7074C183.852 47.4062 183.963 47.0682 184.02 46.6932L188.827 46.7273C188.77 47.4659 188.563 48.2187 188.205 48.9858C187.847 49.7472 187.338 50.4517 186.679 51.0994C186.026 51.7415 185.216 52.2585 184.25 52.6506C183.284 53.0426 182.162 53.2386 180.884 53.2386C179.281 53.2386 177.844 52.8949 176.571 52.2074C175.304 51.5199 174.301 50.5085 173.562 49.1733C172.83 47.8381 172.463 46.2045 172.463 44.2727C172.463 42.3295 172.838 40.6932 173.588 39.3636C174.338 38.0284 175.349 37.0199 176.622 36.3381C177.895 35.6506 179.315 35.3068 180.884 35.3068C181.986 35.3068 183 35.4574 183.926 35.7585C184.852 36.0597 185.665 36.5 186.364 37.0795C187.063 37.6534 187.625 38.3608 188.051 39.2017C188.477 40.0426 188.736 41.0057 188.827 42.0909ZM190.977 53V35.5455H195.715V42.3636H201.988V35.5455H206.727V53H201.988V46.1818H195.715V53H190.977ZM224.079 35.5455V53H220.124L213.817 43.8295H213.715V53H208.977V35.5455H212.999L219.204 44.6818H219.34V35.5455H224.079ZM243.229 44.2727C243.229 46.2159 242.852 47.8551 242.096 49.1903C241.34 50.5199 240.32 51.5284 239.036 52.2159C237.752 52.8977 236.32 53.2386 234.741 53.2386C233.15 53.2386 231.712 52.8949 230.428 52.2074C229.15 51.5142 228.133 50.5028 227.377 49.1733C226.627 47.8381 226.252 46.2045 226.252 44.2727C226.252 42.3295 226.627 40.6932 227.377 39.3636C228.133 38.0284 229.15 37.0199 230.428 36.3381C231.712 35.6506 233.15 35.3068 234.741 35.3068C236.32 35.3068 237.752 35.6506 239.036 36.3381C240.32 37.0199 241.34 38.0284 242.096 39.3636C242.852 40.6932 243.229 42.3295 243.229 44.2727ZM238.354 44.2727C238.354 43.2273 238.215 42.3466 237.937 41.6307C237.664 40.9091 237.258 40.3636 236.718 39.9943C236.184 39.6193 235.525 39.4318 234.741 39.4318C233.957 39.4318 233.295 39.6193 232.755 39.9943C232.221 40.3636 231.815 40.9091 231.536 41.6307C231.263 42.3466 231.127 43.2273 231.127 44.2727C231.127 45.3182 231.263 46.2017 231.536 46.9233C231.815 47.6392 232.221 48.1847 232.755 48.5597C233.295 48.929 233.957 49.1136 234.741 49.1136C235.525 49.1136 236.184 48.929 236.718 48.5597C237.258 48.1847 237.664 47.6392 237.937 46.9233C238.215 46.2017 238.354 45.3182 238.354 44.2727ZM254.831 41C254.786 40.4318 254.572 39.9886 254.192 39.6705C253.817 39.3523 253.246 39.1932 252.479 39.1932C251.99 39.1932 251.589 39.2528 251.277 39.3722C250.97 39.4858 250.743 39.642 250.595 39.8409C250.447 40.0398 250.371 40.267 250.365 40.5227C250.354 40.733 250.391 40.9233 250.476 41.0938C250.567 41.2585 250.709 41.4091 250.902 41.5455C251.095 41.6761 251.342 41.7955 251.643 41.9034C251.945 42.0114 252.303 42.108 252.717 42.1932L254.149 42.5C255.115 42.7045 255.942 42.9744 256.629 43.3097C257.317 43.6449 257.879 44.0398 258.317 44.4943C258.754 44.9432 259.075 45.4489 259.28 46.0114C259.49 46.5739 259.598 47.1875 259.604 47.8523C259.598 49 259.311 49.9716 258.743 50.767C258.175 51.5625 257.362 52.1676 256.305 52.5824C255.254 52.9972 253.99 53.2045 252.513 53.2045C250.996 53.2045 249.672 52.9801 248.541 52.5312C247.416 52.0824 246.541 51.392 245.916 50.4602C245.297 49.5227 244.984 48.3239 244.979 46.8636H249.479C249.507 47.3977 249.641 47.8466 249.879 48.2102C250.118 48.5739 250.453 48.8494 250.885 49.0369C251.322 49.2244 251.842 49.3182 252.445 49.3182C252.95 49.3182 253.374 49.2557 253.714 49.1307C254.055 49.0057 254.314 48.8324 254.49 48.6108C254.666 48.3892 254.757 48.1364 254.763 47.8523C254.757 47.5852 254.669 47.3523 254.499 47.1534C254.334 46.9489 254.061 46.767 253.68 46.608C253.3 46.4432 252.786 46.2898 252.138 46.1477L250.399 45.7727C248.854 45.4375 247.635 44.8778 246.743 44.0938C245.857 43.304 245.416 42.2273 245.422 40.8636C245.416 39.7557 245.712 38.7869 246.308 37.9574C246.911 37.1222 247.743 36.4716 248.805 36.0057C249.874 35.5398 251.098 35.3068 252.479 35.3068C253.888 35.3068 255.107 35.5426 256.135 36.0142C257.163 36.4858 257.956 37.1506 258.513 38.0085C259.075 38.8608 259.359 39.858 259.365 41H254.831ZM261.406 53V35.5455H268.94C270.236 35.5455 271.369 35.8011 272.341 36.3125C273.313 36.8239 274.068 37.5426 274.608 38.4688C275.148 39.3949 275.418 40.4773 275.418 41.7159C275.418 42.9659 275.139 44.0483 274.582 44.9631C274.031 45.8778 273.256 46.5824 272.256 47.0767C271.261 47.571 270.099 47.8182 268.77 47.8182H264.27V44.1364H267.815C268.372 44.1364 268.847 44.0398 269.239 43.8466C269.636 43.6477 269.94 43.3665 270.151 43.0028C270.366 42.6392 270.474 42.2102 270.474 41.7159C270.474 41.2159 270.366 40.7898 270.151 40.4375C269.94 40.0795 269.636 39.8068 269.239 39.6193C268.847 39.4261 268.372 39.3295 267.815 39.3295H266.145V53H261.406ZM279.511 53H274.397L280.158 35.5455H286.636L292.397 53H287.283L283.465 40.3523H283.329L279.511 53ZM278.556 46.1136H288.17V49.6591H278.556V46.1136ZM294.078 53V35.5455H301.612C302.908 35.5455 304.041 35.7812 305.013 36.2528C305.984 36.7244 306.74 37.4034 307.28 38.2898C307.82 39.1761 308.089 40.2386 308.089 41.4773C308.089 42.7273 307.811 43.7812 307.254 44.6392C306.703 45.4972 305.928 46.1449 304.928 46.5824C303.933 47.0199 302.771 47.2386 301.442 47.2386H296.942V43.5568H300.487C301.044 43.5568 301.518 43.4886 301.911 43.3523C302.308 43.2102 302.612 42.9858 302.822 42.679C303.038 42.3722 303.146 41.9716 303.146 41.4773C303.146 40.9773 303.038 40.571 302.822 40.2585C302.612 39.9403 302.308 39.7074 301.911 39.5597C301.518 39.4062 301.044 39.3295 300.487 39.3295H298.817V53H294.078ZM304.305 44.9886L308.669 53H303.521L299.26 44.9886H304.305ZM315.189 35.5455L318.053 40.625H318.189L321.087 35.5455H326.371L321.155 44.2727L326.575 53H321.155L318.189 47.8182H318.053L315.087 53H309.7L315.053 44.2727L309.871 35.5455H315.189Z" fill="white"/>
</g>
<defs>
<linearGradient id="paint0_linear_133_103" x1="-63.757" y1="-34.0071" x2="-63.757" y2="347.166" gradientUnits="userSpaceOnUse">
<stop stop-color="#FF9E0B"/>
<stop offset="1" stop-color="#EC4899"/>
</linearGradient>
<linearGradient id="paint1_linear_133_103" x1="1173" y1="695.827" x2="1173" y2="969.442" gradientUnits="userSpaceOnUse">
<stop stop-color="#FF9E0B"/>
<stop offset="1" stop-color="#F24E52"/>
</linearGradient>
<linearGradient id="paint2_linear_133_103" x1="882.5" y1="530" x2="882.5" y2="919" gradientUnits="userSpaceOnUse">
<stop stop-color="#FF9E0B"/>
<stop offset="1" stop-color="#9C67E7"/>
</linearGradient>
<linearGradient id="paint3_linear_133_103" x1="491" y1="30" x2="491" y2="162" gradientUnits="userSpaceOnUse">
<stop stop-color="#FF9E0B"/>
<stop offset="1" stop-color="#DA46EB"/>
</linearGradient>
<linearGradient id="paint4_linear_133_103" x1="600.5" y1="255" x2="600.5" y2="376" gradientUnits="userSpaceOnUse">
<stop stop-color="#FF9E0B"/>
<stop offset="0.49" stop-color="#F24E52"/>
</linearGradient>
<linearGradient id="paint5_linear_133_103" x1="183.334" y1="391" x2="183.334" y2="801" gradientUnits="userSpaceOnUse">
<stop stop-color="#F24E52"/>
<stop offset="1" stop-color="#4A74F4"/>
</linearGradient>
<linearGradient id="paint6_linear_133_103" x1="1055.67" y1="34" x2="1055.67" y2="218" gradientUnits="userSpaceOnUse">
<stop stop-color="#FF9E0B"/>
<stop offset="1" stop-color="#F24E52"/>
</linearGradient>
<clipPath id="clip0_133_103">
<rect width="1200" height="630" fill="white"/>
</clipPath>
</defs>
</svg>
