<svg width="1200" height="630" viewBox="0 0 1200 630" fill="none" xmlns="http://www.w3.org/2000/svg">
<g clip-path="url(#clip0_130_22)">
<rect width="1200" height="630" fill="black"/>
<rect x="-427.809" y="-32.4841" width="729.486" height="376.173" transform="rotate(-19.4848 -427.809 -32.4841)" stroke="url(#paint0_linear_130_22)" stroke-width="5"/>
<rect x="883" y="695.827" width="580" height="273.616" transform="rotate(-35.26 883 695.827)" fill="url(#paint1_linear_130_22)"/>
<circle cx="882.5" cy="724.5" r="193" stroke="url(#paint2_linear_130_22)" stroke-width="3"/>
<path opacity="0.49" d="M415 58.3636C414.121 58.3636 413.367 58.0568 412.739 57.4432C412.117 56.822 411.811 56.0682 411.818 55.1818C411.811 54.3182 412.117 53.5795 412.739 52.9659C413.367 52.3523 414.121 52.0455 415 52.0455C415.833 52.0455 416.568 52.3523 417.205 52.9659C417.848 53.5795 418.174 54.3182 418.182 55.1818C418.174 55.7727 418.019 56.3106 417.716 56.7955C417.42 57.2727 417.034 57.6553 416.557 57.9432C416.08 58.2235 415.561 58.3636 415 58.3636ZM459.003 58.3636C458.124 58.3636 457.37 58.0568 456.741 57.4432C456.12 56.822 455.813 56.0682 455.821 55.1818C455.813 54.3182 456.12 53.5795 456.741 52.9659C457.37 52.3523 458.124 52.0455 459.003 52.0455C459.836 52.0455 460.571 52.3523 461.207 52.9659C461.851 53.5795 462.177 54.3182 462.184 55.1818C462.177 55.7727 462.021 56.3106 461.718 56.7955C461.423 57.2727 461.037 57.6553 460.559 57.9432C460.082 58.2235 459.563 58.3636 459.003 58.3636ZM503.005 58.3636C502.126 58.3636 501.372 58.0568 500.744 57.4432C500.122 56.822 499.816 56.0682 499.823 55.1818C499.816 54.3182 500.122 53.5795 500.744 52.9659C501.372 52.3523 502.126 52.0455 503.005 52.0455C503.838 52.0455 504.573 52.3523 505.21 52.9659C505.853 53.5795 506.179 54.3182 506.187 55.1818C506.179 55.7727 506.024 56.3106 505.721 56.7955C505.425 57.2727 505.039 57.6553 504.562 57.9432C504.085 58.2235 503.566 58.3636 503.005 58.3636ZM547.008 58.3636C546.129 58.3636 545.375 58.0568 544.746 57.4432C544.125 56.822 543.818 56.0682 543.826 55.1818C543.818 54.3182 544.125 53.5795 544.746 52.9659C545.375 52.3523 546.129 52.0455 547.008 52.0455C547.841 52.0455 548.576 52.3523 549.212 52.9659C549.856 53.5795 550.182 54.3182 550.189 55.1818C550.182 55.7727 550.026 56.3106 549.723 56.7955C549.428 57.2727 549.042 57.6553 548.564 57.9432C548.087 58.2235 547.568 58.3636 547.008 58.3636ZM415 91.3636C414.121 91.3636 413.367 91.0568 412.739 90.4432C412.117 89.822 411.811 89.0682 411.818 88.1818C411.811 87.3182 412.117 86.5795 412.739 85.9659C413.367 85.3523 414.121 85.0455 415 85.0455C415.833 85.0455 416.568 85.3523 417.205 85.9659C417.848 86.5795 418.174 87.3182 418.182 88.1818C418.174 88.7727 418.019 89.3106 417.716 89.7955C417.42 90.2727 417.034 90.6553 416.557 90.9432C416.08 91.2235 415.561 91.3636 415 91.3636ZM459.003 91.3636C458.124 91.3636 457.37 91.0568 456.741 90.4432C456.12 89.822 455.813 89.0682 455.821 88.1818C455.813 87.3182 456.12 86.5795 456.741 85.9659C457.37 85.3523 458.124 85.0455 459.003 85.0455C459.836 85.0455 460.571 85.3523 461.207 85.9659C461.851 86.5795 462.177 87.3182 462.184 88.1818C462.177 88.7727 462.021 89.3106 461.718 89.7955C461.423 90.2727 461.037 90.6553 460.559 90.9432C460.082 91.2235 459.563 91.3636 459.003 91.3636ZM503.005 91.3636C502.126 91.3636 501.372 91.0568 500.744 90.4432C500.122 89.822 499.816 89.0682 499.823 88.1818C499.816 87.3182 500.122 86.5795 500.744 85.9659C501.372 85.3523 502.126 85.0455 503.005 85.0455C503.838 85.0455 504.573 85.3523 505.21 85.9659C505.853 86.5795 506.179 87.3182 506.187 88.1818C506.179 88.7727 506.024 89.3106 505.721 89.7955C505.425 90.2727 505.039 90.6553 504.562 90.9432C504.085 91.2235 503.566 91.3636 503.005 91.3636ZM547.008 91.3636C546.129 91.3636 545.375 91.0568 544.746 90.4432C544.125 89.822 543.818 89.0682 543.826 88.1818C543.818 87.3182 544.125 86.5795 544.746 85.9659C545.375 85.3523 546.129 85.0455 547.008 85.0455C547.841 85.0455 548.576 85.3523 549.212 85.9659C549.856 86.5795 550.182 87.3182 550.189 88.1818C550.182 88.7727 550.026 89.3106 549.723 89.7955C549.428 90.2727 549.042 90.6553 548.564 90.9432C548.087 91.2235 547.568 91.3636 547.008 91.3636ZM415 124.364C414.121 124.364 413.367 124.057 412.739 123.443C412.117 122.822 411.811 122.068 411.818 121.182C411.811 120.318 412.117 119.58 412.739 118.966C413.367 118.352 414.121 118.045 415 118.045C415.833 118.045 416.568 118.352 417.205 118.966C417.848 119.58 418.174 120.318 418.182 121.182C418.174 121.773 418.019 122.311 417.716 122.795C417.42 123.273 417.034 123.655 416.557 123.943C416.08 124.223 415.561 124.364 415 124.364ZM459.003 124.364C458.124 124.364 457.37 124.057 456.741 123.443C456.12 122.822 455.813 122.068 455.821 121.182C455.813 120.318 456.12 119.58 456.741 118.966C457.37 118.352 458.124 118.045 459.003 118.045C459.836 118.045 460.571 118.352 461.207 118.966C461.851 119.58 462.177 120.318 462.184 121.182C462.177 121.773 462.021 122.311 461.718 122.795C461.423 123.273 461.037 123.655 460.559 123.943C460.082 124.223 459.563 124.364 459.003 124.364ZM503.005 124.364C502.126 124.364 501.372 124.057 500.744 123.443C500.122 122.822 499.816 122.068 499.823 121.182C499.816 120.318 500.122 119.58 500.744 118.966C501.372 118.352 502.126 118.045 503.005 118.045C503.838 118.045 504.573 118.352 505.21 118.966C505.853 119.58 506.179 120.318 506.187 121.182C506.179 121.773 506.024 122.311 505.721 122.795C505.425 123.273 505.039 123.655 504.562 123.943C504.085 124.223 503.566 124.364 503.005 124.364ZM547.008 124.364C546.129 124.364 545.375 124.057 544.746 123.443C544.125 122.822 543.818 122.068 543.826 121.182C543.818 120.318 544.125 119.58 544.746 118.966C545.375 118.352 546.129 118.045 547.008 118.045C547.841 118.045 548.576 118.352 549.212 118.966C549.856 119.58 550.182 120.318 550.189 121.182C550.182 121.773 550.026 122.311 549.723 122.795C549.428 123.273 549.042 123.655 548.564 123.943C548.087 124.223 547.568 124.364 547.008 124.364ZM415 157.364C414.121 157.364 413.367 157.057 412.739 156.443C412.117 155.822 411.811 155.068 411.818 154.182C411.811 153.318 412.117 152.58 412.739 151.966C413.367 151.352 414.121 151.045 415 151.045C415.833 151.045 416.568 151.352 417.205 151.966C417.848 152.58 418.174 153.318 418.182 154.182C418.174 154.773 418.019 155.311 417.716 155.795C417.42 156.273 417.034 156.655 416.557 156.943C416.08 157.223 415.561 157.364 415 157.364ZM459.003 157.364C458.124 157.364 457.37 157.057 456.741 156.443C456.12 155.822 455.813 155.068 455.821 154.182C455.813 153.318 456.12 152.58 456.741 151.966C457.37 151.352 458.124 151.045 459.003 151.045C459.836 151.045 460.571 151.352 461.207 151.966C461.851 152.58 462.177 153.318 462.184 154.182C462.177 154.773 462.021 155.311 461.718 155.795C461.423 156.273 461.037 156.655 460.559 156.943C460.082 157.223 459.563 157.364 459.003 157.364ZM503.005 157.364C502.126 157.364 501.372 157.057 500.744 156.443C500.122 155.822 499.816 155.068 499.823 154.182C499.816 153.318 500.122 152.58 500.744 151.966C501.372 151.352 502.126 151.045 503.005 151.045C503.838 151.045 504.573 151.352 505.21 151.966C505.853 152.58 506.179 153.318 506.187 154.182C506.179 154.773 506.024 155.311 505.721 155.795C505.425 156.273 505.039 156.655 504.562 156.943C504.085 157.223 503.566 157.364 503.005 157.364ZM547.008 157.364C546.129 157.364 545.375 157.057 544.746 156.443C544.125 155.822 543.818 155.068 543.826 154.182C543.818 153.318 544.125 152.58 544.746 151.966C545.375 151.352 546.129 151.045 547.008 151.045C547.841 151.045 548.576 151.352 549.212 151.966C549.856 152.58 550.182 153.318 550.189 154.182C550.182 154.773 550.026 155.311 549.723 155.795C549.428 156.273 549.042 156.655 548.564 156.943C548.087 157.223 547.568 157.364 547.008 157.364Z" fill="url(#paint3_linear_130_22)"/>
<mask id="path-5-outside-1_130_22" maskUnits="userSpaceOnUse" x="90" y="273" width="1017" height="85" fill="black">
<rect fill="white" x="90" y="273" width="1017" height="85"/>
<path d="M95.6989 295.182V279.273H158.909V295.182H137.034V352H117.574V295.182H95.6989ZM166.34 352V279.273H218.755V295.182H186.084V307.682H216.056V323.591H186.084V336.091H218.613V352H166.34ZM296.445 306.545H276.416C276.274 304.888 275.895 303.385 275.28 302.036C274.688 300.686 273.859 299.526 272.794 298.555C271.752 297.561 270.486 296.804 268.994 296.283C267.503 295.738 265.81 295.466 263.916 295.466C260.602 295.466 257.796 296.271 255.5 297.881C253.227 299.491 251.499 301.799 250.315 304.805C249.155 307.812 248.575 311.422 248.575 315.636C248.575 320.087 249.167 323.816 250.351 326.822C251.558 329.805 253.298 332.054 255.571 333.57C257.844 335.061 260.578 335.807 263.774 335.807C265.597 335.807 267.231 335.582 268.675 335.132C270.119 334.659 271.374 333.984 272.439 333.108C273.504 332.232 274.368 331.179 275.031 329.947C275.718 328.693 276.179 327.284 276.416 325.722L296.445 325.864C296.208 328.941 295.344 332.078 293.852 335.274C292.361 338.446 290.242 341.382 287.496 344.081C284.773 346.756 281.4 348.911 277.375 350.544C273.35 352.178 268.675 352.994 263.348 352.994C256.672 352.994 250.682 351.562 245.379 348.697C240.1 345.833 235.921 341.619 232.844 336.055C229.79 330.492 228.263 323.686 228.263 315.636C228.263 307.54 229.825 300.722 232.95 295.182C236.075 289.618 240.289 285.416 245.592 282.575C250.895 279.711 256.814 278.278 263.348 278.278C267.941 278.278 272.167 278.906 276.026 280.161C279.884 281.415 283.27 283.25 286.182 285.665C289.094 288.056 291.438 291.003 293.213 294.507C294.989 298.011 296.066 302.024 296.445 306.545ZM305.402 352V279.273H325.147V307.682H351.283V279.273H371.027V352H351.283V323.591H325.147V352H305.402ZM439.529 302C439.339 299.633 438.452 297.786 436.865 296.46C435.303 295.134 432.924 294.472 429.728 294.472C427.692 294.472 426.023 294.72 424.721 295.217C423.442 295.691 422.495 296.342 421.88 297.17C421.264 297.999 420.944 298.946 420.921 300.011C420.873 300.887 421.027 301.68 421.382 302.391C421.761 303.077 422.353 303.705 423.158 304.273C423.963 304.817 424.993 305.314 426.248 305.764C427.502 306.214 428.994 306.616 430.722 306.972L436.688 308.25C440.712 309.102 444.157 310.227 447.022 311.624C449.886 313.02 452.23 314.666 454.053 316.56C455.876 318.43 457.213 320.537 458.066 322.881C458.942 325.224 459.391 327.781 459.415 330.551C459.391 335.333 458.196 339.382 455.828 342.696C453.461 346.01 450.076 348.532 445.672 350.26C441.292 351.988 436.025 352.852 429.87 352.852C423.549 352.852 418.033 351.917 413.321 350.047C408.634 348.177 404.988 345.3 402.384 341.418C399.803 337.511 398.501 332.516 398.478 326.432H417.228C417.346 328.657 417.902 330.527 418.897 332.043C419.891 333.558 421.288 334.706 423.087 335.487C424.91 336.268 427.076 336.659 429.586 336.659C431.693 336.659 433.456 336.399 434.877 335.878C436.297 335.357 437.374 334.635 438.108 333.712C438.842 332.788 439.221 331.735 439.245 330.551C439.221 329.438 438.854 328.468 438.144 327.639C437.457 326.787 436.321 326.029 434.735 325.366C433.149 324.68 431.006 324.041 428.307 323.449L421.063 321.886C414.623 320.49 409.545 318.158 405.828 314.891C402.135 311.6 400.301 307.114 400.324 301.432C400.301 296.815 401.532 292.779 404.017 289.322C406.527 285.842 409.995 283.132 414.422 281.19C418.873 279.249 423.975 278.278 429.728 278.278C435.599 278.278 440.677 279.261 444.962 281.226C449.247 283.191 452.55 285.961 454.87 289.536C457.213 293.087 458.397 297.241 458.421 302H439.529ZM466.926 352V279.273H486.67V307.682H512.806V279.273H532.551V352H512.806V323.591H486.67V352H466.926ZM560.818 352H539.511L563.517 279.273H590.505L614.511 352H593.204L577.295 299.301H576.727L560.818 352ZM556.841 323.307H596.897V338.08H556.841V323.307ZM657.888 302C657.699 299.633 656.811 297.786 655.225 296.46C653.662 295.134 651.283 294.472 648.087 294.472C646.051 294.472 644.382 294.72 643.08 295.217C641.801 295.691 640.855 296.342 640.239 297.17C639.623 297.999 639.304 298.946 639.28 300.011C639.233 300.887 639.387 301.68 639.742 302.391C640.121 303.077 640.712 303.705 641.517 304.273C642.322 304.817 643.352 305.314 644.607 305.764C645.862 306.214 647.353 306.616 649.081 306.972L655.047 308.25C659.072 309.102 662.516 310.227 665.381 311.624C668.246 313.02 670.589 314.666 672.412 316.56C674.235 318.43 675.573 320.537 676.425 322.881C677.301 325.224 677.751 327.781 677.775 330.551C677.751 335.333 676.555 339.382 674.188 342.696C671.82 346.01 668.435 348.532 664.032 350.26C659.652 351.988 654.384 352.852 648.229 352.852C641.908 352.852 636.392 351.917 631.681 350.047C626.993 348.177 623.347 345.3 620.743 341.418C618.163 337.511 616.861 332.516 616.837 326.432H635.587C635.705 328.657 636.262 330.527 637.256 332.043C638.25 333.558 639.647 334.706 641.446 335.487C643.269 336.268 645.435 336.659 647.945 336.659C650.052 336.659 651.816 336.399 653.236 335.878C654.657 335.357 655.734 334.635 656.468 333.712C657.202 332.788 657.58 331.735 657.604 330.551C657.58 329.438 657.213 328.468 656.503 327.639C655.817 326.787 654.68 326.029 653.094 325.366C651.508 324.68 649.365 324.041 646.667 323.449L639.422 321.886C632.983 320.49 627.905 318.158 624.188 314.891C620.495 311.6 618.66 307.114 618.684 301.432C618.66 296.815 619.891 292.779 622.377 289.322C624.886 285.842 628.355 283.132 632.782 281.19C637.232 279.249 642.334 278.278 648.087 278.278C653.958 278.278 659.036 279.261 663.321 281.226C667.606 283.191 670.909 285.961 673.229 289.536C675.573 293.087 676.757 297.241 676.78 302H657.888ZM683.297 295.182V279.273H746.507V295.182H724.632V352H705.172V295.182H683.297ZM753.938 352V279.273H785.33C790.727 279.273 795.45 280.255 799.499 282.22C803.547 284.185 806.696 287.014 808.945 290.707C811.194 294.401 812.318 298.828 812.318 303.989C812.318 309.197 811.158 313.589 808.838 317.163C806.542 320.738 803.31 323.437 799.143 325.26C795 327.083 790.159 327.994 784.619 327.994H765.869V312.653H780.642C782.962 312.653 784.939 312.369 786.572 311.801C788.23 311.209 789.496 310.274 790.372 308.996C791.272 307.717 791.722 306.048 791.722 303.989C791.722 301.905 791.272 300.213 790.372 298.911C789.496 297.585 788.23 296.614 786.572 295.999C784.939 295.359 782.962 295.04 780.642 295.04H773.682V352H753.938ZM796.551 318.619L814.733 352H793.284L775.528 318.619H796.551ZM839.626 352H818.32L842.325 279.273H869.314L893.32 352H872.013L856.104 299.301H855.536L839.626 352ZM835.649 323.307H875.706V338.08H835.649V323.307ZM900.324 352V279.273H931.716C937.114 279.273 941.837 280.255 945.885 282.22C949.934 284.185 953.082 287.014 955.331 290.707C957.58 294.401 958.705 298.828 958.705 303.989C958.705 309.197 957.545 313.589 955.225 317.163C952.928 320.738 949.697 323.437 945.53 325.26C941.387 327.083 936.546 327.994 931.006 327.994H912.256V312.653H927.029C929.349 312.653 931.326 312.369 932.959 311.801C934.616 311.209 935.883 310.274 936.759 308.996C937.659 307.717 938.108 306.048 938.108 303.989C938.108 301.905 937.659 300.213 936.759 298.911C935.883 297.585 934.616 296.614 932.959 295.999C931.326 295.359 929.349 295.04 927.029 295.04H920.069V352H900.324ZM942.938 318.619L961.12 352H939.671L921.915 318.619H942.938ZM965.132 295.182V279.273H1028.34V295.182H1006.47V352H987.007V295.182H965.132ZM1035.77 352V279.273H1055.52V307.682H1081.65V279.273H1101.4V352H1081.65V323.591H1055.52V352H1035.77Z"/>
</mask>
<path d="M95.6989 295.182H90.6989V300.182H95.6989V295.182ZM95.6989 279.273V274.273H90.6989V279.273H95.6989ZM158.909 279.273H163.909V274.273H158.909V279.273ZM158.909 295.182V300.182H163.909V295.182H158.909ZM137.034 295.182V290.182H132.034V295.182H137.034ZM137.034 352V357H142.034V352H137.034ZM117.574 352H112.574V357H117.574V352ZM117.574 295.182H122.574V290.182H117.574V295.182ZM100.699 295.182V279.273H90.6989V295.182H100.699ZM95.6989 284.273H158.909V274.273H95.6989V284.273ZM153.909 279.273V295.182H163.909V279.273H153.909ZM158.909 290.182H137.034V300.182H158.909V290.182ZM132.034 295.182V352H142.034V295.182H132.034ZM137.034 347H117.574V357H137.034V347ZM122.574 352V295.182H112.574V352H122.574ZM117.574 290.182H95.6989V300.182H117.574V290.182ZM166.34 352H161.34V357H166.34V352ZM166.34 279.273V274.273H161.34V279.273H166.34ZM218.755 279.273H223.755V274.273H218.755V279.273ZM218.755 295.182V300.182H223.755V295.182H218.755ZM186.084 295.182V290.182H181.084V295.182H186.084ZM186.084 307.682H181.084V312.682H186.084V307.682ZM216.056 307.682H221.056V302.682H216.056V307.682ZM216.056 323.591V328.591H221.056V323.591H216.056ZM186.084 323.591V318.591H181.084V323.591H186.084ZM186.084 336.091H181.084V341.091H186.084V336.091ZM218.613 336.091H223.613V331.091H218.613V336.091ZM218.613 352V357H223.613V352H218.613ZM171.34 352V279.273H161.34V352H171.34ZM166.34 284.273H218.755V274.273H166.34V284.273ZM213.755 279.273V295.182H223.755V279.273H213.755ZM218.755 290.182H186.084V300.182H218.755V290.182ZM181.084 295.182V307.682H191.084V295.182H181.084ZM186.084 312.682H216.056V302.682H186.084V312.682ZM211.056 307.682V323.591H221.056V307.682H211.056ZM216.056 318.591H186.084V328.591H216.056V318.591ZM181.084 323.591V336.091H191.084V323.591H181.084ZM186.084 341.091H218.613V331.091H186.084V341.091ZM213.613 336.091V352H223.613V336.091H213.613ZM218.613 347H166.34V357H218.613V347ZM296.445 306.545V311.545H301.881L301.427 306.128L296.445 306.545ZM276.416 306.545L271.434 306.972L271.826 311.545H276.416V306.545ZM275.28 302.036L270.701 304.044L270.716 304.077L270.731 304.111L275.28 302.036ZM272.794 298.555L269.342 302.172L269.384 302.212L269.427 302.251L272.794 298.555ZM268.994 296.283L267.28 300.979L267.313 300.992L267.346 301.003L268.994 296.283ZM255.5 297.881L252.63 293.787L252.62 293.794L252.61 293.801L255.5 297.881ZM250.315 304.805L245.663 302.974L245.657 302.99L245.651 303.006L250.315 304.805ZM250.351 326.822L245.698 328.654L245.707 328.676L245.716 328.698L250.351 326.822ZM255.571 333.57L252.798 337.73L252.813 337.74L252.828 337.75L255.571 333.57ZM268.675 335.132L270.162 339.906L270.197 339.895L270.232 339.883L268.675 335.132ZM272.439 333.108L275.614 336.97L275.614 336.97L272.439 333.108ZM275.031 329.947L270.645 327.547L270.637 327.562L270.629 327.577L275.031 329.947ZM276.416 325.722L276.452 320.722L272.121 320.691L271.473 324.973L276.416 325.722ZM296.445 325.864L301.43 326.247L301.841 320.902L296.48 320.864L296.445 325.864ZM293.852 335.274L298.377 337.402L298.38 337.395L298.383 337.389L293.852 335.274ZM287.496 344.081L291 347.647L291 347.647L287.496 344.081ZM277.375 350.544L275.495 345.911L277.375 350.544ZM245.379 348.697L242.995 353.092L243.003 353.097L245.379 348.697ZM232.844 336.055L228.461 338.461L228.465 338.469L228.469 338.476L232.844 336.055ZM232.95 295.182L237.305 297.638L237.31 297.63L232.95 295.182ZM245.592 282.575L247.953 286.983L247.961 286.979L247.969 286.974L245.592 282.575ZM276.026 280.161L277.572 275.406V275.406L276.026 280.161ZM286.182 285.665L282.99 289.514L282.999 289.521L283.009 289.529L286.182 285.665ZM293.213 294.507L288.753 296.767V296.767L293.213 294.507ZM296.445 301.545H276.416V311.545H296.445V301.545ZM281.398 306.118C281.213 303.96 280.709 301.89 279.829 299.96L270.731 304.111C271.082 304.88 271.335 305.817 271.434 306.972L281.398 306.118ZM279.859 300.027C278.992 298.051 277.756 296.312 276.161 294.859L269.427 302.251C269.963 302.74 270.384 303.321 270.701 304.044L279.859 300.027ZM276.246 294.939C274.641 293.406 272.741 292.295 270.643 291.562L267.346 301.003C268.23 301.312 268.864 301.716 269.342 302.172L276.246 294.939ZM270.709 291.586C268.574 290.806 266.285 290.466 263.916 290.466V300.466C265.335 300.466 266.432 300.67 267.28 300.979L270.709 291.586ZM263.916 290.466C259.766 290.466 255.911 291.486 252.63 293.787L258.37 301.975C259.681 301.056 261.437 300.466 263.916 300.466V290.466ZM252.61 293.801C249.423 296.058 247.145 299.211 245.663 302.974L254.968 306.637C255.854 304.387 257.032 302.923 258.39 301.961L252.61 293.801ZM245.651 303.006C244.212 306.733 243.575 310.986 243.575 315.636H253.575C253.575 311.858 254.098 308.891 254.98 306.605L245.651 303.006ZM243.575 315.636C243.575 320.494 244.216 324.889 245.698 328.654L255.003 324.991C254.118 322.743 253.575 319.681 253.575 315.636H243.575ZM245.716 328.698C247.232 332.443 249.549 335.564 252.798 337.73L258.345 329.409C257.048 328.545 255.885 327.168 254.986 324.946L245.716 328.698ZM252.828 337.75C256.05 339.865 259.778 340.807 263.774 340.807V330.807C261.378 330.807 259.637 330.258 258.314 329.389L252.828 337.75ZM263.774 340.807C266.001 340.807 268.149 340.533 270.162 339.906L267.188 330.358C266.312 330.631 265.193 330.807 263.774 330.807V340.807ZM270.232 339.883C272.206 339.236 274.023 338.278 275.614 336.97L269.263 329.246C268.724 329.689 268.031 330.081 267.117 330.381L270.232 339.883ZM275.614 336.97C277.189 335.676 278.467 334.113 279.434 332.318L270.629 327.577C270.27 328.244 269.82 328.788 269.263 329.246L275.614 336.97ZM279.418 332.348C280.413 330.528 281.045 328.551 281.36 326.471L271.473 324.973C271.314 326.017 271.023 326.857 270.645 327.547L279.418 332.348ZM276.381 330.721L296.409 330.864L296.48 320.864L276.452 320.722L276.381 330.721ZM291.459 325.48C291.275 327.879 290.594 330.432 289.321 333.16L298.383 337.389C300.093 333.724 301.141 330.003 301.43 326.247L291.459 325.48ZM289.327 333.147C288.112 335.733 286.356 338.19 283.991 340.515L291 347.647C294.128 344.574 296.61 341.16 298.377 337.402L289.327 333.147ZM283.991 340.515C281.795 342.673 278.996 344.49 275.495 345.911L279.255 355.177C283.803 353.331 287.751 350.84 291 347.647L283.991 340.515ZM275.495 345.911C272.186 347.254 268.172 347.994 263.348 347.994V357.994C269.178 357.994 274.515 357.101 279.255 355.177L275.495 345.911ZM263.348 347.994C257.411 347.994 252.253 346.727 247.756 344.298L243.003 353.097C249.112 356.397 255.933 357.994 263.348 357.994V347.994ZM247.764 344.303C243.373 341.92 239.863 338.415 237.219 333.635L228.469 338.476C231.98 344.822 236.827 349.746 242.995 353.092L247.764 344.303ZM237.227 333.649C234.672 328.995 233.263 323.065 233.263 315.636H223.263C223.263 324.306 224.908 331.989 228.461 338.461L237.227 333.649ZM233.263 315.636C233.263 308.17 234.703 302.251 237.305 297.638L228.595 292.725C224.947 299.193 223.263 306.909 223.263 315.636H233.263ZM237.31 297.63C239.998 292.844 243.541 289.346 247.953 286.983L243.231 278.168C237.038 281.486 232.152 286.393 228.591 292.733L237.31 297.63ZM247.969 286.974C252.481 284.537 257.572 283.278 263.348 283.278V273.278C256.056 273.278 249.309 274.885 243.216 278.176L247.969 286.974ZM263.348 283.278C267.484 283.278 271.181 283.843 274.479 284.915L277.572 275.406C273.152 273.969 268.398 273.278 263.348 273.278V283.278ZM274.479 284.915C277.782 285.989 280.599 287.531 282.99 289.514L289.374 281.816C285.941 278.969 281.987 276.841 277.572 275.406L274.479 284.915ZM283.009 289.529C285.362 291.462 287.277 293.855 288.753 296.767L297.673 292.247C295.598 288.152 292.825 284.65 289.355 281.801L283.009 289.529ZM288.753 296.767C290.196 299.614 291.129 302.985 291.462 306.963L301.427 306.128C301.003 301.063 299.782 296.408 297.673 292.247L288.753 296.767ZM305.402 352H300.402V357H305.402V352ZM305.402 279.273V274.273H300.402V279.273H305.402ZM325.147 279.273H330.147V274.273H325.147V279.273ZM325.147 307.682H320.147V312.682H325.147V307.682ZM351.283 307.682V312.682H356.283V307.682H351.283ZM351.283 279.273V274.273H346.283V279.273H351.283ZM371.027 279.273H376.027V274.273H371.027V279.273ZM371.027 352V357H376.027V352H371.027ZM351.283 352H346.283V357H351.283V352ZM351.283 323.591H356.283V318.591H351.283V323.591ZM325.147 323.591V318.591H320.147V323.591H325.147ZM325.147 352V357H330.147V352H325.147ZM310.402 352V279.273H300.402V352H310.402ZM305.402 284.273H325.147V274.273H305.402V284.273ZM320.147 279.273V307.682H330.147V279.273H320.147ZM325.147 312.682H351.283V302.682H325.147V312.682ZM356.283 307.682V279.273H346.283V307.682H356.283ZM351.283 284.273H371.027V274.273H351.283V284.273ZM366.027 279.273V352H376.027V279.273H366.027ZM371.027 347H351.283V357H371.027V347ZM356.283 352V323.591H346.283V352H356.283ZM351.283 318.591H325.147V328.591H351.283V318.591ZM320.147 323.591V352H330.147V323.591H320.147ZM325.147 347H305.402V357H325.147V347ZM439.529 302L434.545 302.399L434.913 307H439.529V302ZM436.865 296.46L433.631 300.273L433.645 300.285L433.659 300.297L436.865 296.46ZM424.721 295.217L426.457 299.906L426.481 299.897L426.504 299.888L424.721 295.217ZM421.88 297.17L417.866 294.189V294.189L421.88 297.17ZM420.921 300.011L425.914 300.281L425.918 300.202L425.92 300.122L420.921 300.011ZM421.382 302.391L416.91 304.627L416.956 304.717L417.005 304.806L421.382 302.391ZM423.158 304.273L420.275 308.358L420.315 308.386L420.356 308.414L423.158 304.273ZM430.722 306.972L431.77 302.083L431.749 302.078L431.728 302.074L430.722 306.972ZM436.688 308.25L435.64 313.139L435.652 313.142L436.688 308.25ZM447.022 311.624L444.83 316.118L447.022 311.624ZM454.053 316.56L450.45 320.027L450.461 320.038L450.472 320.05L454.053 316.56ZM458.066 322.881L453.367 324.589L453.374 324.61L453.382 324.631L458.066 322.881ZM459.415 330.551L464.415 330.576L464.415 330.542L464.415 330.508L459.415 330.551ZM455.828 342.696L459.897 345.602L455.828 342.696ZM445.672 350.26L443.846 345.606L443.837 345.609L445.672 350.26ZM413.321 350.047L411.468 354.691L411.477 354.694L413.321 350.047ZM402.384 341.418L398.212 344.174L398.222 344.188L398.231 344.203L402.384 341.418ZM398.478 326.432V321.432H393.458L393.478 326.451L398.478 326.432ZM417.228 326.432L422.221 326.166L421.969 321.432H417.228V326.432ZM418.897 332.043L414.716 334.786L418.897 332.043ZM423.087 335.487L421.096 340.074L421.106 340.078L421.117 340.083L423.087 335.487ZM434.877 335.878L436.598 340.572L434.877 335.878ZM438.108 333.712L442.022 336.823L438.108 333.712ZM439.245 330.551L444.244 330.651L444.246 330.548L444.244 330.445L439.245 330.551ZM438.144 327.639L434.25 330.776L434.298 330.835L434.348 330.893L438.144 327.639ZM434.735 325.366L432.749 329.955L432.778 329.968L432.807 329.98L434.735 325.366ZM428.307 323.449L429.378 318.565L429.37 318.563L429.361 318.561L428.307 323.449ZM421.063 321.886L420.003 326.773L420.009 326.774L421.063 321.886ZM405.828 314.891L402.502 318.624L402.515 318.635L402.527 318.646L405.828 314.891ZM400.324 301.432L405.324 301.453L405.324 301.429L405.324 301.406L400.324 301.432ZM404.017 289.322L399.962 286.398L399.958 286.403L404.017 289.322ZM414.422 281.19L412.423 276.607L412.414 276.611L414.422 281.19ZM444.962 281.226L442.878 285.771V285.771L444.962 281.226ZM454.87 289.536L450.676 292.258L450.686 292.274L450.697 292.29L454.87 289.536ZM458.421 302V307H463.446L463.421 301.975L458.421 302ZM444.513 301.601C444.234 298.113 442.844 294.94 440.072 292.624L433.659 300.297C434.059 300.631 434.445 301.153 434.545 302.399L444.513 301.601ZM440.1 292.648C437.248 290.228 433.478 289.472 429.728 289.472V299.472C432.369 299.472 433.357 300.041 433.631 300.273L440.1 292.648ZM429.728 289.472C427.338 289.472 425.007 289.756 422.937 290.546L426.504 299.888C427.039 299.684 428.045 299.472 429.728 299.472V289.472ZM422.984 290.529C421.083 291.233 419.217 292.37 417.866 294.189L425.893 300.152C425.773 300.314 425.801 300.149 426.457 299.906L422.984 290.529ZM417.866 294.189C416.612 295.877 415.968 297.835 415.922 299.9L425.92 300.122C425.92 300.09 425.923 300.075 425.923 300.075C425.923 300.075 425.922 300.078 425.921 300.082C425.92 300.087 425.918 300.094 425.916 300.101C425.91 300.117 425.904 300.132 425.897 300.144C425.891 300.156 425.888 300.159 425.893 300.152L417.866 294.189ZM415.928 299.741C415.839 301.391 416.128 303.061 416.91 304.627L425.855 300.155C425.868 300.181 425.88 300.21 425.89 300.239C425.9 300.268 425.906 300.292 425.909 300.311C425.917 300.349 425.91 300.345 425.914 300.281L415.928 299.741ZM417.005 304.806C417.83 306.303 419.006 307.462 420.275 308.358L426.041 300.188C425.7 299.947 425.692 299.852 425.76 299.975L417.005 304.806ZM420.356 308.414C421.609 309.261 423.046 309.928 424.56 310.471L427.935 301.058C426.939 300.701 426.317 300.373 425.96 300.131L420.356 308.414ZM424.56 310.471C426.095 311.021 427.825 311.481 429.716 311.869L431.728 302.074C430.162 301.752 428.91 301.407 427.935 301.058L424.56 310.471ZM429.674 311.861L435.64 313.139L437.736 303.361L431.77 302.083L429.674 311.861ZM435.652 313.142C439.386 313.932 442.422 314.943 444.83 316.118L449.213 307.129C445.893 305.51 442.039 304.272 437.724 303.358L435.652 313.142ZM444.83 316.118C447.276 317.311 449.11 318.634 450.45 320.027L457.655 313.092C455.35 310.697 452.496 308.73 449.213 307.129L444.83 316.118ZM450.472 320.05C451.824 321.437 452.768 322.943 453.367 324.589L462.765 321.172C461.659 318.13 459.927 315.423 457.633 313.07L450.472 320.05ZM453.382 324.631C454.033 326.373 454.396 328.345 454.415 330.594L464.415 330.508C464.387 327.217 463.85 324.076 462.749 321.13L453.382 324.631ZM454.415 330.526C454.396 334.46 453.427 337.456 451.76 339.79L459.897 345.602C462.965 341.308 464.387 336.207 464.415 330.576L454.415 330.526ZM451.76 339.79C450.041 342.196 447.497 344.173 443.846 345.606L447.499 354.914C452.654 352.891 456.881 349.825 459.897 345.602L451.76 339.79ZM443.837 345.609C440.191 347.048 435.58 347.852 429.87 347.852V357.852C436.47 357.852 442.394 356.929 447.507 354.911L443.837 345.609ZM429.87 347.852C424.03 347.852 419.165 346.987 415.166 345.4L411.477 354.694C416.9 356.847 423.067 357.852 429.87 357.852V347.852ZM415.174 345.403C411.345 343.875 408.534 341.61 406.536 338.632L398.231 344.203C401.442 348.99 405.923 352.478 411.468 354.691L415.174 345.403ZM406.556 338.662C404.651 335.778 403.499 331.811 403.478 326.412L393.478 326.451C393.504 333.221 394.956 339.244 398.212 344.174L406.556 338.662ZM398.478 331.432H417.228V321.432H398.478V331.432ZM412.235 326.697C412.389 329.604 413.137 332.379 414.716 334.786L423.077 329.299C422.668 328.676 422.303 327.71 422.221 326.166L412.235 326.697ZM414.716 334.786C416.289 337.183 418.48 338.938 421.096 340.074L425.078 330.901C424.096 330.474 423.493 329.933 423.077 329.299L414.716 334.786ZM421.117 340.083C423.704 341.192 426.572 341.659 429.586 341.659V331.659C427.58 331.659 426.116 331.345 425.057 330.891L421.117 340.083ZM429.586 341.659C432.066 341.659 434.456 341.358 436.598 340.572L433.156 331.183C432.456 331.44 431.319 331.659 429.586 331.659V341.659ZM436.598 340.572C438.641 339.823 440.576 338.642 442.022 336.823L434.194 330.6C434.172 330.628 433.954 330.891 433.156 331.183L436.598 340.572ZM442.022 336.823C443.441 335.038 444.198 332.926 444.244 330.651L434.246 330.451C434.245 330.495 434.241 330.519 434.239 330.529C434.238 330.539 434.237 330.54 434.238 330.537C434.239 330.534 434.239 330.535 434.235 330.542C434.231 330.549 434.219 330.569 434.194 330.6L442.022 336.823ZM444.244 330.445C444.196 328.2 443.419 326.111 441.94 324.385L434.348 330.893C434.349 330.895 434.338 330.882 434.322 330.856C434.306 330.828 434.289 330.795 434.275 330.757C434.26 330.719 434.252 330.687 434.248 330.665C434.244 330.643 434.245 330.639 434.246 330.658L444.244 330.445ZM442.038 324.503C440.613 322.734 438.62 321.571 436.663 320.753L432.807 329.98C433.376 330.218 433.76 330.43 434.003 330.592C434.248 330.755 434.294 330.83 434.25 330.776L442.038 324.503ZM436.721 320.778C434.719 319.911 432.229 319.19 429.378 318.565L427.236 328.333C429.784 328.891 431.578 329.449 432.749 329.955L436.721 320.778ZM429.361 318.561L422.117 316.999L420.009 326.774L427.253 328.336L429.361 318.561ZM422.123 317C416.249 315.726 412.031 313.685 409.129 311.135L402.527 318.646C407.06 322.63 412.998 325.253 420.003 326.773L422.123 317ZM409.155 311.158C406.696 308.967 405.305 305.937 405.324 301.453L395.324 301.411C395.296 308.29 397.575 314.233 402.502 318.624L409.155 311.158ZM405.324 301.406C405.305 297.752 406.26 294.767 408.077 292.242L399.958 286.403C396.803 290.791 395.296 295.879 395.324 301.457L405.324 301.406ZM408.073 292.247C409.996 289.58 412.715 287.398 416.43 285.769L412.414 276.611C407.275 278.865 403.057 282.105 399.962 286.398L408.073 292.247ZM416.421 285.773C420.136 284.153 424.538 283.278 429.728 283.278V273.278C423.412 273.278 417.61 274.345 412.423 276.607L416.421 285.773ZM429.728 283.278C435.051 283.278 439.387 284.17 442.878 285.771L447.046 276.681C441.967 274.352 436.146 273.278 429.728 273.278V283.278ZM442.878 285.771C446.396 287.384 448.926 289.561 450.676 292.258L459.064 286.814C456.174 282.36 452.098 278.998 447.046 276.681L442.878 285.771ZM450.697 292.29C452.444 294.937 453.401 298.118 453.421 302.025L463.421 301.975C463.393 296.365 461.983 291.236 459.043 286.781L450.697 292.29ZM458.421 297H439.529V307H458.421V297ZM466.926 352H461.926V357H466.926V352ZM466.926 279.273V274.273H461.926V279.273H466.926ZM486.67 279.273H491.67V274.273H486.67V279.273ZM486.67 307.682H481.67V312.682H486.67V307.682ZM512.806 307.682V312.682H517.806V307.682H512.806ZM512.806 279.273V274.273H507.806V279.273H512.806ZM532.551 279.273H537.551V274.273H532.551V279.273ZM532.551 352V357H537.551V352H532.551ZM512.806 352H507.806V357H512.806V352ZM512.806 323.591H517.806V318.591H512.806V323.591ZM486.67 323.591V318.591H481.67V323.591H486.67ZM486.67 352V357H491.67V352H486.67ZM471.926 352V279.273H461.926V352H471.926ZM466.926 284.273H486.67V274.273H466.926V284.273ZM481.67 279.273V307.682H491.67V279.273H481.67ZM486.67 312.682H512.806V302.682H486.67V312.682ZM517.806 307.682V279.273H507.806V307.682H517.806ZM512.806 284.273H532.551V274.273H512.806V284.273ZM527.551 279.273V352H537.551V279.273H527.551ZM532.551 347H512.806V357H532.551V347ZM517.806 352V323.591H507.806V352H517.806ZM512.806 318.591H486.67V328.591H512.806V318.591ZM481.67 323.591V352H491.67V323.591H481.67ZM486.67 347H466.926V357H486.67V347ZM560.818 352V357H564.531L565.604 353.445L560.818 352ZM539.511 352L534.763 350.433L532.595 357H539.511V352ZM563.517 279.273V274.273H559.902L558.769 277.706L563.517 279.273ZM590.505 279.273L595.253 277.706L594.12 274.273H590.505V279.273ZM614.511 352V357H621.427L619.259 350.433L614.511 352ZM593.204 352L588.418 353.445L589.491 357H593.204V352ZM577.295 299.301L582.082 297.856L581.009 294.301H577.295V299.301ZM576.727 299.301V294.301H573.013L571.94 297.856L576.727 299.301ZM556.841 323.307V318.307H551.841V323.307H556.841ZM596.897 323.307H601.897V318.307H596.897V323.307ZM596.897 338.08V343.08H601.897V338.08H596.897ZM556.841 338.08H551.841V343.08H556.841V338.08ZM560.818 347H539.511V357H560.818V347ZM544.259 353.567L568.265 280.84L558.769 277.706L534.763 350.433L544.259 353.567ZM563.517 284.273H590.505V274.273H563.517V284.273ZM585.757 280.84L609.763 353.567L619.259 350.433L595.253 277.706L585.757 280.84ZM614.511 347H593.204V357H614.511V347ZM597.991 350.555L582.082 297.856L572.508 300.746L588.418 353.445L597.991 350.555ZM577.295 294.301H576.727V304.301H577.295V294.301ZM571.94 297.856L556.031 350.555L565.604 353.445L581.514 300.746L571.94 297.856ZM556.841 328.307H596.897V318.307H556.841V328.307ZM591.897 323.307V338.08H601.897V323.307H591.897ZM596.897 333.08H556.841V343.08H596.897V333.08ZM561.841 338.08V323.307H551.841V338.08H561.841ZM657.888 302L652.904 302.399L653.272 307H657.888V302ZM655.225 296.46L651.99 300.273L652.004 300.285L652.018 300.297L655.225 296.46ZM643.08 295.217L644.816 299.906L644.84 299.897L644.863 299.888L643.08 295.217ZM640.239 297.17L636.225 294.189V294.189L640.239 297.17ZM639.28 300.011L644.273 300.281L644.277 300.202L644.279 300.122L639.28 300.011ZM639.742 302.391L635.27 304.627L635.315 304.717L635.364 304.806L639.742 302.391ZM641.517 304.273L638.634 308.358L638.675 308.386L638.716 308.414L641.517 304.273ZM649.081 306.972L650.129 302.083L650.108 302.078L650.088 302.074L649.081 306.972ZM655.047 308.25L654 313.139L654.011 313.142L655.047 308.25ZM665.381 311.624L663.19 316.118L665.381 311.624ZM672.412 316.56L668.81 320.027L668.821 320.038L668.832 320.05L672.412 316.56ZM676.425 322.881L671.726 324.589L671.734 324.61L671.742 324.631L676.425 322.881ZM677.775 330.551L682.774 330.576L682.775 330.542L682.774 330.508L677.775 330.551ZM674.188 342.696L678.257 345.602L674.188 342.696ZM664.032 350.26L662.205 345.606L662.196 345.609L664.032 350.26ZM631.681 350.047L629.828 354.691L629.836 354.694L631.681 350.047ZM620.743 341.418L616.571 344.174L616.581 344.188L616.591 344.203L620.743 341.418ZM616.837 326.432V321.432H611.818L611.837 326.451L616.837 326.432ZM635.587 326.432L640.58 326.166L640.328 321.432H635.587V326.432ZM637.256 332.043L633.076 334.786L637.256 332.043ZM641.446 335.487L639.455 340.074L639.466 340.078L639.477 340.083L641.446 335.487ZM653.236 335.878L654.957 340.572L653.236 335.878ZM656.468 333.712L660.382 336.823H660.382L656.468 333.712ZM657.604 330.551L662.603 330.651L662.605 330.548L662.603 330.445L657.604 330.551ZM656.503 327.639L652.609 330.776L652.657 330.835L652.707 330.893L656.503 327.639ZM653.094 325.366L651.108 329.955L651.137 329.968L651.166 329.98L653.094 325.366ZM646.667 323.449L647.738 318.565L647.729 318.563L647.721 318.561L646.667 323.449ZM639.422 321.886L638.362 326.773L638.368 326.774L639.422 321.886ZM624.188 314.891L620.862 318.624L620.874 318.635L620.887 318.646L624.188 314.891ZM618.684 301.432L623.684 301.453L623.684 301.429L623.684 301.406L618.684 301.432ZM622.377 289.322L618.321 286.398L618.318 286.403L622.377 289.322ZM632.782 281.19L630.783 276.607L630.774 276.611L632.782 281.19ZM663.321 281.226L661.237 285.771V285.771L663.321 281.226ZM673.229 289.536L669.035 292.258L669.045 292.274L669.056 292.29L673.229 289.536ZM676.78 302V307H681.805L681.78 301.975L676.78 302ZM662.872 301.601C662.593 298.113 661.203 294.94 658.431 292.624L652.018 300.297C652.419 300.631 652.804 301.153 652.904 302.399L662.872 301.601ZM658.46 292.648C655.608 290.228 651.838 289.472 648.087 289.472V299.472C650.728 299.472 651.717 300.041 651.99 300.273L658.46 292.648ZM648.087 289.472C645.697 289.472 643.366 289.756 641.296 290.546L644.863 299.888C645.398 299.684 646.405 299.472 648.087 299.472V289.472ZM641.343 290.529C639.442 291.233 637.577 292.37 636.225 294.189L644.253 300.152C644.132 300.314 644.161 300.149 644.816 299.906L641.343 290.529ZM636.225 294.189C634.971 295.877 634.327 297.835 634.281 299.9L644.279 300.122C644.28 300.09 644.282 300.075 644.282 300.075C644.282 300.075 644.282 300.078 644.281 300.082C644.279 300.087 644.278 300.094 644.275 300.101C644.27 300.117 644.263 300.132 644.257 300.144C644.25 300.156 644.248 300.159 644.253 300.152L636.225 294.189ZM634.287 299.741C634.198 301.391 634.487 303.061 635.27 304.627L644.214 300.155C644.227 300.181 644.239 300.21 644.249 300.239C644.259 300.268 644.265 300.292 644.269 300.311C644.276 300.349 644.269 300.345 644.273 300.281L634.287 299.741ZM635.364 304.806C636.19 306.303 637.365 307.462 638.634 308.358L644.401 300.188C644.06 299.947 644.052 299.852 644.12 299.975L635.364 304.806ZM638.716 308.414C639.968 309.261 641.406 309.928 642.92 310.471L646.294 301.058C645.298 300.701 644.676 300.373 644.319 300.131L638.716 308.414ZM642.92 310.471C644.454 311.021 646.185 311.481 648.075 311.869L650.088 302.074C648.522 301.752 647.269 301.407 646.294 301.058L642.92 310.471ZM648.034 311.861L654 313.139L656.095 303.361L650.129 302.083L648.034 311.861ZM654.011 313.142C657.745 313.932 660.781 314.943 663.19 316.118L667.572 307.129C664.252 305.51 660.398 304.272 656.083 303.358L654.011 313.142ZM663.19 316.118C665.636 317.311 667.469 318.634 668.81 320.027L676.015 313.092C673.709 310.697 670.855 308.73 667.572 307.129L663.19 316.118ZM668.832 320.05C670.184 321.437 671.128 322.943 671.726 324.589L681.124 321.172C680.018 318.13 678.287 315.423 675.993 313.07L668.832 320.05ZM671.742 324.631C672.393 326.373 672.755 328.345 672.775 330.594L682.774 330.508C682.746 327.217 682.21 324.076 681.109 321.13L671.742 324.631ZM672.775 330.526C672.755 334.46 671.786 337.456 670.119 339.79L678.257 345.602C681.324 341.308 682.747 336.207 682.774 330.576L672.775 330.526ZM670.119 339.79C668.4 342.196 665.856 344.173 662.205 345.606L665.858 354.914C671.014 352.891 675.241 349.825 678.257 345.602L670.119 339.79ZM662.196 345.609C658.55 347.048 653.939 347.852 648.229 347.852V357.852C654.829 357.852 660.754 356.929 665.867 354.911L662.196 345.609ZM648.229 347.852C642.389 347.852 637.524 346.987 633.526 345.4L629.836 354.694C635.26 356.847 641.427 357.852 648.229 357.852V347.852ZM633.534 345.403C629.704 343.875 626.893 341.61 624.896 338.632L616.591 344.203C619.802 348.99 624.282 352.478 629.828 354.691L633.534 345.403ZM624.915 338.662C623.01 335.778 621.858 331.811 621.837 326.412L611.837 326.451C611.863 333.221 613.315 339.244 616.571 344.174L624.915 338.662ZM616.837 331.432H635.587V321.432H616.837V331.432ZM630.594 326.697C630.749 329.604 631.496 332.379 633.076 334.786L641.436 329.299C641.027 328.676 640.662 327.71 640.58 326.166L630.594 326.697ZM633.076 334.786C634.649 337.183 636.839 338.938 639.455 340.074L643.438 330.901C642.455 330.474 641.852 329.933 641.436 329.299L633.076 334.786ZM639.477 340.083C642.064 341.192 644.932 341.659 647.945 341.659V331.659C645.94 331.659 644.475 331.345 643.416 330.891L639.477 340.083ZM647.945 341.659C650.426 341.659 652.816 341.358 654.957 340.572L651.515 331.183C650.816 331.44 649.678 331.659 647.945 331.659V341.659ZM654.957 340.572C657 339.823 658.936 338.642 660.382 336.823L652.554 330.6C652.532 330.628 652.313 330.891 651.515 331.183L654.957 340.572ZM660.382 336.823C661.8 335.038 662.558 332.926 662.603 330.651L652.605 330.451C652.604 330.495 652.6 330.519 652.599 330.529C652.597 330.539 652.596 330.54 652.597 330.537C652.598 330.534 652.598 330.535 652.594 330.542C652.59 330.549 652.579 330.569 652.554 330.6L660.382 336.823ZM662.603 330.445C662.555 328.2 661.779 326.111 660.299 324.385L652.707 330.893C652.708 330.895 652.698 330.882 652.682 330.856C652.665 330.828 652.648 330.795 652.634 330.757C652.62 330.719 652.612 330.687 652.608 330.665C652.604 330.643 652.605 330.639 652.605 330.658L662.603 330.445ZM660.397 324.503C658.973 322.734 656.98 321.571 655.022 320.753L651.166 329.98C651.736 330.218 652.119 330.43 652.362 330.592C652.608 330.755 652.653 330.83 652.609 330.776L660.397 324.503ZM655.08 320.778C653.078 319.911 650.588 319.19 647.738 318.565L645.596 328.333C648.143 328.891 649.938 329.449 651.108 329.955L655.08 320.778ZM647.721 318.561L640.476 316.999L638.368 326.774L645.612 328.336L647.721 318.561ZM640.482 317C634.608 315.726 630.39 313.685 627.489 311.135L620.887 318.646C625.419 322.63 631.358 325.253 638.362 326.773L640.482 317ZM627.514 311.158C625.055 308.967 623.665 305.937 623.684 301.453L613.684 301.411C613.655 308.29 615.934 314.233 620.862 318.624L627.514 311.158ZM623.684 301.406C623.665 297.752 624.62 294.767 626.436 292.242L618.318 286.403C615.162 290.791 613.655 295.879 613.684 301.457L623.684 301.406ZM626.432 292.247C628.356 289.58 631.075 287.398 634.79 285.769L630.774 276.611C625.634 278.865 621.417 282.105 618.321 286.398L626.432 292.247ZM634.781 285.773C638.495 284.153 642.897 283.278 648.087 283.278V273.278C641.771 273.278 635.969 274.345 630.783 276.607L634.781 285.773ZM648.087 283.278C653.411 283.278 657.746 284.17 661.237 285.771L665.406 276.681C660.327 274.352 654.506 273.278 648.087 273.278V283.278ZM661.237 285.771C664.755 287.384 667.285 289.561 669.035 292.258L677.423 286.814C674.533 282.36 670.458 278.998 665.406 276.681L661.237 285.771ZM669.056 292.29C670.803 294.937 671.761 298.118 671.78 302.025L681.78 301.975C681.752 296.365 680.343 291.236 677.402 286.781L669.056 292.29ZM676.78 297H657.888V307H676.78V297ZM683.297 295.182H678.297V300.182H683.297V295.182ZM683.297 279.273V274.273H678.297V279.273H683.297ZM746.507 279.273H751.507V274.273H746.507V279.273ZM746.507 295.182V300.182H751.507V295.182H746.507ZM724.632 295.182V290.182H719.632V295.182H724.632ZM724.632 352V357H729.632V352H724.632ZM705.172 352H700.172V357H705.172V352ZM705.172 295.182H710.172V290.182H705.172V295.182ZM688.297 295.182V279.273H678.297V295.182H688.297ZM683.297 284.273H746.507V274.273H683.297V284.273ZM741.507 279.273V295.182H751.507V279.273H741.507ZM746.507 290.182H724.632V300.182H746.507V290.182ZM719.632 295.182V352H729.632V295.182H719.632ZM724.632 347H705.172V357H724.632V347ZM710.172 352V295.182H700.172V352H710.172ZM705.172 290.182H683.297V300.182H705.172V290.182ZM753.938 352H748.938V357H753.938V352ZM753.938 279.273V274.273H748.938V279.273H753.938ZM799.499 282.22L797.315 286.718L799.499 282.22ZM808.945 290.707L813.215 288.107L808.945 290.707ZM808.838 317.163L804.644 314.441L804.638 314.451L804.631 314.461L808.838 317.163ZM799.143 325.26L797.139 320.679L797.13 320.683L799.143 325.26ZM765.869 327.994H760.869V332.994H765.869V327.994ZM765.869 312.653V307.653H760.869V312.653H765.869ZM786.572 311.801L788.215 316.524L788.235 316.517L788.254 316.51L786.572 311.801ZM790.372 308.996L786.283 306.118L786.265 306.144L786.247 306.17L790.372 308.996ZM790.372 298.911L786.201 301.667L786.229 301.71L786.258 301.753L790.372 298.911ZM786.572 295.999L784.75 300.655L784.791 300.671L784.831 300.686L786.572 295.999ZM773.682 295.04V290.04H768.682V295.04H773.682ZM773.682 352V357H778.682V352H773.682ZM796.551 318.619L800.942 316.228L799.521 313.619H796.551V318.619ZM814.733 352V357H823.15L819.124 349.608L814.733 352ZM793.284 352L788.87 354.348L790.28 357H793.284V352ZM775.528 318.619V313.619H767.206L771.114 320.967L775.528 318.619ZM758.938 352V279.273H748.938V352H758.938ZM753.938 284.273H785.33V274.273H753.938V284.273ZM785.33 284.273C790.12 284.273 794.07 285.143 797.315 286.718L801.682 277.722C796.831 275.367 791.335 274.273 785.33 274.273V284.273ZM797.315 286.718C800.537 288.282 802.945 290.469 804.674 293.308L813.215 288.107C810.446 283.559 806.557 280.088 801.682 277.722L797.315 286.718ZM804.674 293.308C806.361 296.078 807.318 299.566 807.318 303.989H817.318C817.318 298.089 816.026 292.723 813.215 288.107L804.674 293.308ZM807.318 303.989C807.318 308.447 806.332 311.841 804.644 314.441L813.032 319.885C815.985 315.336 817.318 309.947 817.318 303.989H807.318ZM804.631 314.461C802.906 317.147 800.469 319.222 797.139 320.679L801.148 329.841C806.151 327.652 810.177 324.329 813.045 319.866L804.631 314.461ZM797.13 320.683C793.747 322.172 789.617 322.994 784.619 322.994V332.994C790.701 332.994 796.254 331.994 801.157 329.837L797.13 320.683ZM784.619 322.994H765.869V332.994H784.619V322.994ZM770.869 327.994V312.653H760.869V327.994H770.869ZM765.869 317.653H780.642V307.653H765.869V317.653ZM780.642 317.653C783.343 317.653 785.908 317.326 788.215 316.524L784.93 307.079C783.97 307.412 782.582 307.653 780.642 307.653V317.653ZM788.254 316.51C790.764 315.614 792.946 314.085 794.497 311.822L786.247 306.17C786.046 306.464 785.696 306.805 784.891 307.092L788.254 316.51ZM794.461 311.873C796.116 309.521 796.722 306.755 796.722 303.989H786.722C786.722 305.342 786.427 305.913 786.283 306.118L794.461 311.873ZM796.722 303.989C796.722 301.207 796.12 298.434 794.486 296.068L786.258 301.753C786.424 301.992 786.722 302.603 786.722 303.989H796.722ZM794.544 296.154C793.018 293.844 790.848 292.253 788.313 291.311L784.831 300.686C785.612 300.975 785.975 301.325 786.201 301.667L794.544 296.154ZM788.394 291.342C786.026 290.416 783.395 290.04 780.642 290.04V300.04C782.529 300.04 783.852 300.303 784.75 300.655L788.394 291.342ZM780.642 290.04H773.682V300.04H780.642V290.04ZM768.682 295.04V352H778.682V295.04H768.682ZM773.682 347H753.938V357H773.682V347ZM792.16 321.011L810.342 354.392L819.124 349.608L800.942 316.228L792.16 321.011ZM814.733 347H793.284V357H814.733V347ZM797.698 349.652L779.943 316.271L771.114 320.967L788.87 354.348L797.698 349.652ZM775.528 323.619H796.551V313.619H775.528V323.619ZM839.626 352V357H843.34L844.413 353.445L839.626 352ZM818.32 352L813.572 350.433L811.404 357H818.32V352ZM842.325 279.273V274.273H838.71L837.577 277.706L842.325 279.273ZM869.314 279.273L874.062 277.706L872.929 274.273H869.314V279.273ZM893.32 352V357H900.235L898.068 350.433L893.32 352ZM872.013 352L867.226 353.445L868.299 357H872.013V352ZM856.104 299.301L860.89 297.856L859.817 294.301H856.104V299.301ZM855.536 299.301V294.301H851.822L850.749 297.856L855.536 299.301ZM835.649 323.307V318.307H830.649V323.307H835.649ZM875.706 323.307H880.706V318.307H875.706V323.307ZM875.706 338.08V343.08H880.706V338.08H875.706ZM835.649 338.08H830.649V343.08H835.649V338.08ZM839.626 347H818.32V357H839.626V347ZM823.068 353.567L847.073 280.84L837.577 277.706L813.572 350.433L823.068 353.567ZM842.325 284.273H869.314V274.273H842.325V284.273ZM864.566 280.84L888.572 353.567L898.068 350.433L874.062 277.706L864.566 280.84ZM893.32 347H872.013V357H893.32V347ZM876.799 350.555L860.89 297.856L851.317 300.746L867.226 353.445L876.799 350.555ZM856.104 294.301H855.536V304.301H856.104V294.301ZM850.749 297.856L834.84 350.555L844.413 353.445L860.322 300.746L850.749 297.856ZM835.649 328.307H875.706V318.307H835.649V328.307ZM870.706 323.307V338.08H880.706V323.307H870.706ZM875.706 333.08H835.649V343.08H875.706V333.08ZM840.649 338.08V323.307H830.649V338.08H840.649ZM900.324 352H895.324V357H900.324V352ZM900.324 279.273V274.273H895.324V279.273H900.324ZM945.885 282.22L943.702 286.718L945.885 282.22ZM955.331 290.707L959.602 288.107L955.331 290.707ZM955.225 317.163L951.031 314.441L951.024 314.451L951.018 314.461L955.225 317.163ZM945.53 325.26L943.526 320.679L943.516 320.683L945.53 325.26ZM912.256 327.994H907.256V332.994H912.256V327.994ZM912.256 312.653V307.653H907.256V312.653H912.256ZM932.959 311.801L934.602 316.524L934.621 316.517L934.641 316.51L932.959 311.801ZM936.759 308.996L932.67 306.118L932.652 306.144L932.634 306.17L936.759 308.996ZM936.759 298.911L932.587 301.667L932.616 301.71L932.645 301.753L936.759 298.911ZM932.959 295.999L931.137 300.655L931.178 300.671L931.218 300.686L932.959 295.999ZM920.069 295.04V290.04H915.069V295.04H920.069ZM920.069 352V357H925.069V352H920.069ZM942.938 318.619L947.329 316.228L945.908 313.619H942.938V318.619ZM961.12 352V357H969.537L965.511 349.608L961.12 352ZM939.671 352L935.256 354.348L936.667 357H939.671V352ZM921.915 318.619V313.619H913.592L917.501 320.967L921.915 318.619ZM905.324 352V279.273H895.324V352H905.324ZM900.324 284.273H931.716V274.273H900.324V284.273ZM931.716 284.273C936.507 284.273 940.457 285.143 943.702 286.718L948.069 277.722C943.217 275.367 937.721 274.273 931.716 274.273V284.273ZM943.702 286.718C946.924 288.282 949.332 290.469 951.061 293.308L959.602 288.107C956.833 283.559 952.943 280.088 948.069 277.722L943.702 286.718ZM951.061 293.308C952.748 296.078 953.705 299.566 953.705 303.989H963.705C963.705 298.089 962.413 292.723 959.602 288.107L951.061 293.308ZM953.705 303.989C953.705 308.447 952.718 311.841 951.031 314.441L959.419 319.885C962.371 315.336 963.705 309.947 963.705 303.989H953.705ZM951.018 314.461C949.293 317.147 946.856 319.222 943.526 320.679L947.534 329.841C952.538 327.652 956.564 324.329 959.432 319.866L951.018 314.461ZM943.516 320.683C940.133 322.172 936.004 322.994 931.006 322.994V332.994C937.088 332.994 942.641 331.994 947.544 329.837L943.516 320.683ZM931.006 322.994H912.256V332.994H931.006V322.994ZM917.256 327.994V312.653H907.256V327.994H917.256ZM912.256 317.653H927.029V307.653H912.256V317.653ZM927.029 317.653C929.729 317.653 932.294 317.326 934.602 316.524L931.317 307.079C930.357 307.412 928.968 307.653 927.029 307.653V317.653ZM934.641 316.51C937.15 315.614 939.333 314.085 940.884 311.822L932.634 306.17C932.433 306.464 932.082 306.805 931.277 307.092L934.641 316.51ZM940.848 311.873C942.503 309.521 943.108 306.755 943.108 303.989H933.108C933.108 305.342 932.814 305.913 932.67 306.118L940.848 311.873ZM943.108 303.989C943.108 301.207 942.507 298.434 940.872 296.068L932.645 301.753C932.81 301.992 933.108 302.603 933.108 303.989H943.108ZM940.931 296.154C939.404 293.844 937.234 292.253 934.7 291.311L931.218 300.686C931.998 300.975 932.362 301.325 932.587 301.667L940.931 296.154ZM934.781 291.342C932.413 290.416 929.782 290.04 927.029 290.04V300.04C928.915 300.04 930.238 300.303 931.137 300.655L934.781 291.342ZM927.029 290.04H920.069V300.04H927.029V290.04ZM915.069 295.04V352H925.069V295.04H915.069ZM920.069 347H900.324V357H920.069V347ZM938.547 321.011L956.729 354.392L965.511 349.608L947.329 316.228L938.547 321.011ZM961.12 347H939.671V357H961.12V347ZM944.085 349.652L926.329 316.271L917.501 320.967L935.256 354.348L944.085 349.652ZM921.915 323.619H942.938V313.619H921.915V323.619ZM965.132 295.182H960.132V300.182H965.132V295.182ZM965.132 279.273V274.273H960.132V279.273H965.132ZM1028.34 279.273H1033.34V274.273H1028.34V279.273ZM1028.34 295.182V300.182H1033.34V295.182H1028.34ZM1006.47 295.182V290.182H1001.47V295.182H1006.47ZM1006.47 352V357H1011.47V352H1006.47ZM987.007 352H982.007V357H987.007V352ZM987.007 295.182H992.007V290.182H987.007V295.182ZM970.132 295.182V279.273H960.132V295.182H970.132ZM965.132 284.273H1028.34V274.273H965.132V284.273ZM1023.34 279.273V295.182H1033.34V279.273H1023.34ZM1028.34 290.182H1006.47V300.182H1028.34V290.182ZM1001.47 295.182V352H1011.47V295.182H1001.47ZM1006.47 347H987.007V357H1006.47V347ZM992.007 352V295.182H982.007V352H992.007ZM987.007 290.182H965.132V300.182H987.007V290.182ZM1035.77 352H1030.77V357H1035.77V352ZM1035.77 279.273V274.273H1030.77V279.273H1035.77ZM1055.52 279.273H1060.52V274.273H1055.52V279.273ZM1055.52 307.682H1050.52V312.682H1055.52V307.682ZM1081.65 307.682V312.682H1086.65V307.682H1081.65ZM1081.65 279.273V274.273H1076.65V279.273H1081.65ZM1101.4 279.273H1106.4V274.273H1101.4V279.273ZM1101.4 352V357H1106.4V352H1101.4ZM1081.65 352H1076.65V357H1081.65V352ZM1081.65 323.591H1086.65V318.591H1081.65V323.591ZM1055.52 323.591V318.591H1050.52V323.591H1055.52ZM1055.52 352V357H1060.52V352H1055.52ZM1040.77 352V279.273H1030.77V352H1040.77ZM1035.77 284.273H1055.52V274.273H1035.77V284.273ZM1050.52 279.273V307.682H1060.52V279.273H1050.52ZM1055.52 312.682H1081.65V302.682H1055.52V312.682ZM1086.65 307.682V279.273H1076.65V307.682H1086.65ZM1081.65 284.273H1101.4V274.273H1081.65V284.273ZM1096.4 279.273V352H1106.4V279.273H1096.4ZM1101.4 347H1081.65V357H1101.4V347ZM1086.65 352V323.591H1076.65V352H1086.65ZM1081.65 318.591H1055.52V328.591H1081.65V318.591ZM1050.52 323.591V352H1060.52V323.591H1050.52ZM1055.52 347H1035.77V357H1055.52V347Z" fill="url(#paint4_linear_130_22)" mask="url(#path-5-outside-1_130_22)"/>
<path d="M63.5234 34.8515L56 54.625H64.0948L67.8088 43.9341L63.5234 34.8515Z" fill="white"/>
<path d="M74.4751 54.625L64.8566 34H72.7609L82.3794 54.625H74.4751Z" fill="white"/>
<path d="M79.1073 39.0143L76.917 34H84.5356L87.0116 39.0143H79.1073Z" fill="white"/>
<path d="M86.2498 54.625L79.4883 40.3389H87.4878L94.4398 54.625H86.2498Z" fill="white"/>
<path d="M90.882 39.0143L88.6916 34H101.643L104.024 39.0143H90.882Z" fill="white"/>
<path d="M100.405 54.625L93.8342 40.3389H101.643L108.5 54.625H100.405Z" fill="white"/>
<path d="M140.648 39.3636V35.5455H155.818V39.3636H150.568V53H145.898V39.3636H140.648ZM157.602 53V35.5455H170.181V39.3636H162.34V42.3636H169.533V46.1818H162.34V49.1818H170.147V53H157.602ZM188.827 42.0909H184.02C183.986 41.6932 183.895 41.3324 183.747 41.0085C183.605 40.6847 183.406 40.4062 183.151 40.1733C182.901 39.9347 182.597 39.7528 182.239 39.6278C181.881 39.4972 181.474 39.4318 181.02 39.4318C180.224 39.4318 179.551 39.625 179 40.0114C178.455 40.3977 178.04 40.9517 177.756 41.6733C177.477 42.3949 177.338 43.2614 177.338 44.2727C177.338 45.3409 177.48 46.2358 177.764 46.9574C178.054 47.6733 178.472 48.2131 179.017 48.5767C179.563 48.9347 180.219 49.1136 180.986 49.1136C181.423 49.1136 181.815 49.0597 182.162 48.9517C182.509 48.8381 182.81 48.6761 183.065 48.4659C183.321 48.2557 183.528 48.0028 183.688 47.7074C183.852 47.4062 183.963 47.0682 184.02 46.6932L188.827 46.7273C188.77 47.4659 188.563 48.2187 188.205 48.9858C187.847 49.7472 187.338 50.4517 186.679 51.0994C186.026 51.7415 185.216 52.2585 184.25 52.6506C183.284 53.0426 182.162 53.2386 180.884 53.2386C179.281 53.2386 177.844 52.8949 176.571 52.2074C175.304 51.5199 174.301 50.5085 173.562 49.1733C172.83 47.8381 172.463 46.2045 172.463 44.2727C172.463 42.3295 172.838 40.6932 173.588 39.3636C174.338 38.0284 175.349 37.0199 176.622 36.3381C177.895 35.6506 179.315 35.3068 180.884 35.3068C181.986 35.3068 183 35.4574 183.926 35.7585C184.852 36.0597 185.665 36.5 186.364 37.0795C187.063 37.6534 187.625 38.3608 188.051 39.2017C188.477 40.0426 188.736 41.0057 188.827 42.0909ZM190.977 53V35.5455H195.715V42.3636H201.988V35.5455H206.727V53H201.988V46.1818H195.715V53H190.977ZM224.079 35.5455V53H220.124L213.817 43.8295H213.715V53H208.977V35.5455H212.999L219.204 44.6818H219.34V35.5455H224.079ZM243.229 44.2727C243.229 46.2159 242.852 47.8551 242.096 49.1903C241.34 50.5199 240.32 51.5284 239.036 52.2159C237.752 52.8977 236.32 53.2386 234.741 53.2386C233.15 53.2386 231.712 52.8949 230.428 52.2074C229.15 51.5142 228.133 50.5028 227.377 49.1733C226.627 47.8381 226.252 46.2045 226.252 44.2727C226.252 42.3295 226.627 40.6932 227.377 39.3636C228.133 38.0284 229.15 37.0199 230.428 36.3381C231.712 35.6506 233.15 35.3068 234.741 35.3068C236.32 35.3068 237.752 35.6506 239.036 36.3381C240.32 37.0199 241.34 38.0284 242.096 39.3636C242.852 40.6932 243.229 42.3295 243.229 44.2727ZM238.354 44.2727C238.354 43.2273 238.215 42.3466 237.937 41.6307C237.664 40.9091 237.258 40.3636 236.718 39.9943C236.184 39.6193 235.525 39.4318 234.741 39.4318C233.957 39.4318 233.295 39.6193 232.755 39.9943C232.221 40.3636 231.815 40.9091 231.536 41.6307C231.263 42.3466 231.127 43.2273 231.127 44.2727C231.127 45.3182 231.263 46.2017 231.536 46.9233C231.815 47.6392 232.221 48.1847 232.755 48.5597C233.295 48.929 233.957 49.1136 234.741 49.1136C235.525 49.1136 236.184 48.929 236.718 48.5597C237.258 48.1847 237.664 47.6392 237.937 46.9233C238.215 46.2017 238.354 45.3182 238.354 44.2727ZM254.831 41C254.786 40.4318 254.572 39.9886 254.192 39.6705C253.817 39.3523 253.246 39.1932 252.479 39.1932C251.99 39.1932 251.589 39.2528 251.277 39.3722C250.97 39.4858 250.743 39.642 250.595 39.8409C250.447 40.0398 250.371 40.267 250.365 40.5227C250.354 40.733 250.391 40.9233 250.476 41.0938C250.567 41.2585 250.709 41.4091 250.902 41.5455C251.095 41.6761 251.342 41.7955 251.643 41.9034C251.945 42.0114 252.303 42.108 252.717 42.1932L254.149 42.5C255.115 42.7045 255.942 42.9744 256.629 43.3097C257.317 43.6449 257.879 44.0398 258.317 44.4943C258.754 44.9432 259.075 45.4489 259.28 46.0114C259.49 46.5739 259.598 47.1875 259.604 47.8523C259.598 49 259.311 49.9716 258.743 50.767C258.175 51.5625 257.362 52.1676 256.305 52.5824C255.254 52.9972 253.99 53.2045 252.513 53.2045C250.996 53.2045 249.672 52.9801 248.541 52.5312C247.416 52.0824 246.541 51.392 245.916 50.4602C245.297 49.5227 244.984 48.3239 244.979 46.8636H249.479C249.507 47.3977 249.641 47.8466 249.879 48.2102C250.118 48.5739 250.453 48.8494 250.885 49.0369C251.322 49.2244 251.842 49.3182 252.445 49.3182C252.95 49.3182 253.374 49.2557 253.714 49.1307C254.055 49.0057 254.314 48.8324 254.49 48.6108C254.666 48.3892 254.757 48.1364 254.763 47.8523C254.757 47.5852 254.669 47.3523 254.499 47.1534C254.334 46.9489 254.061 46.767 253.68 46.608C253.3 46.4432 252.786 46.2898 252.138 46.1477L250.399 45.7727C248.854 45.4375 247.635 44.8778 246.743 44.0938C245.857 43.304 245.416 42.2273 245.422 40.8636C245.416 39.7557 245.712 38.7869 246.308 37.9574C246.911 37.1222 247.743 36.4716 248.805 36.0057C249.874 35.5398 251.098 35.3068 252.479 35.3068C253.888 35.3068 255.107 35.5426 256.135 36.0142C257.163 36.4858 257.956 37.1506 258.513 38.0085C259.075 38.8608 259.359 39.858 259.365 41H254.831ZM261.406 53V35.5455H268.94C270.236 35.5455 271.369 35.8011 272.341 36.3125C273.313 36.8239 274.068 37.5426 274.608 38.4688C275.148 39.3949 275.418 40.4773 275.418 41.7159C275.418 42.9659 275.139 44.0483 274.582 44.9631C274.031 45.8778 273.256 46.5824 272.256 47.0767C271.261 47.571 270.099 47.8182 268.77 47.8182H264.27V44.1364H267.815C268.372 44.1364 268.847 44.0398 269.239 43.8466C269.636 43.6477 269.94 43.3665 270.151 43.0028C270.366 42.6392 270.474 42.2102 270.474 41.7159C270.474 41.2159 270.366 40.7898 270.151 40.4375C269.94 40.0795 269.636 39.8068 269.239 39.6193C268.847 39.4261 268.372 39.3295 267.815 39.3295H266.145V53H261.406ZM279.511 53H274.397L280.158 35.5455H286.636L292.397 53H287.283L283.465 40.3523H283.329L279.511 53ZM278.556 46.1136H288.17V49.6591H278.556V46.1136ZM294.078 53V35.5455H301.612C302.908 35.5455 304.041 35.7812 305.013 36.2528C305.984 36.7244 306.74 37.4034 307.28 38.2898C307.82 39.1761 308.089 40.2386 308.089 41.4773C308.089 42.7273 307.811 43.7812 307.254 44.6392C306.703 45.4972 305.928 46.1449 304.928 46.5824C303.933 47.0199 302.771 47.2386 301.442 47.2386H296.942V43.5568H300.487C301.044 43.5568 301.518 43.4886 301.911 43.3523C302.308 43.2102 302.612 42.9858 302.822 42.679C303.038 42.3722 303.146 41.9716 303.146 41.4773C303.146 40.9773 303.038 40.571 302.822 40.2585C302.612 39.9403 302.308 39.7074 301.911 39.5597C301.518 39.4062 301.044 39.3295 300.487 39.3295H298.817V53H294.078ZM304.305 44.9886L308.669 53H303.521L299.26 44.9886H304.305ZM315.189 35.5455L318.053 40.625H318.189L321.087 35.5455H326.371L321.155 44.2727L326.575 53H321.155L318.189 47.8182H318.053L315.087 53H309.7L315.053 44.2727L309.871 35.5455H315.189Z" fill="white"/>
<g opacity="0.33">
<path d="M1149.59 115.545C1149.64 119.279 1150.17 122.991 1151.16 126.591H1103.84C1104.83 122.991 1105.36 119.279 1105.41 115.545H1149.59ZM1110.93 71.3636H1144.07C1148.21 71.3785 1152.29 72.3291 1156.01 74.1443C1159.73 75.9595 1162.99 78.5923 1165.55 81.8458C1168.37 79.4508 1171.49 77.4208 1174.82 75.8039C1171.25 71.0129 1166.61 67.1193 1161.27 64.4314C1155.93 61.7436 1150.04 60.3353 1144.07 60.3182H1110.93C1104.96 60.3353 1099.07 61.7436 1093.73 64.4314C1088.39 67.1193 1083.75 71.0129 1080.18 75.8039C1083.52 77.42 1086.63 79.45 1089.46 81.8458C1092.02 78.5937 1095.28 75.9618 1099 74.1467C1102.71 72.3316 1106.79 71.3802 1110.93 71.3636ZM1094.36 16.1364C1094.36 9.58262 1096.31 3.17605 1099.95 -2.2732C1103.59 -7.72244 1108.76 -11.9696 1114.82 -14.4776C1120.87 -16.9856 1127.54 -17.6419 1133.96 -16.3633C1140.39 -15.0847 1146.3 -11.9288 1150.93 -7.29457C1155.57 -2.66037 1158.72 3.24397 1160 9.67179C1161.28 16.0996 1160.62 22.7622 1158.11 28.8171C1155.61 34.872 1151.36 40.0472 1145.91 43.6883C1140.46 47.3293 1134.05 49.2727 1127.5 49.2727C1118.71 49.264 1110.29 45.77 1104.08 39.5576C1097.87 33.3453 1094.37 24.922 1094.36 16.1364ZM1105.41 16.1364C1105.41 20.5055 1106.7 24.7766 1109.13 28.4094C1111.56 32.0423 1115.01 34.8737 1119.05 36.5457C1123.08 38.2177 1127.52 38.6552 1131.81 37.8028C1136.09 36.9504 1140.03 34.8465 1143.12 31.757C1146.21 28.6675 1148.31 24.7313 1149.17 20.4461C1150.02 16.1609 1149.58 11.7191 1147.91 7.68255C1146.24 3.64597 1143.41 0.195839 1139.77 -2.23154C1136.14 -4.65892 1131.87 -5.95453 1127.5 -5.95453C1121.64 -5.94868 1116.03 -3.61938 1111.89 0.522205C1107.74 4.66379 1105.41 10.2793 1105.41 16.1364ZM1044.66 159.727H1077.8C1088.04 159.739 1097.87 163.816 1105.12 171.063C1112.37 178.311 1116.44 188.137 1116.45 198.386V226H1006V198.386C1006.01 188.137 1010.09 178.311 1017.34 171.063C1024.58 163.816 1034.41 159.739 1044.66 159.727ZM1044.66 170.773C1037.34 170.782 1030.32 173.694 1025.14 178.87C1019.97 184.047 1017.05 191.065 1017.05 198.386V214.955H1105.41V198.386C1105.4 191.065 1102.49 184.047 1097.31 178.87C1092.13 173.694 1085.12 170.782 1077.8 170.773H1044.66ZM1061.23 148.682C1054.67 148.682 1048.27 146.738 1042.82 143.097C1037.37 139.456 1033.12 134.281 1030.61 128.226C1028.11 122.171 1027.45 115.509 1028.73 109.081C1030.01 102.653 1033.16 96.7487 1037.8 92.1145C1042.43 87.4803 1048.33 84.3244 1054.76 83.0458C1061.19 81.7672 1067.85 82.4234 1073.91 84.9314C1079.96 87.4395 1085.14 91.6866 1088.78 97.1359C1092.42 102.585 1094.36 108.992 1094.36 115.545C1094.35 124.331 1090.86 132.754 1084.65 138.967C1078.44 145.179 1070.01 148.673 1061.23 148.682ZM1061.23 137.636C1065.6 137.636 1069.87 136.341 1073.5 133.913C1077.13 131.486 1079.96 128.036 1081.64 123.999C1083.31 119.963 1083.75 115.521 1082.89 111.236C1082.04 106.951 1079.94 103.014 1076.85 99.9248C1073.76 96.8354 1069.82 94.7314 1065.54 93.879C1061.25 93.0266 1056.81 93.4641 1052.77 95.1361C1048.74 96.8081 1045.29 99.6396 1042.86 103.272C1040.43 106.905 1039.14 111.176 1039.14 115.545C1039.14 121.403 1041.47 127.018 1045.61 131.16C1049.75 135.301 1055.37 137.631 1061.23 137.636ZM1249 198.386V226H1138.55V198.386C1138.56 188.137 1142.63 178.311 1149.88 171.063C1157.13 163.816 1166.96 159.739 1177.2 159.727H1210.34C1220.59 159.739 1230.42 163.816 1237.66 171.063C1244.91 178.311 1248.99 188.137 1249 198.386ZM1237.95 198.386C1237.95 191.065 1235.03 184.047 1229.86 178.87C1224.68 173.694 1217.66 170.782 1210.34 170.773H1177.2C1169.88 170.782 1162.87 173.694 1157.69 178.87C1152.51 184.047 1149.6 191.065 1149.59 198.386V214.955H1237.95V198.386ZM1226.91 115.545C1226.91 122.099 1224.97 128.506 1221.32 133.955C1217.68 139.404 1212.51 143.651 1206.45 146.159C1200.4 148.667 1193.74 149.324 1187.31 148.045C1180.88 146.767 1174.98 143.611 1170.34 138.976C1165.71 134.342 1162.55 128.438 1161.27 122.01C1159.99 115.582 1160.65 108.92 1163.16 102.865C1165.67 96.8098 1169.91 91.6347 1175.36 87.9936C1180.81 84.3525 1187.22 82.4091 1193.77 82.4091C1202.56 82.4179 1210.98 85.9118 1217.19 92.1242C1223.41 98.3366 1226.9 106.76 1226.91 115.545ZM1215.86 115.545C1215.86 111.176 1214.57 106.905 1212.14 103.272C1209.71 99.6396 1206.26 96.8081 1202.23 95.1361C1198.19 93.4641 1193.75 93.0266 1189.46 93.879C1185.18 94.7314 1181.24 96.8354 1178.15 99.9248C1175.06 103.014 1172.96 106.951 1172.11 111.236C1171.25 115.521 1171.69 119.963 1173.36 123.999C1175.04 128.036 1177.87 131.486 1181.5 133.913C1185.13 136.341 1189.4 137.636 1193.77 137.636C1199.63 137.631 1205.25 135.301 1209.39 131.16C1213.53 127.018 1215.86 121.403 1215.86 115.545Z" fill="url(#paint5_linear_130_22)"/>
</g>
<g opacity="0.26">
<path fill-rule="evenodd" clip-rule="evenodd" d="M152.235 444V479.129H163.941V455.718H269.294V537.647H245.871V564.571L218.959 537.647H210.753V490.835H82V596.188H117.106V639.605L160.429 596.188H210.753V549.353H214.148L257.588 592.793V549.353H281V444H152.235ZM117.114 537.651H175.644V525.945H117.114V537.651ZM117.114 561.062H152.243V549.345H117.114V561.062ZM93.7058 502.529H199.059V584.482H155.63L128.812 611.394V584.482H93.706V502.529H93.7058Z" fill="url(#paint6_linear_130_22)"/>
</g>
</g>
<defs>
<linearGradient id="paint0_linear_130_22" x1="-63.757" y1="-34.0071" x2="-63.757" y2="347.166" gradientUnits="userSpaceOnUse">
<stop stop-color="#FF9E0B"/>
<stop offset="1" stop-color="#EC4899"/>
</linearGradient>
<linearGradient id="paint1_linear_130_22" x1="1173" y1="695.827" x2="1173" y2="969.442" gradientUnits="userSpaceOnUse">
<stop stop-color="#FF9E0B"/>
<stop offset="1" stop-color="#F24E52"/>
</linearGradient>
<linearGradient id="paint2_linear_130_22" x1="882.5" y1="530" x2="882.5" y2="919" gradientUnits="userSpaceOnUse">
<stop stop-color="#FF9E0B"/>
<stop offset="1" stop-color="#9C67E7"/>
</linearGradient>
<linearGradient id="paint3_linear_130_22" x1="491" y1="30" x2="491" y2="162" gradientUnits="userSpaceOnUse">
<stop stop-color="#FF9E0B"/>
<stop offset="1" stop-color="#DA46EB"/>
</linearGradient>
<linearGradient id="paint4_linear_130_22" x1="600" y1="255" x2="600" y2="376" gradientUnits="userSpaceOnUse">
<stop stop-color="#FF9E0B"/>
<stop offset="0.49" stop-color="#F24E52"/>
</linearGradient>
<linearGradient id="paint5_linear_130_22" x1="1127.5" y1="-17" x2="1127.5" y2="226" gradientUnits="userSpaceOnUse">
<stop stop-color="#4A74F4"/>
<stop offset="1" stop-color="#DA46EB"/>
</linearGradient>
<linearGradient id="paint6_linear_130_22" x1="181.5" y1="444" x2="181.5" y2="639.605" gradientUnits="userSpaceOnUse">
<stop stop-color="#FF9E0B"/>
<stop offset="1" stop-color="#EC4899"/>
</linearGradient>
<clipPath id="clip0_130_22">
<rect width="1200" height="630" fill="white"/>
</clipPath>
</defs>
</svg>
