<svg width="1200" height="630" viewBox="0 0 1200 630" fill="none" xmlns="http://www.w3.org/2000/svg">
<g clip-path="url(#clip0_128_3)">
<rect width="1200" height="630" fill="black"/>
<g opacity="0.19">
<path d="M503.139 479.984C503.066 479.84 502.984 479.701 502.893 479.568C502.893 479.521 502.789 479.512 502.751 479.464C497.683 472.805 491.146 467.406 483.65 463.686C476.153 459.967 467.9 458.028 459.531 458.02H449.225C440.855 458.026 432.6 459.966 425.103 463.687C417.607 467.409 411.071 472.811 406.005 479.474C405.958 479.474 405.901 479.53 405.863 479.578C405.825 479.625 405.721 479.843 405.627 479.965C398.58 489.335 394.764 500.739 394.753 512.463V526.769C393.537 524.739 392.222 522.776 390.81 520.878C390.706 520.66 390.582 520.451 390.442 520.254C390.385 520.188 390.29 520.16 390.224 520.094C389.089 518.6 387.889 517.153 386.641 515.763V453.358C386.634 441.628 382.818 430.217 375.767 420.842C375.663 420.709 375.635 420.558 375.521 420.435C375.408 420.312 375.417 420.369 375.379 420.322C370.299 413.685 363.757 408.308 356.261 404.61C348.765 400.912 340.518 398.993 332.159 399H321.853C313.483 399.007 305.228 400.946 297.732 404.668C290.235 408.389 283.699 413.792 278.633 420.454C278.586 420.454 278.529 420.511 278.491 420.549C278.453 420.586 278.349 420.823 278.255 420.946C271.197 430.321 267.377 441.737 267.372 453.472V515.877C266.114 517.276 264.923 518.713 263.779 520.216C263.713 520.283 263.628 520.311 263.571 520.377C263.433 520.568 263.313 520.77 263.212 520.982C261.791 522.878 260.472 524.848 259.259 526.882V512.463C259.256 500.734 255.443 489.322 248.395 479.947C248.291 479.814 248.263 479.653 248.149 479.53C248.036 479.408 248.045 479.474 248.007 479.426C242.939 472.767 236.402 467.368 228.906 463.648C221.41 459.929 213.156 457.99 204.787 457.982H194.481C186.11 457.989 177.854 459.929 170.356 463.65C162.858 467.372 156.32 472.774 151.252 479.436C151.252 479.436 151.157 479.493 151.119 479.54C151.082 479.587 150.978 479.805 150.883 479.928C143.825 489.307 140.005 500.725 140 512.463V556.184C140 556.847 140.131 557.503 140.385 558.115C140.638 558.727 141.01 559.283 141.479 559.751C141.948 560.219 142.505 560.59 143.118 560.843C143.73 561.096 144.386 561.225 145.049 561.224H162.39V575.823C162.488 579.699 164.096 583.383 166.872 586.09C169.648 588.797 173.372 590.312 177.249 590.312C181.126 590.312 184.85 588.797 187.626 586.09C190.402 583.383 192.01 579.699 192.108 575.823V561.262H207.17V575.861C207.17 579.8 208.735 583.579 211.521 586.364C214.307 589.15 218.085 590.715 222.024 590.715C225.964 590.715 229.742 589.15 232.528 586.364C235.314 583.579 236.879 579.8 236.879 575.861V561.262H249.274C249.274 561.867 249.18 562.463 249.18 563.068V621.378C249.18 622.715 249.711 623.997 250.656 624.942C251.601 625.887 252.883 626.418 254.22 626.418H279.03V647.55C279.03 652.358 280.94 656.968 284.339 660.367C287.738 663.767 292.349 665.676 297.156 665.676C301.963 665.676 306.574 663.767 309.973 660.367C313.372 656.968 315.282 652.358 315.282 647.55V626.418H338.731V647.55C338.731 652.358 340.64 656.968 344.04 660.367C347.439 663.767 352.049 665.676 356.856 665.676C361.664 665.676 366.274 663.767 369.673 660.367C373.073 656.968 374.982 652.358 374.982 647.55V626.418H399.812C401.148 626.418 402.43 625.887 403.375 624.942C404.32 623.997 404.851 622.715 404.851 621.378V563.068C404.851 562.463 404.776 561.867 404.757 561.262H417.153V575.861C417.153 579.8 418.718 583.579 421.503 586.364C424.289 589.15 428.067 590.715 432.007 590.715C435.946 590.715 439.725 589.15 442.51 586.364C445.296 583.579 446.861 579.8 446.861 575.861V561.262H461.923V575.861C462.021 579.737 463.63 583.421 466.405 586.128C469.181 588.835 472.905 590.349 476.782 590.349C480.659 590.349 484.383 588.835 487.159 586.128C489.935 583.421 491.543 579.737 491.641 575.861V561.262H508.982C509.645 561.263 510.301 561.134 510.914 560.881C511.526 560.628 512.083 560.257 512.552 559.789C513.021 559.321 513.393 558.765 513.647 558.153C513.901 557.541 514.031 556.885 514.031 556.222V512.463C514.011 500.743 510.189 489.347 503.139 479.984ZM194.481 468.109H204.787C210.959 468.122 217.059 469.431 222.693 471.951C228.327 474.471 233.369 478.145 237.493 482.736C232.387 488.135 223.168 499.216 219.528 512.369C219.052 514.059 218.039 515.549 216.643 516.613C215.246 517.677 213.54 518.259 211.784 518.269H187.522C185.766 518.259 184.061 517.677 182.664 516.613C181.267 515.549 180.254 514.059 179.778 512.369C176.1 499.216 166.881 488.135 161.813 482.736C165.934 478.15 170.97 474.478 176.597 471.959C182.223 469.439 188.316 468.128 194.481 468.109ZM182.029 575.899C182.029 577.165 181.526 578.379 180.63 579.275C179.735 580.17 178.52 580.673 177.254 580.673C175.987 580.673 174.773 580.17 173.877 579.275C172.982 578.379 172.479 577.165 172.479 575.899V561.262H182.029V575.899ZM226.79 575.899C226.79 577.164 226.287 578.377 225.393 579.272C224.498 580.166 223.285 580.669 222.02 580.669C220.755 580.669 219.541 580.166 218.647 579.272C217.752 578.377 217.249 577.164 217.249 575.899V561.262H226.78L226.79 575.899ZM249.18 551.23H150.089V512.463C150.122 504.975 152.076 497.621 155.762 491.104C160.319 496.172 167.231 505.041 170.03 515.044C171.106 518.846 173.39 522.194 176.538 524.582C179.685 526.97 183.524 528.269 187.475 528.282H211.747C215.697 528.269 219.537 526.97 222.684 524.582C225.831 522.194 228.116 518.846 229.191 515.044C231.981 505.088 238.902 496.2 243.469 491.113C247.151 497.629 249.104 504.979 249.142 512.463L249.18 551.23ZM327.006 572.438H310.847C308.141 572.426 305.512 571.532 303.359 569.893C301.206 568.253 299.646 565.957 298.915 563.351C293.818 545.093 280.486 529.814 274.142 523.308C279.838 516.69 286.896 511.378 294.833 507.736C302.77 504.094 311.399 502.207 320.132 502.204H333.88C342.613 502.207 351.242 504.094 359.179 507.736C367.116 511.378 374.174 516.69 379.871 523.308C373.526 529.814 360.194 545.055 355.088 563.351C354.358 565.958 352.798 568.255 350.645 569.894C348.492 571.534 345.862 572.427 343.156 572.438H327.006ZM283.181 432.093C287.738 437.161 294.65 446.031 297.449 456.034C298.525 459.836 300.809 463.184 303.957 465.572C307.104 467.96 310.943 469.259 314.894 469.272H339.118C343.069 469.259 346.908 467.96 350.056 465.572C353.203 463.184 355.487 459.836 356.563 456.034C359.353 446.068 366.274 437.18 370.841 432.103C374.522 438.616 376.475 445.962 376.514 453.443V506.535C364.25 497.192 349.26 492.13 333.842 492.125H320.132C304.715 492.131 289.725 497.193 277.461 506.535V453.434C277.51 445.948 279.48 438.6 283.181 432.093ZM321.853 409.051H332.159C338.323 409.071 344.415 410.382 350.041 412.9C355.668 415.418 360.705 419.086 364.827 423.669C359.721 429.068 350.503 440.159 346.862 453.302C346.386 454.992 345.373 456.482 343.977 457.546C342.58 458.61 340.874 459.191 339.118 459.202H314.894C313.138 459.191 311.433 458.61 310.036 457.546C308.639 456.482 307.626 454.992 307.15 453.302C303.472 440.159 294.253 429.068 289.185 423.669C293.307 419.084 298.343 415.414 303.97 412.895C309.596 410.376 315.688 409.063 321.853 409.042V409.051ZM305.202 647.55C305.255 648.639 305.086 649.726 304.706 650.747C304.326 651.768 303.743 652.702 302.991 653.491C302.24 654.279 301.336 654.907 300.334 655.337C299.333 655.766 298.255 655.987 297.165 655.987C296.076 655.987 294.998 655.766 293.996 655.337C292.995 654.907 292.091 654.279 291.339 653.491C290.588 652.702 290.004 651.768 289.624 650.747C289.244 649.726 289.076 648.639 289.128 647.55V626.418H305.202V647.55ZM364.893 647.55C364.946 648.639 364.777 649.726 364.397 650.747C364.017 651.768 363.434 652.702 362.682 653.491C361.931 654.279 361.027 654.907 360.026 655.337C359.024 655.766 357.946 655.987 356.856 655.987C355.767 655.987 354.689 655.766 353.687 655.337C352.686 654.907 351.782 654.279 351.031 653.491C350.279 652.702 349.696 651.768 349.315 650.747C348.935 649.726 348.767 648.639 348.819 647.55V626.418H364.893V647.55ZM394.753 616.348H259.259V563.068C259.266 551.974 262.328 541.097 268.109 531.629C274.132 538.021 285.025 551.097 289.204 566.065C290.534 570.787 293.365 574.947 297.271 577.915C301.176 580.884 305.942 582.499 310.847 582.517H343.156C348.067 582.51 352.842 580.899 356.754 577.93C360.666 574.96 363.5 570.794 364.827 566.065C368.997 551.145 379.908 538.049 385.931 531.638C391.713 541.103 394.775 551.977 394.781 563.068L394.753 616.348ZM449.225 468.118H459.531C465.703 468.132 471.803 469.441 477.436 471.961C483.07 474.48 488.112 478.154 492.237 482.745C487.131 488.144 477.912 499.226 474.272 512.378C473.796 514.068 472.783 515.558 471.386 516.623C469.989 517.687 468.284 518.268 466.528 518.278H442.256C440.501 518.269 438.797 517.688 437.401 516.624C436.005 515.559 434.995 514.069 434.522 512.378C430.853 499.226 421.625 488.144 416.557 482.745C420.676 478.157 425.712 474.484 431.339 471.963C436.966 469.442 443.059 468.129 449.225 468.109V468.118ZM436.763 575.908C436.763 577.173 436.26 578.386 435.366 579.281C434.471 580.176 433.258 580.678 431.993 580.678C430.728 580.678 429.514 580.176 428.62 579.281C427.725 578.386 427.222 577.173 427.222 575.908V561.262H436.763V575.908ZM481.534 575.908C481.534 577.174 481.03 578.389 480.135 579.284C479.24 580.18 478.025 580.683 476.759 580.683C475.492 580.683 474.278 580.18 473.382 579.284C472.487 578.389 471.984 577.174 471.984 575.908V561.262H481.534V575.908ZM503.924 551.23H404.832V512.463C404.881 504.971 406.85 497.617 410.553 491.104C415.11 496.172 422.022 505.041 424.821 515.044C425.892 518.847 428.174 522.196 431.32 524.585C434.467 526.974 438.306 528.272 442.256 528.282H466.49C470.441 528.269 474.28 526.97 477.428 524.582C480.575 522.194 482.859 518.846 483.935 515.044C486.724 505.088 493.646 496.2 498.213 491.113C501.895 497.629 503.848 504.979 503.886 512.463L503.924 551.23Z" fill="url(#paint0_linear_128_3)"/>
</g>
<g opacity="0.2">
<path d="M1133.25 87.7011C1137.59 87.7011 1141.83 86.4137 1145.44 84.0018C1149.05 81.59 1151.86 78.1619 1153.52 74.151C1155.19 70.1402 1155.62 65.7268 1154.77 61.4689C1153.93 57.2111 1151.84 53.3 1148.77 50.2302C1145.7 47.1605 1141.79 45.0699 1137.53 44.223C1133.27 43.376 1128.86 43.8107 1124.85 45.4721C1120.84 47.1334 1117.41 49.9468 1115 53.5564C1112.58 57.1661 1111.3 61.4099 1111.3 65.7512C1111.3 71.5704 1113.62 77.1494 1117.73 81.2642C1121.85 85.3791 1127.43 87.694 1133.25 87.7011ZM1133.25 53.3556C1135.7 53.3538 1138.1 54.0793 1140.13 55.4403C1142.17 56.8012 1143.76 58.7365 1144.7 61.0014C1145.64 63.2662 1145.89 65.7588 1145.41 68.1639C1144.94 70.569 1143.76 72.7785 1142.02 74.513C1140.29 76.2474 1138.08 77.4289 1135.68 77.9079C1133.27 78.3869 1130.78 78.1419 1128.51 77.204C1126.25 76.2661 1124.31 74.6773 1122.95 72.6387C1121.59 70.6001 1120.86 68.2031 1120.86 65.7512C1120.86 62.4659 1122.17 59.3158 1124.49 56.9919C1126.81 54.6681 1129.96 53.3603 1133.25 53.3556Z" fill="url(#paint1_linear_128_3)"/>
<path d="M1294.78 91.6537V90.3631C1294.78 82.5851 1291.68 75.1277 1286.18 69.6278C1280.68 64.1279 1273.23 61.0349 1265.45 61.0278H1257.64L1228.41 2.68884C1228.03 1.88602 1227.42 1.20831 1226.67 0.732913C1225.91 0.257518 1225.04 0.00356537 1224.15 0H1133.93C1133.81 0 1133.71 0.0627413 1133.59 0.0717041C1133.46 0.080667 1133.37 0 1133.25 0H1043.07C1042.18 0.00356537 1041.31 0.257518 1040.55 0.732913C1039.8 1.20831 1039.19 1.88602 1038.8 2.68884L1009.58 61.0278H1001.78C994.001 61.0349 986.542 64.1276 981.041 69.6272C975.54 75.1269 972.445 82.5842 972.435 90.3631V91.6537C964.821 92.7861 957.866 96.6113 952.832 102.435C947.798 108.258 945.019 115.694 945 123.391V156.356C945 157.623 945.503 158.838 946.399 159.734C947.295 160.63 948.51 161.133 949.777 161.133H961.429V176.442C961.429 177.069 961.552 177.691 961.792 178.27C962.033 178.85 962.384 179.376 962.828 179.82C963.272 180.264 963.798 180.615 964.378 180.855C964.957 181.096 965.579 181.219 966.206 181.219C966.833 181.219 967.455 181.096 968.034 180.855C968.614 180.615 969.14 180.264 969.584 179.82C970.028 179.376 970.379 178.85 970.62 178.27C970.86 177.691 970.983 177.069 970.983 176.442V161.116H983.531V176.424C983.531 177.691 984.034 178.906 984.93 179.802C985.826 180.698 987.041 181.201 988.308 181.201C989.575 181.201 990.79 180.698 991.686 179.802C992.582 178.906 993.085 177.691 993.085 176.424V161.116H1004.74C1006 161.116 1007.22 160.612 1008.12 159.716C1009.01 158.82 1009.51 157.605 1009.51 156.338V123.373C1009.48 115.661 1006.69 108.215 1001.63 102.393C996.568 96.5713 989.587 92.7601 981.954 91.6537V90.3631C981.961 85.1175 984.048 80.0889 987.758 76.3806C991.468 72.6722 996.498 70.5869 1001.74 70.5822H1011.02L1128.43 155.254V183.433H1074.89C1067.63 183.454 1060.68 186.354 1055.55 191.495C1050.43 196.636 1047.55 203.6 1047.55 210.859V237.541C1047.55 237.694 1047.63 237.828 1047.64 237.99C1047.64 238.294 1047.55 238.572 1047.55 238.886C1047.54 244.2 1049.21 249.38 1052.34 253.679C1055.46 257.978 1059.87 261.171 1064.93 262.798C1069.99 264.424 1075.43 264.4 1080.48 262.728C1085.52 261.055 1089.9 257.822 1092.98 253.495C1095.29 256.74 1098.34 259.386 1101.87 261.211C1105.41 263.037 1109.33 263.99 1113.31 263.99C1117.29 263.99 1121.21 263.037 1124.75 261.211C1128.29 259.386 1131.34 256.74 1133.64 253.495C1135.95 256.74 1138.99 259.386 1142.53 261.211C1146.07 263.037 1149.99 263.99 1153.97 263.99C1157.95 263.99 1161.87 263.037 1165.41 261.211C1168.94 259.386 1171.99 256.74 1174.3 253.495C1177.4 257.787 1181.77 260.985 1186.81 262.632C1191.84 264.279 1197.26 264.289 1202.3 262.661C1207.33 261.033 1211.73 257.851 1214.84 253.571C1217.96 249.292 1219.64 244.135 1219.64 238.841C1219.64 238.527 1219.56 238.25 1219.55 237.945C1219.55 237.783 1219.64 237.649 1219.64 237.497V210.859C1219.63 203.6 1216.74 196.641 1211.61 191.508C1206.48 186.375 1199.52 183.487 1192.26 183.478H1138.71V155.236L1256.13 70.5642H1265.41C1270.66 70.5713 1275.68 72.6577 1279.39 76.3658C1283.1 80.0739 1285.19 85.1011 1285.19 90.3452V91.6537C1277.58 92.7859 1270.62 96.6107 1265.59 102.434C1260.55 108.257 1257.77 115.693 1257.75 123.391V156.356C1257.75 157.623 1258.25 158.838 1259.15 159.734C1260.04 160.63 1261.26 161.133 1262.53 161.133H1274.18V176.442C1274.18 177.709 1274.68 178.924 1275.58 179.82C1276.47 180.716 1277.69 181.219 1278.95 181.219C1280.22 181.219 1281.44 180.716 1282.33 179.82C1283.23 178.924 1283.73 177.709 1283.73 176.442V161.116H1296.28V176.424C1296.28 177.691 1296.78 178.906 1297.68 179.802C1298.57 180.698 1299.79 181.201 1301.06 181.201C1302.32 181.201 1303.54 180.698 1304.43 179.802C1305.33 178.906 1305.83 177.691 1305.83 176.424V161.116H1317.49C1318.75 161.116 1319.97 160.612 1320.86 159.716C1321.76 158.82 1322.26 157.605 1322.26 156.338V123.373C1322.24 115.672 1319.45 108.235 1314.41 102.415C1309.37 96.5943 1302.4 92.7759 1294.78 91.6537ZM999.834 123.373V151.561H954.519V123.373C954.519 117.364 956.906 111.601 961.155 107.352C965.404 103.102 971.167 100.715 977.176 100.715C983.186 100.715 988.949 103.102 993.198 107.352C997.447 111.601 999.834 117.364 999.834 123.373ZM1072.65 254.383C1069.57 254.381 1066.57 253.468 1064.02 251.759C1061.46 250.05 1059.47 247.622 1058.3 244.782C1057.12 241.942 1056.81 238.818 1057.42 235.804C1058.02 232.789 1059.5 230.021 1061.67 227.848C1063.84 225.676 1066.61 224.196 1069.63 223.598C1072.64 222.999 1075.77 223.307 1078.61 224.483C1081.45 225.66 1083.87 227.652 1085.58 230.208C1087.29 232.763 1088.2 235.768 1088.2 238.841C1088.2 242.964 1086.56 246.917 1083.64 249.831C1080.73 252.745 1076.77 254.383 1072.65 254.383ZM1113.3 254.383C1110.23 254.381 1107.23 253.468 1104.67 251.759C1102.12 250.05 1100.13 247.622 1098.95 244.782C1097.78 241.942 1097.47 238.818 1098.07 235.804C1098.67 232.789 1100.15 230.021 1102.33 227.848C1104.5 225.676 1107.27 224.196 1110.28 223.598C1113.3 222.999 1116.42 223.307 1119.26 224.483C1122.1 225.66 1124.53 227.652 1126.24 230.208C1127.94 232.763 1128.85 235.768 1128.85 238.841C1128.85 240.885 1128.45 242.909 1127.66 244.796C1126.88 246.684 1125.73 248.398 1124.28 249.841C1122.83 251.284 1121.12 252.428 1119.23 253.208C1117.34 253.987 1115.31 254.386 1113.27 254.383H1113.3ZM1153.96 254.383C1150.88 254.393 1147.87 253.491 1145.31 251.79C1142.75 250.088 1140.75 247.665 1139.56 244.826C1138.38 241.987 1138.06 238.86 1138.66 235.842C1139.25 232.824 1140.73 230.05 1142.9 227.871C1145.07 225.692 1147.84 224.206 1150.85 223.602C1153.87 222.998 1157 223.303 1159.84 224.477C1162.68 225.652 1165.11 227.644 1166.82 230.201C1168.53 232.758 1169.45 235.765 1169.45 238.841C1169.44 242.958 1167.81 246.906 1164.9 249.819C1161.99 252.732 1158.04 254.373 1153.92 254.383H1153.96ZM1194.61 254.383C1191.53 254.383 1188.53 253.471 1185.97 251.763C1183.42 250.056 1181.42 247.628 1180.25 244.789C1179.07 241.949 1178.76 238.824 1179.36 235.809C1179.96 232.794 1181.44 230.025 1183.62 227.852C1185.79 225.678 1188.56 224.198 1191.57 223.598C1194.59 222.998 1197.71 223.306 1200.55 224.483C1203.39 225.659 1205.82 227.651 1207.53 230.207C1209.24 232.762 1210.15 235.767 1210.15 238.841C1210.15 240.887 1209.74 242.912 1208.96 244.802C1208.17 246.691 1207.02 248.406 1205.57 249.85C1204.12 251.294 1202.4 252.437 1200.51 253.215C1198.62 253.993 1196.59 254.39 1194.54 254.383H1194.61ZM1192.33 192.987C1197.06 193.004 1201.58 194.895 1204.92 198.246C1208.25 201.596 1210.12 206.133 1210.11 210.859V219.338C1207.48 217.199 1204.43 215.623 1201.17 214.709C1197.9 213.794 1194.48 213.561 1191.12 214.023C1187.75 214.486 1184.52 215.633 1181.62 217.396C1178.72 219.158 1176.22 221.497 1174.26 224.268C1171.95 221.026 1168.9 218.384 1165.37 216.561C1161.83 214.737 1157.91 213.786 1153.93 213.786C1149.95 213.786 1146.03 214.737 1142.5 216.561C1138.96 218.384 1135.91 221.026 1133.6 224.268C1131.3 221.025 1128.25 218.381 1124.71 216.556C1121.18 214.732 1117.26 213.78 1113.28 213.78C1109.3 213.78 1105.38 214.732 1101.84 216.556C1098.3 218.381 1095.26 221.025 1092.95 224.268C1090.99 221.497 1088.48 219.158 1085.59 217.396C1082.69 215.634 1079.46 214.486 1076.09 214.023C1072.73 213.56 1069.31 213.792 1066.05 214.705C1062.78 215.617 1059.73 217.191 1057.1 219.329V210.859C1057.1 206.134 1058.98 201.604 1062.32 198.262C1065.66 194.92 1070.19 193.039 1074.92 193.032H1133.27C1133.4 193.032 1133.5 192.969 1133.61 192.96C1133.73 192.951 1133.84 193.032 1133.95 193.032L1192.33 192.987ZM1133.6 147.16L1027.35 70.5553H1088.66C1089.77 81.6103 1094.95 91.8589 1103.19 99.3126C1111.43 106.766 1122.14 110.894 1133.25 110.894C1144.37 110.894 1155.08 106.766 1163.32 99.3126C1171.56 91.8589 1176.74 81.6103 1177.84 70.5553H1219.83H1239.83L1133.6 147.16ZM1097.74 65.7512C1097.74 58.7253 1099.82 51.8567 1103.73 46.0142C1107.63 40.1716 1113.18 35.6176 1119.67 32.9281C1126.16 30.2386 1133.3 29.5344 1140.19 30.9047C1147.08 32.2749 1153.41 35.658 1158.38 40.6261C1163.35 45.5941 1166.73 51.9239 1168.1 58.8149C1169.47 65.7059 1168.77 72.8484 1166.08 79.3391C1163.39 85.8299 1158.83 91.3772 1152.99 95.2795C1147.15 99.1817 1140.28 101.264 1133.25 101.262C1123.84 101.25 1114.82 97.5049 1108.16 90.8479C1101.5 84.191 1097.76 75.1656 1097.74 65.7512ZM1177.85 60.9919C1176.74 49.937 1171.57 39.6883 1163.33 32.2346C1155.09 24.7809 1144.37 20.6537 1133.26 20.6537C1122.15 20.6537 1111.44 24.7809 1103.2 32.2346C1094.96 39.6883 1089.78 49.937 1088.67 60.9919C1063.36 60.9919 1034.12 60.9919 1020.24 60.9919L1046 9.59021H1133.25C1133.38 9.59021 1133.48 9.52747 1133.6 9.51851C1133.71 9.50955 1133.82 9.59021 1133.94 9.59021H1221.2L1246.96 60.9919C1232.96 61.0188 1203.3 61.0099 1177.84 60.9919H1177.85ZM1312.68 151.516H1267.35V123.373C1267.47 117.441 1269.91 111.791 1274.14 107.637C1278.38 103.484 1284.08 101.157 1290.01 101.157C1295.94 101.157 1301.64 103.484 1305.88 107.637C1310.12 111.791 1312.55 117.441 1312.67 123.373L1312.68 151.516Z" fill="url(#paint2_linear_128_3)"/>
</g>
<rect x="-427.809" y="-32.4841" width="729.486" height="376.173" transform="rotate(-19.4848 -427.809 -32.4841)" stroke="url(#paint3_linear_128_3)" stroke-width="5"/>
<rect x="883" y="695.827" width="580" height="273.616" transform="rotate(-35.26 883 695.827)" fill="url(#paint4_linear_128_3)"/>
<circle cx="882.5" cy="724.5" r="193" stroke="url(#paint5_linear_128_3)" stroke-width="3"/>
<path opacity="0.49" d="M415 58.3636C414.121 58.3636 413.367 58.0568 412.739 57.4432C412.117 56.822 411.811 56.0682 411.818 55.1818C411.811 54.3182 412.117 53.5795 412.739 52.9659C413.367 52.3523 414.121 52.0455 415 52.0455C415.833 52.0455 416.568 52.3523 417.205 52.9659C417.848 53.5795 418.174 54.3182 418.182 55.1818C418.174 55.7727 418.019 56.3106 417.716 56.7955C417.42 57.2727 417.034 57.6553 416.557 57.9432C416.08 58.2235 415.561 58.3636 415 58.3636ZM459.003 58.3636C458.124 58.3636 457.37 58.0568 456.741 57.4432C456.12 56.822 455.813 56.0682 455.821 55.1818C455.813 54.3182 456.12 53.5795 456.741 52.9659C457.37 52.3523 458.124 52.0455 459.003 52.0455C459.836 52.0455 460.571 52.3523 461.207 52.9659C461.851 53.5795 462.177 54.3182 462.184 55.1818C462.177 55.7727 462.021 56.3106 461.718 56.7955C461.423 57.2727 461.037 57.6553 460.559 57.9432C460.082 58.2235 459.563 58.3636 459.003 58.3636ZM503.005 58.3636C502.126 58.3636 501.372 58.0568 500.744 57.4432C500.122 56.822 499.816 56.0682 499.823 55.1818C499.816 54.3182 500.122 53.5795 500.744 52.9659C501.372 52.3523 502.126 52.0455 503.005 52.0455C503.838 52.0455 504.573 52.3523 505.21 52.9659C505.853 53.5795 506.179 54.3182 506.187 55.1818C506.179 55.7727 506.024 56.3106 505.721 56.7955C505.425 57.2727 505.039 57.6553 504.562 57.9432C504.085 58.2235 503.566 58.3636 503.005 58.3636ZM547.008 58.3636C546.129 58.3636 545.375 58.0568 544.746 57.4432C544.125 56.822 543.818 56.0682 543.826 55.1818C543.818 54.3182 544.125 53.5795 544.746 52.9659C545.375 52.3523 546.129 52.0455 547.008 52.0455C547.841 52.0455 548.576 52.3523 549.212 52.9659C549.856 53.5795 550.182 54.3182 550.189 55.1818C550.182 55.7727 550.026 56.3106 549.723 56.7955C549.428 57.2727 549.042 57.6553 548.564 57.9432C548.087 58.2235 547.568 58.3636 547.008 58.3636ZM415 91.3636C414.121 91.3636 413.367 91.0568 412.739 90.4432C412.117 89.822 411.811 89.0682 411.818 88.1818C411.811 87.3182 412.117 86.5795 412.739 85.9659C413.367 85.3523 414.121 85.0455 415 85.0455C415.833 85.0455 416.568 85.3523 417.205 85.9659C417.848 86.5795 418.174 87.3182 418.182 88.1818C418.174 88.7727 418.019 89.3106 417.716 89.7955C417.42 90.2727 417.034 90.6553 416.557 90.9432C416.08 91.2235 415.561 91.3636 415 91.3636ZM459.003 91.3636C458.124 91.3636 457.37 91.0568 456.741 90.4432C456.12 89.822 455.813 89.0682 455.821 88.1818C455.813 87.3182 456.12 86.5795 456.741 85.9659C457.37 85.3523 458.124 85.0455 459.003 85.0455C459.836 85.0455 460.571 85.3523 461.207 85.9659C461.851 86.5795 462.177 87.3182 462.184 88.1818C462.177 88.7727 462.021 89.3106 461.718 89.7955C461.423 90.2727 461.037 90.6553 460.559 90.9432C460.082 91.2235 459.563 91.3636 459.003 91.3636ZM503.005 91.3636C502.126 91.3636 501.372 91.0568 500.744 90.4432C500.122 89.822 499.816 89.0682 499.823 88.1818C499.816 87.3182 500.122 86.5795 500.744 85.9659C501.372 85.3523 502.126 85.0455 503.005 85.0455C503.838 85.0455 504.573 85.3523 505.21 85.9659C505.853 86.5795 506.179 87.3182 506.187 88.1818C506.179 88.7727 506.024 89.3106 505.721 89.7955C505.425 90.2727 505.039 90.6553 504.562 90.9432C504.085 91.2235 503.566 91.3636 503.005 91.3636ZM547.008 91.3636C546.129 91.3636 545.375 91.0568 544.746 90.4432C544.125 89.822 543.818 89.0682 543.826 88.1818C543.818 87.3182 544.125 86.5795 544.746 85.9659C545.375 85.3523 546.129 85.0455 547.008 85.0455C547.841 85.0455 548.576 85.3523 549.212 85.9659C549.856 86.5795 550.182 87.3182 550.189 88.1818C550.182 88.7727 550.026 89.3106 549.723 89.7955C549.428 90.2727 549.042 90.6553 548.564 90.9432C548.087 91.2235 547.568 91.3636 547.008 91.3636ZM415 124.364C414.121 124.364 413.367 124.057 412.739 123.443C412.117 122.822 411.811 122.068 411.818 121.182C411.811 120.318 412.117 119.58 412.739 118.966C413.367 118.352 414.121 118.045 415 118.045C415.833 118.045 416.568 118.352 417.205 118.966C417.848 119.58 418.174 120.318 418.182 121.182C418.174 121.773 418.019 122.311 417.716 122.795C417.42 123.273 417.034 123.655 416.557 123.943C416.08 124.223 415.561 124.364 415 124.364ZM459.003 124.364C458.124 124.364 457.37 124.057 456.741 123.443C456.12 122.822 455.813 122.068 455.821 121.182C455.813 120.318 456.12 119.58 456.741 118.966C457.37 118.352 458.124 118.045 459.003 118.045C459.836 118.045 460.571 118.352 461.207 118.966C461.851 119.58 462.177 120.318 462.184 121.182C462.177 121.773 462.021 122.311 461.718 122.795C461.423 123.273 461.037 123.655 460.559 123.943C460.082 124.223 459.563 124.364 459.003 124.364ZM503.005 124.364C502.126 124.364 501.372 124.057 500.744 123.443C500.122 122.822 499.816 122.068 499.823 121.182C499.816 120.318 500.122 119.58 500.744 118.966C501.372 118.352 502.126 118.045 503.005 118.045C503.838 118.045 504.573 118.352 505.21 118.966C505.853 119.58 506.179 120.318 506.187 121.182C506.179 121.773 506.024 122.311 505.721 122.795C505.425 123.273 505.039 123.655 504.562 123.943C504.085 124.223 503.566 124.364 503.005 124.364ZM547.008 124.364C546.129 124.364 545.375 124.057 544.746 123.443C544.125 122.822 543.818 122.068 543.826 121.182C543.818 120.318 544.125 119.58 544.746 118.966C545.375 118.352 546.129 118.045 547.008 118.045C547.841 118.045 548.576 118.352 549.212 118.966C549.856 119.58 550.182 120.318 550.189 121.182C550.182 121.773 550.026 122.311 549.723 122.795C549.428 123.273 549.042 123.655 548.564 123.943C548.087 124.223 547.568 124.364 547.008 124.364ZM415 157.364C414.121 157.364 413.367 157.057 412.739 156.443C412.117 155.822 411.811 155.068 411.818 154.182C411.811 153.318 412.117 152.58 412.739 151.966C413.367 151.352 414.121 151.045 415 151.045C415.833 151.045 416.568 151.352 417.205 151.966C417.848 152.58 418.174 153.318 418.182 154.182C418.174 154.773 418.019 155.311 417.716 155.795C417.42 156.273 417.034 156.655 416.557 156.943C416.08 157.223 415.561 157.364 415 157.364ZM459.003 157.364C458.124 157.364 457.37 157.057 456.741 156.443C456.12 155.822 455.813 155.068 455.821 154.182C455.813 153.318 456.12 152.58 456.741 151.966C457.37 151.352 458.124 151.045 459.003 151.045C459.836 151.045 460.571 151.352 461.207 151.966C461.851 152.58 462.177 153.318 462.184 154.182C462.177 154.773 462.021 155.311 461.718 155.795C461.423 156.273 461.037 156.655 460.559 156.943C460.082 157.223 459.563 157.364 459.003 157.364ZM503.005 157.364C502.126 157.364 501.372 157.057 500.744 156.443C500.122 155.822 499.816 155.068 499.823 154.182C499.816 153.318 500.122 152.58 500.744 151.966C501.372 151.352 502.126 151.045 503.005 151.045C503.838 151.045 504.573 151.352 505.21 151.966C505.853 152.58 506.179 153.318 506.187 154.182C506.179 154.773 506.024 155.311 505.721 155.795C505.425 156.273 505.039 156.655 504.562 156.943C504.085 157.223 503.566 157.364 503.005 157.364ZM547.008 157.364C546.129 157.364 545.375 157.057 544.746 156.443C544.125 155.822 543.818 155.068 543.826 154.182C543.818 153.318 544.125 152.58 544.746 151.966C545.375 151.352 546.129 151.045 547.008 151.045C547.841 151.045 548.576 151.352 549.212 151.966C549.856 152.58 550.182 153.318 550.189 154.182C550.182 154.773 550.026 155.311 549.723 155.795C549.428 156.273 549.042 156.655 548.564 156.943C548.087 157.223 547.568 157.364 547.008 157.364Z" fill="url(#paint6_linear_128_3)"/>
<mask id="path-8-outside-1_128_3" maskUnits="userSpaceOnUse" x="148" y="263" width="909" height="104" fill="black">
<rect fill="white" x="148" y="263" width="909" height="104"/>
<path d="M153.455 289.273V268.909H234.364V289.273H206.364V362H181.455V289.273H153.455ZM243.875 362V268.909H284.057C290.966 268.909 297.011 270.167 302.193 272.682C307.375 275.197 311.405 278.818 314.284 283.545C317.163 288.273 318.602 293.939 318.602 300.545C318.602 307.212 317.117 312.833 314.148 317.409C311.208 321.985 307.072 325.439 301.739 327.773C296.436 330.106 290.239 331.273 283.148 331.273H259.148V311.636H278.057C281.027 311.636 283.557 311.273 285.648 310.545C287.769 309.788 289.39 308.591 290.511 306.955C291.663 305.318 292.239 303.182 292.239 300.545C292.239 297.879 291.663 295.712 290.511 294.045C289.39 292.348 287.769 291.106 285.648 290.318C283.557 289.5 281.027 289.091 278.057 289.091H269.148V362H243.875ZM298.42 319.273L321.693 362H294.239L271.511 319.273H298.42ZM353.557 362H326.284L357.011 268.909H391.557L422.284 362H395.011L374.648 294.545H373.92L353.557 362ZM348.466 325.273H399.739V344.182H348.466V325.273ZM456.523 268.909V362H431.25V268.909H456.523ZM468.5 362V268.909H493.773V341.636H531.409V362H468.5ZM541.625 362V268.909H581.989C589.08 268.909 595.034 269.864 599.852 271.773C604.701 273.682 608.352 276.379 610.807 279.864C613.292 283.348 614.534 287.455 614.534 292.182C614.534 295.606 613.777 298.727 612.261 301.545C610.777 304.364 608.686 306.727 605.989 308.636C603.292 310.515 600.14 311.818 596.534 312.545V313.455C600.534 313.606 604.17 314.621 607.443 316.5C610.716 318.348 613.322 320.909 615.261 324.182C617.201 327.424 618.17 331.242 618.17 335.636C618.17 340.727 616.837 345.258 614.17 349.227C611.534 353.197 607.777 356.318 602.898 358.591C598.019 360.864 592.201 362 585.443 362H541.625ZM566.898 341.818H578.716C582.958 341.818 586.14 341.03 588.261 339.455C590.383 337.848 591.443 335.485 591.443 332.364C591.443 330.182 590.943 328.333 589.943 326.818C588.943 325.303 587.519 324.152 585.67 323.364C583.852 322.576 581.655 322.182 579.08 322.182H566.898V341.818ZM566.898 306.545H577.261C579.473 306.545 581.428 306.197 583.125 305.5C584.822 304.803 586.14 303.803 587.08 302.5C588.049 301.167 588.534 299.545 588.534 297.636C588.534 294.758 587.504 292.561 585.443 291.045C583.383 289.5 580.777 288.727 577.625 288.727H566.898V306.545ZM627.125 362V268.909H652.398V341.636H690.034V362H627.125ZM724.432 362H697.159L727.886 268.909H762.432L793.159 362H765.886L745.523 294.545H744.795L724.432 362ZM719.341 325.273H770.614V344.182H719.341V325.273ZM802.489 362V348L846.489 289.273H802.67V268.909H878.67V282.909L834.67 341.636H878.489V362H802.489ZM891 362V268.909H958.091V289.273H916.273V305.273H954.636V325.636H916.273V341.636H957.909V362H891ZM970.625 362V268.909H1010.81C1017.72 268.909 1023.76 270.167 1028.94 272.682C1034.13 275.197 1038.16 278.818 1041.03 283.545C1043.91 288.273 1045.35 293.939 1045.35 300.545C1045.35 307.212 1043.87 312.833 1040.9 317.409C1037.96 321.985 1033.82 325.439 1028.49 327.773C1023.19 330.106 1016.99 331.273 1009.9 331.273H985.898V311.636H1004.81C1007.78 311.636 1010.31 311.273 1012.4 310.545C1014.52 309.788 1016.14 308.591 1017.26 306.955C1018.41 305.318 1018.99 303.182 1018.99 300.545C1018.99 297.879 1018.41 295.712 1017.26 294.045C1016.14 292.348 1014.52 291.106 1012.4 290.318C1010.31 289.5 1007.78 289.091 1004.81 289.091H995.898V362H970.625ZM1025.17 319.273L1048.44 362H1020.99L998.261 319.273H1025.17Z"/>
</mask>
<path d="M153.455 289.273H148.455V294.273H153.455V289.273ZM153.455 268.909V263.909H148.455V268.909H153.455ZM234.364 268.909H239.364V263.909H234.364V268.909ZM234.364 289.273V294.273H239.364V289.273H234.364ZM206.364 289.273V284.273H201.364V289.273H206.364ZM206.364 362V367H211.364V362H206.364ZM181.455 362H176.455V367H181.455V362ZM181.455 289.273H186.455V284.273H181.455V289.273ZM158.455 289.273V268.909H148.455V289.273H158.455ZM153.455 273.909H234.364V263.909H153.455V273.909ZM229.364 268.909V289.273H239.364V268.909H229.364ZM234.364 284.273H206.364V294.273H234.364V284.273ZM201.364 289.273V362H211.364V289.273H201.364ZM206.364 357H181.455V367H206.364V357ZM186.455 362V289.273H176.455V362H186.455ZM181.455 284.273H153.455V294.273H181.455V284.273ZM243.875 362H238.875V367H243.875V362ZM243.875 268.909V263.909H238.875V268.909H243.875ZM302.193 272.682L300.01 277.18L302.193 272.682ZM314.284 283.545L318.555 280.945L318.555 280.945L314.284 283.545ZM314.148 317.409L309.954 314.687L309.947 314.697L309.941 314.707L314.148 317.409ZM301.739 327.773L299.735 323.192L299.725 323.196L301.739 327.773ZM259.148 331.273H254.148V336.273H259.148V331.273ZM259.148 311.636V306.636H254.148V311.636H259.148ZM285.648 310.545L287.29 315.268L287.31 315.261L287.329 315.254L285.648 310.545ZM290.511 306.955L286.422 304.077L286.404 304.103L286.387 304.128L290.511 306.955ZM290.511 294.045L286.34 296.802L286.368 296.845L286.398 296.888L290.511 294.045ZM285.648 290.318L283.826 294.974L283.866 294.99L283.907 295.005L285.648 290.318ZM269.148 289.091V284.091H264.148V289.091H269.148ZM269.148 362V367H274.148V362H269.148ZM298.42 319.273L302.811 316.881L301.391 314.273H298.42V319.273ZM321.693 362V367H330.11L326.084 359.608L321.693 362ZM294.239 362L289.824 364.348L291.235 367H294.239V362ZM271.511 319.273V314.273H263.188L267.097 321.621L271.511 319.273ZM248.875 362V268.909H238.875V362H248.875ZM243.875 273.909H284.057V263.909H243.875V273.909ZM284.057 273.909C290.359 273.909 295.631 275.055 300.01 277.18L304.376 268.184C298.392 265.279 291.573 263.909 284.057 263.909V273.909ZM300.01 277.18C304.365 279.294 307.655 282.273 310.014 286.146L318.555 280.945C315.156 275.363 310.385 271.1 304.376 268.184L300.01 277.18ZM310.014 286.146C312.33 289.95 313.602 294.678 313.602 300.545H323.602C323.602 293.201 321.996 286.596 318.555 280.945L310.014 286.146ZM313.602 300.545C313.602 306.462 312.291 311.086 309.954 314.687L318.342 320.131C321.944 314.581 323.602 307.962 323.602 300.545H313.602ZM309.941 314.707C307.573 318.394 304.231 321.225 299.735 323.192L303.743 332.354C309.913 329.654 314.844 325.576 318.355 320.111L309.941 314.707ZM299.725 323.196C295.182 325.195 289.697 326.273 283.148 326.273V336.273C290.781 336.273 297.689 335.017 303.752 332.349L299.725 323.196ZM283.148 326.273H259.148V336.273H283.148V326.273ZM264.148 331.273V311.636H254.148V331.273H264.148ZM259.148 316.636H278.057V306.636H259.148V316.636ZM278.057 316.636C281.407 316.636 284.525 316.23 287.29 315.268L284.005 305.823C282.588 306.316 280.646 306.636 278.057 306.636V316.636ZM287.329 315.254C290.303 314.192 292.84 312.401 294.636 309.781L286.387 304.128C285.94 304.78 285.235 305.384 283.966 305.837L287.329 315.254ZM294.6 309.832C296.507 307.122 297.239 303.888 297.239 300.545H287.239C287.239 302.476 286.819 303.514 286.422 304.077L294.6 309.832ZM297.239 300.545C297.239 297.181 296.511 293.933 294.625 291.203L286.398 296.888C286.815 297.491 287.239 298.577 287.239 300.545H297.239ZM294.683 291.289C292.912 288.608 290.387 286.745 287.389 285.631L283.907 295.005C285.151 295.467 285.869 296.089 286.34 296.802L294.683 291.289ZM287.47 285.662C284.644 284.556 281.46 284.091 278.057 284.091V294.091C280.593 294.091 282.469 294.444 283.826 294.974L287.47 285.662ZM278.057 284.091H269.148V294.091H278.057V284.091ZM264.148 289.091V362H274.148V289.091H264.148ZM269.148 357H243.875V367H269.148V357ZM294.03 321.664L317.302 364.392L326.084 359.608L302.811 316.881L294.03 321.664ZM321.693 357H294.239V367H321.693V357ZM298.653 359.652L275.926 316.925L267.097 321.621L289.824 364.348L298.653 359.652ZM271.511 324.273H298.42V314.273H271.511V324.273ZM353.557 362V367H357.27L358.343 363.445L353.557 362ZM326.284 362L321.536 360.433L319.368 367H326.284V362ZM357.011 268.909V263.909H353.396L352.263 267.342L357.011 268.909ZM391.557 268.909L396.305 267.342L395.172 263.909H391.557V268.909ZM422.284 362V367H429.2L427.032 360.433L422.284 362ZM395.011 362L390.225 363.445L391.298 367H395.011V362ZM374.648 294.545L379.434 293.1L378.361 289.545H374.648V294.545ZM373.92 294.545V289.545H370.207L369.134 293.1L373.92 294.545ZM348.466 325.273V320.273H343.466V325.273H348.466ZM399.739 325.273H404.739V320.273H399.739V325.273ZM399.739 344.182V349.182H404.739V344.182H399.739ZM348.466 344.182H343.466V349.182H348.466V344.182ZM353.557 357H326.284V367H353.557V357ZM331.032 363.567L361.759 270.476L352.263 267.342L321.536 360.433L331.032 363.567ZM357.011 273.909H391.557V263.909H357.011V273.909ZM386.809 270.476L417.536 363.567L427.032 360.433L396.305 267.342L386.809 270.476ZM422.284 357H395.011V367H422.284V357ZM399.798 360.555L379.434 293.1L369.861 295.99L390.225 363.445L399.798 360.555ZM374.648 289.545H373.92V299.545H374.648V289.545ZM369.134 293.1L348.77 360.555L358.343 363.445L378.707 295.99L369.134 293.1ZM348.466 330.273H399.739V320.273H348.466V330.273ZM394.739 325.273V344.182H404.739V325.273H394.739ZM399.739 339.182H348.466V349.182H399.739V339.182ZM353.466 344.182V325.273H343.466V344.182H353.466ZM456.523 268.909H461.523V263.909H456.523V268.909ZM456.523 362V367H461.523V362H456.523ZM431.25 362H426.25V367H431.25V362ZM431.25 268.909V263.909H426.25V268.909H431.25ZM451.523 268.909V362H461.523V268.909H451.523ZM456.523 357H431.25V367H456.523V357ZM436.25 362V268.909H426.25V362H436.25ZM431.25 273.909H456.523V263.909H431.25V273.909ZM468.5 362H463.5V367H468.5V362ZM468.5 268.909V263.909H463.5V268.909H468.5ZM493.773 268.909H498.773V263.909H493.773V268.909ZM493.773 341.636H488.773V346.636H493.773V341.636ZM531.409 341.636H536.409V336.636H531.409V341.636ZM531.409 362V367H536.409V362H531.409ZM473.5 362V268.909H463.5V362H473.5ZM468.5 273.909H493.773V263.909H468.5V273.909ZM488.773 268.909V341.636H498.773V268.909H488.773ZM493.773 346.636H531.409V336.636H493.773V346.636ZM526.409 341.636V362H536.409V341.636H526.409ZM531.409 357H468.5V367H531.409V357ZM541.625 362H536.625V367H541.625V362ZM541.625 268.909V263.909H536.625V268.909H541.625ZM599.852 271.773L598.01 276.421L598.02 276.425L599.852 271.773ZM610.807 279.864L606.719 282.743L606.727 282.755L606.736 282.766L610.807 279.864ZM612.261 301.545L607.857 299.178L607.848 299.196L607.838 299.215L612.261 301.545ZM605.989 308.636L608.847 312.739L608.862 312.728L608.877 312.717L605.989 308.636ZM596.534 312.545L595.546 307.644L591.534 308.453V312.545H596.534ZM596.534 313.455H591.534V318.269L596.345 318.451L596.534 313.455ZM607.443 316.5L604.954 320.836L604.969 320.845L604.984 320.854L607.443 316.5ZM615.261 324.182L610.96 326.731L610.965 326.74L610.97 326.748L615.261 324.182ZM614.17 349.227L610.02 346.439L610.013 346.45L610.005 346.461L614.17 349.227ZM602.898 358.591L600.786 354.059L600.786 354.059L602.898 358.591ZM566.898 341.818H561.898V346.818H566.898V341.818ZM588.261 339.455L591.243 343.468L591.261 343.455L591.28 343.441L588.261 339.455ZM585.67 323.364L583.682 327.951L583.696 327.957L583.71 327.963L585.67 323.364ZM566.898 322.182V317.182H561.898V322.182H566.898ZM566.898 306.545H561.898V311.545H566.898V306.545ZM583.125 305.5L585.025 310.125L585.025 310.125L583.125 305.5ZM587.08 302.5L583.036 299.559L583.03 299.568L583.024 299.576L587.08 302.5ZM585.443 291.045L582.443 295.045L582.462 295.06L582.481 295.074L585.443 291.045ZM566.898 288.727V283.727H561.898V288.727H566.898ZM546.625 362V268.909H536.625V362H546.625ZM541.625 273.909H581.989V263.909H541.625V273.909ZM581.989 273.909C588.666 273.909 593.951 274.813 598.01 276.421L601.694 267.124C596.117 264.915 589.493 263.909 581.989 263.909V273.909ZM598.02 276.425C602.164 278.056 604.941 280.219 606.719 282.743L614.895 276.984C611.763 272.539 607.238 269.307 601.684 267.12L598.02 276.425ZM606.736 282.766C608.553 285.316 609.534 288.381 609.534 292.182H619.534C619.534 286.528 618.03 281.381 614.878 276.961L606.736 282.766ZM609.534 292.182C609.534 294.839 608.954 297.138 607.857 299.178L616.665 303.913C618.599 300.316 619.534 296.373 619.534 292.182H609.534ZM607.838 299.215C606.734 301.311 605.179 303.083 603.1 304.555L608.877 312.717C612.192 310.371 614.819 307.417 616.685 303.876L607.838 299.215ZM603.131 304.534C601.059 305.977 598.56 307.036 595.546 307.644L597.523 317.447C601.72 316.6 605.524 315.053 608.847 312.739L603.131 304.534ZM591.534 312.545V313.455H601.534V312.545H591.534ZM596.345 318.451C599.587 318.574 602.426 319.385 604.954 320.836L609.933 312.164C605.915 309.858 601.482 308.638 596.723 308.458L596.345 318.451ZM604.984 320.854C607.486 322.267 609.461 324.201 610.96 326.731L619.563 321.633C617.183 317.617 613.946 314.43 609.902 312.146L604.984 320.854ZM610.97 326.748C612.375 329.096 613.17 331.997 613.17 335.636H623.17C623.17 330.488 622.027 325.752 619.552 321.615L610.97 326.748ZM613.17 335.636C613.17 339.802 612.096 343.348 610.02 346.439L618.321 352.015C621.578 347.167 623.17 341.653 623.17 335.636H613.17ZM610.005 346.461C607.942 349.569 604.942 352.123 600.786 354.059L605.009 363.123C610.611 360.514 615.127 356.825 618.336 351.993L610.005 346.461ZM600.786 354.059C596.715 355.955 591.652 357 585.443 357V367C592.749 367 599.323 365.772 605.009 363.123L600.786 354.059ZM585.443 357H541.625V367H585.443V357ZM566.898 346.818H578.716V336.818H566.898V346.818ZM578.716 346.818C583.432 346.818 587.878 345.968 591.243 343.468L585.28 335.441C584.403 336.092 582.485 336.818 578.716 336.818V346.818ZM591.28 343.441C594.875 340.719 596.443 336.744 596.443 332.364H586.443C586.443 334.225 585.891 334.978 585.243 335.468L591.28 343.441ZM596.443 332.364C596.443 329.403 595.756 326.549 594.116 324.064L585.77 329.572C586.13 330.118 586.443 330.961 586.443 332.364H596.443ZM594.116 324.064C592.519 321.644 590.282 319.894 587.631 318.764L583.71 327.963C584.756 328.409 585.368 328.963 585.77 329.572L594.116 324.064ZM587.658 318.776C585.055 317.648 582.143 317.182 579.08 317.182V327.182C581.167 327.182 582.65 327.504 583.682 327.951L587.658 318.776ZM579.08 317.182H566.898V327.182H579.08V317.182ZM561.898 322.182V341.818H571.898V322.182H561.898ZM566.898 311.545H577.261V301.545H566.898V311.545ZM577.261 311.545C579.994 311.545 582.615 311.115 585.025 310.125L581.225 300.875C580.242 301.279 578.953 301.545 577.261 301.545V311.545ZM585.025 310.125C587.46 309.125 589.576 307.587 591.135 305.424L583.024 299.576C582.704 300.019 582.184 300.481 581.225 300.875L585.025 310.125ZM591.123 305.441C592.809 303.123 593.534 300.429 593.534 297.636H583.534C583.534 298.662 583.29 299.21 583.036 299.559L591.123 305.441ZM593.534 297.636C593.534 293.397 591.922 289.603 588.405 287.017L582.481 295.074C583.086 295.518 583.534 296.118 583.534 297.636H593.534ZM588.443 287.045C585.338 284.717 581.611 283.727 577.625 283.727V293.727C579.942 293.727 581.427 294.283 582.443 295.045L588.443 287.045ZM577.625 283.727H566.898V293.727H577.625V283.727ZM561.898 288.727V306.545H571.898V288.727H561.898ZM627.125 362H622.125V367H627.125V362ZM627.125 268.909V263.909H622.125V268.909H627.125ZM652.398 268.909H657.398V263.909H652.398V268.909ZM652.398 341.636H647.398V346.636H652.398V341.636ZM690.034 341.636H695.034V336.636H690.034V341.636ZM690.034 362V367H695.034V362H690.034ZM632.125 362V268.909H622.125V362H632.125ZM627.125 273.909H652.398V263.909H627.125V273.909ZM647.398 268.909V341.636H657.398V268.909H647.398ZM652.398 346.636H690.034V336.636H652.398V346.636ZM685.034 341.636V362H695.034V341.636H685.034ZM690.034 357H627.125V367H690.034V357ZM724.432 362V367H728.145L729.218 363.445L724.432 362ZM697.159 362L692.411 360.433L690.243 367H697.159V362ZM727.886 268.909V263.909H724.271L723.138 267.342L727.886 268.909ZM762.432 268.909L767.18 267.342L766.047 263.909H762.432V268.909ZM793.159 362V367H800.075L797.907 360.433L793.159 362ZM765.886 362L761.1 363.445L762.173 367H765.886V362ZM745.523 294.545L750.309 293.1L749.236 289.545H745.523V294.545ZM744.795 294.545V289.545H741.082L740.009 293.1L744.795 294.545ZM719.341 325.273V320.273H714.341V325.273H719.341ZM770.614 325.273H775.614V320.273H770.614V325.273ZM770.614 344.182V349.182H775.614V344.182H770.614ZM719.341 344.182H714.341V349.182H719.341V344.182ZM724.432 357H697.159V367H724.432V357ZM701.907 363.567L732.634 270.476L723.138 267.342L692.411 360.433L701.907 363.567ZM727.886 273.909H762.432V263.909H727.886V273.909ZM757.684 270.476L788.411 363.567L797.907 360.433L767.18 267.342L757.684 270.476ZM793.159 357H765.886V367H793.159V357ZM770.673 360.555L750.309 293.1L740.736 295.99L761.1 363.445L770.673 360.555ZM745.523 289.545H744.795V299.545H745.523V289.545ZM740.009 293.1L719.645 360.555L729.218 363.445L749.582 295.99L740.009 293.1ZM719.341 330.273H770.614V320.273H719.341V330.273ZM765.614 325.273V344.182H775.614V325.273H765.614ZM770.614 339.182H719.341V349.182H770.614V339.182ZM724.341 344.182V325.273H714.341V344.182H724.341ZM802.489 362H797.489V367H802.489V362ZM802.489 348L798.487 345.002L797.489 346.335V348H802.489ZM846.489 289.273L850.49 292.271L856.482 284.273H846.489V289.273ZM802.67 289.273H797.67V294.273H802.67V289.273ZM802.67 268.909V263.909H797.67V268.909H802.67ZM878.67 268.909H883.67V263.909H878.67V268.909ZM878.67 282.909L882.672 285.907L883.67 284.574V282.909H878.67ZM834.67 341.636L830.669 338.638L824.677 346.636H834.67V341.636ZM878.489 341.636H883.489V336.636H878.489V341.636ZM878.489 362V367H883.489V362H878.489ZM807.489 362V348H797.489V362H807.489ZM806.49 350.998L850.49 292.271L842.487 286.275L798.487 345.002L806.49 350.998ZM846.489 284.273H802.67V294.273H846.489V284.273ZM807.67 289.273V268.909H797.67V289.273H807.67ZM802.67 273.909H878.67V263.909H802.67V273.909ZM873.67 268.909V282.909H883.67V268.909H873.67ZM874.669 279.911L830.669 338.638L838.672 344.634L882.672 285.907L874.669 279.911ZM834.67 346.636H878.489V336.636H834.67V346.636ZM873.489 341.636V362H883.489V341.636H873.489ZM878.489 357H802.489V367H878.489V357ZM891 362H886V367H891V362ZM891 268.909V263.909H886V268.909H891ZM958.091 268.909H963.091V263.909H958.091V268.909ZM958.091 289.273V294.273H963.091V289.273H958.091ZM916.273 289.273V284.273H911.273V289.273H916.273ZM916.273 305.273H911.273V310.273H916.273V305.273ZM954.636 305.273H959.636V300.273H954.636V305.273ZM954.636 325.636V330.636H959.636V325.636H954.636ZM916.273 325.636V320.636H911.273V325.636H916.273ZM916.273 341.636H911.273V346.636H916.273V341.636ZM957.909 341.636H962.909V336.636H957.909V341.636ZM957.909 362V367H962.909V362H957.909ZM896 362V268.909H886V362H896ZM891 273.909H958.091V263.909H891V273.909ZM953.091 268.909V289.273H963.091V268.909H953.091ZM958.091 284.273H916.273V294.273H958.091V284.273ZM911.273 289.273V305.273H921.273V289.273H911.273ZM916.273 310.273H954.636V300.273H916.273V310.273ZM949.636 305.273V325.636H959.636V305.273H949.636ZM954.636 320.636H916.273V330.636H954.636V320.636ZM911.273 325.636V341.636H921.273V325.636H911.273ZM916.273 346.636H957.909V336.636H916.273V346.636ZM952.909 341.636V362H962.909V341.636H952.909ZM957.909 357H891V367H957.909V357ZM970.625 362H965.625V367H970.625V362ZM970.625 268.909V263.909H965.625V268.909H970.625ZM1028.94 272.682L1026.76 277.18L1028.94 272.682ZM1041.03 283.545L1045.3 280.945L1045.3 280.945L1041.03 283.545ZM1040.9 317.409L1036.7 314.687L1036.7 314.697L1036.69 314.707L1040.9 317.409ZM1028.49 327.773L1026.48 323.192L1026.47 323.196L1028.49 327.773ZM985.898 331.273H980.898V336.273H985.898V331.273ZM985.898 311.636V306.636H980.898V311.636H985.898ZM1012.4 310.545L1014.04 315.268L1014.06 315.261L1014.08 315.254L1012.4 310.545ZM1017.26 306.955L1013.17 304.077L1013.15 304.103L1013.14 304.128L1017.26 306.955ZM1017.26 294.045L1013.09 296.802L1013.12 296.845L1013.15 296.888L1017.26 294.045ZM1012.4 290.318L1010.58 294.974L1010.62 294.99L1010.66 295.005L1012.4 290.318ZM995.898 289.091V284.091H990.898V289.091H995.898ZM995.898 362V367H1000.9V362H995.898ZM1025.17 319.273L1029.56 316.881L1028.14 314.273H1025.17V319.273ZM1048.44 362V367H1056.86L1052.83 359.608L1048.44 362ZM1020.99 362L1016.57 364.348L1017.98 367H1020.99V362ZM998.261 319.273V314.273H989.938L993.847 321.621L998.261 319.273ZM975.625 362V268.909H965.625V362H975.625ZM970.625 273.909H1010.81V263.909H970.625V273.909ZM1010.81 273.909C1017.11 273.909 1022.38 275.055 1026.76 277.18L1031.13 268.184C1025.14 265.279 1018.32 263.909 1010.81 263.909V273.909ZM1026.76 277.18C1031.12 279.294 1034.4 282.273 1036.76 286.146L1045.3 280.945C1041.91 275.363 1037.13 271.1 1031.13 268.184L1026.76 277.18ZM1036.76 286.146C1039.08 289.95 1040.35 294.678 1040.35 300.545H1050.35C1050.35 293.201 1048.75 286.596 1045.3 280.945L1036.76 286.146ZM1040.35 300.545C1040.35 306.462 1039.04 311.086 1036.7 314.687L1045.09 320.131C1048.69 314.581 1050.35 307.962 1050.35 300.545H1040.35ZM1036.69 314.707C1034.32 318.394 1030.98 321.225 1026.48 323.192L1030.49 332.354C1036.66 329.654 1041.59 325.576 1045.1 320.111L1036.69 314.707ZM1026.47 323.196C1021.93 325.195 1016.45 326.273 1009.9 326.273V336.273C1017.53 336.273 1024.44 335.017 1030.5 332.349L1026.47 323.196ZM1009.9 326.273H985.898V336.273H1009.9V326.273ZM990.898 331.273V311.636H980.898V331.273H990.898ZM985.898 316.636H1004.81V306.636H985.898V316.636ZM1004.81 316.636C1008.16 316.636 1011.28 316.23 1014.04 315.268L1010.76 305.823C1009.34 306.316 1007.4 306.636 1004.81 306.636V316.636ZM1014.08 315.254C1017.05 314.192 1019.59 312.401 1021.39 309.781L1013.14 304.128C1012.69 304.78 1011.98 305.384 1010.72 305.837L1014.08 315.254ZM1021.35 309.832C1023.26 307.122 1023.99 303.888 1023.99 300.545H1013.99C1013.99 302.476 1013.57 303.514 1013.17 304.077L1021.35 309.832ZM1023.99 300.545C1023.99 297.181 1023.26 293.933 1021.38 291.203L1013.15 296.888C1013.56 297.491 1013.99 298.577 1013.99 300.545H1023.99ZM1021.43 291.289C1019.66 288.608 1017.14 286.745 1014.14 285.631L1010.66 295.005C1011.9 295.467 1012.62 296.089 1013.09 296.802L1021.43 291.289ZM1014.22 285.662C1011.39 284.556 1008.21 284.091 1004.81 284.091V294.091C1007.34 294.091 1009.22 294.444 1010.58 294.974L1014.22 285.662ZM1004.81 284.091H995.898V294.091H1004.81V284.091ZM990.898 289.091V362H1000.9V289.091H990.898ZM995.898 357H970.625V367H995.898V357ZM1020.78 321.664L1044.05 364.392L1052.83 359.608L1029.56 316.881L1020.78 321.664ZM1048.44 357H1020.99V367H1048.44V357ZM1025.4 359.652L1002.68 316.925L993.847 321.621L1016.57 364.348L1025.4 359.652ZM998.261 324.273H1025.17V314.273H998.261V324.273Z" fill="url(#paint7_linear_128_3)" mask="url(#path-8-outside-1_128_3)"/>
<path d="M63.5234 34.8515L56 54.625H64.0948L67.8088 43.9341L63.5234 34.8515Z" fill="white"/>
<path d="M74.4751 54.625L64.8566 34H72.7609L82.3794 54.625H74.4751Z" fill="white"/>
<path d="M79.1073 39.0143L76.917 34H84.5356L87.0116 39.0143H79.1073Z" fill="white"/>
<path d="M86.2498 54.625L79.4883 40.3389H87.4878L94.4398 54.625H86.2498Z" fill="white"/>
<path d="M90.882 39.0143L88.6916 34H101.643L104.024 39.0143H90.882Z" fill="white"/>
<path d="M100.405 54.625L93.8342 40.3389H101.643L108.5 54.625H100.405Z" fill="white"/>
<path d="M140.648 39.3636V35.5455H155.818V39.3636H150.568V53H145.898V39.3636H140.648ZM157.602 53V35.5455H170.181V39.3636H162.34V42.3636H169.533V46.1818H162.34V49.1818H170.147V53H157.602ZM188.827 42.0909H184.02C183.986 41.6932 183.895 41.3324 183.747 41.0085C183.605 40.6847 183.406 40.4062 183.151 40.1733C182.901 39.9347 182.597 39.7528 182.239 39.6278C181.881 39.4972 181.474 39.4318 181.02 39.4318C180.224 39.4318 179.551 39.625 179 40.0114C178.455 40.3977 178.04 40.9517 177.756 41.6733C177.477 42.3949 177.338 43.2614 177.338 44.2727C177.338 45.3409 177.48 46.2358 177.764 46.9574C178.054 47.6733 178.472 48.2131 179.017 48.5767C179.563 48.9347 180.219 49.1136 180.986 49.1136C181.423 49.1136 181.815 49.0597 182.162 48.9517C182.509 48.8381 182.81 48.6761 183.065 48.4659C183.321 48.2557 183.528 48.0028 183.688 47.7074C183.852 47.4062 183.963 47.0682 184.02 46.6932L188.827 46.7273C188.77 47.4659 188.563 48.2187 188.205 48.9858C187.847 49.7472 187.338 50.4517 186.679 51.0994C186.026 51.7415 185.216 52.2585 184.25 52.6506C183.284 53.0426 182.162 53.2386 180.884 53.2386C179.281 53.2386 177.844 52.8949 176.571 52.2074C175.304 51.5199 174.301 50.5085 173.562 49.1733C172.83 47.8381 172.463 46.2045 172.463 44.2727C172.463 42.3295 172.838 40.6932 173.588 39.3636C174.338 38.0284 175.349 37.0199 176.622 36.3381C177.895 35.6506 179.315 35.3068 180.884 35.3068C181.986 35.3068 183 35.4574 183.926 35.7585C184.852 36.0597 185.665 36.5 186.364 37.0795C187.063 37.6534 187.625 38.3608 188.051 39.2017C188.477 40.0426 188.736 41.0057 188.827 42.0909ZM190.977 53V35.5455H195.715V42.3636H201.988V35.5455H206.727V53H201.988V46.1818H195.715V53H190.977ZM224.079 35.5455V53H220.124L213.817 43.8295H213.715V53H208.977V35.5455H212.999L219.204 44.6818H219.34V35.5455H224.079ZM243.229 44.2727C243.229 46.2159 242.852 47.8551 242.096 49.1903C241.34 50.5199 240.32 51.5284 239.036 52.2159C237.752 52.8977 236.32 53.2386 234.741 53.2386C233.15 53.2386 231.712 52.8949 230.428 52.2074C229.15 51.5142 228.133 50.5028 227.377 49.1733C226.627 47.8381 226.252 46.2045 226.252 44.2727C226.252 42.3295 226.627 40.6932 227.377 39.3636C228.133 38.0284 229.15 37.0199 230.428 36.3381C231.712 35.6506 233.15 35.3068 234.741 35.3068C236.32 35.3068 237.752 35.6506 239.036 36.3381C240.32 37.0199 241.34 38.0284 242.096 39.3636C242.852 40.6932 243.229 42.3295 243.229 44.2727ZM238.354 44.2727C238.354 43.2273 238.215 42.3466 237.937 41.6307C237.664 40.9091 237.258 40.3636 236.718 39.9943C236.184 39.6193 235.525 39.4318 234.741 39.4318C233.957 39.4318 233.295 39.6193 232.755 39.9943C232.221 40.3636 231.815 40.9091 231.536 41.6307C231.263 42.3466 231.127 43.2273 231.127 44.2727C231.127 45.3182 231.263 46.2017 231.536 46.9233C231.815 47.6392 232.221 48.1847 232.755 48.5597C233.295 48.929 233.957 49.1136 234.741 49.1136C235.525 49.1136 236.184 48.929 236.718 48.5597C237.258 48.1847 237.664 47.6392 237.937 46.9233C238.215 46.2017 238.354 45.3182 238.354 44.2727ZM254.831 41C254.786 40.4318 254.572 39.9886 254.192 39.6705C253.817 39.3523 253.246 39.1932 252.479 39.1932C251.99 39.1932 251.589 39.2528 251.277 39.3722C250.97 39.4858 250.743 39.642 250.595 39.8409C250.447 40.0398 250.371 40.267 250.365 40.5227C250.354 40.733 250.391 40.9233 250.476 41.0938C250.567 41.2585 250.709 41.4091 250.902 41.5455C251.095 41.6761 251.342 41.7955 251.643 41.9034C251.945 42.0114 252.303 42.108 252.717 42.1932L254.149 42.5C255.115 42.7045 255.942 42.9744 256.629 43.3097C257.317 43.6449 257.879 44.0398 258.317 44.4943C258.754 44.9432 259.075 45.4489 259.28 46.0114C259.49 46.5739 259.598 47.1875 259.604 47.8523C259.598 49 259.311 49.9716 258.743 50.767C258.175 51.5625 257.362 52.1676 256.305 52.5824C255.254 52.9972 253.99 53.2045 252.513 53.2045C250.996 53.2045 249.672 52.9801 248.541 52.5312C247.416 52.0824 246.541 51.392 245.916 50.4602C245.297 49.5227 244.984 48.3239 244.979 46.8636H249.479C249.507 47.3977 249.641 47.8466 249.879 48.2102C250.118 48.5739 250.453 48.8494 250.885 49.0369C251.322 49.2244 251.842 49.3182 252.445 49.3182C252.95 49.3182 253.374 49.2557 253.714 49.1307C254.055 49.0057 254.314 48.8324 254.49 48.6108C254.666 48.3892 254.757 48.1364 254.763 47.8523C254.757 47.5852 254.669 47.3523 254.499 47.1534C254.334 46.9489 254.061 46.767 253.68 46.608C253.3 46.4432 252.786 46.2898 252.138 46.1477L250.399 45.7727C248.854 45.4375 247.635 44.8778 246.743 44.0938C245.857 43.304 245.416 42.2273 245.422 40.8636C245.416 39.7557 245.712 38.7869 246.308 37.9574C246.911 37.1222 247.743 36.4716 248.805 36.0057C249.874 35.5398 251.098 35.3068 252.479 35.3068C253.888 35.3068 255.107 35.5426 256.135 36.0142C257.163 36.4858 257.956 37.1506 258.513 38.0085C259.075 38.8608 259.359 39.858 259.365 41H254.831ZM261.406 53V35.5455H268.94C270.236 35.5455 271.369 35.8011 272.341 36.3125C273.313 36.8239 274.068 37.5426 274.608 38.4688C275.148 39.3949 275.418 40.4773 275.418 41.7159C275.418 42.9659 275.139 44.0483 274.582 44.9631C274.031 45.8778 273.256 46.5824 272.256 47.0767C271.261 47.571 270.099 47.8182 268.77 47.8182H264.27V44.1364H267.815C268.372 44.1364 268.847 44.0398 269.239 43.8466C269.636 43.6477 269.94 43.3665 270.151 43.0028C270.366 42.6392 270.474 42.2102 270.474 41.7159C270.474 41.2159 270.366 40.7898 270.151 40.4375C269.94 40.0795 269.636 39.8068 269.239 39.6193C268.847 39.4261 268.372 39.3295 267.815 39.3295H266.145V53H261.406ZM279.511 53H274.397L280.158 35.5455H286.636L292.397 53H287.283L283.465 40.3523H283.329L279.511 53ZM278.556 46.1136H288.17V49.6591H278.556V46.1136ZM294.078 53V35.5455H301.612C302.908 35.5455 304.041 35.7812 305.013 36.2528C305.984 36.7244 306.74 37.4034 307.28 38.2898C307.82 39.1761 308.089 40.2386 308.089 41.4773C308.089 42.7273 307.811 43.7812 307.254 44.6392C306.703 45.4972 305.928 46.1449 304.928 46.5824C303.933 47.0199 302.771 47.2386 301.442 47.2386H296.942V43.5568H300.487C301.044 43.5568 301.518 43.4886 301.911 43.3523C302.308 43.2102 302.612 42.9858 302.822 42.679C303.038 42.3722 303.146 41.9716 303.146 41.4773C303.146 40.9773 303.038 40.571 302.822 40.2585C302.612 39.9403 302.308 39.7074 301.911 39.5597C301.518 39.4062 301.044 39.3295 300.487 39.3295H298.817V53H294.078ZM304.305 44.9886L308.669 53H303.521L299.26 44.9886H304.305ZM315.189 35.5455L318.053 40.625H318.189L321.087 35.5455H326.371L321.155 44.2727L326.575 53H321.155L318.189 47.8182H318.053L315.087 53H309.7L315.053 44.2727L309.871 35.5455H315.189Z" fill="white"/>
</g>
<defs>
<linearGradient id="paint0_linear_128_3" x1="327.016" y1="399" x2="327.016" y2="665.676" gradientUnits="userSpaceOnUse">
<stop stop-color="#4A74F4"/>
<stop offset="1" stop-color="#DA46EB"/>
</linearGradient>
<linearGradient id="paint1_linear_128_3" x1="1133.25" y1="43.8012" x2="1133.25" y2="87.7011" gradientUnits="userSpaceOnUse">
<stop stop-color="#FF9E0B"/>
<stop offset="1" stop-color="#F24E52"/>
</linearGradient>
<linearGradient id="paint2_linear_128_3" x1="1133.63" y1="0" x2="1133.63" y2="264" gradientUnits="userSpaceOnUse">
<stop stop-color="#FF9E0B"/>
<stop offset="1" stop-color="#F24E52"/>
</linearGradient>
<linearGradient id="paint3_linear_128_3" x1="-63.757" y1="-34.0071" x2="-63.757" y2="347.166" gradientUnits="userSpaceOnUse">
<stop stop-color="#FF9E0B"/>
<stop offset="1" stop-color="#EC4899"/>
</linearGradient>
<linearGradient id="paint4_linear_128_3" x1="1173" y1="695.827" x2="1173" y2="969.442" gradientUnits="userSpaceOnUse">
<stop stop-color="#FF9E0B"/>
<stop offset="1" stop-color="#F24E52"/>
</linearGradient>
<linearGradient id="paint5_linear_128_3" x1="882.5" y1="530" x2="882.5" y2="919" gradientUnits="userSpaceOnUse">
<stop stop-color="#FF9E0B"/>
<stop offset="1" stop-color="#9C67E7"/>
</linearGradient>
<linearGradient id="paint6_linear_128_3" x1="491" y1="30" x2="491" y2="162" gradientUnits="userSpaceOnUse">
<stop stop-color="#FF9E0B"/>
<stop offset="1" stop-color="#DA46EB"/>
</linearGradient>
<linearGradient id="paint7_linear_128_3" x1="600.5" y1="238" x2="600.5" y2="393" gradientUnits="userSpaceOnUse">
<stop stop-color="#FF9E0B"/>
<stop offset="0.49" stop-color="#F24E52"/>
</linearGradient>
<clipPath id="clip0_128_3">
<rect width="1200" height="630" fill="white"/>
</clipPath>
</defs>
</svg>
