<svg width="1200" height="630" viewBox="0 0 1200 630" fill="none" xmlns="http://www.w3.org/2000/svg">
<g clip-path="url(#clip0_134_37)">
<rect width="1200" height="630" fill="black"/>
<rect x="-427.809" y="-32.4841" width="729.486" height="376.173" transform="rotate(-19.4848 -427.809 -32.4841)" stroke="url(#paint0_linear_134_37)" stroke-width="5"/>
<rect x="883" y="695.827" width="580" height="273.616" transform="rotate(-35.26 883 695.827)" fill="url(#paint1_linear_134_37)"/>
<circle cx="882.5" cy="724.5" r="193" stroke="url(#paint2_linear_134_37)" stroke-width="3"/>
<path opacity="0.49" d="M415 58.3636C414.121 58.3636 413.367 58.0568 412.739 57.4432C412.117 56.822 411.811 56.0682 411.818 55.1818C411.811 54.3182 412.117 53.5795 412.739 52.9659C413.367 52.3523 414.121 52.0455 415 52.0455C415.833 52.0455 416.568 52.3523 417.205 52.9659C417.848 53.5795 418.174 54.3182 418.182 55.1818C418.174 55.7727 418.019 56.3106 417.716 56.7955C417.42 57.2727 417.034 57.6553 416.557 57.9432C416.08 58.2235 415.561 58.3636 415 58.3636ZM459.003 58.3636C458.124 58.3636 457.37 58.0568 456.741 57.4432C456.12 56.822 455.813 56.0682 455.821 55.1818C455.813 54.3182 456.12 53.5795 456.741 52.9659C457.37 52.3523 458.124 52.0455 459.003 52.0455C459.836 52.0455 460.571 52.3523 461.207 52.9659C461.851 53.5795 462.177 54.3182 462.184 55.1818C462.177 55.7727 462.021 56.3106 461.718 56.7955C461.423 57.2727 461.037 57.6553 460.559 57.9432C460.082 58.2235 459.563 58.3636 459.003 58.3636ZM503.005 58.3636C502.126 58.3636 501.372 58.0568 500.744 57.4432C500.122 56.822 499.816 56.0682 499.823 55.1818C499.816 54.3182 500.122 53.5795 500.744 52.9659C501.372 52.3523 502.126 52.0455 503.005 52.0455C503.838 52.0455 504.573 52.3523 505.21 52.9659C505.853 53.5795 506.179 54.3182 506.187 55.1818C506.179 55.7727 506.024 56.3106 505.721 56.7955C505.425 57.2727 505.039 57.6553 504.562 57.9432C504.085 58.2235 503.566 58.3636 503.005 58.3636ZM547.008 58.3636C546.129 58.3636 545.375 58.0568 544.746 57.4432C544.125 56.822 543.818 56.0682 543.826 55.1818C543.818 54.3182 544.125 53.5795 544.746 52.9659C545.375 52.3523 546.129 52.0455 547.008 52.0455C547.841 52.0455 548.576 52.3523 549.212 52.9659C549.856 53.5795 550.182 54.3182 550.189 55.1818C550.182 55.7727 550.026 56.3106 549.723 56.7955C549.428 57.2727 549.042 57.6553 548.564 57.9432C548.087 58.2235 547.568 58.3636 547.008 58.3636ZM415 91.3636C414.121 91.3636 413.367 91.0568 412.739 90.4432C412.117 89.822 411.811 89.0682 411.818 88.1818C411.811 87.3182 412.117 86.5795 412.739 85.9659C413.367 85.3523 414.121 85.0455 415 85.0455C415.833 85.0455 416.568 85.3523 417.205 85.9659C417.848 86.5795 418.174 87.3182 418.182 88.1818C418.174 88.7727 418.019 89.3106 417.716 89.7955C417.42 90.2727 417.034 90.6553 416.557 90.9432C416.08 91.2235 415.561 91.3636 415 91.3636ZM459.003 91.3636C458.124 91.3636 457.37 91.0568 456.741 90.4432C456.12 89.822 455.813 89.0682 455.821 88.1818C455.813 87.3182 456.12 86.5795 456.741 85.9659C457.37 85.3523 458.124 85.0455 459.003 85.0455C459.836 85.0455 460.571 85.3523 461.207 85.9659C461.851 86.5795 462.177 87.3182 462.184 88.1818C462.177 88.7727 462.021 89.3106 461.718 89.7955C461.423 90.2727 461.037 90.6553 460.559 90.9432C460.082 91.2235 459.563 91.3636 459.003 91.3636ZM503.005 91.3636C502.126 91.3636 501.372 91.0568 500.744 90.4432C500.122 89.822 499.816 89.0682 499.823 88.1818C499.816 87.3182 500.122 86.5795 500.744 85.9659C501.372 85.3523 502.126 85.0455 503.005 85.0455C503.838 85.0455 504.573 85.3523 505.21 85.9659C505.853 86.5795 506.179 87.3182 506.187 88.1818C506.179 88.7727 506.024 89.3106 505.721 89.7955C505.425 90.2727 505.039 90.6553 504.562 90.9432C504.085 91.2235 503.566 91.3636 503.005 91.3636ZM547.008 91.3636C546.129 91.3636 545.375 91.0568 544.746 90.4432C544.125 89.822 543.818 89.0682 543.826 88.1818C543.818 87.3182 544.125 86.5795 544.746 85.9659C545.375 85.3523 546.129 85.0455 547.008 85.0455C547.841 85.0455 548.576 85.3523 549.212 85.9659C549.856 86.5795 550.182 87.3182 550.189 88.1818C550.182 88.7727 550.026 89.3106 549.723 89.7955C549.428 90.2727 549.042 90.6553 548.564 90.9432C548.087 91.2235 547.568 91.3636 547.008 91.3636ZM415 124.364C414.121 124.364 413.367 124.057 412.739 123.443C412.117 122.822 411.811 122.068 411.818 121.182C411.811 120.318 412.117 119.58 412.739 118.966C413.367 118.352 414.121 118.045 415 118.045C415.833 118.045 416.568 118.352 417.205 118.966C417.848 119.58 418.174 120.318 418.182 121.182C418.174 121.773 418.019 122.311 417.716 122.795C417.42 123.273 417.034 123.655 416.557 123.943C416.08 124.223 415.561 124.364 415 124.364ZM459.003 124.364C458.124 124.364 457.37 124.057 456.741 123.443C456.12 122.822 455.813 122.068 455.821 121.182C455.813 120.318 456.12 119.58 456.741 118.966C457.37 118.352 458.124 118.045 459.003 118.045C459.836 118.045 460.571 118.352 461.207 118.966C461.851 119.58 462.177 120.318 462.184 121.182C462.177 121.773 462.021 122.311 461.718 122.795C461.423 123.273 461.037 123.655 460.559 123.943C460.082 124.223 459.563 124.364 459.003 124.364ZM503.005 124.364C502.126 124.364 501.372 124.057 500.744 123.443C500.122 122.822 499.816 122.068 499.823 121.182C499.816 120.318 500.122 119.58 500.744 118.966C501.372 118.352 502.126 118.045 503.005 118.045C503.838 118.045 504.573 118.352 505.21 118.966C505.853 119.58 506.179 120.318 506.187 121.182C506.179 121.773 506.024 122.311 505.721 122.795C505.425 123.273 505.039 123.655 504.562 123.943C504.085 124.223 503.566 124.364 503.005 124.364ZM547.008 124.364C546.129 124.364 545.375 124.057 544.746 123.443C544.125 122.822 543.818 122.068 543.826 121.182C543.818 120.318 544.125 119.58 544.746 118.966C545.375 118.352 546.129 118.045 547.008 118.045C547.841 118.045 548.576 118.352 549.212 118.966C549.856 119.58 550.182 120.318 550.189 121.182C550.182 121.773 550.026 122.311 549.723 122.795C549.428 123.273 549.042 123.655 548.564 123.943C548.087 124.223 547.568 124.364 547.008 124.364ZM415 157.364C414.121 157.364 413.367 157.057 412.739 156.443C412.117 155.822 411.811 155.068 411.818 154.182C411.811 153.318 412.117 152.58 412.739 151.966C413.367 151.352 414.121 151.045 415 151.045C415.833 151.045 416.568 151.352 417.205 151.966C417.848 152.58 418.174 153.318 418.182 154.182C418.174 154.773 418.019 155.311 417.716 155.795C417.42 156.273 417.034 156.655 416.557 156.943C416.08 157.223 415.561 157.364 415 157.364ZM459.003 157.364C458.124 157.364 457.37 157.057 456.741 156.443C456.12 155.822 455.813 155.068 455.821 154.182C455.813 153.318 456.12 152.58 456.741 151.966C457.37 151.352 458.124 151.045 459.003 151.045C459.836 151.045 460.571 151.352 461.207 151.966C461.851 152.58 462.177 153.318 462.184 154.182C462.177 154.773 462.021 155.311 461.718 155.795C461.423 156.273 461.037 156.655 460.559 156.943C460.082 157.223 459.563 157.364 459.003 157.364ZM503.005 157.364C502.126 157.364 501.372 157.057 500.744 156.443C500.122 155.822 499.816 155.068 499.823 154.182C499.816 153.318 500.122 152.58 500.744 151.966C501.372 151.352 502.126 151.045 503.005 151.045C503.838 151.045 504.573 151.352 505.21 151.966C505.853 152.58 506.179 153.318 506.187 154.182C506.179 154.773 506.024 155.311 505.721 155.795C505.425 156.273 505.039 156.655 504.562 156.943C504.085 157.223 503.566 157.364 503.005 157.364ZM547.008 157.364C546.129 157.364 545.375 157.057 544.746 156.443C544.125 155.822 543.818 155.068 543.826 154.182C543.818 153.318 544.125 152.58 544.746 151.966C545.375 151.352 546.129 151.045 547.008 151.045C547.841 151.045 548.576 151.352 549.212 151.966C549.856 152.58 550.182 153.318 550.189 154.182C550.182 154.773 550.026 155.311 549.723 155.795C549.428 156.273 549.042 156.655 548.564 156.943C548.087 157.223 547.568 157.364 547.008 157.364Z" fill="url(#paint3_linear_134_37)"/>
<mask id="path-5-outside-1_134_37" maskUnits="userSpaceOnUse" x="173" y="263" width="850" height="138" fill="black">
<rect fill="white" x="173" y="263" width="850" height="138"/>
<path d="M178.455 295.273V274.909H259.364V295.273H231.364V368H206.455V295.273H178.455ZM305.011 337.455V298.182H330.102V368H306.284V354.727H305.557C304.042 359.182 301.39 362.667 297.602 365.182C293.814 367.667 289.314 368.909 284.102 368.909C279.223 368.909 274.951 367.788 271.284 365.545C267.648 363.303 264.814 360.212 262.784 356.273C260.784 352.333 259.769 347.818 259.739 342.727V298.182H284.83V337.455C284.86 340.909 285.739 343.621 287.466 345.591C289.223 347.561 291.678 348.545 294.83 348.545C296.92 348.545 298.723 348.106 300.239 347.227C301.784 346.318 302.966 345.045 303.784 343.409C304.633 341.742 305.042 339.758 305.011 337.455ZM342.864 368V298.182H367.227V311.455H367.955C369.227 306.545 371.242 302.955 374 300.682C376.788 298.409 380.045 297.273 383.773 297.273C384.864 297.273 385.939 297.364 387 297.545C388.091 297.697 389.136 297.924 390.136 298.227V319.636C388.894 319.212 387.364 318.894 385.545 318.682C383.727 318.47 382.167 318.364 380.864 318.364C378.409 318.364 376.197 318.924 374.227 320.045C372.288 321.136 370.758 322.682 369.636 324.682C368.515 326.652 367.955 328.97 367.955 331.636V368H342.864ZM398 368V274.909H423.091V310.364H423.455C424.364 308 425.697 305.833 427.455 303.864C429.212 301.864 431.394 300.273 434 299.091C436.606 297.879 439.636 297.273 443.091 297.273C447.697 297.273 452.076 298.5 456.227 300.955C460.409 303.409 463.803 307.273 466.409 312.545C469.045 317.818 470.364 324.667 470.364 333.091C470.364 341.152 469.106 347.833 466.591 353.136C464.106 358.439 460.773 362.394 456.591 365C452.439 367.606 447.879 368.909 442.909 368.909C439.636 368.909 436.712 368.379 434.136 367.318C431.591 366.227 429.409 364.758 427.591 362.909C425.803 361.03 424.424 358.909 423.455 356.545H422.909V368H398ZM422.545 333.091C422.545 336.485 422.985 339.424 423.864 341.909C424.773 344.364 426.045 346.273 427.682 347.636C429.348 348.97 431.333 349.636 433.636 349.636C435.939 349.636 437.894 348.985 439.5 347.682C441.136 346.348 442.379 344.455 443.227 342C444.106 339.515 444.545 336.545 444.545 333.091C444.545 329.636 444.106 326.682 443.227 324.227C442.379 321.742 441.136 319.848 439.5 318.545C437.894 317.212 435.939 316.545 433.636 316.545C431.333 316.545 429.348 317.212 427.682 318.545C426.045 319.848 424.773 321.742 423.864 324.227C422.985 326.682 422.545 329.636 422.545 333.091ZM514.5 369.273C506.924 369.273 500.439 367.773 495.045 364.773C489.652 361.742 485.515 357.53 482.636 352.136C479.758 346.712 478.318 340.424 478.318 333.273C478.318 326.121 479.758 319.848 482.636 314.455C485.515 309.03 489.652 304.818 495.045 301.818C500.439 298.788 506.924 297.273 514.5 297.273C522.076 297.273 528.561 298.788 533.955 301.818C539.348 304.818 543.485 309.03 546.364 314.455C549.242 319.848 550.682 326.121 550.682 333.273C550.682 340.424 549.242 346.712 546.364 352.136C543.485 357.53 539.348 361.742 533.955 364.773C528.561 367.773 522.076 369.273 514.5 369.273ZM514.682 350.727C516.803 350.727 518.636 350.015 520.182 348.591C521.727 347.167 522.924 345.136 523.773 342.5C524.621 339.864 525.045 336.727 525.045 333.091C525.045 329.424 524.621 326.288 523.773 323.682C522.924 321.045 521.727 319.015 520.182 317.591C518.636 316.167 516.803 315.455 514.682 315.455C512.439 315.455 510.515 316.167 508.909 317.591C507.303 319.015 506.076 321.045 505.227 323.682C504.379 326.288 503.955 329.424 503.955 333.091C503.955 336.727 504.379 339.864 505.227 342.5C506.076 345.136 507.303 347.167 508.909 348.591C510.515 350.015 512.439 350.727 514.682 350.727ZM583.455 295.273V274.909H664.364V295.273H636.364V368H611.455V295.273H583.455ZM681.511 394.182C678.633 394.182 675.89 393.955 673.284 393.5C670.678 393.076 668.39 392.485 666.42 391.727L671.875 373.909C673.936 374.636 675.814 375.106 677.511 375.318C679.239 375.53 680.708 375.409 681.92 374.955C683.163 374.5 684.057 373.636 684.602 372.364L685.148 371.091L660.602 298.182H686.784L698.057 346.545H698.784L710.239 298.182H736.602L711.148 373.818C709.875 377.667 708.027 381.121 705.602 384.182C703.208 387.273 700.057 389.712 696.148 391.5C692.239 393.288 687.36 394.182 681.511 394.182ZM743.739 394.182V298.182H768.648V310.364H769.193C770.102 308 771.436 305.833 773.193 303.864C774.951 301.864 777.133 300.273 779.739 299.091C782.345 297.879 785.375 297.273 788.83 297.273C793.436 297.273 797.814 298.5 801.966 300.955C806.148 303.409 809.542 307.273 812.148 312.545C814.784 317.818 816.102 324.667 816.102 333.091C816.102 341.152 814.845 347.833 812.33 353.136C809.845 358.439 806.511 362.394 802.33 365C798.178 367.606 793.617 368.909 788.648 368.909C785.375 368.909 782.451 368.379 779.875 367.318C777.33 366.227 775.148 364.758 773.33 362.909C771.542 361.03 770.163 358.909 769.193 356.545H768.83V394.182H743.739ZM768.284 333.091C768.284 336.485 768.723 339.424 769.602 341.909C770.511 344.364 771.784 346.273 773.42 347.636C775.087 348.97 777.072 349.636 779.375 349.636C781.678 349.636 783.633 348.985 785.239 347.682C786.875 346.348 788.117 344.455 788.966 342C789.845 339.515 790.284 336.545 790.284 333.091C790.284 329.636 789.845 326.682 788.966 324.227C788.117 321.742 786.875 319.848 785.239 318.545C783.633 317.212 781.678 316.545 779.375 316.545C777.072 316.545 775.087 317.212 773.42 318.545C771.784 319.848 770.511 321.742 769.602 324.227C768.723 326.682 768.284 329.636 768.284 333.091ZM826.614 368V298.182H851.705V368H826.614ZM839.159 290.909C835.765 290.909 832.856 289.788 830.432 287.545C828.008 285.303 826.795 282.606 826.795 279.455C826.795 276.303 828.008 273.606 830.432 271.364C832.856 269.121 835.765 268 839.159 268C842.583 268 845.492 269.121 847.886 271.364C850.311 273.606 851.523 276.303 851.523 279.455C851.523 282.606 850.311 285.303 847.886 287.545C845.492 289.788 842.583 290.909 839.159 290.909ZM889.58 328.727V368H864.489V298.182H888.307V311.455H889.034C890.549 307.03 893.216 303.561 897.034 301.045C900.883 298.53 905.367 297.273 910.489 297.273C915.428 297.273 919.716 298.409 923.352 300.682C927.019 302.924 929.852 306.015 931.852 309.955C933.883 313.894 934.883 318.394 934.852 323.455V368H909.761V328.727C909.792 325.273 908.913 322.561 907.125 320.591C905.367 318.621 902.913 317.636 899.761 317.636C897.701 317.636 895.898 318.091 894.352 319C892.837 319.879 891.67 321.152 890.852 322.818C890.034 324.455 889.61 326.424 889.58 328.727ZM980.875 395.636C973.875 395.636 967.875 394.636 962.875 392.636C957.905 390.667 954.042 387.939 951.284 384.455C948.557 381 947.027 377.03 946.693 372.545H970.875C971.117 374.03 971.723 375.227 972.693 376.136C973.663 377.045 974.905 377.697 976.42 378.091C977.966 378.515 979.693 378.727 981.602 378.727C984.845 378.727 987.527 377.939 989.648 376.364C991.799 374.788 992.875 371.939 992.875 367.818V356H992.148C991.239 358.364 989.845 360.379 987.966 362.045C986.087 363.682 983.83 364.939 981.193 365.818C978.557 366.667 975.663 367.091 972.511 367.091C967.542 367.091 962.966 365.939 958.784 363.636C954.633 361.333 951.299 357.682 948.784 352.682C946.299 347.682 945.057 341.152 945.057 333.091C945.057 324.667 946.36 317.818 948.966 312.545C951.602 307.273 954.996 303.409 959.148 300.955C963.33 298.5 967.723 297.273 972.33 297.273C975.784 297.273 978.814 297.879 981.42 299.091C984.027 300.273 986.208 301.864 987.966 303.864C989.723 305.833 991.057 308 991.966 310.364H992.511V298.182H1017.6V367.818C1017.6 373.727 1016.07 378.742 1013.01 382.864C1009.98 387.015 1005.71 390.182 1000.19 392.364C994.678 394.545 988.239 395.636 980.875 395.636ZM981.784 349.273C984.087 349.273 986.057 348.636 987.693 347.364C989.36 346.061 990.633 344.212 991.511 341.818C992.42 339.394 992.875 336.485 992.875 333.091C992.875 329.636 992.42 326.682 991.511 324.227C990.633 321.742 989.36 319.848 987.693 318.545C986.057 317.212 984.087 316.545 981.784 316.545C979.481 316.545 977.511 317.212 975.875 318.545C974.269 319.848 973.027 321.742 972.148 324.227C971.299 326.682 970.875 329.636 970.875 333.091C970.875 336.545 971.299 339.485 972.148 341.909C973.027 344.303 974.269 346.136 975.875 347.409C977.511 348.652 979.481 349.273 981.784 349.273Z"/>
</mask>
<path d="M178.455 295.273H173.455V300.273H178.455V295.273ZM178.455 274.909V269.909H173.455V274.909H178.455ZM259.364 274.909H264.364V269.909H259.364V274.909ZM259.364 295.273V300.273H264.364V295.273H259.364ZM231.364 295.273V290.273H226.364V295.273H231.364ZM231.364 368V373H236.364V368H231.364ZM206.455 368H201.455V373H206.455V368ZM206.455 295.273H211.455V290.273H206.455V295.273ZM183.455 295.273V274.909H173.455V295.273H183.455ZM178.455 279.909H259.364V269.909H178.455V279.909ZM254.364 274.909V295.273H264.364V274.909H254.364ZM259.364 290.273H231.364V300.273H259.364V290.273ZM226.364 295.273V368H236.364V295.273H226.364ZM231.364 363H206.455V373H231.364V363ZM211.455 368V295.273H201.455V368H211.455ZM206.455 290.273H178.455V300.273H206.455V290.273ZM305.011 337.455H300.011V337.487L300.012 337.52L305.011 337.455ZM305.011 298.182V293.182H300.011V298.182H305.011ZM330.102 298.182H335.102V293.182H330.102V298.182ZM330.102 368V373H335.102V368H330.102ZM306.284 368H301.284V373H306.284V368ZM306.284 354.727H311.284V349.727H306.284V354.727ZM305.557 354.727V349.727H301.976L300.823 353.117L305.557 354.727ZM297.602 365.182L300.345 369.363L300.356 369.355L300.368 369.347L297.602 365.182ZM271.284 365.545L268.66 369.801L268.668 369.806L268.675 369.811L271.284 365.545ZM262.784 356.273L258.326 358.536L258.333 358.55L258.34 358.563L262.784 356.273ZM259.739 342.727H254.739V342.742L254.739 342.757L259.739 342.727ZM259.739 298.182V293.182H254.739V298.182H259.739ZM284.83 298.182H289.83V293.182H284.83V298.182ZM284.83 337.455H279.83V337.476L279.83 337.498L284.83 337.455ZM287.466 345.591L283.707 348.888L283.721 348.904L283.735 348.92L287.466 345.591ZM300.239 347.227L302.747 351.552L302.761 351.545L302.774 351.537L300.239 347.227ZM303.784 343.409L299.328 341.141L299.32 341.157L299.312 341.173L303.784 343.409ZM310.011 337.455V298.182H300.011V337.455H310.011ZM305.011 303.182H330.102V293.182H305.011V303.182ZM325.102 298.182V368H335.102V298.182H325.102ZM330.102 363H306.284V373H330.102V363ZM311.284 368V354.727H301.284V368H311.284ZM306.284 349.727H305.557V359.727H306.284V349.727ZM300.823 353.117C299.65 356.565 297.67 359.135 294.836 361.016L300.368 369.347C305.11 366.199 308.433 361.798 310.29 356.337L300.823 353.117ZM294.86 361.001C292.004 362.874 288.49 363.909 284.102 363.909V373.909C290.138 373.909 295.625 372.459 300.345 369.363L294.86 361.001ZM284.102 363.909C280.017 363.909 276.672 362.98 273.893 361.28L268.675 369.811C273.229 372.596 278.43 373.909 284.102 373.909V363.909ZM273.909 361.29C271.076 359.543 268.859 357.145 267.229 353.982L258.34 358.563C260.77 363.279 264.219 367.063 268.66 369.801L273.909 361.29ZM267.242 354.009C265.644 350.861 264.765 347.13 264.739 342.698L254.739 342.757C254.773 348.506 255.924 353.806 258.326 358.536L267.242 354.009ZM264.739 342.727V298.182H254.739V342.727H264.739ZM259.739 303.182H284.83V293.182H259.739V303.182ZM279.83 298.182V337.455H289.83V298.182H279.83ZM279.83 337.498C279.867 341.763 280.967 345.763 283.707 348.888L291.225 342.294C290.51 341.479 289.853 340.055 289.829 337.411L279.83 337.498ZM283.735 348.92C286.625 352.159 290.555 353.545 294.83 353.545V343.545C292.801 343.545 291.822 342.963 291.197 342.262L283.735 348.92ZM294.83 353.545C297.63 353.545 300.334 352.952 302.747 351.552L297.73 342.902C297.113 343.26 296.211 343.545 294.83 343.545V353.545ZM302.774 351.537C305.169 350.128 307.015 348.127 308.256 345.645L299.312 341.173C298.916 341.964 298.399 342.509 297.704 342.918L302.774 351.537ZM308.24 345.678C309.532 343.14 310.049 340.318 310.011 337.389L300.012 337.52C300.034 339.198 299.733 340.345 299.328 341.141L308.24 345.678ZM342.864 368H337.864V373H342.864V368ZM342.864 298.182V293.182H337.864V298.182H342.864ZM367.227 298.182H372.227V293.182H367.227V298.182ZM367.227 311.455H362.227V316.455H367.227V311.455ZM367.955 311.455V316.455H371.824L372.795 312.709L367.955 311.455ZM374 300.682L370.841 296.806L370.83 296.815L370.82 296.823L374 300.682ZM387 297.545L386.155 302.474L386.233 302.487L386.312 302.498L387 297.545ZM390.136 298.227H395.136V294.518L391.586 293.442L390.136 298.227ZM390.136 319.636L388.521 324.368L395.136 326.627V319.636H390.136ZM385.545 318.682L386.125 313.715L385.545 318.682ZM374.227 320.045L376.679 324.403L376.69 324.397L376.701 324.391L374.227 320.045ZM369.636 324.682L373.982 327.155L373.99 327.141L373.998 327.127L369.636 324.682ZM367.955 368V373H372.955V368H367.955ZM347.864 368V298.182H337.864V368H347.864ZM342.864 303.182H367.227V293.182H342.864V303.182ZM362.227 298.182V311.455H372.227V298.182H362.227ZM367.227 316.455H367.955V306.455H367.227V316.455ZM372.795 312.709C373.91 308.407 375.514 305.913 377.18 304.54L370.82 296.823C366.971 299.996 364.545 304.683 363.115 310.2L372.795 312.709ZM377.159 304.557C379.02 303.04 381.151 302.273 383.773 302.273V292.273C378.94 292.273 374.555 293.778 370.841 296.806L377.159 304.557ZM383.773 302.273C384.584 302.273 385.377 302.34 386.155 302.474L387.845 292.617C386.501 292.387 385.143 292.273 383.773 292.273V302.273ZM386.312 302.498C387.159 302.616 387.949 302.789 388.686 303.012L391.586 293.442C390.324 293.06 389.023 292.778 387.688 292.593L386.312 302.498ZM385.136 298.227V319.636H395.136V298.227H385.136ZM391.752 314.905C390.071 314.331 388.169 313.954 386.125 313.715L384.966 323.648C386.558 323.834 387.717 324.094 388.521 324.368L391.752 314.905ZM386.125 313.715C384.185 313.489 382.42 313.364 380.864 313.364V323.364C381.913 323.364 383.27 323.45 384.966 323.648L386.125 313.715ZM380.864 313.364C377.616 313.364 374.539 314.115 371.754 315.7L376.701 324.391C377.855 323.734 379.202 323.364 380.864 323.364V313.364ZM371.776 315.688C369.011 317.243 366.831 319.461 365.275 322.237L373.998 327.127C374.684 325.902 375.565 325.03 376.679 324.403L371.776 315.688ZM365.291 322.208C363.671 325.055 362.955 328.256 362.955 331.636H372.955C372.955 329.683 373.36 328.248 373.982 327.155L365.291 322.208ZM362.955 331.636V368H372.955V331.636H362.955ZM367.955 363H342.864V373H367.955V363ZM398 368H393V373H398V368ZM398 274.909V269.909H393V274.909H398ZM423.091 274.909H428.091V269.909H423.091V274.909ZM423.091 310.364H418.091V315.364H423.091V310.364ZM423.455 310.364V315.364H426.889L428.121 312.159L423.455 310.364ZM427.455 303.864L431.185 307.193L431.198 307.178L431.21 307.164L427.455 303.864ZM434 299.091L436.065 303.645L436.087 303.635L436.109 303.625L434 299.091ZM456.227 300.955L453.683 305.259L453.689 305.263L453.696 305.267L456.227 300.955ZM466.409 312.545L461.927 314.761L461.932 314.771L461.937 314.782L466.409 312.545ZM466.591 353.136L462.073 350.994L462.068 351.004L462.063 351.015L466.591 353.136ZM456.591 365L453.946 360.757L453.94 360.761L453.933 360.765L456.591 365ZM434.136 367.318L432.167 371.914L432.2 371.928L432.233 371.942L434.136 367.318ZM427.591 362.909L423.969 366.356L423.997 366.386L424.026 366.415L427.591 362.909ZM423.455 356.545L428.08 354.648L426.808 351.545H423.455V356.545ZM422.909 356.545V351.545H417.909V356.545H422.909ZM422.909 368V373H427.909V368H422.909ZM423.864 341.909L419.15 343.576L419.162 343.611L419.175 343.646L423.864 341.909ZM427.682 347.636L424.481 351.477L424.519 351.509L424.558 351.541L427.682 347.636ZM439.5 347.682L442.65 351.565L442.658 351.558L439.5 347.682ZM443.227 342L438.513 340.333L438.507 340.35L438.502 340.366L443.227 342ZM443.227 324.227L438.496 325.843L438.507 325.878L438.52 325.913L443.227 324.227ZM439.5 318.545L436.306 322.393L436.345 322.425L436.385 322.457L439.5 318.545ZM427.682 318.545L430.796 322.457L430.805 322.45L427.682 318.545ZM423.864 324.227L419.168 322.509L419.162 322.526L419.156 322.542L423.864 324.227ZM403 368V274.909H393V368H403ZM398 279.909H423.091V269.909H398V279.909ZM418.091 274.909V310.364H428.091V274.909H418.091ZM423.091 315.364H423.455V305.364H423.091V315.364ZM428.121 312.159C428.804 310.382 429.812 308.731 431.185 307.193L423.724 300.535C421.581 302.936 419.923 305.618 418.788 308.569L428.121 312.159ZM431.21 307.164C432.465 305.736 434.056 304.556 436.065 303.645L431.935 294.537C428.732 295.99 425.959 297.991 423.699 300.563L431.21 307.164ZM436.109 303.625C437.934 302.775 440.22 302.273 443.091 302.273V292.273C439.053 292.273 435.278 292.982 431.891 294.557L436.109 303.625ZM443.091 302.273C446.759 302.273 450.264 303.237 453.683 305.259L458.772 296.651C453.888 293.763 448.635 292.273 443.091 292.273V302.273ZM453.696 305.267C456.873 307.131 459.66 310.174 461.927 314.761L470.891 310.33C467.946 304.371 463.945 299.687 458.758 296.642L453.696 305.267ZM461.937 314.782C464.11 319.127 465.364 325.132 465.364 333.091H475.364C475.364 324.201 473.981 316.509 470.881 310.309L461.937 314.782ZM465.364 333.091C465.364 340.671 464.175 346.562 462.073 350.994L471.109 355.279C474.037 349.105 475.364 341.632 475.364 333.091H465.364ZM462.063 351.015C459.91 355.611 457.165 358.751 453.946 360.757L459.235 369.243C464.38 366.037 468.302 361.268 471.119 355.258L462.063 351.015ZM453.933 360.765C450.589 362.864 446.952 363.909 442.909 363.909V373.909C448.805 373.909 454.29 372.348 459.249 369.235L453.933 360.765ZM442.909 363.909C440.177 363.909 437.916 363.467 436.04 362.695L432.233 371.942C435.508 373.29 439.096 373.909 442.909 373.909V363.909ZM436.106 362.722C434.117 361.87 432.488 360.757 431.156 359.403L424.026 366.415C426.331 368.758 429.065 370.585 432.167 371.914L436.106 362.722ZM431.213 359.462C429.846 358.026 428.811 356.428 428.08 354.648L418.829 358.443C420.038 361.39 421.76 364.035 423.969 366.356L431.213 359.462ZM423.455 351.545H422.909V361.545H423.455V351.545ZM417.909 356.545V368H427.909V356.545H417.909ZM422.909 363H398V373H422.909V363ZM417.545 333.091C417.545 336.898 418.036 340.427 419.15 343.576L428.578 340.242C427.934 338.422 427.545 336.072 427.545 333.091H417.545ZM419.175 343.646C420.319 346.733 422.036 349.44 424.481 351.477L430.883 343.795C430.055 343.106 429.227 341.994 428.552 340.173L419.175 343.646ZM424.558 351.541C427.184 353.641 430.294 354.636 433.636 354.636V344.636C432.373 344.636 431.513 344.298 430.805 343.732L424.558 351.541ZM433.636 354.636C436.948 354.636 440.051 353.673 442.65 351.565L436.35 343.799C435.736 344.297 434.931 344.636 433.636 344.636V354.636ZM442.658 351.558C445.165 349.515 446.871 346.764 447.953 343.634L438.502 340.366C437.887 342.145 437.108 343.182 436.342 343.806L442.658 351.558ZM447.941 343.667C449.058 340.51 449.545 336.947 449.545 333.091H439.545C439.545 336.144 439.154 338.521 438.513 340.333L447.941 343.667ZM449.545 333.091C449.545 329.238 449.059 325.681 447.935 322.542L438.52 325.913C439.154 327.683 439.545 330.035 439.545 333.091H449.545ZM447.959 322.612C446.88 319.453 445.168 316.667 442.615 314.634L436.385 322.457C437.105 323.03 437.877 324.032 438.496 325.843L447.959 322.612ZM442.694 314.698C440.096 312.542 436.977 311.545 433.636 311.545V321.545C434.902 321.545 435.692 321.883 436.306 322.393L442.694 314.698ZM433.636 311.545C430.294 311.545 427.184 312.541 424.558 314.641L430.805 322.45C431.513 321.883 432.373 321.545 433.636 321.545V311.545ZM424.567 314.634C422.045 316.643 420.31 319.388 419.168 322.509L428.559 325.945C429.235 324.097 430.046 323.054 430.796 322.457L424.567 314.634ZM419.156 322.542C418.032 325.681 417.545 329.238 417.545 333.091H427.545C427.545 330.035 427.937 327.683 428.571 325.913L419.156 322.542ZM495.045 364.773L492.596 369.132L492.606 369.137L492.615 369.142L495.045 364.773ZM482.636 352.136L478.22 354.48L478.225 354.491L482.636 352.136ZM482.636 314.455L487.047 316.809L487.053 316.799L482.636 314.455ZM495.045 301.818L497.476 306.188L497.485 306.183L497.494 306.177L495.045 301.818ZM533.955 301.818L531.506 306.177L531.515 306.183L531.524 306.188L533.955 301.818ZM546.364 314.455L541.947 316.799L541.953 316.809L546.364 314.455ZM546.364 352.136L550.775 354.491L550.78 354.48L546.364 352.136ZM533.955 364.773L536.385 369.142L536.394 369.137L536.404 369.132L533.955 364.773ZM520.182 348.591L523.57 352.268V352.268L520.182 348.591ZM523.773 342.5L528.532 344.032L523.773 342.5ZM523.773 323.682L519.013 325.214L519.016 325.222L519.018 325.23L523.773 323.682ZM520.182 317.591L523.57 313.914V313.914L520.182 317.591ZM505.227 323.682L509.982 325.23L509.984 325.222L509.987 325.214L505.227 323.682ZM505.227 342.5L509.987 340.968L505.227 342.5ZM514.5 364.273C507.583 364.273 501.975 362.906 497.476 360.403L492.615 369.142C498.904 372.64 506.265 374.273 514.5 374.273V364.273ZM497.494 360.414C492.922 357.845 489.471 354.324 487.047 349.782L478.225 354.491C481.559 360.737 486.381 365.64 492.596 369.132L497.494 360.414ZM487.053 349.792C484.616 345.201 483.318 339.742 483.318 333.273H473.318C473.318 341.107 474.899 348.224 478.22 354.48L487.053 349.792ZM483.318 333.273C483.318 326.803 484.616 321.364 487.047 316.809L478.225 312.1C474.899 318.333 473.318 325.44 473.318 333.273H483.318ZM487.053 316.799C489.477 312.232 492.921 308.721 497.476 306.188L492.615 297.449C486.382 300.915 481.554 305.829 478.22 312.111L487.053 316.799ZM497.494 306.177C501.99 303.652 507.591 302.273 514.5 302.273V292.273C506.258 292.273 498.889 293.924 492.596 297.459L497.494 306.177ZM514.5 302.273C521.409 302.273 527.01 303.652 531.506 306.177L536.404 297.459C530.111 293.924 522.742 292.273 514.5 292.273V302.273ZM531.524 306.188C536.079 308.721 539.523 312.232 541.947 316.799L550.78 312.111C547.446 305.829 542.618 300.915 536.385 297.449L531.524 306.188ZM541.953 316.809C544.384 321.364 545.682 326.803 545.682 333.273H555.682C555.682 325.44 554.101 318.333 550.775 312.1L541.953 316.809ZM545.682 333.273C545.682 339.742 544.384 345.201 541.947 349.792L550.78 354.48C554.101 348.224 555.682 341.107 555.682 333.273H545.682ZM541.953 349.782C539.529 354.324 536.078 357.845 531.506 360.414L536.404 369.132C542.619 365.64 547.441 360.737 550.775 354.491L541.953 349.782ZM531.524 360.403C527.025 362.906 521.417 364.273 514.5 364.273V374.273C522.735 374.273 530.096 372.64 536.385 369.142L531.524 360.403ZM514.682 355.727C518.046 355.727 521.092 354.552 523.57 352.268L516.793 344.914C516.181 345.479 515.56 345.727 514.682 345.727V355.727ZM523.57 352.268C525.92 350.102 527.501 347.237 528.532 344.032L519.013 340.968C518.348 343.036 517.534 344.232 516.793 344.914L523.57 352.268ZM528.532 344.032C529.581 340.773 530.045 337.094 530.045 333.091H520.045C520.045 336.36 519.661 338.954 519.013 340.968L528.532 344.032ZM530.045 333.091C530.045 329.064 529.583 325.376 528.527 322.134L519.018 325.23C519.66 327.199 520.045 329.784 520.045 333.091H530.045ZM528.532 322.15C527.501 318.945 525.92 316.08 523.57 313.914L516.793 321.268C517.534 321.95 518.348 323.146 519.013 325.214L528.532 322.15ZM523.57 313.914C521.092 311.63 518.046 310.455 514.682 310.455V320.455C515.56 320.455 516.181 320.703 516.793 321.268L523.57 313.914ZM514.682 310.455C511.277 310.455 508.156 311.576 505.592 313.85L512.227 321.332C512.874 320.758 513.602 320.455 514.682 320.455V310.455ZM505.592 313.85C503.148 316.017 501.512 318.904 500.468 322.15L509.987 325.214C510.639 323.187 511.458 322.013 512.227 321.332L505.592 313.85ZM500.473 322.134C499.417 325.376 498.955 329.064 498.955 333.091H508.955C508.955 329.784 509.34 327.199 509.982 325.23L500.473 322.134ZM498.955 333.091C498.955 337.094 499.419 340.773 500.468 344.032L509.987 340.968C509.339 338.954 508.955 336.36 508.955 333.091H498.955ZM500.468 344.032C501.512 347.278 503.148 350.165 505.592 352.332L512.227 344.85C511.458 344.168 510.639 342.995 509.987 340.968L500.468 344.032ZM505.592 352.332C508.156 354.606 511.277 355.727 514.682 355.727V345.727C513.602 345.727 512.874 345.424 512.227 344.85L505.592 352.332ZM583.455 295.273H578.455V300.273H583.455V295.273ZM583.455 274.909V269.909H578.455V274.909H583.455ZM664.364 274.909H669.364V269.909H664.364V274.909ZM664.364 295.273V300.273H669.364V295.273H664.364ZM636.364 295.273V290.273H631.364V295.273H636.364ZM636.364 368V373H641.364V368H636.364ZM611.455 368H606.455V373H611.455V368ZM611.455 295.273H616.455V290.273H611.455V295.273ZM588.455 295.273V274.909H578.455V295.273H588.455ZM583.455 279.909H664.364V269.909H583.455V279.909ZM659.364 274.909V295.273H669.364V274.909H659.364ZM664.364 290.273H636.364V300.273H664.364V290.273ZM631.364 295.273V368H641.364V295.273H631.364ZM636.364 363H611.455V373H636.364V363ZM616.455 368V295.273H606.455V368H616.455ZM611.455 290.273H583.455V300.273H611.455V290.273ZM673.284 393.5L674.143 388.574L674.115 388.57L674.087 388.565L673.284 393.5ZM666.42 391.727L661.639 390.264L660.275 394.721L664.626 396.394L666.42 391.727ZM671.875 373.909L673.539 369.194L668.621 367.458L667.094 372.446L671.875 373.909ZM677.511 375.318L676.891 380.28L676.902 380.281L677.511 375.318ZM681.92 374.955L680.203 370.259L680.184 370.266L680.165 370.273L681.92 374.955ZM684.602 372.364L689.198 374.333L684.602 372.364ZM685.148 371.091L689.743 373.061L690.496 371.305L689.886 369.496L685.148 371.091ZM660.602 298.182V293.182H653.643L655.864 299.777L660.602 298.182ZM686.784 298.182L691.654 297.047L690.753 293.182H686.784V298.182ZM698.057 346.545L693.187 347.68L694.088 351.545H698.057V346.545ZM698.784 346.545V351.545H702.738L703.649 347.698L698.784 346.545ZM710.239 298.182V293.182H706.285L705.373 297.029L710.239 298.182ZM736.602 298.182L741.341 299.777L743.561 293.182H736.602V298.182ZM711.148 373.818L706.409 372.223L706.405 372.236L706.401 372.248L711.148 373.818ZM705.602 384.182L701.683 381.077L701.666 381.099L701.649 381.12L705.602 384.182ZM696.148 391.5L694.068 386.953L696.148 391.5ZM681.511 389.182C678.896 389.182 676.442 388.975 674.143 388.574L672.425 398.426C675.338 398.934 678.37 399.182 681.511 399.182V389.182ZM674.087 388.565C671.74 388.183 669.797 387.669 668.215 387.061L664.626 396.394C666.984 397.301 669.616 397.969 672.481 398.435L674.087 388.565ZM671.201 393.191L676.656 375.373L667.094 372.446L661.639 390.264L671.201 393.191ZM670.211 378.624C672.521 379.44 674.756 380.013 676.891 380.28L678.132 370.357C676.873 370.199 675.35 369.833 673.539 369.194L670.211 378.624ZM676.902 380.281C679.165 380.559 681.495 380.454 683.676 379.636L680.165 370.273C679.921 370.364 679.312 370.502 678.121 370.355L676.902 380.281ZM683.638 379.65C686.241 378.698 688.138 376.806 689.198 374.333L680.007 370.394C679.985 370.445 679.973 370.459 679.981 370.448C679.99 370.435 680.012 370.406 680.049 370.37C680.086 370.334 680.126 370.304 680.161 370.282C680.196 370.26 680.214 370.255 680.203 370.259L683.638 379.65ZM689.198 374.333L689.743 373.061L680.552 369.121L680.007 370.394L689.198 374.333ZM689.886 369.496L665.341 296.587L655.864 299.777L680.409 372.686L689.886 369.496ZM660.602 303.182H686.784V293.182H660.602V303.182ZM681.915 299.317L693.187 347.68L702.926 345.41L691.654 297.047L681.915 299.317ZM698.057 351.545H698.784V341.545H698.057V351.545ZM703.649 347.698L715.104 299.334L705.373 297.029L693.919 345.393L703.649 347.698ZM710.239 303.182H736.602V293.182H710.239V303.182ZM731.863 296.587L706.409 372.223L715.887 375.413L741.341 299.777L731.863 296.587ZM706.401 372.248C705.305 375.562 703.73 378.493 701.683 381.077L709.522 387.286C712.323 383.749 714.445 379.771 715.895 375.388L706.401 372.248ZM701.649 381.12C699.798 383.51 697.316 385.467 694.068 386.953L698.227 396.047C702.797 393.957 706.618 391.036 709.555 387.243L701.649 381.12ZM694.068 386.953C691.002 388.355 686.886 389.182 681.511 389.182V399.182C687.833 399.182 693.475 398.221 698.227 396.047L694.068 386.953ZM743.739 394.182H738.739V399.182H743.739V394.182ZM743.739 298.182V293.182H738.739V298.182H743.739ZM768.648 298.182H773.648V293.182H768.648V298.182ZM768.648 310.364H763.648V315.364H768.648V310.364ZM769.193 310.364V315.364H772.627L773.86 312.159L769.193 310.364ZM773.193 303.864L776.924 307.193L776.937 307.178L776.949 307.164L773.193 303.864ZM779.739 299.091L781.804 303.645L781.826 303.635L781.847 303.625L779.739 299.091ZM801.966 300.955L799.421 305.259L799.428 305.263L799.435 305.267L801.966 300.955ZM812.148 312.545L807.665 314.761L807.67 314.771L807.676 314.782L812.148 312.545ZM812.33 353.136L807.812 350.994L807.807 351.004L807.802 351.015L812.33 353.136ZM802.33 365L799.685 360.757L799.678 360.761L799.671 360.765L802.33 365ZM779.875 367.318L777.905 371.914L777.938 371.928L777.971 371.942L779.875 367.318ZM773.33 362.909L769.707 366.356L769.736 366.386L769.765 366.415L773.33 362.909ZM769.193 356.545L773.819 354.648L772.546 351.545H769.193V356.545ZM768.83 356.545V351.545H763.83V356.545H768.83ZM768.83 394.182V399.182H773.83V394.182H768.83ZM769.602 341.909L764.888 343.576L764.901 343.611L764.914 343.646L769.602 341.909ZM773.42 347.636L770.22 351.477L770.258 351.509L770.297 351.541L773.42 347.636ZM785.239 347.682L788.389 351.565L788.397 351.558L785.239 347.682ZM788.966 342L784.252 340.333L784.246 340.35L784.24 340.366L788.966 342ZM788.966 324.227L784.234 325.843L784.246 325.878L784.259 325.913L788.966 324.227ZM785.239 318.545L782.045 322.393L782.084 322.425L782.124 322.457L785.239 318.545ZM773.42 318.545L776.535 322.457L776.544 322.45L773.42 318.545ZM769.602 324.227L764.907 322.509L764.901 322.526L764.895 322.542L769.602 324.227ZM748.739 394.182V298.182H738.739V394.182H748.739ZM743.739 303.182H768.648V293.182H743.739V303.182ZM763.648 298.182V310.364H773.648V298.182H763.648ZM768.648 315.364H769.193V305.364H768.648V315.364ZM773.86 312.159C774.543 310.382 775.551 308.731 776.924 307.193L769.462 300.535C767.32 302.936 765.661 305.618 764.526 308.569L773.86 312.159ZM776.949 307.164C778.204 305.736 779.795 304.556 781.804 303.645L777.674 294.537C774.47 295.99 771.698 297.991 769.437 300.563L776.949 307.164ZM781.847 303.625C783.673 302.775 785.959 302.273 788.83 302.273V292.273C784.791 292.273 781.016 292.982 777.63 294.557L781.847 303.625ZM788.83 302.273C792.497 302.273 796.003 303.237 799.421 305.259L804.511 296.651C799.626 293.763 794.374 292.273 788.83 292.273V302.273ZM799.435 305.267C802.611 307.131 805.398 310.174 807.665 314.761L816.63 310.33C813.685 304.371 809.684 299.687 804.497 296.642L799.435 305.267ZM807.676 314.782C809.848 319.127 811.102 325.132 811.102 333.091H821.102C821.102 324.201 819.72 316.509 816.62 310.309L807.676 314.782ZM811.102 333.091C811.102 340.671 809.914 346.562 807.812 350.994L816.847 355.279C819.775 349.105 821.102 341.632 821.102 333.091H811.102ZM807.802 351.015C805.648 355.611 802.904 358.751 799.685 360.757L804.974 369.243C810.119 366.037 814.041 361.268 816.857 355.258L807.802 351.015ZM799.671 360.765C796.328 362.864 792.691 363.909 788.648 363.909V373.909C794.544 373.909 800.028 372.348 804.988 369.235L799.671 360.765ZM788.648 363.909C785.916 363.909 783.655 363.467 781.779 362.695L777.971 371.942C781.247 373.29 784.834 373.909 788.648 373.909V363.909ZM781.845 362.722C779.855 361.87 778.226 360.757 776.894 359.403L769.765 366.415C772.069 368.758 774.804 370.585 777.905 371.914L781.845 362.722ZM776.952 359.462C775.585 358.026 774.55 356.428 773.819 354.648L764.567 358.443C765.776 361.39 767.498 364.035 769.707 366.356L776.952 359.462ZM769.193 351.545H768.83V361.545H769.193V351.545ZM763.83 356.545V394.182H773.83V356.545H763.83ZM768.83 389.182H743.739V399.182H768.83V389.182ZM763.284 333.091C763.284 336.898 763.775 340.427 764.888 343.576L774.316 340.242C773.672 338.422 773.284 336.072 773.284 333.091H763.284ZM764.914 343.646C766.057 346.733 767.774 349.44 770.22 351.477L776.621 343.795C775.794 343.106 774.966 341.994 774.291 340.173L764.914 343.646ZM770.297 351.541C772.922 353.641 776.033 354.636 779.375 354.636V344.636C778.111 344.636 777.252 344.298 776.544 343.732L770.297 351.541ZM779.375 354.636C782.687 354.636 785.79 353.673 788.389 351.565L782.088 343.799C781.475 344.297 780.669 344.636 779.375 344.636V354.636ZM788.397 351.558C790.904 349.515 792.609 346.764 793.692 343.634L784.24 340.366C783.626 342.145 782.846 343.182 782.08 343.806L788.397 351.558ZM793.68 343.667C794.796 340.51 795.284 336.947 795.284 333.091H785.284C785.284 336.144 784.893 338.521 784.252 340.333L793.68 343.667ZM795.284 333.091C795.284 329.238 794.797 325.681 793.673 322.542L784.259 325.913C784.892 327.683 785.284 330.035 785.284 333.091H795.284ZM793.698 322.612C792.619 319.453 790.907 316.667 788.353 314.634L782.124 322.457C782.843 323.03 783.616 324.032 784.234 325.843L793.698 322.612ZM788.432 314.698C785.835 312.542 782.716 311.545 779.375 311.545V321.545C780.64 321.545 781.431 321.883 782.045 322.393L788.432 314.698ZM779.375 311.545C776.033 311.545 772.922 312.541 770.297 314.641L776.544 322.45C777.252 321.883 778.111 321.545 779.375 321.545V311.545ZM770.306 314.634C767.784 316.643 766.049 319.388 764.907 322.509L774.298 325.945C774.974 324.097 775.785 323.054 776.535 322.457L770.306 314.634ZM764.895 322.542C763.771 325.681 763.284 329.238 763.284 333.091H773.284C773.284 330.035 773.676 327.683 774.31 325.913L764.895 322.542ZM826.614 368H821.614V373H826.614V368ZM826.614 298.182V293.182H821.614V298.182H826.614ZM851.705 298.182H856.705V293.182H851.705V298.182ZM851.705 368V373H856.705V368H851.705ZM830.432 287.545L827.037 291.216V291.216L830.432 287.545ZM830.432 271.364L827.037 267.693V267.693L830.432 271.364ZM847.886 271.364L844.468 275.013L844.48 275.023L844.491 275.034L847.886 271.364ZM847.886 287.545L844.491 283.875L844.48 283.886L844.468 283.896L847.886 287.545ZM831.614 368V298.182H821.614V368H831.614ZM826.614 303.182H851.705V293.182H826.614V303.182ZM846.705 298.182V368H856.705V298.182H846.705ZM851.705 363H826.614V373H851.705V363ZM839.159 285.909C836.985 285.909 835.299 285.237 833.827 283.875L827.037 291.216C830.413 294.339 834.545 295.909 839.159 295.909V285.909ZM833.827 283.875C832.371 282.528 831.795 281.139 831.795 279.455H821.795C821.795 284.073 823.644 288.078 827.037 291.216L833.827 283.875ZM831.795 279.455C831.795 277.77 832.371 276.381 833.827 275.034L827.037 267.693C823.644 270.831 821.795 274.836 821.795 279.455H831.795ZM833.827 275.034C835.299 273.672 836.985 273 839.159 273V263C834.545 263 830.413 264.57 827.037 267.693L833.827 275.034ZM839.159 273C841.375 273 843.045 273.679 844.468 275.013L851.305 267.715C847.94 264.563 843.791 263 839.159 263V273ZM844.491 275.034C845.948 276.381 846.523 277.77 846.523 279.455H856.523C856.523 274.836 854.674 270.831 851.282 267.693L844.491 275.034ZM846.523 279.455C846.523 281.139 845.948 282.528 844.491 283.875L851.282 291.216C854.674 288.078 856.523 284.073 856.523 279.455H846.523ZM844.468 283.896C843.045 285.23 841.375 285.909 839.159 285.909V295.909C843.791 295.909 847.94 294.346 851.305 291.195L844.468 283.896ZM889.58 328.727L884.58 328.661L884.58 328.694V328.727H889.58ZM889.58 368V373H894.58V368H889.58ZM864.489 368H859.489V373H864.489V368ZM864.489 298.182V293.182H859.489V298.182H864.489ZM888.307 298.182H893.307V293.182H888.307V298.182ZM888.307 311.455H883.307V316.455H888.307V311.455ZM889.034 311.455V316.455H892.607L893.764 313.075L889.034 311.455ZM897.034 301.045L894.299 296.86L894.291 296.865L894.284 296.87L897.034 301.045ZM923.352 300.682L920.702 304.922L920.723 304.935L920.744 304.947L923.352 300.682ZM931.852 309.955L927.394 312.218L927.401 312.232L927.408 312.245L931.852 309.955ZM934.852 323.455L929.852 323.425L929.852 323.44V323.455H934.852ZM934.852 368V373H939.852V368H934.852ZM909.761 368H904.761V373H909.761V368ZM909.761 328.727L904.762 328.683L904.761 328.705V328.727H909.761ZM907.125 320.591L903.394 323.92L903.408 323.936L903.423 323.951L907.125 320.591ZM894.352 319L896.861 323.325L896.874 323.317L896.887 323.31L894.352 319ZM890.852 322.818L895.324 325.054L895.333 325.038L895.341 325.022L890.852 322.818ZM884.58 328.727V368H894.58V328.727H884.58ZM889.58 363H864.489V373H889.58V363ZM869.489 368V298.182H859.489V368H869.489ZM864.489 303.182H888.307V293.182H864.489V303.182ZM883.307 298.182V311.455H893.307V298.182H883.307ZM888.307 316.455H889.034V306.455H888.307V316.455ZM893.764 313.075C894.93 309.672 896.914 307.112 899.785 305.221L894.284 296.87C889.518 300.009 886.169 304.389 884.304 309.835L893.764 313.075ZM899.769 305.231C902.714 303.307 906.224 302.273 910.489 302.273V292.273C904.51 292.273 899.051 293.754 894.299 296.86L899.769 305.231ZM910.489 302.273C914.636 302.273 917.975 303.218 920.702 304.922L926.002 296.442C921.456 293.601 916.22 292.273 910.489 292.273V302.273ZM920.744 304.947C923.597 306.693 925.801 309.08 927.394 312.218L936.311 307.691C933.904 302.95 930.441 299.156 925.961 296.416L920.744 304.947ZM927.408 312.245C929.019 315.371 929.879 319.056 929.852 323.425L939.852 323.484C939.887 317.732 938.746 312.417 936.297 307.664L927.408 312.245ZM929.852 323.455V368H939.852V323.455H929.852ZM934.852 363H909.761V373H934.852V363ZM914.761 368V328.727H904.761V368H914.761ZM914.761 328.771C914.799 324.446 913.689 320.383 910.827 317.23L903.423 323.951C904.137 324.738 904.784 326.099 904.762 328.683L914.761 328.771ZM910.856 317.262C907.966 314.023 904.036 312.636 899.761 312.636V322.636C901.79 322.636 902.769 323.219 903.394 323.92L910.856 317.262ZM899.761 312.636C896.944 312.636 894.24 313.265 891.817 314.69L896.887 323.31C897.556 322.917 898.457 322.636 899.761 322.636V312.636ZM891.844 314.675C889.421 316.08 887.59 318.117 886.364 320.615L895.341 325.022C895.751 324.186 896.253 323.678 896.861 323.325L891.844 314.675ZM886.38 320.582C885.149 323.044 884.618 325.794 884.58 328.661L894.579 328.793C894.602 327.054 894.919 325.865 895.324 325.054L886.38 320.582ZM962.875 392.636L964.732 387.994L964.725 387.991L964.717 387.988L962.875 392.636ZM951.284 384.455L947.36 387.553L947.363 387.557L951.284 384.455ZM946.693 372.545V367.545H941.308L941.707 372.916L946.693 372.545ZM970.875 372.545L975.81 371.74L975.125 367.545H970.875V372.545ZM972.693 376.136L969.273 379.784V379.784L972.693 376.136ZM976.42 378.091L977.744 373.269L977.711 373.26L977.679 373.252L976.42 378.091ZM989.648 376.364L986.693 372.33L986.68 372.34L986.666 372.35L989.648 376.364ZM992.875 356H997.875V351H992.875V356ZM992.148 356V351H988.714L987.481 354.205L992.148 356ZM987.966 362.045L991.25 365.816L991.267 365.801L991.284 365.786L987.966 362.045ZM981.193 365.818L982.725 370.578L982.75 370.57L982.774 370.562L981.193 365.818ZM958.784 363.636L956.359 368.009L956.365 368.012L956.372 368.016L958.784 363.636ZM948.784 352.682L944.307 354.907L944.312 354.918L944.317 354.929L948.784 352.682ZM948.966 312.545L944.494 310.309L944.489 310.32L944.484 310.33L948.966 312.545ZM959.148 300.955L956.617 296.642L956.61 296.646L956.603 296.651L959.148 300.955ZM981.42 299.091L979.312 303.625L979.334 303.635L979.355 303.645L981.42 299.091ZM987.966 303.864L984.21 307.164L984.223 307.178L984.235 307.193L987.966 303.864ZM991.966 310.364L987.299 312.159L988.532 315.364H991.966V310.364ZM992.511 310.364V315.364H997.511V310.364H992.511ZM992.511 298.182V293.182H987.511V298.182H992.511ZM1017.6 298.182H1022.6V293.182H1017.6V298.182ZM1013.01 382.864L1009 379.883L1008.98 379.899L1008.97 379.916L1013.01 382.864ZM1000.19 392.364L1002.03 397.013L1000.19 392.364ZM987.693 347.364L990.763 351.31L990.773 351.303L987.693 347.364ZM991.511 341.818L986.83 340.063L986.824 340.079L986.818 340.095L991.511 341.818ZM991.511 324.227L986.797 325.894L986.81 325.929L986.823 325.964L991.511 324.227ZM987.693 318.545L984.535 322.422L984.574 322.453L984.614 322.484L987.693 318.545ZM975.875 318.545L979.025 322.428L979.033 322.422L975.875 318.545ZM972.148 324.227L967.434 322.56L967.428 322.577L967.422 322.594L972.148 324.227ZM972.148 341.909L967.428 343.561L967.441 343.597L967.454 343.632L972.148 341.909ZM975.875 347.409L972.77 351.328L972.81 351.36L972.851 351.391L975.875 347.409ZM980.875 390.636C974.33 390.636 968.993 389.699 964.732 387.994L961.018 397.279C966.757 399.574 973.42 400.636 980.875 400.636V390.636ZM964.717 387.988C960.398 386.276 957.317 384.02 955.205 381.352L947.363 387.557C950.767 391.858 955.412 395.057 961.033 397.285L964.717 387.988ZM955.208 381.356C953.114 378.703 951.941 375.688 951.679 372.175L941.707 372.916C942.112 378.373 944 383.297 947.36 387.553L955.208 381.356ZM946.693 377.545H970.875V367.545H946.693V377.545ZM965.94 373.351C966.336 375.774 967.394 378.022 969.273 379.784L976.113 372.489C976.053 372.432 975.899 372.287 975.81 371.74L965.94 373.351ZM969.273 379.784C970.953 381.358 972.982 382.363 975.162 382.93L977.679 373.252C976.828 373.031 976.373 372.732 976.113 372.489L969.273 379.784ZM975.097 382.913C977.146 383.475 979.329 383.727 981.602 383.727V373.727C980.058 373.727 978.785 373.555 977.744 373.269L975.097 382.913ZM981.602 383.727C985.67 383.727 989.466 382.728 992.629 380.377L986.666 372.35C985.587 373.151 984.019 373.727 981.602 373.727V383.727ZM992.602 380.397C996.621 377.454 997.875 372.64 997.875 367.818H987.875C987.875 371.239 986.977 372.122 986.693 372.33L992.602 380.397ZM997.875 367.818V356H987.875V367.818H997.875ZM992.875 351H992.148V361H992.875V351ZM987.481 354.205C986.857 355.828 985.923 357.174 984.648 358.305L991.284 365.786C993.767 363.583 995.621 360.899 996.814 357.795L987.481 354.205ZM984.682 358.275C983.355 359.43 981.694 360.381 979.612 361.075L982.774 370.562C985.965 369.498 988.819 367.933 991.25 365.816L984.682 358.275ZM979.661 361.059C977.583 361.728 975.213 362.091 972.511 362.091V372.091C976.112 372.091 979.531 371.606 982.725 370.578L979.661 361.059ZM972.511 362.091C968.349 362.091 964.608 361.136 961.196 359.257L956.372 368.016C961.324 370.743 966.734 372.091 972.511 372.091V362.091ZM961.21 359.264C958.085 357.531 955.397 354.702 953.251 350.435L944.317 354.929C947.201 360.662 951.181 365.136 956.359 368.009L961.21 359.264ZM953.262 350.457C951.238 346.386 950.057 340.698 950.057 333.091H940.057C940.057 341.606 941.36 348.978 944.307 354.907L953.262 350.457ZM950.057 333.091C950.057 325.126 951.297 319.113 953.448 314.761L944.484 310.33C941.422 316.524 940.057 324.208 940.057 333.091H950.057ZM953.438 314.782C955.74 310.177 958.536 307.125 961.692 305.259L956.603 296.651C951.456 299.694 947.464 304.369 944.494 310.309L953.438 314.782ZM961.679 305.267C965.135 303.238 968.661 302.273 972.33 302.273V292.273C966.786 292.273 961.524 293.762 956.617 296.642L961.679 305.267ZM972.33 302.273C975.2 302.273 977.486 302.775 979.312 303.625L983.529 294.557C980.143 292.982 976.368 292.273 972.33 292.273V302.273ZM979.355 303.645C981.364 304.556 982.955 305.736 984.21 307.164L991.722 300.563C989.462 297.991 986.689 295.99 983.485 294.537L979.355 303.645ZM984.235 307.193C985.608 308.731 986.616 310.382 987.299 312.159L996.633 308.569C995.498 305.618 993.839 302.936 991.697 300.535L984.235 307.193ZM991.966 315.364H992.511V305.364H991.966V315.364ZM997.511 310.364V298.182H987.511V310.364H997.511ZM992.511 303.182H1017.6V293.182H992.511V303.182ZM1012.6 298.182V367.818H1022.6V298.182H1012.6ZM1012.6 367.818C1012.6 372.822 1011.32 376.75 1009 379.883L1017.03 385.845C1020.82 380.735 1022.6 374.632 1022.6 367.818H1012.6ZM1008.97 379.916C1006.58 383.192 1003.13 385.826 998.354 387.714L1002.03 397.013C1008.29 394.538 1013.38 390.839 1017.05 385.812L1008.97 379.916ZM998.354 387.714C993.547 389.616 987.756 390.636 980.875 390.636V400.636C988.721 400.636 995.809 399.475 1002.03 397.013L998.354 387.714ZM981.784 354.273C985.069 354.273 988.151 353.342 990.763 351.31L984.623 343.417C983.962 343.931 983.106 344.273 981.784 344.273V354.273ZM990.773 351.303C993.312 349.318 995.072 346.629 996.205 343.541L986.818 340.095C986.194 341.795 985.408 342.803 984.614 343.425L990.773 351.303ZM996.193 343.574C997.367 340.444 997.875 336.908 997.875 333.091H987.875C987.875 336.062 987.474 338.344 986.83 340.063L996.193 343.574ZM997.875 333.091C997.875 329.222 997.369 325.647 996.2 322.491L986.823 325.964C987.472 327.716 987.875 330.05 987.875 333.091H997.875ZM996.225 322.56C995.107 319.398 993.354 316.625 990.773 314.606L984.614 322.484C985.365 323.072 986.158 324.087 986.797 325.894L996.225 322.56ZM990.852 314.669C988.24 312.541 985.126 311.545 981.784 311.545V321.545C983.048 321.545 983.874 321.883 984.535 322.422L990.852 314.669ZM981.784 311.545C978.442 311.545 975.328 312.541 972.717 314.669L979.033 322.422C979.694 321.883 980.52 321.545 981.784 321.545V311.545ZM972.725 314.663C970.232 316.685 968.537 319.442 967.434 322.56L976.862 325.894C977.516 324.043 978.306 323.012 979.025 322.428L972.725 314.663ZM967.422 322.594C966.343 325.715 965.875 329.253 965.875 333.091H975.875C975.875 330.02 976.255 327.649 976.873 325.861L967.422 322.594ZM965.875 333.091C965.875 336.926 966.342 340.458 967.428 343.561L976.867 340.257C976.256 338.512 975.875 336.164 975.875 333.091H965.875ZM967.454 343.632C968.573 346.68 970.285 349.359 972.77 351.328L978.98 343.49C978.253 342.914 977.48 341.926 976.841 340.186L967.454 343.632ZM972.851 351.391C975.462 353.373 978.528 354.273 981.784 354.273V344.273C980.434 344.273 979.561 343.93 978.899 343.427L972.851 351.391Z" fill="url(#paint4_linear_134_37)" mask="url(#path-5-outside-1_134_37)"/>
<path d="M63.5234 34.8515L56 54.625H64.0948L67.8088 43.9341L63.5234 34.8515Z" fill="white"/>
<path d="M74.4751 54.625L64.8566 34H72.7609L82.3794 54.625H74.4751Z" fill="white"/>
<path d="M79.1073 39.0143L76.917 34H84.5356L87.0116 39.0143H79.1073Z" fill="white"/>
<path d="M86.2498 54.625L79.4883 40.3389H87.4878L94.4398 54.625H86.2498Z" fill="white"/>
<path d="M90.882 39.0143L88.6916 34H101.643L104.024 39.0143H90.882Z" fill="white"/>
<path d="M100.405 54.625L93.8342 40.3389H101.643L108.5 54.625H100.405Z" fill="white"/>
<path d="M140.648 39.3636V35.5455H155.818V39.3636H150.568V53H145.898V39.3636H140.648ZM157.602 53V35.5455H170.181V39.3636H162.34V42.3636H169.533V46.1818H162.34V49.1818H170.147V53H157.602ZM188.827 42.0909H184.02C183.986 41.6932 183.895 41.3324 183.747 41.0085C183.605 40.6847 183.406 40.4062 183.151 40.1733C182.901 39.9347 182.597 39.7528 182.239 39.6278C181.881 39.4972 181.474 39.4318 181.02 39.4318C180.224 39.4318 179.551 39.625 179 40.0114C178.455 40.3977 178.04 40.9517 177.756 41.6733C177.477 42.3949 177.338 43.2614 177.338 44.2727C177.338 45.3409 177.48 46.2358 177.764 46.9574C178.054 47.6733 178.472 48.2131 179.017 48.5767C179.563 48.9347 180.219 49.1136 180.986 49.1136C181.423 49.1136 181.815 49.0597 182.162 48.9517C182.509 48.8381 182.81 48.6761 183.065 48.4659C183.321 48.2557 183.528 48.0028 183.688 47.7074C183.852 47.4062 183.963 47.0682 184.02 46.6932L188.827 46.7273C188.77 47.4659 188.563 48.2187 188.205 48.9858C187.847 49.7472 187.338 50.4517 186.679 51.0994C186.026 51.7415 185.216 52.2585 184.25 52.6506C183.284 53.0426 182.162 53.2386 180.884 53.2386C179.281 53.2386 177.844 52.8949 176.571 52.2074C175.304 51.5199 174.301 50.5085 173.562 49.1733C172.83 47.8381 172.463 46.2045 172.463 44.2727C172.463 42.3295 172.838 40.6932 173.588 39.3636C174.338 38.0284 175.349 37.0199 176.622 36.3381C177.895 35.6506 179.315 35.3068 180.884 35.3068C181.986 35.3068 183 35.4574 183.926 35.7585C184.852 36.0597 185.665 36.5 186.364 37.0795C187.063 37.6534 187.625 38.3608 188.051 39.2017C188.477 40.0426 188.736 41.0057 188.827 42.0909ZM190.977 53V35.5455H195.715V42.3636H201.988V35.5455H206.727V53H201.988V46.1818H195.715V53H190.977ZM224.079 35.5455V53H220.124L213.817 43.8295H213.715V53H208.977V35.5455H212.999L219.204 44.6818H219.34V35.5455H224.079ZM243.229 44.2727C243.229 46.2159 242.852 47.8551 242.096 49.1903C241.34 50.5199 240.32 51.5284 239.036 52.2159C237.752 52.8977 236.32 53.2386 234.741 53.2386C233.15 53.2386 231.712 52.8949 230.428 52.2074C229.15 51.5142 228.133 50.5028 227.377 49.1733C226.627 47.8381 226.252 46.2045 226.252 44.2727C226.252 42.3295 226.627 40.6932 227.377 39.3636C228.133 38.0284 229.15 37.0199 230.428 36.3381C231.712 35.6506 233.15 35.3068 234.741 35.3068C236.32 35.3068 237.752 35.6506 239.036 36.3381C240.32 37.0199 241.34 38.0284 242.096 39.3636C242.852 40.6932 243.229 42.3295 243.229 44.2727ZM238.354 44.2727C238.354 43.2273 238.215 42.3466 237.937 41.6307C237.664 40.9091 237.258 40.3636 236.718 39.9943C236.184 39.6193 235.525 39.4318 234.741 39.4318C233.957 39.4318 233.295 39.6193 232.755 39.9943C232.221 40.3636 231.815 40.9091 231.536 41.6307C231.263 42.3466 231.127 43.2273 231.127 44.2727C231.127 45.3182 231.263 46.2017 231.536 46.9233C231.815 47.6392 232.221 48.1847 232.755 48.5597C233.295 48.929 233.957 49.1136 234.741 49.1136C235.525 49.1136 236.184 48.929 236.718 48.5597C237.258 48.1847 237.664 47.6392 237.937 46.9233C238.215 46.2017 238.354 45.3182 238.354 44.2727ZM254.831 41C254.786 40.4318 254.572 39.9886 254.192 39.6705C253.817 39.3523 253.246 39.1932 252.479 39.1932C251.99 39.1932 251.589 39.2528 251.277 39.3722C250.97 39.4858 250.743 39.642 250.595 39.8409C250.447 40.0398 250.371 40.267 250.365 40.5227C250.354 40.733 250.391 40.9233 250.476 41.0938C250.567 41.2585 250.709 41.4091 250.902 41.5455C251.095 41.6761 251.342 41.7955 251.643 41.9034C251.945 42.0114 252.303 42.108 252.717 42.1932L254.149 42.5C255.115 42.7045 255.942 42.9744 256.629 43.3097C257.317 43.6449 257.879 44.0398 258.317 44.4943C258.754 44.9432 259.075 45.4489 259.28 46.0114C259.49 46.5739 259.598 47.1875 259.604 47.8523C259.598 49 259.311 49.9716 258.743 50.767C258.175 51.5625 257.362 52.1676 256.305 52.5824C255.254 52.9972 253.99 53.2045 252.513 53.2045C250.996 53.2045 249.672 52.9801 248.541 52.5312C247.416 52.0824 246.541 51.392 245.916 50.4602C245.297 49.5227 244.984 48.3239 244.979 46.8636H249.479C249.507 47.3977 249.641 47.8466 249.879 48.2102C250.118 48.5739 250.453 48.8494 250.885 49.0369C251.322 49.2244 251.842 49.3182 252.445 49.3182C252.95 49.3182 253.374 49.2557 253.714 49.1307C254.055 49.0057 254.314 48.8324 254.49 48.6108C254.666 48.3892 254.757 48.1364 254.763 47.8523C254.757 47.5852 254.669 47.3523 254.499 47.1534C254.334 46.9489 254.061 46.767 253.68 46.608C253.3 46.4432 252.786 46.2898 252.138 46.1477L250.399 45.7727C248.854 45.4375 247.635 44.8778 246.743 44.0938C245.857 43.304 245.416 42.2273 245.422 40.8636C245.416 39.7557 245.712 38.7869 246.308 37.9574C246.911 37.1222 247.743 36.4716 248.805 36.0057C249.874 35.5398 251.098 35.3068 252.479 35.3068C253.888 35.3068 255.107 35.5426 256.135 36.0142C257.163 36.4858 257.956 37.1506 258.513 38.0085C259.075 38.8608 259.359 39.858 259.365 41H254.831ZM261.406 53V35.5455H268.94C270.236 35.5455 271.369 35.8011 272.341 36.3125C273.313 36.8239 274.068 37.5426 274.608 38.4688C275.148 39.3949 275.418 40.4773 275.418 41.7159C275.418 42.9659 275.139 44.0483 274.582 44.9631C274.031 45.8778 273.256 46.5824 272.256 47.0767C271.261 47.571 270.099 47.8182 268.77 47.8182H264.27V44.1364H267.815C268.372 44.1364 268.847 44.0398 269.239 43.8466C269.636 43.6477 269.94 43.3665 270.151 43.0028C270.366 42.6392 270.474 42.2102 270.474 41.7159C270.474 41.2159 270.366 40.7898 270.151 40.4375C269.94 40.0795 269.636 39.8068 269.239 39.6193C268.847 39.4261 268.372 39.3295 267.815 39.3295H266.145V53H261.406ZM279.511 53H274.397L280.158 35.5455H286.636L292.397 53H287.283L283.465 40.3523H283.329L279.511 53ZM278.556 46.1136H288.17V49.6591H278.556V46.1136ZM294.078 53V35.5455H301.612C302.908 35.5455 304.041 35.7812 305.013 36.2528C305.984 36.7244 306.74 37.4034 307.28 38.2898C307.82 39.1761 308.089 40.2386 308.089 41.4773C308.089 42.7273 307.811 43.7812 307.254 44.6392C306.703 45.4972 305.928 46.1449 304.928 46.5824C303.933 47.0199 302.771 47.2386 301.442 47.2386H296.942V43.5568H300.487C301.044 43.5568 301.518 43.4886 301.911 43.3523C302.308 43.2102 302.612 42.9858 302.822 42.679C303.038 42.3722 303.146 41.9716 303.146 41.4773C303.146 40.9773 303.038 40.571 302.822 40.2585C302.612 39.9403 302.308 39.7074 301.911 39.5597C301.518 39.4062 301.044 39.3295 300.487 39.3295H298.817V53H294.078ZM304.305 44.9886L308.669 53H303.521L299.26 44.9886H304.305ZM315.189 35.5455L318.053 40.625H318.189L321.087 35.5455H326.371L321.155 44.2727L326.575 53H321.155L318.189 47.8182H318.053L315.087 53H309.7L315.053 44.2727L309.871 35.5455H315.189Z" fill="white"/>
<g opacity="0.54" clip-path="url(#clip1_134_37)">
<path d="M308.746 470.017H64.2538C53.6373 470.017 45 477.556 45 486.822V572.178C45 581.444 53.6373 588.983 64.2538 588.983H308.746C319.363 588.983 328 581.444 328 572.178V486.822C328 477.556 319.363 470.017 308.746 470.017ZM318.832 572.178C318.832 577.032 314.307 580.98 308.746 580.98H64.2538C58.6928 580.98 54.1685 577.032 54.1685 572.178V486.822C54.1685 481.968 58.6928 478.019 64.2538 478.019H308.746C314.307 478.019 318.832 481.968 318.832 486.822V572.178Z" fill="url(#paint5_linear_134_37)" fill-opacity="0.57"/>
<path d="M245.178 555.374H127.822C125.29 555.374 123.238 557.164 123.238 559.375C123.238 561.585 125.29 563.376 127.822 563.376H245.178C247.71 563.376 249.762 561.585 249.762 559.375C249.762 557.164 247.71 555.374 245.178 555.374Z" fill="url(#paint6_linear_134_37)" fill-opacity="0.57"/>
<path d="M108.262 555.374H98.4827C95.951 555.374 93.8984 557.164 93.8984 559.375C93.8984 561.585 95.951 563.376 98.4827 563.376H108.262C110.794 563.376 112.847 561.585 112.847 559.375C112.847 557.164 110.794 555.374 108.262 555.374Z" fill="url(#paint7_linear_134_37)" fill-opacity="0.57"/>
<path d="M78.9234 555.374H69.1437C66.612 555.374 64.5594 557.164 64.5594 559.375C64.5594 561.585 66.612 563.376 69.1437 563.376H78.9234C81.4551 563.376 83.5076 561.585 83.5076 559.375C83.5076 557.164 81.4551 555.374 78.9234 555.374Z" fill="url(#paint8_linear_134_37)" fill-opacity="0.57"/>
<path d="M303.856 555.374H294.077C291.545 555.374 289.492 557.164 289.492 559.375C289.492 561.585 291.545 563.376 294.077 563.376H303.856C306.388 563.376 308.441 561.585 308.441 559.375C308.441 557.164 306.388 555.374 303.856 555.374Z" fill="url(#paint9_linear_134_37)" fill-opacity="0.57"/>
<path d="M274.517 555.374H264.738C262.206 555.374 260.153 557.164 260.153 559.375C260.153 561.585 262.206 563.376 264.738 563.376H274.517C277.049 563.376 279.101 561.585 279.101 559.375C279.101 557.164 277.049 555.374 274.517 555.374Z" fill="url(#paint10_linear_134_37)" fill-opacity="0.57"/>
<path d="M303.856 538.302H284.297C281.765 538.302 279.713 540.093 279.713 542.303C279.713 544.514 281.765 546.304 284.297 546.304H303.856C306.388 546.304 308.441 544.514 308.441 542.303C308.441 540.093 306.388 538.302 303.856 538.302Z" fill="url(#paint11_linear_134_37)" fill-opacity="0.57"/>
<path d="M269.322 542.303C269.322 540.093 267.269 538.302 264.738 538.302H254.958C252.426 538.302 250.374 540.093 250.374 542.303C250.374 544.514 252.426 546.304 254.958 546.304H264.738C267.269 546.304 269.322 544.514 269.322 542.303Z" fill="url(#paint12_linear_134_37)" fill-opacity="0.57"/>
<path d="M225.619 546.304H235.398C237.93 546.304 239.983 544.514 239.983 542.303C239.983 540.093 237.93 538.302 235.398 538.302H225.619C223.087 538.302 221.035 540.093 221.035 542.303C221.035 544.514 223.087 546.304 225.619 546.304Z" fill="url(#paint13_linear_134_37)" fill-opacity="0.57"/>
<path d="M196.28 546.304H206.059C208.591 546.304 210.644 544.514 210.644 542.303C210.644 540.093 208.591 538.302 206.059 538.302H196.28C193.748 538.302 191.695 540.093 191.695 542.303C191.695 544.514 193.748 546.304 196.28 546.304Z" fill="url(#paint14_linear_134_37)" fill-opacity="0.57"/>
<path d="M166.941 546.304H176.72C179.252 546.304 181.304 544.514 181.304 542.303C181.304 540.093 179.252 538.302 176.72 538.302H166.941C164.409 538.302 162.356 540.093 162.356 542.303C162.356 544.514 164.409 546.304 166.941 546.304Z" fill="url(#paint15_linear_134_37)" fill-opacity="0.57"/>
<path d="M137.602 546.304H147.381C149.913 546.304 151.965 544.514 151.965 542.303C151.965 540.093 149.913 538.302 147.381 538.302H137.602C135.07 538.302 133.017 540.093 133.017 542.303C133.017 544.514 135.07 546.304 137.602 546.304Z" fill="url(#paint16_linear_134_37)" fill-opacity="0.57"/>
<path d="M118.042 538.302H108.262C105.731 538.302 103.678 540.093 103.678 542.303C103.678 544.514 105.731 546.304 108.262 546.304H118.042C120.574 546.304 122.626 544.514 122.626 542.303C122.626 540.093 120.574 538.302 118.042 538.302Z" fill="url(#paint17_linear_134_37)" fill-opacity="0.57"/>
<path d="M88.7031 538.302H69.1437C66.612 538.302 64.5594 540.093 64.5594 542.303C64.5594 544.514 66.612 546.304 69.1437 546.304H88.7031C91.2348 546.304 93.2873 544.514 93.2873 542.303C93.2873 540.093 91.2348 538.302 88.7031 538.302Z" fill="url(#paint18_linear_134_37)" fill-opacity="0.57"/>
<path d="M303.856 504.16H284.297C281.765 504.16 279.713 505.951 279.713 508.161C279.713 510.371 281.765 512.162 284.297 512.162H303.856C306.388 512.162 308.441 510.371 308.441 508.161C308.441 505.951 306.388 504.16 303.856 504.16Z" fill="url(#paint19_linear_134_37)" fill-opacity="0.57"/>
<path d="M254.958 512.162H264.738C267.269 512.162 269.322 510.371 269.322 508.161C269.322 505.951 267.269 504.16 264.738 504.16H254.958C252.426 504.16 250.374 505.951 250.374 508.161C250.374 510.371 252.426 512.162 254.958 512.162Z" fill="url(#paint20_linear_134_37)" fill-opacity="0.57"/>
<path d="M225.619 512.162H235.398C237.93 512.162 239.983 510.371 239.983 508.161C239.983 505.951 237.93 504.16 235.398 504.16H225.619C223.087 504.16 221.035 505.951 221.035 508.161C221.035 510.371 223.087 512.162 225.619 512.162Z" fill="url(#paint21_linear_134_37)" fill-opacity="0.57"/>
<path d="M196.28 512.162H206.059C208.591 512.162 210.644 510.371 210.644 508.161C210.644 505.951 208.591 504.16 206.059 504.16H196.28C193.748 504.16 191.695 505.951 191.695 508.161C191.695 510.371 193.748 512.162 196.28 512.162Z" fill="url(#paint22_linear_134_37)" fill-opacity="0.57"/>
<path d="M166.941 512.162H176.72C179.252 512.162 181.304 510.371 181.304 508.161C181.304 505.951 179.252 504.16 176.72 504.16H166.941C164.409 504.16 162.356 505.951 162.356 508.161C162.356 510.371 164.409 512.162 166.941 512.162Z" fill="url(#paint23_linear_134_37)" fill-opacity="0.57"/>
<path d="M137.602 512.162H147.381C149.913 512.162 151.965 510.371 151.965 508.161C151.965 505.951 149.913 504.16 147.381 504.16H137.602C135.07 504.16 133.017 505.951 133.017 508.161C133.017 510.371 135.07 512.162 137.602 512.162Z" fill="url(#paint24_linear_134_37)" fill-opacity="0.57"/>
<path d="M108.262 512.162H118.042C120.574 512.162 122.626 510.371 122.626 508.161C122.626 505.951 120.574 504.16 118.042 504.16H108.262C105.731 504.16 103.678 505.951 103.678 508.161C103.678 510.371 105.731 512.162 108.262 512.162Z" fill="url(#paint25_linear_134_37)" fill-opacity="0.57"/>
<path d="M69.1437 512.162H88.7031C91.2348 512.162 93.2873 510.371 93.2873 508.161C93.2873 505.951 91.2348 504.16 88.7031 504.16H69.1437C66.612 504.16 64.5594 505.951 64.5594 508.161C64.5594 510.371 66.612 512.162 69.1437 512.162Z" fill="url(#paint26_linear_134_37)" fill-opacity="0.57"/>
<path d="M303.856 521.231H294.077C291.545 521.231 289.492 523.022 289.492 525.232C289.492 527.442 291.545 529.233 294.077 529.233H303.856C306.388 529.233 308.441 527.442 308.441 525.232C308.441 523.022 306.388 521.231 303.856 521.231Z" fill="url(#paint27_linear_134_37)" fill-opacity="0.57"/>
<path d="M274.517 521.231H264.738C262.206 521.231 260.153 523.022 260.153 525.232C260.153 527.442 262.206 529.233 264.738 529.233H274.517C277.049 529.233 279.101 527.442 279.101 525.232C279.101 523.022 277.049 521.231 274.517 521.231Z" fill="url(#paint28_linear_134_37)" fill-opacity="0.57"/>
<path d="M245.178 521.231H235.398C232.867 521.231 230.814 523.022 230.814 525.232C230.814 527.442 232.867 529.233 235.398 529.233H245.178C247.71 529.233 249.762 527.442 249.762 525.232C249.762 523.022 247.71 521.231 245.178 521.231Z" fill="url(#paint29_linear_134_37)" fill-opacity="0.57"/>
<path d="M215.839 521.231H206.059C203.528 521.231 201.475 523.022 201.475 525.232C201.475 527.442 203.528 529.233 206.059 529.233H215.839C218.371 529.233 220.423 527.442 220.423 525.232C220.423 523.022 218.371 521.231 215.839 521.231Z" fill="url(#paint30_linear_134_37)" fill-opacity="0.57"/>
<path d="M186.5 521.231H176.72C174.189 521.231 172.136 523.022 172.136 525.232C172.136 527.442 174.189 529.233 176.72 529.233H186.5C189.032 529.233 191.084 527.442 191.084 525.232C191.084 523.022 189.032 521.231 186.5 521.231Z" fill="url(#paint31_linear_134_37)" fill-opacity="0.57"/>
<path d="M157.161 521.231H147.381C144.85 521.231 142.797 523.022 142.797 525.232C142.797 527.442 144.85 529.233 147.381 529.233H157.161C159.693 529.233 161.745 527.442 161.745 525.232C161.745 523.022 159.693 521.231 157.161 521.231Z" fill="url(#paint32_linear_134_37)" fill-opacity="0.57"/>
<path d="M127.822 521.231H118.042C115.51 521.231 113.458 523.022 113.458 525.232C113.458 527.442 115.51 529.233 118.042 529.233H127.822C130.354 529.233 132.406 527.442 132.406 525.232C132.406 523.022 130.354 521.231 127.822 521.231Z" fill="url(#paint33_linear_134_37)" fill-opacity="0.57"/>
<path d="M69.1437 529.233H98.4828C101.014 529.233 103.067 527.442 103.067 525.232C103.067 523.022 101.014 521.231 98.4828 521.231H69.1437C66.612 521.231 64.5594 523.022 64.5594 525.232C64.5594 527.442 66.612 529.233 69.1437 529.233Z" fill="url(#paint34_linear_134_37)" fill-opacity="0.57"/>
<path d="M303.856 487.088H294.077C291.545 487.088 289.492 488.879 289.492 491.089C289.492 493.3 291.545 495.091 294.077 495.091H303.856C306.388 495.091 308.441 493.3 308.441 491.089C308.441 488.879 306.388 487.088 303.856 487.088Z" fill="url(#paint35_linear_134_37)" fill-opacity="0.57"/>
<path d="M274.517 487.088H264.738C262.206 487.088 260.153 488.879 260.153 491.089C260.153 493.3 262.206 495.091 264.738 495.091H274.517C277.049 495.091 279.101 493.3 279.101 491.089C279.101 488.879 277.049 487.088 274.517 487.088Z" fill="url(#paint36_linear_134_37)" fill-opacity="0.57"/>
<path d="M245.178 487.088H235.398C232.867 487.088 230.814 488.879 230.814 491.089C230.814 493.3 232.867 495.091 235.398 495.091H245.178C247.71 495.091 249.762 493.3 249.762 491.089C249.762 488.879 247.71 487.088 245.178 487.088Z" fill="url(#paint37_linear_134_37)" fill-opacity="0.57"/>
<path d="M206.059 495.091H215.839C218.371 495.091 220.423 493.3 220.423 491.089C220.423 488.879 218.371 487.088 215.839 487.088H206.059C203.528 487.088 201.475 488.879 201.475 491.089C201.475 493.3 203.528 495.091 206.059 495.091Z" fill="url(#paint38_linear_134_37)" fill-opacity="0.57"/>
<path d="M176.72 495.091H186.5C189.032 495.091 191.084 493.3 191.084 491.089C191.084 488.879 189.032 487.088 186.5 487.088H176.72C174.189 487.088 172.136 488.879 172.136 491.089C172.136 493.3 174.189 495.091 176.72 495.091Z" fill="url(#paint39_linear_134_37)" fill-opacity="0.57"/>
<path d="M147.381 495.091H157.161C159.693 495.091 161.745 493.3 161.745 491.089C161.745 488.879 159.693 487.088 157.161 487.088H147.381C144.85 487.088 142.797 488.879 142.797 491.089C142.797 493.3 144.85 495.091 147.381 495.091Z" fill="url(#paint40_linear_134_37)" fill-opacity="0.57"/>
<path d="M118.042 495.091H127.822C130.354 495.091 132.406 493.3 132.406 491.089C132.406 488.879 130.354 487.088 127.822 487.088H118.042C115.51 487.088 113.458 488.879 113.458 491.089C113.458 493.3 115.51 495.091 118.042 495.091Z" fill="url(#paint41_linear_134_37)" fill-opacity="0.57"/>
<path d="M69.1437 495.091H98.4828C101.014 495.091 103.067 493.3 103.067 491.089C103.067 488.879 101.014 487.088 98.4828 487.088H69.1437C66.612 487.088 64.5594 488.879 64.5594 491.089C64.5594 493.3 66.612 495.091 69.1437 495.091Z" fill="url(#paint42_linear_134_37)" fill-opacity="0.57"/>
</g>
<g opacity="0.44" clip-path="url(#clip2_134_37)">
<path d="M1110 74.8501H1104.5C1102.98 74.8501 1101.75 76.2134 1101.75 77.9001C1101.75 79.5867 1102.98 80.9501 1104.5 80.9501H1110C1111.52 80.9501 1112.75 79.5867 1112.75 77.9001C1112.75 76.2134 1111.52 74.8501 1110 74.8501Z" fill="url(#paint43_linear_134_37)" fill-opacity="0.57"/>
<path d="M1093.5 74.8501H1074.25C1072.73 74.8501 1071.5 76.2134 1071.5 77.9001C1071.5 79.5867 1072.73 80.9501 1074.25 80.9501H1093.5C1095.02 80.9501 1096.25 79.5867 1096.25 77.9001C1096.25 76.2134 1095.02 74.8501 1093.5 74.8501Z" fill="url(#paint44_linear_134_37)" fill-opacity="0.57"/>
<path d="M1061.3 75.7346C1060.8 76.311 1060.5 77.1071 1060.5 77.9001C1060.5 78.7236 1060.8 79.4861 1061.3 80.0656C1061.82 80.6146 1062.53 80.9501 1063.25 80.9501C1063.96 80.9501 1064.68 80.6146 1065.2 80.0656C1065.7 79.4861 1066 78.6931 1066 77.9001C1066 77.1071 1065.7 76.311 1065.2 75.7346C1064.18 74.6061 1062.32 74.6061 1061.3 75.7346Z" fill="url(#paint45_linear_134_37)" fill-opacity="0.57"/>
<path d="M1055 166.35C1058.04 166.35 1060.5 163.619 1060.5 160.25C1060.5 156.881 1058.04 154.15 1055 154.15C1051.96 154.15 1049.5 156.881 1049.5 160.25C1049.5 163.619 1051.96 166.35 1055 166.35Z" fill="url(#paint46_linear_134_37)" fill-opacity="0.57"/>
<path d="M1134.75 181.6H1052.25V187.7H1134.75V181.6Z" fill="url(#paint47_linear_134_37)" fill-opacity="0.57"/>
<path d="M1107.25 166.35C1110.29 166.35 1112.75 163.619 1112.75 160.25C1112.75 156.881 1110.29 154.15 1107.25 154.15C1104.21 154.15 1101.75 156.881 1101.75 160.25C1101.75 163.619 1104.21 166.35 1107.25 166.35Z" fill="url(#paint48_linear_134_37)" fill-opacity="0.57"/>
<path d="M1173.25 84C1171.73 84 1170.5 85.3633 1170.5 87.05V99.25H1167.75V97.4505C1167.75 93.397 1164.78 90.1 1161.12 90.1H1145.75V23H1041.25V90.1H1025.88C1022.23 90.1 1019.25 93.397 1019.25 97.4505V99.25H1016.5V87.05C1016.5 85.3633 1015.27 84 1013.75 84C1012.23 84 1011 85.3633 1011 87.05V117.55C1011 119.237 1012.23 120.6 1013.75 120.6C1015.27 120.6 1016.5 119.237 1016.5 117.55V105.35H1019.25V107.149C1019.25 111.203 1022.23 114.5 1025.88 114.5H1027.5V126.7H1016.5V141.95H1013.75V148.05H1016.5H1022H1024.75V141.95H1022V132.8H1027.5V163.3C1027.5 168.97 1031.02 173.704 1035.75 175.067V194.974C1035.75 201.053 1040.21 206 1045.69 206H1141.31C1146.79 206 1151.25 201.053 1151.25 194.974V175.067C1155.98 173.704 1159.5 168.97 1159.5 163.3V114.5H1161.12C1164.78 114.5 1167.75 111.203 1167.75 107.149V105.35H1170.5V117.55C1170.5 119.237 1171.73 120.6 1173.25 120.6C1174.77 120.6 1176 119.237 1176 117.55V87.05C1176 85.3633 1174.77 84 1173.25 84ZM1046.75 29.1H1140.25V90.1H1046.75V29.1ZM1121 108.4C1119.48 108.4 1118.25 109.763 1118.25 111.45V129.75H1112.75V114.5C1112.75 112.813 1111.52 111.45 1110 111.45C1108.48 111.45 1107.25 112.813 1107.25 114.5V129.75H1101.75V117.55C1101.75 115.863 1100.52 114.5 1099 114.5C1097.48 114.5 1096.25 115.863 1096.25 117.55V129.75H1090.75V117.55C1090.75 115.863 1089.52 114.5 1088 114.5C1086.48 114.5 1085.25 115.863 1085.25 117.55V129.75H1079.75V114.5C1079.75 112.813 1078.52 111.45 1077 111.45C1075.48 111.45 1074.25 112.813 1074.25 114.5V129.75H1068.75V111.45C1068.75 109.763 1067.52 108.4 1066 108.4C1064.48 108.4 1063.25 109.763 1063.25 111.45V129.228C1060.35 128.335 1057.92 126.285 1056.47 123.522C1056.31 123.208 1056.14 122.9 1056 122.567C1055.89 122.29 1055.8 122 1055.7 121.713C1055.57 121.308 1055.45 120.893 1055.35 120.469C1055.28 120.133 1055.22 119.798 1055.18 119.459C1055.12 119.029 1055.08 118.59 1055.06 118.145C1055.04 117.818 1055.03 117.489 1055.04 117.163C1055.05 116.723 1055.1 116.296 1055.15 115.869C1055.2 115.519 1055.23 115.168 1055.3 114.82C1055.35 114.552 1055.45 114.305 1055.52 114.042C1055.64 113.585 1055.76 113.124 1055.94 112.679C1056.08 112.325 1056.25 111.999 1056.42 111.667C1056.52 111.462 1056.61 111.246 1056.72 111.047C1056.92 110.706 1057.14 110.395 1057.37 110.081C1057.53 109.852 1057.69 109.623 1057.87 109.406C1058.1 109.126 1058.33 108.857 1058.58 108.601C1058.81 108.366 1059.06 108.15 1059.31 107.936C1059.55 107.732 1059.78 107.512 1060.03 107.329C1060.5 106.991 1061 106.695 1061.51 106.436C1061.73 106.326 1061.96 106.244 1062.19 106.149C1062.59 105.984 1062.99 105.841 1063.41 105.728C1063.62 105.67 1063.84 105.612 1064.05 105.57C1064.68 105.442 1065.33 105.35 1066 105.35H1121C1121.67 105.35 1122.32 105.442 1122.95 105.57C1123.17 105.612 1123.38 105.67 1123.59 105.728C1124.01 105.841 1124.42 105.984 1124.81 106.149C1125.04 106.244 1125.27 106.326 1125.49 106.436C1126.01 106.692 1126.5 106.991 1126.97 107.329C1127.23 107.512 1127.46 107.732 1127.7 107.936C1127.94 108.15 1128.19 108.366 1128.42 108.601C1128.67 108.854 1128.91 109.126 1129.13 109.406C1129.31 109.623 1129.48 109.852 1129.64 110.081C1129.86 110.395 1130.08 110.706 1130.28 111.047C1130.39 111.246 1130.48 111.462 1130.58 111.667C1130.75 111.999 1130.92 112.325 1131.06 112.679C1131.24 113.124 1131.36 113.585 1131.49 114.042C1131.56 114.302 1131.65 114.552 1131.7 114.82C1131.78 115.165 1131.8 115.519 1131.85 115.869C1131.9 116.296 1131.95 116.723 1131.97 117.163C1131.98 117.489 1131.96 117.815 1131.95 118.145C1131.93 118.59 1131.89 119.029 1131.83 119.459C1131.78 119.795 1131.72 120.133 1131.65 120.469C1131.55 120.896 1131.43 121.308 1131.3 121.713C1131.2 122 1131.12 122.293 1131 122.567C1130.87 122.9 1130.7 123.205 1130.53 123.522C1129.08 126.285 1126.65 128.335 1123.75 129.228V111.45C1123.75 109.763 1122.52 108.4 1121 108.4ZM1118.25 160.25C1118.25 166.978 1113.32 172.45 1107.25 172.45C1101.18 172.45 1096.25 166.978 1096.25 160.25C1096.25 153.522 1101.18 148.05 1107.25 148.05C1113.32 148.05 1118.25 153.522 1118.25 160.25ZM1090.75 160.25C1090.75 166.978 1085.82 172.45 1079.75 172.45C1073.68 172.45 1068.75 166.978 1068.75 160.25C1068.75 153.522 1073.68 148.05 1079.75 148.05C1085.82 148.05 1090.75 153.522 1090.75 160.25ZM1044 160.25C1044 153.522 1048.93 148.05 1055 148.05C1061.07 148.05 1066 153.522 1066 160.25C1066 166.978 1061.07 172.45 1055 172.45C1048.93 172.45 1044 166.978 1044 160.25ZM1140.25 188.347C1140.25 191.354 1138.04 193.8 1135.33 193.8H1051.67C1048.96 193.8 1046.75 191.354 1046.75 188.347V180.953C1046.75 177.946 1048.96 175.5 1051.67 175.5H1135.33C1138.04 175.5 1140.25 177.946 1140.25 180.953V188.347ZM1132 172.45C1125.93 172.45 1121 166.978 1121 160.25C1121 153.522 1125.93 148.05 1132 148.05C1138.07 148.05 1143 153.522 1143 160.25C1143 166.978 1138.07 172.45 1132 172.45Z" fill="url(#paint49_linear_134_37)" fill-opacity="0.57"/>
<path d="M1079.75 166.35C1082.79 166.35 1085.25 163.619 1085.25 160.25C1085.25 156.881 1082.79 154.15 1079.75 154.15C1076.71 154.15 1074.25 156.881 1074.25 160.25C1074.25 163.619 1076.71 166.35 1079.75 166.35Z" fill="url(#paint50_linear_134_37)" fill-opacity="0.57"/>
<path d="M1132 166.35C1135.04 166.35 1137.5 163.619 1137.5 160.25C1137.5 156.881 1135.04 154.15 1132 154.15C1128.96 154.15 1126.5 156.881 1126.5 160.25C1126.5 163.619 1128.96 166.35 1132 166.35Z" fill="url(#paint51_linear_134_37)" fill-opacity="0.57"/>
</g>
</g>
<defs>
<linearGradient id="paint0_linear_134_37" x1="-63.757" y1="-34.0071" x2="-63.757" y2="347.166" gradientUnits="userSpaceOnUse">
<stop stop-color="#FF9E0B"/>
<stop offset="1" stop-color="#EC4899"/>
</linearGradient>
<linearGradient id="paint1_linear_134_37" x1="1173" y1="695.827" x2="1173" y2="969.442" gradientUnits="userSpaceOnUse">
<stop stop-color="#FC8F18"/>
<stop offset="1" stop-color="#EC4998"/>
</linearGradient>
<linearGradient id="paint2_linear_134_37" x1="882.5" y1="530" x2="882.5" y2="919" gradientUnits="userSpaceOnUse">
<stop stop-color="#FF9E0B"/>
<stop offset="1" stop-color="#9C67E7"/>
</linearGradient>
<linearGradient id="paint3_linear_134_37" x1="491" y1="30" x2="491" y2="162" gradientUnits="userSpaceOnUse">
<stop stop-color="#FF9E0B"/>
<stop offset="1" stop-color="#DA46EB"/>
</linearGradient>
<linearGradient id="paint4_linear_134_37" x1="599.5" y1="244" x2="599.5" y2="399" gradientUnits="userSpaceOnUse">
<stop stop-color="#FF9E0B"/>
<stop offset="0.49" stop-color="#F24E52"/>
</linearGradient>
<linearGradient id="paint5_linear_134_37" x1="186.5" y1="470.017" x2="186.5" y2="588.983" gradientUnits="userSpaceOnUse">
<stop stop-color="#F24E52"/>
<stop offset="1" stop-color="#EC4898"/>
</linearGradient>
<linearGradient id="paint6_linear_134_37" x1="186.5" y1="555.374" x2="186.5" y2="563.376" gradientUnits="userSpaceOnUse">
<stop stop-color="#F24E52"/>
<stop offset="1" stop-color="#EC4898"/>
</linearGradient>
<linearGradient id="paint7_linear_134_37" x1="103.373" y1="555.374" x2="103.373" y2="563.376" gradientUnits="userSpaceOnUse">
<stop stop-color="#F24E52"/>
<stop offset="1" stop-color="#EC4898"/>
</linearGradient>
<linearGradient id="paint8_linear_134_37" x1="74.0335" y1="555.374" x2="74.0335" y2="563.376" gradientUnits="userSpaceOnUse">
<stop stop-color="#F24E52"/>
<stop offset="1" stop-color="#EC4898"/>
</linearGradient>
<linearGradient id="paint9_linear_134_37" x1="298.967" y1="555.374" x2="298.967" y2="563.376" gradientUnits="userSpaceOnUse">
<stop stop-color="#F24E52"/>
<stop offset="1" stop-color="#EC4898"/>
</linearGradient>
<linearGradient id="paint10_linear_134_37" x1="269.627" y1="555.374" x2="269.627" y2="563.376" gradientUnits="userSpaceOnUse">
<stop stop-color="#F24E52"/>
<stop offset="1" stop-color="#EC4898"/>
</linearGradient>
<linearGradient id="paint11_linear_134_37" x1="294.077" y1="538.302" x2="294.077" y2="546.304" gradientUnits="userSpaceOnUse">
<stop stop-color="#F24E52"/>
<stop offset="1" stop-color="#EC4898"/>
</linearGradient>
<linearGradient id="paint12_linear_134_37" x1="259.848" y1="538.302" x2="259.848" y2="546.304" gradientUnits="userSpaceOnUse">
<stop stop-color="#F24E52"/>
<stop offset="1" stop-color="#EC4898"/>
</linearGradient>
<linearGradient id="paint13_linear_134_37" x1="230.509" y1="538.302" x2="230.509" y2="546.304" gradientUnits="userSpaceOnUse">
<stop stop-color="#F24E52"/>
<stop offset="1" stop-color="#EC4898"/>
</linearGradient>
<linearGradient id="paint14_linear_134_37" x1="201.17" y1="538.302" x2="201.17" y2="546.304" gradientUnits="userSpaceOnUse">
<stop stop-color="#F24E52"/>
<stop offset="1" stop-color="#EC4898"/>
</linearGradient>
<linearGradient id="paint15_linear_134_37" x1="171.83" y1="538.302" x2="171.83" y2="546.304" gradientUnits="userSpaceOnUse">
<stop stop-color="#F24E52"/>
<stop offset="1" stop-color="#EC4898"/>
</linearGradient>
<linearGradient id="paint16_linear_134_37" x1="142.491" y1="538.302" x2="142.491" y2="546.304" gradientUnits="userSpaceOnUse">
<stop stop-color="#F24E52"/>
<stop offset="1" stop-color="#EC4898"/>
</linearGradient>
<linearGradient id="paint17_linear_134_37" x1="113.152" y1="538.302" x2="113.152" y2="546.304" gradientUnits="userSpaceOnUse">
<stop stop-color="#F24E52"/>
<stop offset="1" stop-color="#EC4898"/>
</linearGradient>
<linearGradient id="paint18_linear_134_37" x1="78.9234" y1="538.302" x2="78.9234" y2="546.304" gradientUnits="userSpaceOnUse">
<stop stop-color="#F24E52"/>
<stop offset="1" stop-color="#EC4898"/>
</linearGradient>
<linearGradient id="paint19_linear_134_37" x1="294.077" y1="504.16" x2="294.077" y2="512.162" gradientUnits="userSpaceOnUse">
<stop stop-color="#F24E52"/>
<stop offset="1" stop-color="#EC4898"/>
</linearGradient>
<linearGradient id="paint20_linear_134_37" x1="259.848" y1="504.16" x2="259.848" y2="512.162" gradientUnits="userSpaceOnUse">
<stop stop-color="#F24E52"/>
<stop offset="1" stop-color="#EC4898"/>
</linearGradient>
<linearGradient id="paint21_linear_134_37" x1="230.509" y1="504.16" x2="230.509" y2="512.162" gradientUnits="userSpaceOnUse">
<stop stop-color="#F24E52"/>
<stop offset="1" stop-color="#EC4898"/>
</linearGradient>
<linearGradient id="paint22_linear_134_37" x1="201.17" y1="504.16" x2="201.17" y2="512.162" gradientUnits="userSpaceOnUse">
<stop stop-color="#F24E52"/>
<stop offset="1" stop-color="#EC4898"/>
</linearGradient>
<linearGradient id="paint23_linear_134_37" x1="171.83" y1="504.16" x2="171.83" y2="512.162" gradientUnits="userSpaceOnUse">
<stop stop-color="#F24E52"/>
<stop offset="1" stop-color="#EC4898"/>
</linearGradient>
<linearGradient id="paint24_linear_134_37" x1="142.491" y1="504.16" x2="142.491" y2="512.162" gradientUnits="userSpaceOnUse">
<stop stop-color="#F24E52"/>
<stop offset="1" stop-color="#EC4898"/>
</linearGradient>
<linearGradient id="paint25_linear_134_37" x1="113.152" y1="504.16" x2="113.152" y2="512.162" gradientUnits="userSpaceOnUse">
<stop stop-color="#F24E52"/>
<stop offset="1" stop-color="#EC4898"/>
</linearGradient>
<linearGradient id="paint26_linear_134_37" x1="78.9234" y1="504.16" x2="78.9234" y2="512.162" gradientUnits="userSpaceOnUse">
<stop stop-color="#F24E52"/>
<stop offset="1" stop-color="#EC4898"/>
</linearGradient>
<linearGradient id="paint27_linear_134_37" x1="298.967" y1="521.231" x2="298.967" y2="529.233" gradientUnits="userSpaceOnUse">
<stop stop-color="#F24E52"/>
<stop offset="1" stop-color="#EC4898"/>
</linearGradient>
<linearGradient id="paint28_linear_134_37" x1="269.627" y1="521.231" x2="269.627" y2="529.233" gradientUnits="userSpaceOnUse">
<stop stop-color="#F24E52"/>
<stop offset="1" stop-color="#EC4898"/>
</linearGradient>
<linearGradient id="paint29_linear_134_37" x1="240.288" y1="521.231" x2="240.288" y2="529.233" gradientUnits="userSpaceOnUse">
<stop stop-color="#F24E52"/>
<stop offset="1" stop-color="#EC4898"/>
</linearGradient>
<linearGradient id="paint30_linear_134_37" x1="210.949" y1="521.231" x2="210.949" y2="529.233" gradientUnits="userSpaceOnUse">
<stop stop-color="#F24E52"/>
<stop offset="1" stop-color="#EC4898"/>
</linearGradient>
<linearGradient id="paint31_linear_134_37" x1="181.61" y1="521.231" x2="181.61" y2="529.233" gradientUnits="userSpaceOnUse">
<stop stop-color="#F24E52"/>
<stop offset="1" stop-color="#EC4898"/>
</linearGradient>
<linearGradient id="paint32_linear_134_37" x1="152.271" y1="521.231" x2="152.271" y2="529.233" gradientUnits="userSpaceOnUse">
<stop stop-color="#F24E52"/>
<stop offset="1" stop-color="#EC4898"/>
</linearGradient>
<linearGradient id="paint33_linear_134_37" x1="122.932" y1="521.231" x2="122.932" y2="529.233" gradientUnits="userSpaceOnUse">
<stop stop-color="#F24E52"/>
<stop offset="1" stop-color="#EC4898"/>
</linearGradient>
<linearGradient id="paint34_linear_134_37" x1="83.8132" y1="521.231" x2="83.8132" y2="529.233" gradientUnits="userSpaceOnUse">
<stop stop-color="#F24E52"/>
<stop offset="1" stop-color="#EC4898"/>
</linearGradient>
<linearGradient id="paint35_linear_134_37" x1="298.967" y1="487.088" x2="298.967" y2="495.091" gradientUnits="userSpaceOnUse">
<stop stop-color="#F24E52"/>
<stop offset="1" stop-color="#EC4898"/>
</linearGradient>
<linearGradient id="paint36_linear_134_37" x1="269.627" y1="487.088" x2="269.627" y2="495.091" gradientUnits="userSpaceOnUse">
<stop stop-color="#F24E52"/>
<stop offset="1" stop-color="#EC4898"/>
</linearGradient>
<linearGradient id="paint37_linear_134_37" x1="240.288" y1="487.088" x2="240.288" y2="495.091" gradientUnits="userSpaceOnUse">
<stop stop-color="#F24E52"/>
<stop offset="1" stop-color="#EC4898"/>
</linearGradient>
<linearGradient id="paint38_linear_134_37" x1="210.949" y1="487.088" x2="210.949" y2="495.091" gradientUnits="userSpaceOnUse">
<stop stop-color="#F24E52"/>
<stop offset="1" stop-color="#EC4898"/>
</linearGradient>
<linearGradient id="paint39_linear_134_37" x1="181.61" y1="487.088" x2="181.61" y2="495.091" gradientUnits="userSpaceOnUse">
<stop stop-color="#F24E52"/>
<stop offset="1" stop-color="#EC4898"/>
</linearGradient>
<linearGradient id="paint40_linear_134_37" x1="152.271" y1="487.088" x2="152.271" y2="495.091" gradientUnits="userSpaceOnUse">
<stop stop-color="#F24E52"/>
<stop offset="1" stop-color="#EC4898"/>
</linearGradient>
<linearGradient id="paint41_linear_134_37" x1="122.932" y1="487.088" x2="122.932" y2="495.091" gradientUnits="userSpaceOnUse">
<stop stop-color="#F24E52"/>
<stop offset="1" stop-color="#EC4898"/>
</linearGradient>
<linearGradient id="paint42_linear_134_37" x1="83.8132" y1="487.088" x2="83.8132" y2="495.091" gradientUnits="userSpaceOnUse">
<stop stop-color="#F24E52"/>
<stop offset="1" stop-color="#EC4898"/>
</linearGradient>
<linearGradient id="paint43_linear_134_37" x1="1107.25" y1="74.8501" x2="1107.25" y2="80.9501" gradientUnits="userSpaceOnUse">
<stop stop-color="#EC4898"/>
<stop offset="1" stop-color="#F6683B"/>
</linearGradient>
<linearGradient id="paint44_linear_134_37" x1="1083.88" y1="74.8501" x2="1083.88" y2="80.9501" gradientUnits="userSpaceOnUse">
<stop stop-color="#EC4898"/>
<stop offset="1" stop-color="#F6683B"/>
</linearGradient>
<linearGradient id="paint45_linear_134_37" x1="1063.25" y1="74.8882" x2="1063.25" y2="80.9501" gradientUnits="userSpaceOnUse">
<stop stop-color="#EC4898"/>
<stop offset="1" stop-color="#F6683B"/>
</linearGradient>
<linearGradient id="paint46_linear_134_37" x1="1055" y1="154.15" x2="1055" y2="166.35" gradientUnits="userSpaceOnUse">
<stop stop-color="#EC4898"/>
<stop offset="1" stop-color="#F6683B"/>
</linearGradient>
<linearGradient id="paint47_linear_134_37" x1="1093.5" y1="181.6" x2="1093.5" y2="187.7" gradientUnits="userSpaceOnUse">
<stop stop-color="#EC4898"/>
<stop offset="1" stop-color="#F6683B"/>
</linearGradient>
<linearGradient id="paint48_linear_134_37" x1="1107.25" y1="154.15" x2="1107.25" y2="166.35" gradientUnits="userSpaceOnUse">
<stop stop-color="#EC4898"/>
<stop offset="1" stop-color="#F6683B"/>
</linearGradient>
<linearGradient id="paint49_linear_134_37" x1="1093.5" y1="23" x2="1093.5" y2="206" gradientUnits="userSpaceOnUse">
<stop stop-color="#EC4898"/>
<stop offset="1" stop-color="#F6683B"/>
</linearGradient>
<linearGradient id="paint50_linear_134_37" x1="1079.75" y1="154.15" x2="1079.75" y2="166.35" gradientUnits="userSpaceOnUse">
<stop stop-color="#EC4898"/>
<stop offset="1" stop-color="#F6683B"/>
</linearGradient>
<linearGradient id="paint51_linear_134_37" x1="1132" y1="154.15" x2="1132" y2="166.35" gradientUnits="userSpaceOnUse">
<stop stop-color="#EC4898"/>
<stop offset="1" stop-color="#F6683B"/>
</linearGradient>
<clipPath id="clip0_134_37">
<rect width="1200" height="630" fill="white"/>
</clipPath>
<clipPath id="clip1_134_37">
<rect width="283" height="247" fill="white" transform="translate(45 406)"/>
</clipPath>
<clipPath id="clip2_134_37">
<rect width="165" height="183" fill="white" transform="translate(1011 23)"/>
</clipPath>
</defs>
</svg>
