<svg width="1200" height="630" viewBox="0 0 1200 630" fill="none" xmlns="http://www.w3.org/2000/svg">
<g clip-path="url(#clip0_148_16)">
<rect width="1200" height="630" fill="black"/>
<rect x="-427.809" y="-32.4841" width="729.486" height="376.173" transform="rotate(-19.4848 -427.809 -32.4841)" stroke="url(#paint0_linear_148_16)" stroke-width="5"/>
<rect x="883" y="695.827" width="580" height="273.616" transform="rotate(-35.26 883 695.827)" fill="url(#paint1_linear_148_16)"/>
<circle cx="882.5" cy="724.5" r="193" stroke="url(#paint2_linear_148_16)" stroke-width="3"/>
<path opacity="0.49" d="M415 58.3636C414.121 58.3636 413.367 58.0568 412.739 57.4432C412.117 56.822 411.811 56.0682 411.818 55.1818C411.811 54.3182 412.117 53.5795 412.739 52.9659C413.367 52.3523 414.121 52.0455 415 52.0455C415.833 52.0455 416.568 52.3523 417.205 52.9659C417.848 53.5795 418.174 54.3182 418.182 55.1818C418.174 55.7727 418.019 56.3106 417.716 56.7955C417.42 57.2727 417.034 57.6553 416.557 57.9432C416.08 58.2235 415.561 58.3636 415 58.3636ZM459.003 58.3636C458.124 58.3636 457.37 58.0568 456.741 57.4432C456.12 56.822 455.813 56.0682 455.821 55.1818C455.813 54.3182 456.12 53.5795 456.741 52.9659C457.37 52.3523 458.124 52.0455 459.003 52.0455C459.836 52.0455 460.571 52.3523 461.207 52.9659C461.851 53.5795 462.177 54.3182 462.184 55.1818C462.177 55.7727 462.021 56.3106 461.718 56.7955C461.423 57.2727 461.037 57.6553 460.559 57.9432C460.082 58.2235 459.563 58.3636 459.003 58.3636ZM503.005 58.3636C502.126 58.3636 501.372 58.0568 500.744 57.4432C500.122 56.822 499.816 56.0682 499.823 55.1818C499.816 54.3182 500.122 53.5795 500.744 52.9659C501.372 52.3523 502.126 52.0455 503.005 52.0455C503.838 52.0455 504.573 52.3523 505.21 52.9659C505.853 53.5795 506.179 54.3182 506.187 55.1818C506.179 55.7727 506.024 56.3106 505.721 56.7955C505.425 57.2727 505.039 57.6553 504.562 57.9432C504.085 58.2235 503.566 58.3636 503.005 58.3636ZM547.008 58.3636C546.129 58.3636 545.375 58.0568 544.746 57.4432C544.125 56.822 543.818 56.0682 543.826 55.1818C543.818 54.3182 544.125 53.5795 544.746 52.9659C545.375 52.3523 546.129 52.0455 547.008 52.0455C547.841 52.0455 548.576 52.3523 549.212 52.9659C549.856 53.5795 550.182 54.3182 550.189 55.1818C550.182 55.7727 550.026 56.3106 549.723 56.7955C549.428 57.2727 549.042 57.6553 548.564 57.9432C548.087 58.2235 547.568 58.3636 547.008 58.3636ZM415 91.3636C414.121 91.3636 413.367 91.0568 412.739 90.4432C412.117 89.822 411.811 89.0682 411.818 88.1818C411.811 87.3182 412.117 86.5795 412.739 85.9659C413.367 85.3523 414.121 85.0455 415 85.0455C415.833 85.0455 416.568 85.3523 417.205 85.9659C417.848 86.5795 418.174 87.3182 418.182 88.1818C418.174 88.7727 418.019 89.3106 417.716 89.7955C417.42 90.2727 417.034 90.6553 416.557 90.9432C416.08 91.2235 415.561 91.3636 415 91.3636ZM459.003 91.3636C458.124 91.3636 457.37 91.0568 456.741 90.4432C456.12 89.822 455.813 89.0682 455.821 88.1818C455.813 87.3182 456.12 86.5795 456.741 85.9659C457.37 85.3523 458.124 85.0455 459.003 85.0455C459.836 85.0455 460.571 85.3523 461.207 85.9659C461.851 86.5795 462.177 87.3182 462.184 88.1818C462.177 88.7727 462.021 89.3106 461.718 89.7955C461.423 90.2727 461.037 90.6553 460.559 90.9432C460.082 91.2235 459.563 91.3636 459.003 91.3636ZM503.005 91.3636C502.126 91.3636 501.372 91.0568 500.744 90.4432C500.122 89.822 499.816 89.0682 499.823 88.1818C499.816 87.3182 500.122 86.5795 500.744 85.9659C501.372 85.3523 502.126 85.0455 503.005 85.0455C503.838 85.0455 504.573 85.3523 505.21 85.9659C505.853 86.5795 506.179 87.3182 506.187 88.1818C506.179 88.7727 506.024 89.3106 505.721 89.7955C505.425 90.2727 505.039 90.6553 504.562 90.9432C504.085 91.2235 503.566 91.3636 503.005 91.3636ZM547.008 91.3636C546.129 91.3636 545.375 91.0568 544.746 90.4432C544.125 89.822 543.818 89.0682 543.826 88.1818C543.818 87.3182 544.125 86.5795 544.746 85.9659C545.375 85.3523 546.129 85.0455 547.008 85.0455C547.841 85.0455 548.576 85.3523 549.212 85.9659C549.856 86.5795 550.182 87.3182 550.189 88.1818C550.182 88.7727 550.026 89.3106 549.723 89.7955C549.428 90.2727 549.042 90.6553 548.564 90.9432C548.087 91.2235 547.568 91.3636 547.008 91.3636ZM415 124.364C414.121 124.364 413.367 124.057 412.739 123.443C412.117 122.822 411.811 122.068 411.818 121.182C411.811 120.318 412.117 119.58 412.739 118.966C413.367 118.352 414.121 118.045 415 118.045C415.833 118.045 416.568 118.352 417.205 118.966C417.848 119.58 418.174 120.318 418.182 121.182C418.174 121.773 418.019 122.311 417.716 122.795C417.42 123.273 417.034 123.655 416.557 123.943C416.08 124.223 415.561 124.364 415 124.364ZM459.003 124.364C458.124 124.364 457.37 124.057 456.741 123.443C456.12 122.822 455.813 122.068 455.821 121.182C455.813 120.318 456.12 119.58 456.741 118.966C457.37 118.352 458.124 118.045 459.003 118.045C459.836 118.045 460.571 118.352 461.207 118.966C461.851 119.58 462.177 120.318 462.184 121.182C462.177 121.773 462.021 122.311 461.718 122.795C461.423 123.273 461.037 123.655 460.559 123.943C460.082 124.223 459.563 124.364 459.003 124.364ZM503.005 124.364C502.126 124.364 501.372 124.057 500.744 123.443C500.122 122.822 499.816 122.068 499.823 121.182C499.816 120.318 500.122 119.58 500.744 118.966C501.372 118.352 502.126 118.045 503.005 118.045C503.838 118.045 504.573 118.352 505.21 118.966C505.853 119.58 506.179 120.318 506.187 121.182C506.179 121.773 506.024 122.311 505.721 122.795C505.425 123.273 505.039 123.655 504.562 123.943C504.085 124.223 503.566 124.364 503.005 124.364ZM547.008 124.364C546.129 124.364 545.375 124.057 544.746 123.443C544.125 122.822 543.818 122.068 543.826 121.182C543.818 120.318 544.125 119.58 544.746 118.966C545.375 118.352 546.129 118.045 547.008 118.045C547.841 118.045 548.576 118.352 549.212 118.966C549.856 119.58 550.182 120.318 550.189 121.182C550.182 121.773 550.026 122.311 549.723 122.795C549.428 123.273 549.042 123.655 548.564 123.943C548.087 124.223 547.568 124.364 547.008 124.364ZM415 157.364C414.121 157.364 413.367 157.057 412.739 156.443C412.117 155.822 411.811 155.068 411.818 154.182C411.811 153.318 412.117 152.58 412.739 151.966C413.367 151.352 414.121 151.045 415 151.045C415.833 151.045 416.568 151.352 417.205 151.966C417.848 152.58 418.174 153.318 418.182 154.182C418.174 154.773 418.019 155.311 417.716 155.795C417.42 156.273 417.034 156.655 416.557 156.943C416.08 157.223 415.561 157.364 415 157.364ZM459.003 157.364C458.124 157.364 457.37 157.057 456.741 156.443C456.12 155.822 455.813 155.068 455.821 154.182C455.813 153.318 456.12 152.58 456.741 151.966C457.37 151.352 458.124 151.045 459.003 151.045C459.836 151.045 460.571 151.352 461.207 151.966C461.851 152.58 462.177 153.318 462.184 154.182C462.177 154.773 462.021 155.311 461.718 155.795C461.423 156.273 461.037 156.655 460.559 156.943C460.082 157.223 459.563 157.364 459.003 157.364ZM503.005 157.364C502.126 157.364 501.372 157.057 500.744 156.443C500.122 155.822 499.816 155.068 499.823 154.182C499.816 153.318 500.122 152.58 500.744 151.966C501.372 151.352 502.126 151.045 503.005 151.045C503.838 151.045 504.573 151.352 505.21 151.966C505.853 152.58 506.179 153.318 506.187 154.182C506.179 154.773 506.024 155.311 505.721 155.795C505.425 156.273 505.039 156.655 504.562 156.943C504.085 157.223 503.566 157.364 503.005 157.364ZM547.008 157.364C546.129 157.364 545.375 157.057 544.746 156.443C544.125 155.822 543.818 155.068 543.826 154.182C543.818 153.318 544.125 152.58 544.746 151.966C545.375 151.352 546.129 151.045 547.008 151.045C547.841 151.045 548.576 151.352 549.212 151.966C549.856 152.58 550.182 153.318 550.189 154.182C550.182 154.773 550.026 155.311 549.723 155.795C549.428 156.273 549.042 156.655 548.564 156.943C548.087 157.223 547.568 157.364 547.008 157.364Z" fill="url(#paint3_linear_148_16)"/>
<mask id="path-5-outside-1_148_16" maskUnits="userSpaceOnUse" x="125" y="273" width="924" height="85" fill="black">
<rect fill="white" x="125" y="273" width="924" height="85"/>
<path d="M173.727 279.273H193.472V325.864C193.472 331.403 192.146 336.197 189.494 340.246C186.866 344.27 183.197 347.384 178.486 349.585C173.775 351.763 168.306 352.852 162.08 352.852C155.806 352.852 150.313 351.763 145.602 349.585C140.891 347.384 137.222 344.27 134.594 340.246C131.99 336.197 130.688 331.403 130.688 325.864V279.273H150.432V324.159C150.432 326.408 150.929 328.42 151.923 330.196C152.918 331.948 154.291 333.321 156.043 334.315C157.818 335.31 159.83 335.807 162.08 335.807C164.352 335.807 166.365 335.31 168.116 334.315C169.868 333.321 171.241 331.948 172.236 330.196C173.23 328.42 173.727 326.408 173.727 324.159V279.273ZM265.782 279.273V352H249.304L223.026 313.79H222.6V352H202.855V279.273H219.617L245.469 317.341H246.037V279.273H265.782ZM275.121 352V279.273H326.257V295.182H294.865V307.682H323.132V323.591H294.865V352H275.121ZM353.264 279.273V352H333.52V279.273H353.264ZM425.547 279.273V352H409.07L382.792 313.79H382.365V352H362.621V279.273H379.382L405.235 317.341H405.803V279.273H425.547ZM454.631 279.273V352H434.887V279.273H454.631ZM503.193 302C503.003 299.633 502.116 297.786 500.529 296.46C498.967 295.134 496.588 294.472 493.392 294.472C491.356 294.472 489.687 294.72 488.385 295.217C487.106 295.691 486.159 296.342 485.544 297.17C484.928 297.999 484.609 298.946 484.585 300.011C484.538 300.887 484.691 301.68 485.047 302.391C485.425 303.077 486.017 303.705 486.822 304.273C487.627 304.817 488.657 305.314 489.912 305.764C491.166 306.214 492.658 306.616 494.386 306.972L500.352 308.25C504.377 309.102 507.821 310.227 510.686 311.624C513.55 313.02 515.894 314.666 517.717 316.56C519.54 318.43 520.877 320.537 521.73 322.881C522.606 325.224 523.056 327.781 523.079 330.551C523.056 335.333 521.86 339.382 519.493 342.696C517.125 346.01 513.74 348.532 509.336 350.26C504.957 351.988 499.689 352.852 493.534 352.852C487.213 352.852 481.697 351.917 476.985 350.047C472.298 348.177 468.652 345.3 466.048 341.418C463.467 337.511 462.165 332.516 462.142 326.432H480.892C481.01 328.657 481.566 330.527 482.561 332.043C483.555 333.558 484.952 334.706 486.751 335.487C488.574 336.268 490.74 336.659 493.25 336.659C495.357 336.659 497.12 336.399 498.541 335.878C499.961 335.357 501.038 334.635 501.772 333.712C502.506 332.788 502.885 331.735 502.909 330.551C502.885 329.438 502.518 328.468 501.808 327.639C501.121 326.787 499.985 326.029 498.399 325.366C496.813 324.68 494.67 324.041 491.971 323.449L484.727 321.886C478.288 320.49 473.209 318.158 469.493 314.891C465.799 311.6 463.965 307.114 463.988 301.432C463.965 296.815 465.196 292.779 467.681 289.322C470.191 285.842 473.659 283.132 478.086 281.19C482.537 279.249 487.639 278.278 493.392 278.278C499.263 278.278 504.341 279.261 508.626 281.226C512.911 283.191 516.214 285.961 518.534 289.536C520.877 293.087 522.061 297.241 522.085 302H503.193ZM530.59 352V279.273H550.334V307.682H576.471V279.273H596.215V352H576.471V323.591H550.334V352H530.59ZM605.59 352V279.273H658.005V295.182H625.334V307.682H655.306V323.591H625.334V336.091H657.863V352H605.59ZM695.78 352H667.797V279.273H695.496C702.977 279.273 709.44 280.729 714.885 283.641C720.354 286.529 724.568 290.696 727.527 296.141C730.51 301.562 732.001 308.061 732.001 315.636C732.001 323.212 730.522 329.723 727.562 335.168C724.603 340.589 720.413 344.756 714.991 347.668C709.57 350.556 703.166 352 695.78 352ZM687.541 335.239H695.07C698.668 335.239 701.734 334.659 704.267 333.499C706.824 332.339 708.765 330.338 710.091 327.497C711.44 324.656 712.115 320.703 712.115 315.636C712.115 310.57 711.429 306.616 710.055 303.776C708.706 300.935 706.717 298.934 704.089 297.774C701.485 296.614 698.289 296.034 694.501 296.034H687.541V335.239ZM789.042 352H761.059V279.273H788.757C796.239 279.273 802.702 280.729 808.147 283.641C813.615 286.529 817.829 290.696 820.789 296.141C823.772 301.562 825.263 308.061 825.263 315.636C825.263 323.212 823.784 329.723 820.824 335.168C817.865 340.589 813.675 344.756 808.253 347.668C802.832 350.556 796.428 352 789.042 352ZM780.803 335.239H788.331C791.93 335.239 794.996 334.659 797.529 333.499C800.086 332.339 802.027 330.338 803.353 327.497C804.702 324.656 805.377 320.703 805.377 315.636C805.377 310.57 804.69 306.616 803.317 303.776C801.968 300.935 799.979 298.934 797.351 297.774C794.747 296.614 791.551 296.034 787.763 296.034H780.803V335.239ZM904.853 315.636C904.853 323.733 903.279 330.563 900.13 336.126C896.981 341.666 892.732 345.868 887.381 348.733C882.031 351.574 876.065 352.994 869.484 352.994C862.855 352.994 856.865 351.562 851.515 348.697C846.188 345.809 841.951 341.595 838.802 336.055C835.677 330.492 834.114 323.686 834.114 315.636C834.114 307.54 835.677 300.722 838.802 295.182C841.951 289.618 846.188 285.416 851.515 282.575C856.865 279.711 862.855 278.278 869.484 278.278C876.065 278.278 882.031 279.711 887.381 282.575C892.732 285.416 896.981 289.618 900.13 295.182C903.279 300.722 904.853 307.54 904.853 315.636ZM884.54 315.636C884.54 311.28 883.96 307.611 882.8 304.628C881.664 301.621 879.971 299.348 877.722 297.81C875.497 296.247 872.751 295.466 869.484 295.466C866.217 295.466 863.459 296.247 861.21 297.81C858.984 299.348 857.291 301.621 856.131 304.628C854.995 307.611 854.427 311.28 854.427 315.636C854.427 319.992 854.995 323.674 856.131 326.68C857.291 329.663 858.984 331.936 861.21 333.499C863.459 335.037 866.217 335.807 869.484 335.807C872.751 335.807 875.497 335.037 877.722 333.499C879.971 331.936 881.664 329.663 882.8 326.68C883.96 323.674 884.54 319.992 884.54 315.636ZM943.96 279.273H963.42V329.131C963.396 333.866 962.201 338.032 959.833 341.631C957.49 345.205 954.246 347.999 950.103 350.011C945.984 352 941.237 352.994 935.863 352.994C931.199 352.994 926.938 352.189 923.079 350.58C919.22 348.946 916.143 346.389 913.846 342.909C911.55 339.405 910.413 334.86 910.437 329.273H930.181C930.252 331.096 930.56 332.634 931.105 333.889C931.673 335.144 932.454 336.091 933.449 336.73C934.467 337.346 935.698 337.653 937.142 337.653C938.609 337.653 939.841 337.334 940.835 336.695C941.853 336.055 942.622 335.108 943.143 333.854C943.664 332.575 943.936 331.001 943.96 329.131V279.273ZM1043.23 315.636C1043.23 323.733 1041.66 330.563 1038.51 336.126C1035.36 341.666 1031.11 345.868 1025.76 348.733C1020.41 351.574 1014.44 352.994 1007.86 352.994C1001.23 352.994 995.244 351.562 989.894 348.697C984.567 345.809 980.329 341.595 977.181 336.055C974.056 330.492 972.493 323.686 972.493 315.636C972.493 307.54 974.056 300.722 977.181 295.182C980.329 289.618 984.567 285.416 989.894 282.575C995.244 279.711 1001.23 278.278 1007.86 278.278C1014.44 278.278 1020.41 279.711 1025.76 282.575C1031.11 285.416 1035.36 289.618 1038.51 295.182C1041.66 300.722 1043.23 307.54 1043.23 315.636ZM1022.92 315.636C1022.92 311.28 1022.34 307.611 1021.18 304.628C1020.04 301.621 1018.35 299.348 1016.1 297.81C1013.88 296.247 1011.13 295.466 1007.86 295.466C1004.6 295.466 1001.84 296.247 999.588 297.81C997.363 299.348 995.67 301.621 994.51 304.628C993.374 307.611 992.806 311.28 992.806 315.636C992.806 319.992 993.374 323.674 994.51 326.68C995.67 329.663 997.363 331.936 999.588 333.499C1001.84 335.037 1004.6 335.807 1007.86 335.807C1011.13 335.807 1013.88 335.037 1016.1 333.499C1018.35 331.936 1020.04 329.663 1021.18 326.68C1022.34 323.674 1022.92 319.992 1022.92 315.636Z"/>
</mask>
<path d="M173.727 279.273V274.273H168.727V279.273H173.727ZM193.472 279.273H198.472V274.273H193.472V279.273ZM189.494 340.246L185.312 337.506L185.308 337.512L189.494 340.246ZM178.486 349.585L180.584 354.124L180.593 354.119L180.603 354.115L178.486 349.585ZM145.602 349.585L143.485 354.115L143.495 354.119L143.504 354.124L145.602 349.585ZM134.594 340.246L130.389 342.951L130.398 342.965L130.407 342.979L134.594 340.246ZM130.688 279.273V274.273H125.688V279.273H130.688ZM150.432 279.273H155.432V274.273H150.432V279.273ZM151.923 330.196L147.561 332.639L147.568 332.652L147.575 332.664L151.923 330.196ZM156.043 334.315L153.575 338.664L153.587 338.671L153.6 338.678L156.043 334.315ZM168.116 334.315L170.585 338.664L170.585 338.664L168.116 334.315ZM172.236 330.196L176.584 332.664L176.591 332.652L176.598 332.639L172.236 330.196ZM173.727 284.273H193.472V274.273H173.727V284.273ZM188.472 279.273V325.864H198.472V279.273H188.472ZM188.472 325.864C188.472 330.575 187.356 334.385 185.312 337.506L193.677 342.985C196.936 338.01 198.472 332.232 198.472 325.864H188.472ZM185.308 337.512C183.231 340.693 180.308 343.215 176.369 345.055L180.603 354.115C186.086 351.553 190.502 347.848 193.681 342.979L185.308 337.512ZM176.388 345.047C172.452 346.866 167.724 347.852 162.08 347.852V357.852C168.888 357.852 175.097 356.66 180.584 354.124L176.388 345.047ZM162.08 347.852C156.382 347.852 151.631 346.864 147.7 345.047L143.504 354.124C148.996 356.662 155.23 357.852 162.08 357.852V347.852ZM147.719 345.055C143.78 343.215 140.857 340.693 138.78 337.512L130.407 342.979C133.586 347.848 138.002 351.553 143.485 354.115L147.719 345.055ZM138.799 337.541C136.788 334.415 135.688 330.592 135.688 325.864H125.688C125.688 332.214 127.191 337.98 130.389 342.951L138.799 337.541ZM135.688 325.864V279.273H125.688V325.864H135.688ZM130.688 284.273H150.432V274.273H130.688V284.273ZM145.432 279.273V324.159H155.432V279.273H145.432ZM145.432 324.159C145.432 327.172 146.106 330.041 147.561 332.639L156.286 327.753C155.752 326.8 155.432 325.645 155.432 324.159H145.432ZM147.575 332.664C149.015 335.201 151.038 337.224 153.575 338.664L158.511 329.967C157.544 329.418 156.82 328.695 156.272 327.728L147.575 332.664ZM153.6 338.678C156.198 340.133 159.067 340.807 162.08 340.807V330.807C160.594 330.807 159.438 330.486 158.486 329.953L153.6 338.678ZM162.08 340.807C165.104 340.807 167.988 340.138 170.585 338.664L165.648 329.967C164.742 330.482 163.6 330.807 162.08 330.807V340.807ZM170.585 338.664C173.121 337.224 175.144 335.201 176.584 332.664L167.887 327.728C167.339 328.695 166.615 329.418 165.648 329.967L170.585 338.664ZM176.598 332.639C178.053 330.041 178.727 327.172 178.727 324.159H168.727C168.727 325.645 168.407 326.8 167.873 327.753L176.598 332.639ZM178.727 324.159V279.273H168.727V324.159H178.727ZM265.782 279.273H270.782V274.273H265.782V279.273ZM265.782 352V357H270.782V352H265.782ZM249.304 352L245.185 354.833L246.675 357H249.304V352ZM223.026 313.79L227.146 310.956L225.656 308.79H223.026V313.79ZM222.6 313.79V308.79H217.6V313.79H222.6ZM222.6 352V357H227.6V352H222.6ZM202.855 352H197.855V357H202.855V352ZM202.855 279.273V274.273H197.855V279.273H202.855ZM219.617 279.273L223.753 276.464L222.265 274.273H219.617V279.273ZM245.469 317.341L241.333 320.15L242.821 322.341H245.469V317.341ZM246.037 317.341V322.341H251.037V317.341H246.037ZM246.037 279.273V274.273H241.037V279.273H246.037ZM260.782 279.273V352H270.782V279.273H260.782ZM265.782 347H249.304V357H265.782V347ZM253.424 349.167L227.146 310.956L218.906 316.623L245.185 354.833L253.424 349.167ZM223.026 308.79H222.6V318.79H223.026V308.79ZM217.6 313.79V352H227.6V313.79H217.6ZM222.6 347H202.855V357H222.6V347ZM207.855 352V279.273H197.855V352H207.855ZM202.855 284.273H219.617V274.273H202.855V284.273ZM215.48 282.082L241.333 320.15L249.605 314.532L223.753 276.464L215.48 282.082ZM245.469 322.341H246.037V312.341H245.469V322.341ZM251.037 317.341V279.273H241.037V317.341H251.037ZM246.037 284.273H265.782V274.273H246.037V284.273ZM275.121 352H270.121V357H275.121V352ZM275.121 279.273V274.273H270.121V279.273H275.121ZM326.257 279.273H331.257V274.273H326.257V279.273ZM326.257 295.182V300.182H331.257V295.182H326.257ZM294.865 295.182V290.182H289.865V295.182H294.865ZM294.865 307.682H289.865V312.682H294.865V307.682ZM323.132 307.682H328.132V302.682H323.132V307.682ZM323.132 323.591V328.591H328.132V323.591H323.132ZM294.865 323.591V318.591H289.865V323.591H294.865ZM294.865 352V357H299.865V352H294.865ZM280.121 352V279.273H270.121V352H280.121ZM275.121 284.273H326.257V274.273H275.121V284.273ZM321.257 279.273V295.182H331.257V279.273H321.257ZM326.257 290.182H294.865V300.182H326.257V290.182ZM289.865 295.182V307.682H299.865V295.182H289.865ZM294.865 312.682H323.132V302.682H294.865V312.682ZM318.132 307.682V323.591H328.132V307.682H318.132ZM323.132 318.591H294.865V328.591H323.132V318.591ZM289.865 323.591V352H299.865V323.591H289.865ZM294.865 347H275.121V357H294.865V347ZM353.264 279.273H358.264V274.273H353.264V279.273ZM353.264 352V357H358.264V352H353.264ZM333.52 352H328.52V357H333.52V352ZM333.52 279.273V274.273H328.52V279.273H333.52ZM348.264 279.273V352H358.264V279.273H348.264ZM353.264 347H333.52V357H353.264V347ZM338.52 352V279.273H328.52V352H338.52ZM333.52 284.273H353.264V274.273H333.52V284.273ZM425.547 279.273H430.547V274.273H425.547V279.273ZM425.547 352V357H430.547V352H425.547ZM409.07 352L404.95 354.833L406.44 357H409.07V352ZM382.792 313.79L386.911 310.956L385.421 308.79H382.792V313.79ZM382.365 313.79V308.79H377.365V313.79H382.365ZM382.365 352V357H387.365V352H382.365ZM362.621 352H357.621V357H362.621V352ZM362.621 279.273V274.273H357.621V279.273H362.621ZM379.382 279.273L383.519 276.464L382.031 274.273H379.382V279.273ZM405.235 317.341L401.098 320.15L402.586 322.341H405.235V317.341ZM405.803 317.341V322.341H410.803V317.341H405.803ZM405.803 279.273V274.273H400.803V279.273H405.803ZM420.547 279.273V352H430.547V279.273H420.547ZM425.547 347H409.07V357H425.547V347ZM413.19 349.167L386.911 310.956L378.672 316.623L404.95 354.833L413.19 349.167ZM382.792 308.79H382.365V318.79H382.792V308.79ZM377.365 313.79V352H387.365V313.79H377.365ZM382.365 347H362.621V357H382.365V347ZM367.621 352V279.273H357.621V352H367.621ZM362.621 284.273H379.382V274.273H362.621V284.273ZM375.246 282.082L401.098 320.15L409.371 314.532L383.519 276.464L375.246 282.082ZM405.235 322.341H405.803V312.341H405.235V322.341ZM410.803 317.341V279.273H400.803V317.341H410.803ZM405.803 284.273H425.547V274.273H405.803V284.273ZM454.631 279.273H459.631V274.273H454.631V279.273ZM454.631 352V357H459.631V352H454.631ZM434.887 352H429.887V357H434.887V352ZM434.887 279.273V274.273H429.887V279.273H434.887ZM449.631 279.273V352H459.631V279.273H449.631ZM454.631 347H434.887V357H454.631V347ZM439.887 352V279.273H429.887V352H439.887ZM434.887 284.273H454.631V274.273H434.887V284.273ZM503.193 302L498.209 302.399L498.577 307H503.193V302ZM500.529 296.46L497.295 300.273L497.309 300.285L497.323 300.297L500.529 296.46ZM488.385 295.217L490.121 299.906L490.145 299.897L490.168 299.888L488.385 295.217ZM485.544 297.17L481.53 294.189L481.53 294.189L485.544 297.17ZM484.585 300.011L489.578 300.281L489.582 300.202L489.584 300.122L484.585 300.011ZM485.047 302.391L480.574 304.627L480.62 304.717L480.669 304.806L485.047 302.391ZM486.822 304.273L483.939 308.358L483.979 308.386L484.021 308.414L486.822 304.273ZM494.386 306.972L495.434 302.083L495.413 302.078L495.392 302.074L494.386 306.972ZM500.352 308.25L499.304 313.139L499.316 313.142L500.352 308.25ZM510.686 311.624L508.494 316.118L510.686 311.624ZM517.717 316.56L514.115 320.027L514.125 320.038L514.136 320.05L517.717 316.56ZM521.73 322.881L517.031 324.589L517.038 324.61L517.046 324.631L521.73 322.881ZM523.079 330.551L528.079 330.576L528.079 330.542L528.079 330.508L523.079 330.551ZM519.493 342.696L523.561 345.602L523.561 345.602L519.493 342.696ZM509.336 350.26L507.51 345.606L507.501 345.609L509.336 350.26ZM476.985 350.047L475.133 354.691L475.141 354.694L476.985 350.047ZM466.048 341.418L461.876 344.174L461.886 344.188L461.895 344.203L466.048 341.418ZM462.142 326.432V321.432H457.122L457.142 326.451L462.142 326.432ZM480.892 326.432L485.885 326.166L485.633 321.432H480.892V326.432ZM482.561 332.043L478.38 334.786L478.38 334.786L482.561 332.043ZM486.751 335.487L484.76 340.074L484.771 340.078L484.781 340.083L486.751 335.487ZM498.541 335.878L500.262 340.572L500.262 340.572L498.541 335.878ZM501.772 333.712L505.686 336.823L505.686 336.823L501.772 333.712ZM502.909 330.551L507.908 330.651L507.91 330.548L507.908 330.445L502.909 330.551ZM501.808 327.639L497.914 330.776L497.962 330.835L498.012 330.893L501.808 327.639ZM498.399 325.366L496.413 329.955L496.442 329.968L496.471 329.98L498.399 325.366ZM491.971 323.449L493.042 318.565L493.034 318.563L493.025 318.561L491.971 323.449ZM484.727 321.886L483.667 326.773L483.673 326.774L484.727 321.886ZM469.493 314.891L466.166 318.624L466.179 318.635L466.192 318.646L469.493 314.891ZM463.988 301.432L468.988 301.453L468.988 301.429L468.988 301.406L463.988 301.432ZM467.681 289.322L463.626 286.398L463.622 286.403L467.681 289.322ZM478.086 281.19L476.087 276.607L476.078 276.611L478.086 281.19ZM508.626 281.226L506.542 285.771L506.542 285.771L508.626 281.226ZM518.534 289.536L514.34 292.258L514.35 292.274L514.361 292.29L518.534 289.536ZM522.085 302V307H527.11L527.085 301.975L522.085 302ZM508.177 301.601C507.898 298.113 506.508 294.94 503.736 292.624L497.323 300.297C497.724 300.631 498.109 301.153 498.209 302.399L508.177 301.601ZM503.764 292.648C500.912 290.228 497.142 289.472 493.392 289.472V299.472C496.033 299.472 497.022 300.041 497.295 300.273L503.764 292.648ZM493.392 289.472C491.002 289.472 488.671 289.756 486.601 290.546L490.168 299.888C490.703 299.684 491.709 299.472 493.392 299.472V289.472ZM486.648 290.529C484.747 291.233 482.881 292.37 481.53 294.189L489.557 300.152C489.437 300.314 489.465 300.149 490.121 299.906L486.648 290.529ZM481.53 294.189C480.276 295.877 479.632 297.835 479.586 299.9L489.584 300.122C489.584 300.09 489.587 300.075 489.587 300.075C489.587 300.075 489.587 300.078 489.585 300.082C489.584 300.087 489.582 300.094 489.58 300.101C489.574 300.117 489.568 300.132 489.561 300.144C489.555 300.156 489.552 300.159 489.557 300.152L481.53 294.189ZM479.592 299.741C479.503 301.391 479.792 303.061 480.574 304.627L489.519 300.155C489.532 300.181 489.544 300.21 489.554 300.239C489.564 300.268 489.57 300.292 489.573 300.311C489.581 300.349 489.574 300.345 489.578 300.281L479.592 299.741ZM480.669 304.806C481.494 306.303 482.67 307.462 483.939 308.358L489.706 300.188C489.364 299.947 489.356 299.852 489.424 299.975L480.669 304.806ZM484.021 308.414C485.273 309.261 486.711 309.928 488.224 310.471L491.599 301.058C490.603 300.701 489.981 300.373 489.624 300.131L484.021 308.414ZM488.224 310.471C489.759 311.021 491.489 311.481 493.38 311.869L495.392 302.074C493.826 301.752 492.574 301.407 491.599 301.058L488.224 310.471ZM493.338 311.861L499.304 313.139L501.4 303.361L495.434 302.083L493.338 311.861ZM499.316 313.142C503.05 313.932 506.086 314.943 508.494 316.118L512.877 307.129C509.557 305.51 505.703 304.272 501.388 303.358L499.316 313.142ZM508.494 316.118C510.941 317.311 512.774 318.634 514.115 320.027L521.319 313.092C519.014 310.697 516.16 308.73 512.877 307.129L508.494 316.118ZM514.136 320.05C515.488 321.437 516.432 322.943 517.031 324.589L526.429 321.172C525.323 318.13 523.591 315.423 521.298 313.07L514.136 320.05ZM517.046 324.631C517.697 326.373 518.06 328.345 518.079 330.594L528.079 330.508C528.051 327.217 527.514 324.076 526.413 321.13L517.046 324.631ZM518.079 330.526C518.06 334.46 517.091 337.456 515.424 339.79L523.561 345.602C526.629 341.308 528.051 336.207 528.079 330.576L518.079 330.526ZM515.424 339.79C513.705 342.196 511.161 344.173 507.51 345.606L511.163 354.914C516.319 352.891 520.545 349.825 523.561 345.602L515.424 339.79ZM507.501 345.609C503.855 347.048 499.244 347.852 493.534 347.852V357.852C500.134 357.852 506.058 356.929 511.172 354.911L507.501 345.609ZM493.534 347.852C487.694 347.852 482.829 346.987 478.83 345.4L475.141 354.694C480.564 356.847 486.732 357.852 493.534 357.852V347.852ZM478.838 345.403C475.009 343.875 472.198 341.61 470.2 338.632L461.895 344.203C465.106 348.99 469.587 352.478 475.133 354.691L478.838 345.403ZM470.22 338.662C468.315 335.778 467.163 331.811 467.142 326.412L457.142 326.451C457.168 333.221 458.62 339.244 461.876 344.174L470.22 338.662ZM462.142 331.432H480.892V321.432H462.142V331.432ZM475.899 326.697C476.053 329.604 476.801 332.379 478.38 334.786L486.741 329.299C486.332 328.676 485.967 327.71 485.885 326.166L475.899 326.697ZM478.38 334.786C479.953 337.183 482.144 338.938 484.76 340.074L488.742 330.901C487.76 330.474 487.157 329.933 486.741 329.299L478.38 334.786ZM484.781 340.083C487.368 341.192 490.236 341.659 493.25 341.659V331.659C491.244 331.659 489.78 331.345 488.721 330.891L484.781 340.083ZM493.25 341.659C495.731 341.659 498.12 341.358 500.262 340.572L496.82 331.183C496.12 331.44 494.983 331.659 493.25 331.659V341.659ZM500.262 340.572C502.305 339.823 504.24 338.642 505.686 336.823L497.858 330.6C497.837 330.628 497.618 330.891 496.82 331.183L500.262 340.572ZM505.686 336.823C507.105 335.038 507.862 332.926 507.908 330.651L497.91 330.451C497.909 330.495 497.905 330.519 497.903 330.529C497.902 330.539 497.901 330.54 497.902 330.537C497.903 330.534 497.903 330.535 497.899 330.542C497.895 330.549 497.883 330.569 497.858 330.6L505.686 336.823ZM507.908 330.445C507.86 328.2 507.083 326.111 505.604 324.385L498.012 330.893C498.013 330.895 498.002 330.882 497.986 330.856C497.97 330.828 497.953 330.795 497.939 330.757C497.925 330.719 497.916 330.687 497.912 330.665C497.908 330.643 497.909 330.639 497.91 330.657L507.908 330.445ZM505.702 324.503C504.277 322.734 502.284 321.571 500.327 320.753L496.471 329.98C497.04 330.218 497.424 330.43 497.667 330.592C497.912 330.755 497.958 330.83 497.914 330.776L505.702 324.503ZM500.385 320.778C498.383 319.911 495.893 319.19 493.042 318.565L490.9 328.333C493.448 328.891 495.242 329.449 496.413 329.955L500.385 320.778ZM493.025 318.561L485.781 316.999L483.673 326.774L490.917 328.336L493.025 318.561ZM485.787 317C479.913 315.726 475.695 313.685 472.794 311.135L466.192 318.646C470.724 322.63 476.662 325.253 483.667 326.773L485.787 317ZM472.819 311.158C470.36 308.967 468.97 305.937 468.988 301.453L458.988 301.411C458.96 308.29 461.239 314.233 466.166 318.624L472.819 311.158ZM468.988 301.406C468.969 297.752 469.924 294.767 471.741 292.242L463.622 286.403C460.467 290.791 458.96 295.879 458.988 301.457L468.988 301.406ZM471.737 292.247C473.66 289.58 476.379 287.398 480.094 285.769L476.078 276.611C470.939 278.865 466.722 282.105 463.626 286.398L471.737 292.247ZM480.085 285.773C483.8 284.153 488.202 283.278 493.392 283.278V273.278C487.076 273.278 481.274 274.345 476.087 276.607L480.085 285.773ZM493.392 283.278C498.715 283.278 503.051 284.17 506.542 285.771L510.71 276.681C505.631 274.352 499.811 273.278 493.392 273.278V283.278ZM506.542 285.771C510.06 287.384 512.59 289.561 514.34 292.258L522.728 286.814C519.838 282.36 515.763 278.998 510.71 276.681L506.542 285.771ZM514.361 292.29C516.108 294.937 517.066 298.118 517.085 302.025L527.085 301.975C527.057 296.365 525.647 291.236 522.707 286.781L514.361 292.29ZM522.085 297H503.193V307H522.085V297ZM530.59 352H525.59V357H530.59V352ZM530.59 279.273V274.273H525.59V279.273H530.59ZM550.334 279.273H555.334V274.273H550.334V279.273ZM550.334 307.682H545.334V312.682H550.334V307.682ZM576.471 307.682V312.682H581.471V307.682H576.471ZM576.471 279.273V274.273H571.471V279.273H576.471ZM596.215 279.273H601.215V274.273H596.215V279.273ZM596.215 352V357H601.215V352H596.215ZM576.471 352H571.471V357H576.471V352ZM576.471 323.591H581.471V318.591H576.471V323.591ZM550.334 323.591V318.591H545.334V323.591H550.334ZM550.334 352V357H555.334V352H550.334ZM535.59 352V279.273H525.59V352H535.59ZM530.59 284.273H550.334V274.273H530.59V284.273ZM545.334 279.273V307.682H555.334V279.273H545.334ZM550.334 312.682H576.471V302.682H550.334V312.682ZM581.471 307.682V279.273H571.471V307.682H581.471ZM576.471 284.273H596.215V274.273H576.471V284.273ZM591.215 279.273V352H601.215V279.273H591.215ZM596.215 347H576.471V357H596.215V347ZM581.471 352V323.591H571.471V352H581.471ZM576.471 318.591H550.334V328.591H576.471V318.591ZM545.334 323.591V352H555.334V323.591H545.334ZM550.334 347H530.59V357H550.334V347ZM605.59 352H600.59V357H605.59V352ZM605.59 279.273V274.273H600.59V279.273H605.59ZM658.005 279.273H663.005V274.273H658.005V279.273ZM658.005 295.182V300.182H663.005V295.182H658.005ZM625.334 295.182V290.182H620.334V295.182H625.334ZM625.334 307.682H620.334V312.682H625.334V307.682ZM655.306 307.682H660.306V302.682H655.306V307.682ZM655.306 323.591V328.591H660.306V323.591H655.306ZM625.334 323.591V318.591H620.334V323.591H625.334ZM625.334 336.091H620.334V341.091H625.334V336.091ZM657.863 336.091H662.863V331.091H657.863V336.091ZM657.863 352V357H662.863V352H657.863ZM610.59 352V279.273H600.59V352H610.59ZM605.59 284.273H658.005V274.273H605.59V284.273ZM653.005 279.273V295.182H663.005V279.273H653.005ZM658.005 290.182H625.334V300.182H658.005V290.182ZM620.334 295.182V307.682H630.334V295.182H620.334ZM625.334 312.682H655.306V302.682H625.334V312.682ZM650.306 307.682V323.591H660.306V307.682H650.306ZM655.306 318.591H625.334V328.591H655.306V318.591ZM620.334 323.591V336.091H630.334V323.591H620.334ZM625.334 341.091H657.863V331.091H625.334V341.091ZM652.863 336.091V352H662.863V336.091H652.863ZM657.863 347H605.59V357H657.863V347ZM667.797 352H662.797V357H667.797V352ZM667.797 279.273V274.273H662.797V279.273H667.797ZM714.885 283.641L712.527 288.05L712.538 288.056L712.55 288.062L714.885 283.641ZM727.527 296.141L723.134 298.528L723.14 298.54L723.146 298.551L727.527 296.141ZM727.562 335.168L731.951 337.563L731.956 337.555L727.562 335.168ZM714.991 347.668L717.342 352.08L717.35 352.076L717.357 352.072L714.991 347.668ZM687.541 335.239H682.541V340.239H687.541V335.239ZM704.267 333.499L702.201 328.945L702.193 328.949L702.185 328.953L704.267 333.499ZM710.091 327.497L705.575 325.352L705.567 325.367L705.56 325.383L710.091 327.497ZM710.055 303.776L705.539 305.921L705.546 305.936L705.554 305.951L710.055 303.776ZM704.089 297.774L702.055 302.341L702.063 302.345L702.07 302.348L704.089 297.774ZM687.541 296.034V291.034H682.541V296.034H687.541ZM695.78 347H667.797V357H695.78V347ZM672.797 352V279.273H662.797V352H672.797ZM667.797 284.273H695.496V274.273H667.797V284.273ZM695.496 284.273C702.327 284.273 707.946 285.6 712.527 288.05L717.243 279.232C710.934 275.858 703.627 274.273 695.496 274.273V284.273ZM712.55 288.062C717.145 290.489 720.644 293.947 723.134 298.528L731.92 293.753C728.491 287.444 723.562 282.569 717.22 279.219L712.55 288.062ZM723.146 298.551C725.641 303.086 727.001 308.716 727.001 315.636H737.001C737.001 307.405 735.379 300.038 731.908 293.73L723.146 298.551ZM727.001 315.636C727.001 322.562 725.651 328.214 723.169 332.78L731.956 337.555C735.393 331.231 737.001 323.862 737.001 315.636H727.001ZM723.174 332.772C720.678 337.345 717.189 340.812 712.626 343.263L717.357 352.072C723.637 348.699 728.529 343.833 731.951 337.563L723.174 332.772ZM712.641 343.255C708.076 345.687 702.511 347 695.78 347V357C703.821 357 711.065 355.425 717.342 352.08L712.641 343.255ZM687.541 340.239H695.07V330.239H687.541V340.239ZM695.07 340.239C699.185 340.239 703.001 339.578 706.349 338.045L702.185 328.953C700.466 329.74 698.151 330.239 695.07 330.239V340.239ZM706.333 338.052C710.104 336.341 712.854 333.399 714.622 329.612L705.56 325.383C704.676 327.277 703.544 328.336 702.201 328.945L706.333 338.052ZM714.607 329.642C716.412 325.844 717.115 321.043 717.115 315.636H707.115C707.115 320.363 706.469 323.468 705.575 325.352L714.607 329.642ZM717.115 315.636C717.115 310.222 716.398 305.408 714.557 301.6L705.554 305.951C706.459 307.825 707.115 310.918 707.115 315.636H717.115ZM714.572 301.63C712.761 297.817 709.94 294.891 706.109 293.2L702.07 302.348C703.494 302.977 704.651 304.052 705.539 305.921L714.572 301.63ZM706.124 293.207C702.706 291.684 698.771 291.034 694.501 291.034V301.034C697.807 301.034 700.265 301.544 702.055 302.341L706.124 293.207ZM694.501 291.034H687.541V301.034H694.501V291.034ZM682.541 296.034V335.239H692.541V296.034H682.541ZM761.059 352H756.059V357H761.059V352ZM761.059 279.273V274.273H756.059V279.273H761.059ZM808.147 283.641L805.789 288.05L805.8 288.056L805.812 288.062L808.147 283.641ZM820.789 296.141L816.396 298.528L816.402 298.54L816.408 298.551L820.789 296.141ZM820.824 335.168L825.213 337.563L825.217 337.555L820.824 335.168ZM808.253 347.668L810.604 352.08L810.612 352.076L810.619 352.072L808.253 347.668ZM780.803 335.239H775.803V340.239H780.803V335.239ZM797.529 333.499L795.463 328.945L795.455 328.949L795.447 328.953L797.529 333.499ZM803.353 327.497L798.836 325.352L798.829 325.367L798.822 325.383L803.353 327.497ZM803.317 303.776L798.801 305.921L798.808 305.936L798.815 305.951L803.317 303.776ZM797.351 297.774L795.317 302.341L795.324 302.345L795.332 302.348L797.351 297.774ZM780.803 296.034V291.034H775.803V296.034H780.803ZM789.042 347H761.059V357H789.042V347ZM766.059 352V279.273H756.059V352H766.059ZM761.059 284.273H788.757V274.273H761.059V284.273ZM788.757 284.273C795.588 284.273 801.207 285.6 805.789 288.05L810.505 279.232C804.196 275.858 796.889 274.273 788.757 274.273V284.273ZM805.812 288.062C810.407 290.489 813.906 293.947 816.396 298.528L825.182 293.753C821.753 287.444 816.824 282.569 810.482 279.219L805.812 288.062ZM816.408 298.551C818.903 303.086 820.263 308.716 820.263 315.636H830.263C830.263 307.405 828.64 300.038 825.169 293.73L816.408 298.551ZM820.263 315.636C820.263 322.562 818.913 328.214 816.431 332.78L825.217 337.555C828.654 331.231 830.263 323.862 830.263 315.636H820.263ZM816.435 332.772C813.939 337.345 810.45 340.812 805.887 343.263L810.619 352.072C816.899 348.699 821.791 343.833 825.213 337.563L816.435 332.772ZM805.902 343.255C801.337 345.687 795.773 347 789.042 347V357C797.083 357 804.326 355.425 810.604 352.08L805.902 343.255ZM780.803 340.239H788.331V330.239H780.803V340.239ZM788.331 340.239C792.447 340.239 796.263 339.578 799.611 338.045L795.447 328.953C793.728 329.74 791.413 330.239 788.331 330.239V340.239ZM799.595 338.052C803.366 336.341 806.116 333.399 807.884 329.612L798.822 325.383C797.938 327.277 796.805 328.336 795.463 328.945L799.595 338.052ZM807.869 329.642C809.673 325.844 810.377 321.043 810.377 315.636H800.377C800.377 320.363 799.731 323.468 798.836 325.352L807.869 329.642ZM810.377 315.636C810.377 310.222 809.66 305.408 807.819 301.6L798.815 305.951C799.721 307.825 800.377 310.918 800.377 315.636H810.377ZM807.834 301.63C806.022 297.817 803.202 294.891 799.37 293.2L795.332 302.348C796.756 302.977 797.913 304.052 798.801 305.921L807.834 301.63ZM799.386 293.207C795.968 291.684 792.033 291.034 787.763 291.034V301.034C791.069 301.034 793.526 301.544 795.317 302.341L799.386 293.207ZM787.763 291.034H780.803V301.034H787.763V291.034ZM775.803 296.034V335.239H785.803V296.034H775.803ZM900.13 336.126L904.477 338.597L904.481 338.589L900.13 336.126ZM887.381 348.733L889.726 353.149L889.734 353.145L889.741 353.141L887.381 348.733ZM851.515 348.697L849.132 353.093L849.143 353.099L849.155 353.105L851.515 348.697ZM838.802 336.055L834.442 338.504L834.449 338.515L834.455 338.526L838.802 336.055ZM838.802 295.182L834.45 292.719L834.447 292.725L838.802 295.182ZM851.515 282.575L853.868 286.987L853.875 286.983L851.515 282.575ZM887.381 282.575L885.021 286.983L885.029 286.987L885.037 286.991L887.381 282.575ZM900.13 295.182L895.779 297.645L895.783 297.653L900.13 295.182ZM882.8 304.628L878.123 306.396L878.132 306.418L878.14 306.44L882.8 304.628ZM877.722 297.81L874.849 301.902L874.874 301.919L874.899 301.936L877.722 297.81ZM861.21 297.81L864.053 301.922L864.062 301.916L861.21 297.81ZM856.131 304.628L851.467 302.828L851.463 302.838L851.459 302.848L856.131 304.628ZM856.131 326.68L851.454 328.448L851.463 328.47L851.471 328.493L856.131 326.68ZM861.21 333.499L858.336 337.591L858.361 337.608L858.386 337.625L861.21 333.499ZM877.722 333.499L880.566 337.611L880.575 337.605L877.722 333.499ZM882.8 326.68L878.136 324.881L878.132 324.89L878.128 324.9L882.8 326.68ZM899.853 315.636C899.853 323.096 898.403 329.026 895.779 333.664L904.481 338.589C908.154 332.1 909.853 324.37 909.853 315.636H899.853ZM895.783 333.656C893.076 338.418 889.497 341.929 885.021 344.325L889.741 353.141C895.966 349.808 900.886 344.914 904.477 338.597L895.783 333.656ZM885.037 344.317C880.47 346.742 875.32 347.994 869.484 347.994V357.994C876.81 357.994 883.592 356.406 889.726 353.149L885.037 344.317ZM869.484 347.994C863.601 347.994 858.434 346.73 853.875 344.289L849.155 353.105C855.297 356.394 862.109 357.994 869.484 357.994V347.994ZM853.898 344.302C849.436 341.883 845.861 338.356 843.149 333.585L834.455 338.526C838.04 344.834 842.94 349.736 849.132 353.093L853.898 344.302ZM843.161 333.607C840.552 328.962 839.114 323.048 839.114 315.636H829.114C829.114 324.323 830.801 332.022 834.442 338.504L843.161 333.607ZM839.114 315.636C839.114 308.17 840.555 302.251 843.157 297.638L834.447 292.725C830.799 299.193 829.114 306.909 829.114 315.636H839.114ZM843.153 297.645C845.863 292.856 849.429 289.354 853.868 286.987L849.162 278.164C842.947 281.478 838.038 286.38 834.45 292.719L843.153 297.645ZM853.875 286.983C858.434 284.542 863.601 283.278 869.484 283.278V273.278C862.109 273.278 855.297 274.879 849.155 278.167L853.875 286.983ZM869.484 283.278C875.313 283.278 880.457 284.54 885.021 286.983L889.741 278.167C883.605 274.882 876.817 273.278 869.484 273.278V283.278ZM885.037 286.991C889.498 289.36 893.072 292.862 895.779 297.645L904.481 292.719C900.891 286.375 895.965 281.472 889.726 278.159L885.037 286.991ZM895.783 297.653C898.403 302.262 899.853 308.176 899.853 315.636H909.853C909.853 306.904 908.155 299.182 904.477 292.711L895.783 297.653ZM889.54 315.636C889.54 310.87 888.91 306.544 887.46 302.816L878.14 306.44C879.011 308.678 879.54 311.691 879.54 315.636H889.54ZM887.478 302.86C886.046 299.072 883.783 295.898 880.546 293.683L874.899 301.936C876.16 302.799 877.282 304.17 878.123 306.396L887.478 302.86ZM880.595 293.718C877.371 291.453 873.568 290.466 869.484 290.466V300.466C871.934 300.466 873.623 301.041 874.849 301.902L880.595 293.718ZM869.484 290.466C865.398 290.466 861.594 291.454 858.357 293.703L864.062 301.916C865.323 301.04 867.035 300.466 869.484 300.466V290.466ZM858.366 293.697C855.168 295.909 852.917 299.068 851.467 302.828L860.796 306.428C861.665 304.175 862.801 302.788 864.053 301.922L858.366 293.697ZM851.459 302.848C850.043 306.565 849.427 310.879 849.427 315.636H859.427C859.427 311.682 859.947 308.656 860.804 306.408L851.459 302.848ZM849.427 315.636C849.427 320.396 850.043 324.715 851.454 328.448L860.808 324.913C859.947 322.632 859.427 319.589 859.427 315.636H849.427ZM851.471 328.493C852.924 332.229 855.169 335.367 858.336 337.591L864.083 329.407C862.799 328.505 861.658 327.098 860.791 324.868L851.471 328.493ZM858.386 337.625C861.621 339.838 865.413 340.807 869.484 340.807V330.807C867.02 330.807 865.297 330.237 864.033 329.372L858.386 337.625ZM869.484 340.807C873.552 340.807 877.344 339.839 880.566 337.611L874.879 329.386C873.649 330.236 871.949 330.807 869.484 330.807V340.807ZM880.575 337.605C883.781 335.377 886.039 332.224 887.473 328.46L878.128 324.9C877.289 327.102 876.161 328.495 874.87 329.392L880.575 337.605ZM887.465 328.48C888.91 324.736 889.54 320.405 889.54 315.636H879.54C879.54 319.58 879.011 322.611 878.136 324.881L887.465 328.48ZM943.96 279.273V274.273H938.96V279.273H943.96ZM963.42 279.273H968.42V274.273H963.42V279.273ZM963.42 329.131L968.42 329.156L968.42 329.143V329.131H963.42ZM959.833 341.631L955.656 338.883L955.652 338.889L959.833 341.631ZM950.103 350.011L952.277 354.514L952.288 354.509L950.103 350.011ZM923.079 350.58L921.13 355.184L921.142 355.189L921.154 355.194L923.079 350.58ZM913.846 342.909L909.664 345.65L909.669 345.656L909.673 345.663L913.846 342.909ZM910.437 329.273V324.273H905.458L905.437 329.252L910.437 329.273ZM930.181 329.273L935.178 329.078L934.99 324.273H930.181V329.273ZM931.105 333.889L926.518 335.88L926.534 335.916L926.55 335.952L931.105 333.889ZM933.449 336.73L930.745 340.936L930.803 340.973L930.861 341.009L933.449 336.73ZM940.835 336.695L938.176 332.46L938.153 332.474L938.131 332.489L940.835 336.695ZM943.143 333.854L947.761 335.771L947.767 335.755L947.774 335.74L943.143 333.854ZM943.96 329.131L948.959 329.194L948.96 329.162V329.131H943.96ZM943.96 284.273H963.42V274.273H943.96V284.273ZM958.42 279.273V329.131H968.42V279.273H958.42ZM958.42 329.106C958.401 332.972 957.439 336.173 955.656 338.883L964.011 344.379C966.962 339.892 968.392 334.759 968.42 329.156L958.42 329.106ZM955.652 338.889C953.841 341.651 951.315 343.864 947.919 345.514L952.288 354.509C957.178 352.134 961.138 348.76 964.015 344.372L955.652 338.889ZM947.93 345.509C944.597 347.117 940.615 347.994 935.863 347.994V357.994C941.859 357.994 947.371 356.883 952.277 354.514L947.93 345.509ZM935.863 347.994C931.784 347.994 928.187 347.293 925.004 345.965L921.154 355.194C925.69 357.086 930.615 357.994 935.863 357.994V347.994ZM925.028 345.975C922.072 344.724 919.77 342.808 918.02 340.155L909.673 345.663C912.515 349.97 916.368 353.168 921.13 355.184L925.028 345.975ZM918.028 340.168C916.422 337.717 915.416 334.221 915.437 329.294L905.437 329.252C905.411 335.499 906.678 341.093 909.664 345.65L918.028 340.168ZM910.437 334.273H930.181V324.273H910.437V334.273ZM925.185 329.467C925.273 331.715 925.66 333.902 926.518 335.88L935.691 331.899C935.461 331.367 935.232 330.477 935.178 329.078L925.185 329.467ZM926.55 335.952C927.449 337.936 928.813 339.694 930.745 340.936L936.152 332.524C936.095 332.488 935.897 332.352 935.66 331.827L926.55 335.952ZM930.861 341.009C932.812 342.188 934.981 342.653 937.142 342.653V332.653C936.414 332.653 936.121 332.503 936.036 332.451L930.861 341.009ZM937.142 342.653C939.336 342.653 941.563 342.171 943.539 340.9L938.131 332.489C938.118 332.497 937.883 332.653 937.142 332.653V342.653ZM943.494 340.929C945.501 339.669 946.897 337.853 947.761 335.771L938.525 331.937C938.348 332.364 938.205 332.442 938.176 332.46L943.494 340.929ZM947.774 335.74C948.598 333.717 948.931 331.482 948.959 329.194L938.96 329.067C938.942 330.52 938.73 331.434 938.513 331.967L947.774 335.74ZM948.96 329.131V279.273H938.96V329.131H948.96ZM1038.51 336.126L1042.86 338.597L1042.86 338.589L1038.51 336.126ZM1025.76 348.733L1028.11 353.149L1028.11 353.145L1028.12 353.141L1025.76 348.733ZM989.894 348.697L987.511 353.093L987.522 353.099L987.534 353.105L989.894 348.697ZM977.181 336.055L972.821 338.504L972.828 338.515L972.834 338.526L977.181 336.055ZM977.181 295.182L972.829 292.719L972.826 292.725L977.181 295.182ZM989.894 282.575L992.247 286.987L992.254 286.983L989.894 282.575ZM1025.76 282.575L1023.4 286.983L1023.41 286.987L1023.42 286.991L1025.76 282.575ZM1038.51 295.182L1034.16 297.645L1034.16 297.653L1038.51 295.182ZM1021.18 304.628L1016.5 306.396L1016.51 306.418L1016.52 306.44L1021.18 304.628ZM1016.1 297.81L1013.23 301.902L1013.25 301.919L1013.28 301.936L1016.1 297.81ZM999.588 297.81L1002.43 301.922L1002.44 301.916L999.588 297.81ZM994.51 304.628L989.845 302.828L989.842 302.838L989.838 302.848L994.51 304.628ZM994.51 326.68L989.833 328.448L989.842 328.47L989.85 328.493L994.51 326.68ZM999.588 333.499L996.715 337.591L996.74 337.608L996.765 337.625L999.588 333.499ZM1016.1 333.499L1018.94 337.611L1018.95 337.605L1016.1 333.499ZM1021.18 326.68L1016.51 324.881L1016.51 324.89L1016.51 324.9L1021.18 326.68ZM1038.23 315.636C1038.23 323.096 1036.78 329.026 1034.16 333.664L1042.86 338.589C1046.53 332.1 1048.23 324.37 1048.23 315.636H1038.23ZM1034.16 333.656C1031.46 338.418 1027.88 341.929 1023.4 344.325L1028.12 353.141C1034.35 349.808 1039.27 344.914 1042.86 338.597L1034.16 333.656ZM1023.42 344.317C1018.85 346.742 1013.7 347.994 1007.86 347.994V357.994C1015.19 357.994 1021.97 356.406 1028.11 353.149L1023.42 344.317ZM1007.86 347.994C1001.98 347.994 996.813 346.73 992.254 344.289L987.534 353.105C993.676 356.394 1000.49 357.994 1007.86 357.994V347.994ZM992.277 344.302C987.815 341.883 984.24 338.356 981.528 333.585L972.834 338.526C976.419 344.834 981.319 349.736 987.511 353.093L992.277 344.302ZM981.54 333.607C978.931 328.962 977.493 323.048 977.493 315.636H967.493C967.493 324.323 969.18 332.022 972.821 338.504L981.54 333.607ZM977.493 315.636C977.493 308.17 978.934 302.251 981.536 297.638L972.826 292.725C969.178 299.193 967.493 306.909 967.493 315.636H977.493ZM981.532 297.645C984.242 292.856 987.808 289.354 992.247 286.987L987.541 278.164C981.326 281.478 976.417 286.38 972.829 292.719L981.532 297.645ZM992.254 286.983C996.813 284.542 1001.98 283.278 1007.86 283.278V273.278C1000.49 273.278 993.676 274.879 987.534 278.167L992.254 286.983ZM1007.86 283.278C1013.69 283.278 1018.84 284.54 1023.4 286.983L1028.12 278.167C1021.98 274.882 1015.2 273.278 1007.86 273.278V283.278ZM1023.42 286.991C1027.88 289.36 1031.45 292.862 1034.16 297.645L1042.86 292.719C1039.27 286.375 1034.34 281.472 1028.11 278.159L1023.42 286.991ZM1034.16 297.653C1036.78 302.262 1038.23 308.176 1038.23 315.636H1048.23C1048.23 306.904 1046.53 299.182 1042.86 292.711L1034.16 297.653ZM1027.92 315.636C1027.92 310.87 1027.29 306.544 1025.84 302.816L1016.52 306.44C1017.39 308.678 1017.92 311.691 1017.92 315.636H1027.92ZM1025.86 302.86C1024.42 299.072 1022.16 295.898 1018.92 293.683L1013.28 301.936C1014.54 302.799 1015.66 304.17 1016.5 306.396L1025.86 302.86ZM1018.97 293.718C1015.75 291.453 1011.95 290.466 1007.86 290.466V300.466C1010.31 300.466 1012 301.041 1013.23 301.902L1018.97 293.718ZM1007.86 290.466C1003.78 290.466 999.973 291.454 996.736 293.703L1002.44 301.916C1003.7 301.04 1005.41 300.466 1007.86 300.466V290.466ZM996.745 293.697C993.547 295.909 991.296 299.068 989.845 302.828L999.175 306.428C1000.04 304.175 1001.18 302.788 1002.43 301.922L996.745 293.697ZM989.838 302.848C988.422 306.565 987.806 310.879 987.806 315.636H997.806C997.806 311.682 998.326 308.656 999.183 306.408L989.838 302.848ZM987.806 315.636C987.806 320.396 988.422 324.715 989.833 328.448L999.187 324.913C998.326 322.632 997.806 319.589 997.806 315.636H987.806ZM989.85 328.493C991.303 332.229 993.548 335.367 996.715 337.591L1002.46 329.407C1001.18 328.505 1000.04 327.098 999.17 324.868L989.85 328.493ZM996.765 337.625C999.999 339.838 1003.79 340.807 1007.86 340.807V330.807C1005.4 330.807 1003.68 330.237 1002.41 329.372L996.765 337.625ZM1007.86 340.807C1011.93 340.807 1015.72 339.839 1018.94 337.611L1013.26 329.386C1012.03 330.236 1010.33 330.807 1007.86 330.807V340.807ZM1018.95 337.605C1022.16 335.377 1024.42 332.224 1025.85 328.46L1016.51 324.9C1015.67 327.102 1014.54 328.495 1013.25 329.392L1018.95 337.605ZM1025.84 328.48C1027.29 324.736 1027.92 320.405 1027.92 315.636H1017.92C1017.92 319.58 1017.39 322.611 1016.51 324.881L1025.84 328.48Z" fill="url(#paint4_linear_148_16)" mask="url(#path-5-outside-1_148_16)"/>
<path d="M63.5234 34.8515L56 54.625H64.0948L67.8088 43.9341L63.5234 34.8515Z" fill="white"/>
<path d="M74.4751 54.625L64.8566 34H72.7609L82.3794 54.625H74.4751Z" fill="white"/>
<path d="M79.1073 39.0143L76.917 34H84.5356L87.0116 39.0143H79.1073Z" fill="white"/>
<path d="M86.2498 54.625L79.4883 40.3389H87.4878L94.4398 54.625H86.2498Z" fill="white"/>
<path d="M90.882 39.0143L88.6916 34H101.643L104.024 39.0143H90.882Z" fill="white"/>
<path d="M100.405 54.625L93.8342 40.3389H101.643L108.5 54.625H100.405Z" fill="white"/>
<g opacity="0.38">
<path d="M153.692 534.061L119.894 711.424H119.866L-23 732.592L167.623 801L337.329 778.197L389.669 557.199L153.692 534.061ZM120.173 774.313L73.3942 756.471L95.9314 753.439L148.425 770.988L120.173 774.313ZM321.834 759.642L133.042 706.255L163.361 549.654L365.902 573.463L321.834 759.642ZM96.2527 522.492H118.748V543.898H96.2527V522.492ZM102.107 492.424H79.514C79.7236 489.057 80.4083 485.689 81.568 482.406C82.7137 479.15 84.4742 476.216 86.8494 473.603C89.2387 471.019 92.2846 468.909 96.0012 467.316C99.7178 465.681 104.245 464.857 109.568 464.857C114.822 464.857 119.265 465.555 122.87 466.981C126.475 468.378 129.395 470.194 131.63 472.374C133.866 474.581 135.515 476.999 136.549 479.625C137.596 482.252 138.183 484.767 138.337 487.142C138.337 490.454 137.89 493.15 137.038 495.19C136.185 497.23 135.04 498.963 133.628 500.332C132.217 501.715 130.666 502.833 128.934 503.741C127.201 504.636 125.427 505.544 123.638 506.494C122.409 507.151 121.403 507.793 120.606 508.436C119.81 509.093 119.181 509.763 118.762 510.476C118.343 511.203 118.035 512.027 117.84 512.977C117.658 513.899 117.574 514.975 117.574 516.191H97.5661C97.4963 515.129 97.4544 513.787 97.4544 512.111C97.4544 510.392 97.6779 508.618 98.111 506.829C98.5302 505.027 99.2847 503.238 100.375 501.52C101.464 499.815 103.043 498.362 105.139 497.188C105.991 496.741 107.011 496.28 108.171 495.777C109.331 495.302 110.421 494.743 111.468 494.101C112.488 493.5 113.383 492.759 114.109 491.921C114.822 491.055 115.185 490.007 115.185 488.777C115.185 485.075 113.117 483.244 108.926 483.244C106.327 483.244 104.482 484.18 103.407 486.053C102.317 487.939 101.884 490.063 102.107 492.424ZM227.675 652.741L252.839 669.759L236.659 693.721L211.468 676.703L227.675 652.741ZM305.207 623.371C306.059 627.521 306.059 631.475 305.235 635.234C304.383 638.964 303.167 642.22 301.518 644.972C299.017 648.717 296.53 651.372 293.987 653.006C291.43 654.655 288.915 655.703 286.247 656.192C283.648 656.709 281.049 656.765 278.408 656.486C275.782 656.192 273.099 655.871 270.388 655.591C268.53 655.354 266.923 655.326 265.512 655.466C264.129 655.591 262.941 655.871 261.907 656.346C260.873 656.849 259.881 657.519 258.987 658.428C258.107 659.322 257.185 660.468 256.234 661.823L233.823 646.705C234.564 645.433 235.542 643.911 236.827 642.01C238.14 640.082 239.719 638.266 241.55 636.589C243.408 634.884 245.588 633.487 248.103 632.369C250.66 631.224 253.524 630.819 256.723 631.112C257.981 631.28 259.476 631.503 261.139 631.825C262.801 632.146 264.464 632.342 266.085 632.453C267.72 632.565 269.284 632.397 270.724 631.964C272.177 631.545 273.378 630.651 274.328 629.31C277.081 625.16 276.187 621.527 271.492 618.369C268.6 616.413 265.819 616.078 263.165 617.377C260.538 618.635 258.442 620.717 256.919 623.525L231.601 606.395C234.41 602.804 237.707 599.549 241.48 596.768C245.266 593.96 249.416 592.018 254.055 590.9C258.666 589.796 263.668 589.74 269.061 590.732C274.44 591.71 280.141 594.225 286.121 598.249C292.017 602.245 296.432 606.395 299.409 610.699C302.399 614.974 304.299 619.222 305.207 623.371ZM-7.7703 663.723L-20.485 662.703L-19.4091 649.36L-6.69444 650.38L-7.7703 663.723ZM16.0383 659.769C16.1641 658.232 15.703 657.086 14.6411 656.332C13.5792 655.591 12.3357 655.242 10.8966 655.256L12.0143 641.829C14.0124 642.122 15.9405 642.695 17.8547 643.547C19.727 644.386 21.3897 645.587 22.8288 647.124C24.24 648.633 25.3438 650.561 26.1263 652.853C26.9087 655.13 27.1881 657.855 26.9227 661.04C26.6712 664.17 26.0145 666.755 25.0364 668.851C24.0165 670.905 22.8009 672.595 21.3897 673.797C19.9645 675.055 18.4416 675.893 16.8347 676.396C15.2279 676.885 13.7189 677.15 12.2798 677.122C10.3097 676.927 8.74484 676.55 7.57118 675.949C6.38354 675.348 5.43343 674.566 4.66496 673.685C3.9384 672.791 3.32363 671.785 2.86254 670.709C2.41543 669.619 1.96832 668.557 1.49327 667.468C1.17191 666.671 0.836575 666.043 0.48727 665.553C0.137965 665.009 -0.239284 664.631 -0.644478 664.352C-1.06364 664.031 -1.5387 663.807 -2.06964 663.639C-2.62853 663.5 -3.27125 663.388 -3.99781 663.346L-3.03372 651.456C-2.37703 651.456 -1.56664 651.483 -0.574617 651.567C0.459326 651.651 1.49327 651.861 2.54118 652.224C3.5891 652.573 4.5951 653.09 5.57315 653.831C6.55121 654.585 7.33365 655.549 7.90651 656.863C8.13006 657.408 8.36759 658.008 8.60512 658.749C8.84265 659.448 9.13606 660.146 9.44345 660.789C9.76481 661.474 10.17 662.018 10.6451 662.48C11.1061 662.955 11.7069 663.248 12.4475 663.304C14.6411 663.43 15.8287 662.284 16.0383 659.769ZM327.94 482.923L331.489 495.19L318.592 498.907L315.057 486.625L327.94 482.923ZM300.512 472.164C300.079 470.194 299.912 468.154 300.051 466.086C300.163 464.018 300.708 462.048 301.602 460.162C302.552 458.29 303.95 456.585 305.836 455.034C307.666 453.497 310.153 452.282 313.171 451.402C316.175 450.535 318.83 450.214 321.121 450.41C323.413 450.619 325.425 451.192 327.06 452.072C328.68 452.952 330.036 454.07 331.056 455.426C332.062 456.767 332.83 458.094 333.319 459.422C333.864 461.336 334.074 462.943 333.892 464.27C333.724 465.583 333.375 466.743 332.802 467.763C332.229 468.797 331.517 469.677 330.664 470.502C329.798 471.298 328.974 472.094 328.08 472.947C327.479 473.506 326.99 474.05 326.64 474.567C326.305 475.043 326.04 475.546 325.928 476.021C325.788 476.51 325.732 477.041 325.788 477.613C325.844 478.172 325.956 478.801 326.165 479.5L314.708 482.797C314.485 482.196 314.247 481.414 313.968 480.478C313.674 479.472 313.506 478.424 313.451 477.306C313.423 476.216 313.562 475.07 313.884 473.911C314.205 472.723 314.89 471.661 315.91 470.655C316.343 470.25 316.832 469.817 317.405 469.328C317.978 468.853 318.495 468.378 319.012 467.847C319.501 467.316 319.878 466.757 320.157 466.128C320.437 465.527 320.451 464.871 320.269 464.158C319.668 462.048 318.173 461.35 315.77 462.02C314.303 462.468 313.395 463.32 313.073 464.563C312.78 465.807 312.85 467.106 313.395 468.42L300.512 472.164ZM228.751 511.72L236.534 512.488L235.793 519.907L228.025 519.125L228.751 511.72ZM231.825 501.534L223.987 500.779C224.154 499.606 224.518 498.474 225.007 497.384C225.524 496.28 226.236 495.33 227.144 494.506C228.011 493.695 229.184 493.039 230.526 492.62C231.881 492.186 233.446 492.075 235.304 492.256C237.12 492.438 238.629 492.829 239.803 493.43C241.005 494.017 241.955 494.757 242.667 495.596C243.352 496.434 243.841 497.328 244.121 498.264C244.4 499.214 244.47 500.081 244.47 500.919C244.358 502.079 244.121 502.973 243.715 503.658C243.352 504.356 242.891 504.901 242.374 505.348C241.829 505.739 241.256 506.075 240.627 506.34C239.999 506.592 239.328 506.843 238.671 507.123C238.252 507.318 237.847 507.486 237.554 507.696C237.26 507.905 237.037 508.101 236.869 508.338C236.673 508.576 236.562 508.855 236.478 509.177C236.352 509.512 236.296 509.875 236.268 510.28L229.366 509.624C229.366 509.232 229.394 508.757 229.478 508.185C229.534 507.57 229.673 506.983 229.855 506.368C230.037 505.753 230.4 505.167 230.819 504.608C231.252 504.035 231.853 503.602 232.621 503.252C232.929 503.155 233.32 503.015 233.711 502.861C234.144 502.735 234.55 502.582 234.913 502.414C235.276 502.232 235.639 502.009 235.891 501.715C236.184 501.45 236.338 501.101 236.366 500.682C236.492 499.424 235.821 498.711 234.368 498.558C233.474 498.474 232.789 498.753 232.342 499.354C231.951 499.955 231.769 500.695 231.825 501.534ZM187.701 669.326C187.98 670.29 188.078 671.156 188.05 671.967C187.938 673.14 187.715 674.021 187.338 674.719C186.96 675.404 186.499 675.977 185.968 676.368C185.423 676.787 184.85 677.15 184.222 677.388C183.579 677.667 182.95 677.891 182.294 678.184C181.846 678.352 181.469 678.534 181.176 678.743C180.882 678.981 180.645 679.134 180.463 679.386C180.296 679.651 180.156 679.931 180.072 680.238C179.974 680.56 179.904 680.951 179.848 681.328L172.932 680.671C172.946 680.294 172.988 679.805 173.044 679.218C173.1 678.617 173.226 678.017 173.449 677.416C173.645 676.815 173.966 676.228 174.399 675.655C174.846 675.083 175.433 674.649 176.202 674.328C176.523 674.188 176.886 674.049 177.292 673.937C177.711 673.797 178.102 673.643 178.493 673.49C178.87 673.294 179.206 673.098 179.485 672.777C179.751 672.526 179.904 672.162 179.96 671.771C180.072 670.486 179.415 669.787 177.976 669.633C177.054 669.55 176.397 669.843 175.95 670.444C175.517 671.059 175.293 671.813 175.293 672.609L167.469 671.841C167.637 670.667 168 669.522 168.503 668.46C169.006 667.342 169.747 666.406 170.641 665.567C171.535 664.729 172.667 664.114 174.022 663.681C175.349 663.248 176.942 663.136 178.787 663.318C180.631 663.486 182.14 663.877 183.314 664.492C184.529 665.106 185.465 665.805 186.164 666.657C186.876 667.496 187.379 668.404 187.701 669.326ZM172.234 682.795L180.03 683.578L179.317 690.955L171.535 690.2L172.234 682.795ZM24.6033 445.841L16.7509 445.072C16.9326 443.912 17.2958 442.795 17.7988 441.691C18.3298 440.601 19.0284 439.637 19.9366 438.799C20.8308 437.988 21.9625 437.346 23.3039 436.926C24.6452 436.493 26.238 436.381 28.0824 436.549C29.9127 436.731 31.4357 437.122 32.6513 437.737C33.8389 438.324 34.789 439.05 35.4876 439.902C36.1862 440.741 36.6613 441.621 36.9407 442.571C37.2062 443.521 37.318 444.387 37.304 445.268C37.1922 446.399 36.9407 447.308 36.5775 448.006C36.2002 448.677 35.7391 449.222 35.2222 449.669C34.6912 450.06 34.1044 450.396 33.4756 450.661C32.8329 450.913 32.1902 451.192 31.5475 451.443C31.1004 451.639 30.7231 451.807 30.4437 452.016C30.1363 452.226 29.8848 452.408 29.7171 452.659C29.5634 452.897 29.4237 453.176 29.3259 453.497C29.2281 453.805 29.1582 454.196 29.1163 454.573L22.1861 453.931C22.214 453.553 22.242 453.078 22.3118 452.491C22.3677 451.891 22.4935 451.304 22.7031 450.675C22.9266 450.088 23.234 449.501 23.6672 448.928C24.1003 448.356 24.6871 447.936 25.4696 447.587C25.777 447.489 26.1402 447.35 26.5454 447.21C26.9646 447.084 27.3558 446.916 27.761 446.735C28.1383 446.567 28.4736 446.33 28.753 446.05C29.0325 445.799 29.1722 445.435 29.2141 445.016C29.3399 443.731 28.6971 443.032 27.244 442.878C26.3358 442.795 25.6652 443.06 25.232 443.675C24.7989 444.29 24.5893 445.016 24.6033 445.841ZM21.5434 456.04L29.3259 456.809L28.5854 464.214L20.8029 463.446L21.5434 456.04ZM40.7831 603.573L21.3338 609.162L16.0104 590.662L35.4597 585.074L40.7831 603.573ZM-5.96789 568.838C-6.63855 565.834 -6.83416 562.802 -6.69444 559.686C-6.48486 556.556 -5.70241 553.594 -4.27725 550.758C-2.90797 547.922 -0.756255 545.309 2.03819 542.989C4.86057 540.656 8.57717 538.854 13.188 537.498C17.729 536.185 21.739 535.724 25.2041 536.031C28.6413 536.339 31.6313 537.177 34.0764 538.532C36.5635 539.874 38.5755 541.578 40.1264 543.562C41.6773 545.616 42.837 547.628 43.5636 549.626C44.3879 552.504 44.6674 554.95 44.4438 556.92C44.2063 558.918 43.6474 560.664 42.7671 562.215C41.9009 563.738 40.839 565.121 39.5535 566.323C38.2821 567.552 36.9966 568.782 35.6693 570.026C34.7751 570.92 34.0485 571.716 33.5315 572.485C33.0146 573.225 32.6513 573.952 32.4557 574.706C32.2601 575.447 32.1902 576.229 32.274 577.081C32.3439 577.92 32.5535 578.898 32.8469 579.96L15.5493 584.92C15.2279 584.012 14.8507 582.838 14.4595 581.399C13.9984 579.904 13.7469 578.325 13.677 576.648C13.6072 574.986 13.8028 573.281 14.3477 571.507C14.8367 569.732 15.8567 568.111 17.3797 566.602C18.0364 565.988 18.7629 565.331 19.6292 564.59C20.5234 563.892 21.3338 563.137 22.0603 562.341C22.8288 561.53 23.4017 560.678 23.7929 559.742C24.24 558.82 24.268 557.856 23.9745 556.78C23.0663 553.622 20.8029 552.532 17.1841 553.58C14.9485 554.195 13.5792 555.48 13.1042 557.367C12.6571 559.267 12.7828 561.195 13.5792 563.221L-5.96789 568.838ZM204.551 440.154L209.875 458.639L190.425 464.228L185.116 445.743L204.551 440.154ZM163.138 423.918C162.481 420.914 162.257 417.882 162.439 414.752C162.635 411.623 163.417 408.647 164.814 405.81C166.212 402.988 168.335 400.389 171.158 398.056C173.952 395.736 177.683 393.906 182.294 392.579C186.835 391.265 190.845 390.79 194.31 391.084C197.761 391.419 200.723 392.271 203.21 393.599C205.697 394.926 207.709 396.617 209.274 398.656C210.825 400.668 211.943 402.68 212.711 404.706C213.535 407.585 213.773 410.016 213.577 411.986C213.312 413.984 212.767 415.744 211.887 417.295C211.02 418.818 209.959 420.188 208.673 421.389C207.416 422.605 206.102 423.848 204.831 425.106C203.881 425.986 203.182 426.769 202.651 427.551C202.134 428.305 201.785 429.046 201.575 429.787C201.366 430.499 201.31 431.296 201.366 432.162C201.477 433 201.659 433.978 201.966 435.026L184.669 439.986C184.347 439.078 183.956 437.89 183.551 436.451C183.104 434.97 182.852 433.405 182.783 431.715C182.727 430.052 182.922 428.347 183.439 426.587C183.942 424.812 184.962 423.178 186.485 421.655C187.142 421.054 187.882 420.411 188.749 419.671C189.615 418.944 190.411 418.19 191.18 417.421C191.92 416.611 192.521 415.758 192.898 414.822C193.332 413.886 193.36 412.908 193.094 411.846C192.172 408.675 189.908 407.613 186.304 408.605C184.068 409.261 182.699 410.533 182.238 412.419C181.777 414.319 181.916 416.275 182.699 418.273L163.138 423.918ZM84.2646 641.158L69.3842 638.364C69.9571 636.142 70.8233 634.032 71.997 632.006C73.1567 630.022 74.6657 628.304 76.5519 626.878C78.4242 625.467 80.7157 624.447 83.3564 623.846C85.9971 623.232 89.085 623.246 92.592 623.902C96.0851 624.545 98.9075 625.565 101.101 626.934C103.295 628.332 104.985 629.882 106.187 631.573C107.389 633.306 108.171 635.15 108.534 637.008C108.898 638.867 108.981 640.585 108.786 642.164C108.395 644.316 107.766 646.034 106.941 647.292C106.103 648.577 105.167 649.513 104.063 650.296C102.959 651.008 101.8 651.553 100.542 651.903C99.2847 652.294 98.0132 652.699 96.7278 653.076C95.8336 653.356 95.0791 653.649 94.4783 653.998C93.8914 654.292 93.3884 654.655 93.0112 655.102C92.6619 655.507 92.3545 656.01 92.103 656.583C91.8794 657.184 91.6838 657.911 91.5301 658.693L78.3544 656.192C78.4522 655.507 78.5919 654.585 78.8015 653.495C78.9971 652.364 79.3743 651.232 79.8773 650.058C80.3803 648.927 81.0929 647.865 82.029 646.859C82.9652 645.853 84.1808 645.112 85.6898 644.595C86.3325 644.4 87.0451 644.274 87.8694 644.064C88.7077 643.855 89.4622 643.631 90.2447 643.338C90.9992 643.072 91.6838 642.709 92.2707 642.22C92.8435 641.745 93.2068 641.13 93.3745 640.25C93.8216 637.861 92.6759 636.407 89.9233 635.89C88.2187 635.569 86.8634 635.96 85.9413 637.036C84.9911 638.182 84.4323 639.551 84.2646 641.158ZM76.7336 660.258L91.5441 663.011L88.9173 677.108L74.1068 674.342L76.7336 660.258Z" fill="url(#paint5_linear_148_16)"/>
</g>
<path d="M140.648 39.3636V35.5455H155.818V39.3636H150.568V53H145.898V39.3636H140.648ZM157.602 53V35.5455H170.181V39.3636H162.34V42.3636H169.533V46.1818H162.34V49.1818H170.147V53H157.602ZM188.827 42.0909H184.02C183.986 41.6932 183.895 41.3324 183.747 41.0085C183.605 40.6847 183.406 40.4062 183.151 40.1733C182.901 39.9347 182.597 39.7528 182.239 39.6278C181.881 39.4972 181.474 39.4318 181.02 39.4318C180.224 39.4318 179.551 39.625 179 40.0114C178.455 40.3977 178.04 40.9517 177.756 41.6733C177.477 42.3949 177.338 43.2614 177.338 44.2727C177.338 45.3409 177.48 46.2358 177.764 46.9574C178.054 47.6733 178.472 48.2131 179.017 48.5767C179.563 48.9347 180.219 49.1136 180.986 49.1136C181.423 49.1136 181.815 49.0597 182.162 48.9517C182.509 48.8381 182.81 48.6761 183.065 48.4659C183.321 48.2557 183.528 48.0028 183.688 47.7074C183.852 47.4062 183.963 47.0682 184.02 46.6932L188.827 46.7273C188.77 47.4659 188.563 48.2187 188.205 48.9858C187.847 49.7472 187.338 50.4517 186.679 51.0994C186.026 51.7415 185.216 52.2585 184.25 52.6506C183.284 53.0426 182.162 53.2386 180.884 53.2386C179.281 53.2386 177.844 52.8949 176.571 52.2074C175.304 51.5199 174.301 50.5085 173.562 49.1733C172.83 47.8381 172.463 46.2045 172.463 44.2727C172.463 42.3295 172.838 40.6932 173.588 39.3636C174.338 38.0284 175.349 37.0199 176.622 36.3381C177.895 35.6506 179.315 35.3068 180.884 35.3068C181.986 35.3068 183 35.4574 183.926 35.7585C184.852 36.0597 185.665 36.5 186.364 37.0795C187.063 37.6534 187.625 38.3608 188.051 39.2017C188.477 40.0426 188.736 41.0057 188.827 42.0909ZM190.977 53V35.5455H195.715V42.3636H201.988V35.5455H206.727V53H201.988V46.1818H195.715V53H190.977ZM224.079 35.5455V53H220.124L213.817 43.8295H213.715V53H208.977V35.5455H212.999L219.204 44.6818H219.34V35.5455H224.079ZM243.229 44.2727C243.229 46.2159 242.852 47.8551 242.096 49.1903C241.34 50.5199 240.32 51.5284 239.036 52.2159C237.752 52.8977 236.32 53.2386 234.741 53.2386C233.15 53.2386 231.712 52.8949 230.428 52.2074C229.15 51.5142 228.133 50.5028 227.377 49.1733C226.627 47.8381 226.252 46.2045 226.252 44.2727C226.252 42.3295 226.627 40.6932 227.377 39.3636C228.133 38.0284 229.15 37.0199 230.428 36.3381C231.712 35.6506 233.15 35.3068 234.741 35.3068C236.32 35.3068 237.752 35.6506 239.036 36.3381C240.32 37.0199 241.34 38.0284 242.096 39.3636C242.852 40.6932 243.229 42.3295 243.229 44.2727ZM238.354 44.2727C238.354 43.2273 238.215 42.3466 237.937 41.6307C237.664 40.9091 237.258 40.3636 236.718 39.9943C236.184 39.6193 235.525 39.4318 234.741 39.4318C233.957 39.4318 233.295 39.6193 232.755 39.9943C232.221 40.3636 231.815 40.9091 231.536 41.6307C231.263 42.3466 231.127 43.2273 231.127 44.2727C231.127 45.3182 231.263 46.2017 231.536 46.9233C231.815 47.6392 232.221 48.1847 232.755 48.5597C233.295 48.929 233.957 49.1136 234.741 49.1136C235.525 49.1136 236.184 48.929 236.718 48.5597C237.258 48.1847 237.664 47.6392 237.937 46.9233C238.215 46.2017 238.354 45.3182 238.354 44.2727ZM254.831 41C254.786 40.4318 254.572 39.9886 254.192 39.6705C253.817 39.3523 253.246 39.1932 252.479 39.1932C251.99 39.1932 251.589 39.2528 251.277 39.3722C250.97 39.4858 250.743 39.642 250.595 39.8409C250.447 40.0398 250.371 40.267 250.365 40.5227C250.354 40.733 250.391 40.9233 250.476 41.0938C250.567 41.2585 250.709 41.4091 250.902 41.5455C251.095 41.6761 251.342 41.7955 251.643 41.9034C251.945 42.0114 252.303 42.108 252.717 42.1932L254.149 42.5C255.115 42.7045 255.942 42.9744 256.629 43.3097C257.317 43.6449 257.879 44.0398 258.317 44.4943C258.754 44.9432 259.075 45.4489 259.28 46.0114C259.49 46.5739 259.598 47.1875 259.604 47.8523C259.598 49 259.311 49.9716 258.743 50.767C258.175 51.5625 257.362 52.1676 256.305 52.5824C255.254 52.9972 253.99 53.2045 252.513 53.2045C250.996 53.2045 249.672 52.9801 248.541 52.5312C247.416 52.0824 246.541 51.392 245.916 50.4602C245.297 49.5227 244.984 48.3239 244.979 46.8636H249.479C249.507 47.3977 249.641 47.8466 249.879 48.2102C250.118 48.5739 250.453 48.8494 250.885 49.0369C251.322 49.2244 251.842 49.3182 252.445 49.3182C252.95 49.3182 253.374 49.2557 253.714 49.1307C254.055 49.0057 254.314 48.8324 254.49 48.6108C254.666 48.3892 254.757 48.1364 254.763 47.8523C254.757 47.5852 254.669 47.3523 254.499 47.1534C254.334 46.9489 254.061 46.767 253.68 46.608C253.3 46.4432 252.786 46.2898 252.138 46.1477L250.399 45.7727C248.854 45.4375 247.635 44.8778 246.743 44.0938C245.857 43.304 245.416 42.2273 245.422 40.8636C245.416 39.7557 245.712 38.7869 246.308 37.9574C246.911 37.1222 247.743 36.4716 248.805 36.0057C249.874 35.5398 251.098 35.3068 252.479 35.3068C253.888 35.3068 255.107 35.5426 256.135 36.0142C257.163 36.4858 257.956 37.1506 258.513 38.0085C259.075 38.8608 259.359 39.858 259.365 41H254.831ZM261.406 53V35.5455H268.94C270.236 35.5455 271.369 35.8011 272.341 36.3125C273.313 36.8239 274.068 37.5426 274.608 38.4688C275.148 39.3949 275.418 40.4773 275.418 41.7159C275.418 42.9659 275.139 44.0483 274.582 44.9631C274.031 45.8778 273.256 46.5824 272.256 47.0767C271.261 47.571 270.099 47.8182 268.77 47.8182H264.27V44.1364H267.815C268.372 44.1364 268.847 44.0398 269.239 43.8466C269.636 43.6477 269.94 43.3665 270.151 43.0028C270.366 42.6392 270.474 42.2102 270.474 41.7159C270.474 41.2159 270.366 40.7898 270.151 40.4375C269.94 40.0795 269.636 39.8068 269.239 39.6193C268.847 39.4261 268.372 39.3295 267.815 39.3295H266.145V53H261.406ZM279.511 53H274.397L280.158 35.5455H286.636L292.397 53H287.283L283.465 40.3523H283.329L279.511 53ZM278.556 46.1136H288.17V49.6591H278.556V46.1136ZM294.078 53V35.5455H301.612C302.908 35.5455 304.041 35.7812 305.013 36.2528C305.984 36.7244 306.74 37.4034 307.28 38.2898C307.82 39.1761 308.089 40.2386 308.089 41.4773C308.089 42.7273 307.811 43.7812 307.254 44.6392C306.703 45.4972 305.928 46.1449 304.928 46.5824C303.933 47.0199 302.771 47.2386 301.442 47.2386H296.942V43.5568H300.487C301.044 43.5568 301.518 43.4886 301.911 43.3523C302.308 43.2102 302.612 42.9858 302.822 42.679C303.038 42.3722 303.146 41.9716 303.146 41.4773C303.146 40.9773 303.038 40.571 302.822 40.2585C302.612 39.9403 302.308 39.7074 301.911 39.5597C301.518 39.4062 301.044 39.3295 300.487 39.3295H298.817V53H294.078ZM304.305 44.9886L308.669 53H303.521L299.26 44.9886H304.305ZM315.189 35.5455L318.053 40.625H318.189L321.087 35.5455H326.371L321.155 44.2727L326.575 53H321.155L318.189 47.8182H318.053L315.087 53H309.7L315.053 44.2727L309.871 35.5455H315.189Z" fill="white"/>
<g opacity="0.23">
<path d="M1112.78 225.433C1140.51 225.433 1163 203.212 1163 175.802C1163 148.392 1140.51 126.171 1112.78 126.171C1085.04 126.171 1062.56 148.392 1062.56 175.802C1062.56 203.212 1085.04 225.433 1112.78 225.433Z" stroke="url(#paint6_linear_148_16)" stroke-width="10" stroke-miterlimit="10" stroke-linecap="round" stroke-linejoin="round"/>
<path d="M1112.78 154.532V197.072" stroke="url(#paint7_linear_148_16)" stroke-width="10" stroke-miterlimit="10" stroke-linecap="round" stroke-linejoin="round"/>
<path d="M1091.25 175.802H1134.3" stroke="url(#paint8_linear_148_16)" stroke-width="10" stroke-miterlimit="10" stroke-linecap="round" stroke-linejoin="round"/>
<path d="M1130.71 34C1132.15 34 1132.87 34 1134.3 34C1152.96 36.127 1162.28 58.1063 1151.52 73.7045L1116.37 126.171" stroke="url(#paint9_linear_148_16)" stroke-width="10" stroke-miterlimit="10" stroke-linecap="round" stroke-linejoin="round"/>
<path d="M1127.13 34H1008.75" stroke="url(#paint10_linear_148_16)" stroke-width="10" stroke-miterlimit="10" stroke-linecap="round" stroke-linejoin="round"/>
<path d="M1021.66 85.7576L959.242 177.929C949.198 193.527 957.807 216.215 976.461 218.342C977.896 218.342 978.614 218.342 980.049 218.342H1086.95" stroke="url(#paint11_linear_148_16)" stroke-width="10" stroke-miterlimit="10" stroke-linecap="round" stroke-linejoin="round"/>
<path d="M1005.16 34C989.375 34 976.461 46.7622 976.461 62.3604C976.461 65.9054 977.896 69.4505 979.331 72.2865C983.636 79.3766 992.245 83.6307 1000.85 83.6307H1112.78C1105.6 83.6307 1090.54 63.7784 1106.32 44.6351C1111.34 38.2541 1119.24 34 1127.13 34C1142.91 34 1155.83 46.7622 1155.83 62.3604" stroke="url(#paint12_linear_148_16)" stroke-width="10" stroke-miterlimit="10" stroke-linecap="round" stroke-linejoin="round"/>
<path d="M1033.86 119.081H1069.73" stroke="url(#paint13_linear_148_16)" stroke-width="10" stroke-miterlimit="10" stroke-linecap="round" stroke-linejoin="round"/>
<path d="M1019.51 140.351H1041.03" stroke="url(#paint14_linear_148_16)" stroke-width="10" stroke-miterlimit="10" stroke-linecap="round" stroke-linejoin="round"/>
</g>
</g>
<defs>
<linearGradient id="paint0_linear_148_16" x1="-63.757" y1="-34.0071" x2="-63.757" y2="347.166" gradientUnits="userSpaceOnUse">
<stop stop-color="#FF9E0B"/>
<stop offset="1" stop-color="#EC4899"/>
</linearGradient>
<linearGradient id="paint1_linear_148_16" x1="1173" y1="695.827" x2="1173" y2="969.442" gradientUnits="userSpaceOnUse">
<stop stop-color="#FF9E0B"/>
<stop offset="1" stop-color="#F24E52"/>
</linearGradient>
<linearGradient id="paint2_linear_148_16" x1="882.5" y1="530" x2="882.5" y2="919" gradientUnits="userSpaceOnUse">
<stop stop-color="#FF9E0B"/>
<stop offset="1" stop-color="#9C67E7"/>
</linearGradient>
<linearGradient id="paint3_linear_148_16" x1="491" y1="30" x2="491" y2="162" gradientUnits="userSpaceOnUse">
<stop stop-color="#FF9E0B"/>
<stop offset="1" stop-color="#DA46EB"/>
</linearGradient>
<linearGradient id="paint4_linear_148_16" x1="600" y1="255" x2="600" y2="376" gradientUnits="userSpaceOnUse">
<stop stop-color="#FF9E0B"/>
<stop offset="0.49" stop-color="#F24E52"/>
</linearGradient>
<linearGradient id="paint5_linear_148_16" x1="183.334" y1="391" x2="183.334" y2="801" gradientUnits="userSpaceOnUse">
<stop stop-color="#F24E52"/>
<stop offset="1" stop-color="#4A74F4"/>
</linearGradient>
<linearGradient id="paint6_linear_148_16" x1="1112.78" y1="126.171" x2="1112.78" y2="225.433" gradientUnits="userSpaceOnUse">
<stop stop-color="#F24E52"/>
<stop offset="1" stop-color="#DA46EB"/>
</linearGradient>
<linearGradient id="paint7_linear_148_16" x1="1113.28" y1="154.532" x2="1113.28" y2="197.072" gradientUnits="userSpaceOnUse">
<stop stop-color="#F24E52"/>
<stop offset="1" stop-color="#DA46EB"/>
</linearGradient>
<linearGradient id="paint8_linear_148_16" x1="1112.78" y1="175.802" x2="1112.78" y2="176.802" gradientUnits="userSpaceOnUse">
<stop stop-color="#F24E52"/>
<stop offset="1" stop-color="#DA46EB"/>
</linearGradient>
<linearGradient id="paint9_linear_148_16" x1="1136.22" y1="34" x2="1136.22" y2="126.171" gradientUnits="userSpaceOnUse">
<stop stop-color="#F24E52"/>
<stop offset="1" stop-color="#DA46EB"/>
</linearGradient>
<linearGradient id="paint10_linear_148_16" x1="1067.94" y1="34" x2="1067.94" y2="35" gradientUnits="userSpaceOnUse">
<stop stop-color="#F24E52"/>
<stop offset="1" stop-color="#DA46EB"/>
</linearGradient>
<linearGradient id="paint11_linear_148_16" x1="1020.98" y1="85.7576" x2="1020.98" y2="218.342" gradientUnits="userSpaceOnUse">
<stop stop-color="#F24E52"/>
<stop offset="1" stop-color="#DA46EB"/>
</linearGradient>
<linearGradient id="paint12_linear_148_16" x1="1066.14" y1="34" x2="1066.14" y2="83.6307" gradientUnits="userSpaceOnUse">
<stop stop-color="#F24E52"/>
<stop offset="1" stop-color="#DA46EB"/>
</linearGradient>
<linearGradient id="paint13_linear_148_16" x1="1051.79" y1="119.081" x2="1051.79" y2="120.081" gradientUnits="userSpaceOnUse">
<stop stop-color="#F24E52"/>
<stop offset="1" stop-color="#DA46EB"/>
</linearGradient>
<linearGradient id="paint14_linear_148_16" x1="1030.27" y1="140.351" x2="1030.27" y2="141.351" gradientUnits="userSpaceOnUse">
<stop stop-color="#F24E52"/>
<stop offset="1" stop-color="#DA46EB"/>
</linearGradient>
<clipPath id="clip0_148_16">
<rect width="1200" height="630" fill="white"/>
</clipPath>
</defs>
</svg>
