<svg width="1200" height="630" viewBox="0 0 1200 630" fill="none" xmlns="http://www.w3.org/2000/svg">
<g clip-path="url(#clip0_139_98)">
<rect width="1200" height="630" fill="black"/>
<rect x="-427.809" y="-32.4841" width="729.486" height="376.173" transform="rotate(-19.4848 -427.809 -32.4841)" stroke="url(#paint0_linear_139_98)" stroke-width="5"/>
<rect x="883" y="695.827" width="580" height="273.616" transform="rotate(-35.26 883 695.827)" fill="url(#paint1_linear_139_98)"/>
<circle cx="882.5" cy="724.5" r="193" stroke="url(#paint2_linear_139_98)" stroke-width="3"/>
<path opacity="0.49" d="M415 58.3636C414.121 58.3636 413.367 58.0568 412.739 57.4432C412.117 56.822 411.811 56.0682 411.818 55.1818C411.811 54.3182 412.117 53.5795 412.739 52.9659C413.367 52.3523 414.121 52.0455 415 52.0455C415.833 52.0455 416.568 52.3523 417.205 52.9659C417.848 53.5795 418.174 54.3182 418.182 55.1818C418.174 55.7727 418.019 56.3106 417.716 56.7955C417.42 57.2727 417.034 57.6553 416.557 57.9432C416.08 58.2235 415.561 58.3636 415 58.3636ZM459.003 58.3636C458.124 58.3636 457.37 58.0568 456.741 57.4432C456.12 56.822 455.813 56.0682 455.821 55.1818C455.813 54.3182 456.12 53.5795 456.741 52.9659C457.37 52.3523 458.124 52.0455 459.003 52.0455C459.836 52.0455 460.571 52.3523 461.207 52.9659C461.851 53.5795 462.177 54.3182 462.184 55.1818C462.177 55.7727 462.021 56.3106 461.718 56.7955C461.423 57.2727 461.037 57.6553 460.559 57.9432C460.082 58.2235 459.563 58.3636 459.003 58.3636ZM503.005 58.3636C502.126 58.3636 501.372 58.0568 500.744 57.4432C500.122 56.822 499.816 56.0682 499.823 55.1818C499.816 54.3182 500.122 53.5795 500.744 52.9659C501.372 52.3523 502.126 52.0455 503.005 52.0455C503.838 52.0455 504.573 52.3523 505.21 52.9659C505.853 53.5795 506.179 54.3182 506.187 55.1818C506.179 55.7727 506.024 56.3106 505.721 56.7955C505.425 57.2727 505.039 57.6553 504.562 57.9432C504.085 58.2235 503.566 58.3636 503.005 58.3636ZM547.008 58.3636C546.129 58.3636 545.375 58.0568 544.746 57.4432C544.125 56.822 543.818 56.0682 543.826 55.1818C543.818 54.3182 544.125 53.5795 544.746 52.9659C545.375 52.3523 546.129 52.0455 547.008 52.0455C547.841 52.0455 548.576 52.3523 549.212 52.9659C549.856 53.5795 550.182 54.3182 550.189 55.1818C550.182 55.7727 550.026 56.3106 549.723 56.7955C549.428 57.2727 549.042 57.6553 548.564 57.9432C548.087 58.2235 547.568 58.3636 547.008 58.3636ZM415 91.3636C414.121 91.3636 413.367 91.0568 412.739 90.4432C412.117 89.822 411.811 89.0682 411.818 88.1818C411.811 87.3182 412.117 86.5795 412.739 85.9659C413.367 85.3523 414.121 85.0455 415 85.0455C415.833 85.0455 416.568 85.3523 417.205 85.9659C417.848 86.5795 418.174 87.3182 418.182 88.1818C418.174 88.7727 418.019 89.3106 417.716 89.7955C417.42 90.2727 417.034 90.6553 416.557 90.9432C416.08 91.2235 415.561 91.3636 415 91.3636ZM459.003 91.3636C458.124 91.3636 457.37 91.0568 456.741 90.4432C456.12 89.822 455.813 89.0682 455.821 88.1818C455.813 87.3182 456.12 86.5795 456.741 85.9659C457.37 85.3523 458.124 85.0455 459.003 85.0455C459.836 85.0455 460.571 85.3523 461.207 85.9659C461.851 86.5795 462.177 87.3182 462.184 88.1818C462.177 88.7727 462.021 89.3106 461.718 89.7955C461.423 90.2727 461.037 90.6553 460.559 90.9432C460.082 91.2235 459.563 91.3636 459.003 91.3636ZM503.005 91.3636C502.126 91.3636 501.372 91.0568 500.744 90.4432C500.122 89.822 499.816 89.0682 499.823 88.1818C499.816 87.3182 500.122 86.5795 500.744 85.9659C501.372 85.3523 502.126 85.0455 503.005 85.0455C503.838 85.0455 504.573 85.3523 505.21 85.9659C505.853 86.5795 506.179 87.3182 506.187 88.1818C506.179 88.7727 506.024 89.3106 505.721 89.7955C505.425 90.2727 505.039 90.6553 504.562 90.9432C504.085 91.2235 503.566 91.3636 503.005 91.3636ZM547.008 91.3636C546.129 91.3636 545.375 91.0568 544.746 90.4432C544.125 89.822 543.818 89.0682 543.826 88.1818C543.818 87.3182 544.125 86.5795 544.746 85.9659C545.375 85.3523 546.129 85.0455 547.008 85.0455C547.841 85.0455 548.576 85.3523 549.212 85.9659C549.856 86.5795 550.182 87.3182 550.189 88.1818C550.182 88.7727 550.026 89.3106 549.723 89.7955C549.428 90.2727 549.042 90.6553 548.564 90.9432C548.087 91.2235 547.568 91.3636 547.008 91.3636ZM415 124.364C414.121 124.364 413.367 124.057 412.739 123.443C412.117 122.822 411.811 122.068 411.818 121.182C411.811 120.318 412.117 119.58 412.739 118.966C413.367 118.352 414.121 118.045 415 118.045C415.833 118.045 416.568 118.352 417.205 118.966C417.848 119.58 418.174 120.318 418.182 121.182C418.174 121.773 418.019 122.311 417.716 122.795C417.42 123.273 417.034 123.655 416.557 123.943C416.08 124.223 415.561 124.364 415 124.364ZM459.003 124.364C458.124 124.364 457.37 124.057 456.741 123.443C456.12 122.822 455.813 122.068 455.821 121.182C455.813 120.318 456.12 119.58 456.741 118.966C457.37 118.352 458.124 118.045 459.003 118.045C459.836 118.045 460.571 118.352 461.207 118.966C461.851 119.58 462.177 120.318 462.184 121.182C462.177 121.773 462.021 122.311 461.718 122.795C461.423 123.273 461.037 123.655 460.559 123.943C460.082 124.223 459.563 124.364 459.003 124.364ZM503.005 124.364C502.126 124.364 501.372 124.057 500.744 123.443C500.122 122.822 499.816 122.068 499.823 121.182C499.816 120.318 500.122 119.58 500.744 118.966C501.372 118.352 502.126 118.045 503.005 118.045C503.838 118.045 504.573 118.352 505.21 118.966C505.853 119.58 506.179 120.318 506.187 121.182C506.179 121.773 506.024 122.311 505.721 122.795C505.425 123.273 505.039 123.655 504.562 123.943C504.085 124.223 503.566 124.364 503.005 124.364ZM547.008 124.364C546.129 124.364 545.375 124.057 544.746 123.443C544.125 122.822 543.818 122.068 543.826 121.182C543.818 120.318 544.125 119.58 544.746 118.966C545.375 118.352 546.129 118.045 547.008 118.045C547.841 118.045 548.576 118.352 549.212 118.966C549.856 119.58 550.182 120.318 550.189 121.182C550.182 121.773 550.026 122.311 549.723 122.795C549.428 123.273 549.042 123.655 548.564 123.943C548.087 124.223 547.568 124.364 547.008 124.364ZM415 157.364C414.121 157.364 413.367 157.057 412.739 156.443C412.117 155.822 411.811 155.068 411.818 154.182C411.811 153.318 412.117 152.58 412.739 151.966C413.367 151.352 414.121 151.045 415 151.045C415.833 151.045 416.568 151.352 417.205 151.966C417.848 152.58 418.174 153.318 418.182 154.182C418.174 154.773 418.019 155.311 417.716 155.795C417.42 156.273 417.034 156.655 416.557 156.943C416.08 157.223 415.561 157.364 415 157.364ZM459.003 157.364C458.124 157.364 457.37 157.057 456.741 156.443C456.12 155.822 455.813 155.068 455.821 154.182C455.813 153.318 456.12 152.58 456.741 151.966C457.37 151.352 458.124 151.045 459.003 151.045C459.836 151.045 460.571 151.352 461.207 151.966C461.851 152.58 462.177 153.318 462.184 154.182C462.177 154.773 462.021 155.311 461.718 155.795C461.423 156.273 461.037 156.655 460.559 156.943C460.082 157.223 459.563 157.364 459.003 157.364ZM503.005 157.364C502.126 157.364 501.372 157.057 500.744 156.443C500.122 155.822 499.816 155.068 499.823 154.182C499.816 153.318 500.122 152.58 500.744 151.966C501.372 151.352 502.126 151.045 503.005 151.045C503.838 151.045 504.573 151.352 505.21 151.966C505.853 152.58 506.179 153.318 506.187 154.182C506.179 154.773 506.024 155.311 505.721 155.795C505.425 156.273 505.039 156.655 504.562 156.943C504.085 157.223 503.566 157.364 503.005 157.364ZM547.008 157.364C546.129 157.364 545.375 157.057 544.746 156.443C544.125 155.822 543.818 155.068 543.826 154.182C543.818 153.318 544.125 152.58 544.746 151.966C545.375 151.352 546.129 151.045 547.008 151.045C547.841 151.045 548.576 151.352 549.212 151.966C549.856 152.58 550.182 153.318 550.189 154.182C550.182 154.773 550.026 155.311 549.723 155.795C549.428 156.273 549.042 156.655 548.564 156.943C548.087 157.223 547.568 157.364 547.008 157.364Z" fill="url(#paint3_linear_139_98)"/>
<mask id="path-5-outside-1_139_98" maskUnits="userSpaceOnUse" x="56" y="266" width="1081" height="112" fill="black">
<rect fill="white" x="56" y="266" width="1081" height="112"/>
<path d="M92.4545 277.909L111.545 343.545H112.273L131.364 277.909H159.909L129.182 371H94.6364L63.9091 277.909H92.4545ZM169.239 371V301.182H194.33V371H169.239ZM181.784 293.909C178.39 293.909 175.481 292.788 173.057 290.545C170.633 288.303 169.42 285.606 169.42 282.455C169.42 279.303 170.633 276.606 173.057 274.364C175.481 272.121 178.39 271 181.784 271C185.208 271 188.117 272.121 190.511 274.364C192.936 276.606 194.148 279.303 194.148 282.455C194.148 285.606 192.936 288.303 190.511 290.545C188.117 292.788 185.208 293.909 181.784 293.909ZM270.932 323.909H247.841C247.72 322.485 247.22 321.258 246.341 320.227C245.462 319.197 244.326 318.409 242.932 317.864C241.568 317.288 240.053 317 238.386 317C236.235 317 234.386 317.394 232.841 318.182C231.295 318.97 230.538 320.091 230.568 321.545C230.538 322.576 230.977 323.53 231.886 324.409C232.826 325.288 234.629 325.97 237.295 326.455L251.477 329C258.629 330.303 263.947 332.5 267.432 335.591C270.947 338.652 272.72 342.758 272.75 347.909C272.72 352.879 271.235 357.197 268.295 360.864C265.386 364.5 261.402 367.318 256.341 369.318C251.311 371.288 245.568 372.273 239.114 372.273C228.447 372.273 220.098 370.091 214.068 365.727C208.068 361.364 204.72 355.606 204.023 348.455H228.932C229.265 350.667 230.356 352.379 232.205 353.591C234.083 354.773 236.447 355.364 239.295 355.364C241.598 355.364 243.492 354.97 244.977 354.182C246.492 353.394 247.265 352.273 247.295 350.818C247.265 349.485 246.598 348.424 245.295 347.636C244.023 346.848 242.023 346.212 239.295 345.727L226.932 343.545C219.811 342.303 214.477 339.939 210.932 336.455C207.386 332.97 205.629 328.485 205.659 323C205.629 318.152 206.902 314.045 209.477 310.682C212.083 307.288 215.795 304.712 220.614 302.955C225.462 301.167 231.205 300.273 237.841 300.273C247.932 300.273 255.886 302.364 261.705 306.545C267.553 310.727 270.629 316.515 270.932 323.909ZM307.455 331.727V371H282.364V277.909H306.545V314.455H307.273C308.848 310 311.47 306.53 315.136 304.045C318.803 301.53 323.212 300.273 328.364 300.273C333.303 300.273 337.591 301.394 341.227 303.636C344.894 305.879 347.727 308.97 349.727 312.909C351.758 316.848 352.758 321.364 352.727 326.455V371H327.636V331.727C327.667 328.273 326.803 325.561 325.045 323.591C323.318 321.621 320.848 320.636 317.636 320.636C315.606 320.636 313.818 321.091 312.273 322C310.758 322.879 309.576 324.152 308.727 325.818C307.909 327.455 307.485 329.424 307.455 331.727ZM377.477 371L360.023 301.182H385.114L393.114 343.727H393.659L402.568 301.182H426.932L436.205 343.364H436.75L444.386 301.182H469.477L452.023 371H424.932L415.114 333.545H414.386L404.568 371H377.477ZM496.568 372.091C492.114 372.091 488.174 371.364 484.75 369.909C481.356 368.424 478.689 366.182 476.75 363.182C474.811 360.182 473.841 356.364 473.841 351.727C473.841 347.909 474.492 344.652 475.795 341.955C477.098 339.227 478.917 337 481.25 335.273C483.583 333.545 486.295 332.227 489.386 331.318C492.508 330.409 495.871 329.818 499.477 329.545C503.386 329.242 506.523 328.879 508.886 328.455C511.28 328 513.008 327.379 514.068 326.591C515.129 325.773 515.659 324.697 515.659 323.364V323.182C515.659 321.364 514.962 319.97 513.568 319C512.174 318.03 510.386 317.545 508.205 317.545C505.811 317.545 503.856 318.076 502.341 319.136C500.856 320.167 499.962 321.758 499.659 323.909H476.568C476.871 319.667 478.22 315.758 480.614 312.182C483.038 308.576 486.568 305.697 491.205 303.545C495.841 301.364 501.629 300.273 508.568 300.273C513.568 300.273 518.053 300.864 522.023 302.045C525.992 303.197 529.371 304.818 532.159 306.909C534.947 308.97 537.068 311.394 538.523 314.182C540.008 316.939 540.75 319.939 540.75 323.182V371H517.295V361.182H516.75C515.356 363.788 513.659 365.894 511.659 367.5C509.689 369.106 507.432 370.273 504.886 371C502.371 371.727 499.598 372.091 496.568 372.091ZM504.75 356.273C506.659 356.273 508.447 355.879 510.114 355.091C511.811 354.303 513.189 353.167 514.25 351.682C515.311 350.197 515.841 348.394 515.841 346.273V340.455C515.174 340.727 514.462 340.985 513.705 341.227C512.977 341.47 512.189 341.697 511.341 341.909C510.523 342.121 509.644 342.318 508.705 342.5C507.795 342.682 506.841 342.848 505.841 343C503.902 343.303 502.311 343.803 501.068 344.5C499.856 345.167 498.947 346 498.341 347C497.765 347.97 497.477 349.061 497.477 350.273C497.477 352.212 498.159 353.697 499.523 354.727C500.886 355.758 502.629 356.273 504.75 356.273ZM577.875 371V277.909H618.057C624.966 277.909 631.011 279.273 636.193 282C641.375 284.727 645.405 288.561 648.284 293.5C651.163 298.439 652.602 304.212 652.602 310.818C652.602 317.485 651.117 323.258 648.148 328.136C645.208 333.015 641.072 336.773 635.739 339.409C630.436 342.045 624.239 343.364 617.148 343.364H593.148V323.727H612.057C615.027 323.727 617.557 323.212 619.648 322.182C621.769 321.121 623.39 319.621 624.511 317.682C625.663 315.742 626.239 313.455 626.239 310.818C626.239 308.152 625.663 305.879 624.511 304C623.39 302.091 621.769 300.636 619.648 299.636C617.557 298.606 615.027 298.091 612.057 298.091H603.148V371H577.875ZM678.568 372.091C674.114 372.091 670.174 371.364 666.75 369.909C663.356 368.424 660.689 366.182 658.75 363.182C656.811 360.182 655.841 356.364 655.841 351.727C655.841 347.909 656.492 344.652 657.795 341.955C659.098 339.227 660.917 337 663.25 335.273C665.583 333.545 668.295 332.227 671.386 331.318C674.508 330.409 677.871 329.818 681.477 329.545C685.386 329.242 688.523 328.879 690.886 328.455C693.28 328 695.008 327.379 696.068 326.591C697.129 325.773 697.659 324.697 697.659 323.364V323.182C697.659 321.364 696.962 319.97 695.568 319C694.174 318.03 692.386 317.545 690.205 317.545C687.811 317.545 685.856 318.076 684.341 319.136C682.856 320.167 681.962 321.758 681.659 323.909H658.568C658.871 319.667 660.22 315.758 662.614 312.182C665.038 308.576 668.568 305.697 673.205 303.545C677.841 301.364 683.629 300.273 690.568 300.273C695.568 300.273 700.053 300.864 704.023 302.045C707.992 303.197 711.371 304.818 714.159 306.909C716.947 308.97 719.068 311.394 720.523 314.182C722.008 316.939 722.75 319.939 722.75 323.182V371H699.295V361.182H698.75C697.356 363.788 695.659 365.894 693.659 367.5C691.689 369.106 689.432 370.273 686.886 371C684.371 371.727 681.598 372.091 678.568 372.091ZM686.75 356.273C688.659 356.273 690.447 355.879 692.114 355.091C693.811 354.303 695.189 353.167 696.25 351.682C697.311 350.197 697.841 348.394 697.841 346.273V340.455C697.174 340.727 696.462 340.985 695.705 341.227C694.977 341.47 694.189 341.697 693.341 341.909C692.523 342.121 691.644 342.318 690.705 342.5C689.795 342.682 688.841 342.848 687.841 343C685.902 343.303 684.311 343.803 683.068 344.5C681.856 345.167 680.947 346 680.341 347C679.765 347.97 679.477 349.061 679.477 350.273C679.477 352.212 680.159 353.697 681.523 354.727C682.886 355.758 684.629 356.273 686.75 356.273ZM734.739 371V301.182H759.102V314.455H759.83C761.102 309.545 763.117 305.955 765.875 303.682C768.663 301.409 771.92 300.273 775.648 300.273C776.739 300.273 777.814 300.364 778.875 300.545C779.966 300.697 781.011 300.924 782.011 301.227V322.636C780.769 322.212 779.239 321.894 777.42 321.682C775.602 321.47 774.042 321.364 772.739 321.364C770.284 321.364 768.072 321.924 766.102 323.045C764.163 324.136 762.633 325.682 761.511 327.682C760.39 329.652 759.83 331.97 759.83 334.636V371H734.739ZM790.239 371V301.182H815.33V371H790.239ZM802.784 293.909C799.39 293.909 796.481 292.788 794.057 290.545C791.633 288.303 790.42 285.606 790.42 282.455C790.42 279.303 791.633 276.606 794.057 274.364C796.481 272.121 799.39 271 802.784 271C806.208 271 809.117 272.121 811.511 274.364C813.936 276.606 815.148 279.303 815.148 282.455C815.148 285.606 813.936 288.303 811.511 290.545C809.117 292.788 806.208 293.909 802.784 293.909ZM891.932 323.909H868.841C868.72 322.485 868.22 321.258 867.341 320.227C866.462 319.197 865.326 318.409 863.932 317.864C862.568 317.288 861.053 317 859.386 317C857.235 317 855.386 317.394 853.841 318.182C852.295 318.97 851.538 320.091 851.568 321.545C851.538 322.576 851.977 323.53 852.886 324.409C853.826 325.288 855.629 325.97 858.295 326.455L872.477 329C879.629 330.303 884.947 332.5 888.432 335.591C891.947 338.652 893.72 342.758 893.75 347.909C893.72 352.879 892.235 357.197 889.295 360.864C886.386 364.5 882.402 367.318 877.341 369.318C872.311 371.288 866.568 372.273 860.114 372.273C849.447 372.273 841.098 370.091 835.068 365.727C829.068 361.364 825.72 355.606 825.023 348.455H849.932C850.265 350.667 851.356 352.379 853.205 353.591C855.083 354.773 857.447 355.364 860.295 355.364C862.598 355.364 864.492 354.97 865.977 354.182C867.492 353.394 868.265 352.273 868.295 350.818C868.265 349.485 867.598 348.424 866.295 347.636C865.023 346.848 863.023 346.212 860.295 345.727L847.932 343.545C840.811 342.303 835.477 339.939 831.932 336.455C828.386 332.97 826.629 328.485 826.659 323C826.629 318.152 827.902 314.045 830.477 310.682C833.083 307.288 836.795 304.712 841.614 302.955C846.462 301.167 852.205 300.273 858.841 300.273C868.932 300.273 876.886 302.364 882.705 306.545C888.553 310.727 891.629 316.515 891.932 323.909ZM928.455 331.727V371H903.364V277.909H927.545V314.455H928.273C929.848 310 932.47 306.53 936.136 304.045C939.803 301.53 944.212 300.273 949.364 300.273C954.303 300.273 958.591 301.394 962.227 303.636C965.894 305.879 968.727 308.97 970.727 312.909C972.758 316.848 973.758 321.364 973.727 326.455V371H948.636V331.727C948.667 328.273 947.803 325.561 946.045 323.591C944.318 321.621 941.848 320.636 938.636 320.636C936.606 320.636 934.818 321.091 933.273 322C931.758 322.879 930.576 324.152 929.727 325.818C928.909 327.455 928.485 329.424 928.455 331.727ZM1005.57 372.091C1001.11 372.091 997.174 371.364 993.75 369.909C990.356 368.424 987.689 366.182 985.75 363.182C983.811 360.182 982.841 356.364 982.841 351.727C982.841 347.909 983.492 344.652 984.795 341.955C986.098 339.227 987.917 337 990.25 335.273C992.583 333.545 995.295 332.227 998.386 331.318C1001.51 330.409 1004.87 329.818 1008.48 329.545C1012.39 329.242 1015.52 328.879 1017.89 328.455C1020.28 328 1022.01 327.379 1023.07 326.591C1024.13 325.773 1024.66 324.697 1024.66 323.364V323.182C1024.66 321.364 1023.96 319.97 1022.57 319C1021.17 318.03 1019.39 317.545 1017.2 317.545C1014.81 317.545 1012.86 318.076 1011.34 319.136C1009.86 320.167 1008.96 321.758 1008.66 323.909H985.568C985.871 319.667 987.22 315.758 989.614 312.182C992.038 308.576 995.568 305.697 1000.2 303.545C1004.84 301.364 1010.63 300.273 1017.57 300.273C1022.57 300.273 1027.05 300.864 1031.02 302.045C1034.99 303.197 1038.37 304.818 1041.16 306.909C1043.95 308.97 1046.07 311.394 1047.52 314.182C1049.01 316.939 1049.75 319.939 1049.75 323.182V371H1026.3V361.182H1025.75C1024.36 363.788 1022.66 365.894 1020.66 367.5C1018.69 369.106 1016.43 370.273 1013.89 371C1011.37 371.727 1008.6 372.091 1005.57 372.091ZM1013.75 356.273C1015.66 356.273 1017.45 355.879 1019.11 355.091C1020.81 354.303 1022.19 353.167 1023.25 351.682C1024.31 350.197 1024.84 348.394 1024.84 346.273V340.455C1024.17 340.727 1023.46 340.985 1022.7 341.227C1021.98 341.47 1021.19 341.697 1020.34 341.909C1019.52 342.121 1018.64 342.318 1017.7 342.5C1016.8 342.682 1015.84 342.848 1014.84 343C1012.9 343.303 1011.31 343.803 1010.07 344.5C1008.86 345.167 1007.95 346 1007.34 347C1006.77 347.97 1006.48 349.061 1006.48 350.273C1006.48 352.212 1007.16 353.697 1008.52 354.727C1009.89 355.758 1011.63 356.273 1013.75 356.273ZM1087.01 371.909C1082.04 371.909 1077.47 370.606 1073.28 368C1069.13 365.394 1065.8 361.439 1063.28 356.136C1060.8 350.833 1059.56 344.152 1059.56 336.091C1059.56 327.667 1060.86 320.818 1063.47 315.545C1066.1 310.273 1069.5 306.409 1073.65 303.955C1077.83 301.5 1082.22 300.273 1086.83 300.273C1090.28 300.273 1093.31 300.879 1095.92 302.091C1098.53 303.273 1100.71 304.864 1102.47 306.864C1104.22 308.833 1105.56 311 1106.47 313.364H1106.83V277.909H1131.92V371H1107.01V359.545H1106.47C1105.5 361.909 1104.1 364.03 1102.28 365.909C1100.5 367.758 1098.31 369.227 1095.74 370.318C1093.19 371.379 1090.28 371.909 1087.01 371.909ZM1096.28 352.636C1098.59 352.636 1100.56 351.97 1102.19 350.636C1103.86 349.273 1105.13 347.364 1106.01 344.909C1106.92 342.424 1107.38 339.485 1107.38 336.091C1107.38 332.636 1106.92 329.682 1106.01 327.227C1105.13 324.742 1103.86 322.848 1102.19 321.545C1100.56 320.212 1098.59 319.545 1096.28 319.545C1093.98 319.545 1092.01 320.212 1090.38 321.545C1088.77 322.848 1087.53 324.742 1086.65 327.227C1085.8 329.682 1085.38 332.636 1085.38 336.091C1085.38 339.545 1085.8 342.515 1086.65 345C1087.53 347.455 1088.77 349.348 1090.38 350.682C1092.01 351.985 1093.98 352.636 1096.28 352.636Z"/>
</mask>
<path d="M92.4545 277.909L97.2556 276.513L96.2075 272.909H92.4545V277.909ZM111.545 343.545L106.744 344.942L107.793 348.545H111.545V343.545ZM112.273 343.545V348.545H116.026L117.074 344.942L112.273 343.545ZM131.364 277.909V272.909H127.611L126.563 276.513L131.364 277.909ZM159.909 277.909L164.657 279.476L166.825 272.909H159.909V277.909ZM129.182 371V376H132.797L133.93 372.567L129.182 371ZM94.6364 371L89.8883 372.567L91.0214 376H94.6364V371ZM63.9091 277.909V272.909H56.9934L59.1611 279.476L63.9091 277.909ZM87.6535 279.306L106.744 344.942L116.346 342.149L97.2556 276.513L87.6535 279.306ZM111.545 348.545H112.273V338.545H111.545V348.545ZM117.074 344.942L136.165 279.306L126.563 276.513L107.472 342.149L117.074 344.942ZM131.364 282.909H159.909V272.909H131.364V282.909ZM155.161 276.342L124.434 369.433L133.93 372.567L164.657 279.476L155.161 276.342ZM129.182 366H94.6364V376H129.182V366ZM99.3844 369.433L68.6571 276.342L59.1611 279.476L89.8883 372.567L99.3844 369.433ZM63.9091 282.909H92.4545V272.909H63.9091V282.909ZM169.239 371H164.239V376H169.239V371ZM169.239 301.182V296.182H164.239V301.182H169.239ZM194.33 301.182H199.33V296.182H194.33V301.182ZM194.33 371V376H199.33V371H194.33ZM173.057 290.545L169.662 294.216L169.662 294.216L173.057 290.545ZM173.057 274.364L169.662 270.693L169.662 270.693L173.057 274.364ZM190.511 274.364L187.093 278.013L187.105 278.023L187.116 278.034L190.511 274.364ZM190.511 290.545L187.116 286.875L187.105 286.886L187.093 286.896L190.511 290.545ZM174.239 371V301.182H164.239V371H174.239ZM169.239 306.182H194.33V296.182H169.239V306.182ZM189.33 301.182V371H199.33V301.182H189.33ZM194.33 366H169.239V376H194.33V366ZM181.784 288.909C179.61 288.909 177.924 288.237 176.452 286.875L169.662 294.216C173.038 297.339 177.17 298.909 181.784 298.909V288.909ZM176.452 286.875C174.996 285.528 174.42 284.139 174.42 282.455H164.42C164.42 287.073 166.269 291.078 169.662 294.216L176.452 286.875ZM174.42 282.455C174.42 280.77 174.996 279.381 176.452 278.034L169.662 270.693C166.269 273.831 164.42 277.836 164.42 282.455H174.42ZM176.452 278.034C177.924 276.672 179.61 276 181.784 276V266C177.17 266 173.038 267.57 169.662 270.693L176.452 278.034ZM181.784 276C184 276 185.67 276.679 187.093 278.013L193.93 270.715C190.565 267.563 186.416 266 181.784 266V276ZM187.116 278.034C188.573 279.381 189.148 280.77 189.148 282.455H199.148C199.148 277.836 197.299 273.831 193.907 270.693L187.116 278.034ZM189.148 282.455C189.148 284.139 188.573 285.528 187.116 286.875L193.907 294.216C197.299 291.078 199.148 287.073 199.148 282.455H189.148ZM187.093 286.896C185.67 288.23 184 288.909 181.784 288.909V298.909C186.416 298.909 190.565 297.346 193.93 294.195L187.093 286.896ZM270.932 323.909V328.909H276.141L275.928 323.704L270.932 323.909ZM247.841 323.909L242.859 324.333L243.248 328.909H247.841V323.909ZM246.341 320.227L250.145 316.983L246.341 320.227ZM242.932 317.864L240.987 322.47L241.048 322.496L241.11 322.52L242.932 317.864ZM232.841 318.182L230.57 313.727L232.841 318.182ZM230.568 321.545L235.566 321.692L235.57 321.567L235.567 321.441L230.568 321.545ZM231.886 324.409L228.411 328.004L228.441 328.032L228.471 328.06L231.886 324.409ZM237.295 326.455L236.401 331.374L236.412 331.376L237.295 326.455ZM251.477 329L252.374 324.081L252.361 324.079L251.477 329ZM267.432 335.591L264.114 339.332L264.131 339.347L264.149 339.362L267.432 335.591ZM272.75 347.909L277.75 347.94L277.75 347.91L277.75 347.88L272.75 347.909ZM268.295 360.864L264.394 357.736L264.391 357.74L268.295 360.864ZM256.341 369.318L258.164 373.974L258.171 373.971L258.179 373.968L256.341 369.318ZM214.068 365.727L211.127 369.771L211.137 369.778L214.068 365.727ZM204.023 348.455V343.455H198.512L199.046 348.94L204.023 348.455ZM228.932 348.455L233.876 347.71L233.235 343.455H228.932V348.455ZM232.205 353.591L229.463 357.772L229.502 357.798L229.542 357.823L232.205 353.591ZM244.977 354.182L242.671 349.746L242.652 349.755L242.634 349.765L244.977 354.182ZM247.295 350.818L252.294 350.922L252.297 350.813L252.294 350.705L247.295 350.818ZM245.295 347.636L242.664 351.888L242.686 351.901L242.708 351.915L245.295 347.636ZM239.295 345.727L240.171 340.804L240.164 340.803L239.295 345.727ZM226.932 343.545L227.801 338.622L227.791 338.62L226.932 343.545ZM210.932 336.455L214.437 332.889L210.932 336.455ZM205.659 323L210.659 323.028L210.659 322.998L210.659 322.969L205.659 323ZM209.477 310.682L205.512 307.637L205.508 307.642L209.477 310.682ZM220.614 302.955L222.327 307.652L222.335 307.649L222.344 307.646L220.614 302.955ZM261.705 306.545L258.786 310.606L258.796 310.613L261.705 306.545ZM270.932 318.909H247.841V328.909H270.932V318.909ZM252.823 323.485C252.618 321.082 251.74 318.853 250.145 316.983L242.537 323.472C242.699 323.662 242.821 323.888 242.859 324.333L252.823 323.485ZM250.145 316.983C248.677 315.262 246.832 314.021 244.754 313.207L241.11 322.52C241.819 322.797 242.247 323.132 242.537 323.472L250.145 316.983ZM244.877 313.257C242.825 312.391 240.637 312 238.386 312V322C239.469 322 240.312 322.185 240.987 322.47L244.877 313.257ZM238.386 312C235.631 312 232.968 312.505 230.57 313.727L235.112 322.636C235.805 322.283 236.838 322 238.386 322V312ZM230.57 313.727C229.251 314.4 227.939 315.382 226.971 316.814C225.969 318.297 225.534 319.971 225.569 321.65L235.567 321.441C235.569 321.529 235.56 321.682 235.505 321.876C235.45 322.072 235.362 322.257 235.257 322.413C235.046 322.724 234.886 322.752 235.112 322.636L230.57 313.727ZM225.57 321.398C225.49 324.145 226.738 326.387 228.411 328.004L235.361 320.814C235.264 320.72 235.331 320.756 235.417 320.943C235.513 321.153 235.574 321.421 235.566 321.692L225.57 321.398ZM228.471 328.06C230.546 330.002 233.629 330.87 236.401 331.374L238.19 321.535C237.045 321.327 236.242 321.103 235.712 320.903C235.145 320.689 235.119 320.586 235.302 320.758L228.471 328.06ZM236.412 331.376L250.594 333.921L252.361 324.079L238.179 321.533L236.412 331.376ZM250.581 333.919C257.294 335.142 261.595 337.097 264.114 339.332L270.75 331.85C266.299 327.903 259.963 325.464 252.374 324.081L250.581 333.919ZM264.149 339.362C266.459 341.374 267.727 344.053 267.75 347.938L277.75 347.88C277.712 341.462 275.435 335.929 270.715 331.82L264.149 339.362ZM267.75 347.879C267.726 351.791 266.587 355.001 264.394 357.736L272.197 363.991C275.883 359.393 277.713 353.966 277.75 347.94L267.75 347.879ZM264.391 357.74C262.112 360.589 258.891 362.934 254.503 364.668L258.179 373.968C263.912 371.702 268.661 368.411 272.2 363.987L264.391 357.74ZM254.518 364.662C250.17 366.365 245.063 367.273 239.114 367.273V377.273C246.073 377.273 252.452 376.211 258.164 373.974L254.518 364.662ZM239.114 367.273C229.061 367.273 221.879 365.208 216.999 361.677L211.137 369.778C218.318 374.974 227.833 377.273 239.114 377.273V367.273ZM217.009 361.684C212.122 358.13 209.552 353.647 208.999 347.97L199.046 348.94C199.887 357.566 204.014 364.598 211.127 369.771L217.009 361.684ZM204.023 353.455H228.932V343.455H204.023V353.455ZM223.988 349.2C224.53 352.799 226.408 355.769 229.463 357.772L234.946 349.41C234.304 348.988 234 348.535 233.876 347.71L223.988 349.2ZM229.542 357.823C232.415 359.631 235.768 360.364 239.295 360.364V350.364C237.125 350.364 235.751 349.915 234.867 349.359L229.542 357.823ZM239.295 360.364C242.128 360.364 244.897 359.885 247.321 358.599L242.634 349.765C242.088 350.055 241.069 350.364 239.295 350.364V360.364ZM247.284 358.618C250.082 357.163 252.219 354.557 252.294 350.922L242.297 350.714C242.298 350.645 242.31 350.519 242.36 350.358C242.411 350.196 242.487 350.043 242.576 349.913C242.757 349.651 242.884 349.635 242.671 349.746L247.284 358.618ZM252.294 350.705C252.219 347.395 250.405 344.883 247.883 343.358L242.708 351.915C242.834 351.991 242.701 351.941 242.54 351.684C242.461 351.558 242.396 351.415 242.353 351.267C242.31 351.121 242.298 351.003 242.297 350.932L252.294 350.705ZM247.927 343.385C245.837 342.091 243.083 341.322 240.171 340.804L238.42 350.65C240.963 351.102 242.209 351.606 242.664 351.888L247.927 343.385ZM240.164 340.803L227.801 338.622L226.063 348.469L238.427 350.651L240.164 340.803ZM227.791 338.62C221.237 337.476 216.999 335.407 214.437 332.889L207.427 340.02C211.956 344.472 218.384 347.13 226.072 348.471L227.791 338.62ZM214.437 332.889C211.959 330.453 210.635 327.316 210.659 323.028L200.659 322.972C200.622 329.654 202.814 335.486 207.427 340.02L214.437 332.889ZM210.659 322.969C210.635 319.062 211.641 316.08 213.447 313.722L205.508 307.642C202.162 312.011 200.623 317.241 200.659 323.031L210.659 322.969ZM213.443 313.727C215.364 311.225 218.222 309.149 222.327 307.652L218.9 298.257C213.369 300.275 208.802 303.351 205.512 307.637L213.443 313.727ZM222.344 307.646C226.506 306.111 231.635 305.273 237.841 305.273V295.273C230.774 295.273 224.418 296.222 218.884 298.263L222.344 307.646ZM237.841 305.273C247.299 305.273 254.102 307.239 258.786 310.606L264.623 302.485C257.67 297.488 248.565 295.273 237.841 295.273V305.273ZM258.796 310.613C263.348 313.868 265.694 318.208 265.936 324.114L275.928 323.704C275.564 314.823 271.758 307.587 264.613 302.478L258.796 310.613ZM307.455 331.727L302.455 331.661L302.455 331.694V331.727H307.455ZM307.455 371V376H312.455V371H307.455ZM282.364 371H277.364V376H282.364V371ZM282.364 277.909V272.909H277.364V277.909H282.364ZM306.545 277.909H311.545V272.909H306.545V277.909ZM306.545 314.455H301.545V319.455H306.545V314.455ZM307.273 314.455V319.455H310.808L311.986 316.122L307.273 314.455ZM315.136 304.045L317.941 308.185L317.953 308.177L317.965 308.169L315.136 304.045ZM341.227 303.636L338.603 307.892L338.611 307.897L338.619 307.902L341.227 303.636ZM349.727 312.909L345.269 315.173L345.276 315.186L345.283 315.2L349.727 312.909ZM352.727 326.455L347.727 326.425L347.727 326.44V326.455H352.727ZM352.727 371V376H357.727V371H352.727ZM327.636 371H322.636V376H327.636V371ZM327.636 331.727L322.637 331.683L322.636 331.705V331.727H327.636ZM325.045 323.591L321.286 326.888L321.3 326.904L321.315 326.92L325.045 323.591ZM312.273 322L314.781 326.325L314.795 326.317L314.808 326.31L312.273 322ZM308.727 325.818L304.271 323.55L304.263 323.566L304.255 323.582L308.727 325.818ZM302.455 331.727V371H312.455V331.727H302.455ZM307.455 366H282.364V376H307.455V366ZM287.364 371V277.909H277.364V371H287.364ZM282.364 282.909H306.545V272.909H282.364V282.909ZM301.545 277.909V314.455H311.545V277.909H301.545ZM306.545 319.455H307.273V309.455H306.545V319.455ZM311.986 316.122C313.231 312.603 315.219 310.029 317.941 308.185L312.331 299.906C307.72 303.031 304.466 307.397 302.559 312.787L311.986 316.122ZM317.965 308.169C320.672 306.311 324.057 305.273 328.364 305.273V295.273C322.367 295.273 316.934 296.749 312.308 299.922L317.965 308.169ZM328.364 305.273C332.524 305.273 335.872 306.208 338.603 307.892L343.852 299.381C339.31 296.58 334.082 295.273 328.364 295.273V305.273ZM338.619 307.902C341.472 309.647 343.676 312.035 345.269 315.173L354.186 310.646C351.779 305.905 348.316 302.11 343.836 299.371L338.619 307.902ZM345.283 315.2C346.892 318.322 347.754 322.02 347.727 326.425L357.727 326.484C357.762 320.707 356.623 315.375 354.172 310.618L345.283 315.2ZM347.727 326.455V371H357.727V326.455H347.727ZM352.727 366H327.636V376H352.727V366ZM332.636 371V331.727H322.636V371H332.636ZM332.636 331.771C332.674 327.467 331.59 323.416 328.776 320.262L321.315 326.92C322.016 327.705 322.659 329.079 322.637 331.683L332.636 331.771ZM328.805 320.294C325.918 317.002 321.935 315.636 317.636 315.636V325.636C319.762 325.636 320.719 326.241 321.286 326.888L328.805 320.294ZM317.636 315.636C314.835 315.636 312.149 316.272 309.738 317.69L314.808 326.31C315.487 325.91 316.377 325.636 317.636 325.636V315.636ZM309.764 317.675C307.358 319.07 305.526 321.085 304.271 323.55L313.183 328.087C313.625 327.218 314.157 326.687 314.781 326.325L309.764 317.675ZM304.255 323.582C303.024 326.044 302.493 328.794 302.455 331.661L312.454 331.793C312.477 330.054 312.794 328.865 313.199 328.054L304.255 323.582ZM377.477 371L372.627 372.213L373.573 376H377.477V371ZM360.023 301.182V296.182H353.619L355.172 302.394L360.023 301.182ZM385.114 301.182L390.028 300.258L389.261 296.182H385.114V301.182ZM393.114 343.727L388.2 344.651L388.966 348.727H393.114V343.727ZM393.659 343.727V348.727H397.721L398.553 344.752L393.659 343.727ZM402.568 301.182V296.182H398.507L397.674 300.157L402.568 301.182ZM426.932 301.182L431.815 300.108L430.952 296.182H426.932V301.182ZM436.205 343.364L431.321 344.437L432.184 348.364H436.205V343.364ZM436.75 343.364V348.364H440.926L441.67 344.254L436.75 343.364ZM444.386 301.182V296.182H440.21L439.466 300.291L444.386 301.182ZM469.477 301.182L474.328 302.394L475.881 296.182H469.477V301.182ZM452.023 371V376H455.927L456.873 372.213L452.023 371ZM424.932 371L420.095 372.268L421.074 376H424.932V371ZM415.114 333.545L419.95 332.278L418.972 328.545H415.114V333.545ZM414.386 333.545V328.545H410.528L409.55 332.278L414.386 333.545ZM404.568 371V376H408.426L409.405 372.268L404.568 371ZM382.328 369.787L364.873 299.969L355.172 302.394L372.627 372.213L382.328 369.787ZM360.023 306.182H385.114V296.182H360.023V306.182ZM380.2 302.106L388.2 344.651L398.028 342.803L390.028 300.258L380.2 302.106ZM393.114 348.727H393.659V338.727H393.114V348.727ZM398.553 344.752L407.462 302.207L397.674 300.157L388.765 342.702L398.553 344.752ZM402.568 306.182H426.932V296.182H402.568V306.182ZM422.048 302.255L431.321 344.437L441.088 342.29L431.815 300.108L422.048 302.255ZM436.205 348.364H436.75V338.364H436.205V348.364ZM441.67 344.254L449.306 302.073L439.466 300.291L431.83 342.473L441.67 344.254ZM444.386 306.182H469.477V296.182H444.386V306.182ZM464.627 299.969L447.172 369.787L456.873 372.213L474.328 302.394L464.627 299.969ZM452.023 366H424.932V376H452.023V366ZM429.768 369.732L419.95 332.278L410.277 334.813L420.095 372.268L429.768 369.732ZM415.114 328.545H414.386V338.545H415.114V328.545ZM409.55 332.278L399.732 369.732L409.405 372.268L419.223 334.813L409.55 332.278ZM404.568 366H377.477V376H404.568V366ZM484.75 369.909L482.746 374.49L482.77 374.501L482.795 374.511L484.75 369.909ZM476.75 363.182L472.551 365.896L476.75 363.182ZM475.795 341.955L480.298 344.13L480.302 344.12L480.307 344.11L475.795 341.955ZM481.25 335.273L484.225 339.291L481.25 335.273ZM489.386 331.318L487.988 326.518L487.976 326.521L489.386 331.318ZM499.477 329.545L499.854 334.531L499.864 334.53L499.477 329.545ZM508.886 328.455L509.77 333.376L509.794 333.371L509.819 333.367L508.886 328.455ZM514.068 326.591L517.05 330.605L517.086 330.578L517.122 330.55L514.068 326.591ZM513.568 319L510.713 323.105V323.105L513.568 319ZM502.341 319.136L505.191 323.244L505.2 323.238L505.208 323.233L502.341 319.136ZM499.659 323.909V328.909H504.004L504.61 324.606L499.659 323.909ZM476.568 323.909L471.581 323.553L471.198 328.909H476.568V323.909ZM480.614 312.182L476.464 309.392L476.459 309.4L480.614 312.182ZM491.205 303.545L493.309 308.081L493.321 308.075L493.334 308.07L491.205 303.545ZM522.023 302.045L520.596 306.838L520.613 306.843L520.63 306.848L522.023 302.045ZM532.159 306.909L529.159 310.909L529.173 310.92L529.187 310.93L532.159 306.909ZM538.523 314.182L534.09 316.495L534.105 316.524L534.12 316.552L538.523 314.182ZM540.75 371V376H545.75V371H540.75ZM517.295 371H512.295V376H517.295V371ZM517.295 361.182H522.295V356.182H517.295V361.182ZM516.75 361.182V356.182H513.754L512.341 358.824L516.75 361.182ZM511.659 367.5L508.528 363.601L508.514 363.613L508.499 363.625L511.659 367.5ZM504.886 371L503.513 366.192L503.505 366.195L503.497 366.197L504.886 371ZM510.114 355.091L508.008 350.556L507.992 350.563L507.977 350.571L510.114 355.091ZM514.25 351.682L510.181 348.776L514.25 351.682ZM515.841 340.455H520.841V333.007L513.948 335.827L515.841 340.455ZM513.705 341.227L512.181 336.465L512.152 336.474L512.123 336.484L513.705 341.227ZM511.341 341.909L510.128 337.058L510.107 337.064L510.086 337.069L511.341 341.909ZM508.705 342.5L507.754 337.591L507.739 337.594L507.724 337.597L508.705 342.5ZM505.841 343L505.092 338.056L505.08 338.058L505.069 338.06L505.841 343ZM501.068 344.5L503.478 348.881L503.496 348.871L503.514 348.861L501.068 344.5ZM498.341 347L494.065 344.408L494.053 344.428L494.042 344.447L498.341 347ZM499.523 354.727L502.537 350.738L499.523 354.727ZM496.568 367.091C492.655 367.091 489.401 366.453 486.705 365.307L482.795 374.511C486.947 376.275 491.572 377.091 496.568 377.091V367.091ZM486.754 365.328C484.224 364.221 482.335 362.612 480.949 360.467L472.551 365.896C475.044 369.752 478.488 372.627 482.746 374.49L486.754 365.328ZM480.949 360.467C479.667 358.485 478.841 355.683 478.841 351.727H468.841C468.841 357.044 469.954 361.879 472.551 365.896L480.949 360.467ZM478.841 351.727C478.841 348.462 479.399 345.988 480.298 344.13L471.293 339.779C469.585 343.315 468.841 347.356 468.841 351.727H478.841ZM480.307 344.11C481.273 342.089 482.576 340.512 484.225 339.291L478.275 331.254C475.258 333.488 472.924 336.366 471.284 339.799L480.307 344.11ZM484.225 339.291C486.038 337.95 488.208 336.877 490.797 336.115L487.976 326.521C484.383 327.578 481.129 329.141 478.275 331.254L484.225 339.291ZM490.785 336.119C493.538 335.317 496.556 334.781 499.854 334.531L499.1 324.56C495.186 324.856 491.477 325.501 487.988 326.518L490.785 336.119ZM499.864 334.53C503.85 334.222 507.172 333.842 509.77 333.376L508.003 323.533C505.874 323.915 502.923 324.263 499.091 324.56L499.864 334.53ZM509.819 333.367C512.431 332.871 515.065 332.079 517.05 330.605L511.087 322.577C511.087 322.577 511.031 322.618 510.892 322.688C510.755 322.758 510.557 322.845 510.285 322.943C509.734 323.141 508.971 323.349 507.954 323.542L509.819 333.367ZM517.122 330.55C519.403 328.79 520.659 326.255 520.659 323.364H510.659C510.659 323.364 510.659 323.32 510.677 323.24C510.694 323.159 510.726 323.062 510.777 322.96C510.827 322.857 510.884 322.774 510.936 322.713C510.986 322.653 511.019 322.629 511.014 322.632L517.122 330.55ZM520.659 323.364V323.182H510.659V323.364H520.659ZM520.659 323.182C520.659 319.863 519.269 316.875 516.423 314.895L510.713 323.105C510.759 323.137 510.76 323.144 510.738 323.12C510.728 323.108 510.715 323.092 510.701 323.071C510.687 323.051 510.675 323.03 510.664 323.009C510.654 322.988 510.647 322.971 510.644 322.961C510.64 322.95 510.64 322.949 510.642 322.958C510.646 322.977 510.659 323.047 510.659 323.182H520.659ZM516.423 314.895C513.981 313.197 511.117 312.545 508.205 312.545V322.545C509.656 322.545 510.367 322.864 510.713 323.105L516.423 314.895ZM508.205 312.545C505.085 312.545 502.046 313.24 499.474 315.04L505.208 323.233C505.666 322.912 506.536 322.545 508.205 322.545V312.545ZM499.491 315.028C496.632 317.012 495.163 319.983 494.708 323.212L504.61 324.606C504.761 323.533 505.08 323.321 505.191 323.244L499.491 315.028ZM499.659 318.909H476.568V328.909H499.659V318.909ZM481.555 324.265C481.796 320.901 482.852 317.826 484.768 314.963L476.459 309.4C473.587 313.689 471.947 318.433 471.581 323.553L481.555 324.265ZM484.763 314.971C486.594 312.248 489.353 309.917 493.309 308.081L489.1 299.01C483.783 301.477 479.482 304.904 476.464 309.392L484.763 314.971ZM493.334 308.07C497.112 306.292 502.118 305.273 508.568 305.273V295.273C501.14 295.273 494.57 296.436 489.076 299.021L493.334 308.07ZM508.568 305.273C513.182 305.273 517.174 305.819 520.596 306.838L523.449 297.253C518.933 295.909 513.955 295.273 508.568 295.273V305.273ZM520.63 306.848C524.125 307.861 526.935 309.241 529.159 310.909L535.159 302.909C531.808 300.396 527.86 298.532 523.416 297.243L520.63 306.848ZM529.187 310.93C531.428 312.586 533.021 314.446 534.09 316.495L542.956 311.869C541.115 308.342 538.466 305.353 535.131 302.888L529.187 310.93ZM534.12 316.552C535.199 318.555 535.75 320.737 535.75 323.182H545.75C545.75 319.142 544.816 315.324 542.925 311.811L534.12 316.552ZM535.75 323.182V371H545.75V323.182H535.75ZM540.75 366H517.295V376H540.75V366ZM522.295 371V361.182H512.295V371H522.295ZM517.295 356.182H516.75V366.182H517.295V356.182ZM512.341 358.824C511.217 360.925 509.929 362.477 508.528 363.601L514.79 371.399C517.389 369.311 519.495 366.651 521.159 363.54L512.341 358.824ZM508.499 363.625C507.078 364.784 505.433 365.644 503.513 366.192L506.26 375.808C509.43 374.902 512.301 373.428 514.819 371.375L508.499 363.625ZM503.497 366.197C501.498 366.775 499.201 367.091 496.568 367.091V377.091C499.996 377.091 503.244 376.68 506.275 375.803L503.497 366.197ZM504.75 361.273C507.371 361.273 509.892 360.726 512.251 359.611L507.977 350.571C507.002 351.031 505.947 351.273 504.75 351.273V361.273ZM512.219 359.626C514.68 358.484 516.742 356.795 518.319 354.588L510.181 348.776C509.636 349.539 508.942 350.122 508.008 350.556L512.219 359.626ZM518.319 354.588C520.079 352.123 520.841 349.261 520.841 346.273H510.841C510.841 347.527 510.542 348.271 510.181 348.776L518.319 354.588ZM520.841 346.273V340.455H510.841V346.273H520.841ZM513.948 335.827C513.414 336.045 512.826 336.259 512.181 336.465L515.228 345.989C516.098 345.711 516.934 345.409 517.734 345.082L513.948 335.827ZM512.123 336.484C511.533 336.681 510.869 336.873 510.128 337.058L512.554 346.76C513.509 346.521 514.422 346.259 515.286 345.971L512.123 336.484ZM510.086 337.069C509.381 337.252 508.605 337.427 507.754 337.591L509.655 347.409C510.683 347.21 511.665 346.99 512.596 346.749L510.086 337.069ZM507.724 337.597C506.898 337.762 506.021 337.916 505.092 338.056L506.59 347.944C507.661 347.781 508.693 347.601 509.685 347.403L507.724 337.597ZM505.069 338.06C502.748 338.423 500.539 339.064 498.622 340.139L503.514 348.861C504.082 348.542 505.055 348.183 506.613 347.94L505.069 338.06ZM498.659 340.119C496.82 341.13 495.202 342.532 494.065 344.408L502.617 349.592C502.692 349.468 502.893 349.203 503.478 348.881L498.659 340.119ZM494.042 344.447C492.973 346.247 492.477 348.232 492.477 350.273H502.477C502.477 349.889 502.557 349.692 502.64 349.553L494.042 344.447ZM492.477 350.273C492.477 353.538 493.714 356.605 496.509 358.717L502.537 350.738C502.499 350.71 502.496 350.701 502.507 350.715C502.519 350.73 502.529 350.746 502.533 350.754C502.543 350.777 502.477 350.655 502.477 350.273H492.477ZM496.509 358.717C498.932 360.547 501.808 361.273 504.75 361.273V351.273C503.45 351.273 502.841 350.968 502.537 350.738L496.509 358.717ZM577.875 371H572.875V376H577.875V371ZM577.875 277.909V272.909H572.875V277.909H577.875ZM636.193 282L633.864 286.425L636.193 282ZM648.284 293.5L652.604 290.982V290.982L648.284 293.5ZM648.148 328.136L643.877 325.537L643.871 325.546L643.865 325.556L648.148 328.136ZM635.739 339.409L633.523 334.927L633.513 334.932L635.739 339.409ZM593.148 343.364H588.148V348.364H593.148V343.364ZM593.148 323.727V318.727H588.148V323.727H593.148ZM619.648 322.182L621.858 326.667L621.871 326.66L621.884 326.654L619.648 322.182ZM624.511 317.682L620.212 315.129L620.197 315.154L620.183 315.179L624.511 317.682ZM624.511 304L620.2 306.532L620.224 306.573L620.248 306.613L624.511 304ZM619.648 299.636L617.438 304.121L617.477 304.141L617.516 304.159L619.648 299.636ZM603.148 298.091V293.091H598.148V298.091H603.148ZM603.148 371V376H608.148V371H603.148ZM582.875 371V277.909H572.875V371H582.875ZM577.875 282.909H618.057V272.909H577.875V282.909ZM618.057 282.909C624.3 282.909 629.519 284.138 633.864 286.425L638.522 277.575C632.503 274.408 625.632 272.909 618.057 272.909V282.909ZM633.864 286.425C638.238 288.727 641.569 291.908 643.964 296.018L652.604 290.982C649.241 285.213 644.512 280.728 638.522 277.575L633.864 286.425ZM643.964 296.018C646.332 300.081 647.602 304.957 647.602 310.818H657.602C657.602 303.467 655.993 296.798 652.604 290.982L643.964 296.018ZM647.602 310.818C647.602 316.723 646.295 321.564 643.877 325.537L652.419 330.736C655.94 324.951 657.602 318.246 657.602 310.818H647.602ZM643.865 325.556C641.441 329.579 638.04 332.694 633.523 334.927L637.954 343.891C644.104 340.851 648.975 336.451 652.43 330.717L643.865 325.556ZM633.513 334.932C629.025 337.163 623.617 338.364 617.148 338.364V348.364C624.86 348.364 631.846 346.928 637.964 343.886L633.513 334.932ZM617.148 338.364H593.148V348.364H617.148V338.364ZM598.148 343.364V323.727H588.148V343.364H598.148ZM593.148 328.727H612.057V318.727H593.148V328.727ZM612.057 328.727C615.589 328.727 618.917 328.116 621.858 326.667L617.438 317.697C616.196 318.309 614.464 318.727 612.057 318.727V328.727ZM621.884 326.654C624.826 325.183 627.2 323.022 628.84 320.184L620.183 315.179C619.581 316.221 618.712 317.06 617.412 317.71L621.884 326.654ZM628.811 320.235C630.493 317.401 631.239 314.199 631.239 310.818H621.239C621.239 312.71 620.832 314.084 620.212 315.129L628.811 320.235ZM631.239 310.818C631.239 307.424 630.5 304.203 628.774 301.387L620.248 306.613C620.826 307.554 621.239 308.879 621.239 310.818H631.239ZM628.823 301.468C627.161 298.638 624.754 296.516 621.78 295.114L617.516 304.159C618.784 304.757 619.619 305.543 620.2 306.532L628.823 301.468ZM621.858 295.151C618.917 293.702 615.589 293.091 612.057 293.091V303.091C614.464 303.091 616.196 303.51 617.438 304.121L621.858 295.151ZM612.057 293.091H603.148V303.091H612.057V293.091ZM598.148 298.091V371H608.148V298.091H598.148ZM603.148 366H577.875V376H603.148V366ZM666.75 369.909L664.746 374.49L664.77 374.501L664.795 374.511L666.75 369.909ZM658.75 363.182L654.551 365.896L658.75 363.182ZM657.795 341.955L662.298 344.13L662.302 344.12L662.307 344.11L657.795 341.955ZM663.25 335.273L666.225 339.291L663.25 335.273ZM671.386 331.318L669.988 326.518L669.976 326.521L671.386 331.318ZM681.477 329.545L681.854 334.531L681.864 334.53L681.477 329.545ZM690.886 328.455L691.77 333.376L691.794 333.371L691.819 333.367L690.886 328.455ZM696.068 326.591L699.05 330.605L699.086 330.578L699.122 330.55L696.068 326.591ZM695.568 319L692.713 323.105V323.105L695.568 319ZM684.341 319.136L687.191 323.244L687.2 323.238L687.208 323.233L684.341 319.136ZM681.659 323.909V328.909H686.004L686.61 324.606L681.659 323.909ZM658.568 323.909L653.581 323.553L653.198 328.909H658.568V323.909ZM662.614 312.182L658.464 309.392L658.459 309.4L662.614 312.182ZM673.205 303.545L675.309 308.081L675.321 308.075L675.334 308.07L673.205 303.545ZM704.023 302.045L702.596 306.838L702.613 306.843L702.63 306.848L704.023 302.045ZM714.159 306.909L711.159 310.909L711.173 310.92L711.187 310.93L714.159 306.909ZM720.523 314.182L716.09 316.495L716.105 316.524L716.12 316.552L720.523 314.182ZM722.75 371V376H727.75V371H722.75ZM699.295 371H694.295V376H699.295V371ZM699.295 361.182H704.295V356.182H699.295V361.182ZM698.75 361.182V356.182H695.754L694.341 358.824L698.75 361.182ZM693.659 367.5L690.528 363.601L690.514 363.613L690.499 363.625L693.659 367.5ZM686.886 371L685.513 366.192L685.505 366.195L685.497 366.197L686.886 371ZM692.114 355.091L690.008 350.556L689.992 350.563L689.977 350.571L692.114 355.091ZM696.25 351.682L692.181 348.776L696.25 351.682ZM697.841 340.455H702.841V333.007L695.948 335.827L697.841 340.455ZM695.705 341.227L694.181 336.465L694.152 336.474L694.123 336.484L695.705 341.227ZM693.341 341.909L692.128 337.058L692.107 337.064L692.086 337.069L693.341 341.909ZM690.705 342.5L689.754 337.591L689.739 337.594L689.724 337.597L690.705 342.5ZM687.841 343L687.092 338.056L687.08 338.058L687.069 338.06L687.841 343ZM683.068 344.5L685.478 348.881L685.496 348.871L685.514 348.861L683.068 344.5ZM680.341 347L676.065 344.408L676.053 344.428L676.042 344.447L680.341 347ZM681.523 354.727L684.537 350.738L681.523 354.727ZM678.568 367.091C674.655 367.091 671.401 366.453 668.705 365.307L664.795 374.511C668.947 376.275 673.572 377.091 678.568 377.091V367.091ZM668.754 365.328C666.224 364.221 664.335 362.612 662.949 360.467L654.551 365.896C657.044 369.752 660.488 372.627 664.746 374.49L668.754 365.328ZM662.949 360.467C661.667 358.485 660.841 355.683 660.841 351.727H650.841C650.841 357.044 651.954 361.879 654.551 365.896L662.949 360.467ZM660.841 351.727C660.841 348.462 661.399 345.988 662.298 344.13L653.293 339.779C651.585 343.315 650.841 347.356 650.841 351.727H660.841ZM662.307 344.11C663.273 342.089 664.576 340.512 666.225 339.291L660.275 331.254C657.258 333.488 654.924 336.366 653.284 339.799L662.307 344.11ZM666.225 339.291C668.038 337.95 670.208 336.877 672.797 336.115L669.976 326.521C666.383 327.578 663.129 329.141 660.275 331.254L666.225 339.291ZM672.785 336.119C675.538 335.317 678.556 334.781 681.854 334.531L681.1 324.56C677.186 324.856 673.477 325.501 669.988 326.518L672.785 336.119ZM681.864 334.53C685.85 334.222 689.172 333.842 691.77 333.376L690.003 323.533C687.874 323.915 684.923 324.263 681.091 324.56L681.864 334.53ZM691.819 333.367C694.431 332.871 697.065 332.079 699.05 330.605L693.087 322.577C693.087 322.577 693.031 322.618 692.892 322.688C692.755 322.758 692.557 322.845 692.285 322.943C691.734 323.141 690.971 323.349 689.954 323.542L691.819 333.367ZM699.122 330.55C701.403 328.79 702.659 326.255 702.659 323.364H692.659C692.659 323.364 692.659 323.32 692.677 323.24C692.694 323.159 692.726 323.062 692.777 322.96C692.827 322.857 692.884 322.774 692.936 322.713C692.986 322.653 693.019 322.629 693.014 322.632L699.122 330.55ZM702.659 323.364V323.182H692.659V323.364H702.659ZM702.659 323.182C702.659 319.863 701.269 316.875 698.424 314.895L692.713 323.105C692.759 323.137 692.76 323.144 692.738 323.12C692.728 323.108 692.715 323.092 692.701 323.071C692.687 323.051 692.675 323.03 692.664 323.009C692.654 322.988 692.647 322.971 692.644 322.961C692.64 322.95 692.64 322.949 692.642 322.958C692.646 322.977 692.659 323.047 692.659 323.182H702.659ZM698.424 314.895C695.981 313.197 693.117 312.545 690.205 312.545V322.545C691.656 322.545 692.367 322.864 692.713 323.105L698.424 314.895ZM690.205 312.545C687.085 312.545 684.046 313.24 681.474 315.04L687.208 323.233C687.666 322.912 688.536 322.545 690.205 322.545V312.545ZM681.49 315.028C678.632 317.012 677.163 319.983 676.708 323.212L686.61 324.606C686.761 323.533 687.08 323.321 687.191 323.244L681.49 315.028ZM681.659 318.909H658.568V328.909H681.659V318.909ZM663.555 324.265C663.796 320.901 664.852 317.826 666.768 314.963L658.459 309.4C655.587 313.689 653.947 318.433 653.581 323.553L663.555 324.265ZM666.763 314.971C668.594 312.248 671.353 309.917 675.309 308.081L671.1 299.01C665.783 301.477 661.482 304.904 658.464 309.392L666.763 314.971ZM675.334 308.07C679.112 306.292 684.118 305.273 690.568 305.273V295.273C683.14 295.273 676.57 296.436 671.076 299.021L675.334 308.07ZM690.568 305.273C695.182 305.273 699.174 305.819 702.596 306.838L705.449 297.253C700.933 295.909 695.955 295.273 690.568 295.273V305.273ZM702.63 306.848C706.125 307.861 708.935 309.241 711.159 310.909L717.159 302.909C713.808 300.396 709.86 298.532 705.416 297.243L702.63 306.848ZM711.187 310.93C713.428 312.586 715.021 314.446 716.09 316.495L724.956 311.869C723.115 308.342 720.466 305.353 717.131 302.888L711.187 310.93ZM716.12 316.552C717.199 318.555 717.75 320.737 717.75 323.182H727.75C727.75 319.142 726.816 315.324 724.925 311.811L716.12 316.552ZM717.75 323.182V371H727.75V323.182H717.75ZM722.75 366H699.295V376H722.75V366ZM704.295 371V361.182H694.295V371H704.295ZM699.295 356.182H698.75V366.182H699.295V356.182ZM694.341 358.824C693.217 360.925 691.929 362.477 690.528 363.601L696.79 371.399C699.389 369.311 701.495 366.651 703.159 363.54L694.341 358.824ZM690.499 363.625C689.078 364.784 687.433 365.644 685.513 366.192L688.26 375.808C691.43 374.902 694.301 373.428 696.819 371.375L690.499 363.625ZM685.497 366.197C683.498 366.775 681.201 367.091 678.568 367.091V377.091C681.996 377.091 685.244 376.68 688.275 375.803L685.497 366.197ZM686.75 361.273C689.371 361.273 691.892 360.726 694.251 359.611L689.977 350.571C689.002 351.031 687.947 351.273 686.75 351.273V361.273ZM694.219 359.626C696.68 358.484 698.742 356.795 700.319 354.588L692.181 348.776C691.636 349.539 690.942 350.122 690.008 350.556L694.219 359.626ZM700.319 354.588C702.079 352.123 702.841 349.261 702.841 346.273H692.841C692.841 347.527 692.542 348.271 692.181 348.776L700.319 354.588ZM702.841 346.273V340.455H692.841V346.273H702.841ZM695.948 335.827C695.414 336.045 694.826 336.259 694.181 336.465L697.228 345.989C698.098 345.711 698.934 345.409 699.734 345.082L695.948 335.827ZM694.123 336.484C693.533 336.681 692.869 336.873 692.128 337.058L694.554 346.76C695.509 346.521 696.422 346.259 697.286 345.971L694.123 336.484ZM692.086 337.069C691.381 337.252 690.605 337.427 689.754 337.591L691.655 347.409C692.683 347.21 693.665 346.99 694.596 346.749L692.086 337.069ZM689.724 337.597C688.898 337.762 688.021 337.916 687.092 338.056L688.59 347.944C689.661 347.781 690.693 347.601 691.685 347.403L689.724 337.597ZM687.069 338.06C684.748 338.423 682.539 339.064 680.622 340.139L685.514 348.861C686.082 348.542 687.055 348.183 688.613 347.94L687.069 338.06ZM680.659 340.119C678.82 341.13 677.202 342.532 676.065 344.408L684.617 349.592C684.692 349.468 684.893 349.203 685.478 348.881L680.659 340.119ZM676.042 344.447C674.973 346.247 674.477 348.232 674.477 350.273H684.477C684.477 349.889 684.557 349.692 684.64 349.553L676.042 344.447ZM674.477 350.273C674.477 353.538 675.714 356.605 678.509 358.717L684.537 350.738C684.499 350.71 684.496 350.701 684.507 350.715C684.519 350.73 684.529 350.746 684.532 350.754C684.543 350.777 684.477 350.655 684.477 350.273H674.477ZM678.509 358.717C680.932 360.547 683.808 361.273 686.75 361.273V351.273C685.45 351.273 684.841 350.968 684.537 350.738L678.509 358.717ZM734.739 371H729.739V376H734.739V371ZM734.739 301.182V296.182H729.739V301.182H734.739ZM759.102 301.182H764.102V296.182H759.102V301.182ZM759.102 314.455H754.102V319.455H759.102V314.455ZM759.83 314.455V319.455H763.699L764.67 315.709L759.83 314.455ZM765.875 303.682L762.716 299.806L762.705 299.815L762.695 299.823L765.875 303.682ZM778.875 300.545L778.03 305.474L778.108 305.487L778.187 305.498L778.875 300.545ZM782.011 301.227H787.011V297.518L783.461 296.442L782.011 301.227ZM782.011 322.636L780.396 327.368L787.011 329.627V322.636H782.011ZM777.42 321.682L778 316.715L777.42 321.682ZM766.102 323.045L768.554 327.403L768.565 327.397L768.576 327.391L766.102 323.045ZM761.511 327.682L765.857 330.155L765.865 330.141L765.873 330.127L761.511 327.682ZM759.83 371V376H764.83V371H759.83ZM739.739 371V301.182H729.739V371H739.739ZM734.739 306.182H759.102V296.182H734.739V306.182ZM754.102 301.182V314.455H764.102V301.182H754.102ZM759.102 319.455H759.83V309.455H759.102V319.455ZM764.67 315.709C765.785 311.407 767.389 308.913 769.055 307.54L762.695 299.823C758.846 302.996 756.42 307.683 754.99 313.2L764.67 315.709ZM769.034 307.557C770.896 306.04 773.026 305.273 775.648 305.273V295.273C770.815 295.273 766.43 296.778 762.716 299.806L769.034 307.557ZM775.648 305.273C776.459 305.273 777.252 305.34 778.03 305.474L779.72 295.617C778.376 295.387 777.018 295.273 775.648 295.273V305.273ZM778.187 305.498C779.034 305.616 779.824 305.789 780.561 306.012L783.461 296.442C782.199 296.06 780.898 295.778 779.563 295.593L778.187 305.498ZM777.011 301.227V322.636H787.011V301.227H777.011ZM783.627 317.905C781.946 317.331 780.044 316.954 778 316.715L776.841 326.648C778.433 326.834 779.592 327.094 780.396 327.368L783.627 317.905ZM778 316.715C776.06 316.489 774.295 316.364 772.739 316.364V326.364C773.788 326.364 775.145 326.45 776.841 326.648L778 316.715ZM772.739 316.364C769.491 316.364 766.414 317.115 763.629 318.7L768.576 327.391C769.73 326.734 771.077 326.364 772.739 326.364V316.364ZM763.651 318.688C760.886 320.243 758.706 322.461 757.15 325.237L765.873 330.127C766.559 328.902 767.44 328.03 768.554 327.403L763.651 318.688ZM757.166 325.208C755.545 328.055 754.83 331.256 754.83 334.636H764.83C764.83 332.683 765.235 331.248 765.857 330.155L757.166 325.208ZM754.83 334.636V371H764.83V334.636H754.83ZM759.83 366H734.739V376H759.83V366ZM790.239 371H785.239V376H790.239V371ZM790.239 301.182V296.182H785.239V301.182H790.239ZM815.33 301.182H820.33V296.182H815.33V301.182ZM815.33 371V376H820.33V371H815.33ZM794.057 290.545L790.662 294.216V294.216L794.057 290.545ZM794.057 274.364L790.662 270.693V270.693L794.057 274.364ZM811.511 274.364L808.093 278.013L808.105 278.023L808.116 278.034L811.511 274.364ZM811.511 290.545L808.116 286.875L808.105 286.886L808.093 286.896L811.511 290.545ZM795.239 371V301.182H785.239V371H795.239ZM790.239 306.182H815.33V296.182H790.239V306.182ZM810.33 301.182V371H820.33V301.182H810.33ZM815.33 366H790.239V376H815.33V366ZM802.784 288.909C800.61 288.909 798.924 288.237 797.452 286.875L790.662 294.216C794.038 297.339 798.17 298.909 802.784 298.909V288.909ZM797.452 286.875C795.996 285.528 795.42 284.139 795.42 282.455H785.42C785.42 287.073 787.269 291.078 790.662 294.216L797.452 286.875ZM795.42 282.455C795.42 280.77 795.996 279.381 797.452 278.034L790.662 270.693C787.269 273.831 785.42 277.836 785.42 282.455H795.42ZM797.452 278.034C798.924 276.672 800.61 276 802.784 276V266C798.17 266 794.038 267.57 790.662 270.693L797.452 278.034ZM802.784 276C805 276 806.67 276.679 808.093 278.013L814.93 270.715C811.565 267.563 807.416 266 802.784 266V276ZM808.116 278.034C809.573 279.381 810.148 280.77 810.148 282.455H820.148C820.148 277.836 818.299 273.831 814.907 270.693L808.116 278.034ZM810.148 282.455C810.148 284.139 809.573 285.528 808.116 286.875L814.907 294.216C818.299 291.078 820.148 287.073 820.148 282.455H810.148ZM808.093 286.896C806.67 288.23 805 288.909 802.784 288.909V298.909C807.416 298.909 811.565 297.346 814.93 294.195L808.093 286.896ZM891.932 323.909V328.909H897.141L896.928 323.704L891.932 323.909ZM868.841 323.909L863.859 324.333L864.248 328.909H868.841V323.909ZM867.341 320.227L871.145 316.983L867.341 320.227ZM863.932 317.864L861.987 322.47L862.048 322.496L862.11 322.52L863.932 317.864ZM853.841 318.182L851.57 313.727L853.841 318.182ZM851.568 321.545L856.566 321.692L856.57 321.567L856.567 321.441L851.568 321.545ZM852.886 324.409L849.411 328.004L849.441 328.032L849.471 328.06L852.886 324.409ZM858.295 326.455L857.401 331.374L857.412 331.376L858.295 326.455ZM872.477 329L873.374 324.081L873.361 324.079L872.477 329ZM888.432 335.591L885.114 339.332L885.131 339.347L885.148 339.362L888.432 335.591ZM893.75 347.909L898.75 347.94L898.75 347.91L898.75 347.88L893.75 347.909ZM889.295 360.864L885.394 357.736L885.391 357.74L889.295 360.864ZM877.341 369.318L879.164 373.974L879.171 373.971L879.179 373.968L877.341 369.318ZM835.068 365.727L832.127 369.771L832.137 369.778L835.068 365.727ZM825.023 348.455V343.455H819.512L820.046 348.94L825.023 348.455ZM849.932 348.455L854.876 347.71L854.235 343.455H849.932V348.455ZM853.205 353.591L850.463 357.772L850.502 357.798L850.542 357.823L853.205 353.591ZM865.977 354.182L863.671 349.746L863.652 349.755L863.634 349.765L865.977 354.182ZM868.295 350.818L873.294 350.922L873.297 350.813L873.294 350.705L868.295 350.818ZM866.295 347.636L863.664 351.888L863.686 351.901L863.708 351.915L866.295 347.636ZM860.295 345.727L861.171 340.804L861.164 340.803L860.295 345.727ZM847.932 343.545L848.801 338.622L848.791 338.62L847.932 343.545ZM831.932 336.455L835.437 332.889L831.932 336.455ZM826.659 323L831.659 323.028L831.659 322.998L831.659 322.969L826.659 323ZM830.477 310.682L826.512 307.637L826.508 307.642L830.477 310.682ZM841.614 302.955L843.327 307.652L843.335 307.649L843.344 307.646L841.614 302.955ZM882.705 306.545L879.786 310.606L879.796 310.613L882.705 306.545ZM891.932 318.909H868.841V328.909H891.932V318.909ZM873.823 323.485C873.618 321.082 872.74 318.853 871.145 316.983L863.537 323.472C863.699 323.662 863.821 323.888 863.859 324.333L873.823 323.485ZM871.145 316.983C869.677 315.262 867.832 314.021 865.754 313.207L862.11 322.52C862.819 322.797 863.247 323.132 863.537 323.472L871.145 316.983ZM865.877 313.257C863.825 312.391 861.637 312 859.386 312V322C860.469 322 861.312 322.185 861.987 322.47L865.877 313.257ZM859.386 312C856.631 312 853.968 312.505 851.57 313.727L856.112 322.636C856.805 322.283 857.838 322 859.386 322V312ZM851.57 313.727C850.251 314.4 848.939 315.382 847.971 316.814C846.969 318.297 846.534 319.971 846.569 321.65L856.567 321.441C856.569 321.529 856.56 321.682 856.505 321.876C856.45 322.072 856.362 322.257 856.257 322.413C856.046 322.724 855.886 322.752 856.112 322.636L851.57 313.727ZM846.57 321.398C846.49 324.145 847.738 326.387 849.411 328.004L856.361 320.814C856.264 320.72 856.331 320.756 856.417 320.943C856.513 321.153 856.574 321.421 856.566 321.692L846.57 321.398ZM849.471 328.06C851.546 330.002 854.629 330.87 857.401 331.374L859.19 321.535C858.045 321.327 857.242 321.103 856.712 320.903C856.145 320.689 856.119 320.586 856.302 320.758L849.471 328.06ZM857.412 331.376L871.594 333.921L873.361 324.079L859.179 321.533L857.412 331.376ZM871.581 333.919C878.294 335.142 882.595 337.097 885.114 339.332L891.75 331.85C887.299 327.903 880.963 325.464 873.374 324.081L871.581 333.919ZM885.148 339.362C887.459 341.374 888.727 344.053 888.75 347.938L898.75 347.88C898.712 341.462 896.435 335.929 891.715 331.82L885.148 339.362ZM888.75 347.879C888.726 351.791 887.587 355.001 885.394 357.736L893.197 363.991C896.883 359.393 898.713 353.966 898.75 347.94L888.75 347.879ZM885.391 357.74C883.112 360.589 879.891 362.934 875.503 364.668L879.179 373.968C884.912 371.702 889.661 368.411 893.2 363.987L885.391 357.74ZM875.518 364.662C871.17 366.365 866.063 367.273 860.114 367.273V377.273C867.073 377.273 873.452 376.211 879.164 373.974L875.518 364.662ZM860.114 367.273C850.06 367.273 842.879 365.208 837.999 361.677L832.137 369.778C839.318 374.974 848.833 377.273 860.114 377.273V367.273ZM838.009 361.684C833.122 358.13 830.552 353.647 829.999 347.97L820.046 348.94C820.887 357.566 825.014 364.598 832.127 369.771L838.009 361.684ZM825.023 353.455H849.932V343.455H825.023V353.455ZM844.988 349.2C845.53 352.799 847.409 355.769 850.463 357.772L855.946 349.41C855.304 348.988 855 348.535 854.876 347.71L844.988 349.2ZM850.542 357.823C853.415 359.631 856.768 360.364 860.295 360.364V350.364C858.125 350.364 856.751 349.915 855.867 349.359L850.542 357.823ZM860.295 360.364C863.128 360.364 865.897 359.885 868.321 358.599L863.634 349.765C863.088 350.055 862.069 350.364 860.295 350.364V360.364ZM868.284 358.618C871.082 357.163 873.219 354.557 873.294 350.922L863.297 350.714C863.298 350.645 863.31 350.519 863.36 350.358C863.411 350.196 863.487 350.043 863.576 349.913C863.757 349.651 863.884 349.635 863.671 349.746L868.284 358.618ZM873.294 350.705C873.219 347.395 871.405 344.883 868.883 343.358L863.708 351.915C863.834 351.991 863.701 351.941 863.54 351.684C863.461 351.558 863.396 351.415 863.353 351.267C863.31 351.121 863.298 351.003 863.297 350.932L873.294 350.705ZM868.927 343.385C866.837 342.091 864.083 341.322 861.171 340.804L859.42 350.65C861.963 351.102 863.209 351.606 863.664 351.888L868.927 343.385ZM861.164 340.803L848.801 338.622L847.063 348.469L859.427 350.651L861.164 340.803ZM848.791 338.62C842.237 337.476 837.999 335.407 835.437 332.889L828.427 340.02C832.956 344.472 839.384 347.13 847.072 348.471L848.791 338.62ZM835.437 332.889C832.959 330.453 831.635 327.316 831.659 323.028L821.659 322.972C821.622 329.654 823.814 335.486 828.427 340.02L835.437 332.889ZM831.659 322.969C831.635 319.062 832.641 316.08 834.447 313.722L826.508 307.642C823.162 312.011 821.623 317.241 821.659 323.031L831.659 322.969ZM834.443 313.727C836.364 311.225 839.222 309.149 843.327 307.652L839.9 298.257C834.369 300.275 829.802 303.351 826.512 307.637L834.443 313.727ZM843.344 307.646C847.506 306.111 852.635 305.273 858.841 305.273V295.273C851.774 295.273 845.418 296.222 839.884 298.263L843.344 307.646ZM858.841 305.273C868.299 305.273 875.102 307.239 879.786 310.606L885.623 302.485C878.67 297.488 869.565 295.273 858.841 295.273V305.273ZM879.796 310.613C884.348 313.868 886.694 318.208 886.936 324.114L896.928 323.704C896.564 314.823 892.758 307.587 885.613 302.478L879.796 310.613ZM928.455 331.727L923.455 331.661L923.455 331.694V331.727H928.455ZM928.455 371V376H933.455V371H928.455ZM903.364 371H898.364V376H903.364V371ZM903.364 277.909V272.909H898.364V277.909H903.364ZM927.545 277.909H932.545V272.909H927.545V277.909ZM927.545 314.455H922.545V319.455H927.545V314.455ZM928.273 314.455V319.455H931.808L932.987 316.122L928.273 314.455ZM936.136 304.045L938.941 308.185L938.953 308.177L938.965 308.169L936.136 304.045ZM962.227 303.636L959.603 307.892L959.611 307.897L959.619 307.902L962.227 303.636ZM970.727 312.909L966.269 315.173L966.276 315.186L966.283 315.2L970.727 312.909ZM973.727 326.455L968.727 326.425L968.727 326.44V326.455H973.727ZM973.727 371V376H978.727V371H973.727ZM948.636 371H943.636V376H948.636V371ZM948.636 331.727L943.637 331.683L943.636 331.705V331.727H948.636ZM946.045 323.591L942.286 326.888L942.3 326.904L942.315 326.92L946.045 323.591ZM933.273 322L935.781 326.325L935.795 326.317L935.808 326.31L933.273 322ZM929.727 325.818L925.271 323.55L925.263 323.566L925.255 323.582L929.727 325.818ZM923.455 331.727V371H933.455V331.727H923.455ZM928.455 366H903.364V376H928.455V366ZM908.364 371V277.909H898.364V371H908.364ZM903.364 282.909H927.545V272.909H903.364V282.909ZM922.545 277.909V314.455H932.545V277.909H922.545ZM927.545 319.455H928.273V309.455H927.545V319.455ZM932.987 316.122C934.231 312.603 936.219 310.029 938.941 308.185L933.331 299.906C928.72 303.031 925.466 307.397 923.559 312.787L932.987 316.122ZM938.965 308.169C941.672 306.311 945.057 305.273 949.364 305.273V295.273C943.367 295.273 937.934 296.749 933.308 299.922L938.965 308.169ZM949.364 305.273C953.524 305.273 956.872 306.208 959.603 307.892L964.852 299.381C960.31 296.58 955.082 295.273 949.364 295.273V305.273ZM959.619 307.902C962.472 309.647 964.676 312.035 966.269 315.173L975.186 310.646C972.779 305.905 969.316 302.11 964.836 299.371L959.619 307.902ZM966.283 315.2C967.892 318.322 968.754 322.02 968.727 326.425L978.727 326.484C978.762 320.707 977.623 315.375 975.172 310.618L966.283 315.2ZM968.727 326.455V371H978.727V326.455H968.727ZM973.727 366H948.636V376H973.727V366ZM953.636 371V331.727H943.636V371H953.636ZM953.636 331.771C953.674 327.467 952.59 323.416 949.776 320.262L942.315 326.92C943.016 327.705 943.659 329.079 943.637 331.683L953.636 331.771ZM949.805 320.294C946.918 317.002 942.935 315.636 938.636 315.636V325.636C940.762 325.636 941.719 326.241 942.286 326.888L949.805 320.294ZM938.636 315.636C935.835 315.636 933.149 316.272 930.738 317.69L935.808 326.31C936.487 325.91 937.377 325.636 938.636 325.636V315.636ZM930.764 317.675C928.358 319.07 926.526 321.085 925.271 323.55L934.183 328.087C934.625 327.218 935.157 326.687 935.781 326.325L930.764 317.675ZM925.255 323.582C924.024 326.044 923.493 328.794 923.455 331.661L933.454 331.793C933.477 330.054 933.794 328.865 934.199 328.054L925.255 323.582ZM993.75 369.909L991.746 374.49L991.77 374.501L991.795 374.511L993.75 369.909ZM985.75 363.182L981.551 365.896L985.75 363.182ZM984.795 341.955L989.298 344.13L989.302 344.12L989.307 344.11L984.795 341.955ZM990.25 335.273L993.225 339.291L990.25 335.273ZM998.386 331.318L996.988 326.518L996.976 326.521L998.386 331.318ZM1008.48 329.545L1008.85 334.531L1008.86 334.53L1008.48 329.545ZM1017.89 328.455L1018.77 333.376L1018.79 333.371L1018.82 333.367L1017.89 328.455ZM1023.07 326.591L1026.05 330.605L1026.09 330.578L1026.12 330.55L1023.07 326.591ZM1022.57 319L1019.71 323.105V323.105L1022.57 319ZM1011.34 319.136L1014.19 323.244L1014.2 323.238L1014.21 323.233L1011.34 319.136ZM1008.66 323.909V328.909H1013L1013.61 324.606L1008.66 323.909ZM985.568 323.909L980.581 323.553L980.198 328.909H985.568V323.909ZM989.614 312.182L985.464 309.392L985.459 309.4L989.614 312.182ZM1000.2 303.545L1002.31 308.081L1002.32 308.075L1002.33 308.07L1000.2 303.545ZM1031.02 302.045L1029.6 306.838L1029.61 306.843L1029.63 306.848L1031.02 302.045ZM1041.16 306.909L1038.16 310.909L1038.17 310.92L1038.19 310.93L1041.16 306.909ZM1047.52 314.182L1043.09 316.495L1043.1 316.524L1043.12 316.552L1047.52 314.182ZM1049.75 371V376H1054.75V371H1049.75ZM1026.3 371H1021.3V376H1026.3V371ZM1026.3 361.182H1031.3V356.182H1026.3V361.182ZM1025.75 361.182V356.182H1022.75L1021.34 358.824L1025.75 361.182ZM1020.66 367.5L1017.53 363.601L1017.51 363.613L1017.5 363.625L1020.66 367.5ZM1013.89 371L1012.51 366.192L1012.51 366.195L1012.5 366.197L1013.89 371ZM1019.11 355.091L1017.01 350.556L1016.99 350.563L1016.98 350.571L1019.11 355.091ZM1023.25 351.682L1019.18 348.776L1023.25 351.682ZM1024.84 340.455H1029.84V333.007L1022.95 335.827L1024.84 340.455ZM1022.7 341.227L1021.18 336.465L1021.15 336.474L1021.12 336.484L1022.7 341.227ZM1020.34 341.909L1019.13 337.058L1019.11 337.064L1019.09 337.069L1020.34 341.909ZM1017.7 342.5L1016.75 337.591L1016.74 337.594L1016.72 337.597L1017.7 342.5ZM1014.84 343L1014.09 338.056L1014.08 338.058L1014.07 338.06L1014.84 343ZM1010.07 344.5L1012.48 348.881L1012.5 348.871L1012.51 348.861L1010.07 344.5ZM1007.34 347L1003.06 344.408L1003.05 344.428L1003.04 344.447L1007.34 347ZM1008.52 354.727L1011.54 350.738L1008.52 354.727ZM1005.57 367.091C1001.66 367.091 998.401 366.453 995.705 365.307L991.795 374.511C995.947 376.275 1000.57 377.091 1005.57 377.091V367.091ZM995.754 365.328C993.224 364.221 991.335 362.612 989.949 360.467L981.551 365.896C984.044 369.752 987.488 372.627 991.746 374.49L995.754 365.328ZM989.949 360.467C988.667 358.485 987.841 355.683 987.841 351.727H977.841C977.841 357.044 978.954 361.879 981.551 365.896L989.949 360.467ZM987.841 351.727C987.841 348.462 988.399 345.988 989.298 344.13L980.293 339.779C978.585 343.315 977.841 347.356 977.841 351.727H987.841ZM989.307 344.11C990.273 342.089 991.576 340.512 993.225 339.291L987.275 331.254C984.258 333.488 981.924 336.366 980.284 339.799L989.307 344.11ZM993.225 339.291C995.038 337.95 997.208 336.877 999.797 336.115L996.976 326.521C993.383 327.578 990.129 329.141 987.275 331.254L993.225 339.291ZM999.785 336.119C1002.54 335.317 1005.56 334.781 1008.85 334.531L1008.1 324.56C1004.19 324.856 1000.48 325.501 996.988 326.518L999.785 336.119ZM1008.86 334.53C1012.85 334.222 1016.17 333.842 1018.77 333.376L1017 323.533C1014.87 323.915 1011.92 324.263 1008.09 324.56L1008.86 334.53ZM1018.82 333.367C1021.43 332.871 1024.06 332.079 1026.05 330.605L1020.09 322.577C1020.09 322.577 1020.03 322.618 1019.89 322.688C1019.75 322.758 1019.56 322.845 1019.29 322.943C1018.73 323.141 1017.97 323.349 1016.95 323.542L1018.82 333.367ZM1026.12 330.55C1028.4 328.79 1029.66 326.255 1029.66 323.364H1019.66C1019.66 323.364 1019.66 323.32 1019.68 323.24C1019.69 323.159 1019.73 323.062 1019.78 322.96C1019.83 322.857 1019.88 322.774 1019.94 322.713C1019.99 322.653 1020.02 322.629 1020.01 322.632L1026.12 330.55ZM1029.66 323.364V323.182H1019.66V323.364H1029.66ZM1029.66 323.182C1029.66 319.863 1028.27 316.875 1025.42 314.895L1019.71 323.105C1019.76 323.137 1019.76 323.144 1019.74 323.12C1019.73 323.108 1019.71 323.092 1019.7 323.071C1019.69 323.051 1019.67 323.03 1019.66 323.009C1019.65 322.988 1019.65 322.971 1019.64 322.961C1019.64 322.95 1019.64 322.949 1019.64 322.958C1019.65 322.977 1019.66 323.047 1019.66 323.182H1029.66ZM1025.42 314.895C1022.98 313.197 1020.12 312.545 1017.2 312.545V322.545C1018.66 322.545 1019.37 322.864 1019.71 323.105L1025.42 314.895ZM1017.2 312.545C1014.09 312.545 1011.05 313.24 1008.47 315.04L1014.21 323.233C1014.67 322.912 1015.54 322.545 1017.2 322.545V312.545ZM1008.49 315.028C1005.63 317.012 1004.16 319.983 1003.71 323.212L1013.61 324.606C1013.76 323.533 1014.08 323.321 1014.19 323.244L1008.49 315.028ZM1008.66 318.909H985.568V328.909H1008.66V318.909ZM990.555 324.265C990.796 320.901 991.852 317.826 993.768 314.963L985.459 309.4C982.587 313.689 980.947 318.433 980.581 323.553L990.555 324.265ZM993.763 314.971C995.594 312.248 998.353 309.917 1002.31 308.081L998.1 299.01C992.783 301.477 988.482 304.904 985.464 309.392L993.763 314.971ZM1002.33 308.07C1006.11 306.292 1011.12 305.273 1017.57 305.273V295.273C1010.14 295.273 1003.57 296.436 998.076 299.021L1002.33 308.07ZM1017.57 305.273C1022.18 305.273 1026.17 305.819 1029.6 306.838L1032.45 297.253C1027.93 295.909 1022.95 295.273 1017.57 295.273V305.273ZM1029.63 306.848C1033.13 307.861 1035.93 309.241 1038.16 310.909L1044.16 302.909C1040.81 300.396 1036.86 298.532 1032.42 297.243L1029.63 306.848ZM1038.19 310.93C1040.43 312.586 1042.02 314.446 1043.09 316.495L1051.96 311.869C1050.12 308.342 1047.47 305.353 1044.13 302.888L1038.19 310.93ZM1043.12 316.552C1044.2 318.555 1044.75 320.737 1044.75 323.182H1054.75C1054.75 319.142 1053.82 315.324 1051.93 311.811L1043.12 316.552ZM1044.75 323.182V371H1054.75V323.182H1044.75ZM1049.75 366H1026.3V376H1049.75V366ZM1031.3 371V361.182H1021.3V371H1031.3ZM1026.3 356.182H1025.75V366.182H1026.3V356.182ZM1021.34 358.824C1020.22 360.925 1018.93 362.477 1017.53 363.601L1023.79 371.399C1026.39 369.311 1028.5 366.651 1030.16 363.54L1021.34 358.824ZM1017.5 363.625C1016.08 364.784 1014.43 365.644 1012.51 366.192L1015.26 375.808C1018.43 374.902 1021.3 373.428 1023.82 371.375L1017.5 363.625ZM1012.5 366.197C1010.5 366.775 1008.2 367.091 1005.57 367.091V377.091C1009 377.091 1012.24 376.68 1015.28 375.803L1012.5 366.197ZM1013.75 361.273C1016.37 361.273 1018.89 360.726 1021.25 359.611L1016.98 350.571C1016 351.031 1014.95 351.273 1013.75 351.273V361.273ZM1021.22 359.626C1023.68 358.484 1025.74 356.795 1027.32 354.588L1019.18 348.776C1018.64 349.539 1017.94 350.122 1017.01 350.556L1021.22 359.626ZM1027.32 354.588C1029.08 352.123 1029.84 349.261 1029.84 346.273H1019.84C1019.84 347.527 1019.54 348.271 1019.18 348.776L1027.32 354.588ZM1029.84 346.273V340.455H1019.84V346.273H1029.84ZM1022.95 335.827C1022.41 336.045 1021.83 336.259 1021.18 336.465L1024.23 345.989C1025.1 345.711 1025.93 345.409 1026.73 345.082L1022.95 335.827ZM1021.12 336.484C1020.53 336.681 1019.87 336.873 1019.13 337.058L1021.55 346.76C1022.51 346.521 1023.42 346.259 1024.29 345.971L1021.12 336.484ZM1019.09 337.069C1018.38 337.252 1017.6 337.427 1016.75 337.591L1018.65 347.409C1019.68 347.21 1020.66 346.99 1021.6 346.749L1019.09 337.069ZM1016.72 337.597C1015.9 337.762 1015.02 337.916 1014.09 338.056L1015.59 347.944C1016.66 347.781 1017.69 347.601 1018.69 347.403L1016.72 337.597ZM1014.07 338.06C1011.75 338.423 1009.54 339.064 1007.62 340.139L1012.51 348.861C1013.08 348.542 1014.05 348.183 1015.61 347.94L1014.07 338.06ZM1007.66 340.119C1005.82 341.13 1004.2 342.532 1003.06 344.408L1011.62 349.592C1011.69 349.468 1011.89 349.203 1012.48 348.881L1007.66 340.119ZM1003.04 344.447C1001.97 346.247 1001.48 348.232 1001.48 350.273H1011.48C1011.48 349.889 1011.56 349.692 1011.64 349.553L1003.04 344.447ZM1001.48 350.273C1001.48 353.538 1002.71 356.605 1005.51 358.717L1011.54 350.738C1011.5 350.71 1011.5 350.701 1011.51 350.715C1011.52 350.73 1011.53 350.746 1011.53 350.754C1011.54 350.777 1011.48 350.655 1011.48 350.273H1001.48ZM1005.51 358.717C1007.93 360.547 1010.81 361.273 1013.75 361.273V351.273C1012.45 351.273 1011.84 350.968 1011.54 350.738L1005.51 358.717ZM1073.28 368L1070.63 372.235L1070.63 372.239L1070.64 372.243L1073.28 368ZM1063.28 356.136L1058.76 358.258L1058.76 358.268L1058.77 358.279L1063.28 356.136ZM1063.47 315.545L1058.99 313.309L1058.99 313.32L1058.98 313.33L1063.47 315.545ZM1073.65 303.955L1071.12 299.642L1071.11 299.646L1071.1 299.651L1073.65 303.955ZM1095.92 302.091L1093.81 306.625L1093.83 306.635L1093.86 306.645L1095.92 302.091ZM1102.47 306.864L1098.71 310.164L1098.72 310.178L1098.74 310.193L1102.47 306.864ZM1106.47 313.364L1101.8 315.159L1103.03 318.364H1106.47V313.364ZM1106.83 313.364V318.364H1111.83V313.364H1106.83ZM1106.83 277.909V272.909H1101.83V277.909H1106.83ZM1131.92 277.909H1136.92V272.909H1131.92V277.909ZM1131.92 371V376H1136.92V371H1131.92ZM1107.01 371H1102.01V376H1107.01V371ZM1107.01 359.545H1112.01V354.545H1107.01V359.545ZM1106.47 359.545V354.545H1103.11L1101.84 357.648L1106.47 359.545ZM1102.28 365.909L1098.69 362.432L1098.69 362.433L1102.28 365.909ZM1095.74 370.318L1097.66 374.934L1097.68 374.928L1097.69 374.922L1095.74 370.318ZM1102.19 350.636L1105.35 354.513L1105.36 354.506L1102.19 350.636ZM1106.01 344.909L1101.32 343.191L1101.31 343.207L1101.3 343.224L1106.01 344.909ZM1106.01 327.227L1101.3 328.894L1101.31 328.929L1101.32 328.964L1106.01 327.227ZM1102.19 321.545L1099.03 325.422L1099.07 325.453L1099.11 325.484L1102.19 321.545ZM1090.38 321.545L1093.53 325.428L1093.53 325.422L1090.38 321.545ZM1086.65 327.227L1081.93 325.56L1081.93 325.577L1081.92 325.594L1086.65 327.227ZM1086.65 345L1081.92 346.616L1081.93 346.651L1081.94 346.685L1086.65 345ZM1090.38 350.682L1087.18 354.529L1087.22 354.561L1087.26 354.593L1090.38 350.682ZM1087.01 366.909C1082.97 366.909 1079.31 365.864 1075.93 363.757L1070.64 372.243C1075.62 375.348 1081.12 376.909 1087.01 376.909V366.909ZM1075.94 363.765C1072.74 361.758 1069.99 358.608 1067.8 353.994L1058.77 358.279C1061.61 364.271 1065.52 369.03 1070.63 372.235L1075.94 363.765ZM1067.81 354.015C1065.73 349.577 1064.56 343.678 1064.56 336.091H1054.56C1054.56 344.625 1055.87 352.09 1058.76 358.258L1067.81 354.015ZM1064.56 336.091C1064.56 328.126 1065.8 322.113 1067.95 317.761L1058.98 313.33C1055.92 319.524 1054.56 327.208 1054.56 336.091H1064.56ZM1067.94 317.782C1070.24 313.177 1073.04 310.125 1076.19 308.259L1071.1 299.651C1065.96 302.694 1061.96 307.369 1058.99 313.309L1067.94 317.782ZM1076.18 308.267C1079.64 306.238 1083.16 305.273 1086.83 305.273V295.273C1081.29 295.273 1076.02 296.762 1071.12 299.642L1076.18 308.267ZM1086.83 305.273C1089.7 305.273 1091.99 305.775 1093.81 306.625L1098.03 297.557C1094.64 295.982 1090.87 295.273 1086.83 295.273V305.273ZM1093.86 306.645C1095.86 307.556 1097.46 308.736 1098.71 310.164L1106.22 303.563C1103.96 300.991 1101.19 298.99 1097.99 297.537L1093.86 306.645ZM1098.74 310.193C1100.11 311.731 1101.12 313.382 1101.8 315.159L1111.13 311.569C1110 308.618 1108.34 305.936 1106.2 303.535L1098.74 310.193ZM1106.47 318.364H1106.83V308.364H1106.47V318.364ZM1111.83 313.364V277.909H1101.83V313.364H1111.83ZM1106.83 282.909H1131.92V272.909H1106.83V282.909ZM1126.92 277.909V371H1136.92V277.909H1126.92ZM1131.92 366H1107.01V376H1131.92V366ZM1112.01 371V359.545H1102.01V371H1112.01ZM1107.01 354.545H1106.47V364.545H1107.01V354.545ZM1101.84 357.648C1101.12 359.41 1100.08 360.998 1098.69 362.432L1105.88 369.386C1108.13 367.062 1109.88 364.408 1111.09 361.443L1101.84 357.648ZM1098.69 362.433C1097.41 363.758 1095.8 364.862 1093.79 365.714L1097.69 374.922C1100.83 373.593 1103.58 371.757 1105.88 369.385L1098.69 362.433ZM1093.82 365.703C1091.98 366.467 1089.75 366.909 1087.01 366.909V376.909C1090.82 376.909 1094.4 376.291 1097.66 374.934L1093.82 365.703ZM1096.28 357.636C1099.63 357.636 1102.74 356.641 1105.35 354.513L1099.03 346.76C1098.37 347.299 1097.55 347.636 1096.28 347.636V357.636ZM1105.36 354.506C1107.86 352.457 1109.6 349.723 1110.72 346.594L1101.3 343.224C1100.67 345.004 1099.86 346.088 1099.03 346.767L1105.36 354.506ZM1110.71 346.627C1111.87 343.461 1112.38 339.913 1112.38 336.091H1102.38C1102.38 339.057 1101.98 341.388 1101.32 343.191L1110.71 346.627ZM1112.38 336.091C1112.38 332.222 1111.87 328.647 1110.7 325.491L1101.32 328.964C1101.97 330.716 1102.38 333.05 1102.38 336.091H1112.38ZM1110.73 325.56C1109.61 322.398 1107.85 319.625 1105.27 317.606L1099.11 325.484C1099.87 326.072 1100.66 327.087 1101.3 328.894L1110.73 325.56ZM1105.35 317.669C1102.74 315.541 1099.63 314.545 1096.28 314.545V324.545C1097.55 324.545 1098.37 324.883 1099.03 325.422L1105.35 317.669ZM1096.28 314.545C1092.94 314.545 1089.83 315.541 1087.22 317.669L1093.53 325.422C1094.19 324.883 1095.02 324.545 1096.28 324.545V314.545ZM1087.22 317.663C1084.73 319.685 1083.04 322.442 1081.93 325.56L1091.36 328.894C1092.02 327.043 1092.81 326.012 1093.53 325.428L1087.22 317.663ZM1081.92 325.594C1080.84 328.715 1080.38 332.253 1080.38 336.091H1090.38C1090.38 333.02 1090.76 330.649 1091.37 328.861L1081.92 325.594ZM1080.38 336.091C1080.38 339.932 1080.84 343.476 1081.92 346.616L1091.38 343.384C1090.75 341.554 1090.38 339.159 1090.38 336.091H1080.38ZM1081.94 346.685C1083.05 349.775 1084.73 352.497 1087.18 354.529L1093.57 346.835C1092.8 346.2 1092.01 345.134 1091.36 343.315L1081.94 346.685ZM1087.26 354.593C1089.87 356.673 1092.97 357.636 1096.28 357.636V347.636C1094.99 347.636 1094.15 347.297 1093.49 346.77L1087.26 354.593Z" fill="url(#paint4_linear_139_98)" mask="url(#path-5-outside-1_139_98)"/>
<path d="M63.5234 34.8515L56 54.625H64.0948L67.8088 43.9341L63.5234 34.8515Z" fill="white"/>
<path d="M74.4751 54.625L64.8566 34H72.7609L82.3794 54.625H74.4751Z" fill="white"/>
<path d="M79.1073 39.0143L76.917 34H84.5356L87.0116 39.0143H79.1073Z" fill="white"/>
<path d="M86.2498 54.625L79.4883 40.3389H87.4878L94.4398 54.625H86.2498Z" fill="white"/>
<path d="M90.882 39.0143L88.6916 34H101.643L104.024 39.0143H90.882Z" fill="white"/>
<path d="M100.405 54.625L93.8342 40.3389H101.643L108.5 54.625H100.405Z" fill="white"/>
<path d="M140.648 39.3636V35.5455H155.818V39.3636H150.568V53H145.898V39.3636H140.648ZM157.602 53V35.5455H170.181V39.3636H162.34V42.3636H169.533V46.1818H162.34V49.1818H170.147V53H157.602ZM188.827 42.0909H184.02C183.986 41.6932 183.895 41.3324 183.747 41.0085C183.605 40.6847 183.406 40.4062 183.151 40.1733C182.901 39.9347 182.597 39.7528 182.239 39.6278C181.881 39.4972 181.474 39.4318 181.02 39.4318C180.224 39.4318 179.551 39.625 179 40.0114C178.455 40.3977 178.04 40.9517 177.756 41.6733C177.477 42.3949 177.338 43.2614 177.338 44.2727C177.338 45.3409 177.48 46.2358 177.764 46.9574C178.054 47.6733 178.472 48.2131 179.017 48.5767C179.563 48.9347 180.219 49.1136 180.986 49.1136C181.423 49.1136 181.815 49.0597 182.162 48.9517C182.509 48.8381 182.81 48.6761 183.065 48.4659C183.321 48.2557 183.528 48.0028 183.688 47.7074C183.852 47.4062 183.963 47.0682 184.02 46.6932L188.827 46.7273C188.77 47.4659 188.563 48.2187 188.205 48.9858C187.847 49.7472 187.338 50.4517 186.679 51.0994C186.026 51.7415 185.216 52.2585 184.25 52.6506C183.284 53.0426 182.162 53.2386 180.884 53.2386C179.281 53.2386 177.844 52.8949 176.571 52.2074C175.304 51.5199 174.301 50.5085 173.562 49.1733C172.83 47.8381 172.463 46.2045 172.463 44.2727C172.463 42.3295 172.838 40.6932 173.588 39.3636C174.338 38.0284 175.349 37.0199 176.622 36.3381C177.895 35.6506 179.315 35.3068 180.884 35.3068C181.986 35.3068 183 35.4574 183.926 35.7585C184.852 36.0597 185.665 36.5 186.364 37.0795C187.063 37.6534 187.625 38.3608 188.051 39.2017C188.477 40.0426 188.736 41.0057 188.827 42.0909ZM190.977 53V35.5455H195.715V42.3636H201.988V35.5455H206.727V53H201.988V46.1818H195.715V53H190.977ZM224.079 35.5455V53H220.124L213.817 43.8295H213.715V53H208.977V35.5455H212.999L219.204 44.6818H219.34V35.5455H224.079ZM243.229 44.2727C243.229 46.2159 242.852 47.8551 242.096 49.1903C241.34 50.5199 240.32 51.5284 239.036 52.2159C237.752 52.8977 236.32 53.2386 234.741 53.2386C233.15 53.2386 231.712 52.8949 230.428 52.2074C229.15 51.5142 228.133 50.5028 227.377 49.1733C226.627 47.8381 226.252 46.2045 226.252 44.2727C226.252 42.3295 226.627 40.6932 227.377 39.3636C228.133 38.0284 229.15 37.0199 230.428 36.3381C231.712 35.6506 233.15 35.3068 234.741 35.3068C236.32 35.3068 237.752 35.6506 239.036 36.3381C240.32 37.0199 241.34 38.0284 242.096 39.3636C242.852 40.6932 243.229 42.3295 243.229 44.2727ZM238.354 44.2727C238.354 43.2273 238.215 42.3466 237.937 41.6307C237.664 40.9091 237.258 40.3636 236.718 39.9943C236.184 39.6193 235.525 39.4318 234.741 39.4318C233.957 39.4318 233.295 39.6193 232.755 39.9943C232.221 40.3636 231.815 40.9091 231.536 41.6307C231.263 42.3466 231.127 43.2273 231.127 44.2727C231.127 45.3182 231.263 46.2017 231.536 46.9233C231.815 47.6392 232.221 48.1847 232.755 48.5597C233.295 48.929 233.957 49.1136 234.741 49.1136C235.525 49.1136 236.184 48.929 236.718 48.5597C237.258 48.1847 237.664 47.6392 237.937 46.9233C238.215 46.2017 238.354 45.3182 238.354 44.2727ZM254.831 41C254.786 40.4318 254.572 39.9886 254.192 39.6705C253.817 39.3523 253.246 39.1932 252.479 39.1932C251.99 39.1932 251.589 39.2528 251.277 39.3722C250.97 39.4858 250.743 39.642 250.595 39.8409C250.447 40.0398 250.371 40.267 250.365 40.5227C250.354 40.733 250.391 40.9233 250.476 41.0938C250.567 41.2585 250.709 41.4091 250.902 41.5455C251.095 41.6761 251.342 41.7955 251.643 41.9034C251.945 42.0114 252.303 42.108 252.717 42.1932L254.149 42.5C255.115 42.7045 255.942 42.9744 256.629 43.3097C257.317 43.6449 257.879 44.0398 258.317 44.4943C258.754 44.9432 259.075 45.4489 259.28 46.0114C259.49 46.5739 259.598 47.1875 259.604 47.8523C259.598 49 259.311 49.9716 258.743 50.767C258.175 51.5625 257.362 52.1676 256.305 52.5824C255.254 52.9972 253.99 53.2045 252.513 53.2045C250.996 53.2045 249.672 52.9801 248.541 52.5312C247.416 52.0824 246.541 51.392 245.916 50.4602C245.297 49.5227 244.984 48.3239 244.979 46.8636H249.479C249.507 47.3977 249.641 47.8466 249.879 48.2102C250.118 48.5739 250.453 48.8494 250.885 49.0369C251.322 49.2244 251.842 49.3182 252.445 49.3182C252.95 49.3182 253.374 49.2557 253.714 49.1307C254.055 49.0057 254.314 48.8324 254.49 48.6108C254.666 48.3892 254.757 48.1364 254.763 47.8523C254.757 47.5852 254.669 47.3523 254.499 47.1534C254.334 46.9489 254.061 46.767 253.68 46.608C253.3 46.4432 252.786 46.2898 252.138 46.1477L250.399 45.7727C248.854 45.4375 247.635 44.8778 246.743 44.0938C245.857 43.304 245.416 42.2273 245.422 40.8636C245.416 39.7557 245.712 38.7869 246.308 37.9574C246.911 37.1222 247.743 36.4716 248.805 36.0057C249.874 35.5398 251.098 35.3068 252.479 35.3068C253.888 35.3068 255.107 35.5426 256.135 36.0142C257.163 36.4858 257.956 37.1506 258.513 38.0085C259.075 38.8608 259.359 39.858 259.365 41H254.831ZM261.406 53V35.5455H268.94C270.236 35.5455 271.369 35.8011 272.341 36.3125C273.313 36.8239 274.068 37.5426 274.608 38.4688C275.148 39.3949 275.418 40.4773 275.418 41.7159C275.418 42.9659 275.139 44.0483 274.582 44.9631C274.031 45.8778 273.256 46.5824 272.256 47.0767C271.261 47.571 270.099 47.8182 268.77 47.8182H264.27V44.1364H267.815C268.372 44.1364 268.847 44.0398 269.239 43.8466C269.636 43.6477 269.94 43.3665 270.151 43.0028C270.366 42.6392 270.474 42.2102 270.474 41.7159C270.474 41.2159 270.366 40.7898 270.151 40.4375C269.94 40.0795 269.636 39.8068 269.239 39.6193C268.847 39.4261 268.372 39.3295 267.815 39.3295H266.145V53H261.406ZM279.511 53H274.397L280.158 35.5455H286.636L292.397 53H287.283L283.465 40.3523H283.329L279.511 53ZM278.556 46.1136H288.17V49.6591H278.556V46.1136ZM294.078 53V35.5455H301.612C302.908 35.5455 304.041 35.7812 305.013 36.2528C305.984 36.7244 306.74 37.4034 307.28 38.2898C307.82 39.1761 308.089 40.2386 308.089 41.4773C308.089 42.7273 307.811 43.7812 307.254 44.6392C306.703 45.4972 305.928 46.1449 304.928 46.5824C303.933 47.0199 302.771 47.2386 301.442 47.2386H296.942V43.5568H300.487C301.044 43.5568 301.518 43.4886 301.911 43.3523C302.308 43.2102 302.612 42.9858 302.822 42.679C303.038 42.3722 303.146 41.9716 303.146 41.4773C303.146 40.9773 303.038 40.571 302.822 40.2585C302.612 39.9403 302.308 39.7074 301.911 39.5597C301.518 39.4062 301.044 39.3295 300.487 39.3295H298.817V53H294.078ZM304.305 44.9886L308.669 53H303.521L299.26 44.9886H304.305ZM315.189 35.5455L318.053 40.625H318.189L321.087 35.5455H326.371L321.155 44.2727L326.575 53H321.155L318.189 47.8182H318.053L315.087 53H309.7L315.053 44.2727L309.871 35.5455H315.189Z" fill="white"/>
<g opacity="0.25">
<path d="M92.9151 496.709C102.407 494.523 108.04 486.136 105.497 477.977C102.954 469.817 93.1972 464.975 83.7051 467.161C74.2129 469.347 68.5798 477.734 71.1231 485.893C73.6664 494.053 83.423 498.895 92.9151 496.709Z" fill="url(#paint5_linear_139_98)"/>
<path d="M109.319 580.191H87.6469C87.6469 580.191 86.5063 580.191 85.5938 580.191C75.7844 579.407 67.3438 573.328 64.8344 564.896L50.0063 517.441C49.0938 514.696 45.9 513.323 43.1625 513.912C39.9688 514.696 38.3719 517.441 39.0563 519.795L53.6563 567.249C57.5344 579.603 69.625 588.623 84.4532 589.604C85.8219 589.8 87.4188 589.8 87.4188 589.8H109.091C112.284 589.8 114.566 587.643 114.794 584.898C114.794 582.152 112.513 580.191 109.319 580.191Z" fill="url(#paint6_linear_139_98)"/>
<path d="M134.869 553.523H105.213C104.528 543.914 102.703 534.306 99.9656 524.697C99.7375 523.913 99.0531 521.952 99.0531 521.756C95.175 509.402 81.4875 501.558 67.1156 502.735C67.1156 502.735 65.2906 502.931 64.8344 502.931C59.5875 504.107 56.3938 508.813 57.7625 513.52L73.0469 562.347C74.6438 567.838 80.1188 571.956 86.9625 572.348H88.3313H123.691V607.253C123.691 612.547 128.481 616.861 134.869 616.861C141.028 616.861 146.047 612.743 146.047 607.253V563.131C146.047 560.582 144.906 558.229 142.625 556.464C140.572 554.503 137.606 553.523 134.869 553.523Z" fill="url(#paint7_linear_139_98)"/>
<path d="M272.496 486.015C275.039 477.855 269.406 469.469 259.914 467.283C250.422 465.096 240.665 469.939 238.122 478.098C235.579 486.257 241.212 494.644 250.704 496.83C260.196 499.016 269.953 494.174 272.496 486.015Z" fill="url(#paint8_linear_139_98)"/>
<path d="M229.769 580.191H251.441C251.441 580.191 252.581 580.191 253.494 580.191C263.303 579.407 271.744 573.328 274.253 564.896L289.081 517.441C289.994 514.696 293.187 513.323 295.925 513.911C299.119 514.696 300.716 517.441 300.031 519.794L285.431 567.249C281.553 579.603 269.463 588.623 254.634 589.603C253.266 589.8 251.669 589.8 251.669 589.8H229.997C226.803 589.8 224.522 587.643 224.294 584.897C224.294 582.152 226.803 580.191 229.769 580.191Z" fill="url(#paint9_linear_139_98)"/>
<path d="M204.219 553.522H233.875C234.559 543.914 236.384 534.305 239.122 524.697C239.35 523.912 240.034 521.951 240.034 521.755C243.913 509.401 257.6 501.557 271.972 502.734C271.972 502.734 273.797 502.93 274.253 502.93C279.5 504.107 282.694 508.813 281.325 513.519L265.813 562.347C264.216 567.837 258.741 571.955 251.897 572.347H250.528H215.397V607.252C215.397 612.547 210.606 616.861 204.219 616.861C197.831 616.861 193.041 612.743 193.041 607.252V563.131C193.041 560.582 194.181 558.229 196.463 556.464C198.516 554.503 201.481 553.522 204.219 553.522Z" fill="url(#paint10_linear_139_98)"/>
<path d="M227.944 527.834H112.513V539.6H227.944V527.834Z" fill="url(#paint11_linear_139_98)"/>
</g>
<g opacity="0.22" clip-path="url(#clip1_139_98)">
<path d="M1018 23V43.16C1039.6 43.16 1030.42 49.88 1050.4 49.88H1061.2V31.96H1050.4C1030.42 31.96 1039.6 23 1018 23ZM1018 54.36C981.255 54.36 950.964 78.195 948.138 108.12H947.8C947.631 108.12 947.463 108.12 947.294 108.12C947.125 108.12 946.956 108.12 946.788 108.12C943.813 108.347 941.62 110.553 941.894 113.02C942.168 115.487 944.826 117.307 947.8 117.08V139.48H958.6V117.08H969.4V139.48H980.2V117.08H991V139.48H1001.8V117.08H1012.6V139.48H1023.4V117.08H1034.2V139.48H1045V117.08H1055.8V139.48H1066.6V117.08H1077.4V139.48H1088.2V117.08C1090.14 117.097 1091.95 116.258 1092.95 114.858C1093.92 113.458 1093.92 111.743 1092.95 110.343C1091.95 108.943 1090.14 108.103 1088.2 108.12H1087.86C1085.04 78.195 1054.75 54.36 1018 54.36ZM1018 63.32C1048.78 63.32 1073.35 83.1825 1076.22 108.12H959.781C962.65 83.1825 987.224 63.32 1018 63.32ZM883 143.96V247H1153V143.96H883ZM893.8 152.92H1142.2V238.04H893.8V152.92ZM910 166.36V179.8H931.6V166.36H910ZM947.8 166.36V179.8H969.4V166.36H947.8ZM985.6 166.36V179.8H1007.2V166.36H985.6ZM1023.4 166.36V179.8H1045V166.36H1023.4ZM1061.2 166.36V179.8H1082.8V166.36H1061.2ZM1099 166.36V179.8H1120.6V166.36H1099ZM910 188.76V202.2H931.6V188.76H910ZM947.8 188.76V202.2H969.4V188.76H947.8ZM985.6 188.76V202.2H1007.2V188.76H985.6ZM1023.4 188.76V202.2H1045V188.76H1023.4ZM1061.2 188.76V202.2H1082.8V188.76H1061.2ZM1099 188.76V202.2H1120.6V188.76H1099ZM910 211.16V224.6H931.6V211.16H910ZM947.8 211.16V224.6H969.4V211.16H947.8ZM985.6 211.16V224.6H1007.2V211.16H985.6ZM1023.4 211.16V224.6H1045V211.16H1023.4ZM1061.2 211.16V224.6H1082.8V211.16H1061.2ZM1099 211.16V224.6H1120.6V211.16H1099Z" fill="url(#paint12_linear_139_98)"/>
</g>
</g>
<defs>
<linearGradient id="paint0_linear_139_98" x1="-63.757" y1="-34.0071" x2="-63.757" y2="347.166" gradientUnits="userSpaceOnUse">
<stop stop-color="#FF9E0B"/>
<stop offset="1" stop-color="#EC4899"/>
</linearGradient>
<linearGradient id="paint1_linear_139_98" x1="1173" y1="695.827" x2="1173" y2="969.442" gradientUnits="userSpaceOnUse">
<stop stop-color="#FF9E0B"/>
<stop offset="1" stop-color="#F24E52"/>
</linearGradient>
<linearGradient id="paint2_linear_139_98" x1="882.5" y1="530" x2="882.5" y2="919" gradientUnits="userSpaceOnUse">
<stop stop-color="#FF9E0B"/>
<stop offset="1" stop-color="#9C67E7"/>
</linearGradient>
<linearGradient id="paint3_linear_139_98" x1="491" y1="30" x2="491" y2="162" gradientUnits="userSpaceOnUse">
<stop stop-color="#FF9E0B"/>
<stop offset="1" stop-color="#DA46EB"/>
</linearGradient>
<linearGradient id="paint4_linear_139_98" x1="599.5" y1="247" x2="599.5" y2="402" gradientUnits="userSpaceOnUse">
<stop stop-color="#FF9E0B"/>
<stop offset="0.49" stop-color="#F24E52"/>
</linearGradient>
<linearGradient id="paint5_linear_139_98" x1="83.7051" y1="467.161" x2="90.6314" y2="497.235" gradientUnits="userSpaceOnUse">
<stop stop-color="#EC4899"/>
<stop offset="1" stop-color="#FF9E0B"/>
</linearGradient>
<linearGradient id="paint6_linear_139_98" x1="76.8468" y1="513.777" x2="76.8468" y2="589.8" gradientUnits="userSpaceOnUse">
<stop stop-color="#EC4899"/>
<stop offset="1" stop-color="#FF9E0B"/>
</linearGradient>
<linearGradient id="paint7_linear_139_98" x1="101.746" y1="502.618" x2="101.746" y2="616.861" gradientUnits="userSpaceOnUse">
<stop stop-color="#EC4899"/>
<stop offset="1" stop-color="#FF9E0B"/>
</linearGradient>
<linearGradient id="paint8_linear_139_98" x1="238.122" y1="478.098" x2="271.701" y2="488.565" gradientUnits="userSpaceOnUse">
<stop stop-color="#EC4899"/>
<stop offset="1" stop-color="#FF9E0B"/>
</linearGradient>
<linearGradient id="paint9_linear_139_98" x1="262.241" y1="513.777" x2="262.241" y2="589.8" gradientUnits="userSpaceOnUse">
<stop stop-color="#EC4899"/>
<stop offset="1" stop-color="#FF9E0B"/>
</linearGradient>
<linearGradient id="paint10_linear_139_98" x1="237.341" y1="502.618" x2="237.341" y2="616.861" gradientUnits="userSpaceOnUse">
<stop stop-color="#EC4899"/>
<stop offset="1" stop-color="#FF9E0B"/>
</linearGradient>
<linearGradient id="paint11_linear_139_98" x1="170.228" y1="527.834" x2="170.228" y2="539.6" gradientUnits="userSpaceOnUse">
<stop stop-color="#EC4899"/>
<stop offset="1" stop-color="#FF9E0B"/>
</linearGradient>
<linearGradient id="paint12_linear_139_98" x1="1018" y1="23" x2="1018" y2="247" gradientUnits="userSpaceOnUse">
<stop stop-color="#DA46EB"/>
<stop offset="1" stop-color="#F24E52"/>
</linearGradient>
<clipPath id="clip0_139_98">
<rect width="1200" height="630" fill="white"/>
</clipPath>
<clipPath id="clip1_139_98">
<rect width="270" height="224" fill="white" transform="translate(883 23)"/>
</clipPath>
</defs>
</svg>
