<svg width="1200" height="630" viewBox="0 0 1200 630" fill="none" xmlns="http://www.w3.org/2000/svg">
<g clip-path="url(#clip0_146_141)">
<rect width="1200" height="630" fill="black"/>
<rect x="-427.809" y="-32.4844" width="729.486" height="376.173" transform="rotate(-19.4848 -427.809 -32.4844)" stroke="url(#paint0_linear_146_141)" stroke-width="5"/>
<rect x="883" y="695.827" width="580" height="273.616" transform="rotate(-35.26 883 695.827)" fill="url(#paint1_linear_146_141)"/>
<circle cx="882.5" cy="724.5" r="193" stroke="url(#paint2_linear_146_141)" stroke-width="3"/>
<path opacity="0.49" d="M415 58.3636C414.121 58.3636 413.367 58.0568 412.739 57.4432C412.117 56.822 411.811 56.0682 411.818 55.1818C411.811 54.3182 412.117 53.5795 412.739 52.9659C413.367 52.3523 414.121 52.0455 415 52.0455C415.833 52.0455 416.568 52.3523 417.205 52.9659C417.848 53.5795 418.174 54.3182 418.182 55.1818C418.174 55.7727 418.019 56.3106 417.716 56.7955C417.42 57.2727 417.034 57.6553 416.557 57.9432C416.08 58.2235 415.561 58.3636 415 58.3636ZM459.003 58.3636C458.124 58.3636 457.37 58.0568 456.741 57.4432C456.12 56.822 455.813 56.0682 455.821 55.1818C455.813 54.3182 456.12 53.5795 456.741 52.9659C457.37 52.3523 458.124 52.0455 459.003 52.0455C459.836 52.0455 460.571 52.3523 461.207 52.9659C461.851 53.5795 462.177 54.3182 462.184 55.1818C462.177 55.7727 462.021 56.3106 461.718 56.7955C461.423 57.2727 461.037 57.6553 460.559 57.9432C460.082 58.2235 459.563 58.3636 459.003 58.3636ZM503.005 58.3636C502.126 58.3636 501.372 58.0568 500.744 57.4432C500.122 56.822 499.816 56.0682 499.823 55.1818C499.816 54.3182 500.122 53.5795 500.744 52.9659C501.372 52.3523 502.126 52.0455 503.005 52.0455C503.838 52.0455 504.573 52.3523 505.21 52.9659C505.853 53.5795 506.179 54.3182 506.187 55.1818C506.179 55.7727 506.024 56.3106 505.721 56.7955C505.425 57.2727 505.039 57.6553 504.562 57.9432C504.085 58.2235 503.566 58.3636 503.005 58.3636ZM547.008 58.3636C546.129 58.3636 545.375 58.0568 544.746 57.4432C544.125 56.822 543.818 56.0682 543.826 55.1818C543.818 54.3182 544.125 53.5795 544.746 52.9659C545.375 52.3523 546.129 52.0455 547.008 52.0455C547.841 52.0455 548.576 52.3523 549.212 52.9659C549.856 53.5795 550.182 54.3182 550.189 55.1818C550.182 55.7727 550.026 56.3106 549.723 56.7955C549.428 57.2727 549.042 57.6553 548.564 57.9432C548.087 58.2235 547.568 58.3636 547.008 58.3636ZM415 91.3636C414.121 91.3636 413.367 91.0568 412.739 90.4432C412.117 89.822 411.811 89.0682 411.818 88.1818C411.811 87.3182 412.117 86.5795 412.739 85.9659C413.367 85.3523 414.121 85.0455 415 85.0455C415.833 85.0455 416.568 85.3523 417.205 85.9659C417.848 86.5795 418.174 87.3182 418.182 88.1818C418.174 88.7727 418.019 89.3106 417.716 89.7955C417.42 90.2727 417.034 90.6553 416.557 90.9432C416.08 91.2235 415.561 91.3636 415 91.3636ZM459.003 91.3636C458.124 91.3636 457.37 91.0568 456.741 90.4432C456.12 89.822 455.813 89.0682 455.821 88.1818C455.813 87.3182 456.12 86.5795 456.741 85.9659C457.37 85.3523 458.124 85.0455 459.003 85.0455C459.836 85.0455 460.571 85.3523 461.207 85.9659C461.851 86.5795 462.177 87.3182 462.184 88.1818C462.177 88.7727 462.021 89.3106 461.718 89.7955C461.423 90.2727 461.037 90.6553 460.559 90.9432C460.082 91.2235 459.563 91.3636 459.003 91.3636ZM503.005 91.3636C502.126 91.3636 501.372 91.0568 500.744 90.4432C500.122 89.822 499.816 89.0682 499.823 88.1818C499.816 87.3182 500.122 86.5795 500.744 85.9659C501.372 85.3523 502.126 85.0455 503.005 85.0455C503.838 85.0455 504.573 85.3523 505.21 85.9659C505.853 86.5795 506.179 87.3182 506.187 88.1818C506.179 88.7727 506.024 89.3106 505.721 89.7955C505.425 90.2727 505.039 90.6553 504.562 90.9432C504.085 91.2235 503.566 91.3636 503.005 91.3636ZM547.008 91.3636C546.129 91.3636 545.375 91.0568 544.746 90.4432C544.125 89.822 543.818 89.0682 543.826 88.1818C543.818 87.3182 544.125 86.5795 544.746 85.9659C545.375 85.3523 546.129 85.0455 547.008 85.0455C547.841 85.0455 548.576 85.3523 549.212 85.9659C549.856 86.5795 550.182 87.3182 550.189 88.1818C550.182 88.7727 550.026 89.3106 549.723 89.7955C549.428 90.2727 549.042 90.6553 548.564 90.9432C548.087 91.2235 547.568 91.3636 547.008 91.3636ZM415 124.364C414.121 124.364 413.367 124.057 412.739 123.443C412.117 122.822 411.811 122.068 411.818 121.182C411.811 120.318 412.117 119.58 412.739 118.966C413.367 118.352 414.121 118.045 415 118.045C415.833 118.045 416.568 118.352 417.205 118.966C417.848 119.58 418.174 120.318 418.182 121.182C418.174 121.773 418.019 122.311 417.716 122.795C417.42 123.273 417.034 123.655 416.557 123.943C416.08 124.223 415.561 124.364 415 124.364ZM459.003 124.364C458.124 124.364 457.37 124.057 456.741 123.443C456.12 122.822 455.813 122.068 455.821 121.182C455.813 120.318 456.12 119.58 456.741 118.966C457.37 118.352 458.124 118.045 459.003 118.045C459.836 118.045 460.571 118.352 461.207 118.966C461.851 119.58 462.177 120.318 462.184 121.182C462.177 121.773 462.021 122.311 461.718 122.795C461.423 123.273 461.037 123.655 460.559 123.943C460.082 124.223 459.563 124.364 459.003 124.364ZM503.005 124.364C502.126 124.364 501.372 124.057 500.744 123.443C500.122 122.822 499.816 122.068 499.823 121.182C499.816 120.318 500.122 119.58 500.744 118.966C501.372 118.352 502.126 118.045 503.005 118.045C503.838 118.045 504.573 118.352 505.21 118.966C505.853 119.58 506.179 120.318 506.187 121.182C506.179 121.773 506.024 122.311 505.721 122.795C505.425 123.273 505.039 123.655 504.562 123.943C504.085 124.223 503.566 124.364 503.005 124.364ZM547.008 124.364C546.129 124.364 545.375 124.057 544.746 123.443C544.125 122.822 543.818 122.068 543.826 121.182C543.818 120.318 544.125 119.58 544.746 118.966C545.375 118.352 546.129 118.045 547.008 118.045C547.841 118.045 548.576 118.352 549.212 118.966C549.856 119.58 550.182 120.318 550.189 121.182C550.182 121.773 550.026 122.311 549.723 122.795C549.428 123.273 549.042 123.655 548.564 123.943C548.087 124.223 547.568 124.364 547.008 124.364ZM415 157.364C414.121 157.364 413.367 157.057 412.739 156.443C412.117 155.822 411.811 155.068 411.818 154.182C411.811 153.318 412.117 152.58 412.739 151.966C413.367 151.352 414.121 151.045 415 151.045C415.833 151.045 416.568 151.352 417.205 151.966C417.848 152.58 418.174 153.318 418.182 154.182C418.174 154.773 418.019 155.311 417.716 155.795C417.42 156.273 417.034 156.655 416.557 156.943C416.08 157.223 415.561 157.364 415 157.364ZM459.003 157.364C458.124 157.364 457.37 157.057 456.741 156.443C456.12 155.822 455.813 155.068 455.821 154.182C455.813 153.318 456.12 152.58 456.741 151.966C457.37 151.352 458.124 151.045 459.003 151.045C459.836 151.045 460.571 151.352 461.207 151.966C461.851 152.58 462.177 153.318 462.184 154.182C462.177 154.773 462.021 155.311 461.718 155.795C461.423 156.273 461.037 156.655 460.559 156.943C460.082 157.223 459.563 157.364 459.003 157.364ZM503.005 157.364C502.126 157.364 501.372 157.057 500.744 156.443C500.122 155.822 499.816 155.068 499.823 154.182C499.816 153.318 500.122 152.58 500.744 151.966C501.372 151.352 502.126 151.045 503.005 151.045C503.838 151.045 504.573 151.352 505.21 151.966C505.853 152.58 506.179 153.318 506.187 154.182C506.179 154.773 506.024 155.311 505.721 155.795C505.425 156.273 505.039 156.655 504.562 156.943C504.085 157.223 503.566 157.364 503.005 157.364ZM547.008 157.364C546.129 157.364 545.375 157.057 544.746 156.443C544.125 155.822 543.818 155.068 543.826 154.182C543.818 153.318 544.125 152.58 544.746 151.966C545.375 151.352 546.129 151.045 547.008 151.045C547.841 151.045 548.576 151.352 549.212 151.966C549.856 152.58 550.182 153.318 550.189 154.182C550.182 154.773 550.026 155.311 549.723 155.795C549.428 156.273 549.042 156.655 548.564 156.943C548.087 157.223 547.568 157.364 547.008 157.364Z" fill="url(#paint3_linear_146_141)"/>
<mask id="path-5-outside-1_146_141" maskUnits="userSpaceOnUse" x="190" y="266" width="820" height="112" fill="black">
<rect fill="white" x="190" y="266" width="820" height="112"/>
<path d="M226.455 277.909L245.545 343.545H246.273L265.364 277.909H293.909L263.182 371H228.636L197.909 277.909H226.455ZM303.239 371V301.182H328.33V371H303.239ZM315.784 293.909C312.39 293.909 309.481 292.788 307.057 290.545C304.633 288.303 303.42 285.606 303.42 282.455C303.42 279.303 304.633 276.606 307.057 274.364C309.481 272.121 312.39 271 315.784 271C319.208 271 322.117 272.121 324.511 274.364C326.936 276.606 328.148 279.303 328.148 282.455C328.148 285.606 326.936 288.303 324.511 290.545C322.117 292.788 319.208 293.909 315.784 293.909ZM404.932 323.909H381.841C381.72 322.485 381.22 321.258 380.341 320.227C379.462 319.197 378.326 318.409 376.932 317.864C375.568 317.288 374.053 317 372.386 317C370.235 317 368.386 317.394 366.841 318.182C365.295 318.97 364.538 320.091 364.568 321.545C364.538 322.576 364.977 323.53 365.886 324.409C366.826 325.288 368.629 325.97 371.295 326.455L385.477 329C392.629 330.303 397.947 332.5 401.432 335.591C404.947 338.652 406.72 342.758 406.75 347.909C406.72 352.879 405.235 357.197 402.295 360.864C399.386 364.5 395.402 367.318 390.341 369.318C385.311 371.288 379.568 372.273 373.114 372.273C362.447 372.273 354.098 370.091 348.068 365.727C342.068 361.364 338.72 355.606 338.023 348.455H362.932C363.265 350.667 364.356 352.379 366.205 353.591C368.083 354.773 370.447 355.364 373.295 355.364C375.598 355.364 377.492 354.97 378.977 354.182C380.492 353.394 381.265 352.273 381.295 350.818C381.265 349.485 380.598 348.424 379.295 347.636C378.023 346.848 376.023 346.212 373.295 345.727L360.932 343.545C353.811 342.303 348.477 339.939 344.932 336.455C341.386 332.97 339.629 328.485 339.659 323C339.629 318.152 340.902 314.045 343.477 310.682C346.083 307.288 349.795 304.712 354.614 302.955C359.462 301.167 365.205 300.273 371.841 300.273C381.932 300.273 389.886 302.364 395.705 306.545C401.553 310.727 404.629 316.515 404.932 323.909ZM461.636 340.455V301.182H486.727V371H462.909V357.727H462.182C460.667 362.182 458.015 365.667 454.227 368.182C450.439 370.667 445.939 371.909 440.727 371.909C435.848 371.909 431.576 370.788 427.909 368.545C424.273 366.303 421.439 363.212 419.409 359.273C417.409 355.333 416.394 350.818 416.364 345.727V301.182H441.455V340.455C441.485 343.909 442.364 346.621 444.091 348.591C445.848 350.561 448.303 351.545 451.455 351.545C453.545 351.545 455.348 351.106 456.864 350.227C458.409 349.318 459.591 348.045 460.409 346.409C461.258 344.742 461.667 342.758 461.636 340.455ZM518.943 372.091C514.489 372.091 510.549 371.364 507.125 369.909C503.731 368.424 501.064 366.182 499.125 363.182C497.186 360.182 496.216 356.364 496.216 351.727C496.216 347.909 496.867 344.652 498.17 341.955C499.473 339.227 501.292 337 503.625 335.273C505.958 333.545 508.67 332.227 511.761 331.318C514.883 330.409 518.246 329.818 521.852 329.545C525.761 329.242 528.898 328.879 531.261 328.455C533.655 328 535.383 327.379 536.443 326.591C537.504 325.773 538.034 324.697 538.034 323.364V323.182C538.034 321.364 537.337 319.97 535.943 319C534.549 318.03 532.761 317.545 530.58 317.545C528.186 317.545 526.231 318.076 524.716 319.136C523.231 320.167 522.337 321.758 522.034 323.909H498.943C499.246 319.667 500.595 315.758 502.989 312.182C505.413 308.576 508.943 305.697 513.58 303.545C518.216 301.364 524.004 300.273 530.943 300.273C535.943 300.273 540.428 300.864 544.398 302.045C548.367 303.197 551.746 304.818 554.534 306.909C557.322 308.97 559.443 311.394 560.898 314.182C562.383 316.939 563.125 319.939 563.125 323.182V371H539.67V361.182H539.125C537.731 363.788 536.034 365.894 534.034 367.5C532.064 369.106 529.807 370.273 527.261 371C524.746 371.727 521.973 372.091 518.943 372.091ZM527.125 356.273C529.034 356.273 530.822 355.879 532.489 355.091C534.186 354.303 535.564 353.167 536.625 351.682C537.686 350.197 538.216 348.394 538.216 346.273V340.455C537.549 340.727 536.837 340.985 536.08 341.227C535.352 341.47 534.564 341.697 533.716 341.909C532.898 342.121 532.019 342.318 531.08 342.5C530.17 342.682 529.216 342.848 528.216 343C526.277 343.303 524.686 343.803 523.443 344.5C522.231 345.167 521.322 346 520.716 347C520.14 347.97 519.852 349.061 519.852 350.273C519.852 352.212 520.534 353.697 521.898 354.727C523.261 355.758 525.004 356.273 527.125 356.273ZM600.205 277.909V371H575.114V277.909H600.205ZM658.807 324.455V343.364H615.17V324.455H658.807ZM698.83 277.909L717.92 343.545H718.648L737.739 277.909H766.284L735.557 371H701.011L670.284 277.909H698.83ZM775.614 371V301.182H800.705V371H775.614ZM788.159 293.909C784.765 293.909 781.856 292.788 779.432 290.545C777.008 288.303 775.795 285.606 775.795 282.455C775.795 279.303 777.008 276.606 779.432 274.364C781.856 272.121 784.765 271 788.159 271C791.583 271 794.492 272.121 796.886 274.364C799.311 276.606 800.523 279.303 800.523 282.455C800.523 285.606 799.311 288.303 796.886 290.545C794.492 292.788 791.583 293.909 788.159 293.909ZM877.307 323.909H854.216C854.095 322.485 853.595 321.258 852.716 320.227C851.837 319.197 850.701 318.409 849.307 317.864C847.943 317.288 846.428 317 844.761 317C842.61 317 840.761 317.394 839.216 318.182C837.67 318.97 836.913 320.091 836.943 321.545C836.913 322.576 837.352 323.53 838.261 324.409C839.201 325.288 841.004 325.97 843.67 326.455L857.852 329C865.004 330.303 870.322 332.5 873.807 335.591C877.322 338.652 879.095 342.758 879.125 347.909C879.095 352.879 877.61 357.197 874.67 360.864C871.761 364.5 867.777 367.318 862.716 369.318C857.686 371.288 851.943 372.273 845.489 372.273C834.822 372.273 826.473 370.091 820.443 365.727C814.443 361.364 811.095 355.606 810.398 348.455H835.307C835.64 350.667 836.731 352.379 838.58 353.591C840.458 354.773 842.822 355.364 845.67 355.364C847.973 355.364 849.867 354.97 851.352 354.182C852.867 353.394 853.64 352.273 853.67 350.818C853.64 349.485 852.973 348.424 851.67 347.636C850.398 346.848 848.398 346.212 845.67 345.727L833.307 343.545C826.186 342.303 820.852 339.939 817.307 336.455C813.761 332.97 812.004 328.485 812.034 323C812.004 318.152 813.277 314.045 815.852 310.682C818.458 307.288 822.17 304.712 826.989 302.955C831.837 301.167 837.58 300.273 844.216 300.273C854.307 300.273 862.261 302.364 868.08 306.545C873.928 310.727 877.004 316.515 877.307 323.909ZM930.375 301.182V319.364H884.375V301.182H930.375ZM893.284 284.455H918.375V348.545C918.375 349.515 918.542 350.333 918.875 351C919.208 351.636 919.723 352.121 920.42 352.455C921.117 352.758 922.011 352.909 923.102 352.909C923.86 352.909 924.739 352.818 925.739 352.636C926.769 352.455 927.527 352.303 928.011 352.182L931.648 369.818C930.527 370.152 928.92 370.561 926.83 371.045C924.769 371.53 922.314 371.848 919.466 372C913.708 372.303 908.875 371.712 904.966 370.227C901.057 368.712 898.117 366.333 896.148 363.091C894.178 359.848 893.223 355.788 893.284 350.909V284.455ZM960.068 372.091C955.614 372.091 951.674 371.364 948.25 369.909C944.856 368.424 942.189 366.182 940.25 363.182C938.311 360.182 937.341 356.364 937.341 351.727C937.341 347.909 937.992 344.652 939.295 341.955C940.598 339.227 942.417 337 944.75 335.273C947.083 333.545 949.795 332.227 952.886 331.318C956.008 330.409 959.371 329.818 962.977 329.545C966.886 329.242 970.023 328.879 972.386 328.455C974.78 328 976.508 327.379 977.568 326.591C978.629 325.773 979.159 324.697 979.159 323.364V323.182C979.159 321.364 978.462 319.97 977.068 319C975.674 318.03 973.886 317.545 971.705 317.545C969.311 317.545 967.356 318.076 965.841 319.136C964.356 320.167 963.462 321.758 963.159 323.909H940.068C940.371 319.667 941.72 315.758 944.114 312.182C946.538 308.576 950.068 305.697 954.705 303.545C959.341 301.364 965.129 300.273 972.068 300.273C977.068 300.273 981.553 300.864 985.523 302.045C989.492 303.197 992.871 304.818 995.659 306.909C998.447 308.97 1000.57 311.394 1002.02 314.182C1003.51 316.939 1004.25 319.939 1004.25 323.182V371H980.795V361.182H980.25C978.856 363.788 977.159 365.894 975.159 367.5C973.189 369.106 970.932 370.273 968.386 371C965.871 371.727 963.098 372.091 960.068 372.091ZM968.25 356.273C970.159 356.273 971.947 355.879 973.614 355.091C975.311 354.303 976.689 353.167 977.75 351.682C978.811 350.197 979.341 348.394 979.341 346.273V340.455C978.674 340.727 977.962 340.985 977.205 341.227C976.477 341.47 975.689 341.697 974.841 341.909C974.023 342.121 973.144 342.318 972.205 342.5C971.295 342.682 970.341 342.848 969.341 343C967.402 343.303 965.811 343.803 964.568 344.5C963.356 345.167 962.447 346 961.841 347C961.265 347.97 960.977 349.061 960.977 350.273C960.977 352.212 961.659 353.697 963.023 354.727C964.386 355.758 966.129 356.273 968.25 356.273Z"/>
</mask>
<path d="M226.455 277.909L231.256 276.513L230.207 272.909H226.455V277.909ZM245.545 343.545L240.744 344.942L241.793 348.545H245.545V343.545ZM246.273 343.545V348.545H250.026L251.074 344.942L246.273 343.545ZM265.364 277.909V272.909H261.611L260.563 276.513L265.364 277.909ZM293.909 277.909L298.657 279.476L300.825 272.909H293.909V277.909ZM263.182 371V376H266.797L267.93 372.567L263.182 371ZM228.636 371L223.888 372.567L225.021 376H228.636V371ZM197.909 277.909V272.909H190.993L193.161 279.476L197.909 277.909ZM221.654 279.306L240.744 344.942L250.346 342.149L231.256 276.513L221.654 279.306ZM245.545 348.545H246.273V338.545H245.545V348.545ZM251.074 344.942L270.165 279.306L260.563 276.513L241.472 342.149L251.074 344.942ZM265.364 282.909H293.909V272.909H265.364V282.909ZM289.161 276.342L258.434 369.433L267.93 372.567L298.657 279.476L289.161 276.342ZM263.182 366H228.636V376H263.182V366ZM233.384 369.433L202.657 276.342L193.161 279.476L223.888 372.567L233.384 369.433ZM197.909 282.909H226.455V272.909H197.909V282.909ZM303.239 371H298.239V376H303.239V371ZM303.239 301.182V296.182H298.239V301.182H303.239ZM328.33 301.182H333.33V296.182H328.33V301.182ZM328.33 371V376H333.33V371H328.33ZM307.057 290.545L303.662 294.216L303.662 294.216L307.057 290.545ZM307.057 274.364L303.662 270.693L303.662 270.693L307.057 274.364ZM324.511 274.364L321.093 278.013L321.105 278.023L321.116 278.034L324.511 274.364ZM324.511 290.545L321.116 286.875L321.105 286.886L321.093 286.896L324.511 290.545ZM308.239 371V301.182H298.239V371H308.239ZM303.239 306.182H328.33V296.182H303.239V306.182ZM323.33 301.182V371H333.33V301.182H323.33ZM328.33 366H303.239V376H328.33V366ZM315.784 288.909C313.61 288.909 311.924 288.237 310.452 286.875L303.662 294.216C307.038 297.339 311.17 298.909 315.784 298.909V288.909ZM310.452 286.875C308.996 285.528 308.42 284.139 308.42 282.455H298.42C298.42 287.073 300.269 291.078 303.662 294.216L310.452 286.875ZM308.42 282.455C308.42 280.77 308.996 279.381 310.452 278.034L303.662 270.693C300.269 273.831 298.42 277.836 298.42 282.455H308.42ZM310.452 278.034C311.924 276.672 313.61 276 315.784 276V266C311.17 266 307.038 267.57 303.662 270.693L310.452 278.034ZM315.784 276C318 276 319.67 276.679 321.093 278.013L327.93 270.715C324.565 267.563 320.416 266 315.784 266V276ZM321.116 278.034C322.573 279.381 323.148 280.77 323.148 282.455H333.148C333.148 277.836 331.299 273.831 327.907 270.693L321.116 278.034ZM323.148 282.455C323.148 284.139 322.573 285.528 321.116 286.875L327.907 294.216C331.299 291.078 333.148 287.073 333.148 282.455H323.148ZM321.093 286.896C319.67 288.23 318 288.909 315.784 288.909V298.909C320.416 298.909 324.565 297.346 327.93 294.195L321.093 286.896ZM404.932 323.909V328.909H410.141L409.928 323.704L404.932 323.909ZM381.841 323.909L376.859 324.333L377.248 328.909H381.841V323.909ZM380.341 320.227L384.145 316.983L380.341 320.227ZM376.932 317.864L374.987 322.47L375.048 322.496L375.11 322.52L376.932 317.864ZM366.841 318.182L364.57 313.727L366.841 318.182ZM364.568 321.545L369.566 321.692L369.57 321.567L369.567 321.441L364.568 321.545ZM365.886 324.409L362.411 328.004L362.441 328.032L362.471 328.06L365.886 324.409ZM371.295 326.455L370.401 331.374L370.412 331.376L371.295 326.455ZM385.477 329L386.374 324.081L386.361 324.079L385.477 329ZM401.432 335.591L398.114 339.332L398.131 339.347L398.149 339.362L401.432 335.591ZM406.75 347.909L411.75 347.94L411.75 347.91L411.75 347.88L406.75 347.909ZM402.295 360.864L398.394 357.736L398.391 357.74L402.295 360.864ZM390.341 369.318L392.164 373.974L392.171 373.971L392.179 373.968L390.341 369.318ZM348.068 365.727L345.127 369.771L345.137 369.778L348.068 365.727ZM338.023 348.455V343.455H332.512L333.046 348.94L338.023 348.455ZM362.932 348.455L367.876 347.71L367.235 343.455H362.932V348.455ZM366.205 353.591L363.463 357.772L363.502 357.798L363.542 357.823L366.205 353.591ZM378.977 354.182L376.671 349.746L376.652 349.755L376.634 349.765L378.977 354.182ZM381.295 350.818L386.294 350.922L386.297 350.813L386.294 350.705L381.295 350.818ZM379.295 347.636L376.664 351.888L376.686 351.901L376.708 351.915L379.295 347.636ZM373.295 345.727L374.171 340.804L374.164 340.803L373.295 345.727ZM360.932 343.545L361.801 338.622L361.791 338.62L360.932 343.545ZM344.932 336.455L348.437 332.889L344.932 336.455ZM339.659 323L344.659 323.028L344.659 322.998L344.659 322.969L339.659 323ZM343.477 310.682L339.512 307.637L339.508 307.642L343.477 310.682ZM354.614 302.955L356.327 307.652L356.335 307.649L356.344 307.646L354.614 302.955ZM395.705 306.545L392.786 310.606L392.796 310.613L395.705 306.545ZM404.932 318.909H381.841V328.909H404.932V318.909ZM386.823 323.485C386.618 321.082 385.74 318.853 384.145 316.983L376.537 323.472C376.699 323.662 376.821 323.888 376.859 324.333L386.823 323.485ZM384.145 316.983C382.677 315.262 380.832 314.021 378.754 313.207L375.11 322.52C375.819 322.797 376.247 323.132 376.537 323.472L384.145 316.983ZM378.877 313.257C376.825 312.391 374.637 312 372.386 312V322C373.469 322 374.312 322.185 374.987 322.47L378.877 313.257ZM372.386 312C369.631 312 366.968 312.505 364.57 313.727L369.112 322.636C369.805 322.283 370.838 322 372.386 322V312ZM364.57 313.727C363.251 314.4 361.939 315.382 360.971 316.814C359.969 318.297 359.534 319.971 359.569 321.65L369.567 321.441C369.569 321.529 369.56 321.682 369.505 321.876C369.45 322.072 369.362 322.257 369.257 322.413C369.046 322.724 368.886 322.752 369.112 322.636L364.57 313.727ZM359.57 321.398C359.49 324.145 360.738 326.387 362.411 328.004L369.361 320.814C369.264 320.72 369.331 320.756 369.417 320.943C369.513 321.153 369.574 321.421 369.566 321.692L359.57 321.398ZM362.471 328.06C364.546 330.002 367.629 330.87 370.401 331.374L372.19 321.535C371.045 321.327 370.242 321.103 369.712 320.903C369.145 320.689 369.119 320.586 369.302 320.758L362.471 328.06ZM370.412 331.376L384.594 333.921L386.361 324.079L372.179 321.533L370.412 331.376ZM384.581 333.919C391.294 335.142 395.595 337.097 398.114 339.332L404.75 331.85C400.299 327.903 393.963 325.464 386.374 324.081L384.581 333.919ZM398.149 339.362C400.459 341.374 401.727 344.053 401.75 347.938L411.75 347.88C411.712 341.462 409.435 335.929 404.715 331.82L398.149 339.362ZM401.75 347.879C401.726 351.791 400.587 355.001 398.394 357.736L406.197 363.991C409.883 359.393 411.713 353.966 411.75 347.94L401.75 347.879ZM398.391 357.74C396.112 360.589 392.891 362.934 388.503 364.668L392.179 373.968C397.912 371.702 402.661 368.411 406.2 363.987L398.391 357.74ZM388.518 364.662C384.17 366.365 379.063 367.273 373.114 367.273V377.273C380.073 377.273 386.452 376.211 392.164 373.974L388.518 364.662ZM373.114 367.273C363.061 367.273 355.879 365.208 350.999 361.677L345.137 369.778C352.318 374.974 361.833 377.273 373.114 377.273V367.273ZM351.009 361.684C346.122 358.13 343.552 353.647 342.999 347.97L333.046 348.94C333.887 357.566 338.014 364.598 345.127 369.771L351.009 361.684ZM338.023 353.455H362.932V343.455H338.023V353.455ZM357.988 349.2C358.53 352.799 360.408 355.769 363.463 357.772L368.946 349.41C368.304 348.988 368 348.535 367.876 347.71L357.988 349.2ZM363.542 357.823C366.415 359.631 369.768 360.364 373.295 360.364V350.364C371.125 350.364 369.751 349.915 368.867 349.359L363.542 357.823ZM373.295 360.364C376.128 360.364 378.897 359.885 381.321 358.599L376.634 349.765C376.088 350.055 375.069 350.364 373.295 350.364V360.364ZM381.284 358.618C384.082 357.163 386.219 354.557 386.294 350.922L376.297 350.714C376.298 350.645 376.31 350.519 376.36 350.358C376.411 350.196 376.487 350.043 376.576 349.913C376.757 349.651 376.884 349.635 376.671 349.746L381.284 358.618ZM386.294 350.705C386.219 347.395 384.405 344.883 381.883 343.358L376.708 351.915C376.834 351.991 376.701 351.941 376.54 351.684C376.461 351.558 376.396 351.415 376.353 351.267C376.31 351.121 376.298 351.003 376.297 350.932L386.294 350.705ZM381.927 343.385C379.837 342.091 377.083 341.322 374.171 340.804L372.42 350.65C374.963 351.102 376.209 351.606 376.664 351.888L381.927 343.385ZM374.164 340.803L361.801 338.622L360.063 348.469L372.427 350.651L374.164 340.803ZM361.791 338.62C355.237 337.476 350.999 335.407 348.437 332.889L341.427 340.02C345.956 344.472 352.384 347.13 360.072 348.471L361.791 338.62ZM348.437 332.889C345.959 330.453 344.635 327.316 344.659 323.028L334.659 322.972C334.622 329.654 336.814 335.486 341.427 340.02L348.437 332.889ZM344.659 322.969C344.635 319.062 345.641 316.08 347.447 313.722L339.508 307.642C336.162 312.011 334.623 317.241 334.659 323.031L344.659 322.969ZM347.443 313.727C349.364 311.225 352.222 309.149 356.327 307.652L352.9 298.257C347.369 300.275 342.802 303.351 339.512 307.637L347.443 313.727ZM356.344 307.646C360.506 306.111 365.635 305.273 371.841 305.273V295.273C364.774 295.273 358.418 296.222 352.884 298.263L356.344 307.646ZM371.841 305.273C381.299 305.273 388.102 307.239 392.786 310.606L398.623 302.485C391.67 297.488 382.565 295.273 371.841 295.273V305.273ZM392.796 310.613C397.348 313.868 399.694 318.208 399.936 324.114L409.928 323.704C409.564 314.823 405.758 307.587 398.613 302.478L392.796 310.613ZM461.636 340.455H456.636V340.487L456.637 340.52L461.636 340.455ZM461.636 301.182V296.182H456.636V301.182H461.636ZM486.727 301.182H491.727V296.182H486.727V301.182ZM486.727 371V376H491.727V371H486.727ZM462.909 371H457.909V376H462.909V371ZM462.909 357.727H467.909V352.727H462.909V357.727ZM462.182 357.727V352.727H458.601L457.448 356.117L462.182 357.727ZM454.227 368.182L456.97 372.363L456.981 372.355L456.993 372.347L454.227 368.182ZM427.909 368.545L425.285 372.801L425.293 372.806L425.3 372.811L427.909 368.545ZM419.409 359.273L414.951 361.536L414.958 361.55L414.965 361.563L419.409 359.273ZM416.364 345.727H411.364V345.742L411.364 345.757L416.364 345.727ZM416.364 301.182V296.182H411.364V301.182H416.364ZM441.455 301.182H446.455V296.182H441.455V301.182ZM441.455 340.455H436.455V340.476L436.455 340.498L441.455 340.455ZM444.091 348.591L440.332 351.888L440.346 351.904L440.36 351.92L444.091 348.591ZM456.864 350.227L459.372 354.552L459.385 354.545L459.399 354.537L456.864 350.227ZM460.409 346.409L455.953 344.141L455.945 344.157L455.937 344.173L460.409 346.409ZM466.636 340.455V301.182H456.636V340.455H466.636ZM461.636 306.182H486.727V296.182H461.636V306.182ZM481.727 301.182V371H491.727V301.182H481.727ZM486.727 366H462.909V376H486.727V366ZM467.909 371V357.727H457.909V371H467.909ZM462.909 352.727H462.182V362.727H462.909V352.727ZM457.448 356.117C456.275 359.565 454.295 362.135 451.461 364.016L456.993 372.347C461.735 369.199 465.058 364.798 466.915 359.337L457.448 356.117ZM451.485 364.001C448.629 365.874 445.115 366.909 440.727 366.909V376.909C446.763 376.909 452.25 375.459 456.97 372.363L451.485 364.001ZM440.727 366.909C436.642 366.909 433.297 365.98 430.518 364.28L425.3 372.811C429.854 375.596 435.055 376.909 440.727 376.909V366.909ZM430.534 364.29C427.701 362.543 425.484 360.145 423.854 356.982L414.965 361.563C417.395 366.279 420.844 370.063 425.285 372.801L430.534 364.29ZM423.867 357.009C422.269 353.861 421.39 350.13 421.364 345.698L411.364 345.757C411.398 351.506 412.549 356.806 414.951 361.536L423.867 357.009ZM421.364 345.727V301.182H411.364V345.727H421.364ZM416.364 306.182H441.455V296.182H416.364V306.182ZM436.455 301.182V340.455H446.455V301.182H436.455ZM436.455 340.498C436.492 344.763 437.592 348.763 440.332 351.888L447.85 345.294C447.135 344.479 446.478 343.055 446.454 340.411L436.455 340.498ZM440.36 351.92C443.25 355.159 447.18 356.545 451.455 356.545V346.545C449.426 346.545 448.447 345.963 447.822 345.262L440.36 351.92ZM451.455 356.545C454.255 356.545 456.959 355.952 459.372 354.552L454.355 345.902C453.738 346.26 452.836 346.545 451.455 346.545V356.545ZM459.399 354.537C461.794 353.128 463.64 351.127 464.881 348.645L455.937 344.173C455.541 344.964 455.024 345.509 454.329 345.918L459.399 354.537ZM464.865 348.678C466.157 346.14 466.674 343.318 466.636 340.389L456.637 340.52C456.659 342.198 456.358 343.345 455.953 344.141L464.865 348.678ZM507.125 369.909L505.121 374.49L505.145 374.501L505.17 374.511L507.125 369.909ZM499.125 363.182L494.926 365.896L499.125 363.182ZM498.17 341.955L502.673 344.13L502.677 344.12L502.682 344.11L498.17 341.955ZM503.625 335.273L506.6 339.291L503.625 335.273ZM511.761 331.318L510.363 326.518L510.351 326.521L511.761 331.318ZM521.852 329.545L522.229 334.531L522.239 334.53L521.852 329.545ZM531.261 328.455L532.145 333.376L532.169 333.371L532.194 333.367L531.261 328.455ZM536.443 326.591L539.425 330.605L539.461 330.578L539.497 330.55L536.443 326.591ZM535.943 319L533.088 323.105V323.105L535.943 319ZM524.716 319.136L527.566 323.244L527.575 323.238L527.583 323.233L524.716 319.136ZM522.034 323.909V328.909H526.379L526.985 324.606L522.034 323.909ZM498.943 323.909L493.956 323.553L493.573 328.909H498.943V323.909ZM502.989 312.182L498.839 309.392L498.834 309.4L502.989 312.182ZM513.58 303.545L515.684 308.081L515.696 308.075L515.709 308.07L513.58 303.545ZM544.398 302.045L542.971 306.838L542.988 306.843L543.005 306.848L544.398 302.045ZM554.534 306.909L551.534 310.909L551.548 310.92L551.562 310.93L554.534 306.909ZM560.898 314.182L556.465 316.495L556.48 316.524L556.495 316.552L560.898 314.182ZM563.125 371V376H568.125V371H563.125ZM539.67 371H534.67V376H539.67V371ZM539.67 361.182H544.67V356.182H539.67V361.182ZM539.125 361.182V356.182H536.129L534.716 358.824L539.125 361.182ZM534.034 367.5L530.903 363.601L530.889 363.613L530.874 363.625L534.034 367.5ZM527.261 371L525.888 366.192L525.88 366.195L525.872 366.197L527.261 371ZM532.489 355.091L530.383 350.556L530.367 350.563L530.352 350.571L532.489 355.091ZM536.625 351.682L532.556 348.776L536.625 351.682ZM538.216 340.455H543.216V333.007L536.323 335.827L538.216 340.455ZM536.08 341.227L534.556 336.465L534.527 336.474L534.498 336.484L536.08 341.227ZM533.716 341.909L532.503 337.058L532.482 337.064L532.461 337.069L533.716 341.909ZM531.08 342.5L530.129 337.591L530.114 337.594L530.099 337.597L531.08 342.5ZM528.216 343L527.467 338.056L527.455 338.058L527.444 338.06L528.216 343ZM523.443 344.5L525.853 348.881L525.871 348.871L525.889 348.861L523.443 344.5ZM520.716 347L516.44 344.408L516.428 344.428L516.417 344.447L520.716 347ZM521.898 354.727L524.912 350.738L521.898 354.727ZM518.943 367.091C515.03 367.091 511.776 366.453 509.08 365.307L505.17 374.511C509.322 376.275 513.947 377.091 518.943 377.091V367.091ZM509.129 365.328C506.599 364.221 504.71 362.612 503.324 360.467L494.926 365.896C497.419 369.752 500.863 372.627 505.121 374.49L509.129 365.328ZM503.324 360.467C502.042 358.485 501.216 355.683 501.216 351.727H491.216C491.216 357.044 492.329 361.879 494.926 365.896L503.324 360.467ZM501.216 351.727C501.216 348.462 501.774 345.988 502.673 344.13L493.668 339.779C491.96 343.315 491.216 347.356 491.216 351.727H501.216ZM502.682 344.11C503.648 342.089 504.951 340.512 506.6 339.291L500.65 331.254C497.633 333.488 495.299 336.366 493.659 339.799L502.682 344.11ZM506.6 339.291C508.413 337.95 510.583 336.877 513.172 336.115L510.351 326.521C506.758 327.578 503.504 329.141 500.65 331.254L506.6 339.291ZM513.16 336.119C515.913 335.317 518.931 334.781 522.229 334.531L521.475 324.56C517.561 324.856 513.852 325.501 510.363 326.518L513.16 336.119ZM522.239 334.53C526.225 334.222 529.547 333.842 532.145 333.376L530.378 323.533C528.249 323.915 525.298 324.263 521.466 324.56L522.239 334.53ZM532.194 333.367C534.806 332.871 537.44 332.079 539.425 330.605L533.462 322.577C533.462 322.577 533.406 322.618 533.267 322.688C533.13 322.758 532.932 322.845 532.66 322.943C532.109 323.141 531.346 323.349 530.329 323.542L532.194 333.367ZM539.497 330.55C541.778 328.79 543.034 326.255 543.034 323.364H533.034C533.034 323.364 533.034 323.32 533.052 323.24C533.069 323.159 533.101 323.062 533.152 322.96C533.202 322.857 533.259 322.774 533.311 322.713C533.361 322.653 533.394 322.629 533.389 322.632L539.497 330.55ZM543.034 323.364V323.182H533.034V323.364H543.034ZM543.034 323.182C543.034 319.863 541.644 316.875 538.798 314.895L533.088 323.105C533.134 323.137 533.135 323.144 533.113 323.12C533.103 323.108 533.09 323.092 533.076 323.071C533.062 323.051 533.05 323.03 533.039 323.009C533.029 322.988 533.022 322.971 533.019 322.961C533.015 322.95 533.015 322.949 533.017 322.958C533.021 322.977 533.034 323.047 533.034 323.182H543.034ZM538.798 314.895C536.356 313.197 533.492 312.545 530.58 312.545V322.545C532.031 322.545 532.742 322.864 533.088 323.105L538.798 314.895ZM530.58 312.545C527.46 312.545 524.421 313.24 521.849 315.04L527.583 323.233C528.041 322.912 528.911 322.545 530.58 322.545V312.545ZM521.866 315.028C519.007 317.012 517.538 319.983 517.083 323.212L526.985 324.606C527.136 323.533 527.455 323.321 527.566 323.244L521.866 315.028ZM522.034 318.909H498.943V328.909H522.034V318.909ZM503.93 324.265C504.171 320.901 505.227 317.826 507.143 314.963L498.834 309.4C495.962 313.689 494.322 318.433 493.956 323.553L503.93 324.265ZM507.138 314.971C508.969 312.248 511.728 309.917 515.684 308.081L511.475 299.01C506.158 301.477 501.857 304.904 498.839 309.392L507.138 314.971ZM515.709 308.07C519.487 306.292 524.493 305.273 530.943 305.273V295.273C523.515 295.273 516.945 296.436 511.451 299.021L515.709 308.07ZM530.943 305.273C535.557 305.273 539.549 305.819 542.971 306.838L545.824 297.253C541.308 295.909 536.33 295.273 530.943 295.273V305.273ZM543.005 306.848C546.5 307.861 549.31 309.241 551.534 310.909L557.534 302.909C554.183 300.396 550.235 298.532 545.791 297.243L543.005 306.848ZM551.562 310.93C553.803 312.586 555.396 314.446 556.465 316.495L565.331 311.869C563.49 308.342 560.841 305.353 557.506 302.888L551.562 310.93ZM556.495 316.552C557.574 318.555 558.125 320.737 558.125 323.182H568.125C568.125 319.142 567.191 315.324 565.3 311.811L556.495 316.552ZM558.125 323.182V371H568.125V323.182H558.125ZM563.125 366H539.67V376H563.125V366ZM544.67 371V361.182H534.67V371H544.67ZM539.67 356.182H539.125V366.182H539.67V356.182ZM534.716 358.824C533.592 360.925 532.304 362.477 530.903 363.601L537.165 371.399C539.764 369.311 541.87 366.651 543.534 363.54L534.716 358.824ZM530.874 363.625C529.453 364.784 527.808 365.644 525.888 366.192L528.635 375.808C531.805 374.902 534.676 373.428 537.194 371.375L530.874 363.625ZM525.872 366.197C523.873 366.775 521.576 367.091 518.943 367.091V377.091C522.371 377.091 525.619 376.68 528.65 375.803L525.872 366.197ZM527.125 361.273C529.746 361.273 532.267 360.726 534.626 359.611L530.352 350.571C529.377 351.031 528.322 351.273 527.125 351.273V361.273ZM534.594 359.626C537.055 358.484 539.117 356.795 540.694 354.588L532.556 348.776C532.011 349.539 531.317 350.122 530.383 350.556L534.594 359.626ZM540.694 354.588C542.454 352.123 543.216 349.261 543.216 346.273H533.216C533.216 347.527 532.917 348.271 532.556 348.776L540.694 354.588ZM543.216 346.273V340.455H533.216V346.273H543.216ZM536.323 335.827C535.789 336.045 535.201 336.259 534.556 336.465L537.603 345.989C538.473 345.711 539.309 345.409 540.109 345.082L536.323 335.827ZM534.498 336.484C533.908 336.681 533.244 336.873 532.503 337.058L534.929 346.76C535.884 346.521 536.797 346.259 537.661 345.971L534.498 336.484ZM532.461 337.069C531.756 337.252 530.98 337.427 530.129 337.591L532.03 347.409C533.058 347.21 534.04 346.99 534.971 346.749L532.461 337.069ZM530.099 337.597C529.273 337.762 528.396 337.916 527.467 338.056L528.965 347.944C530.036 347.781 531.068 347.601 532.06 347.403L530.099 337.597ZM527.444 338.06C525.123 338.423 522.914 339.064 520.997 340.139L525.889 348.861C526.457 348.542 527.43 348.183 528.988 347.94L527.444 338.06ZM521.034 340.119C519.195 341.13 517.577 342.532 516.44 344.408L524.992 349.592C525.067 349.468 525.268 349.203 525.853 348.881L521.034 340.119ZM516.417 344.447C515.348 346.247 514.852 348.232 514.852 350.273H524.852C524.852 349.889 524.932 349.692 525.015 349.553L516.417 344.447ZM514.852 350.273C514.852 353.538 516.089 356.605 518.884 358.717L524.912 350.738C524.874 350.71 524.871 350.701 524.882 350.715C524.894 350.73 524.904 350.746 524.908 350.754C524.918 350.777 524.852 350.655 524.852 350.273H514.852ZM518.884 358.717C521.307 360.547 524.183 361.273 527.125 361.273V351.273C525.825 351.273 525.216 350.968 524.912 350.738L518.884 358.717ZM600.205 277.909H605.205V272.909H600.205V277.909ZM600.205 371V376H605.205V371H600.205ZM575.114 371H570.114V376H575.114V371ZM575.114 277.909V272.909H570.114V277.909H575.114ZM595.205 277.909V371H605.205V277.909H595.205ZM600.205 366H575.114V376H600.205V366ZM580.114 371V277.909H570.114V371H580.114ZM575.114 282.909H600.205V272.909H575.114V282.909ZM658.807 324.455H663.807V319.455H658.807V324.455ZM658.807 343.364V348.364H663.807V343.364H658.807ZM615.17 343.364H610.17V348.364H615.17V343.364ZM615.17 324.455V319.455H610.17V324.455H615.17ZM653.807 324.455V343.364H663.807V324.455H653.807ZM658.807 338.364H615.17V348.364H658.807V338.364ZM620.17 343.364V324.455H610.17V343.364H620.17ZM615.17 329.455H658.807V319.455H615.17V329.455ZM698.83 277.909L703.631 276.513L702.582 272.909H698.83V277.909ZM717.92 343.545L713.119 344.942L714.168 348.545H717.92V343.545ZM718.648 343.545V348.545H722.401L723.449 344.942L718.648 343.545ZM737.739 277.909V272.909H733.986L732.938 276.513L737.739 277.909ZM766.284 277.909L771.032 279.476L773.2 272.909H766.284V277.909ZM735.557 371V376H739.172L740.305 372.567L735.557 371ZM701.011 371L696.263 372.567L697.396 376H701.011V371ZM670.284 277.909V272.909H663.368L665.536 279.476L670.284 277.909ZM694.029 279.306L713.119 344.942L722.721 342.149L703.631 276.513L694.029 279.306ZM717.92 348.545H718.648V338.545H717.92V348.545ZM723.449 344.942L742.54 279.306L732.938 276.513L713.847 342.149L723.449 344.942ZM737.739 282.909H766.284V272.909H737.739V282.909ZM761.536 276.342L730.809 369.433L740.305 372.567L771.032 279.476L761.536 276.342ZM735.557 366H701.011V376H735.557V366ZM705.759 369.433L675.032 276.342L665.536 279.476L696.263 372.567L705.759 369.433ZM670.284 282.909H698.83V272.909H670.284V282.909ZM775.614 371H770.614V376H775.614V371ZM775.614 301.182V296.182H770.614V301.182H775.614ZM800.705 301.182H805.705V296.182H800.705V301.182ZM800.705 371V376H805.705V371H800.705ZM779.432 290.545L776.037 294.216V294.216L779.432 290.545ZM779.432 274.364L776.037 270.693V270.693L779.432 274.364ZM796.886 274.364L793.468 278.013L793.48 278.023L793.491 278.034L796.886 274.364ZM796.886 290.545L793.491 286.875L793.48 286.886L793.468 286.896L796.886 290.545ZM780.614 371V301.182H770.614V371H780.614ZM775.614 306.182H800.705V296.182H775.614V306.182ZM795.705 301.182V371H805.705V301.182H795.705ZM800.705 366H775.614V376H800.705V366ZM788.159 288.909C785.985 288.909 784.299 288.237 782.827 286.875L776.037 294.216C779.413 297.339 783.545 298.909 788.159 298.909V288.909ZM782.827 286.875C781.371 285.528 780.795 284.139 780.795 282.455H770.795C770.795 287.073 772.644 291.078 776.037 294.216L782.827 286.875ZM780.795 282.455C780.795 280.77 781.371 279.381 782.827 278.034L776.037 270.693C772.644 273.831 770.795 277.836 770.795 282.455H780.795ZM782.827 278.034C784.299 276.672 785.985 276 788.159 276V266C783.545 266 779.413 267.57 776.037 270.693L782.827 278.034ZM788.159 276C790.375 276 792.045 276.679 793.468 278.013L800.305 270.715C796.94 267.563 792.791 266 788.159 266V276ZM793.491 278.034C794.948 279.381 795.523 280.77 795.523 282.455H805.523C805.523 277.836 803.674 273.831 800.282 270.693L793.491 278.034ZM795.523 282.455C795.523 284.139 794.948 285.528 793.491 286.875L800.282 294.216C803.674 291.078 805.523 287.073 805.523 282.455H795.523ZM793.468 286.896C792.045 288.23 790.375 288.909 788.159 288.909V298.909C792.791 298.909 796.94 297.346 800.305 294.195L793.468 286.896ZM877.307 323.909V328.909H882.516L882.303 323.704L877.307 323.909ZM854.216 323.909L849.234 324.333L849.623 328.909H854.216V323.909ZM852.716 320.227L856.52 316.983L852.716 320.227ZM849.307 317.864L847.362 322.47L847.423 322.496L847.485 322.52L849.307 317.864ZM839.216 318.182L836.945 313.727L839.216 318.182ZM836.943 321.545L841.941 321.692L841.945 321.567L841.942 321.441L836.943 321.545ZM838.261 324.409L834.786 328.004L834.816 328.032L834.846 328.06L838.261 324.409ZM843.67 326.455L842.776 331.374L842.787 331.376L843.67 326.455ZM857.852 329L858.749 324.081L858.736 324.079L857.852 329ZM873.807 335.591L870.489 339.332L870.506 339.347L870.523 339.362L873.807 335.591ZM879.125 347.909L884.125 347.94L884.125 347.91L884.125 347.88L879.125 347.909ZM874.67 360.864L870.769 357.736L870.766 357.74L874.67 360.864ZM862.716 369.318L864.539 373.974L864.546 373.971L864.554 373.968L862.716 369.318ZM820.443 365.727L817.502 369.771L817.512 369.778L820.443 365.727ZM810.398 348.455V343.455H804.887L805.421 348.94L810.398 348.455ZM835.307 348.455L840.251 347.71L839.61 343.455H835.307V348.455ZM838.58 353.591L835.838 357.772L835.877 357.798L835.917 357.823L838.58 353.591ZM851.352 354.182L849.046 349.746L849.027 349.755L849.009 349.765L851.352 354.182ZM853.67 350.818L858.669 350.922L858.672 350.813L858.669 350.705L853.67 350.818ZM851.67 347.636L849.039 351.888L849.061 351.901L849.083 351.915L851.67 347.636ZM845.67 345.727L846.546 340.804L846.539 340.803L845.67 345.727ZM833.307 343.545L834.176 338.622L834.166 338.62L833.307 343.545ZM817.307 336.455L820.812 332.889L817.307 336.455ZM812.034 323L817.034 323.028L817.034 322.998L817.034 322.969L812.034 323ZM815.852 310.682L811.887 307.637L811.883 307.642L815.852 310.682ZM826.989 302.955L828.702 307.652L828.71 307.649L828.719 307.646L826.989 302.955ZM868.08 306.545L865.161 310.606L865.171 310.613L868.08 306.545ZM877.307 318.909H854.216V328.909H877.307V318.909ZM859.198 323.485C858.993 321.082 858.115 318.853 856.52 316.983L848.912 323.472C849.074 323.662 849.196 323.888 849.234 324.333L859.198 323.485ZM856.52 316.983C855.052 315.262 853.207 314.021 851.129 313.207L847.485 322.52C848.194 322.797 848.622 323.132 848.912 323.472L856.52 316.983ZM851.252 313.257C849.2 312.391 847.012 312 844.761 312V322C845.844 322 846.687 322.185 847.362 322.47L851.252 313.257ZM844.761 312C842.006 312 839.343 312.505 836.945 313.727L841.487 322.636C842.18 322.283 843.213 322 844.761 322V312ZM836.945 313.727C835.626 314.4 834.314 315.382 833.346 316.814C832.344 318.297 831.909 319.971 831.944 321.65L841.942 321.441C841.944 321.529 841.935 321.682 841.88 321.876C841.825 322.072 841.737 322.257 841.632 322.413C841.421 322.724 841.261 322.752 841.487 322.636L836.945 313.727ZM831.945 321.398C831.865 324.145 833.113 326.387 834.786 328.004L841.736 320.814C841.639 320.72 841.706 320.756 841.792 320.943C841.888 321.153 841.949 321.421 841.941 321.692L831.945 321.398ZM834.846 328.06C836.921 330.002 840.004 330.87 842.776 331.374L844.565 321.535C843.42 321.327 842.617 321.103 842.087 320.903C841.52 320.689 841.494 320.586 841.677 320.758L834.846 328.06ZM842.787 331.376L856.969 333.921L858.736 324.079L844.554 321.533L842.787 331.376ZM856.956 333.919C863.669 335.142 867.97 337.097 870.489 339.332L877.125 331.85C872.674 327.903 866.338 325.464 858.749 324.081L856.956 333.919ZM870.523 339.362C872.834 341.374 874.102 344.053 874.125 347.938L884.125 347.88C884.087 341.462 881.81 335.929 877.09 331.82L870.523 339.362ZM874.125 347.879C874.101 351.791 872.962 355.001 870.769 357.736L878.572 363.991C882.258 359.393 884.088 353.966 884.125 347.94L874.125 347.879ZM870.766 357.74C868.487 360.589 865.266 362.934 860.878 364.668L864.554 373.968C870.287 371.702 875.036 368.411 878.575 363.987L870.766 357.74ZM860.893 364.662C856.545 366.365 851.438 367.273 845.489 367.273V377.273C852.448 377.273 858.827 376.211 864.539 373.974L860.893 364.662ZM845.489 367.273C835.435 367.273 828.254 365.208 823.374 361.677L817.512 369.778C824.693 374.974 834.208 377.273 845.489 377.273V367.273ZM823.384 361.684C818.497 358.13 815.927 353.647 815.374 347.97L805.421 348.94C806.262 357.566 810.389 364.598 817.502 369.771L823.384 361.684ZM810.398 353.455H835.307V343.455H810.398V353.455ZM830.363 349.2C830.905 352.799 832.784 355.769 835.838 357.772L841.321 349.41C840.679 348.988 840.375 348.535 840.251 347.71L830.363 349.2ZM835.917 357.823C838.79 359.631 842.143 360.364 845.67 360.364V350.364C843.5 350.364 842.126 349.915 841.242 349.359L835.917 357.823ZM845.67 360.364C848.503 360.364 851.272 359.885 853.696 358.599L849.009 349.765C848.463 350.055 847.444 350.364 845.67 350.364V360.364ZM853.659 358.618C856.457 357.163 858.594 354.557 858.669 350.922L848.672 350.714C848.673 350.645 848.685 350.519 848.735 350.358C848.786 350.196 848.862 350.043 848.951 349.913C849.132 349.651 849.259 349.635 849.046 349.746L853.659 358.618ZM858.669 350.705C858.594 347.395 856.78 344.883 854.258 343.358L849.083 351.915C849.209 351.991 849.076 351.941 848.915 351.684C848.836 351.558 848.771 351.415 848.728 351.267C848.685 351.121 848.673 351.003 848.672 350.932L858.669 350.705ZM854.302 343.385C852.212 342.091 849.458 341.322 846.546 340.804L844.795 350.65C847.338 351.102 848.584 351.606 849.039 351.888L854.302 343.385ZM846.539 340.803L834.176 338.622L832.438 348.469L844.802 350.651L846.539 340.803ZM834.166 338.62C827.612 337.476 823.374 335.407 820.812 332.889L813.802 340.02C818.331 344.472 824.759 347.13 832.447 348.471L834.166 338.62ZM820.812 332.889C818.334 330.453 817.01 327.316 817.034 323.028L807.034 322.972C806.997 329.654 809.189 335.486 813.802 340.02L820.812 332.889ZM817.034 322.969C817.01 319.062 818.016 316.08 819.822 313.722L811.883 307.642C808.537 312.011 806.998 317.241 807.034 323.031L817.034 322.969ZM819.818 313.727C821.739 311.225 824.597 309.149 828.702 307.652L825.275 298.257C819.744 300.275 815.177 303.351 811.887 307.637L819.818 313.727ZM828.719 307.646C832.881 306.111 838.01 305.273 844.216 305.273V295.273C837.149 295.273 830.793 296.222 825.259 298.263L828.719 307.646ZM844.216 305.273C853.674 305.273 860.477 307.239 865.161 310.606L870.998 302.485C864.045 297.488 854.94 295.273 844.216 295.273V305.273ZM865.171 310.613C869.723 313.868 872.069 318.208 872.311 324.114L882.303 323.704C881.939 314.823 878.133 307.587 870.988 302.478L865.171 310.613ZM930.375 301.182H935.375V296.182H930.375V301.182ZM930.375 319.364V324.364H935.375V319.364H930.375ZM884.375 319.364H879.375V324.364H884.375V319.364ZM884.375 301.182V296.182H879.375V301.182H884.375ZM893.284 284.455V279.455H888.284V284.455H893.284ZM918.375 284.455H923.375V279.455H918.375V284.455ZM918.875 351L914.403 353.236L914.424 353.278L914.446 353.32L918.875 351ZM920.42 352.455L918.263 356.965L918.344 357.004L918.427 357.04L920.42 352.455ZM925.739 352.636L924.87 347.712L924.857 347.715L924.844 347.717L925.739 352.636ZM928.011 352.182L932.908 351.172L931.856 346.067L926.799 347.331L928.011 352.182ZM931.648 369.818L933.073 374.611L937.471 373.303L936.545 368.808L931.648 369.818ZM926.83 371.045L925.7 366.175L925.692 366.177L925.684 366.178L926.83 371.045ZM919.466 372L919.729 376.993L919.732 376.993L919.466 372ZM904.966 370.227L903.159 374.889L903.175 374.895L903.19 374.901L904.966 370.227ZM896.148 363.091L891.874 365.687L896.148 363.091ZM893.284 350.909L898.284 350.971L898.284 350.94V350.909H893.284ZM925.375 301.182V319.364H935.375V301.182H925.375ZM930.375 314.364H884.375V324.364H930.375V314.364ZM889.375 319.364V301.182H879.375V319.364H889.375ZM884.375 306.182H930.375V296.182H884.375V306.182ZM893.284 289.455H918.375V279.455H893.284V289.455ZM913.375 284.455V348.545H923.375V284.455H913.375ZM913.375 348.545C913.375 350.066 913.634 351.698 914.403 353.236L923.347 348.764C923.398 348.867 923.406 348.919 923.399 348.888C923.393 348.855 923.375 348.747 923.375 348.545H913.375ZM914.446 353.32C915.319 354.987 916.67 356.203 918.263 356.965L922.578 347.944C922.652 347.979 922.787 348.058 922.938 348.2C923.092 348.345 923.217 348.513 923.304 348.68L914.446 353.32ZM918.427 357.04C919.964 357.708 921.601 357.909 923.102 357.909V347.909C922.783 347.909 922.571 347.886 922.449 347.866C922.327 347.845 922.329 347.832 922.414 347.869L918.427 357.04ZM923.102 357.909C924.241 357.909 925.431 357.774 926.633 357.556L924.844 347.717C924.046 347.862 923.478 347.909 923.102 347.909V357.909ZM926.608 357.56C927.657 357.375 928.559 357.199 929.224 357.033L926.799 347.331C926.494 347.407 925.881 347.534 924.87 347.712L926.608 357.56ZM923.114 353.192L926.751 370.828L936.545 368.808L932.908 351.172L923.114 353.192ZM930.223 365.025C929.248 365.315 927.759 365.697 925.7 366.175L927.959 375.916C930.082 375.424 931.805 374.988 933.073 374.611L930.223 365.025ZM925.684 366.178C923.992 366.576 921.847 366.866 919.2 367.007L919.732 376.993C922.782 376.831 925.546 376.484 927.975 375.913L925.684 366.178ZM919.203 367.007C913.893 367.286 909.804 366.716 906.741 365.553L903.19 374.901C907.946 376.708 913.523 377.32 919.729 376.993L919.203 367.007ZM906.773 365.565C903.777 364.404 901.758 362.696 900.421 360.495L891.874 365.687C894.477 369.97 898.337 373.02 903.159 374.889L906.773 365.565ZM900.421 360.495C899.059 358.252 898.231 355.178 898.284 350.971L888.284 350.847C888.216 356.398 889.297 361.445 891.874 365.687L900.421 360.495ZM898.284 350.909V284.455H888.284V350.909H898.284ZM948.25 369.909L946.246 374.49L946.27 374.501L946.295 374.511L948.25 369.909ZM940.25 363.182L936.051 365.896L940.25 363.182ZM939.295 341.955L943.798 344.13L943.802 344.12L943.807 344.11L939.295 341.955ZM944.75 335.273L947.725 339.291L944.75 335.273ZM952.886 331.318L951.488 326.518L951.476 326.521L952.886 331.318ZM962.977 329.545L963.354 334.531L963.364 334.53L962.977 329.545ZM972.386 328.455L973.27 333.376L973.294 333.371L973.319 333.367L972.386 328.455ZM977.568 326.591L980.55 330.605L980.586 330.578L980.622 330.55L977.568 326.591ZM977.068 319L974.213 323.105V323.105L977.068 319ZM965.841 319.136L968.691 323.244L968.7 323.238L968.708 323.233L965.841 319.136ZM963.159 323.909V328.909H967.504L968.11 324.606L963.159 323.909ZM940.068 323.909L935.081 323.553L934.698 328.909H940.068V323.909ZM944.114 312.182L939.964 309.392L939.959 309.4L944.114 312.182ZM954.705 303.545L956.809 308.081L956.821 308.075L956.834 308.07L954.705 303.545ZM985.523 302.045L984.096 306.838L984.113 306.843L984.13 306.848L985.523 302.045ZM995.659 306.909L992.659 310.909L992.673 310.92L992.687 310.93L995.659 306.909ZM1002.02 314.182L997.59 316.495L997.605 316.524L997.62 316.552L1002.02 314.182ZM1004.25 371V376H1009.25V371H1004.25ZM980.795 371H975.795V376H980.795V371ZM980.795 361.182H985.795V356.182H980.795V361.182ZM980.25 361.182V356.182H977.254L975.841 358.824L980.25 361.182ZM975.159 367.5L972.028 363.601L972.014 363.613L971.999 363.625L975.159 367.5ZM968.386 371L967.013 366.192L967.005 366.195L966.997 366.197L968.386 371ZM973.614 355.091L971.508 350.556L971.492 350.563L971.477 350.571L973.614 355.091ZM977.75 351.682L973.681 348.776L977.75 351.682ZM979.341 340.455H984.341V333.007L977.448 335.827L979.341 340.455ZM977.205 341.227L975.681 336.465L975.652 336.474L975.623 336.484L977.205 341.227ZM974.841 341.909L973.628 337.058L973.607 337.064L973.586 337.069L974.841 341.909ZM972.205 342.5L971.254 337.591L971.239 337.594L971.224 337.597L972.205 342.5ZM969.341 343L968.592 338.056L968.58 338.058L968.569 338.06L969.341 343ZM964.568 344.5L966.978 348.881L966.996 348.871L967.014 348.861L964.568 344.5ZM961.841 347L957.565 344.408L957.553 344.428L957.542 344.447L961.841 347ZM963.023 354.727L966.037 350.738L963.023 354.727ZM960.068 367.091C956.155 367.091 952.901 366.453 950.205 365.307L946.295 374.511C950.447 376.275 955.072 377.091 960.068 377.091V367.091ZM950.254 365.328C947.724 364.221 945.835 362.612 944.449 360.467L936.051 365.896C938.544 369.752 941.988 372.627 946.246 374.49L950.254 365.328ZM944.449 360.467C943.167 358.485 942.341 355.683 942.341 351.727H932.341C932.341 357.044 933.454 361.879 936.051 365.896L944.449 360.467ZM942.341 351.727C942.341 348.462 942.899 345.988 943.798 344.13L934.793 339.779C933.085 343.315 932.341 347.356 932.341 351.727H942.341ZM943.807 344.11C944.773 342.089 946.076 340.512 947.725 339.291L941.775 331.254C938.758 333.488 936.424 336.366 934.784 339.799L943.807 344.11ZM947.725 339.291C949.538 337.95 951.708 336.877 954.297 336.115L951.476 326.521C947.883 327.578 944.629 329.141 941.775 331.254L947.725 339.291ZM954.285 336.119C957.038 335.317 960.056 334.781 963.354 334.531L962.6 324.56C958.686 324.856 954.977 325.501 951.488 326.518L954.285 336.119ZM963.364 334.53C967.35 334.222 970.672 333.842 973.27 333.376L971.503 323.533C969.374 323.915 966.423 324.263 962.591 324.56L963.364 334.53ZM973.319 333.367C975.931 332.871 978.565 332.079 980.55 330.605L974.587 322.577C974.587 322.577 974.531 322.618 974.392 322.688C974.255 322.758 974.057 322.845 973.785 322.943C973.234 323.141 972.471 323.349 971.454 323.542L973.319 333.367ZM980.622 330.55C982.903 328.79 984.159 326.255 984.159 323.364H974.159C974.159 323.364 974.159 323.32 974.177 323.24C974.194 323.159 974.226 323.062 974.277 322.96C974.327 322.857 974.384 322.774 974.436 322.713C974.486 322.653 974.519 322.629 974.514 322.632L980.622 330.55ZM984.159 323.364V323.182H974.159V323.364H984.159ZM984.159 323.182C984.159 319.863 982.769 316.875 979.924 314.895L974.213 323.105C974.259 323.137 974.26 323.144 974.238 323.12C974.228 323.108 974.215 323.092 974.201 323.071C974.187 323.051 974.175 323.03 974.164 323.009C974.154 322.988 974.147 322.971 974.144 322.961C974.14 322.95 974.14 322.949 974.142 322.958C974.146 322.977 974.159 323.047 974.159 323.182H984.159ZM979.924 314.895C977.481 313.197 974.617 312.545 971.705 312.545V322.545C973.156 322.545 973.867 322.864 974.213 323.105L979.924 314.895ZM971.705 312.545C968.585 312.545 965.546 313.24 962.974 315.04L968.708 323.233C969.166 322.912 970.036 322.545 971.705 322.545V312.545ZM962.99 315.028C960.132 317.012 958.663 319.983 958.208 323.212L968.11 324.606C968.261 323.533 968.58 323.321 968.691 323.244L962.99 315.028ZM963.159 318.909H940.068V328.909H963.159V318.909ZM945.055 324.265C945.296 320.901 946.352 317.826 948.268 314.963L939.959 309.4C937.087 313.689 935.447 318.433 935.081 323.553L945.055 324.265ZM948.263 314.971C950.094 312.248 952.853 309.917 956.809 308.081L952.6 299.01C947.283 301.477 942.982 304.904 939.964 309.392L948.263 314.971ZM956.834 308.07C960.612 306.292 965.618 305.273 972.068 305.273V295.273C964.64 295.273 958.07 296.436 952.576 299.021L956.834 308.07ZM972.068 305.273C976.682 305.273 980.674 305.819 984.096 306.838L986.949 297.253C982.433 295.909 977.455 295.273 972.068 295.273V305.273ZM984.13 306.848C987.625 307.861 990.435 309.241 992.659 310.909L998.659 302.909C995.308 300.396 991.36 298.532 986.916 297.243L984.13 306.848ZM992.687 310.93C994.928 312.586 996.521 314.446 997.59 316.495L1006.46 311.869C1004.62 308.342 1001.97 305.353 998.631 302.888L992.687 310.93ZM997.62 316.552C998.699 318.555 999.25 320.737 999.25 323.182H1009.25C1009.25 319.142 1008.32 315.324 1006.43 311.811L997.62 316.552ZM999.25 323.182V371H1009.25V323.182H999.25ZM1004.25 366H980.795V376H1004.25V366ZM985.795 371V361.182H975.795V371H985.795ZM980.795 356.182H980.25V366.182H980.795V356.182ZM975.841 358.824C974.717 360.925 973.429 362.477 972.028 363.601L978.29 371.399C980.889 369.311 982.995 366.651 984.659 363.54L975.841 358.824ZM971.999 363.625C970.578 364.784 968.933 365.644 967.013 366.192L969.76 375.808C972.93 374.902 975.801 373.428 978.319 371.375L971.999 363.625ZM966.997 366.197C964.998 366.775 962.701 367.091 960.068 367.091V377.091C963.496 377.091 966.744 376.68 969.775 375.803L966.997 366.197ZM968.25 361.273C970.871 361.273 973.392 360.726 975.751 359.611L971.477 350.571C970.502 351.031 969.447 351.273 968.25 351.273V361.273ZM975.719 359.626C978.18 358.484 980.242 356.795 981.819 354.588L973.681 348.776C973.136 349.539 972.442 350.122 971.508 350.556L975.719 359.626ZM981.819 354.588C983.579 352.123 984.341 349.261 984.341 346.273H974.341C974.341 347.527 974.042 348.271 973.681 348.776L981.819 354.588ZM984.341 346.273V340.455H974.341V346.273H984.341ZM977.448 335.827C976.914 336.045 976.326 336.259 975.681 336.465L978.728 345.989C979.598 345.711 980.434 345.409 981.234 345.082L977.448 335.827ZM975.623 336.484C975.033 336.681 974.369 336.873 973.628 337.058L976.054 346.76C977.009 346.521 977.922 346.259 978.786 345.971L975.623 336.484ZM973.586 337.069C972.881 337.252 972.105 337.427 971.254 337.591L973.155 347.409C974.183 347.21 975.165 346.99 976.096 346.749L973.586 337.069ZM971.224 337.597C970.398 337.762 969.521 337.916 968.592 338.056L970.09 347.944C971.161 347.781 972.193 347.601 973.185 347.403L971.224 337.597ZM968.569 338.06C966.248 338.423 964.039 339.064 962.122 340.139L967.014 348.861C967.582 348.542 968.555 348.183 970.113 347.94L968.569 338.06ZM962.159 340.119C960.32 341.13 958.702 342.532 957.565 344.408L966.117 349.592C966.192 349.468 966.393 349.203 966.978 348.881L962.159 340.119ZM957.542 344.447C956.473 346.247 955.977 348.232 955.977 350.273H965.977C965.977 349.889 966.057 349.692 966.14 349.553L957.542 344.447ZM955.977 350.273C955.977 353.538 957.214 356.605 960.009 358.717L966.037 350.738C965.999 350.71 965.996 350.701 966.007 350.715C966.019 350.73 966.029 350.746 966.032 350.754C966.043 350.777 965.977 350.655 965.977 350.273H955.977ZM960.009 358.717C962.432 360.547 965.308 361.273 968.25 361.273V351.273C966.95 351.273 966.341 350.968 966.037 350.738L960.009 358.717Z" fill="url(#paint4_linear_146_141)" mask="url(#path-5-outside-1_146_141)"/>
<path d="M63.5234 34.8515L56 54.625H64.0948L67.8088 43.9341L63.5234 34.8515Z" fill="white"/>
<path d="M74.4751 54.625L64.8566 34H72.7609L82.3794 54.625H74.4751Z" fill="white"/>
<path d="M79.1073 39.0143L76.917 34H84.5356L87.0116 39.0143H79.1073Z" fill="white"/>
<path d="M86.2498 54.625L79.4883 40.3389H87.4878L94.4398 54.625H86.2498Z" fill="white"/>
<path d="M90.882 39.0143L88.6916 34H101.643L104.024 39.0143H90.882Z" fill="white"/>
<path d="M100.405 54.625L93.8342 40.3389H101.643L108.5 54.625H100.405Z" fill="white"/>
<path d="M140.648 39.3636V35.5455H155.818V39.3636H150.568V53H145.898V39.3636H140.648ZM157.602 53V35.5455H170.181V39.3636H162.34V42.3636H169.533V46.1818H162.34V49.1818H170.147V53H157.602ZM188.827 42.0909H184.02C183.986 41.6932 183.895 41.3324 183.747 41.0085C183.605 40.6847 183.406 40.4062 183.151 40.1733C182.901 39.9347 182.597 39.7528 182.239 39.6278C181.881 39.4972 181.474 39.4318 181.02 39.4318C180.224 39.4318 179.551 39.625 179 40.0114C178.455 40.3977 178.04 40.9517 177.756 41.6733C177.477 42.3949 177.338 43.2614 177.338 44.2727C177.338 45.3409 177.48 46.2358 177.764 46.9574C178.054 47.6733 178.472 48.2131 179.017 48.5767C179.563 48.9347 180.219 49.1136 180.986 49.1136C181.423 49.1136 181.815 49.0597 182.162 48.9517C182.509 48.8381 182.81 48.6761 183.065 48.4659C183.321 48.2557 183.528 48.0028 183.688 47.7074C183.852 47.4062 183.963 47.0682 184.02 46.6932L188.827 46.7273C188.77 47.4659 188.563 48.2187 188.205 48.9858C187.847 49.7472 187.338 50.4517 186.679 51.0994C186.026 51.7415 185.216 52.2585 184.25 52.6506C183.284 53.0426 182.162 53.2386 180.884 53.2386C179.281 53.2386 177.844 52.8949 176.571 52.2074C175.304 51.5199 174.301 50.5085 173.562 49.1733C172.83 47.8381 172.463 46.2045 172.463 44.2727C172.463 42.3295 172.838 40.6932 173.588 39.3636C174.338 38.0284 175.349 37.0199 176.622 36.3381C177.895 35.6506 179.315 35.3068 180.884 35.3068C181.986 35.3068 183 35.4574 183.926 35.7585C184.852 36.0597 185.665 36.5 186.364 37.0795C187.063 37.6534 187.625 38.3608 188.051 39.2017C188.477 40.0426 188.736 41.0057 188.827 42.0909ZM190.977 53V35.5455H195.715V42.3636H201.988V35.5455H206.727V53H201.988V46.1818H195.715V53H190.977ZM224.079 35.5455V53H220.124L213.817 43.8295H213.715V53H208.977V35.5455H212.999L219.204 44.6818H219.34V35.5455H224.079ZM243.229 44.2727C243.229 46.2159 242.852 47.8551 242.096 49.1903C241.34 50.5199 240.32 51.5284 239.036 52.2159C237.752 52.8977 236.32 53.2386 234.741 53.2386C233.15 53.2386 231.712 52.8949 230.428 52.2074C229.15 51.5142 228.133 50.5028 227.377 49.1733C226.627 47.8381 226.252 46.2045 226.252 44.2727C226.252 42.3295 226.627 40.6932 227.377 39.3636C228.133 38.0284 229.15 37.0199 230.428 36.3381C231.712 35.6506 233.15 35.3068 234.741 35.3068C236.32 35.3068 237.752 35.6506 239.036 36.3381C240.32 37.0199 241.34 38.0284 242.096 39.3636C242.852 40.6932 243.229 42.3295 243.229 44.2727ZM238.354 44.2727C238.354 43.2273 238.215 42.3466 237.937 41.6307C237.664 40.9091 237.258 40.3636 236.718 39.9943C236.184 39.6193 235.525 39.4318 234.741 39.4318C233.957 39.4318 233.295 39.6193 232.755 39.9943C232.221 40.3636 231.815 40.9091 231.536 41.6307C231.263 42.3466 231.127 43.2273 231.127 44.2727C231.127 45.3182 231.263 46.2017 231.536 46.9233C231.815 47.6392 232.221 48.1847 232.755 48.5597C233.295 48.929 233.957 49.1136 234.741 49.1136C235.525 49.1136 236.184 48.929 236.718 48.5597C237.258 48.1847 237.664 47.6392 237.937 46.9233C238.215 46.2017 238.354 45.3182 238.354 44.2727ZM254.831 41C254.786 40.4318 254.572 39.9886 254.192 39.6705C253.817 39.3523 253.246 39.1932 252.479 39.1932C251.99 39.1932 251.589 39.2528 251.277 39.3722C250.97 39.4858 250.743 39.642 250.595 39.8409C250.447 40.0398 250.371 40.267 250.365 40.5227C250.354 40.733 250.391 40.9233 250.476 41.0938C250.567 41.2585 250.709 41.4091 250.902 41.5455C251.095 41.6761 251.342 41.7955 251.643 41.9034C251.945 42.0114 252.303 42.108 252.717 42.1932L254.149 42.5C255.115 42.7045 255.942 42.9744 256.629 43.3097C257.317 43.6449 257.879 44.0398 258.317 44.4943C258.754 44.9432 259.075 45.4489 259.28 46.0114C259.49 46.5739 259.598 47.1875 259.604 47.8523C259.598 49 259.311 49.9716 258.743 50.767C258.175 51.5625 257.362 52.1676 256.305 52.5824C255.254 52.9972 253.99 53.2045 252.513 53.2045C250.996 53.2045 249.672 52.9801 248.541 52.5312C247.416 52.0824 246.541 51.392 245.916 50.4602C245.297 49.5227 244.984 48.3239 244.979 46.8636H249.479C249.507 47.3977 249.641 47.8466 249.879 48.2102C250.118 48.5739 250.453 48.8494 250.885 49.0369C251.322 49.2244 251.842 49.3182 252.445 49.3182C252.95 49.3182 253.374 49.2557 253.714 49.1307C254.055 49.0057 254.314 48.8324 254.49 48.6108C254.666 48.3892 254.757 48.1364 254.763 47.8523C254.757 47.5852 254.669 47.3523 254.499 47.1534C254.334 46.9489 254.061 46.767 253.68 46.608C253.3 46.4432 252.786 46.2898 252.138 46.1477L250.399 45.7727C248.854 45.4375 247.635 44.8778 246.743 44.0938C245.857 43.304 245.416 42.2273 245.422 40.8636C245.416 39.7557 245.712 38.7869 246.308 37.9574C246.911 37.1222 247.743 36.4716 248.805 36.0057C249.874 35.5398 251.098 35.3068 252.479 35.3068C253.888 35.3068 255.107 35.5426 256.135 36.0142C257.163 36.4858 257.956 37.1506 258.513 38.0085C259.075 38.8608 259.359 39.858 259.365 41H254.831ZM261.406 53V35.5455H268.94C270.236 35.5455 271.369 35.8011 272.341 36.3125C273.313 36.8239 274.068 37.5426 274.608 38.4688C275.148 39.3949 275.418 40.4773 275.418 41.7159C275.418 42.9659 275.139 44.0483 274.582 44.9631C274.031 45.8778 273.256 46.5824 272.256 47.0767C271.261 47.571 270.099 47.8182 268.77 47.8182H264.27V44.1364H267.815C268.372 44.1364 268.847 44.0398 269.239 43.8466C269.636 43.6477 269.94 43.3665 270.151 43.0028C270.366 42.6392 270.474 42.2102 270.474 41.7159C270.474 41.2159 270.366 40.7898 270.151 40.4375C269.94 40.0795 269.636 39.8068 269.239 39.6193C268.847 39.4261 268.372 39.3295 267.815 39.3295H266.145V53H261.406ZM279.511 53H274.397L280.158 35.5455H286.636L292.397 53H287.283L283.465 40.3523H283.329L279.511 53ZM278.556 46.1136H288.17V49.6591H278.556V46.1136ZM294.078 53V35.5455H301.612C302.908 35.5455 304.041 35.7812 305.013 36.2528C305.984 36.7244 306.74 37.4034 307.28 38.2898C307.82 39.1761 308.089 40.2386 308.089 41.4773C308.089 42.7273 307.811 43.7812 307.254 44.6392C306.703 45.4972 305.928 46.1449 304.928 46.5824C303.933 47.0199 302.771 47.2386 301.442 47.2386H296.942V43.5568H300.487C301.044 43.5568 301.518 43.4886 301.911 43.3523C302.308 43.2102 302.612 42.9858 302.822 42.679C303.038 42.3722 303.146 41.9716 303.146 41.4773C303.146 40.9773 303.038 40.571 302.822 40.2585C302.612 39.9403 302.308 39.7074 301.911 39.5597C301.518 39.4062 301.044 39.3295 300.487 39.3295H298.817V53H294.078ZM304.305 44.9886L308.669 53H303.521L299.26 44.9886H304.305ZM315.189 35.5455L318.053 40.625H318.189L321.087 35.5455H326.371L321.155 44.2727L326.575 53H321.155L318.189 47.8182H318.053L315.087 53H309.7L315.053 44.2727L309.871 35.5455H315.189Z" fill="white"/>
<g opacity="0.25">
<path d="M124.002 504.77C141.655 504.767 155.962 491.984 155.965 476.207C155.962 460.431 141.654 447.65 124.002 447.647C106.345 447.65 92.0374 460.431 92.0344 476.207C92.0377 491.983 106.345 504.767 124.002 504.77ZM107.851 461.78C111.998 458.08 117.68 455.807 124.002 455.804C130.321 455.807 136.002 458.08 140.149 461.78C144.289 465.484 146.834 470.559 146.837 476.207C146.834 481.855 144.287 486.93 140.148 490.635C136.001 494.334 130.322 496.61 124.002 496.612C117.68 496.61 112 494.334 107.851 490.635C103.712 486.93 101.167 481.855 101.163 476.207C101.167 470.559 103.712 465.484 107.851 461.78Z" fill="url(#paint5_linear_146_141)"/>
<path d="M193.478 595.079L191.402 555.041L191.401 555.031C190.904 545.668 187.635 537.926 182.646 531.856C175.15 522.726 164.134 517.423 153.32 514.34C142.472 511.262 131.695 510.368 124.002 510.362C113.749 510.383 97.9851 511.929 83.9395 518.223C76.9306 521.377 70.3381 525.775 65.3546 531.856C60.3668 537.926 57.0966 545.665 56.5987 555.031L56.5972 555.041L54.5215 595.079H30V612.353H218V595.079H193.478ZM168.273 595.079L165.839 561.526C165.73 560.026 164.282 558.889 162.606 558.987C160.928 559.086 159.656 560.379 159.765 561.876L162.174 595.078H127.196V586.883C138.016 585.492 146.364 577.156 146.364 567.105V562.644C146.364 561.067 144.935 559.787 143.168 559.787C141.406 559.787 139.977 561.067 139.977 562.644V567.105C139.977 574.976 132.812 581.379 124.001 581.379C115.193 581.379 108.023 574.976 108.023 567.105V562.644C108.023 561.067 106.596 559.787 104.834 559.787C103.061 559.787 101.638 561.067 101.638 562.644V567.105C101.638 577.156 109.981 585.492 120.807 586.883V595.078H85.8272L88.2356 561.876C88.3439 560.379 87.0723 559.086 85.3946 558.987C83.7184 558.889 82.2699 560.026 82.1616 561.526L79.7278 595.079H63.6615L65.7178 555.418L65.7163 555.429C66.1636 547.502 68.7904 541.495 72.7219 536.676C78.6057 529.468 87.7781 524.861 97.452 522.115C107.092 519.364 117.106 518.514 124.002 518.52C133.202 518.498 147.915 520.055 159.955 525.509C165.99 528.226 171.342 531.867 175.281 536.676C179.212 541.495 181.838 547.499 182.283 555.429L182.282 555.418L184.338 595.079H168.273V595.079Z" fill="url(#paint6_linear_146_141)"/>
<path d="M124.001 539.974C118.282 539.974 113.645 544.119 113.645 549.231V566.418C113.645 571.532 118.282 575.672 124.001 575.672C129.717 575.672 134.36 571.532 134.36 566.418V549.231C134.36 544.119 129.717 539.974 124.001 539.974Z" fill="url(#paint7_linear_146_141)"/>
</g>
<g opacity="0.25">
<path d="M965.118 173.414C961.954 173.414 959.007 172.561 956.538 171.099V177.85C956.538 182.14 960.379 185.62 965.118 185.62H1011.16C1013.26 185.62 1014.96 187.162 1014.96 189.063C1014.96 193.354 1018.8 196.833 1023.54 196.833H1088.46C1093.2 196.833 1097.04 193.354 1097.04 189.063C1097.04 187.162 1098.74 185.62 1100.84 185.62H1146.88C1151.62 185.62 1155.46 182.14 1155.46 177.85V171.099C1152.99 172.561 1150.05 173.414 1146.88 173.414H965.118Z" fill="url(#paint8_linear_146_141)"/>
<path d="M1079.74 222.992C1079.04 222.992 1078.35 222.849 1077.73 222.551C1071.65 219.619 1067.96 210.832 1065.84 203.308H1046.16C1044.04 210.832 1040.35 219.619 1034.27 222.551C1033.65 222.849 1032.96 222.992 1032.26 222.992C1031.05 222.992 1029.95 223.437 1029.16 224.155C1028.37 224.872 1027.88 225.867 1027.88 226.962V230.573H1084.12V226.962C1084.12 224.768 1082.16 222.992 1079.74 222.992Z" fill="url(#paint9_linear_146_141)"/>
<path d="M1112.38 74.5122H999.621C998.828 75.9056 997.54 77.0297 995.967 77.6938V137.443L1006.67 123.778L1007.54 122.667H1040.85L1041.72 123.778L1055.35 141.181C1055.56 141.451 1055.72 141.736 1055.83 142.025H1063.09C1062.91 140.404 1062.27 138.822 1061.18 137.435L1044.65 116.324L1046.62 113.807L1052.8 105.918H1091.11L1097.29 113.807L1115.81 137.443V77.5953C1114.34 76.9217 1113.13 75.8393 1112.38 74.5122ZM1012.61 116.192L1021.36 105.024C1022.75 103.255 1025.65 103.255 1027.03 105.024L1035.78 116.192H1012.61ZM1057.87 99.4428L1069.12 85.0812C1070.51 83.3125 1073.41 83.3125 1074.79 85.0812L1086.04 99.4428H1057.87Z" fill="url(#paint10_linear_146_141)"/>
<path d="M1146.88 50.4277H965.118C960.379 50.4277 956.538 53.9061 956.538 58.1977V159.169C956.538 163.461 960.379 166.939 965.118 166.939H1146.88C1151.62 166.939 1155.46 163.461 1155.46 159.169V58.1977C1155.46 53.9061 1151.62 50.4277 1146.88 50.4277ZM1127.15 146.092C1127.15 150.002 1123.65 153.171 1119.33 153.171C1115.95 153.171 1113.07 151.224 1111.98 148.5H1000.02C998.934 151.224 996.053 153.171 992.67 153.171C988.352 153.171 984.852 150.001 984.852 146.092C984.852 143.451 986.45 141.15 988.817 139.933V77.4339C986.45 76.2169 984.852 73.9157 984.852 71.2749C984.852 67.365 988.352 64.1954 992.67 64.1954C995.698 64.1954 998.323 65.7561 999.621 68.0371H1112.38C1113.68 65.7561 1116.3 64.1954 1119.33 64.1954C1123.65 64.1954 1127.15 67.365 1127.15 71.2749C1127.15 73.9975 1125.45 76.3598 1122.96 77.5443V139.822C1125.45 141.007 1127.15 143.369 1127.15 146.092Z" fill="url(#paint11_linear_146_141)"/>
</g>
</g>
<defs>
<linearGradient id="paint0_linear_146_141" x1="-63.757" y1="-34.0073" x2="-63.757" y2="347.166" gradientUnits="userSpaceOnUse">
<stop stop-color="#FF9E0B"/>
<stop offset="1" stop-color="#EC4899"/>
</linearGradient>
<linearGradient id="paint1_linear_146_141" x1="1173" y1="695.827" x2="1173" y2="969.442" gradientUnits="userSpaceOnUse">
<stop stop-color="#FF9E0B"/>
<stop offset="1" stop-color="#F24E52"/>
</linearGradient>
<linearGradient id="paint2_linear_146_141" x1="882.5" y1="530" x2="882.5" y2="919" gradientUnits="userSpaceOnUse">
<stop stop-color="#FF9E0B"/>
<stop offset="1" stop-color="#9C67E7"/>
</linearGradient>
<linearGradient id="paint3_linear_146_141" x1="491" y1="30" x2="491" y2="162" gradientUnits="userSpaceOnUse">
<stop stop-color="#FF9E0B"/>
<stop offset="1" stop-color="#DA46EB"/>
</linearGradient>
<linearGradient id="paint4_linear_146_141" x1="602.5" y1="247" x2="602.5" y2="402" gradientUnits="userSpaceOnUse">
<stop stop-color="#FF9E0B"/>
<stop offset="0.49" stop-color="#F24E52"/>
</linearGradient>
<linearGradient id="paint5_linear_146_141" x1="124" y1="447.647" x2="124" y2="504.77" gradientUnits="userSpaceOnUse">
<stop stop-color="#F24E52"/>
<stop offset="1" stop-color="#DA46EB"/>
</linearGradient>
<linearGradient id="paint6_linear_146_141" x1="124" y1="510.362" x2="124" y2="612.353" gradientUnits="userSpaceOnUse">
<stop stop-color="#F24E52"/>
<stop offset="1" stop-color="#DA46EB"/>
</linearGradient>
<linearGradient id="paint7_linear_146_141" x1="124.002" y1="539.974" x2="124.002" y2="575.672" gradientUnits="userSpaceOnUse">
<stop stop-color="#F24E52"/>
<stop offset="1" stop-color="#DA46EB"/>
</linearGradient>
<linearGradient id="paint8_linear_146_141" x1="1056" y1="171.099" x2="1056" y2="196.833" gradientUnits="userSpaceOnUse">
<stop stop-color="#FF9E0B"/>
<stop offset="1" stop-color="#EC4899"/>
</linearGradient>
<linearGradient id="paint9_linear_146_141" x1="1056" y1="203.308" x2="1056" y2="230.573" gradientUnits="userSpaceOnUse">
<stop stop-color="#FF9E0B"/>
<stop offset="1" stop-color="#EC4899"/>
</linearGradient>
<linearGradient id="paint10_linear_146_141" x1="1055.89" y1="74.5122" x2="1055.89" y2="142.025" gradientUnits="userSpaceOnUse">
<stop stop-color="#FF9E0B"/>
<stop offset="1" stop-color="#EC4899"/>
</linearGradient>
<linearGradient id="paint11_linear_146_141" x1="1056" y1="50.4277" x2="1056" y2="166.939" gradientUnits="userSpaceOnUse">
<stop stop-color="#FF9E0B"/>
<stop offset="1" stop-color="#EC4899"/>
</linearGradient>
<clipPath id="clip0_146_141">
<rect width="1200" height="630" fill="white"/>
</clipPath>
</defs>
</svg>
