<svg width="1200" height="630" viewBox="0 0 1200 630" fill="none" xmlns="http://www.w3.org/2000/svg">
<g clip-path="url(#clip0_134_26)">
<rect width="1200" height="630" fill="black"/>
<rect x="-427.809" y="-32.4841" width="729.486" height="376.173" transform="rotate(-19.4848 -427.809 -32.4841)" stroke="url(#paint0_linear_134_26)" stroke-width="5"/>
<rect x="883" y="695.827" width="580" height="273.616" transform="rotate(-35.26 883 695.827)" fill="url(#paint1_linear_134_26)"/>
<circle cx="882.5" cy="724.5" r="193" stroke="url(#paint2_linear_134_26)" stroke-width="3"/>
<path opacity="0.49" d="M415 58.3636C414.121 58.3636 413.367 58.0568 412.739 57.4432C412.117 56.822 411.811 56.0682 411.818 55.1818C411.811 54.3182 412.117 53.5795 412.739 52.9659C413.367 52.3523 414.121 52.0455 415 52.0455C415.833 52.0455 416.568 52.3523 417.205 52.9659C417.848 53.5795 418.174 54.3182 418.182 55.1818C418.174 55.7727 418.019 56.3106 417.716 56.7955C417.42 57.2727 417.034 57.6553 416.557 57.9432C416.08 58.2235 415.561 58.3636 415 58.3636ZM459.003 58.3636C458.124 58.3636 457.37 58.0568 456.741 57.4432C456.12 56.822 455.813 56.0682 455.821 55.1818C455.813 54.3182 456.12 53.5795 456.741 52.9659C457.37 52.3523 458.124 52.0455 459.003 52.0455C459.836 52.0455 460.571 52.3523 461.207 52.9659C461.851 53.5795 462.177 54.3182 462.184 55.1818C462.177 55.7727 462.021 56.3106 461.718 56.7955C461.423 57.2727 461.037 57.6553 460.559 57.9432C460.082 58.2235 459.563 58.3636 459.003 58.3636ZM503.005 58.3636C502.126 58.3636 501.372 58.0568 500.744 57.4432C500.122 56.822 499.816 56.0682 499.823 55.1818C499.816 54.3182 500.122 53.5795 500.744 52.9659C501.372 52.3523 502.126 52.0455 503.005 52.0455C503.838 52.0455 504.573 52.3523 505.21 52.9659C505.853 53.5795 506.179 54.3182 506.187 55.1818C506.179 55.7727 506.024 56.3106 505.721 56.7955C505.425 57.2727 505.039 57.6553 504.562 57.9432C504.085 58.2235 503.566 58.3636 503.005 58.3636ZM547.008 58.3636C546.129 58.3636 545.375 58.0568 544.746 57.4432C544.125 56.822 543.818 56.0682 543.826 55.1818C543.818 54.3182 544.125 53.5795 544.746 52.9659C545.375 52.3523 546.129 52.0455 547.008 52.0455C547.841 52.0455 548.576 52.3523 549.212 52.9659C549.856 53.5795 550.182 54.3182 550.189 55.1818C550.182 55.7727 550.026 56.3106 549.723 56.7955C549.428 57.2727 549.042 57.6553 548.564 57.9432C548.087 58.2235 547.568 58.3636 547.008 58.3636ZM415 91.3636C414.121 91.3636 413.367 91.0568 412.739 90.4432C412.117 89.822 411.811 89.0682 411.818 88.1818C411.811 87.3182 412.117 86.5795 412.739 85.9659C413.367 85.3523 414.121 85.0455 415 85.0455C415.833 85.0455 416.568 85.3523 417.205 85.9659C417.848 86.5795 418.174 87.3182 418.182 88.1818C418.174 88.7727 418.019 89.3106 417.716 89.7955C417.42 90.2727 417.034 90.6553 416.557 90.9432C416.08 91.2235 415.561 91.3636 415 91.3636ZM459.003 91.3636C458.124 91.3636 457.37 91.0568 456.741 90.4432C456.12 89.822 455.813 89.0682 455.821 88.1818C455.813 87.3182 456.12 86.5795 456.741 85.9659C457.37 85.3523 458.124 85.0455 459.003 85.0455C459.836 85.0455 460.571 85.3523 461.207 85.9659C461.851 86.5795 462.177 87.3182 462.184 88.1818C462.177 88.7727 462.021 89.3106 461.718 89.7955C461.423 90.2727 461.037 90.6553 460.559 90.9432C460.082 91.2235 459.563 91.3636 459.003 91.3636ZM503.005 91.3636C502.126 91.3636 501.372 91.0568 500.744 90.4432C500.122 89.822 499.816 89.0682 499.823 88.1818C499.816 87.3182 500.122 86.5795 500.744 85.9659C501.372 85.3523 502.126 85.0455 503.005 85.0455C503.838 85.0455 504.573 85.3523 505.21 85.9659C505.853 86.5795 506.179 87.3182 506.187 88.1818C506.179 88.7727 506.024 89.3106 505.721 89.7955C505.425 90.2727 505.039 90.6553 504.562 90.9432C504.085 91.2235 503.566 91.3636 503.005 91.3636ZM547.008 91.3636C546.129 91.3636 545.375 91.0568 544.746 90.4432C544.125 89.822 543.818 89.0682 543.826 88.1818C543.818 87.3182 544.125 86.5795 544.746 85.9659C545.375 85.3523 546.129 85.0455 547.008 85.0455C547.841 85.0455 548.576 85.3523 549.212 85.9659C549.856 86.5795 550.182 87.3182 550.189 88.1818C550.182 88.7727 550.026 89.3106 549.723 89.7955C549.428 90.2727 549.042 90.6553 548.564 90.9432C548.087 91.2235 547.568 91.3636 547.008 91.3636ZM415 124.364C414.121 124.364 413.367 124.057 412.739 123.443C412.117 122.822 411.811 122.068 411.818 121.182C411.811 120.318 412.117 119.58 412.739 118.966C413.367 118.352 414.121 118.045 415 118.045C415.833 118.045 416.568 118.352 417.205 118.966C417.848 119.58 418.174 120.318 418.182 121.182C418.174 121.773 418.019 122.311 417.716 122.795C417.42 123.273 417.034 123.655 416.557 123.943C416.08 124.223 415.561 124.364 415 124.364ZM459.003 124.364C458.124 124.364 457.37 124.057 456.741 123.443C456.12 122.822 455.813 122.068 455.821 121.182C455.813 120.318 456.12 119.58 456.741 118.966C457.37 118.352 458.124 118.045 459.003 118.045C459.836 118.045 460.571 118.352 461.207 118.966C461.851 119.58 462.177 120.318 462.184 121.182C462.177 121.773 462.021 122.311 461.718 122.795C461.423 123.273 461.037 123.655 460.559 123.943C460.082 124.223 459.563 124.364 459.003 124.364ZM503.005 124.364C502.126 124.364 501.372 124.057 500.744 123.443C500.122 122.822 499.816 122.068 499.823 121.182C499.816 120.318 500.122 119.58 500.744 118.966C501.372 118.352 502.126 118.045 503.005 118.045C503.838 118.045 504.573 118.352 505.21 118.966C505.853 119.58 506.179 120.318 506.187 121.182C506.179 121.773 506.024 122.311 505.721 122.795C505.425 123.273 505.039 123.655 504.562 123.943C504.085 124.223 503.566 124.364 503.005 124.364ZM547.008 124.364C546.129 124.364 545.375 124.057 544.746 123.443C544.125 122.822 543.818 122.068 543.826 121.182C543.818 120.318 544.125 119.58 544.746 118.966C545.375 118.352 546.129 118.045 547.008 118.045C547.841 118.045 548.576 118.352 549.212 118.966C549.856 119.58 550.182 120.318 550.189 121.182C550.182 121.773 550.026 122.311 549.723 122.795C549.428 123.273 549.042 123.655 548.564 123.943C548.087 124.223 547.568 124.364 547.008 124.364ZM415 157.364C414.121 157.364 413.367 157.057 412.739 156.443C412.117 155.822 411.811 155.068 411.818 154.182C411.811 153.318 412.117 152.58 412.739 151.966C413.367 151.352 414.121 151.045 415 151.045C415.833 151.045 416.568 151.352 417.205 151.966C417.848 152.58 418.174 153.318 418.182 154.182C418.174 154.773 418.019 155.311 417.716 155.795C417.42 156.273 417.034 156.655 416.557 156.943C416.08 157.223 415.561 157.364 415 157.364ZM459.003 157.364C458.124 157.364 457.37 157.057 456.741 156.443C456.12 155.822 455.813 155.068 455.821 154.182C455.813 153.318 456.12 152.58 456.741 151.966C457.37 151.352 458.124 151.045 459.003 151.045C459.836 151.045 460.571 151.352 461.207 151.966C461.851 152.58 462.177 153.318 462.184 154.182C462.177 154.773 462.021 155.311 461.718 155.795C461.423 156.273 461.037 156.655 460.559 156.943C460.082 157.223 459.563 157.364 459.003 157.364ZM503.005 157.364C502.126 157.364 501.372 157.057 500.744 156.443C500.122 155.822 499.816 155.068 499.823 154.182C499.816 153.318 500.122 152.58 500.744 151.966C501.372 151.352 502.126 151.045 503.005 151.045C503.838 151.045 504.573 151.352 505.21 151.966C505.853 152.58 506.179 153.318 506.187 154.182C506.179 154.773 506.024 155.311 505.721 155.795C505.425 156.273 505.039 156.655 504.562 156.943C504.085 157.223 503.566 157.364 503.005 157.364ZM547.008 157.364C546.129 157.364 545.375 157.057 544.746 156.443C544.125 155.822 543.818 155.068 543.826 154.182C543.818 153.318 544.125 152.58 544.746 151.966C545.375 151.352 546.129 151.045 547.008 151.045C547.841 151.045 548.576 151.352 549.212 151.966C549.856 152.58 550.182 153.318 550.189 154.182C550.182 154.773 550.026 155.311 549.723 155.795C549.428 156.273 549.042 156.655 548.564 156.943C548.087 157.223 547.568 157.364 547.008 157.364Z" fill="url(#paint3_linear_134_26)"/>
<mask id="path-5-outside-1_134_26" maskUnits="userSpaceOnUse" x="303" y="262" width="587" height="106" fill="black">
<rect fill="white" x="303" y="262" width="587" height="106"/>
<path d="M338.074 361L310.619 267.909H338.801L351.528 325.182H352.256L367.347 267.909H389.528L404.619 325.364H405.347L418.074 267.909H446.256L418.801 361H394.619L378.801 309H378.074L362.256 361H338.074ZM480.131 362.273C472.676 362.273 466.252 360.848 460.858 358C455.494 355.121 451.358 351 448.449 345.636C445.57 340.242 444.131 333.788 444.131 326.273C444.131 319.061 445.585 312.758 448.494 307.364C451.403 301.97 455.509 297.773 460.812 294.773C466.116 291.773 472.373 290.273 479.585 290.273C484.858 290.273 489.631 291.091 493.903 292.727C498.176 294.364 501.828 296.742 504.858 299.864C507.888 302.955 510.222 306.712 511.858 311.136C513.494 315.561 514.312 320.545 514.312 326.091V331.909H451.949V318.091H491.222C491.191 316.091 490.676 314.333 489.676 312.818C488.706 311.273 487.388 310.076 485.722 309.227C484.085 308.348 482.222 307.909 480.131 307.909C478.1 307.909 476.237 308.348 474.54 309.227C472.843 310.076 471.479 311.258 470.449 312.773C469.449 314.288 468.919 316.061 468.858 318.091V333C468.858 335.242 469.328 337.242 470.267 339C471.206 340.758 472.555 342.136 474.312 343.136C476.07 344.136 478.191 344.636 480.676 344.636C482.403 344.636 483.979 344.394 485.403 343.909C486.858 343.424 488.1 342.727 489.131 341.818C490.161 340.879 490.919 339.758 491.403 338.455H514.312C513.525 343.303 511.661 347.515 508.722 351.091C505.782 354.636 501.888 357.394 497.04 359.364C492.222 361.303 486.585 362.273 480.131 362.273ZM524.188 361V267.909H549.278V303.364H549.642C550.551 301 551.884 298.833 553.642 296.864C555.4 294.864 557.581 293.273 560.188 292.091C562.794 290.879 565.824 290.273 569.278 290.273C573.884 290.273 578.263 291.5 582.415 293.955C586.597 296.409 589.991 300.273 592.597 305.545C595.233 310.818 596.551 317.667 596.551 326.091C596.551 334.152 595.294 340.833 592.778 346.136C590.294 351.439 586.96 355.394 582.778 358C578.627 360.606 574.066 361.909 569.097 361.909C565.824 361.909 562.9 361.379 560.324 360.318C557.778 359.227 555.597 357.758 553.778 355.909C551.991 354.03 550.612 351.909 549.642 349.545H549.097V361H524.188ZM548.733 326.091C548.733 329.485 549.172 332.424 550.051 334.909C550.96 337.364 552.233 339.273 553.869 340.636C555.536 341.97 557.521 342.636 559.824 342.636C562.127 342.636 564.081 341.985 565.688 340.682C567.324 339.348 568.566 337.455 569.415 335C570.294 332.515 570.733 329.545 570.733 326.091C570.733 322.636 570.294 319.682 569.415 317.227C568.566 314.742 567.324 312.848 565.688 311.545C564.081 310.212 562.127 309.545 559.824 309.545C557.521 309.545 555.536 310.212 553.869 311.545C552.233 312.848 550.96 314.742 550.051 317.227C549.172 319.682 548.733 322.636 548.733 326.091ZM670.551 267.909H695.46V331.727C695.43 337.788 693.9 343.121 690.869 347.727C687.869 352.303 683.718 355.879 678.415 358.455C673.142 361 667.066 362.273 660.188 362.273C654.218 362.273 648.763 361.242 643.824 359.182C638.884 357.091 634.945 353.818 632.006 349.364C629.066 344.879 627.612 339.061 627.642 331.909H652.915C653.006 334.242 653.4 336.212 654.097 337.818C654.824 339.424 655.824 340.636 657.097 341.455C658.4 342.242 659.975 342.636 661.824 342.636C663.703 342.636 665.278 342.227 666.551 341.409C667.854 340.591 668.839 339.379 669.506 337.773C670.172 336.136 670.521 334.121 670.551 331.727V267.909ZM727.256 362.091C722.801 362.091 718.862 361.364 715.438 359.909C712.044 358.424 709.377 356.182 707.438 353.182C705.498 350.182 704.528 346.364 704.528 341.727C704.528 337.909 705.18 334.652 706.483 331.955C707.786 329.227 709.604 327 711.938 325.273C714.271 323.545 716.983 322.227 720.074 321.318C723.195 320.409 726.559 319.818 730.165 319.545C734.074 319.242 737.21 318.879 739.574 318.455C741.968 318 743.695 317.379 744.756 316.591C745.816 315.773 746.347 314.697 746.347 313.364V313.182C746.347 311.364 745.65 309.97 744.256 309C742.862 308.03 741.074 307.545 738.892 307.545C736.498 307.545 734.544 308.076 733.028 309.136C731.544 310.167 730.65 311.758 730.347 313.909H707.256C707.559 309.667 708.907 305.758 711.301 302.182C713.725 298.576 717.256 295.697 721.892 293.545C726.528 291.364 732.316 290.273 739.256 290.273C744.256 290.273 748.741 290.864 752.71 292.045C756.68 293.197 760.059 294.818 762.847 296.909C765.634 298.97 767.756 301.394 769.21 304.182C770.695 306.939 771.438 309.939 771.438 313.182V361H747.983V351.182H747.438C746.044 353.788 744.347 355.894 742.347 357.5C740.377 359.106 738.119 360.273 735.574 361C733.059 361.727 730.286 362.091 727.256 362.091ZM735.438 346.273C737.347 346.273 739.134 345.879 740.801 345.091C742.498 344.303 743.877 343.167 744.938 341.682C745.998 340.197 746.528 338.394 746.528 336.273V330.455C745.862 330.727 745.15 330.985 744.392 331.227C743.665 331.47 742.877 331.697 742.028 331.909C741.21 332.121 740.331 332.318 739.392 332.5C738.483 332.682 737.528 332.848 736.528 333C734.589 333.303 732.998 333.803 731.756 334.5C730.544 335.167 729.634 336 729.028 337C728.453 337.97 728.165 339.061 728.165 340.273C728.165 342.212 728.847 343.697 730.21 344.727C731.574 345.758 733.316 346.273 735.438 346.273ZM802.881 362.091C798.426 362.091 794.487 361.364 791.062 359.909C787.669 358.424 785.002 356.182 783.062 353.182C781.123 350.182 780.153 346.364 780.153 341.727C780.153 337.909 780.805 334.652 782.108 331.955C783.411 329.227 785.229 327 787.562 325.273C789.896 323.545 792.608 322.227 795.699 321.318C798.82 320.409 802.184 319.818 805.79 319.545C809.699 319.242 812.835 318.879 815.199 318.455C817.593 318 819.32 317.379 820.381 316.591C821.441 315.773 821.972 314.697 821.972 313.364V313.182C821.972 311.364 821.275 309.97 819.881 309C818.487 308.03 816.699 307.545 814.517 307.545C812.123 307.545 810.169 308.076 808.653 309.136C807.169 310.167 806.275 311.758 805.972 313.909H782.881C783.184 309.667 784.532 305.758 786.926 302.182C789.35 298.576 792.881 295.697 797.517 293.545C802.153 291.364 807.941 290.273 814.881 290.273C819.881 290.273 824.366 290.864 828.335 292.045C832.305 293.197 835.684 294.818 838.472 296.909C841.259 298.97 843.381 301.394 844.835 304.182C846.32 306.939 847.062 309.939 847.062 313.182V361H823.608V351.182H823.062C821.669 353.788 819.972 355.894 817.972 357.5C816.002 359.106 813.744 360.273 811.199 361C808.684 361.727 805.911 362.091 802.881 362.091ZM811.062 346.273C812.972 346.273 814.759 345.879 816.426 345.091C818.123 344.303 819.502 343.167 820.562 341.682C821.623 340.197 822.153 338.394 822.153 336.273V330.455C821.487 330.727 820.775 330.985 820.017 331.227C819.29 331.47 818.502 331.697 817.653 331.909C816.835 332.121 815.956 332.318 815.017 332.5C814.108 332.682 813.153 332.848 812.153 333C810.214 333.303 808.623 333.803 807.381 334.5C806.169 335.167 805.259 336 804.653 337C804.078 337.97 803.79 339.061 803.79 340.273C803.79 342.212 804.472 343.697 805.835 344.727C807.199 345.758 808.941 346.273 811.062 346.273ZM884.142 267.909V361H859.051V267.909H884.142Z"/>
</mask>
<path d="M338.074 361L333.278 362.414L334.336 366H338.074V361ZM310.619 267.909V262.909H303.932L305.824 269.323L310.619 267.909ZM338.801 267.909L343.682 266.824L342.812 262.909H338.801V267.909ZM351.528 325.182L346.647 326.266L347.518 330.182H351.528V325.182ZM352.256 325.182V330.182H356.109L357.091 326.456L352.256 325.182ZM367.347 267.909V262.909H363.493L362.512 266.635L367.347 267.909ZM389.528 267.909L394.364 266.639L393.385 262.909H389.528V267.909ZM404.619 325.364L399.783 326.634L400.763 330.364H404.619V325.364ZM405.347 325.364V330.364H409.36L410.228 326.445L405.347 325.364ZM418.074 267.909V262.909H414.06L413.192 266.828L418.074 267.909ZM446.256 267.909L451.051 269.323L452.943 262.909H446.256V267.909ZM418.801 361V366H422.539L423.597 362.414L418.801 361ZM394.619 361L389.836 362.455L390.914 366H394.619V361ZM378.801 309L383.585 307.545L382.506 304H378.801V309ZM378.074 309V304H374.369L373.29 307.545L378.074 309ZM362.256 361V366H365.961L367.039 362.455L362.256 361ZM342.87 359.586L315.415 266.495L305.824 269.323L333.278 362.414L342.87 359.586ZM310.619 272.909H338.801V262.909H310.619V272.909ZM333.92 268.994L346.647 326.266L356.409 324.097L343.682 266.824L333.92 268.994ZM351.528 330.182H352.256V320.182H351.528V330.182ZM357.091 326.456L372.182 269.183L362.512 266.635L347.421 323.908L357.091 326.456ZM367.347 272.909H389.528V262.909H367.347V272.909ZM384.692 269.179L399.783 326.634L409.455 324.093L394.364 266.639L384.692 269.179ZM404.619 330.364H405.347V320.364H404.619V330.364ZM410.228 326.445L422.956 268.99L413.192 266.828L400.465 324.282L410.228 326.445ZM418.074 272.909H446.256V262.909H418.074V272.909ZM441.46 266.495L414.005 359.586L423.597 362.414L451.051 269.323L441.46 266.495ZM418.801 356H394.619V366H418.801V356ZM399.403 359.545L383.585 307.545L374.018 310.455L389.836 362.455L399.403 359.545ZM378.801 304H378.074V314H378.801V304ZM373.29 307.545L357.472 359.545L367.039 362.455L382.857 310.455L373.29 307.545ZM362.256 356H338.074V366H362.256V356ZM460.858 358L458.493 362.406L458.508 362.413L458.523 362.421L460.858 358ZM448.449 345.636L444.038 347.991L444.046 348.005L444.054 348.02L448.449 345.636ZM448.494 307.364L452.895 309.737L448.494 307.364ZM460.812 294.773L463.274 299.125L460.812 294.773ZM493.903 292.727L495.692 288.058V288.058L493.903 292.727ZM504.858 299.864L501.271 303.347L501.279 303.355L501.288 303.364L504.858 299.864ZM511.858 311.136L507.168 312.871L511.858 311.136ZM514.312 331.909V336.909H519.312V331.909H514.312ZM451.949 331.909H446.949V336.909H451.949V331.909ZM451.949 318.091V313.091H446.949V318.091H451.949ZM491.222 318.091V323.091H496.298L496.221 318.015L491.222 318.091ZM489.676 312.818L485.441 315.476L485.471 315.524L485.503 315.572L489.676 312.818ZM485.722 309.227L483.356 313.632L483.404 313.658L483.453 313.683L485.722 309.227ZM474.54 309.227L476.776 313.699L476.808 313.684L476.839 313.667L474.54 309.227ZM470.449 312.773L466.314 309.961L466.295 309.99L466.276 310.019L470.449 312.773ZM468.858 318.091L463.86 317.942L463.858 318.016V318.091H468.858ZM470.267 339L465.857 341.357L470.267 339ZM474.312 343.136L471.84 347.482L474.312 343.136ZM485.403 343.909L483.822 339.166L483.807 339.171L483.792 339.176L485.403 343.909ZM489.131 341.818L492.439 345.567L492.469 345.54L492.499 345.513L489.131 341.818ZM491.403 338.455V333.455H487.929L486.717 336.711L491.403 338.455ZM514.312 338.455L519.248 339.257L520.191 333.455H514.312V338.455ZM508.722 351.091L512.571 354.282L512.577 354.274L512.584 354.266L508.722 351.091ZM497.04 359.364L498.907 364.002L498.914 363.999L498.922 363.996L497.04 359.364ZM480.131 357.273C473.311 357.273 467.724 355.972 463.193 353.579L458.523 362.421C464.779 365.725 472.041 367.273 480.131 367.273V357.273ZM463.223 353.594C458.721 351.178 455.289 347.761 452.844 343.253L444.054 348.02C447.427 354.239 452.268 359.064 458.493 362.406L463.223 353.594ZM452.86 343.282C450.447 338.761 449.131 333.152 449.131 326.273H439.131C439.131 334.423 440.693 341.724 444.038 347.991L452.86 343.282ZM449.131 326.273C449.131 319.742 450.444 314.283 452.895 309.737L444.094 304.99C440.727 311.232 439.131 318.379 439.131 326.273H449.131ZM452.895 309.737C455.36 305.167 458.796 301.658 463.274 299.125L458.351 290.421C452.223 293.887 447.447 298.772 444.094 304.99L452.895 309.737ZM463.274 299.125C467.699 296.621 473.077 295.273 479.585 295.273V285.273C471.669 285.273 464.532 286.924 458.351 290.421L463.274 299.125ZM479.585 295.273C484.339 295.273 488.493 296.009 492.115 297.397L495.692 288.058C490.768 286.172 485.377 285.273 479.585 285.273V295.273ZM492.115 297.397C495.745 298.787 498.773 300.774 501.271 303.347L508.445 296.381C504.883 292.711 500.607 289.941 495.692 288.058L492.115 297.397ZM501.288 303.364C503.782 305.908 505.754 309.048 507.168 312.871L516.547 309.402C514.689 304.377 511.995 300.001 508.428 296.363L501.288 303.364ZM507.168 312.871C508.567 316.652 509.312 321.036 509.312 326.091H519.312C519.312 320.055 518.422 314.469 516.547 309.402L507.168 312.871ZM509.312 326.091V331.909H519.312V326.091H509.312ZM514.312 326.909H451.949V336.909H514.312V326.909ZM456.949 331.909V318.091H446.949V331.909H456.949ZM451.949 323.091H491.222V313.091H451.949V323.091ZM496.221 318.015C496.178 315.162 495.427 312.455 493.849 310.064L485.503 315.572C485.925 316.212 486.205 317.019 486.222 318.167L496.221 318.015ZM493.911 310.161C492.448 307.829 490.442 306.02 487.99 304.771L483.453 313.683C484.335 314.132 484.964 314.716 485.441 315.476L493.911 310.161ZM488.087 304.822C485.636 303.506 482.942 302.909 480.131 302.909V312.909C481.501 312.909 482.534 313.191 483.356 313.632L488.087 304.822ZM480.131 302.909C477.352 302.909 474.692 303.518 472.24 304.787L476.839 313.667C477.781 313.179 478.849 312.909 480.131 312.909V302.909ZM472.304 304.755C469.871 305.972 467.843 307.714 466.314 309.961L474.583 315.584C475.116 314.801 475.815 314.18 476.776 313.699L472.304 304.755ZM466.276 310.019C464.705 312.398 463.945 315.097 463.86 317.942L473.856 318.24C473.892 317.024 474.192 316.178 474.622 315.527L466.276 310.019ZM463.858 318.091V333H473.858V318.091H463.858ZM463.858 333C463.858 335.96 464.484 338.787 465.857 341.357L474.677 336.643C474.171 335.697 473.858 334.525 473.858 333H463.858ZM465.857 341.357C467.249 343.96 469.275 346.023 471.84 347.482L476.785 338.791C475.835 338.25 475.164 337.555 474.677 336.643L465.857 341.357ZM471.84 347.482C474.505 348.999 477.521 349.636 480.676 349.636V339.636C478.861 339.636 477.635 339.274 476.785 338.791L471.84 347.482ZM480.676 349.636C482.872 349.636 485.001 349.328 487.015 348.642L483.792 339.176C482.957 339.46 481.935 339.636 480.676 339.636V349.636ZM486.985 348.653C489.002 347.98 490.85 346.969 492.439 345.567L485.823 338.069C485.351 338.485 484.714 338.868 483.822 339.166L486.985 348.653ZM492.499 345.513C494.116 344.039 495.326 342.249 496.09 340.198L486.717 336.711C486.511 337.266 486.206 337.719 485.762 338.123L492.499 345.513ZM491.403 343.455H514.312V333.455H491.403V343.455ZM509.377 337.653C508.722 341.685 507.203 345.065 504.859 347.916L512.584 354.266C516.119 349.966 518.327 344.922 519.248 339.257L509.377 337.653ZM504.872 347.9C502.528 350.728 499.347 353.029 495.158 354.731L498.922 363.996C504.429 361.758 509.036 358.545 512.571 354.282L504.872 347.9ZM495.173 354.725C491.073 356.376 486.096 357.273 480.131 357.273V367.273C487.075 367.273 493.37 366.231 498.907 364.002L495.173 354.725ZM524.188 361H519.188V366H524.188V361ZM524.188 267.909V262.909H519.188V267.909H524.188ZM549.278 267.909H554.278V262.909H549.278V267.909ZM549.278 303.364H544.278V308.364H549.278V303.364ZM549.642 303.364V308.364H553.076L554.309 305.159L549.642 303.364ZM553.642 296.864L557.373 300.193L557.385 300.178L557.398 300.164L553.642 296.864ZM560.188 292.091L562.253 296.645L562.274 296.635L562.296 296.625L560.188 292.091ZM582.415 293.955L579.87 298.259L579.877 298.263L579.884 298.267L582.415 293.955ZM592.597 305.545L588.114 307.761L588.119 307.771L588.124 307.782L592.597 305.545ZM592.778 346.136L588.261 343.994L588.256 344.004L588.251 344.015L592.778 346.136ZM582.778 358L580.134 353.757L580.127 353.761L580.12 353.765L582.778 358ZM560.324 360.318L558.354 364.914L558.387 364.928L558.42 364.942L560.324 360.318ZM553.778 355.909L550.156 359.356L550.185 359.386L550.214 359.415L553.778 355.909ZM549.642 349.545L554.268 347.648L552.995 344.545H549.642V349.545ZM549.097 349.545V344.545H544.097V349.545H549.097ZM549.097 361V366H554.097V361H549.097ZM550.051 334.909L545.337 336.576L545.35 336.611L545.362 336.646L550.051 334.909ZM553.869 340.636L550.668 344.477L550.707 344.509L550.746 344.541L553.869 340.636ZM565.688 340.682L568.838 344.565L568.846 344.558L565.688 340.682ZM569.415 335L564.701 333.333L564.695 333.35L564.689 333.366L569.415 335ZM569.415 317.227L564.683 318.843L564.695 318.878L564.707 318.913L569.415 317.227ZM565.688 311.545L562.494 315.392L562.533 315.425L562.573 315.457L565.688 311.545ZM553.869 311.545L556.984 315.457L556.993 315.45L553.869 311.545ZM550.051 317.227L545.356 315.509L545.35 315.526L545.344 315.542L550.051 317.227ZM529.188 361V267.909H519.188V361H529.188ZM524.188 272.909H549.278V262.909H524.188V272.909ZM544.278 267.909V303.364H554.278V267.909H544.278ZM549.278 308.364H549.642V298.364H549.278V308.364ZM554.309 305.159C554.992 303.382 556 301.731 557.373 300.193L549.911 293.535C547.769 295.936 546.11 298.618 544.975 301.569L554.309 305.159ZM557.398 300.164C558.653 298.736 560.244 297.556 562.253 296.645L558.122 287.537C554.919 288.99 552.146 290.991 549.886 293.563L557.398 300.164ZM562.296 296.625C564.122 295.775 566.408 295.273 569.278 295.273V285.273C565.24 285.273 561.465 285.982 558.079 287.557L562.296 296.625ZM569.278 295.273C572.946 295.273 576.451 296.237 579.87 298.259L584.959 289.651C580.075 286.763 574.823 285.273 569.278 285.273V295.273ZM579.884 298.267C583.06 300.131 585.847 303.174 588.114 307.761L597.079 303.33C594.134 297.371 590.133 292.687 584.946 289.642L579.884 298.267ZM588.124 307.782C590.297 312.127 591.551 318.132 591.551 326.091H601.551C601.551 317.201 600.169 309.509 597.069 303.309L588.124 307.782ZM591.551 326.091C591.551 333.671 590.363 339.562 588.261 343.994L597.296 348.279C600.224 342.105 601.551 334.632 601.551 326.091H591.551ZM588.251 344.015C586.097 348.611 583.352 351.751 580.134 353.757L585.423 362.243C590.568 359.037 594.49 354.268 597.306 348.258L588.251 344.015ZM580.12 353.765C576.777 355.864 573.14 356.909 569.097 356.909V366.909C574.993 366.909 580.477 365.348 585.437 362.235L580.12 353.765ZM569.097 356.909C566.365 356.909 564.104 356.467 562.228 355.695L558.42 364.942C561.696 366.29 565.283 366.909 569.097 366.909V356.909ZM562.293 355.722C560.304 354.87 558.675 353.757 557.343 352.403L550.214 359.415C552.518 361.758 555.253 363.585 558.354 364.914L562.293 355.722ZM557.4 352.462C556.034 351.026 554.998 349.428 554.268 347.648L545.016 351.443C546.225 354.39 547.947 357.035 550.156 359.356L557.4 352.462ZM549.642 344.545H549.097V354.545H549.642V344.545ZM544.097 349.545V361H554.097V349.545H544.097ZM549.097 356H524.188V366H549.097V356ZM543.733 326.091C543.733 329.898 544.223 333.427 545.337 336.576L554.765 333.242C554.121 331.422 553.733 329.072 553.733 326.091H543.733ZM545.362 336.646C546.506 339.733 548.223 342.44 550.668 344.477L557.07 336.795C556.243 336.106 555.414 334.994 554.74 333.173L545.362 336.646ZM550.746 344.541C553.371 346.641 556.481 347.636 559.824 347.636V337.636C558.56 337.636 557.701 337.298 556.993 336.732L550.746 344.541ZM559.824 347.636C563.136 347.636 566.239 346.673 568.838 344.565L562.537 336.799C561.924 337.297 561.118 337.636 559.824 337.636V347.636ZM568.846 344.558C571.353 342.515 573.058 339.764 574.14 336.634L564.689 333.366C564.074 335.145 563.295 336.182 562.529 336.806L568.846 344.558ZM574.129 336.667C575.245 333.51 575.733 329.947 575.733 326.091H565.733C565.733 329.144 565.342 331.521 564.701 333.333L574.129 336.667ZM575.733 326.091C575.733 322.238 575.246 318.681 574.122 315.542L564.707 318.913C565.341 320.683 565.733 323.035 565.733 326.091H575.733ZM574.147 315.612C573.068 312.453 571.355 309.667 568.802 307.634L562.573 315.457C563.292 316.03 564.065 317.032 564.683 318.843L574.147 315.612ZM568.881 307.698C566.283 305.542 563.165 304.545 559.824 304.545V314.545C561.089 314.545 561.879 314.883 562.494 315.392L568.881 307.698ZM559.824 304.545C556.481 304.545 553.371 305.541 550.746 307.641L556.993 315.45C557.701 314.883 558.56 314.545 559.824 314.545V304.545ZM550.755 307.634C548.232 309.643 546.497 312.388 545.356 315.509L554.747 318.945C555.423 317.097 556.233 316.054 556.984 315.457L550.755 307.634ZM545.344 315.542C544.22 318.681 543.733 322.238 543.733 326.091H553.733C553.733 323.035 554.125 320.683 554.759 318.913L545.344 315.542ZM670.551 267.909V262.909H665.551V267.909H670.551ZM695.46 267.909H700.46V262.909H695.46V267.909ZM695.46 331.727L700.46 331.752L700.46 331.74V331.727H695.46ZM690.869 347.727L686.692 344.979L686.688 344.986L690.869 347.727ZM678.415 358.455L680.589 362.957L680.599 362.952L678.415 358.455ZM643.824 359.182L641.875 363.786L641.887 363.791L641.899 363.796L643.824 359.182ZM632.006 349.364L627.824 352.104L627.828 352.111L627.832 352.117L632.006 349.364ZM627.642 331.909V326.909H622.663L622.642 331.888L627.642 331.909ZM652.915 331.909L657.911 331.714L657.724 326.909H652.915V331.909ZM654.097 337.818L649.51 339.809L649.526 339.845L649.542 339.881L654.097 337.818ZM657.097 341.455L654.393 345.66L654.451 345.698L654.509 345.733L657.097 341.455ZM666.551 341.409L663.892 337.175L663.87 337.189L663.847 337.203L666.551 341.409ZM669.506 337.773L674.124 339.69L674.13 339.674L674.136 339.659L669.506 337.773ZM670.551 331.727L675.551 331.791L675.551 331.759V331.727H670.551ZM670.551 272.909H695.46V262.909H670.551V272.909ZM690.46 267.909V331.727H700.46V267.909H690.46ZM690.46 331.702C690.434 336.895 689.138 341.262 686.692 344.979L695.046 350.475C698.661 344.981 700.426 338.681 700.46 331.752L690.46 331.702ZM686.688 344.986C684.221 348.748 680.787 351.744 676.23 353.957L680.599 362.952C686.649 360.014 691.518 355.858 695.051 350.469L686.688 344.986ZM676.241 353.952C671.755 356.118 666.444 357.273 660.188 357.273V367.273C667.688 367.273 674.529 365.882 680.589 362.957L676.241 353.952ZM660.188 357.273C654.802 357.273 650.012 356.346 645.749 354.567L641.899 363.796C647.515 366.139 653.633 367.273 660.188 367.273V357.273ZM645.773 354.577C641.736 352.869 638.573 350.237 636.179 346.61L627.832 352.117C631.317 357.399 636.033 361.313 641.875 363.786L645.773 354.577ZM636.188 346.623C633.938 343.191 632.615 338.421 632.642 331.93L622.642 331.888C622.609 339.7 624.194 346.567 627.824 352.104L636.188 346.623ZM627.642 336.909H652.915V326.909H627.642V336.909ZM647.919 332.104C648.026 334.861 648.499 337.48 649.51 339.809L658.683 335.828C658.3 334.945 657.985 333.624 657.911 331.714L647.919 332.104ZM649.542 339.881C650.6 342.217 652.183 344.24 654.393 345.66L659.8 337.249C659.465 337.033 659.048 336.632 658.651 335.756L649.542 339.881ZM654.509 345.733C656.745 347.085 659.259 347.636 661.824 347.636V337.636C660.692 337.636 660.054 337.4 659.684 337.176L654.509 345.733ZM661.824 347.636C664.43 347.636 667.001 347.064 669.255 345.615L663.847 337.203C663.556 337.39 662.976 337.636 661.824 337.636V347.636ZM669.21 345.644C671.502 344.204 673.114 342.123 674.124 339.69L664.888 335.856C664.564 336.635 664.206 336.978 663.892 337.175L669.21 345.644ZM674.136 339.659C675.106 337.278 675.515 334.602 675.551 331.791L665.552 331.664C665.527 333.641 665.238 334.995 664.875 335.886L674.136 339.659ZM675.551 331.727V267.909H665.551V331.727H675.551ZM715.438 359.909L713.433 364.49L713.458 364.501L713.483 364.511L715.438 359.909ZM707.438 353.182L703.239 355.896L707.438 353.182ZM706.483 331.955L710.985 334.13L710.99 334.12L710.994 334.11L706.483 331.955ZM711.938 325.273L714.912 329.291L711.938 325.273ZM720.074 321.318L718.676 316.518L718.663 316.521L720.074 321.318ZM730.165 319.545L730.542 324.531L730.551 324.53L730.165 319.545ZM739.574 318.455L740.457 323.376L740.482 323.371L740.507 323.367L739.574 318.455ZM744.756 316.591L747.737 320.605L747.774 320.578L747.81 320.55L744.756 316.591ZM744.256 309L741.4 313.105L744.256 309ZM733.028 309.136L735.879 313.244L735.887 313.238L735.896 313.233L733.028 309.136ZM730.347 313.909V318.909H734.692L735.298 314.606L730.347 313.909ZM707.256 313.909L702.268 313.553L701.886 318.909H707.256V313.909ZM711.301 302.182L707.152 299.392L707.146 299.4L711.301 302.182ZM721.892 293.545L723.997 298.081L724.009 298.075L724.021 298.07L721.892 293.545ZM752.71 292.045L751.284 296.838L751.3 296.843L751.317 296.848L752.71 292.045ZM762.847 296.909L759.847 300.909L759.861 300.92L759.875 300.93L762.847 296.909ZM769.21 304.182L764.777 306.495L764.792 306.524L764.808 306.552L769.21 304.182ZM771.438 361V366H776.438V361H771.438ZM747.983 361H742.983V366H747.983V361ZM747.983 351.182H752.983V346.182H747.983V351.182ZM747.438 351.182V346.182H744.442L743.029 348.824L747.438 351.182ZM742.347 357.5L739.216 353.601L739.201 353.613L739.187 353.625L742.347 357.5ZM735.574 361L734.2 356.192L734.193 356.195L734.185 356.197L735.574 361ZM740.801 345.091L738.696 340.556L738.68 340.563L738.664 340.571L740.801 345.091ZM744.938 341.682L740.869 338.776L744.938 341.682ZM746.528 330.455H751.528V323.007L744.635 325.827L746.528 330.455ZM744.392 331.227L742.868 326.465L742.839 326.474L742.811 326.484L744.392 331.227ZM742.028 331.909L740.816 327.058L740.795 327.064L740.774 327.069L742.028 331.909ZM739.392 332.5L738.442 327.591L738.427 327.594L738.411 327.597L739.392 332.5ZM736.528 333L735.779 328.056L735.768 328.058L735.757 328.06L736.528 333ZM731.756 334.5L734.165 338.881L734.184 338.871L734.202 338.861L731.756 334.5ZM729.028 337L724.752 334.408L724.741 334.428L724.729 334.447L729.028 337ZM730.21 344.727L733.224 340.738L730.21 344.727ZM727.256 357.091C723.343 357.091 720.089 356.453 717.392 355.307L713.483 364.511C717.634 366.275 722.259 367.091 727.256 367.091V357.091ZM717.442 355.328C714.911 354.221 713.023 352.612 711.636 350.467L703.239 355.896C705.731 359.752 709.176 362.627 713.433 364.49L717.442 355.328ZM711.636 350.467C710.355 348.485 709.528 345.683 709.528 341.727H699.528C699.528 347.044 700.641 351.879 703.239 355.896L711.636 350.467ZM709.528 341.727C709.528 338.462 710.087 335.988 710.985 334.13L701.981 329.779C700.273 333.315 699.528 337.356 699.528 341.727H709.528ZM710.994 334.11C711.96 332.089 713.263 330.512 714.912 329.291L708.963 321.254C705.945 323.488 703.612 326.366 701.971 329.799L710.994 334.11ZM714.912 329.291C716.725 327.95 718.895 326.877 721.485 326.115L718.663 316.521C715.071 317.578 711.817 319.141 708.963 321.254L714.912 329.291ZM721.472 326.119C724.225 325.317 727.244 324.781 730.542 324.531L729.788 314.56C725.874 314.856 722.165 315.501 718.676 316.518L721.472 326.119ZM730.551 324.53C734.537 324.222 737.859 323.842 740.457 323.376L738.691 313.533C736.561 313.915 733.611 314.263 729.778 314.56L730.551 324.53ZM740.507 323.367C743.118 322.871 745.752 322.079 747.737 320.605L741.774 312.577C741.775 312.577 741.718 312.618 741.58 312.688C741.442 312.758 741.244 312.845 740.973 312.943C740.421 313.141 739.658 313.349 738.641 313.542L740.507 323.367ZM747.81 320.55C750.091 318.79 751.347 316.255 751.347 313.364H741.347C741.347 313.364 741.347 313.32 741.364 313.24C741.382 313.159 741.414 313.062 741.464 312.96C741.515 312.857 741.572 312.774 741.623 312.713C741.673 312.653 741.706 312.629 741.702 312.632L747.81 320.55ZM751.347 313.364V313.182H741.347V313.364H751.347ZM751.347 313.182C751.347 309.863 749.957 306.875 747.111 304.895L741.4 313.105C741.447 313.137 741.447 313.144 741.425 313.12C741.415 313.108 741.402 313.092 741.388 313.071C741.375 313.051 741.362 313.03 741.352 313.009C741.341 312.988 741.335 312.971 741.331 312.961C741.327 312.95 741.328 312.949 741.33 312.958C741.334 312.977 741.347 313.047 741.347 313.182H751.347ZM747.111 304.895C744.669 303.197 741.805 302.545 738.892 302.545V312.545C740.343 312.545 741.055 312.864 741.4 313.105L747.111 304.895ZM738.892 302.545C735.773 302.545 732.733 303.24 730.161 305.04L735.896 313.233C736.354 312.912 737.223 312.545 738.892 312.545V302.545ZM730.178 305.028C727.319 307.012 725.85 309.983 725.395 313.212L735.298 314.606C735.449 313.533 735.768 313.321 735.879 313.244L730.178 305.028ZM730.347 308.909H707.256V318.909H730.347V308.909ZM712.243 314.265C712.483 310.901 713.54 307.826 715.456 304.963L707.146 299.4C704.275 303.689 702.634 308.433 702.268 313.553L712.243 314.265ZM715.451 304.971C717.282 302.248 720.041 299.917 723.997 298.081L719.787 289.01C714.47 291.477 710.169 294.904 707.152 299.392L715.451 304.971ZM724.021 298.07C727.799 296.292 732.805 295.273 739.256 295.273V285.273C731.827 285.273 725.258 286.436 719.763 289.021L724.021 298.07ZM739.256 295.273C743.869 295.273 747.861 295.819 751.284 296.838L754.137 287.253C749.62 285.909 744.642 285.273 739.256 285.273V295.273ZM751.317 296.848C754.813 297.861 757.622 299.241 759.847 300.909L765.847 292.909C762.495 290.396 758.547 288.532 754.103 287.243L751.317 296.848ZM759.875 300.93C762.116 302.586 763.709 304.446 764.777 306.495L773.643 301.869C771.803 298.342 769.153 295.353 765.819 292.888L759.875 300.93ZM764.808 306.552C765.886 308.555 766.438 310.737 766.438 313.182H776.438C776.438 309.142 775.504 305.324 773.613 301.811L764.808 306.552ZM766.438 313.182V361H776.438V313.182H766.438ZM771.438 356H747.983V366H771.438V356ZM752.983 361V351.182H742.983V361H752.983ZM747.983 346.182H747.438V356.182H747.983V346.182ZM743.029 348.824C741.905 350.925 740.616 352.477 739.216 353.601L745.477 361.399C748.077 359.311 750.183 356.651 751.846 353.54L743.029 348.824ZM739.187 353.625C737.765 354.784 736.121 355.644 734.2 356.192L736.947 365.808C740.118 364.902 742.989 363.428 745.506 361.375L739.187 353.625ZM734.185 356.197C732.186 356.775 729.888 357.091 727.256 357.091V367.091C730.684 367.091 733.932 366.68 736.963 365.803L734.185 356.197ZM735.438 351.273C738.059 351.273 740.579 350.726 742.938 349.611L738.664 340.571C737.69 341.031 736.635 341.273 735.438 341.273V351.273ZM742.907 349.626C745.367 348.484 747.43 346.795 749.006 344.588L740.869 338.776C740.324 339.539 739.629 340.122 738.696 340.556L742.907 349.626ZM749.006 344.588C750.767 342.123 751.528 339.261 751.528 336.273H741.528C741.528 337.527 741.229 338.271 740.869 338.776L749.006 344.588ZM751.528 336.273V330.455H741.528V336.273H751.528ZM744.635 325.827C744.102 326.045 743.514 326.259 742.868 326.465L745.916 335.989C746.786 335.711 747.622 335.409 748.422 335.082L744.635 325.827ZM742.811 326.484C742.221 326.681 741.557 326.873 740.816 327.058L743.241 336.76C744.197 336.521 745.109 336.259 745.973 335.971L742.811 326.484ZM740.774 327.069C740.068 327.252 739.292 327.427 738.442 327.591L740.342 337.409C741.371 337.21 742.352 336.99 743.283 336.749L740.774 327.069ZM738.411 327.597C737.586 327.762 736.709 327.916 735.779 328.056L737.277 337.944C738.348 337.781 739.38 337.601 740.373 337.403L738.411 327.597ZM735.757 328.06C733.436 328.423 731.227 329.064 729.309 330.139L734.202 338.861C734.77 338.542 735.742 338.183 737.3 337.94L735.757 328.06ZM729.346 330.119C727.507 331.13 725.89 332.532 724.752 334.408L733.304 339.592C733.379 339.468 733.58 339.203 734.165 338.881L729.346 330.119ZM724.729 334.447C723.66 336.247 723.165 338.232 723.165 340.273H733.165C733.165 339.889 733.245 339.692 733.328 339.553L724.729 334.447ZM723.165 340.273C723.165 343.538 724.401 346.605 727.196 348.717L733.224 340.738C733.187 340.71 733.183 340.701 733.194 340.715C733.207 340.73 733.216 340.746 733.22 340.754C733.231 340.777 733.165 340.655 733.165 340.273H723.165ZM727.196 348.717C729.619 350.547 732.496 351.273 735.438 351.273V341.273C734.137 341.273 733.529 340.968 733.224 340.738L727.196 348.717ZM791.062 359.909L789.058 364.49L789.083 364.501L789.108 364.511L791.062 359.909ZM783.062 353.182L778.864 355.896L783.062 353.182ZM782.108 331.955L786.61 334.13L786.615 334.12L786.619 334.11L782.108 331.955ZM787.562 325.273L790.537 329.291L787.562 325.273ZM795.699 321.318L794.301 316.518L794.288 316.521L795.699 321.318ZM805.79 319.545L806.167 324.531L806.176 324.53L805.79 319.545ZM815.199 318.455L816.082 323.376L816.107 323.371L816.132 323.367L815.199 318.455ZM820.381 316.591L823.362 320.605L823.399 320.578L823.435 320.55L820.381 316.591ZM819.881 309L817.025 313.105L819.881 309ZM808.653 309.136L811.504 313.244L811.512 313.238L811.521 313.233L808.653 309.136ZM805.972 313.909V318.909H810.317L810.923 314.606L805.972 313.909ZM782.881 313.909L777.893 313.553L777.511 318.909H782.881V313.909ZM786.926 302.182L782.777 299.392L782.771 299.4L786.926 302.182ZM797.517 293.545L799.622 298.081L799.634 298.075L799.646 298.07L797.517 293.545ZM828.335 292.045L826.909 296.838L826.925 296.843L826.942 296.848L828.335 292.045ZM838.472 296.909L835.472 300.909L835.486 300.92L835.5 300.93L838.472 296.909ZM844.835 304.182L840.402 306.495L840.417 306.524L840.433 306.552L844.835 304.182ZM847.062 361V366H852.062V361H847.062ZM823.608 361H818.608V366H823.608V361ZM823.608 351.182H828.608V346.182H823.608V351.182ZM823.062 351.182V346.182H820.067L818.654 348.824L823.062 351.182ZM817.972 357.5L814.841 353.601L814.826 353.613L814.812 353.625L817.972 357.5ZM811.199 361L809.825 356.192L809.818 356.195L809.81 356.197L811.199 361ZM816.426 345.091L814.321 340.556L814.305 340.563L814.289 340.571L816.426 345.091ZM820.562 341.682L816.494 338.776L820.562 341.682ZM822.153 330.455H827.153V323.007L820.26 325.827L822.153 330.455ZM820.017 331.227L818.493 326.465L818.464 326.474L818.436 326.484L820.017 331.227ZM817.653 331.909L816.441 327.058L816.42 327.064L816.399 327.069L817.653 331.909ZM815.017 332.5L814.067 327.591L814.052 327.594L814.036 327.597L815.017 332.5ZM812.153 333L811.404 328.056L811.393 328.058L811.382 328.06L812.153 333ZM807.381 334.5L809.79 338.881L809.809 338.871L809.827 338.861L807.381 334.5ZM804.653 337L800.377 334.408L800.366 334.428L800.354 334.447L804.653 337ZM805.835 344.727L808.849 340.738L805.835 344.727ZM802.881 357.091C798.968 357.091 795.714 356.453 793.017 355.307L789.108 364.511C793.259 366.275 797.884 367.091 802.881 367.091V357.091ZM793.067 355.328C790.536 354.221 788.648 352.612 787.261 350.467L778.864 355.896C781.356 359.752 784.801 362.627 789.058 364.49L793.067 355.328ZM787.261 350.467C785.98 348.485 785.153 345.683 785.153 341.727H775.153C775.153 347.044 776.266 351.879 778.864 355.896L787.261 350.467ZM785.153 341.727C785.153 338.462 785.712 335.988 786.61 334.13L777.606 329.779C775.898 333.315 775.153 337.356 775.153 341.727H785.153ZM786.619 334.11C787.585 332.089 788.888 330.512 790.537 329.291L784.588 321.254C781.57 323.488 779.237 326.366 777.596 329.799L786.619 334.11ZM790.537 329.291C792.35 327.95 794.52 326.877 797.11 326.115L794.288 316.521C790.696 317.578 787.442 319.141 784.588 321.254L790.537 329.291ZM797.097 326.119C799.85 325.317 802.869 324.781 806.167 324.531L805.413 314.56C801.499 314.856 797.79 315.501 794.301 316.518L797.097 326.119ZM806.176 324.53C810.162 324.222 813.484 323.842 816.082 323.376L814.316 313.533C812.186 313.915 809.236 314.263 805.403 314.56L806.176 324.53ZM816.132 323.367C818.743 322.871 821.377 322.079 823.362 320.605L817.399 312.577C817.4 312.577 817.343 312.618 817.205 312.688C817.067 312.758 816.869 312.845 816.598 312.943C816.046 313.141 815.283 313.349 814.266 313.542L816.132 323.367ZM823.435 320.55C825.716 318.79 826.972 316.255 826.972 313.364H816.972C816.972 313.364 816.972 313.32 816.989 313.24C817.007 313.159 817.039 313.062 817.089 312.96C817.14 312.857 817.197 312.774 817.248 312.713C817.298 312.653 817.331 312.629 817.327 312.632L823.435 320.55ZM826.972 313.364V313.182H816.972V313.364H826.972ZM826.972 313.182C826.972 309.863 825.582 306.875 822.736 304.895L817.025 313.105C817.072 313.137 817.072 313.144 817.05 313.12C817.04 313.108 817.027 313.092 817.013 313.071C817 313.051 816.987 313.03 816.977 313.009C816.966 312.988 816.96 312.971 816.956 312.961C816.952 312.95 816.953 312.949 816.955 312.958C816.959 312.977 816.972 313.047 816.972 313.182H826.972ZM822.736 304.895C820.294 303.197 817.43 302.545 814.517 302.545V312.545C815.968 312.545 816.68 312.864 817.025 313.105L822.736 304.895ZM814.517 302.545C811.398 302.545 808.358 303.24 805.786 305.04L811.521 313.233C811.979 312.912 812.848 312.545 814.517 312.545V302.545ZM805.803 305.028C802.944 307.012 801.475 309.983 801.02 313.212L810.923 314.606C811.074 313.533 811.393 313.321 811.504 313.244L805.803 305.028ZM805.972 308.909H782.881V318.909H805.972V308.909ZM787.868 314.265C788.108 310.901 789.165 307.826 791.081 304.963L782.771 299.4C779.9 303.689 778.259 308.433 777.893 313.553L787.868 314.265ZM791.076 304.971C792.907 302.248 795.666 299.917 799.622 298.081L795.412 289.01C790.095 291.477 785.794 294.904 782.777 299.392L791.076 304.971ZM799.646 298.07C803.424 296.292 808.43 295.273 814.881 295.273V285.273C807.452 285.273 800.883 286.436 795.388 289.021L799.646 298.07ZM814.881 295.273C819.494 295.273 823.486 295.819 826.909 296.838L829.762 287.253C825.245 285.909 820.267 285.273 814.881 285.273V295.273ZM826.942 296.848C830.438 297.861 833.247 299.241 835.472 300.909L841.472 292.909C838.12 290.396 834.172 288.532 829.728 287.243L826.942 296.848ZM835.5 300.93C837.741 302.586 839.333 304.446 840.402 306.495L849.268 301.869C847.428 298.342 844.778 295.353 841.444 292.888L835.5 300.93ZM840.433 306.552C841.511 308.555 842.062 310.737 842.062 313.182H852.062C852.062 309.142 851.129 305.324 849.238 301.811L840.433 306.552ZM842.062 313.182V361H852.062V313.182H842.062ZM847.062 356H823.608V366H847.062V356ZM828.608 361V351.182H818.608V361H828.608ZM823.608 346.182H823.062V356.182H823.608V346.182ZM818.654 348.824C817.53 350.925 816.241 352.477 814.841 353.601L821.102 361.399C823.702 359.311 825.808 356.651 827.471 353.54L818.654 348.824ZM814.812 353.625C813.39 354.784 811.746 355.644 809.825 356.192L812.572 365.808C815.743 364.902 818.614 363.428 821.131 361.375L814.812 353.625ZM809.81 356.197C807.811 356.775 805.513 357.091 802.881 357.091V367.091C806.309 367.091 809.557 366.68 812.588 365.803L809.81 356.197ZM811.062 351.273C813.684 351.273 816.204 350.726 818.563 349.611L814.289 340.571C813.315 341.031 812.26 341.273 811.062 341.273V351.273ZM818.532 349.626C820.992 348.484 823.055 346.795 824.631 344.588L816.494 338.776C815.949 339.539 815.254 340.122 814.321 340.556L818.532 349.626ZM824.631 344.588C826.392 342.123 827.153 339.261 827.153 336.273H817.153C817.153 337.527 816.854 338.271 816.494 338.776L824.631 344.588ZM827.153 336.273V330.455H817.153V336.273H827.153ZM820.26 325.827C819.727 326.045 819.139 326.259 818.493 326.465L821.541 335.989C822.411 335.711 823.247 335.409 824.047 335.082L820.26 325.827ZM818.436 326.484C817.846 326.681 817.182 326.873 816.441 327.058L818.866 336.76C819.822 336.521 820.734 336.259 821.598 335.971L818.436 326.484ZM816.399 327.069C815.693 327.252 814.917 327.427 814.067 327.591L815.967 337.409C816.996 337.21 817.977 336.99 818.908 336.749L816.399 327.069ZM814.036 327.597C813.211 327.762 812.334 327.916 811.404 328.056L812.902 337.944C813.973 337.781 815.005 337.601 815.998 337.403L814.036 327.597ZM811.382 328.06C809.061 328.423 806.852 329.064 804.934 330.139L809.827 338.861C810.395 338.542 811.367 338.183 812.925 337.94L811.382 328.06ZM804.971 330.119C803.132 331.13 801.515 332.532 800.377 334.408L808.929 339.592C809.004 339.468 809.205 339.203 809.79 338.881L804.971 330.119ZM800.354 334.447C799.285 336.247 798.79 338.232 798.79 340.273H808.79C808.79 339.889 808.87 339.692 808.953 339.553L800.354 334.447ZM798.79 340.273C798.79 343.538 800.026 346.605 802.821 348.717L808.849 340.738C808.812 340.71 808.808 340.701 808.819 340.715C808.832 340.73 808.841 340.746 808.845 340.754C808.856 340.777 808.79 340.655 808.79 340.273H798.79ZM802.821 348.717C805.244 350.547 808.12 351.273 811.062 351.273V341.273C809.762 341.273 809.154 340.968 808.849 340.738L802.821 348.717ZM884.142 267.909H889.142V262.909H884.142V267.909ZM884.142 361V366H889.142V361H884.142ZM859.051 361H854.051V366H859.051V361ZM859.051 267.909V262.909H854.051V267.909H859.051ZM879.142 267.909V361H889.142V267.909H879.142ZM884.142 356H859.051V366H884.142V356ZM864.051 361V267.909H854.051V361H864.051ZM859.051 272.909H884.142V262.909H859.051V272.909Z" fill="url(#paint4_linear_134_26)" mask="url(#path-5-outside-1_134_26)"/>
<path d="M63.5234 34.8515L56 54.625H64.0948L67.8088 43.9341L63.5234 34.8515Z" fill="white"/>
<path d="M74.4751 54.625L64.8566 34H72.7609L82.3794 54.625H74.4751Z" fill="white"/>
<path d="M79.1073 39.0143L76.917 34H84.5356L87.0116 39.0143H79.1073Z" fill="white"/>
<path d="M86.2498 54.625L79.4883 40.3389H87.4878L94.4398 54.625H86.2498Z" fill="white"/>
<path d="M90.882 39.0143L88.6916 34H101.643L104.024 39.0143H90.882Z" fill="white"/>
<path d="M100.405 54.625L93.8342 40.3389H101.643L108.5 54.625H100.405Z" fill="white"/>
<path d="M140.648 39.3636V35.5455H155.818V39.3636H150.568V53H145.898V39.3636H140.648ZM157.602 53V35.5455H170.181V39.3636H162.34V42.3636H169.533V46.1818H162.34V49.1818H170.147V53H157.602ZM188.827 42.0909H184.02C183.986 41.6932 183.895 41.3324 183.747 41.0085C183.605 40.6847 183.406 40.4062 183.151 40.1733C182.901 39.9347 182.597 39.7528 182.239 39.6278C181.881 39.4972 181.474 39.4318 181.02 39.4318C180.224 39.4318 179.551 39.625 179 40.0114C178.455 40.3977 178.04 40.9517 177.756 41.6733C177.477 42.3949 177.338 43.2614 177.338 44.2727C177.338 45.3409 177.48 46.2358 177.764 46.9574C178.054 47.6733 178.472 48.2131 179.017 48.5767C179.563 48.9347 180.219 49.1136 180.986 49.1136C181.423 49.1136 181.815 49.0597 182.162 48.9517C182.509 48.8381 182.81 48.6761 183.065 48.4659C183.321 48.2557 183.528 48.0028 183.688 47.7074C183.852 47.4062 183.963 47.0682 184.02 46.6932L188.827 46.7273C188.77 47.4659 188.563 48.2187 188.205 48.9858C187.847 49.7472 187.338 50.4517 186.679 51.0994C186.026 51.7415 185.216 52.2585 184.25 52.6506C183.284 53.0426 182.162 53.2386 180.884 53.2386C179.281 53.2386 177.844 52.8949 176.571 52.2074C175.304 51.5199 174.301 50.5085 173.562 49.1733C172.83 47.8381 172.463 46.2045 172.463 44.2727C172.463 42.3295 172.838 40.6932 173.588 39.3636C174.338 38.0284 175.349 37.0199 176.622 36.3381C177.895 35.6506 179.315 35.3068 180.884 35.3068C181.986 35.3068 183 35.4574 183.926 35.7585C184.852 36.0597 185.665 36.5 186.364 37.0795C187.063 37.6534 187.625 38.3608 188.051 39.2017C188.477 40.0426 188.736 41.0057 188.827 42.0909ZM190.977 53V35.5455H195.715V42.3636H201.988V35.5455H206.727V53H201.988V46.1818H195.715V53H190.977ZM224.079 35.5455V53H220.124L213.817 43.8295H213.715V53H208.977V35.5455H212.999L219.204 44.6818H219.34V35.5455H224.079ZM243.229 44.2727C243.229 46.2159 242.852 47.8551 242.096 49.1903C241.34 50.5199 240.32 51.5284 239.036 52.2159C237.752 52.8977 236.32 53.2386 234.741 53.2386C233.15 53.2386 231.712 52.8949 230.428 52.2074C229.15 51.5142 228.133 50.5028 227.377 49.1733C226.627 47.8381 226.252 46.2045 226.252 44.2727C226.252 42.3295 226.627 40.6932 227.377 39.3636C228.133 38.0284 229.15 37.0199 230.428 36.3381C231.712 35.6506 233.15 35.3068 234.741 35.3068C236.32 35.3068 237.752 35.6506 239.036 36.3381C240.32 37.0199 241.34 38.0284 242.096 39.3636C242.852 40.6932 243.229 42.3295 243.229 44.2727ZM238.354 44.2727C238.354 43.2273 238.215 42.3466 237.937 41.6307C237.664 40.9091 237.258 40.3636 236.718 39.9943C236.184 39.6193 235.525 39.4318 234.741 39.4318C233.957 39.4318 233.295 39.6193 232.755 39.9943C232.221 40.3636 231.815 40.9091 231.536 41.6307C231.263 42.3466 231.127 43.2273 231.127 44.2727C231.127 45.3182 231.263 46.2017 231.536 46.9233C231.815 47.6392 232.221 48.1847 232.755 48.5597C233.295 48.929 233.957 49.1136 234.741 49.1136C235.525 49.1136 236.184 48.929 236.718 48.5597C237.258 48.1847 237.664 47.6392 237.937 46.9233C238.215 46.2017 238.354 45.3182 238.354 44.2727ZM254.831 41C254.786 40.4318 254.572 39.9886 254.192 39.6705C253.817 39.3523 253.246 39.1932 252.479 39.1932C251.99 39.1932 251.589 39.2528 251.277 39.3722C250.97 39.4858 250.743 39.642 250.595 39.8409C250.447 40.0398 250.371 40.267 250.365 40.5227C250.354 40.733 250.391 40.9233 250.476 41.0938C250.567 41.2585 250.709 41.4091 250.902 41.5455C251.095 41.6761 251.342 41.7955 251.643 41.9034C251.945 42.0114 252.303 42.108 252.717 42.1932L254.149 42.5C255.115 42.7045 255.942 42.9744 256.629 43.3097C257.317 43.6449 257.879 44.0398 258.317 44.4943C258.754 44.9432 259.075 45.4489 259.28 46.0114C259.49 46.5739 259.598 47.1875 259.604 47.8523C259.598 49 259.311 49.9716 258.743 50.767C258.175 51.5625 257.362 52.1676 256.305 52.5824C255.254 52.9972 253.99 53.2045 252.513 53.2045C250.996 53.2045 249.672 52.9801 248.541 52.5312C247.416 52.0824 246.541 51.392 245.916 50.4602C245.297 49.5227 244.984 48.3239 244.979 46.8636H249.479C249.507 47.3977 249.641 47.8466 249.879 48.2102C250.118 48.5739 250.453 48.8494 250.885 49.0369C251.322 49.2244 251.842 49.3182 252.445 49.3182C252.95 49.3182 253.374 49.2557 253.714 49.1307C254.055 49.0057 254.314 48.8324 254.49 48.6108C254.666 48.3892 254.757 48.1364 254.763 47.8523C254.757 47.5852 254.669 47.3523 254.499 47.1534C254.334 46.9489 254.061 46.767 253.68 46.608C253.3 46.4432 252.786 46.2898 252.138 46.1477L250.399 45.7727C248.854 45.4375 247.635 44.8778 246.743 44.0938C245.857 43.304 245.416 42.2273 245.422 40.8636C245.416 39.7557 245.712 38.7869 246.308 37.9574C246.911 37.1222 247.743 36.4716 248.805 36.0057C249.874 35.5398 251.098 35.3068 252.479 35.3068C253.888 35.3068 255.107 35.5426 256.135 36.0142C257.163 36.4858 257.956 37.1506 258.513 38.0085C259.075 38.8608 259.359 39.858 259.365 41H254.831ZM261.406 53V35.5455H268.94C270.236 35.5455 271.369 35.8011 272.341 36.3125C273.313 36.8239 274.068 37.5426 274.608 38.4688C275.148 39.3949 275.418 40.4773 275.418 41.7159C275.418 42.9659 275.139 44.0483 274.582 44.9631C274.031 45.8778 273.256 46.5824 272.256 47.0767C271.261 47.571 270.099 47.8182 268.77 47.8182H264.27V44.1364H267.815C268.372 44.1364 268.847 44.0398 269.239 43.8466C269.636 43.6477 269.94 43.3665 270.151 43.0028C270.366 42.6392 270.474 42.2102 270.474 41.7159C270.474 41.2159 270.366 40.7898 270.151 40.4375C269.94 40.0795 269.636 39.8068 269.239 39.6193C268.847 39.4261 268.372 39.3295 267.815 39.3295H266.145V53H261.406ZM279.511 53H274.397L280.158 35.5455H286.636L292.397 53H287.283L283.465 40.3523H283.329L279.511 53ZM278.556 46.1136H288.17V49.6591H278.556V46.1136ZM294.078 53V35.5455H301.612C302.908 35.5455 304.041 35.7812 305.013 36.2528C305.984 36.7244 306.74 37.4034 307.28 38.2898C307.82 39.1761 308.089 40.2386 308.089 41.4773C308.089 42.7273 307.811 43.7812 307.254 44.6392C306.703 45.4972 305.928 46.1449 304.928 46.5824C303.933 47.0199 302.771 47.2386 301.442 47.2386H296.942V43.5568H300.487C301.044 43.5568 301.518 43.4886 301.911 43.3523C302.308 43.2102 302.612 42.9858 302.822 42.679C303.038 42.3722 303.146 41.9716 303.146 41.4773C303.146 40.9773 303.038 40.571 302.822 40.2585C302.612 39.9403 302.308 39.7074 301.911 39.5597C301.518 39.4062 301.044 39.3295 300.487 39.3295H298.817V53H294.078ZM304.305 44.9886L308.669 53H303.521L299.26 44.9886H304.305ZM315.189 35.5455L318.053 40.625H318.189L321.087 35.5455H326.371L321.155 44.2727L326.575 53H321.155L318.189 47.8182H318.053L315.087 53H309.7L315.053 44.2727L309.871 35.5455H315.189Z" fill="white"/>
<path opacity="0.35" d="M1010.76 178.034C1018.53 187.691 1028.28 195.842 1039.45 202.024V172.227C1029.62 172.825 1019.95 174.782 1010.76 178.034ZM997.749 183.677C992.376 186.468 987.296 189.717 982.575 193.381H982.252C996.962 204.893 1015 212.16 1034.13 214.281C1019.73 206.66 1007.31 196.214 997.749 183.677ZM991.518 130.024C992.519 143.265 996.587 155.731 1003.04 166.808C1014.63 162.392 1026.93 159.798 1039.45 159.135V130.024H991.502H991.518ZM977.361 130.024H947.367C948.899 150.192 957.646 169.315 972.227 184.379C977.829 179.9 983.898 175.929 990.339 172.54C982.767 159.393 978.34 144.893 977.361 130.024ZM1089.81 167.062C1096.37 155.91 1100.47 143.37 1101.5 130.039H1053.31V159.164C1066.19 159.911 1078.48 162.658 1089.81 167.076V167.062ZM1102.48 172.884C1108.65 176.168 1114.48 179.99 1119.87 184.289C1134.39 169.241 1143.1 150.159 1144.63 130.039H1115.66C1114.67 145.033 1110.17 159.651 1102.48 172.884ZM1053.31 202.144C1064.49 195.997 1074.25 187.881 1082.05 178.258C1072.85 174.935 1063.16 172.912 1053.31 172.257V202.159V202.144ZM1059.14 214.131C1077.81 211.835 1095.38 204.633 1109.76 193.381H1109.64C1105.08 189.847 1100.19 186.699 1095.03 183.976C1085.55 196.299 1073.31 206.586 1059.14 214.131ZM1003.06 80.1474C996.426 91.5204 992.492 104.071 991.518 116.961H1039.45V87.8058C1026.94 87.1502 1014.64 84.5668 1003.06 80.1624V80.1474ZM990.356 74.4149C983.916 71.0402 977.85 67.0901 972.243 62.6213C957.665 77.6812 948.919 96.7985 947.383 116.961H977.361C978.341 102.081 982.773 87.5703 990.356 74.4149ZM1039.43 44.9757C1028.29 51.1514 1018.57 59.2865 1010.81 68.9211C1019.99 72.1584 1029.64 74.1058 1039.45 74.6985V44.9757H1039.43ZM1034.13 32.7194C1015.05 34.8265 997.045 42.0557 982.349 53.5149H982.478C987.24 57.2171 992.357 60.4865 997.765 63.2931C1007.33 50.7688 1019.74 40.3332 1034.13 32.7194ZM1082 68.6524C1074.21 59.0603 1064.46 50.9712 1053.31 44.8414V74.6537C1063.15 73.9941 1072.82 71.9711 1082 68.6524ZM1094.96 62.9199C1100.12 60.1957 1105 57.048 1109.55 53.5149H1109.65C1095.29 42.3254 1077.77 35.1669 1059.16 32.8836C1073.29 40.4076 1085.5 50.657 1094.96 62.9348V62.9199ZM1101.5 116.961C1100.51 103.95 1096.51 91.2876 1089.76 79.8339C1078.18 84.3376 1065.86 87.0121 1053.31 87.7461V116.961H1101.5ZM1115.66 116.961H1144.63C1143.1 96.7985 1134.35 77.6812 1119.77 62.6213C1114.39 66.9175 1108.59 70.7361 1102.44 74.0267C1109.96 86.9549 1114.62 101.495 1115.66 116.976V116.961ZM1046 228C1016.03 228 987.289 216.99 966.097 197.393C944.905 177.795 933 151.215 933 123.5C933 95.7849 944.905 69.2049 966.097 49.6073C987.289 30.0098 1016.03 19 1046 19C1075.97 19 1104.71 30.0098 1125.9 49.6073C1147.09 69.2049 1159 95.7849 1159 123.5C1159 151.215 1147.09 177.795 1125.9 197.393C1104.71 216.99 1075.97 228 1046 228Z" fill="url(#paint5_linear_134_26)"/>
<g opacity="0.28">
<path d="M164.266 579.751C162.956 579.751 161.868 578.689 161.868 577.376C161.868 576.063 162.907 575.001 164.22 575.001H164.266C164.578 575.001 164.887 575.062 165.175 575.181C165.464 575.301 165.726 575.476 165.946 575.696C166.167 575.917 166.342 576.179 166.461 576.467C166.58 576.755 166.642 577.064 166.642 577.376C166.642 577.688 166.58 577.997 166.461 578.285C166.341 578.574 166.166 578.835 165.946 579.056C165.725 579.276 165.463 579.451 165.175 579.571C164.887 579.69 164.578 579.751 164.266 579.751ZM36.0162 451.501C34.7058 451.501 33.6182 450.438 33.6182 449.125C33.6182 447.813 34.6571 446.75 35.9699 446.75H36.0162C36.3281 446.75 36.637 446.812 36.9252 446.931C37.2135 447.05 37.4753 447.225 37.6959 447.446C37.9164 447.666 38.0914 447.928 38.2107 448.216C38.33 448.505 38.3913 448.813 38.3911 449.125C38.3914 449.437 38.3301 449.746 38.2108 450.035C38.0916 450.323 37.9167 450.585 37.6961 450.805C37.4755 451.026 37.2136 451.201 36.9254 451.32C36.6371 451.44 36.3282 451.501 36.0162 451.501ZM45.5164 451.501C44.206 451.501 43.1183 450.438 43.1183 449.125C43.1183 447.813 44.1573 446.75 45.4701 446.75H45.5164C45.8283 446.75 46.1372 446.812 46.4254 446.931C46.7136 447.05 46.9755 447.225 47.1961 447.446C47.4166 447.666 47.5916 447.928 47.7109 448.216C47.8301 448.505 47.8915 448.813 47.8913 449.125C47.8915 449.437 47.8303 449.746 47.711 450.035C47.5918 450.323 47.4168 450.585 47.1963 450.805C46.9757 451.026 46.7138 451.201 46.4256 451.32C46.1373 451.44 45.8284 451.501 45.5164 451.501ZM55.0166 451.501C53.7062 451.501 52.6185 450.438 52.6185 449.125C52.6185 447.813 53.6575 446.75 54.9703 446.75H55.0166C55.3285 446.75 55.6374 446.812 55.9256 446.931C56.2138 447.05 56.4757 447.225 56.6963 447.446C56.9168 447.666 57.0917 447.928 57.211 448.216C57.3303 448.505 57.3917 448.813 57.3915 449.125C57.3917 449.437 57.3305 449.746 57.2112 450.035C57.0919 450.323 56.917 450.585 56.6965 450.805C56.4759 451.026 56.214 451.201 55.9258 451.32C55.6375 451.44 55.3286 451.501 55.0166 451.501Z" fill="url(#paint6_linear_134_26)"/>
<path d="M325.625 660.501H26.3749C26.063 660.501 25.754 660.44 25.4658 660.321C25.1775 660.201 24.9156 660.026 24.6951 659.806C24.4745 659.585 24.2996 659.323 24.1803 659.035C24.061 658.747 23.9998 658.438 24 658.126V453.876C23.9998 453.564 24.061 453.255 24.1803 452.967C24.2996 452.679 24.4745 452.417 24.6951 452.196C24.9156 451.975 25.1775 451.801 25.4658 451.681C25.754 451.562 26.063 451.501 26.3749 451.501H325.625C325.937 451.501 326.246 451.562 326.534 451.681C326.822 451.801 327.084 451.975 327.305 452.196C327.526 452.417 327.7 452.679 327.82 452.967C327.939 453.255 328 453.564 328 453.876V658.126C328 658.438 327.939 658.747 327.82 659.035C327.7 659.323 327.526 659.585 327.305 659.806C327.084 660.026 326.822 660.201 326.534 660.321C326.246 660.44 325.937 660.501 325.625 660.501ZM28.7498 655.751H323.25V456.251H28.7498V655.751Z" fill="url(#paint7_linear_134_26)"/>
<path d="M325.625 456.251H26.3749C26.063 456.251 25.754 456.19 25.4658 456.07C25.1775 455.951 24.9156 455.776 24.6951 455.556C24.4745 455.335 24.2996 455.073 24.1803 454.785C24.061 454.497 23.9998 454.188 24 453.876V449.125C24 445.196 27.1958 442 31.1247 442H320.875C324.803 442 327.999 445.196 327.999 449.125V453.876C328 454.188 327.939 454.497 327.819 454.785C327.7 455.073 327.525 455.335 327.305 455.555C327.084 455.776 326.822 455.951 326.534 456.07C326.246 456.19 325.937 456.251 325.625 456.251ZM28.7498 451.501H323.25V449.125C323.248 448.496 322.998 447.892 322.553 447.447C322.108 447.002 321.504 446.752 320.875 446.75H31.1247C30.4951 446.751 29.8915 447.002 29.4463 447.447C29.001 447.892 28.7506 448.496 28.7498 449.125V451.501ZM311.375 518H40.6249C40.3129 518.001 40.004 517.939 39.7158 517.82C39.4275 517.701 39.1656 517.526 38.9451 517.305C38.7245 517.085 38.5496 516.823 38.4303 516.535C38.311 516.246 38.2498 515.937 38.25 515.625V468.126C38.2498 467.814 38.3111 467.505 38.4304 467.217C38.5497 466.928 38.7247 466.667 38.9452 466.446C39.1658 466.225 39.4277 466.051 39.7159 465.931C40.0041 465.812 40.313 465.751 40.6249 465.751H311.375C311.686 465.751 311.995 465.812 312.284 465.931C312.572 466.051 312.834 466.225 313.054 466.446C313.275 466.667 313.45 466.928 313.569 467.217C313.688 467.505 313.75 467.814 313.749 468.126V515.625C313.75 515.937 313.688 516.246 313.569 516.534C313.45 516.823 313.275 517.084 313.055 517.305C312.834 517.526 312.572 517.701 312.284 517.82C311.996 517.939 311.687 518 311.375 518ZM43.0004 513.251H309V470.501H43.0004V513.251Z" fill="url(#paint8_linear_134_26)"/>
<path d="M273.375 489.501H78.625C78.3131 489.501 78.0042 489.44 77.716 489.32C77.4278 489.201 77.166 489.026 76.9454 488.806C76.7248 488.585 76.5499 488.323 76.4306 488.035C76.3113 487.747 76.25 487.438 76.2502 487.126C76.2499 486.814 76.3112 486.505 76.4304 486.217C76.5497 485.929 76.7246 485.667 76.9452 485.446C77.1657 485.225 77.4276 485.05 77.7159 484.931C78.0041 484.812 78.3131 484.75 78.625 484.75H273.375C273.687 484.75 273.996 484.812 274.284 484.931C274.572 485.05 274.834 485.225 275.055 485.446C275.275 485.667 275.45 485.929 275.57 486.217C275.689 486.505 275.75 486.814 275.75 487.126C275.75 487.438 275.689 487.747 275.569 488.035C275.45 488.323 275.275 488.585 275.055 488.806C274.834 489.026 274.572 489.201 274.284 489.32C273.996 489.44 273.687 489.501 273.375 489.501ZM225.875 499H126.125C124.813 499 123.75 497.938 123.75 496.626C123.75 495.313 124.813 494.251 126.125 494.251H225.875C227.188 494.251 228.25 495.313 228.25 496.626C228.25 497.938 227.188 499 225.875 499ZM311.375 556H40.6249C40.313 556.001 40.004 555.939 39.7158 555.82C39.4275 555.701 39.1656 555.526 38.9451 555.305C38.7245 555.085 38.5496 554.823 38.4303 554.535C38.311 554.246 38.2498 553.937 38.25 553.625V529.876C38.2498 529.564 38.311 529.255 38.4303 528.967C38.5496 528.679 38.7245 528.417 38.9451 528.196C39.1656 527.976 39.4275 527.801 39.7158 527.681C40.004 527.562 40.313 527.501 40.6249 527.501H311.375C311.686 527.501 311.995 527.562 312.284 527.681C312.572 527.801 312.834 527.976 313.054 528.196C313.275 528.417 313.45 528.679 313.569 528.967C313.688 529.255 313.75 529.564 313.749 529.876V553.625C313.75 553.937 313.688 554.246 313.569 554.534C313.45 554.823 313.275 555.085 313.055 555.305C312.834 555.526 312.572 555.701 312.284 555.82C311.996 555.939 311.687 556.001 311.375 556ZM43.0004 551.251H309V532.251H43.0004V551.251Z" fill="url(#paint9_linear_134_26)"/>
<path d="M54.8749 551.251C54.3791 551.251 53.8958 551.095 53.4928 550.807C53.0898 550.518 52.7873 550.11 52.6277 549.641L47.8773 535.688C47.7765 535.393 47.7349 535.081 47.7549 534.769C47.7748 534.458 47.8559 534.153 47.9936 533.874C48.1312 533.594 48.3227 533.343 48.557 533.138C48.7914 532.932 49.064 532.774 49.3594 532.673C50.6003 532.269 51.9499 532.919 52.3722 534.158L57.1226 548.111C57.2234 548.406 57.265 548.718 57.2451 549.03C57.2251 549.341 57.144 549.645 57.0064 549.926C56.8687 550.206 56.6773 550.456 56.4429 550.662C56.2086 550.868 55.9359 551.025 55.6406 551.126C55.3935 551.208 55.1351 551.25 54.8749 551.251Z" fill="url(#paint10_linear_134_26)"/>
<path d="M54.8723 551.251C54.4677 551.25 54.0699 551.146 53.7167 550.949C53.3634 550.752 53.0664 550.468 52.8538 550.123C52.6412 549.779 52.5201 549.386 52.5019 548.982C52.4837 548.578 52.5691 548.176 52.7499 547.814L57.5003 538.313C58.0895 537.144 59.5182 536.657 60.6872 537.251C61.2506 537.533 61.6791 538.027 61.8782 538.625C62.0774 539.222 62.031 539.875 61.7493 540.438L56.9995 549.938C56.8016 550.332 56.4978 550.664 56.1222 550.896C55.7465 551.128 55.3138 551.251 54.8723 551.251Z" fill="url(#paint11_linear_134_26)"/>
<path d="M64.3774 551.251C63.936 551.251 63.5034 551.128 63.1278 550.896C62.7522 550.664 62.4486 550.332 62.2508 549.938L57.5004 540.438C57.3608 540.159 57.2776 539.855 57.2555 539.544C57.2334 539.233 57.2728 538.92 57.3715 538.624C57.4702 538.328 57.6262 538.055 57.8306 537.819C58.0351 537.583 58.284 537.39 58.5631 537.251C59.7345 536.657 61.1631 537.144 61.7494 538.313L66.4998 547.813C66.6809 548.175 66.7665 548.577 66.7485 548.982C66.7304 549.386 66.6093 549.779 66.3967 550.123C66.1841 550.468 65.8869 550.752 65.5335 550.95C65.1801 551.147 64.7821 551.25 64.3774 551.251Z" fill="url(#paint12_linear_134_26)"/>
<path d="M64.3753 551.251C64.127 551.251 63.8746 551.214 63.6239 551.13C63.0266 550.93 62.5331 550.501 62.2518 549.938C61.9704 549.374 61.9243 548.722 62.1234 548.124L66.8732 533.874C66.9714 533.578 67.1272 533.304 67.3314 533.068C67.5356 532.833 67.7844 532.639 68.0634 532.5C68.3424 532.36 68.6463 532.277 68.9575 532.255C69.2687 532.233 69.5812 532.273 69.8771 532.371C70.4743 532.572 70.9677 533 71.249 533.564C71.5303 534.127 71.5766 534.78 71.3776 535.377L66.6272 549.627C66.4695 550.1 66.1671 550.511 65.763 550.802C65.3589 551.093 64.8735 551.25 64.3753 551.251Z" fill="url(#paint13_linear_134_26)"/>
<path d="M78.6249 551.251C78.1291 551.251 77.6458 551.095 77.2428 550.807C76.8398 550.518 76.5373 550.11 76.3777 549.641L71.6273 535.688C71.5265 535.393 71.4849 535.081 71.5049 534.769C71.5248 534.458 71.6059 534.153 71.7436 533.874C71.8812 533.594 72.0727 533.343 72.307 533.138C72.5414 532.932 72.814 532.774 73.1094 532.673C74.3592 532.269 75.6999 532.919 76.1222 534.158L80.872 548.111C80.9729 548.406 81.0146 548.718 80.9947 549.03C80.9748 549.341 80.8937 549.646 80.756 549.926C80.6184 550.206 80.4269 550.456 80.1925 550.662C79.9581 550.868 79.6854 551.026 79.39 551.126C79.1375 551.209 78.8779 551.251 78.6249 551.251Z" fill="url(#paint14_linear_134_26)"/>
<path d="M78.6228 551.251C78.2182 551.25 77.8204 551.146 77.4672 550.949C77.1139 550.752 76.8169 550.468 76.6043 550.123C76.3917 549.779 76.2706 549.386 76.2524 548.982C76.2342 548.578 76.3196 548.176 76.5004 547.814L81.2508 538.313C81.8371 537.144 83.2639 536.657 84.4371 537.251C85.0005 537.533 85.429 538.027 85.6282 538.625C85.8275 539.222 85.7813 539.875 85.4998 540.438L80.7494 549.938C80.5515 550.333 80.2478 550.664 79.8723 550.896C79.4967 551.128 79.0641 551.251 78.6228 551.251Z" fill="url(#paint15_linear_134_26)"/>
<path d="M88.1272 551.251C87.6858 551.251 87.2532 551.128 86.8776 550.896C86.5021 550.664 86.1984 550.332 86.0006 549.938L81.2508 540.438C80.9691 539.874 80.9227 539.222 81.1219 538.624C81.321 538.027 81.7495 537.533 82.3129 537.251C83.4885 536.657 84.9106 537.144 85.4998 538.313L90.2502 547.813C90.4312 548.175 90.5166 548.577 90.4985 548.982C90.4803 549.386 90.3592 549.779 90.1465 550.123C89.9338 550.468 89.6367 550.752 89.2833 550.949C88.9299 551.147 88.5319 551.25 88.1272 551.251Z" fill="url(#paint16_linear_134_26)"/>
<path d="M88.1247 551.251C87.877 551.251 87.6239 551.214 87.3732 551.13C86.776 550.93 86.2827 550.501 86.0013 549.938C85.72 549.374 85.6738 548.722 85.8727 548.124L90.6231 533.874C90.7213 533.578 90.8769 533.304 91.081 533.069C91.2852 532.833 91.5339 532.639 91.8129 532.5C92.0919 532.36 92.3957 532.277 92.7069 532.255C93.0181 532.233 93.3306 532.273 93.6265 532.372C94.2237 532.572 94.7171 533.001 94.9984 533.564C95.2797 534.128 95.3259 534.78 95.127 535.377L90.3766 549.627C90.2189 550.1 89.9166 550.511 89.5125 550.802C89.1083 551.094 88.6229 551.25 88.1247 551.251Z" fill="url(#paint17_linear_134_26)"/>
<path d="M102.375 551.251C101.879 551.251 101.396 551.095 100.993 550.807C100.59 550.518 100.287 550.11 100.128 549.641L95.3779 535.688C95.2771 535.393 95.2354 535.081 95.2553 534.769C95.2752 534.458 95.3563 534.153 95.494 533.873C95.6317 533.593 95.8231 533.343 96.0575 533.137C96.2919 532.931 96.5646 532.774 96.86 532.673C98.1057 532.269 99.4505 532.919 99.8729 534.158L104.623 548.111C104.724 548.406 104.765 548.718 104.745 549.03C104.725 549.341 104.644 549.646 104.507 549.926C104.369 550.206 104.178 550.456 103.943 550.662C103.709 550.868 103.436 551.026 103.141 551.126C102.888 551.209 102.627 551.251 102.375 551.251Z" fill="url(#paint18_linear_134_26)"/>
<path d="M102.373 551.251C101.968 551.25 101.571 551.146 101.217 550.949C100.864 550.752 100.567 550.468 100.355 550.123C100.142 549.779 100.021 549.386 100.003 548.982C99.9848 548.578 100.07 548.176 100.251 547.814L105.001 538.313C105.59 537.144 107.012 536.657 108.188 537.251C108.751 537.533 109.18 538.027 109.379 538.625C109.578 539.222 109.532 539.875 109.251 540.438L104.5 549.938C104.302 550.333 103.998 550.664 103.623 550.896C103.247 551.128 102.814 551.251 102.373 551.251Z" fill="url(#paint19_linear_134_26)"/>
<path d="M111.878 551.251C111.436 551.251 111.004 551.128 110.628 550.896C110.252 550.664 109.948 550.333 109.751 549.938L105.001 540.438C104.719 539.874 104.673 539.222 104.872 538.624C105.071 538.027 105.499 537.533 106.063 537.251C107.234 536.657 108.658 537.144 109.25 538.313L114 547.813C114.181 548.175 114.267 548.577 114.249 548.982C114.231 549.386 114.11 549.779 113.897 550.124C113.685 550.468 113.387 550.752 113.034 550.95C112.681 551.147 112.283 551.251 111.878 551.251Z" fill="url(#paint20_linear_134_26)"/>
<path d="M111.875 551.25C111.62 551.251 111.366 551.21 111.123 551.13C110.526 550.93 110.033 550.501 109.751 549.937C109.47 549.374 109.424 548.722 109.623 548.124L114.373 533.874C114.471 533.578 114.627 533.304 114.831 533.068C115.035 532.832 115.284 532.639 115.563 532.499C115.842 532.36 116.146 532.276 116.457 532.254C116.768 532.232 117.081 532.272 117.376 532.371C117.974 532.571 118.467 533 118.749 533.564C119.03 534.127 119.076 534.779 118.877 535.377L114.127 549.627C113.969 550.099 113.667 550.51 113.263 550.802C112.859 551.093 112.373 551.25 111.875 551.25ZM292.375 546.501C288.446 546.501 285.25 543.304 285.25 539.375C285.25 535.446 288.446 532.25 292.375 532.25C296.303 532.25 299.499 535.446 299.499 539.375C299.499 543.304 296.303 546.501 292.375 546.501ZM292.375 537C291.745 537.002 291.142 537.252 290.696 537.698C290.251 538.143 290.001 538.746 290 539.376C290 540.684 291.067 541.751 292.375 541.751C293.683 541.751 294.75 540.684 294.75 539.376C294.748 538.746 294.498 538.143 294.053 537.698C293.608 537.252 293.004 537.002 292.375 537Z" fill="url(#paint21_linear_134_26)"/>
<path d="M301.875 551.251C301.563 551.251 301.254 551.19 300.966 551.07C300.678 550.951 300.416 550.776 300.196 550.555L294.045 544.405C293.117 543.477 293.117 541.974 294.045 541.046C294.973 540.118 296.476 540.118 297.403 541.046L303.554 547.196C303.887 547.529 304.113 547.952 304.205 548.412C304.297 548.873 304.25 549.351 304.07 549.785C303.89 550.219 303.586 550.59 303.195 550.851C302.804 551.112 302.345 551.251 301.875 551.251ZM154.625 579.751H40.6249C40.313 579.751 40.0041 579.69 39.7159 579.571C39.4277 579.451 39.1658 579.277 38.9452 579.056C38.7247 578.835 38.5498 578.574 38.4305 578.285C38.3112 577.997 38.2498 577.688 38.25 577.376C38.2498 577.064 38.311 576.755 38.4303 576.467C38.5495 576.179 38.7245 575.917 38.945 575.696C39.1656 575.476 39.4275 575.301 39.7157 575.181C40.004 575.062 40.3129 575.001 40.6249 575.001H154.625C154.937 575.001 155.246 575.062 155.534 575.181C155.822 575.301 156.084 575.476 156.305 575.696C156.525 575.917 156.7 576.179 156.819 576.467C156.939 576.755 157 577.064 157 577.376C157 577.688 156.939 577.997 156.819 578.285C156.7 578.574 156.525 578.835 156.305 579.056C156.084 579.277 155.822 579.451 155.534 579.571C155.246 579.69 154.937 579.751 154.625 579.751ZM311.375 579.751H278.125C277.813 579.751 277.504 579.69 277.216 579.571C276.928 579.452 276.666 579.277 276.445 579.056C276.225 578.836 276.05 578.574 275.93 578.286C275.811 577.997 275.75 577.688 275.75 577.376C275.75 577.064 275.811 576.755 275.93 576.467C276.05 576.179 276.225 575.917 276.445 575.696C276.666 575.475 276.928 575.301 277.216 575.181C277.504 575.062 277.813 575.001 278.125 575.001H311.375C311.687 575.001 311.996 575.062 312.284 575.181C312.573 575.301 312.834 575.476 313.055 575.696C313.276 575.917 313.45 576.179 313.57 576.467C313.689 576.755 313.75 577.064 313.75 577.376C313.75 577.688 313.689 577.997 313.569 578.285C313.45 578.573 313.275 578.835 313.055 579.056C312.834 579.276 312.572 579.451 312.284 579.571C311.996 579.69 311.687 579.751 311.375 579.751ZM249.625 584.501C249.313 584.501 249.004 584.44 248.716 584.321C248.428 584.201 248.166 584.026 247.946 583.805L243.196 579.055C242.268 578.127 242.268 576.624 243.196 575.697C244.124 574.77 245.626 574.769 246.554 575.697L251.304 580.447C251.524 580.667 251.699 580.929 251.818 581.217C251.938 581.505 251.999 581.814 251.999 582.126C251.999 582.438 251.938 582.746 251.818 583.035C251.699 583.323 251.524 583.584 251.304 583.805C251.083 584.026 250.822 584.201 250.534 584.321C250.246 584.44 249.937 584.501 249.625 584.501Z" fill="url(#paint22_linear_134_26)"/>
<path d="M249.625 584.501C249.313 584.501 249.004 584.44 248.716 584.321C248.428 584.201 248.166 584.026 247.946 583.805C247.725 583.585 247.55 583.323 247.431 583.035C247.311 582.747 247.25 582.438 247.25 582.126C247.25 581.814 247.311 581.505 247.431 581.217C247.55 580.929 247.725 580.667 247.946 580.447L257.446 570.947C257.666 570.726 257.928 570.551 258.216 570.432C258.504 570.312 258.813 570.251 259.125 570.251C259.437 570.251 259.745 570.312 260.033 570.432C260.322 570.551 260.583 570.726 260.804 570.947C261.024 571.167 261.199 571.429 261.319 571.717C261.438 572.005 261.5 572.314 261.5 572.626C261.5 572.938 261.438 573.247 261.319 573.535C261.199 573.823 261.024 574.085 260.804 574.305L251.304 583.805C251.083 584.026 250.822 584.201 250.534 584.321C250.246 584.44 249.937 584.502 249.625 584.501ZM183.125 579.751H173.625C173.313 579.752 173.004 579.69 172.716 579.571C172.428 579.452 172.166 579.277 171.945 579.056C171.725 578.836 171.55 578.574 171.431 578.285C171.311 577.997 171.25 577.688 171.25 577.376C171.25 577.064 171.311 576.756 171.431 576.467C171.55 576.179 171.725 575.917 171.945 575.696C172.166 575.476 172.428 575.301 172.716 575.181C173.004 575.062 173.313 575.001 173.625 575.001H183.125C183.437 575.001 183.746 575.062 184.034 575.181C184.322 575.301 184.584 575.476 184.805 575.696C185.025 575.917 185.2 576.179 185.319 576.467C185.439 576.756 185.5 577.064 185.5 577.376C185.5 577.688 185.438 577.997 185.319 578.285C185.2 578.574 185.025 578.835 184.804 579.056C184.584 579.276 184.322 579.451 184.034 579.571C183.745 579.69 183.437 579.751 183.125 579.751ZM169.017 636.751C167.706 636.751 166.619 635.689 166.619 634.376C166.619 633.064 167.658 632.001 168.97 632.001H169.017C169.329 632.001 169.638 632.062 169.926 632.181C170.214 632.301 170.476 632.476 170.697 632.696C170.917 632.917 171.092 633.179 171.212 633.467C171.331 633.755 171.392 634.064 171.392 634.376C171.392 634.688 171.331 634.997 171.212 635.285C171.092 635.573 170.917 635.835 170.697 636.055C170.476 636.276 170.214 636.451 169.926 636.57C169.638 636.69 169.329 636.751 169.017 636.751ZM159.375 636.751H40.6249C40.313 636.751 40.004 636.69 39.7158 636.57C39.4275 636.451 39.1656 636.276 38.9451 636.056C38.7245 635.835 38.5496 635.573 38.4303 635.285C38.311 634.997 38.2498 634.688 38.25 634.376C38.2498 634.064 38.3112 633.755 38.4305 633.467C38.5498 633.179 38.7247 632.917 38.9452 632.696C39.1658 632.476 39.4277 632.301 39.7159 632.181C40.0041 632.062 40.313 632.001 40.6249 632.001H159.375C159.686 632.001 159.995 632.062 160.284 632.181C160.572 632.301 160.834 632.476 161.054 632.696C161.275 632.917 161.45 633.179 161.569 633.467C161.688 633.755 161.75 634.064 161.749 634.376C161.75 634.688 161.689 634.997 161.569 635.285C161.45 635.573 161.275 635.835 161.055 636.056C160.834 636.276 160.572 636.451 160.284 636.57C159.996 636.69 159.687 636.751 159.375 636.751ZM311.375 636.751H278.125C277.813 636.751 277.504 636.69 277.216 636.571C276.928 636.451 276.666 636.276 276.445 636.056C276.225 635.835 276.05 635.573 275.93 635.285C275.811 634.997 275.75 634.688 275.75 634.376C275.75 634.064 275.811 633.755 275.93 633.467C276.05 633.178 276.225 632.916 276.445 632.696C276.666 632.475 276.928 632.3 277.216 632.181C277.504 632.062 277.813 632.001 278.125 632.001H311.375C311.687 632.001 311.996 632.062 312.284 632.181C312.572 632.301 312.834 632.476 313.055 632.696C313.275 632.917 313.45 633.179 313.57 633.467C313.689 633.755 313.75 634.064 313.75 634.376C313.75 634.688 313.689 634.997 313.57 635.285C313.45 635.573 313.275 635.835 313.055 636.055C312.834 636.276 312.572 636.451 312.284 636.57C311.996 636.69 311.687 636.751 311.375 636.751ZM249.625 641.501C249.313 641.501 249.004 641.44 248.716 641.321C248.428 641.201 248.166 641.026 247.946 640.805L243.196 636.055C242.975 635.835 242.8 635.573 242.681 635.285C242.561 634.997 242.5 634.688 242.5 634.376C242.5 634.064 242.561 633.755 242.681 633.467C242.8 633.179 242.975 632.918 243.196 632.697C243.416 632.476 243.678 632.302 243.966 632.182C244.254 632.063 244.563 632.001 244.875 632.001C245.187 632.001 245.495 632.063 245.783 632.182C246.072 632.302 246.333 632.476 246.554 632.697L251.304 637.447C251.524 637.667 251.699 637.929 251.818 638.217C251.938 638.505 251.999 638.814 251.999 639.126C251.999 639.438 251.938 639.747 251.818 640.035C251.699 640.323 251.524 640.584 251.304 640.805C251.083 641.026 250.822 641.201 250.534 641.321C250.246 641.44 249.937 641.502 249.625 641.501Z" fill="url(#paint23_linear_134_26)"/>
<path d="M249.625 641.501C249.313 641.501 249.004 641.44 248.716 641.32C248.428 641.201 248.166 641.025 247.946 640.805C247.725 640.584 247.55 640.322 247.431 640.034C247.311 639.746 247.25 639.437 247.25 639.126C247.25 638.814 247.311 638.505 247.431 638.217C247.55 637.929 247.725 637.667 247.946 637.447L257.446 627.947C257.666 627.726 257.928 627.551 258.216 627.432C258.504 627.313 258.813 627.251 259.125 627.251C259.437 627.251 259.745 627.313 260.033 627.432C260.322 627.551 260.583 627.726 260.804 627.947C261.024 628.167 261.199 628.429 261.319 628.717C261.438 629.005 261.499 629.314 261.499 629.626C261.499 629.938 261.438 630.247 261.319 630.535C261.199 630.823 261.024 631.085 260.804 631.305L251.304 640.805C251.083 641.026 250.822 641.201 250.534 641.32C250.246 641.44 249.937 641.501 249.625 641.501ZM187.875 636.75H178.375C178.063 636.751 177.754 636.689 177.466 636.57C177.178 636.451 176.916 636.276 176.695 636.055C176.475 635.835 176.3 635.573 176.18 635.285C176.061 634.996 176 634.687 176 634.375C176 634.064 176.061 633.755 176.18 633.466C176.3 633.178 176.475 632.916 176.695 632.696C176.916 632.475 177.178 632.3 177.466 632.181C177.754 632.062 178.063 632 178.375 632.001H187.875C188.187 632 188.496 632.062 188.784 632.181C189.072 632.3 189.334 632.475 189.555 632.696C189.775 632.916 189.95 633.178 190.07 633.466C190.189 633.755 190.25 634.064 190.25 634.375C190.25 634.687 190.189 634.996 190.07 635.285C189.95 635.573 189.776 635.835 189.555 636.055C189.334 636.276 189.072 636.451 188.784 636.57C188.496 636.689 188.187 636.751 187.875 636.75ZM188.018 608.25C186.706 608.25 185.62 607.188 185.62 605.875C185.62 604.563 186.66 603.501 187.967 603.501H188.018C188.648 603.501 189.252 603.751 189.698 604.196C190.143 604.642 190.393 605.246 190.394 605.875C190.393 606.505 190.143 607.109 189.698 607.555C189.252 608 188.648 608.25 188.018 608.25ZM178.375 608.25H40.6249C39.3121 608.25 38.25 607.188 38.25 605.875C38.25 604.563 39.3121 603.501 40.6249 603.501H178.375C179.688 603.501 180.75 604.563 180.75 605.875C180.75 607.188 179.688 608.25 178.375 608.25ZM311.375 608.25H278.125C276.812 608.25 275.75 607.188 275.75 605.875C275.75 604.563 276.812 603.501 278.125 603.501H311.375C312.688 603.501 313.75 604.563 313.75 605.875C313.75 607.188 312.687 608.25 311.375 608.25ZM244.875 613C244.405 613 243.946 612.861 243.555 612.6C243.164 612.34 242.86 611.969 242.68 611.534C242.5 611.1 242.453 610.623 242.545 610.162C242.637 609.701 242.863 609.278 243.196 608.946L252.696 599.446C253.624 598.519 255.127 598.519 256.054 599.446C256.981 600.374 256.982 601.877 256.054 602.804L246.554 612.305C246.334 612.526 246.072 612.701 245.784 612.82C245.496 612.939 245.187 613.001 244.875 613Z" fill="url(#paint24_linear_134_26)"/>
<path d="M254.379 613C254.067 613.001 253.758 612.94 253.47 612.82C253.182 612.701 252.92 612.526 252.7 612.305L243.2 602.805C242.272 601.877 242.272 600.374 243.2 599.447C244.128 598.519 245.631 598.519 246.558 599.447L256.058 608.946C256.391 609.278 256.617 609.701 256.709 610.162C256.801 610.623 256.754 611.101 256.574 611.535C256.394 611.969 256.09 612.34 255.699 612.601C255.308 612.862 254.849 613.001 254.379 613ZM206.875 608.251H197.375C196.062 608.251 195 607.189 195 605.876C195 604.563 196.062 603.501 197.375 603.501H206.875C208.188 603.501 209.25 604.563 209.25 605.876C209.25 607.189 208.188 608.251 206.875 608.251Z" fill="url(#paint25_linear_134_26)"/>
</g>
</g>
<defs>
<linearGradient id="paint0_linear_134_26" x1="-63.757" y1="-34.0071" x2="-63.757" y2="347.166" gradientUnits="userSpaceOnUse">
<stop stop-color="#FF9E0B"/>
<stop offset="1" stop-color="#EC4899"/>
</linearGradient>
<linearGradient id="paint1_linear_134_26" x1="1173" y1="695.827" x2="1173" y2="969.442" gradientUnits="userSpaceOnUse">
<stop stop-color="#FF9E0B"/>
<stop offset="1" stop-color="#F24E52"/>
</linearGradient>
<linearGradient id="paint2_linear_134_26" x1="882.5" y1="530" x2="882.5" y2="919" gradientUnits="userSpaceOnUse">
<stop stop-color="#FF9E0B"/>
<stop offset="1" stop-color="#9C67E7"/>
</linearGradient>
<linearGradient id="paint3_linear_134_26" x1="491" y1="30" x2="491" y2="162" gradientUnits="userSpaceOnUse">
<stop stop-color="#FF9E0B"/>
<stop offset="1" stop-color="#DA46EB"/>
</linearGradient>
<linearGradient id="paint4_linear_134_26" x1="599.5" y1="261" x2="599.5" y2="367" gradientUnits="userSpaceOnUse">
<stop stop-color="#FF9E0B"/>
<stop offset="0.49" stop-color="#F24E52"/>
</linearGradient>
<linearGradient id="paint5_linear_134_26" x1="1046" y1="19" x2="1046" y2="228" gradientUnits="userSpaceOnUse">
<stop stop-color="#FF9B0E"/>
<stop offset="1" stop-color="#DA46EB" stop-opacity="0.77"/>
</linearGradient>
<linearGradient id="paint6_linear_134_26" x1="100.13" y1="446.75" x2="100.13" y2="579.751" gradientUnits="userSpaceOnUse">
<stop stop-color="#F24E52"/>
<stop offset="1" stop-color="#9C67E7"/>
</linearGradient>
<linearGradient id="paint7_linear_134_26" x1="176" y1="451.501" x2="176" y2="660.501" gradientUnits="userSpaceOnUse">
<stop stop-color="#F24E52"/>
<stop offset="1" stop-color="#9C67E7"/>
</linearGradient>
<linearGradient id="paint8_linear_134_26" x1="176" y1="442" x2="176" y2="518" gradientUnits="userSpaceOnUse">
<stop stop-color="#F24E52"/>
<stop offset="1" stop-color="#9C67E7"/>
</linearGradient>
<linearGradient id="paint9_linear_134_26" x1="176" y1="484.75" x2="176" y2="556" gradientUnits="userSpaceOnUse">
<stop stop-color="#F24E52"/>
<stop offset="1" stop-color="#9C67E7"/>
</linearGradient>
<linearGradient id="paint10_linear_134_26" x1="52.5" y1="532.554" x2="52.5" y2="551.251" gradientUnits="userSpaceOnUse">
<stop stop-color="#F24E52"/>
<stop offset="1" stop-color="#9C67E7"/>
</linearGradient>
<linearGradient id="paint11_linear_134_26" x1="57.2498" y1="536.998" x2="57.2498" y2="551.251" gradientUnits="userSpaceOnUse">
<stop stop-color="#F24E52"/>
<stop offset="1" stop-color="#9C67E7"/>
</linearGradient>
<linearGradient id="paint12_linear_134_26" x1="62.0002" y1="536.997" x2="62.0002" y2="551.251" gradientUnits="userSpaceOnUse">
<stop stop-color="#F24E52"/>
<stop offset="1" stop-color="#9C67E7"/>
</linearGradient>
<linearGradient id="paint13_linear_134_26" x1="66.7504" y1="532.249" x2="66.7504" y2="551.251" gradientUnits="userSpaceOnUse">
<stop stop-color="#F24E52"/>
<stop offset="1" stop-color="#9C67E7"/>
</linearGradient>
<linearGradient id="paint14_linear_134_26" x1="76.2498" y1="532.554" x2="76.2498" y2="551.251" gradientUnits="userSpaceOnUse">
<stop stop-color="#F24E52"/>
<stop offset="1" stop-color="#9C67E7"/>
</linearGradient>
<linearGradient id="paint15_linear_134_26" x1="81.0001" y1="536.998" x2="81.0001" y2="551.251" gradientUnits="userSpaceOnUse">
<stop stop-color="#F24E52"/>
<stop offset="1" stop-color="#9C67E7"/>
</linearGradient>
<linearGradient id="paint16_linear_134_26" x1="85.7504" y1="536.997" x2="85.7504" y2="551.251" gradientUnits="userSpaceOnUse">
<stop stop-color="#F24E52"/>
<stop offset="1" stop-color="#9C67E7"/>
</linearGradient>
<linearGradient id="paint17_linear_134_26" x1="90.4999" y1="532.249" x2="90.4999" y2="551.251" gradientUnits="userSpaceOnUse">
<stop stop-color="#F24E52"/>
<stop offset="1" stop-color="#9C67E7"/>
</linearGradient>
<linearGradient id="paint18_linear_134_26" x1="100" y1="532.554" x2="100" y2="551.251" gradientUnits="userSpaceOnUse">
<stop stop-color="#F24E52"/>
<stop offset="1" stop-color="#9C67E7"/>
</linearGradient>
<linearGradient id="paint19_linear_134_26" x1="104.751" y1="536.998" x2="104.751" y2="551.251" gradientUnits="userSpaceOnUse">
<stop stop-color="#F24E52"/>
<stop offset="1" stop-color="#9C67E7"/>
</linearGradient>
<linearGradient id="paint20_linear_134_26" x1="109.501" y1="536.997" x2="109.501" y2="551.251" gradientUnits="userSpaceOnUse">
<stop stop-color="#F24E52"/>
<stop offset="1" stop-color="#9C67E7"/>
</linearGradient>
<linearGradient id="paint21_linear_134_26" x1="204.5" y1="532.249" x2="204.5" y2="551.25" gradientUnits="userSpaceOnUse">
<stop stop-color="#F24E52"/>
<stop offset="1" stop-color="#9C67E7"/>
</linearGradient>
<linearGradient id="paint22_linear_134_26" x1="176" y1="540.35" x2="176" y2="584.501" gradientUnits="userSpaceOnUse">
<stop stop-color="#F24E52"/>
<stop offset="1" stop-color="#9C67E7"/>
</linearGradient>
<linearGradient id="paint23_linear_134_26" x1="176" y1="570.251" x2="176" y2="641.501" gradientUnits="userSpaceOnUse">
<stop stop-color="#F24E52"/>
<stop offset="1" stop-color="#9C67E7"/>
</linearGradient>
<linearGradient id="paint24_linear_134_26" x1="176" y1="598.75" x2="176" y2="641.501" gradientUnits="userSpaceOnUse">
<stop stop-color="#F24E52"/>
<stop offset="1" stop-color="#9C67E7"/>
</linearGradient>
<linearGradient id="paint25_linear_134_26" x1="225.877" y1="598.751" x2="225.877" y2="613" gradientUnits="userSpaceOnUse">
<stop stop-color="#F24E52"/>
<stop offset="1" stop-color="#9C67E7"/>
</linearGradient>
<clipPath id="clip0_134_26">
<rect width="1200" height="630" fill="white"/>
</clipPath>
</defs>
</svg>
