<svg width="1200" height="630" viewBox="0 0 1200 630" fill="none" xmlns="http://www.w3.org/2000/svg">
<g clip-path="url(#clip0_148_64)">
<rect width="1200" height="630" fill="black"/>
<rect x="-427.809" y="-32.4841" width="729.486" height="376.173" transform="rotate(-19.4848 -427.809 -32.4841)" stroke="url(#paint0_linear_148_64)" stroke-width="5"/>
<rect x="883" y="695.827" width="580" height="273.616" transform="rotate(-35.26 883 695.827)" fill="url(#paint1_linear_148_64)"/>
<circle cx="882.5" cy="724.5" r="193" stroke="url(#paint2_linear_148_64)" stroke-width="3"/>
<path opacity="0.49" d="M415 58.3636C414.121 58.3636 413.367 58.0568 412.739 57.4432C412.117 56.822 411.811 56.0682 411.818 55.1818C411.811 54.3182 412.117 53.5795 412.739 52.9659C413.367 52.3523 414.121 52.0455 415 52.0455C415.833 52.0455 416.568 52.3523 417.205 52.9659C417.848 53.5795 418.174 54.3182 418.182 55.1818C418.174 55.7727 418.019 56.3106 417.716 56.7955C417.42 57.2727 417.034 57.6553 416.557 57.9432C416.08 58.2235 415.561 58.3636 415 58.3636ZM459.003 58.3636C458.124 58.3636 457.37 58.0568 456.741 57.4432C456.12 56.822 455.813 56.0682 455.821 55.1818C455.813 54.3182 456.12 53.5795 456.741 52.9659C457.37 52.3523 458.124 52.0455 459.003 52.0455C459.836 52.0455 460.571 52.3523 461.207 52.9659C461.851 53.5795 462.177 54.3182 462.184 55.1818C462.177 55.7727 462.021 56.3106 461.718 56.7955C461.423 57.2727 461.037 57.6553 460.559 57.9432C460.082 58.2235 459.563 58.3636 459.003 58.3636ZM503.005 58.3636C502.126 58.3636 501.372 58.0568 500.744 57.4432C500.122 56.822 499.816 56.0682 499.823 55.1818C499.816 54.3182 500.122 53.5795 500.744 52.9659C501.372 52.3523 502.126 52.0455 503.005 52.0455C503.838 52.0455 504.573 52.3523 505.21 52.9659C505.853 53.5795 506.179 54.3182 506.187 55.1818C506.179 55.7727 506.024 56.3106 505.721 56.7955C505.425 57.2727 505.039 57.6553 504.562 57.9432C504.085 58.2235 503.566 58.3636 503.005 58.3636ZM547.008 58.3636C546.129 58.3636 545.375 58.0568 544.746 57.4432C544.125 56.822 543.818 56.0682 543.826 55.1818C543.818 54.3182 544.125 53.5795 544.746 52.9659C545.375 52.3523 546.129 52.0455 547.008 52.0455C547.841 52.0455 548.576 52.3523 549.212 52.9659C549.856 53.5795 550.182 54.3182 550.189 55.1818C550.182 55.7727 550.026 56.3106 549.723 56.7955C549.428 57.2727 549.042 57.6553 548.564 57.9432C548.087 58.2235 547.568 58.3636 547.008 58.3636ZM415 91.3636C414.121 91.3636 413.367 91.0568 412.739 90.4432C412.117 89.822 411.811 89.0682 411.818 88.1818C411.811 87.3182 412.117 86.5795 412.739 85.9659C413.367 85.3523 414.121 85.0455 415 85.0455C415.833 85.0455 416.568 85.3523 417.205 85.9659C417.848 86.5795 418.174 87.3182 418.182 88.1818C418.174 88.7727 418.019 89.3106 417.716 89.7955C417.42 90.2727 417.034 90.6553 416.557 90.9432C416.08 91.2235 415.561 91.3636 415 91.3636ZM459.003 91.3636C458.124 91.3636 457.37 91.0568 456.741 90.4432C456.12 89.822 455.813 89.0682 455.821 88.1818C455.813 87.3182 456.12 86.5795 456.741 85.9659C457.37 85.3523 458.124 85.0455 459.003 85.0455C459.836 85.0455 460.571 85.3523 461.207 85.9659C461.851 86.5795 462.177 87.3182 462.184 88.1818C462.177 88.7727 462.021 89.3106 461.718 89.7955C461.423 90.2727 461.037 90.6553 460.559 90.9432C460.082 91.2235 459.563 91.3636 459.003 91.3636ZM503.005 91.3636C502.126 91.3636 501.372 91.0568 500.744 90.4432C500.122 89.822 499.816 89.0682 499.823 88.1818C499.816 87.3182 500.122 86.5795 500.744 85.9659C501.372 85.3523 502.126 85.0455 503.005 85.0455C503.838 85.0455 504.573 85.3523 505.21 85.9659C505.853 86.5795 506.179 87.3182 506.187 88.1818C506.179 88.7727 506.024 89.3106 505.721 89.7955C505.425 90.2727 505.039 90.6553 504.562 90.9432C504.085 91.2235 503.566 91.3636 503.005 91.3636ZM547.008 91.3636C546.129 91.3636 545.375 91.0568 544.746 90.4432C544.125 89.822 543.818 89.0682 543.826 88.1818C543.818 87.3182 544.125 86.5795 544.746 85.9659C545.375 85.3523 546.129 85.0455 547.008 85.0455C547.841 85.0455 548.576 85.3523 549.212 85.9659C549.856 86.5795 550.182 87.3182 550.189 88.1818C550.182 88.7727 550.026 89.3106 549.723 89.7955C549.428 90.2727 549.042 90.6553 548.564 90.9432C548.087 91.2235 547.568 91.3636 547.008 91.3636ZM415 124.364C414.121 124.364 413.367 124.057 412.739 123.443C412.117 122.822 411.811 122.068 411.818 121.182C411.811 120.318 412.117 119.58 412.739 118.966C413.367 118.352 414.121 118.045 415 118.045C415.833 118.045 416.568 118.352 417.205 118.966C417.848 119.58 418.174 120.318 418.182 121.182C418.174 121.773 418.019 122.311 417.716 122.795C417.42 123.273 417.034 123.655 416.557 123.943C416.08 124.223 415.561 124.364 415 124.364ZM459.003 124.364C458.124 124.364 457.37 124.057 456.741 123.443C456.12 122.822 455.813 122.068 455.821 121.182C455.813 120.318 456.12 119.58 456.741 118.966C457.37 118.352 458.124 118.045 459.003 118.045C459.836 118.045 460.571 118.352 461.207 118.966C461.851 119.58 462.177 120.318 462.184 121.182C462.177 121.773 462.021 122.311 461.718 122.795C461.423 123.273 461.037 123.655 460.559 123.943C460.082 124.223 459.563 124.364 459.003 124.364ZM503.005 124.364C502.126 124.364 501.372 124.057 500.744 123.443C500.122 122.822 499.816 122.068 499.823 121.182C499.816 120.318 500.122 119.58 500.744 118.966C501.372 118.352 502.126 118.045 503.005 118.045C503.838 118.045 504.573 118.352 505.21 118.966C505.853 119.58 506.179 120.318 506.187 121.182C506.179 121.773 506.024 122.311 505.721 122.795C505.425 123.273 505.039 123.655 504.562 123.943C504.085 124.223 503.566 124.364 503.005 124.364ZM547.008 124.364C546.129 124.364 545.375 124.057 544.746 123.443C544.125 122.822 543.818 122.068 543.826 121.182C543.818 120.318 544.125 119.58 544.746 118.966C545.375 118.352 546.129 118.045 547.008 118.045C547.841 118.045 548.576 118.352 549.212 118.966C549.856 119.58 550.182 120.318 550.189 121.182C550.182 121.773 550.026 122.311 549.723 122.795C549.428 123.273 549.042 123.655 548.564 123.943C548.087 124.223 547.568 124.364 547.008 124.364ZM415 157.364C414.121 157.364 413.367 157.057 412.739 156.443C412.117 155.822 411.811 155.068 411.818 154.182C411.811 153.318 412.117 152.58 412.739 151.966C413.367 151.352 414.121 151.045 415 151.045C415.833 151.045 416.568 151.352 417.205 151.966C417.848 152.58 418.174 153.318 418.182 154.182C418.174 154.773 418.019 155.311 417.716 155.795C417.42 156.273 417.034 156.655 416.557 156.943C416.08 157.223 415.561 157.364 415 157.364ZM459.003 157.364C458.124 157.364 457.37 157.057 456.741 156.443C456.12 155.822 455.813 155.068 455.821 154.182C455.813 153.318 456.12 152.58 456.741 151.966C457.37 151.352 458.124 151.045 459.003 151.045C459.836 151.045 460.571 151.352 461.207 151.966C461.851 152.58 462.177 153.318 462.184 154.182C462.177 154.773 462.021 155.311 461.718 155.795C461.423 156.273 461.037 156.655 460.559 156.943C460.082 157.223 459.563 157.364 459.003 157.364ZM503.005 157.364C502.126 157.364 501.372 157.057 500.744 156.443C500.122 155.822 499.816 155.068 499.823 154.182C499.816 153.318 500.122 152.58 500.744 151.966C501.372 151.352 502.126 151.045 503.005 151.045C503.838 151.045 504.573 151.352 505.21 151.966C505.853 152.58 506.179 153.318 506.187 154.182C506.179 154.773 506.024 155.311 505.721 155.795C505.425 156.273 505.039 156.655 504.562 156.943C504.085 157.223 503.566 157.364 503.005 157.364ZM547.008 157.364C546.129 157.364 545.375 157.057 544.746 156.443C544.125 155.822 543.818 155.068 543.826 154.182C543.818 153.318 544.125 152.58 544.746 151.966C545.375 151.352 546.129 151.045 547.008 151.045C547.841 151.045 548.576 151.352 549.212 151.966C549.856 152.58 550.182 153.318 550.189 154.182C550.182 154.773 550.026 155.311 549.723 155.795C549.428 156.273 549.042 156.655 548.564 156.943C548.087 157.223 547.568 157.364 547.008 157.364Z" fill="url(#paint3_linear_148_64)"/>
<mask id="path-5-outside-1_148_64" maskUnits="userSpaceOnUse" x="365" y="257" width="471" height="137" fill="black">
<rect fill="white" x="365" y="257" width="471" height="137"/>
<path d="M399.636 362L372.182 268.909H400.364L413.091 326.182H413.818L428.909 268.909H451.091L466.182 326.364H466.909L479.636 268.909H507.818L480.364 362H456.182L440.364 310H439.636L423.818 362H399.636ZM541.693 363.273C534.239 363.273 527.814 361.848 522.42 359C517.057 356.121 512.92 352 510.011 346.636C507.133 341.242 505.693 334.788 505.693 327.273C505.693 320.061 507.148 313.758 510.057 308.364C512.966 302.97 517.072 298.773 522.375 295.773C527.678 292.773 533.936 291.273 541.148 291.273C546.42 291.273 551.193 292.091 555.466 293.727C559.739 295.364 563.39 297.742 566.42 300.864C569.451 303.955 571.784 307.712 573.42 312.136C575.057 316.561 575.875 321.545 575.875 327.091V332.909H513.511V319.091H552.784C552.754 317.091 552.239 315.333 551.239 313.818C550.269 312.273 548.951 311.076 547.284 310.227C545.648 309.348 543.784 308.909 541.693 308.909C539.663 308.909 537.799 309.348 536.102 310.227C534.405 311.076 533.042 312.258 532.011 313.773C531.011 315.288 530.481 317.061 530.42 319.091V334C530.42 336.242 530.89 338.242 531.83 340C532.769 341.758 534.117 343.136 535.875 344.136C537.633 345.136 539.754 345.636 542.239 345.636C543.966 345.636 545.542 345.394 546.966 344.909C548.42 344.424 549.663 343.727 550.693 342.818C551.723 341.879 552.481 340.758 552.966 339.455H575.875C575.087 344.303 573.223 348.515 570.284 352.091C567.345 355.636 563.451 358.394 558.602 360.364C553.784 362.303 548.148 363.273 541.693 363.273ZM585.75 362V268.909H610.841V304.364H611.205C612.114 302 613.447 299.833 615.205 297.864C616.962 295.864 619.144 294.273 621.75 293.091C624.356 291.879 627.386 291.273 630.841 291.273C635.447 291.273 639.826 292.5 643.977 294.955C648.159 297.409 651.553 301.273 654.159 306.545C656.795 311.818 658.114 318.667 658.114 327.091C658.114 335.152 656.856 341.833 654.341 347.136C651.856 352.439 648.523 356.394 644.341 359C640.189 361.606 635.629 362.909 630.659 362.909C627.386 362.909 624.462 362.379 621.886 361.318C619.341 360.227 617.159 358.758 615.341 356.909C613.553 355.03 612.174 352.909 611.205 350.545H610.659V362H585.75ZM610.295 327.091C610.295 330.485 610.735 333.424 611.614 335.909C612.523 338.364 613.795 340.273 615.432 341.636C617.098 342.97 619.083 343.636 621.386 343.636C623.689 343.636 625.644 342.985 627.25 341.682C628.886 340.348 630.129 338.455 630.977 336C631.856 333.515 632.295 330.545 632.295 327.091C632.295 323.636 631.856 320.682 630.977 318.227C630.129 315.742 628.886 313.848 627.25 312.545C625.644 311.212 623.689 310.545 621.386 310.545C619.083 310.545 617.098 311.212 615.432 312.545C613.795 313.848 612.523 315.742 611.614 318.227C610.735 320.682 610.295 323.636 610.295 327.091ZM668.614 362V292.182H693.705V362H668.614ZM681.159 284.909C677.765 284.909 674.856 283.788 672.432 281.545C670.008 279.303 668.795 276.606 668.795 273.455C668.795 270.303 670.008 267.606 672.432 265.364C674.856 263.121 677.765 262 681.159 262C684.583 262 687.492 263.121 689.886 265.364C692.311 267.606 693.523 270.303 693.523 273.455C693.523 276.606 692.311 279.303 689.886 281.545C687.492 283.788 684.583 284.909 681.159 284.909ZM748.307 292.182V310.364H701.58V292.182H748.307ZM710.489 362V290.182C710.489 284.424 711.519 279.652 713.58 275.864C715.64 272.076 718.549 269.242 722.307 267.364C726.064 265.485 730.489 264.545 735.58 264.545C738.761 264.545 741.852 264.788 744.852 265.273C747.883 265.758 750.125 266.182 751.58 266.545L747.943 284.545C747.034 284.273 745.973 284.061 744.761 283.909C743.549 283.727 742.489 283.636 741.58 283.636C739.216 283.636 737.625 284.136 736.807 285.136C735.989 286.136 735.58 287.455 735.58 289.091V362H710.489ZM773.261 388.182C770.383 388.182 767.64 387.955 765.034 387.5C762.428 387.076 760.14 386.485 758.17 385.727L763.625 367.909C765.686 368.636 767.564 369.106 769.261 369.318C770.989 369.53 772.458 369.409 773.67 368.955C774.913 368.5 775.807 367.636 776.352 366.364L776.898 365.091L752.352 292.182H778.534L789.807 340.545H790.534L801.989 292.182H828.352L802.898 367.818C801.625 371.667 799.777 375.121 797.352 378.182C794.958 381.273 791.807 383.712 787.898 385.5C783.989 387.288 779.11 388.182 773.261 388.182Z"/>
</mask>
<path d="M399.636 362L394.841 363.414L395.898 367H399.636V362ZM372.182 268.909V263.909H365.494L367.386 270.323L372.182 268.909ZM400.364 268.909L405.245 267.824L404.374 263.909H400.364V268.909ZM413.091 326.182L408.21 327.266L409.08 331.182H413.091V326.182ZM413.818 326.182V331.182H417.671L418.653 327.456L413.818 326.182ZM428.909 268.909V263.909H425.056L424.074 267.635L428.909 268.909ZM451.091 268.909L455.927 267.639L454.947 263.909H451.091V268.909ZM466.182 326.364L461.346 327.634L462.326 331.364H466.182V326.364ZM466.909 326.364V331.364H470.923L471.791 327.445L466.909 326.364ZM479.636 268.909V263.909H475.623L474.755 267.828L479.636 268.909ZM507.818 268.909L512.614 270.323L514.506 263.909H507.818V268.909ZM480.364 362V367H484.102L485.159 363.414L480.364 362ZM456.182 362L451.398 363.455L452.477 367H456.182V362ZM440.364 310L445.147 308.545L444.069 305H440.364V310ZM439.636 310V305H435.931L434.853 308.545L439.636 310ZM423.818 362V367H427.523L428.602 363.455L423.818 362ZM404.432 360.586L376.978 267.495L367.386 270.323L394.841 363.414L404.432 360.586ZM372.182 273.909H400.364V263.909H372.182V273.909ZM395.483 269.994L408.21 327.266L417.972 325.097L405.245 267.824L395.483 269.994ZM413.091 331.182H413.818V321.182H413.091V331.182ZM418.653 327.456L433.744 270.183L424.074 267.635L408.983 324.908L418.653 327.456ZM428.909 273.909H451.091V263.909H428.909V273.909ZM446.255 270.179L461.346 327.634L471.018 325.093L455.927 267.639L446.255 270.179ZM466.182 331.364H466.909V321.364H466.182V331.364ZM471.791 327.445L484.518 269.99L474.755 267.828L462.027 325.282L471.791 327.445ZM479.636 273.909H507.818V263.909H479.636V273.909ZM503.022 267.495L475.568 360.586L485.159 363.414L512.614 270.323L503.022 267.495ZM480.364 357H456.182V367H480.364V357ZM460.965 360.545L445.147 308.545L435.58 311.455L451.398 363.455L460.965 360.545ZM440.364 305H439.636V315H440.364V305ZM434.853 308.545L419.035 360.545L428.602 363.455L444.42 311.455L434.853 308.545ZM423.818 357H399.636V367H423.818V357ZM522.42 359L520.056 363.406L520.071 363.414L520.086 363.421L522.42 359ZM510.011 346.636L505.6 348.991L505.608 349.005L505.616 349.02L510.011 346.636ZM510.057 308.364L514.458 310.737L514.458 310.737L510.057 308.364ZM522.375 295.773L524.837 300.125L524.837 300.125L522.375 295.773ZM555.466 293.727L557.254 289.058L557.254 289.058L555.466 293.727ZM566.42 300.864L562.833 304.347L562.842 304.355L562.85 304.364L566.42 300.864ZM573.42 312.136L568.731 313.871L568.731 313.871L573.42 312.136ZM575.875 332.909V337.909H580.875V332.909H575.875ZM513.511 332.909H508.511V337.909H513.511V332.909ZM513.511 319.091V314.091H508.511V319.091H513.511ZM552.784 319.091V324.091H557.86L557.784 319.015L552.784 319.091ZM551.239 313.818L547.003 316.476L547.034 316.524L547.066 316.572L551.239 313.818ZM547.284 310.227L544.918 314.632L544.967 314.658L545.016 314.683L547.284 310.227ZM536.102 310.227L538.338 314.699L538.37 314.684L538.402 314.667L536.102 310.227ZM532.011 313.773L527.877 310.961L527.857 310.99L527.838 311.019L532.011 313.773ZM530.42 319.091L525.423 318.942L525.42 319.016V319.091H530.42ZM531.83 340L527.42 342.357L527.42 342.357L531.83 340ZM535.875 344.136L533.402 348.482L533.402 348.482L535.875 344.136ZM546.966 344.909L545.385 340.166L545.37 340.171L545.355 340.176L546.966 344.909ZM550.693 342.818L554.001 346.567L554.032 346.54L554.062 346.513L550.693 342.818ZM552.966 339.455V334.455H549.491L548.28 337.711L552.966 339.455ZM575.875 339.455L580.81 340.257L581.753 334.455H575.875V339.455ZM570.284 352.091L574.133 355.282L574.14 355.274L574.147 355.266L570.284 352.091ZM558.602 360.364L560.469 365.002L560.477 364.999L560.484 364.996L558.602 360.364ZM541.693 358.273C534.874 358.273 529.287 356.972 524.755 354.579L520.086 363.421C526.342 366.725 533.603 368.273 541.693 368.273V358.273ZM524.785 354.594C520.283 352.178 516.852 348.761 514.407 344.253L505.616 349.02C508.989 355.239 513.83 360.064 520.056 363.406L524.785 354.594ZM514.422 344.282C512.009 339.761 510.693 334.152 510.693 327.273H500.693C500.693 335.423 502.256 342.724 505.6 348.991L514.422 344.282ZM510.693 327.273C510.693 320.742 512.006 315.283 514.458 310.737L505.656 305.99C502.289 312.232 500.693 319.379 500.693 327.273H510.693ZM514.458 310.737C516.922 306.167 520.359 302.658 524.837 300.125L519.913 291.421C513.785 294.887 509.009 299.772 505.656 305.99L514.458 310.737ZM524.837 300.125C529.262 297.621 534.639 296.273 541.148 296.273V286.273C533.232 286.273 526.094 287.924 519.913 291.421L524.837 300.125ZM541.148 296.273C545.901 296.273 550.056 297.009 553.678 298.397L557.254 289.058C552.331 287.172 546.94 286.273 541.148 286.273V296.273ZM553.678 298.397C557.308 299.787 560.335 301.774 562.833 304.347L570.008 297.381C566.445 293.711 562.17 290.941 557.254 289.058L553.678 298.397ZM562.85 304.364C565.344 306.908 567.317 310.048 568.731 313.871L578.11 310.402C576.251 305.377 573.557 301.001 569.991 297.363L562.85 304.364ZM568.731 313.871C570.129 317.652 570.875 322.036 570.875 327.091H580.875C580.875 321.055 579.984 315.469 578.11 310.402L568.731 313.871ZM570.875 327.091V332.909H580.875V327.091H570.875ZM575.875 327.909H513.511V337.909H575.875V327.909ZM518.511 332.909V319.091H508.511V332.909H518.511ZM513.511 324.091H552.784V314.091H513.511V324.091ZM557.784 319.015C557.74 316.162 556.99 313.455 555.412 311.064L547.066 316.572C547.488 317.212 547.767 318.019 547.785 319.167L557.784 319.015ZM555.474 311.161C554.011 308.829 552.004 307.02 549.553 305.771L545.016 314.683C545.897 315.132 546.527 315.716 547.003 316.476L555.474 311.161ZM549.65 305.822C547.199 304.506 544.504 303.909 541.693 303.909V313.909C543.064 313.909 544.097 314.191 544.918 314.632L549.65 305.822ZM541.693 303.909C538.914 303.909 536.255 304.518 533.803 305.787L538.402 314.667C539.344 314.179 540.412 313.909 541.693 313.909V303.909ZM533.866 305.755C531.433 306.972 529.405 308.714 527.877 310.961L536.146 316.584C536.678 315.801 537.378 315.18 538.338 314.699L533.866 305.755ZM527.838 311.019C526.268 313.398 525.508 316.097 525.423 318.942L535.418 319.24C535.455 318.024 535.755 317.178 536.184 316.527L527.838 311.019ZM525.42 319.091V334H535.42V319.091H525.42ZM525.42 334C525.42 336.96 526.047 339.787 527.42 342.357L536.239 337.643C535.734 336.697 535.42 335.525 535.42 334H525.42ZM527.42 342.357C528.811 344.96 530.837 347.023 533.402 348.482L538.348 339.791C537.398 339.25 536.727 338.555 536.239 337.643L527.42 342.357ZM533.402 348.482C536.068 349.999 539.084 350.636 542.239 350.636V340.636C540.424 340.636 539.197 340.274 538.348 339.791L533.402 348.482ZM542.239 350.636C544.434 350.636 546.564 350.328 548.577 349.642L545.355 340.176C544.52 340.46 543.498 340.636 542.239 340.636V350.636ZM548.547 349.653C550.564 348.98 552.413 347.969 554.001 346.567L547.385 339.069C546.913 339.485 546.277 339.868 545.385 340.166L548.547 349.653ZM554.062 346.513C555.679 345.039 556.889 343.249 557.652 341.198L548.28 337.711C548.073 338.266 547.768 338.719 547.324 339.123L554.062 346.513ZM552.966 344.455H575.875V334.455H552.966V344.455ZM570.94 338.653C570.285 342.685 568.765 346.065 566.422 348.916L574.147 355.266C577.682 350.966 579.89 345.922 580.81 340.257L570.94 338.653ZM566.435 348.9C564.09 351.728 560.91 354.029 556.72 355.731L560.484 364.996C565.992 362.758 570.599 359.545 574.133 355.282L566.435 348.9ZM556.735 355.725C552.635 357.376 547.658 358.273 541.693 358.273V368.273C548.637 368.273 554.933 367.231 560.469 365.002L556.735 355.725ZM585.75 362H580.75V367H585.75V362ZM585.75 268.909V263.909H580.75V268.909H585.75ZM610.841 268.909H615.841V263.909H610.841V268.909ZM610.841 304.364H605.841V309.364H610.841V304.364ZM611.205 304.364V309.364H614.639L615.871 306.159L611.205 304.364ZM615.205 297.864L618.935 301.193L618.948 301.178L618.96 301.164L615.205 297.864ZM621.75 293.091L623.815 297.645L623.837 297.635L623.859 297.625L621.75 293.091ZM643.977 294.955L641.433 299.259L641.439 299.263L641.446 299.267L643.977 294.955ZM654.159 306.545L649.677 308.761L649.682 308.771L649.687 308.782L654.159 306.545ZM654.341 347.136L649.823 344.994L649.818 345.004L649.813 345.015L654.341 347.136ZM644.341 359L641.696 354.757L641.69 354.761L641.683 354.765L644.341 359ZM621.886 361.318L619.917 365.914L619.95 365.928L619.983 365.942L621.886 361.318ZM615.341 356.909L611.719 360.356L611.747 360.386L611.776 360.415L615.341 356.909ZM611.205 350.545L615.83 348.648L614.558 345.545H611.205V350.545ZM610.659 350.545V345.545H605.659V350.545H610.659ZM610.659 362V367H615.659V362H610.659ZM611.614 335.909L606.9 337.576L606.912 337.611L606.925 337.646L611.614 335.909ZM615.432 341.636L612.231 345.477L612.269 345.509L612.308 345.541L615.432 341.636ZM627.25 341.682L630.4 345.565L630.408 345.558L627.25 341.682ZM630.977 336L626.263 334.333L626.257 334.35L626.252 334.366L630.977 336ZM630.977 318.227L626.246 319.843L626.257 319.878L626.27 319.913L630.977 318.227ZM627.25 312.545L624.056 316.392L624.095 316.425L624.135 316.457L627.25 312.545ZM615.432 312.545L618.546 316.457L618.555 316.45L615.432 312.545ZM611.614 318.227L606.918 316.509L606.912 316.526L606.906 316.542L611.614 318.227ZM590.75 362V268.909H580.75V362H590.75ZM585.75 273.909H610.841V263.909H585.75V273.909ZM605.841 268.909V304.364H615.841V268.909H605.841ZM610.841 309.364H611.205V299.364H610.841V309.364ZM615.871 306.159C616.554 304.382 617.562 302.731 618.935 301.193L611.474 294.535C609.331 296.936 607.673 299.618 606.538 302.569L615.871 306.159ZM618.96 301.164C620.215 299.736 621.806 298.556 623.815 297.645L619.685 288.537C616.482 289.99 613.709 291.991 611.449 294.563L618.96 301.164ZM623.859 297.625C625.684 296.775 627.97 296.273 630.841 296.273V286.273C626.803 286.273 623.028 286.982 619.641 288.557L623.859 297.625ZM630.841 296.273C634.509 296.273 638.014 297.237 641.433 299.259L646.522 290.651C641.638 287.763 636.385 286.273 630.841 286.273V296.273ZM641.446 299.267C644.623 301.131 647.41 304.174 649.677 308.761L658.641 304.33C655.696 298.371 651.695 293.687 646.508 290.642L641.446 299.267ZM649.687 308.782C651.86 313.127 653.114 319.132 653.114 327.091H663.114C663.114 318.201 661.731 310.509 658.631 304.309L649.687 308.782ZM653.114 327.091C653.114 334.671 651.925 340.562 649.823 344.994L658.859 349.279C661.787 343.105 663.114 335.632 663.114 327.091H653.114ZM649.813 345.015C647.66 349.611 644.915 352.751 641.696 354.757L646.985 363.243C652.13 360.037 656.052 355.268 658.869 349.258L649.813 345.015ZM641.683 354.765C638.339 356.864 634.702 357.909 630.659 357.909V367.909C636.555 367.909 642.04 366.348 646.999 363.235L641.683 354.765ZM630.659 357.909C627.927 357.909 625.666 357.467 623.79 356.695L619.983 365.942C623.258 367.29 626.846 367.909 630.659 367.909V357.909ZM623.856 356.722C621.867 355.87 620.238 354.757 618.906 353.403L611.776 360.415C614.081 362.758 616.815 364.585 619.917 365.914L623.856 356.722ZM618.963 353.462C617.596 352.026 616.561 350.428 615.83 348.648L606.579 352.443C607.788 355.39 609.51 358.035 611.719 360.356L618.963 353.462ZM611.205 345.545H610.659V355.545H611.205V345.545ZM605.659 350.545V362H615.659V350.545H605.659ZM610.659 357H585.75V367H610.659V357ZM605.295 327.091C605.295 330.898 605.786 334.427 606.9 337.576L616.328 334.242C615.684 332.422 615.295 330.072 615.295 327.091H605.295ZM606.925 337.646C608.069 340.733 609.786 343.44 612.231 345.477L618.633 337.795C617.805 337.106 616.977 335.994 616.302 334.173L606.925 337.646ZM612.308 345.541C614.934 347.641 618.044 348.636 621.386 348.636V338.636C620.123 338.636 619.263 338.298 618.555 337.732L612.308 345.541ZM621.386 348.636C624.698 348.636 627.801 347.673 630.4 345.565L624.1 337.799C623.486 338.297 622.681 338.636 621.386 338.636V348.636ZM630.408 345.558C632.915 343.515 634.621 340.764 635.703 337.634L626.252 334.366C625.637 336.145 624.858 337.182 624.092 337.806L630.408 345.558ZM635.691 337.667C636.808 334.51 637.295 330.947 637.295 327.091H627.295C627.295 330.144 626.904 332.521 626.263 334.333L635.691 337.667ZM637.295 327.091C637.295 323.238 636.809 319.681 635.685 316.542L626.27 319.913C626.904 321.683 627.295 324.035 627.295 327.091H637.295ZM635.709 316.612C634.63 313.453 632.918 310.667 630.365 308.634L624.135 316.457C624.855 317.03 625.627 318.032 626.246 319.843L635.709 316.612ZM630.444 308.698C627.846 306.542 624.727 305.545 621.386 305.545V315.545C622.652 315.545 623.442 315.883 624.056 316.392L630.444 308.698ZM621.386 305.545C618.044 305.545 614.934 306.541 612.308 308.641L618.555 316.45C619.263 315.883 620.123 315.545 621.386 315.545V305.545ZM612.317 308.634C609.795 310.643 608.06 313.388 606.918 316.509L616.309 319.945C616.985 318.097 617.796 317.054 618.546 316.457L612.317 308.634ZM606.906 316.542C605.782 319.681 605.295 323.238 605.295 327.091H615.295C615.295 324.035 615.687 321.683 616.321 319.913L606.906 316.542ZM668.614 362H663.614V367H668.614V362ZM668.614 292.182V287.182H663.614V292.182H668.614ZM693.705 292.182H698.705V287.182H693.705V292.182ZM693.705 362V367H698.705V362H693.705ZM672.432 281.545L669.037 285.216L669.037 285.216L672.432 281.545ZM672.432 265.364L669.037 261.693L669.037 261.693L672.432 265.364ZM689.886 265.364L686.468 269.013L686.48 269.023L686.491 269.034L689.886 265.364ZM689.886 281.545L686.491 277.875L686.48 277.886L686.468 277.896L689.886 281.545ZM673.614 362V292.182H663.614V362H673.614ZM668.614 297.182H693.705V287.182H668.614V297.182ZM688.705 292.182V362H698.705V292.182H688.705ZM693.705 357H668.614V367H693.705V357ZM681.159 279.909C678.985 279.909 677.299 279.237 675.827 277.875L669.037 285.216C672.413 288.339 676.545 289.909 681.159 289.909V279.909ZM675.827 277.875C674.371 276.528 673.795 275.139 673.795 273.455H663.795C663.795 278.073 665.644 282.078 669.037 285.216L675.827 277.875ZM673.795 273.455C673.795 271.77 674.371 270.381 675.827 269.034L669.037 261.693C665.644 264.831 663.795 268.836 663.795 273.455H673.795ZM675.827 269.034C677.299 267.672 678.985 267 681.159 267V257C676.545 257 672.413 258.57 669.037 261.693L675.827 269.034ZM681.159 267C683.375 267 685.045 267.679 686.468 269.013L693.305 261.715C689.94 258.563 685.791 257 681.159 257V267ZM686.491 269.034C687.948 270.381 688.523 271.77 688.523 273.455H698.523C698.523 268.836 696.674 264.831 693.282 261.693L686.491 269.034ZM688.523 273.455C688.523 275.139 687.948 276.528 686.491 277.875L693.282 285.216C696.674 282.078 698.523 278.073 698.523 273.455H688.523ZM686.468 277.896C685.045 279.23 683.375 279.909 681.159 279.909V289.909C685.791 289.909 689.94 288.346 693.305 285.195L686.468 277.896ZM748.307 292.182H753.307V287.182H748.307V292.182ZM748.307 310.364V315.364H753.307V310.364H748.307ZM701.58 310.364H696.58V315.364H701.58V310.364ZM701.58 292.182V287.182H696.58V292.182H701.58ZM710.489 362H705.489V367H710.489V362ZM713.58 275.864L709.187 273.474L709.187 273.474L713.58 275.864ZM722.307 267.364L720.071 262.891L720.071 262.891L722.307 267.364ZM744.852 265.273L744.055 270.209L744.062 270.21L744.852 265.273ZM751.58 266.545L756.481 267.536L757.426 262.853L752.792 261.695L751.58 266.545ZM747.943 284.545L746.506 289.335L751.758 290.91L752.844 285.536L747.943 284.545ZM744.761 283.909L744.02 288.854L744.08 288.863L744.141 288.87L744.761 283.909ZM735.58 362V367H740.58V362H735.58ZM743.307 292.182V310.364H753.307V292.182H743.307ZM748.307 305.364H701.58V315.364H748.307V305.364ZM706.58 310.364V292.182H696.58V310.364H706.58ZM701.58 297.182H748.307V287.182H701.58V297.182ZM715.489 362V290.182H705.489V362H715.489ZM715.489 290.182C715.489 284.99 716.421 281.103 717.972 278.253L709.187 273.474C706.617 278.2 705.489 283.859 705.489 290.182H715.489ZM717.972 278.253C719.557 275.338 721.726 273.244 724.543 271.836L720.071 262.891C715.373 265.24 711.723 268.813 709.187 273.474L717.972 278.253ZM724.543 271.836C727.474 270.37 731.103 269.545 735.58 269.545V259.545C729.875 259.545 724.654 260.6 720.071 262.891L724.543 271.836ZM735.58 269.545C738.507 269.545 741.33 269.768 744.055 270.209L745.65 260.337C742.374 259.807 739.016 259.545 735.58 259.545V269.545ZM744.062 270.21C747.065 270.69 749.131 271.087 750.367 271.396L752.792 261.695C751.119 261.276 748.7 260.825 745.642 260.336L744.062 270.21ZM746.679 265.555L743.042 283.555L752.844 285.536L756.481 267.536L746.679 265.555ZM749.38 279.756C748.141 279.385 746.796 279.125 745.382 278.948L744.141 288.87C745.151 288.997 745.927 289.161 746.506 289.335L749.38 279.756ZM745.503 278.964C744.124 278.758 742.805 278.636 741.58 278.636V288.636C742.172 288.636 742.975 288.697 744.02 288.854L745.503 278.964ZM741.58 278.636C738.879 278.636 735.254 279.139 732.937 281.97L740.677 288.303C740.312 288.748 739.98 288.823 740.113 288.781C740.267 288.733 740.712 288.636 741.58 288.636V278.636ZM732.937 281.97C731.211 284.08 730.58 286.615 730.58 289.091H740.58C740.58 288.685 740.631 288.457 740.662 288.357C740.689 288.27 740.702 288.271 740.677 288.303L732.937 281.97ZM730.58 289.091V362H740.58V289.091H730.58ZM735.58 357H710.489V367H735.58V357ZM765.034 387.5L765.893 382.574L765.865 382.57L765.837 382.565L765.034 387.5ZM758.17 385.727L753.389 384.264L752.025 388.721L756.376 390.394L758.17 385.727ZM763.625 367.909L765.289 363.194L760.371 361.458L758.844 366.446L763.625 367.909ZM769.261 369.318L768.641 374.28L768.652 374.281L769.261 369.318ZM773.67 368.955L771.953 364.259L771.934 364.266L771.915 364.273L773.67 368.955ZM776.352 366.364L780.948 368.333L780.948 368.333L776.352 366.364ZM776.898 365.091L781.493 367.061L782.246 365.305L781.636 363.496L776.898 365.091ZM752.352 292.182V287.182H745.393L747.614 293.777L752.352 292.182ZM778.534 292.182L783.404 291.047L782.503 287.182H778.534V292.182ZM789.807 340.545L784.937 341.68L785.838 345.545H789.807V340.545ZM790.534 340.545V345.545H794.488L795.399 341.698L790.534 340.545ZM801.989 292.182V287.182H798.035L797.123 291.029L801.989 292.182ZM828.352 292.182L833.091 293.777L835.311 287.182H828.352V292.182ZM802.898 367.818L798.159 366.223L798.155 366.236L798.151 366.248L802.898 367.818ZM797.352 378.182L793.433 375.077L793.416 375.099L793.399 375.12L797.352 378.182ZM787.898 385.5L785.818 380.953L785.818 380.953L787.898 385.5ZM773.261 383.182C770.646 383.182 768.192 382.975 765.893 382.574L764.175 392.426C767.088 392.934 770.12 393.182 773.261 393.182V383.182ZM765.837 382.565C763.49 382.183 761.547 381.669 759.965 381.061L756.376 390.394C758.734 391.301 761.366 391.969 764.231 392.435L765.837 382.565ZM762.951 387.191L768.406 369.373L758.844 366.446L753.389 384.264L762.951 387.191ZM761.961 372.624C764.271 373.44 766.506 374.013 768.641 374.28L769.882 364.357C768.623 364.199 767.1 363.833 765.289 363.194L761.961 372.624ZM768.652 374.281C770.915 374.559 773.245 374.454 775.426 373.636L771.915 364.273C771.671 364.364 771.062 364.502 769.871 364.355L768.652 374.281ZM775.388 373.65C777.991 372.698 779.888 370.806 780.948 368.333L771.757 364.394C771.735 364.445 771.723 364.459 771.731 364.448C771.74 364.435 771.762 364.406 771.799 364.37C771.836 364.334 771.876 364.304 771.911 364.282C771.946 364.26 771.964 364.255 771.953 364.259L775.388 373.65ZM780.948 368.333L781.493 367.061L772.302 363.121L771.757 364.394L780.948 368.333ZM781.636 363.496L757.091 290.587L747.614 293.777L772.159 366.686L781.636 363.496ZM752.352 297.182H778.534V287.182H752.352V297.182ZM773.665 293.317L784.937 341.68L794.676 339.41L783.404 291.047L773.665 293.317ZM789.807 345.545H790.534V335.545H789.807V345.545ZM795.399 341.698L806.854 293.334L797.123 291.029L785.669 339.393L795.399 341.698ZM801.989 297.182H828.352V287.182H801.989V297.182ZM823.613 290.587L798.159 366.223L807.637 369.413L833.091 293.777L823.613 290.587ZM798.151 366.248C797.055 369.562 795.48 372.493 793.433 375.077L801.272 381.286C804.073 377.749 806.195 373.771 807.645 369.388L798.151 366.248ZM793.399 375.12C791.548 377.51 789.066 379.467 785.818 380.953L789.977 390.047C794.547 387.957 798.368 385.036 801.305 381.243L793.399 375.12ZM785.818 380.953C782.752 382.355 778.636 383.182 773.261 383.182V393.182C779.583 393.182 785.225 392.221 789.977 390.047L785.818 380.953Z" fill="url(#paint4_linear_148_64)" mask="url(#path-5-outside-1_148_64)"/>
<g opacity="0.28">
<path d="M196.266 590.751C194.956 590.751 193.868 589.688 193.868 588.376C193.868 587.063 194.907 586.001 196.22 586.001H196.266C196.578 586.001 196.887 586.062 197.176 586.181C197.464 586.301 197.726 586.476 197.946 586.696C198.167 586.917 198.342 587.179 198.461 587.467C198.581 587.755 198.642 588.064 198.642 588.376C198.642 588.688 198.58 588.997 198.461 589.285C198.342 589.573 198.167 589.835 197.946 590.056C197.725 590.276 197.464 590.451 197.175 590.571C196.887 590.69 196.578 590.751 196.266 590.751ZM68.0165 462.501C66.7061 462.501 65.6184 461.438 65.6184 460.125C65.6184 458.813 66.6574 457.75 67.9701 457.75H68.0165C68.3284 457.75 68.6373 457.812 68.9255 457.931C69.2137 458.05 69.4756 458.225 69.6961 458.446C69.9167 458.666 70.0916 458.928 70.2109 459.216C70.3302 459.504 70.3915 459.813 70.3914 460.125C70.3916 460.437 70.3303 460.746 70.2111 461.034C70.0918 461.323 69.9169 461.585 69.6963 461.805C69.4758 462.026 69.2139 462.201 68.9256 462.32C68.6374 462.44 68.3284 462.501 68.0165 462.501ZM77.5167 462.501C76.2062 462.501 75.1186 461.438 75.1186 460.125C75.1186 458.813 76.1575 457.75 77.4703 457.75H77.5167C77.8286 457.75 78.1375 457.812 78.4257 457.931C78.7139 458.05 78.9758 458.225 79.1963 458.446C79.4169 458.666 79.5918 458.928 79.7111 459.216C79.8304 459.504 79.8917 459.813 79.8916 460.125C79.8918 460.437 79.8305 460.746 79.7113 461.034C79.592 461.323 79.4171 461.585 79.1965 461.805C78.976 462.026 78.7141 462.201 78.4258 462.32C78.1376 462.44 77.8286 462.501 77.5167 462.501ZM87.0168 462.501C85.7064 462.501 84.6188 461.438 84.6188 460.125C84.6188 458.813 85.6577 457.75 86.9705 457.75H87.0168C87.3288 457.75 87.6377 457.812 87.9259 457.931C88.2141 458.05 88.4759 458.225 88.6965 458.446C88.9171 458.666 89.092 458.928 89.2113 459.216C89.3306 459.504 89.3919 459.813 89.3917 460.125C89.392 460.437 89.3307 460.746 89.2115 461.034C89.0922 461.323 88.9173 461.585 88.6967 461.805C88.4761 462.026 88.2142 462.201 87.926 462.32C87.6378 462.44 87.3288 462.501 87.0168 462.501Z" fill="url(#paint5_linear_148_64)"/>
<path d="M357.625 671.501H58.3749C58.063 671.501 57.754 671.44 57.4658 671.32C57.1775 671.201 56.9156 671.026 56.6951 670.806C56.4745 670.585 56.2996 670.323 56.1803 670.035C56.061 669.747 55.9998 669.438 56 669.126V464.876C55.9998 464.564 56.061 464.255 56.1803 463.967C56.2996 463.678 56.4745 463.416 56.6951 463.196C56.9156 462.975 57.1775 462.8 57.4658 462.681C57.754 462.562 58.063 462.501 58.3749 462.501H357.625C357.937 462.501 358.246 462.562 358.534 462.681C358.822 462.8 359.084 462.975 359.305 463.196C359.526 463.416 359.7 463.678 359.82 463.967C359.939 464.255 360 464.564 360 464.876V669.126C360 669.438 359.939 669.747 359.82 670.035C359.7 670.323 359.526 670.585 359.305 670.806C359.084 671.026 358.822 671.201 358.534 671.32C358.246 671.44 357.937 671.501 357.625 671.501ZM60.7498 666.751H355.25V467.251H60.7498V666.751Z" fill="url(#paint6_linear_148_64)"/>
<path d="M357.625 467.251H58.3749C58.063 467.251 57.754 467.19 57.4658 467.07C57.1775 466.951 56.9156 466.776 56.6951 466.556C56.4745 466.335 56.2996 466.073 56.1803 465.785C56.061 465.497 55.9998 465.188 56 464.876V460.125C56 456.196 59.1958 453 63.1247 453H352.875C356.803 453 359.999 456.196 359.999 460.125V464.876C360 465.188 359.939 465.497 359.819 465.785C359.7 466.073 359.525 466.335 359.305 466.555C359.084 466.776 358.822 466.951 358.534 467.07C358.246 467.19 357.937 467.251 357.625 467.251ZM60.7498 462.501H355.25V460.125C355.248 459.496 354.998 458.892 354.553 458.447C354.108 458.002 353.504 457.752 352.875 457.75H63.1247C62.4951 457.751 61.8915 458.002 61.4463 458.447C61.001 458.892 60.7506 459.496 60.7498 460.125V462.501ZM343.375 529H72.6249C72.3129 529.001 72.004 528.939 71.7158 528.82C71.4275 528.701 71.1656 528.526 70.9451 528.305C70.7245 528.085 70.5496 527.823 70.4303 527.535C70.311 527.246 70.2498 526.937 70.25 526.625V479.126C70.2498 478.814 70.3111 478.505 70.4304 478.217C70.5497 477.928 70.7247 477.667 70.9452 477.446C71.1658 477.225 71.4277 477.051 71.7159 476.931C72.0041 476.812 72.313 476.751 72.6249 476.751H343.375C343.686 476.751 343.995 476.812 344.284 476.931C344.572 477.051 344.834 477.225 345.054 477.446C345.275 477.667 345.45 477.928 345.569 478.217C345.688 478.505 345.75 478.814 345.749 479.126V526.625C345.75 526.937 345.688 527.246 345.569 527.534C345.45 527.823 345.275 528.084 345.055 528.305C344.834 528.526 344.572 528.701 344.284 528.82C343.996 528.939 343.687 529 343.375 529ZM75.0004 524.251H341V481.501H75.0004V524.251Z" fill="url(#paint7_linear_148_64)"/>
<path d="M305.375 500.501H110.625C110.313 500.501 110.004 500.44 109.716 500.32C109.428 500.201 109.166 500.026 108.945 499.806C108.725 499.585 108.55 499.323 108.43 499.035C108.311 498.747 108.25 498.438 108.25 498.126C108.25 497.814 108.311 497.505 108.43 497.217C108.549 496.929 108.724 496.667 108.945 496.446C109.166 496.225 109.427 496.05 109.716 495.931C110.004 495.812 110.313 495.75 110.625 495.75H305.375C305.687 495.75 305.996 495.812 306.284 495.931C306.572 496.05 306.834 496.225 307.055 496.446C307.275 496.667 307.45 496.929 307.569 497.217C307.689 497.505 307.75 497.814 307.75 498.126C307.75 498.438 307.688 498.747 307.569 499.035C307.45 499.323 307.275 499.585 307.054 499.806C306.834 500.026 306.572 500.201 306.284 500.32C305.996 500.44 305.687 500.501 305.375 500.501ZM257.875 510H158.125C156.812 510 155.75 508.938 155.75 507.626C155.75 506.313 156.812 505.251 158.125 505.251H257.875C259.188 505.251 260.25 506.313 260.25 507.626C260.25 508.938 259.188 510 257.875 510ZM343.375 567H72.6247C72.3127 567.001 72.0038 566.939 71.7155 566.82C71.4273 566.701 71.1654 566.526 70.9448 566.305C70.7242 566.085 70.5493 565.823 70.4301 565.535C70.3108 565.246 70.2495 564.937 70.2498 564.625V540.876C70.2495 540.564 70.3108 540.255 70.4301 539.967C70.5493 539.679 70.7242 539.417 70.9448 539.196C71.1654 538.976 71.4273 538.801 71.7155 538.681C72.0038 538.562 72.3127 538.501 72.6247 538.501H343.374C343.686 538.501 343.995 538.562 344.283 538.681C344.572 538.801 344.834 538.976 345.054 539.196C345.275 539.417 345.45 539.679 345.569 539.967C345.688 540.255 345.749 540.564 345.749 540.876V564.625C345.749 564.937 345.688 565.246 345.569 565.534C345.45 565.823 345.275 566.085 345.054 566.305C344.834 566.526 344.572 566.701 344.284 566.82C343.996 566.939 343.687 567.001 343.375 567ZM75.0001 562.251H341V543.251H75.0001V562.251Z" fill="url(#paint8_linear_148_64)"/>
<path d="M86.8751 562.251C86.3794 562.251 85.8961 562.095 85.4931 561.806C85.0901 561.518 84.7875 561.11 84.6279 560.641L79.8775 546.688C79.7768 546.393 79.7352 546.08 79.7551 545.769C79.7751 545.458 79.8562 545.153 79.9938 544.873C80.1315 544.593 80.3229 544.343 80.5573 544.137C80.7916 543.931 81.0643 543.774 81.3596 543.673C82.6005 543.269 83.9501 543.919 84.3725 545.158L89.1229 559.111C89.2237 559.406 89.2653 559.718 89.2453 560.03C89.2254 560.341 89.1443 560.645 89.0066 560.925C88.869 561.205 88.6775 561.456 88.4432 561.662C88.2088 561.868 87.9362 562.025 87.6408 562.126C87.3938 562.208 87.1353 562.25 86.8751 562.251Z" fill="url(#paint9_linear_148_64)"/>
<path d="M86.8723 562.251C86.4677 562.25 86.0699 562.146 85.7167 561.949C85.3634 561.752 85.0664 561.468 84.8538 561.123C84.6412 560.779 84.5201 560.386 84.5019 559.982C84.4837 559.578 84.5691 559.176 84.7499 558.814L89.5003 549.314C90.0895 548.145 91.5182 547.657 92.6872 548.251C93.2506 548.533 93.6791 549.027 93.8782 549.625C94.0774 550.223 94.031 550.875 93.7493 551.438L88.9995 560.938C88.8016 561.333 88.4978 561.664 88.1222 561.896C87.7465 562.128 87.3138 562.251 86.8723 562.251Z" fill="url(#paint10_linear_148_64)"/>
<path d="M96.3774 562.251C95.936 562.251 95.5034 562.128 95.1278 561.896C94.7522 561.664 94.4486 561.333 94.2508 560.938L89.5004 551.438C89.3608 551.159 89.2776 550.855 89.2555 550.544C89.2334 550.233 89.2728 549.92 89.3715 549.624C89.4702 549.328 89.6262 549.055 89.8306 548.819C90.0351 548.583 90.284 548.39 90.5631 548.251C91.7345 547.657 93.1631 548.144 93.7494 549.313L98.4998 558.813C98.6809 559.175 98.7665 559.577 98.7485 559.982C98.7304 560.386 98.6093 560.779 98.3967 561.124C98.1841 561.468 97.8869 561.752 97.5335 561.95C97.1801 562.147 96.7821 562.251 96.3774 562.251Z" fill="url(#paint11_linear_148_64)"/>
<path d="M96.3751 562.251C96.1268 562.251 95.8743 562.214 95.6236 562.13C95.0263 561.93 94.5329 561.501 94.2515 560.938C93.9702 560.374 93.924 559.722 94.1231 559.124L98.8729 544.874C98.9712 544.578 99.1269 544.304 99.3311 544.069C99.5354 543.833 99.7841 543.639 100.063 543.5C100.342 543.36 100.646 543.277 100.957 543.255C101.268 543.233 101.581 543.273 101.877 543.372C102.474 543.572 102.967 544.001 103.249 544.564C103.53 545.128 103.576 545.78 103.377 546.377L98.627 560.627C98.4692 561.1 98.1669 561.511 97.7628 561.802C97.3587 562.093 96.8732 562.25 96.3751 562.251Z" fill="url(#paint12_linear_148_64)"/>
<path d="M110.625 562.251C110.129 562.251 109.646 562.095 109.243 561.806C108.84 561.518 108.538 561.11 108.378 560.641L103.628 546.688C103.527 546.393 103.485 546.08 103.505 545.769C103.525 545.458 103.606 545.153 103.744 544.873C103.881 544.593 104.073 544.343 104.307 544.137C104.542 543.931 104.814 543.774 105.11 543.673C106.359 543.269 107.7 543.919 108.122 545.158L112.872 559.111C112.973 559.406 113.015 559.718 112.995 560.03C112.975 560.341 112.894 560.645 112.756 560.925C112.619 561.206 112.427 561.456 112.193 561.662C111.958 561.868 111.686 562.025 111.39 562.126C111.138 562.209 110.878 562.251 110.625 562.251Z" fill="url(#paint13_linear_148_64)"/>
<path d="M110.623 562.251C110.218 562.25 109.82 562.146 109.467 561.949C109.114 561.752 108.817 561.468 108.604 561.123C108.391 560.779 108.27 560.386 108.252 559.982C108.234 559.578 108.319 559.176 108.5 558.814L113.251 549.314C113.837 548.145 115.264 547.657 116.437 548.251C117 548.533 117.429 549.027 117.628 549.625C117.827 550.223 117.781 550.875 117.5 551.438L112.749 560.939C112.551 561.333 112.248 561.665 111.872 561.896C111.496 562.128 111.064 562.251 110.623 562.251Z" fill="url(#paint14_linear_148_64)"/>
<path d="M120.127 562.251C119.686 562.251 119.253 562.128 118.878 561.896C118.502 561.664 118.198 561.333 118.001 560.938L113.251 551.438C112.969 550.874 112.923 550.222 113.122 549.624C113.321 549.027 113.749 548.533 114.313 548.251C115.488 547.657 116.911 548.144 117.5 549.313L122.25 558.813C122.431 559.175 122.517 559.578 122.498 559.982C122.48 560.386 122.359 560.779 122.146 561.124C121.934 561.468 121.637 561.752 121.283 561.95C120.93 562.147 120.532 562.251 120.127 562.251Z" fill="url(#paint15_linear_148_64)"/>
<path d="M120.125 562.251C119.877 562.251 119.624 562.214 119.373 562.13C118.776 561.93 118.283 561.501 118.001 560.937C117.72 560.374 117.674 559.722 117.873 559.124L122.623 544.874C122.721 544.578 122.877 544.304 123.081 544.068C123.285 543.832 123.534 543.639 123.813 543.5C124.092 543.36 124.396 543.277 124.707 543.255C125.018 543.233 125.331 543.272 125.626 543.371C126.224 543.572 126.717 544 126.998 544.564C127.28 545.127 127.326 545.78 127.127 546.377L122.377 560.627C122.219 561.1 121.917 561.511 121.512 561.802C121.108 562.093 120.623 562.25 120.125 562.251Z" fill="url(#paint16_linear_148_64)"/>
<path d="M134.375 562.251C133.879 562.251 133.396 562.095 132.993 561.806C132.59 561.518 132.287 561.11 132.128 560.641L127.378 546.688C127.277 546.393 127.235 546.08 127.255 545.769C127.275 545.458 127.356 545.153 127.494 544.873C127.632 544.593 127.823 544.343 128.058 544.137C128.292 543.931 128.565 543.774 128.86 543.673C130.106 543.269 131.451 543.919 131.873 545.158L136.623 559.111C136.724 559.406 136.765 559.718 136.745 560.03C136.725 560.341 136.644 560.645 136.507 560.925C136.369 561.206 136.178 561.456 135.943 561.662C135.709 561.868 135.436 562.025 135.141 562.126C134.888 562.209 134.627 562.251 134.375 562.251Z" fill="url(#paint17_linear_148_64)"/>
<path d="M134.373 562.251C133.968 562.25 133.571 562.147 133.217 561.949C132.864 561.752 132.567 561.468 132.355 561.123C132.142 560.779 132.021 560.386 132.003 559.982C131.985 559.578 132.07 559.176 132.251 558.814L137.001 549.314C137.59 548.145 139.012 547.657 140.188 548.251C140.751 548.533 141.18 549.027 141.379 549.625C141.578 550.223 141.532 550.875 141.251 551.438L136.5 560.939C136.302 561.333 135.998 561.665 135.623 561.896C135.247 562.128 134.814 562.251 134.373 562.251Z" fill="url(#paint18_linear_148_64)"/>
<path d="M143.878 562.251C143.436 562.251 143.004 562.128 142.628 561.896C142.252 561.664 141.948 561.333 141.751 560.938L137.001 551.438C136.719 550.874 136.673 550.222 136.872 549.624C137.071 549.027 137.499 548.533 138.063 548.251C139.234 547.657 140.658 548.144 141.25 549.313L146 558.813C146.181 559.175 146.267 559.577 146.249 559.982C146.231 560.386 146.11 560.779 145.897 561.124C145.685 561.468 145.387 561.752 145.034 561.95C144.681 562.147 144.283 562.251 143.878 562.251Z" fill="url(#paint19_linear_148_64)"/>
<path d="M143.875 562.251C143.62 562.251 143.366 562.211 143.123 562.13C142.526 561.93 142.033 561.501 141.751 560.937C141.47 560.374 141.424 559.722 141.623 559.124L146.373 544.874C146.471 544.578 146.627 544.304 146.831 544.068C147.035 543.832 147.284 543.639 147.563 543.499C147.842 543.36 148.146 543.276 148.457 543.255C148.768 543.233 149.081 543.272 149.376 543.371C149.974 543.571 150.467 544 150.749 544.564C151.03 545.127 151.076 545.78 150.877 546.377L146.127 560.627C145.969 561.099 145.667 561.51 145.263 561.802C144.859 562.093 144.373 562.25 143.875 562.251ZM324.375 557.501C320.446 557.501 317.25 554.304 317.25 550.375C317.25 546.447 320.446 543.25 324.375 543.25C328.303 543.25 331.499 546.446 331.499 550.375C331.499 554.304 328.303 557.501 324.375 557.501ZM324.375 548.001C323.745 548.002 323.142 548.253 322.696 548.698C322.251 549.143 322.001 549.746 322 550.376C322 551.684 323.067 552.751 324.375 552.751C325.683 552.751 326.75 551.684 326.75 550.376C326.748 549.746 326.498 549.143 326.053 548.698C325.608 548.253 325.004 548.002 324.375 548.001Z" fill="url(#paint20_linear_148_64)"/>
<path d="M333.875 562.251C333.563 562.251 333.254 562.19 332.966 562.07C332.678 561.951 332.416 561.776 332.195 561.555L326.045 555.405C325.117 554.477 325.117 552.974 326.045 552.046C326.973 551.118 328.476 551.118 329.403 552.046L335.554 558.196C335.886 558.529 336.113 558.952 336.205 559.412C336.296 559.873 336.25 560.351 336.07 560.785C335.89 561.219 335.585 561.59 335.195 561.851C334.804 562.112 334.345 562.251 333.875 562.251ZM186.625 590.751H72.6247C72.3127 590.751 72.0038 590.69 71.7156 590.571C71.4274 590.451 71.1656 590.277 70.945 590.056C70.7244 589.835 70.5495 589.574 70.4302 589.285C70.3109 588.997 70.2496 588.688 70.2498 588.376C70.2495 588.064 70.3108 587.755 70.43 587.467C70.5493 587.179 70.7242 586.917 70.9448 586.696C71.1654 586.476 71.4273 586.301 71.7155 586.181C72.0037 586.062 72.3127 586.001 72.6247 586.001H186.625C186.936 586.001 187.245 586.062 187.534 586.181C187.822 586.301 188.084 586.476 188.304 586.696C188.525 586.917 188.7 587.179 188.819 587.467C188.938 587.755 189 588.064 188.999 588.376C189 588.688 188.938 588.997 188.819 589.285C188.7 589.574 188.525 589.835 188.305 590.056C188.084 590.277 187.822 590.451 187.534 590.571C187.246 590.69 186.937 590.751 186.625 590.751ZM343.375 590.751H310.125C309.813 590.751 309.504 590.69 309.216 590.571C308.928 590.452 308.666 590.277 308.445 590.056C308.224 589.836 308.05 589.574 307.93 589.286C307.811 588.997 307.75 588.688 307.75 588.376C307.749 588.064 307.811 587.755 307.93 587.467C308.049 587.179 308.224 586.917 308.445 586.696C308.666 586.475 308.927 586.301 309.216 586.181C309.504 586.062 309.813 586.001 310.125 586.001H343.375C343.687 586.001 343.996 586.062 344.284 586.181C344.572 586.301 344.834 586.476 345.055 586.696C345.275 586.917 345.45 587.179 345.57 587.467C345.689 587.755 345.75 588.064 345.75 588.376C345.75 588.688 345.689 588.997 345.569 589.285C345.45 589.573 345.275 589.835 345.054 590.056C344.834 590.276 344.572 590.451 344.284 590.571C343.996 590.69 343.687 590.751 343.375 590.751ZM281.625 595.501C281.313 595.501 281.004 595.44 280.715 595.321C280.427 595.201 280.166 595.026 279.945 594.805L275.195 590.055C274.268 589.127 274.268 587.624 275.195 586.697C276.123 585.77 277.626 585.769 278.554 586.697L283.303 591.447C283.524 591.667 283.699 591.929 283.818 592.217C283.938 592.505 283.999 592.814 283.999 593.126C283.999 593.438 283.938 593.746 283.818 594.035C283.699 594.323 283.524 594.584 283.303 594.805C283.083 595.026 282.822 595.201 282.534 595.321C282.245 595.44 281.936 595.501 281.625 595.501Z" fill="url(#paint21_linear_148_64)"/>
<path d="M281.625 595.501C281.313 595.501 281.004 595.44 280.715 595.32C280.427 595.201 280.166 595.026 279.945 594.805C279.725 594.584 279.55 594.323 279.43 594.034C279.311 593.746 279.25 593.438 279.25 593.126C279.25 592.814 279.311 592.505 279.43 592.217C279.55 591.929 279.725 591.667 279.945 591.447L289.445 581.947C289.666 581.726 289.928 581.551 290.216 581.432C290.504 581.312 290.813 581.251 291.124 581.251C291.436 581.251 291.745 581.312 292.033 581.432C292.321 581.551 292.583 581.726 292.803 581.947C293.024 582.167 293.199 582.429 293.318 582.717C293.438 583.005 293.499 583.314 293.499 583.626C293.499 583.938 293.438 584.247 293.318 584.535C293.199 584.823 293.024 585.085 292.803 585.305L283.303 594.805C283.083 595.026 282.822 595.201 282.534 595.321C282.245 595.44 281.936 595.501 281.625 595.501ZM215.124 590.751H205.625C205.313 590.751 205.004 590.69 204.716 590.571C204.428 590.451 204.166 590.276 203.945 590.056C203.725 589.835 203.55 589.573 203.43 589.285C203.311 588.997 203.25 588.688 203.25 588.376C203.25 588.064 203.311 587.755 203.43 587.467C203.55 587.179 203.724 586.917 203.945 586.696C204.166 586.476 204.427 586.301 204.716 586.181C205.004 586.062 205.313 586.001 205.625 586.001H215.124C215.436 586.001 215.745 586.062 216.034 586.181C216.322 586.301 216.584 586.476 216.804 586.696C217.025 586.917 217.2 587.179 217.319 587.467C217.438 587.755 217.5 588.064 217.499 588.376C217.499 588.688 217.438 588.997 217.319 589.285C217.199 589.573 217.025 589.835 216.804 590.056C216.583 590.276 216.322 590.451 216.033 590.57C215.745 590.69 215.436 590.751 215.124 590.751ZM201.016 647.75C199.706 647.75 198.618 646.689 198.618 645.376C198.618 644.063 199.657 643.001 200.97 643.001H201.016C201.328 643 201.637 643.062 201.926 643.181C202.214 643.3 202.476 643.475 202.696 643.696C202.917 643.916 203.092 644.178 203.211 644.466C203.331 644.755 203.392 645.064 203.392 645.376C203.392 645.687 203.331 645.996 203.211 646.285C203.092 646.573 202.917 646.835 202.696 647.055C202.476 647.276 202.214 647.451 201.926 647.57C201.637 647.689 201.328 647.751 201.016 647.75ZM191.375 647.75H72.6247C72.3127 647.751 72.0038 647.689 71.7155 647.57C71.4273 647.451 71.1654 647.276 70.9448 647.055C70.7242 646.835 70.5493 646.573 70.4301 646.285C70.3108 645.996 70.2495 645.687 70.2498 645.376C70.2496 645.064 70.3109 644.755 70.4302 644.467C70.5495 644.178 70.7244 643.916 70.945 643.696C71.1656 643.475 71.4274 643.3 71.7156 643.181C72.0038 643.062 72.3127 643 72.6247 643.001H191.374C191.686 643 191.995 643.062 192.283 643.181C192.572 643.3 192.833 643.475 193.054 643.696C193.275 643.916 193.449 644.178 193.569 644.467C193.688 644.755 193.749 645.064 193.749 645.376C193.75 645.687 193.688 645.996 193.569 646.285C193.45 646.573 193.275 646.835 193.055 647.055C192.834 647.276 192.572 647.451 192.284 647.57C191.996 647.689 191.687 647.751 191.375 647.75ZM343.375 647.75H310.125C309.813 647.751 309.504 647.69 309.216 647.57C308.928 647.451 308.666 647.276 308.445 647.056C308.224 646.835 308.049 646.573 307.93 646.285C307.811 645.997 307.749 645.688 307.75 645.376C307.75 645.064 307.811 644.755 307.93 644.466C308.05 644.178 308.224 643.916 308.445 643.696C308.666 643.475 308.928 643.3 309.216 643.181C309.504 643.062 309.813 643 310.125 643.001H343.375C343.687 643 343.996 643.062 344.284 643.181C344.572 643.3 344.834 643.475 345.055 643.696C345.275 643.916 345.45 644.178 345.569 644.467C345.689 644.755 345.75 645.064 345.75 645.376C345.75 645.687 345.689 645.996 345.569 646.285C345.45 646.573 345.275 646.835 345.055 647.055C344.834 647.276 344.572 647.451 344.284 647.57C343.996 647.689 343.687 647.751 343.375 647.75ZM281.625 652.501C281.313 652.501 281.004 652.44 280.715 652.32C280.427 652.201 280.166 652.026 279.945 651.805L275.195 647.055C274.975 646.834 274.8 646.573 274.681 646.285C274.561 645.996 274.5 645.688 274.5 645.376C274.5 645.064 274.561 644.755 274.681 644.467C274.8 644.179 274.975 643.917 275.195 643.697C275.416 643.476 275.678 643.301 275.966 643.182C276.254 643.063 276.563 643.001 276.875 643.001C277.186 643.001 277.495 643.063 277.783 643.182C278.071 643.301 278.333 643.476 278.554 643.697L283.303 648.447C283.524 648.667 283.699 648.929 283.818 649.217C283.938 649.505 283.999 649.814 283.999 650.126C283.999 650.437 283.938 650.746 283.818 651.034C283.699 651.322 283.524 651.584 283.303 651.805C283.083 652.026 282.822 652.201 282.534 652.32C282.245 652.44 281.936 652.501 281.625 652.501Z" fill="url(#paint22_linear_148_64)"/>
<path d="M281.625 652.501C281.313 652.501 281.004 652.44 280.715 652.32C280.427 652.201 280.166 652.025 279.945 651.805C279.725 651.584 279.55 651.322 279.43 651.034C279.311 650.746 279.25 650.437 279.25 650.126C279.25 649.814 279.311 649.505 279.43 649.217C279.55 648.929 279.725 648.667 279.945 648.447L289.445 638.947C289.666 638.726 289.928 638.551 290.216 638.432C290.504 638.313 290.813 638.251 291.124 638.251C291.436 638.251 291.745 638.313 292.033 638.432C292.321 638.551 292.583 638.726 292.803 638.947C293.024 639.167 293.199 639.429 293.318 639.717C293.438 640.005 293.499 640.314 293.499 640.626C293.499 640.938 293.438 641.247 293.318 641.535C293.199 641.823 293.024 642.085 292.803 642.305L283.303 651.805C283.083 652.026 282.822 652.201 282.534 652.32C282.245 652.44 281.936 652.501 281.625 652.501ZM219.875 647.75H210.375C210.063 647.751 209.754 647.689 209.466 647.57C209.177 647.451 208.915 647.276 208.695 647.055C208.474 646.835 208.299 646.573 208.18 646.285C208.061 645.996 208 645.687 208 645.375C208 645.064 208.061 644.755 208.18 644.466C208.3 644.178 208.474 643.916 208.695 643.696C208.916 643.475 209.177 643.3 209.466 643.181C209.754 643.062 210.063 643 210.375 643.001H219.875C220.187 643 220.496 643.062 220.784 643.181C221.072 643.3 221.334 643.475 221.555 643.696C221.775 643.916 221.95 644.178 222.069 644.466C222.189 644.755 222.25 645.064 222.25 645.375C222.25 645.687 222.189 645.996 222.069 646.285C221.95 646.573 221.775 646.835 221.555 647.055C221.334 647.276 221.072 647.451 220.784 647.57C220.496 647.689 220.187 647.751 219.875 647.75ZM220.018 619.25C218.706 619.25 217.62 618.188 217.62 616.875C217.62 615.563 218.659 614.501 219.967 614.501H220.018C220.648 614.501 221.252 614.751 221.697 615.196C222.143 615.642 222.393 616.246 222.394 616.875C222.393 617.505 222.143 618.109 221.697 618.555C221.252 619 220.648 619.25 220.018 619.25ZM210.375 619.25H72.6247C71.3119 619.25 70.2498 618.188 70.2498 616.875C70.2498 615.563 71.3119 614.501 72.6247 614.501H210.375C211.687 614.501 212.75 615.563 212.75 616.875C212.75 618.188 211.687 619.25 210.375 619.25ZM343.375 619.25H310.125C308.812 619.25 307.75 618.188 307.75 616.875C307.75 615.563 308.812 614.501 310.125 614.501H343.375C344.688 614.501 345.75 615.563 345.75 616.875C345.75 618.188 344.687 619.25 343.375 619.25ZM276.875 624C276.405 624 275.946 623.861 275.555 623.6C275.164 623.34 274.86 622.969 274.68 622.534C274.5 622.1 274.453 621.623 274.545 621.162C274.637 620.701 274.863 620.278 275.195 619.946L284.696 610.446C285.624 609.519 287.126 609.519 288.054 610.446C288.981 611.374 288.982 612.877 288.054 613.804L278.554 623.305C278.333 623.526 278.072 623.701 277.784 623.82C277.496 623.939 277.187 624.001 276.875 624Z" fill="url(#paint23_linear_148_64)"/>
<path d="M286.379 624C286.067 624.001 285.759 623.939 285.47 623.82C285.182 623.701 284.921 623.525 284.701 623.305L275.2 613.804C274.272 612.877 274.272 611.374 275.2 610.446C276.128 609.519 277.631 609.519 278.558 610.446L288.059 619.946C288.391 620.278 288.617 620.701 288.709 621.162C288.801 621.623 288.754 622.1 288.574 622.534C288.394 622.969 288.09 623.34 287.699 623.6C287.308 623.861 286.849 624 286.379 624ZM238.875 619.25H229.375C228.062 619.25 227 618.188 227 616.875C227 615.563 228.062 614.501 229.375 614.501H238.875C240.188 614.501 241.25 615.563 241.25 616.875C241.25 618.188 240.188 619.25 238.875 619.25Z" fill="url(#paint24_linear_148_64)"/>
</g>
<path d="M63.5234 34.8515L56 54.625H64.0948L67.8088 43.9341L63.5234 34.8515Z" fill="white"/>
<path d="M74.4751 54.625L64.8566 34H72.7609L82.3794 54.625H74.4751Z" fill="white"/>
<path d="M79.1073 39.0143L76.917 34H84.5356L87.0116 39.0143H79.1073Z" fill="white"/>
<path d="M86.2498 54.625L79.4883 40.3389H87.4878L94.4398 54.625H86.2498Z" fill="white"/>
<path d="M90.882 39.0143L88.6916 34H101.643L104.024 39.0143H90.882Z" fill="white"/>
<path d="M100.405 54.625L93.8342 40.3389H101.643L108.5 54.625H100.405Z" fill="white"/>
<path d="M140.648 39.3636V35.5455H155.818V39.3636H150.568V53H145.898V39.3636H140.648ZM157.602 53V35.5455H170.181V39.3636H162.34V42.3636H169.533V46.1818H162.34V49.1818H170.147V53H157.602ZM188.827 42.0909H184.02C183.986 41.6932 183.895 41.3324 183.747 41.0085C183.605 40.6847 183.406 40.4062 183.151 40.1733C182.901 39.9347 182.597 39.7528 182.239 39.6278C181.881 39.4972 181.474 39.4318 181.02 39.4318C180.224 39.4318 179.551 39.625 179 40.0114C178.455 40.3977 178.04 40.9517 177.756 41.6733C177.477 42.3949 177.338 43.2614 177.338 44.2727C177.338 45.3409 177.48 46.2358 177.764 46.9574C178.054 47.6733 178.472 48.2131 179.017 48.5767C179.563 48.9347 180.219 49.1136 180.986 49.1136C181.423 49.1136 181.815 49.0597 182.162 48.9517C182.509 48.8381 182.81 48.6761 183.065 48.4659C183.321 48.2557 183.528 48.0028 183.688 47.7074C183.852 47.4062 183.963 47.0682 184.02 46.6932L188.827 46.7273C188.77 47.4659 188.563 48.2187 188.205 48.9858C187.847 49.7472 187.338 50.4517 186.679 51.0994C186.026 51.7415 185.216 52.2585 184.25 52.6506C183.284 53.0426 182.162 53.2386 180.884 53.2386C179.281 53.2386 177.844 52.8949 176.571 52.2074C175.304 51.5199 174.301 50.5085 173.562 49.1733C172.83 47.8381 172.463 46.2045 172.463 44.2727C172.463 42.3295 172.838 40.6932 173.588 39.3636C174.338 38.0284 175.349 37.0199 176.622 36.3381C177.895 35.6506 179.315 35.3068 180.884 35.3068C181.986 35.3068 183 35.4574 183.926 35.7585C184.852 36.0597 185.665 36.5 186.364 37.0795C187.063 37.6534 187.625 38.3608 188.051 39.2017C188.477 40.0426 188.736 41.0057 188.827 42.0909ZM190.977 53V35.5455H195.715V42.3636H201.988V35.5455H206.727V53H201.988V46.1818H195.715V53H190.977ZM224.079 35.5455V53H220.124L213.817 43.8295H213.715V53H208.977V35.5455H212.999L219.204 44.6818H219.34V35.5455H224.079ZM243.229 44.2727C243.229 46.2159 242.852 47.8551 242.096 49.1903C241.34 50.5199 240.32 51.5284 239.036 52.2159C237.752 52.8977 236.32 53.2386 234.741 53.2386C233.15 53.2386 231.712 52.8949 230.428 52.2074C229.15 51.5142 228.133 50.5028 227.377 49.1733C226.627 47.8381 226.252 46.2045 226.252 44.2727C226.252 42.3295 226.627 40.6932 227.377 39.3636C228.133 38.0284 229.15 37.0199 230.428 36.3381C231.712 35.6506 233.15 35.3068 234.741 35.3068C236.32 35.3068 237.752 35.6506 239.036 36.3381C240.32 37.0199 241.34 38.0284 242.096 39.3636C242.852 40.6932 243.229 42.3295 243.229 44.2727ZM238.354 44.2727C238.354 43.2273 238.215 42.3466 237.937 41.6307C237.664 40.9091 237.258 40.3636 236.718 39.9943C236.184 39.6193 235.525 39.4318 234.741 39.4318C233.957 39.4318 233.295 39.6193 232.755 39.9943C232.221 40.3636 231.815 40.9091 231.536 41.6307C231.263 42.3466 231.127 43.2273 231.127 44.2727C231.127 45.3182 231.263 46.2017 231.536 46.9233C231.815 47.6392 232.221 48.1847 232.755 48.5597C233.295 48.929 233.957 49.1136 234.741 49.1136C235.525 49.1136 236.184 48.929 236.718 48.5597C237.258 48.1847 237.664 47.6392 237.937 46.9233C238.215 46.2017 238.354 45.3182 238.354 44.2727ZM254.831 41C254.786 40.4318 254.572 39.9886 254.192 39.6705C253.817 39.3523 253.246 39.1932 252.479 39.1932C251.99 39.1932 251.589 39.2528 251.277 39.3722C250.97 39.4858 250.743 39.642 250.595 39.8409C250.447 40.0398 250.371 40.267 250.365 40.5227C250.354 40.733 250.391 40.9233 250.476 41.0938C250.567 41.2585 250.709 41.4091 250.902 41.5455C251.095 41.6761 251.342 41.7955 251.643 41.9034C251.945 42.0114 252.303 42.108 252.717 42.1932L254.149 42.5C255.115 42.7045 255.942 42.9744 256.629 43.3097C257.317 43.6449 257.879 44.0398 258.317 44.4943C258.754 44.9432 259.075 45.4489 259.28 46.0114C259.49 46.5739 259.598 47.1875 259.604 47.8523C259.598 49 259.311 49.9716 258.743 50.767C258.175 51.5625 257.362 52.1676 256.305 52.5824C255.254 52.9972 253.99 53.2045 252.513 53.2045C250.996 53.2045 249.672 52.9801 248.541 52.5312C247.416 52.0824 246.541 51.392 245.916 50.4602C245.297 49.5227 244.984 48.3239 244.979 46.8636H249.479C249.507 47.3977 249.641 47.8466 249.879 48.2102C250.118 48.5739 250.453 48.8494 250.885 49.0369C251.322 49.2244 251.842 49.3182 252.445 49.3182C252.95 49.3182 253.374 49.2557 253.714 49.1307C254.055 49.0057 254.314 48.8324 254.49 48.6108C254.666 48.3892 254.757 48.1364 254.763 47.8523C254.757 47.5852 254.669 47.3523 254.499 47.1534C254.334 46.9489 254.061 46.767 253.68 46.608C253.3 46.4432 252.786 46.2898 252.138 46.1477L250.399 45.7727C248.854 45.4375 247.635 44.8778 246.743 44.0938C245.857 43.304 245.416 42.2273 245.422 40.8636C245.416 39.7557 245.712 38.7869 246.308 37.9574C246.911 37.1222 247.743 36.4716 248.805 36.0057C249.874 35.5398 251.098 35.3068 252.479 35.3068C253.888 35.3068 255.107 35.5426 256.135 36.0142C257.163 36.4858 257.956 37.1506 258.513 38.0085C259.075 38.8608 259.359 39.858 259.365 41H254.831ZM261.406 53V35.5455H268.94C270.236 35.5455 271.369 35.8011 272.341 36.3125C273.313 36.8239 274.068 37.5426 274.608 38.4688C275.148 39.3949 275.418 40.4773 275.418 41.7159C275.418 42.9659 275.139 44.0483 274.582 44.9631C274.031 45.8778 273.256 46.5824 272.256 47.0767C271.261 47.571 270.099 47.8182 268.77 47.8182H264.27V44.1364H267.815C268.372 44.1364 268.847 44.0398 269.239 43.8466C269.636 43.6477 269.94 43.3665 270.151 43.0028C270.366 42.6392 270.474 42.2102 270.474 41.7159C270.474 41.2159 270.366 40.7898 270.151 40.4375C269.94 40.0795 269.636 39.8068 269.239 39.6193C268.847 39.4261 268.372 39.3295 267.815 39.3295H266.145V53H261.406ZM279.511 53H274.397L280.158 35.5455H286.636L292.397 53H287.283L283.465 40.3523H283.329L279.511 53ZM278.556 46.1136H288.17V49.6591H278.556V46.1136ZM294.078 53V35.5455H301.612C302.908 35.5455 304.041 35.7812 305.013 36.2528C305.984 36.7244 306.74 37.4034 307.28 38.2898C307.82 39.1761 308.089 40.2386 308.089 41.4773C308.089 42.7273 307.811 43.7812 307.254 44.6392C306.703 45.4972 305.928 46.1449 304.928 46.5824C303.933 47.0199 302.771 47.2386 301.442 47.2386H296.942V43.5568H300.487C301.044 43.5568 301.518 43.4886 301.911 43.3523C302.308 43.2102 302.612 42.9858 302.822 42.679C303.038 42.3722 303.146 41.9716 303.146 41.4773C303.146 40.9773 303.038 40.571 302.822 40.2585C302.612 39.9403 302.308 39.7074 301.911 39.5597C301.518 39.4062 301.044 39.3295 300.487 39.3295H298.817V53H294.078ZM304.305 44.9886L308.669 53H303.521L299.26 44.9886H304.305ZM315.189 35.5455L318.053 40.625H318.189L321.087 35.5455H326.371L321.155 44.2727L326.575 53H321.155L318.189 47.8182H318.053L315.087 53H309.7L315.053 44.2727L309.871 35.5455H315.189Z" fill="white"/>
<g opacity="0.19">
<path d="M1128.64 37H927.732C920.175 37 914 43.1747 914 50.7318V224.268C914 231.825 920.175 238 927.732 238H1128.64C1136.2 238 1142.37 231.825 1142.37 224.268V50.7318C1142.37 43.1747 1136.2 37 1128.64 37ZM1094.36 46.1238C1099.33 46.1238 1103.48 50.271 1103.48 55.2476C1103.48 60.3164 1099.33 64.3714 1094.36 64.3714C1089.38 64.3714 1085.23 60.2242 1085.23 55.2476C1085.23 50.271 1089.38 46.1238 1094.36 46.1238ZM1069.29 46.1238C1074.27 46.1238 1078.41 50.271 1078.41 55.2476C1078.41 60.3164 1074.27 64.3714 1069.29 64.3714C1064.31 64.3714 1060.17 60.2242 1060.17 55.2476C1060.17 50.271 1064.22 46.1238 1069.29 46.1238ZM1128.64 225.835H927.732V73.4952H1128.64V225.835ZM1119.52 64.3714C1114.54 64.3714 1110.39 60.2242 1110.39 55.2476C1110.39 50.271 1114.54 46.1238 1119.52 46.1238C1124.49 46.1238 1128.64 50.271 1128.64 55.2476C1128.64 60.3164 1124.49 64.3714 1119.52 64.3714ZM998.695 87.6878H1068.83V100.959H998.695V87.6878ZM1026.34 118.008H1115.09V131.187H1026.34V118.008ZM1026.34 144.366H1115.09V157.545H1026.34V144.366ZM1026.34 171.092H1115.09V184.271H1026.34V171.092ZM940.265 197.45H1115.18V210.629H940.265V197.45ZM940.265 118.008H1002.75V183.165H940.265V118.008Z" fill="url(#paint25_linear_148_64)"/>
</g>
</g>
<defs>
<linearGradient id="paint0_linear_148_64" x1="-63.757" y1="-34.0071" x2="-63.757" y2="347.166" gradientUnits="userSpaceOnUse">
<stop stop-color="#FF9E0B"/>
<stop offset="1" stop-color="#EC4899"/>
</linearGradient>
<linearGradient id="paint1_linear_148_64" x1="1173" y1="695.827" x2="1173" y2="969.442" gradientUnits="userSpaceOnUse">
<stop stop-color="#FF9E0B"/>
<stop offset="1" stop-color="#F24E52"/>
</linearGradient>
<linearGradient id="paint2_linear_148_64" x1="882.5" y1="530" x2="882.5" y2="919" gradientUnits="userSpaceOnUse">
<stop stop-color="#FF9E0B"/>
<stop offset="1" stop-color="#9C67E7"/>
</linearGradient>
<linearGradient id="paint3_linear_148_64" x1="491" y1="30" x2="491" y2="162" gradientUnits="userSpaceOnUse">
<stop stop-color="#FF9E0B"/>
<stop offset="1" stop-color="#DA46EB"/>
</linearGradient>
<linearGradient id="paint4_linear_148_64" x1="600" y1="238" x2="600" y2="393" gradientUnits="userSpaceOnUse">
<stop stop-color="#FF9E0B"/>
<stop offset="0.49" stop-color="#F24E52"/>
</linearGradient>
<linearGradient id="paint5_linear_148_64" x1="132.13" y1="457.75" x2="132.13" y2="590.751" gradientUnits="userSpaceOnUse">
<stop stop-color="#F24E52"/>
<stop offset="1" stop-color="#9C67E7"/>
</linearGradient>
<linearGradient id="paint6_linear_148_64" x1="208" y1="462.501" x2="208" y2="671.501" gradientUnits="userSpaceOnUse">
<stop stop-color="#F24E52"/>
<stop offset="1" stop-color="#9C67E7"/>
</linearGradient>
<linearGradient id="paint7_linear_148_64" x1="208" y1="453" x2="208" y2="529" gradientUnits="userSpaceOnUse">
<stop stop-color="#F24E52"/>
<stop offset="1" stop-color="#9C67E7"/>
</linearGradient>
<linearGradient id="paint8_linear_148_64" x1="207.999" y1="495.75" x2="207.999" y2="567" gradientUnits="userSpaceOnUse">
<stop stop-color="#F24E52"/>
<stop offset="1" stop-color="#9C67E7"/>
</linearGradient>
<linearGradient id="paint9_linear_148_64" x1="84.5002" y1="543.554" x2="84.5002" y2="562.251" gradientUnits="userSpaceOnUse">
<stop stop-color="#F24E52"/>
<stop offset="1" stop-color="#9C67E7"/>
</linearGradient>
<linearGradient id="paint10_linear_148_64" x1="89.2498" y1="547.998" x2="89.2498" y2="562.251" gradientUnits="userSpaceOnUse">
<stop stop-color="#F24E52"/>
<stop offset="1" stop-color="#9C67E7"/>
</linearGradient>
<linearGradient id="paint11_linear_148_64" x1="94.0002" y1="547.997" x2="94.0002" y2="562.251" gradientUnits="userSpaceOnUse">
<stop stop-color="#F24E52"/>
<stop offset="1" stop-color="#9C67E7"/>
</linearGradient>
<linearGradient id="paint12_linear_148_64" x1="98.7502" y1="543.249" x2="98.7502" y2="562.251" gradientUnits="userSpaceOnUse">
<stop stop-color="#F24E52"/>
<stop offset="1" stop-color="#9C67E7"/>
</linearGradient>
<linearGradient id="paint13_linear_148_64" x1="108.25" y1="543.554" x2="108.25" y2="562.251" gradientUnits="userSpaceOnUse">
<stop stop-color="#F24E52"/>
<stop offset="1" stop-color="#9C67E7"/>
</linearGradient>
<linearGradient id="paint14_linear_148_64" x1="113" y1="547.998" x2="113" y2="562.251" gradientUnits="userSpaceOnUse">
<stop stop-color="#F24E52"/>
<stop offset="1" stop-color="#9C67E7"/>
</linearGradient>
<linearGradient id="paint15_linear_148_64" x1="117.75" y1="547.997" x2="117.75" y2="562.251" gradientUnits="userSpaceOnUse">
<stop stop-color="#F24E52"/>
<stop offset="1" stop-color="#9C67E7"/>
</linearGradient>
<linearGradient id="paint16_linear_148_64" x1="122.5" y1="543.249" x2="122.5" y2="562.251" gradientUnits="userSpaceOnUse">
<stop stop-color="#F24E52"/>
<stop offset="1" stop-color="#9C67E7"/>
</linearGradient>
<linearGradient id="paint17_linear_148_64" x1="132" y1="543.554" x2="132" y2="562.251" gradientUnits="userSpaceOnUse">
<stop stop-color="#F24E52"/>
<stop offset="1" stop-color="#9C67E7"/>
</linearGradient>
<linearGradient id="paint18_linear_148_64" x1="136.751" y1="547.998" x2="136.751" y2="562.251" gradientUnits="userSpaceOnUse">
<stop stop-color="#F24E52"/>
<stop offset="1" stop-color="#9C67E7"/>
</linearGradient>
<linearGradient id="paint19_linear_148_64" x1="141.501" y1="547.997" x2="141.501" y2="562.251" gradientUnits="userSpaceOnUse">
<stop stop-color="#F24E52"/>
<stop offset="1" stop-color="#9C67E7"/>
</linearGradient>
<linearGradient id="paint20_linear_148_64" x1="236.5" y1="543.249" x2="236.5" y2="562.251" gradientUnits="userSpaceOnUse">
<stop stop-color="#F24E52"/>
<stop offset="1" stop-color="#9C67E7"/>
</linearGradient>
<linearGradient id="paint21_linear_148_64" x1="208" y1="551.35" x2="208" y2="595.501" gradientUnits="userSpaceOnUse">
<stop stop-color="#F24E52"/>
<stop offset="1" stop-color="#9C67E7"/>
</linearGradient>
<linearGradient id="paint22_linear_148_64" x1="208" y1="581.251" x2="208" y2="652.501" gradientUnits="userSpaceOnUse">
<stop stop-color="#F24E52"/>
<stop offset="1" stop-color="#9C67E7"/>
</linearGradient>
<linearGradient id="paint23_linear_148_64" x1="208" y1="609.75" x2="208" y2="652.501" gradientUnits="userSpaceOnUse">
<stop stop-color="#F24E52"/>
<stop offset="1" stop-color="#9C67E7"/>
</linearGradient>
<linearGradient id="paint24_linear_148_64" x1="257.878" y1="609.751" x2="257.878" y2="624" gradientUnits="userSpaceOnUse">
<stop stop-color="#F24E52"/>
<stop offset="1" stop-color="#9C67E7"/>
</linearGradient>
<linearGradient id="paint25_linear_148_64" x1="1028.19" y1="37" x2="1028.19" y2="238" gradientUnits="userSpaceOnUse">
<stop stop-color="#FF9E0B"/>
<stop offset="1" stop-color="#EC4899"/>
</linearGradient>
<clipPath id="clip0_148_64">
<rect width="1200" height="630" fill="white"/>
</clipPath>
</defs>
</svg>
