<svg width="43" height="17" viewBox="0 0 43 17" fill="none" xmlns="http://www.w3.org/2000/svg">
<path d="M6.162 0.701835L0 17H6.63L9.672 8.18807L6.162 0.701835Z" fill="url(#paint0_linear_37_2)"/>
<path d="M15.132 17L7.254 0H13.728L21.606 17H15.132Z" fill="url(#paint1_linear_37_2)"/>
<path d="M18.926 4.13303L17.132 0H23.372L25.4 4.13303H18.926Z" fill="url(#paint2_linear_37_2)"/>
<path d="M24.776 17L19.238 5.22477H25.79L31.484 17H24.776Z" fill="url(#paint3_linear_37_2)"/>
<path d="M28.57 4.13303L26.776 0H37.384L39.334 4.13303H28.57Z" fill="url(#paint4_linear_37_2)"/>
<path d="M36.37 17L30.988 5.22477H37.384L43 17H36.37Z" fill="url(#paint5_linear_37_2)"/>
<defs>
<linearGradient id="paint0_linear_37_2" x1="21.5" y1="0" x2="21.5" y2="17" gradientUnits="userSpaceOnUse">
<stop stop-color="#9B37FF"/>
<stop offset="0.0001" stop-color="#6B00FF" stop-opacity="0.97144"/>
<stop offset="1" stop-color="#FF008A" stop-opacity="0.94"/>
</linearGradient>
<linearGradient id="paint1_linear_37_2" x1="21.5" y1="0" x2="21.5" y2="17" gradientUnits="userSpaceOnUse">
<stop stop-color="#9B37FF"/>
<stop offset="0.0001" stop-color="#6B00FF" stop-opacity="0.97144"/>
<stop offset="1" stop-color="#FF008A" stop-opacity="0.94"/>
</linearGradient>
<linearGradient id="paint2_linear_37_2" x1="21.5" y1="0" x2="21.5" y2="17" gradientUnits="userSpaceOnUse">
<stop stop-color="#9B37FF"/>
<stop offset="0.0001" stop-color="#6B00FF" stop-opacity="0.97144"/>
<stop offset="1" stop-color="#FF008A" stop-opacity="0.94"/>
</linearGradient>
<linearGradient id="paint3_linear_37_2" x1="21.5" y1="0" x2="21.5" y2="17" gradientUnits="userSpaceOnUse">
<stop stop-color="#9B37FF"/>
<stop offset="0.0001" stop-color="#6B00FF" stop-opacity="0.97144"/>
<stop offset="1" stop-color="#FF008A" stop-opacity="0.94"/>
</linearGradient>
<linearGradient id="paint4_linear_37_2" x1="21.5" y1="0" x2="21.5" y2="17" gradientUnits="userSpaceOnUse">
<stop stop-color="#9B37FF"/>
<stop offset="0.0001" stop-color="#6B00FF" stop-opacity="0.97144"/>
<stop offset="1" stop-color="#FF008A" stop-opacity="0.94"/>
</linearGradient>
<linearGradient id="paint5_linear_37_2" x1="21.5" y1="0" x2="21.5" y2="17" gradientUnits="userSpaceOnUse">
<stop stop-color="#9B37FF"/>
<stop offset="0.0001" stop-color="#6B00FF" stop-opacity="0.97144"/>
<stop offset="1" stop-color="#FF008A" stop-opacity="0.94"/>
</linearGradient>
</defs>
</svg>
