<svg width="1200" height="630" viewBox="0 0 1200 630" fill="none" xmlns="http://www.w3.org/2000/svg">
<g clip-path="url(#clip0_133_120)">
<rect width="1200" height="630" fill="black"/>
<g opacity="0.2">
<path d="M1133.25 87.701C1137.59 87.701 1141.83 86.4137 1145.44 84.0018C1149.05 81.5899 1151.86 78.1618 1153.52 74.151C1155.19 70.1401 1155.62 65.7267 1154.77 61.4689C1153.93 57.211 1151.84 53.2999 1148.77 50.2301C1145.7 47.1604 1141.79 45.0699 1137.53 44.2229C1133.27 43.376 1128.86 43.8107 1124.85 45.472C1120.84 47.1333 1117.41 49.9467 1115 53.5564C1112.58 57.166 1111.3 61.4098 1111.3 65.7511C1111.3 71.5704 1113.62 77.1493 1117.73 81.2642C1121.85 85.379 1127.43 87.6939 1133.25 87.701ZM1133.25 53.3555C1135.7 53.3537 1138.1 54.0792 1140.13 55.4402C1142.17 56.8012 1143.76 58.7365 1144.7 61.0013C1145.64 63.2661 1145.89 65.7587 1145.41 68.1638C1144.94 70.5689 1143.76 72.7785 1142.02 74.5129C1140.29 76.2474 1138.08 77.4288 1135.68 77.9078C1133.27 78.3868 1130.78 78.1419 1128.51 77.2039C1126.25 76.266 1124.31 74.6773 1122.95 72.6386C1121.59 70.6 1120.86 68.2031 1120.86 65.7511C1120.86 62.4659 1122.17 59.3157 1124.49 56.9919C1126.81 54.668 1129.96 53.3603 1133.25 53.3555Z" fill="url(#paint0_linear_133_120)"/>
<path d="M1294.78 91.6537V90.3631C1294.78 82.5851 1291.68 75.1277 1286.18 69.6278C1280.68 64.1279 1273.23 61.0349 1265.45 61.0278H1257.64L1228.41 2.68884C1228.03 1.88602 1227.42 1.20831 1226.67 0.732913C1225.91 0.257518 1225.04 0.00356537 1224.15 0H1133.93C1133.81 0 1133.71 0.0627413 1133.59 0.0717041C1133.46 0.080667 1133.37 0 1133.25 0H1043.07C1042.18 0.00356537 1041.31 0.257518 1040.55 0.732913C1039.8 1.20831 1039.19 1.88602 1038.8 2.68884L1009.58 61.0278H1001.78C994.001 61.0349 986.542 64.1276 981.041 69.6272C975.54 75.1269 972.445 82.5842 972.435 90.3631V91.6537C964.821 92.7861 957.866 96.6113 952.832 102.435C947.798 108.258 945.019 115.694 945 123.391V156.356C945 157.623 945.503 158.838 946.399 159.734C947.295 160.63 948.51 161.133 949.777 161.133H961.429V176.442C961.429 177.069 961.552 177.691 961.792 178.27C962.033 178.85 962.384 179.376 962.828 179.82C963.272 180.264 963.798 180.615 964.378 180.855C964.957 181.096 965.579 181.219 966.206 181.219C966.833 181.219 967.455 181.096 968.034 180.855C968.614 180.615 969.14 180.264 969.584 179.82C970.028 179.376 970.379 178.85 970.62 178.27C970.86 177.691 970.983 177.069 970.983 176.442V161.116H983.531V176.424C983.531 177.691 984.034 178.906 984.93 179.802C985.826 180.698 987.041 181.201 988.308 181.201C989.575 181.201 990.79 180.698 991.686 179.802C992.582 178.906 993.085 177.691 993.085 176.424V161.116H1004.74C1006 161.116 1007.22 160.612 1008.12 159.716C1009.01 158.82 1009.51 157.605 1009.51 156.338V123.373C1009.48 115.661 1006.69 108.215 1001.63 102.393C996.568 96.5713 989.587 92.7601 981.954 91.6537V90.3631C981.961 85.1175 984.048 80.0889 987.758 76.3806C991.468 72.6722 996.498 70.5869 1001.74 70.5822H1011.02L1128.43 155.254V183.433H1074.89C1067.63 183.454 1060.68 186.354 1055.55 191.495C1050.43 196.636 1047.55 203.6 1047.55 210.859V237.541C1047.55 237.694 1047.63 237.828 1047.64 237.99C1047.64 238.294 1047.55 238.572 1047.55 238.886C1047.54 244.2 1049.21 249.38 1052.34 253.679C1055.46 257.978 1059.87 261.171 1064.93 262.798C1069.99 264.424 1075.43 264.4 1080.48 262.728C1085.52 261.055 1089.9 257.822 1092.98 253.495C1095.29 256.74 1098.34 259.386 1101.87 261.211C1105.41 263.037 1109.33 263.99 1113.31 263.99C1117.29 263.99 1121.21 263.037 1124.75 261.211C1128.29 259.386 1131.34 256.74 1133.64 253.495C1135.95 256.74 1138.99 259.386 1142.53 261.211C1146.07 263.037 1149.99 263.99 1153.97 263.99C1157.95 263.99 1161.87 263.037 1165.41 261.211C1168.94 259.386 1171.99 256.74 1174.3 253.495C1177.4 257.787 1181.77 260.985 1186.81 262.632C1191.84 264.279 1197.26 264.289 1202.3 262.661C1207.33 261.033 1211.73 257.851 1214.84 253.571C1217.96 249.292 1219.64 244.135 1219.64 238.841C1219.64 238.527 1219.56 238.25 1219.55 237.945C1219.55 237.783 1219.64 237.649 1219.64 237.497V210.859C1219.63 203.6 1216.74 196.641 1211.61 191.508C1206.48 186.375 1199.52 183.487 1192.26 183.478H1138.71V155.236L1256.13 70.5642H1265.41C1270.66 70.5713 1275.68 72.6577 1279.39 76.3658C1283.1 80.0739 1285.19 85.1011 1285.19 90.3452V91.6537C1277.58 92.7859 1270.62 96.6107 1265.59 102.434C1260.55 108.257 1257.77 115.693 1257.75 123.391V156.356C1257.75 157.623 1258.25 158.838 1259.15 159.734C1260.04 160.63 1261.26 161.133 1262.53 161.133H1274.18V176.442C1274.18 177.709 1274.68 178.924 1275.58 179.82C1276.47 180.716 1277.69 181.219 1278.95 181.219C1280.22 181.219 1281.44 180.716 1282.33 179.82C1283.23 178.924 1283.73 177.709 1283.73 176.442V161.116H1296.28V176.424C1296.28 177.691 1296.78 178.906 1297.68 179.802C1298.57 180.698 1299.79 181.201 1301.06 181.201C1302.32 181.201 1303.54 180.698 1304.43 179.802C1305.33 178.906 1305.83 177.691 1305.83 176.424V161.116H1317.49C1318.75 161.116 1319.97 160.612 1320.86 159.716C1321.76 158.82 1322.26 157.605 1322.26 156.338V123.373C1322.24 115.672 1319.45 108.235 1314.41 102.415C1309.37 96.5943 1302.4 92.7759 1294.78 91.6537ZM999.834 123.373V151.561H954.519V123.373C954.519 117.364 956.906 111.601 961.155 107.352C965.404 103.102 971.167 100.715 977.176 100.715C983.186 100.715 988.949 103.102 993.198 107.352C997.447 111.601 999.834 117.364 999.834 123.373ZM1072.65 254.383C1069.57 254.381 1066.57 253.468 1064.02 251.759C1061.46 250.05 1059.47 247.622 1058.3 244.782C1057.12 241.942 1056.81 238.818 1057.42 235.804C1058.02 232.789 1059.5 230.021 1061.67 227.848C1063.84 225.676 1066.61 224.196 1069.63 223.598C1072.64 222.999 1075.77 223.307 1078.61 224.483C1081.45 225.66 1083.87 227.652 1085.58 230.208C1087.29 232.763 1088.2 235.768 1088.2 238.841C1088.2 242.964 1086.56 246.917 1083.64 249.831C1080.73 252.745 1076.77 254.383 1072.65 254.383ZM1113.3 254.383C1110.23 254.381 1107.23 253.468 1104.67 251.759C1102.12 250.05 1100.13 247.622 1098.95 244.782C1097.78 241.942 1097.47 238.818 1098.07 235.804C1098.67 232.789 1100.15 230.021 1102.33 227.848C1104.5 225.676 1107.27 224.196 1110.28 223.598C1113.3 222.999 1116.42 223.307 1119.26 224.483C1122.1 225.66 1124.53 227.652 1126.24 230.208C1127.94 232.763 1128.85 235.768 1128.85 238.841C1128.85 240.885 1128.45 242.909 1127.66 244.796C1126.88 246.684 1125.73 248.398 1124.28 249.841C1122.83 251.284 1121.12 252.428 1119.23 253.208C1117.34 253.987 1115.31 254.386 1113.27 254.383H1113.3ZM1153.96 254.383C1150.88 254.393 1147.87 253.491 1145.31 251.79C1142.75 250.088 1140.75 247.665 1139.56 244.826C1138.38 241.987 1138.06 238.86 1138.66 235.842C1139.25 232.824 1140.73 230.05 1142.9 227.871C1145.07 225.692 1147.84 224.206 1150.85 223.602C1153.87 222.998 1157 223.303 1159.84 224.477C1162.68 225.652 1165.11 227.644 1166.82 230.201C1168.53 232.758 1169.45 235.765 1169.45 238.841C1169.44 242.958 1167.81 246.906 1164.9 249.819C1161.99 252.732 1158.04 254.373 1153.92 254.383H1153.96ZM1194.61 254.383C1191.53 254.383 1188.53 253.471 1185.97 251.763C1183.42 250.056 1181.42 247.628 1180.25 244.789C1179.07 241.949 1178.76 238.824 1179.36 235.809C1179.96 232.794 1181.44 230.025 1183.62 227.852C1185.79 225.678 1188.56 224.198 1191.57 223.598C1194.59 222.998 1197.71 223.306 1200.55 224.483C1203.39 225.659 1205.82 227.651 1207.53 230.207C1209.24 232.762 1210.15 235.767 1210.15 238.841C1210.15 240.887 1209.74 242.912 1208.96 244.802C1208.17 246.691 1207.02 248.406 1205.57 249.85C1204.12 251.294 1202.4 252.437 1200.51 253.215C1198.62 253.993 1196.59 254.39 1194.54 254.383H1194.61ZM1192.33 192.987C1197.06 193.004 1201.58 194.895 1204.92 198.246C1208.25 201.596 1210.12 206.133 1210.11 210.859V219.338C1207.48 217.199 1204.43 215.623 1201.17 214.709C1197.9 213.794 1194.48 213.561 1191.12 214.023C1187.75 214.486 1184.52 215.633 1181.62 217.396C1178.72 219.158 1176.22 221.497 1174.26 224.268C1171.95 221.026 1168.9 218.384 1165.37 216.561C1161.83 214.737 1157.91 213.786 1153.93 213.786C1149.95 213.786 1146.03 214.737 1142.5 216.561C1138.96 218.384 1135.91 221.026 1133.6 224.268C1131.3 221.025 1128.25 218.381 1124.71 216.556C1121.18 214.732 1117.26 213.78 1113.28 213.78C1109.3 213.78 1105.38 214.732 1101.84 216.556C1098.3 218.381 1095.26 221.025 1092.95 224.268C1090.99 221.497 1088.48 219.158 1085.59 217.396C1082.69 215.634 1079.46 214.486 1076.09 214.023C1072.73 213.56 1069.31 213.792 1066.05 214.705C1062.78 215.617 1059.73 217.191 1057.1 219.329V210.859C1057.1 206.134 1058.98 201.604 1062.32 198.262C1065.66 194.92 1070.19 193.039 1074.92 193.032H1133.27C1133.4 193.032 1133.5 192.969 1133.61 192.96C1133.73 192.951 1133.84 193.032 1133.95 193.032L1192.33 192.987ZM1133.6 147.16L1027.35 70.5553H1088.66C1089.77 81.6103 1094.95 91.8589 1103.19 99.3126C1111.43 106.766 1122.14 110.894 1133.25 110.894C1144.37 110.894 1155.08 106.766 1163.32 99.3126C1171.56 91.8589 1176.74 81.6103 1177.84 70.5553H1219.83H1239.83L1133.6 147.16ZM1097.74 65.7512C1097.74 58.7253 1099.82 51.8567 1103.73 46.0142C1107.63 40.1716 1113.18 35.6176 1119.67 32.9281C1126.16 30.2386 1133.3 29.5344 1140.19 30.9047C1147.08 32.2749 1153.41 35.658 1158.38 40.6261C1163.35 45.5941 1166.73 51.9239 1168.1 58.8149C1169.47 65.7059 1168.77 72.8484 1166.08 79.3391C1163.39 85.8299 1158.83 91.3772 1152.99 95.2795C1147.15 99.1817 1140.28 101.264 1133.25 101.262C1123.84 101.25 1114.82 97.5049 1108.16 90.8479C1101.5 84.191 1097.76 75.1656 1097.74 65.7512ZM1177.85 60.9919C1176.74 49.937 1171.57 39.6883 1163.33 32.2346C1155.09 24.7809 1144.37 20.6537 1133.26 20.6537C1122.15 20.6537 1111.44 24.7809 1103.2 32.2346C1094.96 39.6883 1089.78 49.937 1088.67 60.9919C1063.36 60.9919 1034.12 60.9919 1020.24 60.9919L1046 9.59021H1133.25C1133.38 9.59021 1133.48 9.52747 1133.6 9.51851C1133.71 9.50955 1133.82 9.59021 1133.94 9.59021H1221.2L1246.96 60.9919C1232.96 61.0188 1203.3 61.0099 1177.84 60.9919H1177.85ZM1312.68 151.516H1267.35V123.373C1267.47 117.441 1269.91 111.791 1274.14 107.637C1278.38 103.484 1284.08 101.157 1290.01 101.157C1295.94 101.157 1301.64 103.484 1305.88 107.637C1310.12 111.791 1312.55 117.441 1312.67 123.373L1312.68 151.516Z" fill="url(#paint1_linear_133_120)"/>
</g>
<rect x="-427.809" y="-32.4841" width="729.486" height="376.173" transform="rotate(-19.4848 -427.809 -32.4841)" stroke="url(#paint2_linear_133_120)" stroke-width="5"/>
<rect x="883" y="695.827" width="580" height="273.616" transform="rotate(-35.26 883 695.827)" fill="url(#paint3_linear_133_120)"/>
<circle cx="882.5" cy="724.5" r="193" stroke="url(#paint4_linear_133_120)" stroke-width="3"/>
<path opacity="0.49" d="M920.5 53.5455C919.182 53.5455 918.051 53.0852 917.108 52.1648C916.176 51.233 915.716 50.1023 915.727 48.7727C915.716 47.4773 916.176 46.3693 917.108 45.4489C918.051 44.5284 919.182 44.0682 920.5 44.0682C921.75 44.0682 922.852 44.5284 923.807 45.4489C924.773 46.3693 925.261 47.4773 925.273 48.7727C925.261 49.6591 925.028 50.4659 924.574 51.1932C924.131 51.9091 923.551 52.483 922.835 52.9148C922.119 53.3352 921.341 53.5455 920.5 53.5455ZM986.504 53.5455C985.186 53.5455 984.055 53.0852 983.112 52.1648C982.18 51.233 981.72 50.1023 981.731 48.7727C981.72 47.4773 982.18 46.3693 983.112 45.4489C984.055 44.5284 985.186 44.0682 986.504 44.0682C987.754 44.0682 988.856 44.5284 989.811 45.4489C990.776 46.3693 991.265 47.4773 991.276 48.7727C991.265 49.6591 991.032 50.4659 990.578 51.1932C990.134 51.9091 989.555 52.483 988.839 52.9148C988.123 53.3352 987.345 53.5455 986.504 53.5455ZM1052.51 53.5455C1051.19 53.5455 1050.06 53.0852 1049.12 52.1648C1048.18 51.233 1047.72 50.1023 1047.73 48.7727C1047.72 47.4773 1048.18 46.3693 1049.12 45.4489C1050.06 44.5284 1051.19 44.0682 1052.51 44.0682C1053.76 44.0682 1054.86 44.5284 1055.81 45.4489C1056.78 46.3693 1057.27 47.4773 1057.28 48.7727C1057.27 49.6591 1057.04 50.4659 1056.58 51.1932C1056.14 51.9091 1055.56 52.483 1054.84 52.9148C1054.13 53.3352 1053.35 53.5455 1052.51 53.5455ZM1118.51 53.5455C1117.19 53.5455 1116.06 53.0852 1115.12 52.1648C1114.19 51.233 1113.73 50.1023 1113.74 48.7727C1113.73 47.4773 1114.19 46.3693 1115.12 45.4489C1116.06 44.5284 1117.19 44.0682 1118.51 44.0682C1119.76 44.0682 1120.86 44.5284 1121.82 45.4489C1122.78 46.3693 1123.27 47.4773 1123.28 48.7727C1123.27 49.6591 1123.04 50.4659 1122.59 51.1932C1122.14 51.9091 1121.56 52.483 1120.85 52.9148C1120.13 53.3352 1119.35 53.5455 1118.51 53.5455ZM920.5 102.545C919.182 102.545 918.051 102.085 917.108 101.165C916.176 100.233 915.716 99.1023 915.727 97.7727C915.716 96.4773 916.176 95.3693 917.108 94.4489C918.051 93.5284 919.182 93.0682 920.5 93.0682C921.75 93.0682 922.852 93.5284 923.807 94.4489C924.773 95.3693 925.261 96.4773 925.273 97.7727C925.261 98.6591 925.028 99.4659 924.574 100.193C924.131 100.909 923.551 101.483 922.835 101.915C922.119 102.335 921.341 102.545 920.5 102.545ZM986.504 102.545C985.186 102.545 984.055 102.085 983.112 101.165C982.18 100.233 981.72 99.1023 981.731 97.7727C981.72 96.4773 982.18 95.3693 983.112 94.4489C984.055 93.5284 985.186 93.0682 986.504 93.0682C987.754 93.0682 988.856 93.5284 989.811 94.4489C990.776 95.3693 991.265 96.4773 991.276 97.7727C991.265 98.6591 991.032 99.4659 990.578 100.193C990.134 100.909 989.555 101.483 988.839 101.915C988.123 102.335 987.345 102.545 986.504 102.545ZM1052.51 102.545C1051.19 102.545 1050.06 102.085 1049.12 101.165C1048.18 100.233 1047.72 99.1023 1047.73 97.7727C1047.72 96.4773 1048.18 95.3693 1049.12 94.4489C1050.06 93.5284 1051.19 93.0682 1052.51 93.0682C1053.76 93.0682 1054.86 93.5284 1055.81 94.4489C1056.78 95.3693 1057.27 96.4773 1057.28 97.7727C1057.27 98.6591 1057.04 99.4659 1056.58 100.193C1056.14 100.909 1055.56 101.483 1054.84 101.915C1054.13 102.335 1053.35 102.545 1052.51 102.545ZM1118.51 102.545C1117.19 102.545 1116.06 102.085 1115.12 101.165C1114.19 100.233 1113.73 99.1023 1113.74 97.7727C1113.73 96.4773 1114.19 95.3693 1115.12 94.4489C1116.06 93.5284 1117.19 93.0682 1118.51 93.0682C1119.76 93.0682 1120.86 93.5284 1121.82 94.4489C1122.78 95.3693 1123.27 96.4773 1123.28 97.7727C1123.27 98.6591 1123.04 99.4659 1122.59 100.193C1122.14 100.909 1121.56 101.483 1120.85 101.915C1120.13 102.335 1119.35 102.545 1118.51 102.545ZM920.5 151.545C919.182 151.545 918.051 151.085 917.108 150.165C916.176 149.233 915.716 148.102 915.727 146.773C915.716 145.477 916.176 144.369 917.108 143.449C918.051 142.528 919.182 142.068 920.5 142.068C921.75 142.068 922.852 142.528 923.807 143.449C924.773 144.369 925.261 145.477 925.273 146.773C925.261 147.659 925.028 148.466 924.574 149.193C924.131 149.909 923.551 150.483 922.835 150.915C922.119 151.335 921.341 151.545 920.5 151.545ZM986.504 151.545C985.186 151.545 984.055 151.085 983.112 150.165C982.18 149.233 981.72 148.102 981.731 146.773C981.72 145.477 982.18 144.369 983.112 143.449C984.055 142.528 985.186 142.068 986.504 142.068C987.754 142.068 988.856 142.528 989.811 143.449C990.776 144.369 991.265 145.477 991.276 146.773C991.265 147.659 991.032 148.466 990.578 149.193C990.134 149.909 989.555 150.483 988.839 150.915C988.123 151.335 987.345 151.545 986.504 151.545ZM1052.51 151.545C1051.19 151.545 1050.06 151.085 1049.12 150.165C1048.18 149.233 1047.72 148.102 1047.73 146.773C1047.72 145.477 1048.18 144.369 1049.12 143.449C1050.06 142.528 1051.19 142.068 1052.51 142.068C1053.76 142.068 1054.86 142.528 1055.81 143.449C1056.78 144.369 1057.27 145.477 1057.28 146.773C1057.27 147.659 1057.04 148.466 1056.58 149.193C1056.14 149.909 1055.56 150.483 1054.84 150.915C1054.13 151.335 1053.35 151.545 1052.51 151.545ZM1118.51 151.545C1117.19 151.545 1116.06 151.085 1115.12 150.165C1114.19 149.233 1113.73 148.102 1113.74 146.773C1113.73 145.477 1114.19 144.369 1115.12 143.449C1116.06 142.528 1117.19 142.068 1118.51 142.068C1119.76 142.068 1120.86 142.528 1121.82 143.449C1122.78 144.369 1123.27 145.477 1123.28 146.773C1123.27 147.659 1123.04 148.466 1122.59 149.193C1122.14 149.909 1121.56 150.483 1120.85 150.915C1120.13 151.335 1119.35 151.545 1118.51 151.545ZM920.5 200.545C919.182 200.545 918.051 200.085 917.108 199.165C916.176 198.233 915.716 197.102 915.727 195.773C915.716 194.477 916.176 193.369 917.108 192.449C918.051 191.528 919.182 191.068 920.5 191.068C921.75 191.068 922.852 191.528 923.807 192.449C924.773 193.369 925.261 194.477 925.273 195.773C925.261 196.659 925.028 197.466 924.574 198.193C924.131 198.909 923.551 199.483 922.835 199.915C922.119 200.335 921.341 200.545 920.5 200.545ZM986.504 200.545C985.186 200.545 984.055 200.085 983.112 199.165C982.18 198.233 981.72 197.102 981.731 195.773C981.72 194.477 982.18 193.369 983.112 192.449C984.055 191.528 985.186 191.068 986.504 191.068C987.754 191.068 988.856 191.528 989.811 192.449C990.776 193.369 991.265 194.477 991.276 195.773C991.265 196.659 991.032 197.466 990.578 198.193C990.134 198.909 989.555 199.483 988.839 199.915C988.123 200.335 987.345 200.545 986.504 200.545ZM1052.51 200.545C1051.19 200.545 1050.06 200.085 1049.12 199.165C1048.18 198.233 1047.72 197.102 1047.73 195.773C1047.72 194.477 1048.18 193.369 1049.12 192.449C1050.06 191.528 1051.19 191.068 1052.51 191.068C1053.76 191.068 1054.86 191.528 1055.81 192.449C1056.78 193.369 1057.27 194.477 1057.28 195.773C1057.27 196.659 1057.04 197.466 1056.58 198.193C1056.14 198.909 1055.56 199.483 1054.84 199.915C1054.13 200.335 1053.35 200.545 1052.51 200.545ZM1118.51 200.545C1117.19 200.545 1116.06 200.085 1115.12 199.165C1114.19 198.233 1113.73 197.102 1113.74 195.773C1113.73 194.477 1114.19 193.369 1115.12 192.449C1116.06 191.528 1117.19 191.068 1118.51 191.068C1119.76 191.068 1120.86 191.528 1121.82 192.449C1122.78 193.369 1123.27 194.477 1123.28 195.773C1123.27 196.659 1123.04 197.466 1122.59 198.193C1122.14 198.909 1121.56 199.483 1120.85 199.915C1120.13 200.335 1119.35 200.545 1118.51 200.545Z" fill="url(#paint5_linear_133_120)"/>
<mask id="path-7-outside-1_133_120" maskUnits="userSpaceOnUse" x="54" y="262" width="1090" height="108" fill="black">
<rect fill="white" x="54" y="262" width="1090" height="108"/>
<path d="M59.4545 289.273V268.909H140.364V289.273H112.364V362H87.4545V289.273H59.4545ZM149.875 362V268.909H216.966V289.273H175.148V305.273H213.511V325.636H175.148V341.636H216.784V362H149.875ZM316.409 303.818H290.773C290.591 301.697 290.106 299.773 289.318 298.045C288.561 296.318 287.5 294.833 286.136 293.591C284.803 292.318 283.182 291.348 281.273 290.682C279.364 289.985 277.197 289.636 274.773 289.636C270.53 289.636 266.939 290.667 264 292.727C261.091 294.788 258.879 297.742 257.364 301.591C255.879 305.439 255.136 310.061 255.136 315.455C255.136 321.152 255.894 325.924 257.409 329.773C258.955 333.591 261.182 336.47 264.091 338.409C267 340.318 270.5 341.273 274.591 341.273C276.924 341.273 279.015 340.985 280.864 340.409C282.712 339.803 284.318 338.939 285.682 337.818C287.045 336.697 288.152 335.348 289 333.773C289.879 332.167 290.47 330.364 290.773 328.364L316.409 328.545C316.106 332.485 315 336.5 313.091 340.591C311.182 344.652 308.47 348.409 304.955 351.864C301.47 355.288 297.152 358.045 292 360.136C286.848 362.227 280.864 363.273 274.045 363.273C265.5 363.273 257.833 361.439 251.045 357.773C244.288 354.106 238.939 348.712 235 341.591C231.091 334.47 229.136 325.758 229.136 315.455C229.136 305.091 231.136 296.364 235.136 289.273C239.136 282.152 244.53 276.773 251.318 273.136C258.106 269.47 265.682 267.636 274.045 267.636C279.924 267.636 285.333 268.439 290.273 270.045C295.212 271.652 299.545 274 303.273 277.091C307 280.152 310 283.924 312.273 288.409C314.545 292.894 315.924 298.03 316.409 303.818ZM327.875 362V268.909H353.148V305.273H386.602V268.909H411.875V362H386.602V325.636H353.148V362H327.875ZM449.375 362V268.909H514.83V289.273H474.648V305.273H510.83V325.636H474.648V362H449.375ZM524.125 362V268.909H591.216V289.273H549.398V305.273H587.761V325.636H549.398V341.636H591.034V362H524.125ZM653.932 298C653.689 294.97 652.553 292.606 650.523 290.909C648.523 289.212 645.477 288.364 641.386 288.364C638.78 288.364 636.644 288.682 634.977 289.318C633.341 289.924 632.129 290.758 631.341 291.818C630.553 292.879 630.144 294.091 630.114 295.455C630.053 296.576 630.25 297.591 630.705 298.5C631.189 299.379 631.947 300.182 632.977 300.909C634.008 301.606 635.326 302.242 636.932 302.818C638.538 303.394 640.447 303.909 642.659 304.364L650.295 306C655.447 307.091 659.856 308.53 663.523 310.318C667.189 312.106 670.189 314.212 672.523 316.636C674.856 319.03 676.568 321.727 677.659 324.727C678.78 327.727 679.356 331 679.386 334.545C679.356 340.667 677.826 345.848 674.795 350.091C671.765 354.333 667.432 357.561 661.795 359.773C656.189 361.985 649.447 363.091 641.568 363.091C633.477 363.091 626.417 361.894 620.386 359.5C614.386 357.106 609.72 353.424 606.386 348.455C603.083 343.455 601.417 337.061 601.386 329.273H625.386C625.538 332.121 626.25 334.515 627.523 336.455C628.795 338.394 630.583 339.864 632.886 340.864C635.22 341.864 637.992 342.364 641.205 342.364C643.902 342.364 646.159 342.03 647.977 341.364C649.795 340.697 651.174 339.773 652.114 338.591C653.053 337.409 653.538 336.061 653.568 334.545C653.538 333.121 653.068 331.879 652.159 330.818C651.28 329.727 649.826 328.758 647.795 327.909C645.765 327.03 643.023 326.212 639.568 325.455L630.295 323.455C622.053 321.667 615.553 318.682 610.795 314.5C606.068 310.288 603.72 304.545 603.75 297.273C603.72 291.364 605.295 286.197 608.477 281.773C611.689 277.318 616.129 273.848 621.795 271.364C627.492 268.879 634.023 267.636 641.386 267.636C648.902 267.636 655.402 268.894 660.886 271.409C666.371 273.924 670.598 277.47 673.568 282.045C676.568 286.591 678.083 291.909 678.114 298H653.932ZM686.455 289.273V268.909H767.364V289.273H739.364V362H714.455V289.273H686.455ZM802.557 362V343.818L837.284 315.091C839.587 313.182 841.557 311.394 843.193 309.727C844.86 308.03 846.133 306.288 847.011 304.5C847.92 302.712 848.375 300.727 848.375 298.545C848.375 296.152 847.86 294.106 846.83 292.409C845.83 290.712 844.436 289.409 842.648 288.5C840.86 287.561 838.799 287.091 836.466 287.091C834.133 287.091 832.072 287.561 830.284 288.5C828.527 289.439 827.163 290.818 826.193 292.636C825.223 294.455 824.739 296.667 824.739 299.273H800.739C800.739 292.727 802.208 287.091 805.148 282.364C808.087 277.636 812.239 274 817.602 271.455C822.966 268.909 829.254 267.636 836.466 267.636C843.92 267.636 850.375 268.833 855.83 271.227C861.314 273.591 865.542 276.924 868.511 281.227C871.511 285.53 873.011 290.576 873.011 296.364C873.011 299.939 872.269 303.5 870.784 307.045C869.299 310.561 866.633 314.455 862.784 318.727C858.936 323 853.466 328.091 846.375 334L837.648 341.273V341.818H874.011V362H802.557ZM925.852 364.545C917.398 364.515 910.095 362.561 903.943 358.682C897.792 354.803 893.049 349.212 889.716 341.909C886.383 334.606 884.731 325.848 884.761 315.636C884.792 305.394 886.458 296.697 889.761 289.545C893.095 282.394 897.822 276.955 903.943 273.227C910.095 269.5 917.398 267.636 925.852 267.636C934.307 267.636 941.61 269.515 947.761 273.273C953.913 277 958.655 282.439 961.989 289.591C965.322 296.742 966.973 305.424 966.943 315.636C966.943 325.909 965.277 334.697 961.943 342C958.61 349.303 953.867 354.894 947.716 358.773C941.595 362.621 934.307 364.545 925.852 364.545ZM925.852 344C930.216 344 933.792 341.727 936.58 337.182C939.398 332.606 940.792 325.424 940.761 315.636C940.761 309.242 940.125 304.015 938.852 299.955C937.58 295.894 935.822 292.894 933.58 290.955C931.337 288.985 928.761 288 925.852 288C921.489 288 917.928 290.212 915.17 294.636C912.413 299.061 911.004 306.061 910.943 315.636C910.913 322.152 911.534 327.515 912.807 331.727C914.08 335.909 915.837 339 918.08 341C920.352 343 922.943 344 925.852 344ZM978.807 362V343.818L1013.53 315.091C1015.84 313.182 1017.81 311.394 1019.44 309.727C1021.11 308.03 1022.38 306.288 1023.26 304.5C1024.17 302.712 1024.62 300.727 1024.62 298.545C1024.62 296.152 1024.11 294.106 1023.08 292.409C1022.08 290.712 1020.69 289.409 1018.9 288.5C1017.11 287.561 1015.05 287.091 1012.72 287.091C1010.38 287.091 1008.32 287.561 1006.53 288.5C1004.78 289.439 1003.41 290.818 1002.44 292.636C1001.47 294.455 1000.99 296.667 1000.99 299.273H976.989C976.989 292.727 978.458 287.091 981.398 282.364C984.337 277.636 988.489 274 993.852 271.455C999.216 268.909 1005.5 267.636 1012.72 267.636C1020.17 267.636 1026.63 268.833 1032.08 271.227C1037.56 273.591 1041.79 276.924 1044.76 281.227C1047.76 285.53 1049.26 290.576 1049.26 296.364C1049.26 299.939 1048.52 303.5 1047.03 307.045C1045.55 310.561 1042.88 314.455 1039.03 318.727C1035.19 323 1029.72 328.091 1022.62 334L1013.9 341.273V341.818H1050.26V362H978.807ZM1058.65 347.455V327.818L1096.1 268.909H1113.92V295.091H1103.74L1083.56 327.091V327.818H1138.83V347.455H1058.65ZM1103.92 362V341.455L1104.47 332.909V268.909H1128.1V362H1103.92Z"/>
</mask>
<path d="M59.4545 289.273H54.4545V294.273H59.4545V289.273ZM59.4545 268.909V263.909H54.4545V268.909H59.4545ZM140.364 268.909H145.364V263.909H140.364V268.909ZM140.364 289.273V294.273H145.364V289.273H140.364ZM112.364 289.273V284.273H107.364V289.273H112.364ZM112.364 362V367H117.364V362H112.364ZM87.4545 362H82.4545V367H87.4545V362ZM87.4545 289.273H92.4545V284.273H87.4545V289.273ZM64.4545 289.273V268.909H54.4545V289.273H64.4545ZM59.4545 273.909H140.364V263.909H59.4545V273.909ZM135.364 268.909V289.273H145.364V268.909H135.364ZM140.364 284.273H112.364V294.273H140.364V284.273ZM107.364 289.273V362H117.364V289.273H107.364ZM112.364 357H87.4545V367H112.364V357ZM92.4545 362V289.273H82.4545V362H92.4545ZM87.4545 284.273H59.4545V294.273H87.4545V284.273ZM149.875 362H144.875V367H149.875V362ZM149.875 268.909V263.909H144.875V268.909H149.875ZM216.966 268.909H221.966V263.909H216.966V268.909ZM216.966 289.273V294.273H221.966V289.273H216.966ZM175.148 289.273V284.273H170.148V289.273H175.148ZM175.148 305.273H170.148V310.273H175.148V305.273ZM213.511 305.273H218.511V300.273H213.511V305.273ZM213.511 325.636V330.636H218.511V325.636H213.511ZM175.148 325.636V320.636H170.148V325.636H175.148ZM175.148 341.636H170.148V346.636H175.148V341.636ZM216.784 341.636H221.784V336.636H216.784V341.636ZM216.784 362V367H221.784V362H216.784ZM154.875 362V268.909H144.875V362H154.875ZM149.875 273.909H216.966V263.909H149.875V273.909ZM211.966 268.909V289.273H221.966V268.909H211.966ZM216.966 284.273H175.148V294.273H216.966V284.273ZM170.148 289.273V305.273H180.148V289.273H170.148ZM175.148 310.273H213.511V300.273H175.148V310.273ZM208.511 305.273V325.636H218.511V305.273H208.511ZM213.511 320.636H175.148V330.636H213.511V320.636ZM170.148 325.636V341.636H180.148V325.636H170.148ZM175.148 346.636H216.784V336.636H175.148V346.636ZM211.784 341.636V362H221.784V341.636H211.784ZM216.784 357H149.875V367H216.784V357ZM316.409 303.818V308.818H321.845L321.392 303.401L316.409 303.818ZM290.773 303.818L285.791 304.245L286.183 308.818H290.773V303.818ZM289.318 298.045L284.739 300.054L284.754 300.087L284.769 300.12L289.318 298.045ZM286.136 293.591L282.684 297.208L282.726 297.248L282.769 297.287L286.136 293.591ZM281.273 290.682L279.558 295.379L279.591 295.391L279.624 295.402L281.273 290.682ZM264 292.727L261.13 288.633L261.12 288.64L261.11 288.647L264 292.727ZM257.364 301.591L252.711 299.759L252.705 299.775L252.699 299.791L257.364 301.591ZM257.409 329.773L252.757 331.604L252.765 331.627L252.774 331.649L257.409 329.773ZM264.091 338.409L261.317 342.569L261.332 342.579L261.348 342.589L264.091 338.409ZM280.864 340.409L282.351 345.183L282.386 345.172L282.421 345.16L280.864 340.409ZM285.682 337.818L288.857 341.68L288.857 341.68L285.682 337.818ZM289 333.773L284.614 331.373L284.606 331.387L284.598 331.402L289 333.773ZM290.773 328.364L290.808 323.364L286.478 323.333L285.829 327.615L290.773 328.364ZM316.409 328.545L321.394 328.929L321.806 323.584L316.445 323.546L316.409 328.545ZM313.091 340.591L317.616 342.718L317.619 342.712L317.622 342.705L313.091 340.591ZM304.955 351.864L308.459 355.43L308.459 355.43L304.955 351.864ZM292 360.136L290.12 355.503L292 360.136ZM251.045 357.773L248.661 362.167L248.669 362.172L251.045 357.773ZM235 341.591L230.617 343.997L230.621 344.004L230.625 344.011L235 341.591ZM235.136 289.273L239.491 291.729L239.496 291.721L235.136 289.273ZM251.318 273.136L253.679 277.544L253.687 277.54L253.695 277.536L251.318 273.136ZM290.273 270.045L291.819 265.29L291.819 265.29L290.273 270.045ZM303.273 277.091L300.081 280.94L300.09 280.947L300.1 280.955L303.273 277.091ZM312.273 288.409L307.813 290.669L307.813 290.669L312.273 288.409ZM316.409 298.818H290.773V308.818H316.409V298.818ZM295.754 303.391C295.53 300.769 294.92 298.277 293.867 295.97L284.769 300.12C285.293 301.268 285.652 302.625 285.791 304.245L295.754 303.391ZM293.897 296.037C292.865 293.683 291.397 291.62 289.504 289.895L282.769 297.287C283.603 298.047 284.256 298.953 284.739 300.054L293.897 296.037ZM289.589 289.974C287.691 288.163 285.437 286.84 282.921 285.961L279.624 295.402C280.926 295.857 281.915 296.473 282.684 297.208L289.589 289.974ZM282.987 285.985C280.434 285.053 277.672 284.636 274.773 284.636V294.636C276.722 294.636 278.293 294.917 279.558 295.379L282.987 285.985ZM274.773 284.636C269.695 284.636 265.054 285.882 261.13 288.633L266.87 296.821C268.824 295.452 271.366 294.636 274.773 294.636V284.636ZM261.11 288.647C257.286 291.355 254.524 295.154 252.711 299.759L262.016 303.423C263.233 300.331 264.895 298.22 266.89 296.807L261.11 288.647ZM252.699 299.791C250.936 304.36 250.136 309.625 250.136 315.455H260.136C260.136 310.497 260.822 306.518 262.028 303.391L252.699 299.791ZM250.136 315.455C250.136 321.558 250.943 326.998 252.757 331.604L262.062 327.941C260.845 324.851 260.136 320.745 260.136 315.455H250.136ZM252.774 331.649C254.628 336.228 257.432 339.979 261.317 342.569L266.864 334.249C264.931 332.96 263.281 330.954 262.044 327.897L252.774 331.649ZM261.348 342.589C265.206 345.122 269.7 346.273 274.591 346.273V336.273C271.3 336.273 268.794 335.515 266.834 334.229L261.348 342.589ZM274.591 346.273C277.329 346.273 279.934 345.936 282.351 345.183L279.377 335.635C278.097 336.034 276.52 336.273 274.591 336.273V346.273ZM282.421 345.16C284.8 344.381 286.968 343.234 288.857 341.68L282.506 333.956C281.669 334.645 280.625 335.226 279.306 335.658L282.421 345.16ZM288.857 341.68C290.73 340.141 292.25 338.283 293.402 336.143L284.598 331.402C284.053 332.414 283.361 333.253 282.506 333.956L288.857 341.68ZM293.386 336.173C294.574 334.002 295.335 331.631 295.716 329.113L285.829 327.615C285.605 329.096 285.184 330.331 284.614 331.373L293.386 336.173ZM290.737 333.364L316.374 333.545L316.445 323.546L290.808 323.364L290.737 333.364ZM311.424 328.162C311.173 331.423 310.251 334.854 308.56 338.476L317.622 342.705C319.749 338.146 321.039 333.547 321.394 328.929L311.424 328.162ZM308.566 338.464C306.933 341.938 304.584 345.217 301.45 348.297L308.459 355.43C312.355 351.601 315.431 347.365 317.616 342.718L308.566 338.464ZM301.45 348.297C298.492 351.204 294.748 353.625 290.12 355.503L293.88 364.769C299.555 362.466 304.448 359.371 308.459 355.43L301.45 348.297ZM290.12 355.503C285.684 357.304 280.361 358.273 274.045 358.273V368.273C281.367 368.273 288.013 367.151 293.88 364.769L290.12 355.503ZM274.045 358.273C266.239 358.273 259.404 356.605 253.422 353.374L248.669 362.172C256.263 366.274 264.761 368.273 274.045 368.273V358.273ZM253.43 353.378C247.561 350.193 242.881 345.508 239.375 339.171L230.625 344.011C234.998 351.916 241.015 358.019 248.661 362.167L253.43 353.378ZM239.383 339.185C235.973 332.973 234.136 325.137 234.136 315.455H224.136C224.136 326.378 226.209 335.966 230.617 343.997L239.383 339.185ZM234.136 315.455C234.136 305.721 236.014 297.893 239.491 291.729L230.781 286.816C226.258 294.835 224.136 304.46 224.136 315.455H234.136ZM239.496 291.721C243.059 285.377 247.782 280.703 253.679 277.544L248.957 268.729C241.279 272.842 235.213 278.926 230.777 286.824L239.496 291.721ZM253.695 277.536C259.692 274.296 266.44 272.636 274.045 272.636V262.636C264.924 262.636 256.52 264.644 248.942 268.737L253.695 277.536ZM274.045 272.636C279.467 272.636 284.348 273.377 288.727 274.8L291.819 265.29C286.319 263.502 280.381 262.636 274.045 262.636V272.636ZM288.727 274.8C293.109 276.225 296.875 278.281 300.081 280.94L306.464 273.242C302.216 269.719 297.315 267.078 291.819 265.29L288.727 274.8ZM300.1 280.955C303.269 283.557 305.84 286.776 307.813 290.669L316.733 286.149C314.16 281.073 310.731 276.746 306.446 273.227L300.1 280.955ZM307.813 290.669C309.753 294.497 310.987 298.991 311.427 304.236L321.392 303.401C320.861 297.069 319.338 291.291 316.733 286.149L307.813 290.669ZM327.875 362H322.875V367H327.875V362ZM327.875 268.909V263.909H322.875V268.909H327.875ZM353.148 268.909H358.148V263.909H353.148V268.909ZM353.148 305.273H348.148V310.273H353.148V305.273ZM386.602 305.273V310.273H391.602V305.273H386.602ZM386.602 268.909V263.909H381.602V268.909H386.602ZM411.875 268.909H416.875V263.909H411.875V268.909ZM411.875 362V367H416.875V362H411.875ZM386.602 362H381.602V367H386.602V362ZM386.602 325.636H391.602V320.636H386.602V325.636ZM353.148 325.636V320.636H348.148V325.636H353.148ZM353.148 362V367H358.148V362H353.148ZM332.875 362V268.909H322.875V362H332.875ZM327.875 273.909H353.148V263.909H327.875V273.909ZM348.148 268.909V305.273H358.148V268.909H348.148ZM353.148 310.273H386.602V300.273H353.148V310.273ZM391.602 305.273V268.909H381.602V305.273H391.602ZM386.602 273.909H411.875V263.909H386.602V273.909ZM406.875 268.909V362H416.875V268.909H406.875ZM411.875 357H386.602V367H411.875V357ZM391.602 362V325.636H381.602V362H391.602ZM386.602 320.636H353.148V330.636H386.602V320.636ZM348.148 325.636V362H358.148V325.636H348.148ZM353.148 357H327.875V367H353.148V357ZM449.375 362H444.375V367H449.375V362ZM449.375 268.909V263.909H444.375V268.909H449.375ZM514.83 268.909H519.83V263.909H514.83V268.909ZM514.83 289.273V294.273H519.83V289.273H514.83ZM474.648 289.273V284.273H469.648V289.273H474.648ZM474.648 305.273H469.648V310.273H474.648V305.273ZM510.83 305.273H515.83V300.273H510.83V305.273ZM510.83 325.636V330.636H515.83V325.636H510.83ZM474.648 325.636V320.636H469.648V325.636H474.648ZM474.648 362V367H479.648V362H474.648ZM454.375 362V268.909H444.375V362H454.375ZM449.375 273.909H514.83V263.909H449.375V273.909ZM509.83 268.909V289.273H519.83V268.909H509.83ZM514.83 284.273H474.648V294.273H514.83V284.273ZM469.648 289.273V305.273H479.648V289.273H469.648ZM474.648 310.273H510.83V300.273H474.648V310.273ZM505.83 305.273V325.636H515.83V305.273H505.83ZM510.83 320.636H474.648V330.636H510.83V320.636ZM469.648 325.636V362H479.648V325.636H469.648ZM474.648 357H449.375V367H474.648V357ZM524.125 362H519.125V367H524.125V362ZM524.125 268.909V263.909H519.125V268.909H524.125ZM591.216 268.909H596.216V263.909H591.216V268.909ZM591.216 289.273V294.273H596.216V289.273H591.216ZM549.398 289.273V284.273H544.398V289.273H549.398ZM549.398 305.273H544.398V310.273H549.398V305.273ZM587.761 305.273H592.761V300.273H587.761V305.273ZM587.761 325.636V330.636H592.761V325.636H587.761ZM549.398 325.636V320.636H544.398V325.636H549.398ZM549.398 341.636H544.398V346.636H549.398V341.636ZM591.034 341.636H596.034V336.636H591.034V341.636ZM591.034 362V367H596.034V362H591.034ZM529.125 362V268.909H519.125V362H529.125ZM524.125 273.909H591.216V263.909H524.125V273.909ZM586.216 268.909V289.273H596.216V268.909H586.216ZM591.216 284.273H549.398V294.273H591.216V284.273ZM544.398 289.273V305.273H554.398V289.273H544.398ZM549.398 310.273H587.761V300.273H549.398V310.273ZM582.761 305.273V325.636H592.761V305.273H582.761ZM587.761 320.636H549.398V330.636H587.761V320.636ZM544.398 325.636V341.636H554.398V325.636H544.398ZM549.398 346.636H591.034V336.636H549.398V346.636ZM586.034 341.636V362H596.034V341.636H586.034ZM591.034 357H524.125V367H591.034V357ZM653.932 298L648.948 298.399L649.316 303H653.932V298ZM650.523 290.909L647.288 294.722L647.302 294.734L647.316 294.745L650.523 290.909ZM634.977 289.318L636.714 294.007L636.737 293.998L636.761 293.989L634.977 289.318ZM631.341 291.818L627.327 288.837L627.327 288.837L631.341 291.818ZM630.114 295.455L635.106 295.724L635.111 295.645L635.112 295.566L630.114 295.455ZM630.705 298.5L626.232 300.736L626.278 300.827L626.327 300.915L630.705 298.5ZM632.977 300.909L630.094 304.994L630.135 305.023L630.176 305.051L632.977 300.909ZM642.659 304.364L643.707 299.475L643.686 299.47L643.665 299.466L642.659 304.364ZM650.295 306L649.248 310.889L649.26 310.892L650.295 306ZM663.523 310.318L661.331 314.812L661.331 314.812L663.523 310.318ZM672.523 316.636L668.92 320.104L668.931 320.115L668.942 320.126L672.523 316.636ZM677.659 324.727L672.96 326.436L672.968 326.457L672.976 326.478L677.659 324.727ZM679.386 334.545L684.386 334.57L684.386 334.536L684.386 334.503L679.386 334.545ZM674.795 350.091L678.864 352.997L678.864 352.997L674.795 350.091ZM661.795 359.773L659.969 355.118L659.96 355.122L661.795 359.773ZM620.386 359.5L618.533 364.144L618.541 364.147L620.386 359.5ZM606.386 348.455L602.214 351.211L602.224 351.225L602.234 351.24L606.386 348.455ZM601.386 329.273V324.273H596.367L596.386 329.292L601.386 329.273ZM625.386 329.273L630.379 329.007L630.127 324.273H625.386V329.273ZM627.523 336.455L623.342 339.198L623.342 339.198L627.523 336.455ZM632.886 340.864L630.895 345.45L630.906 345.455L630.917 345.459L632.886 340.864ZM647.977 341.364L649.699 346.058L649.699 346.058L647.977 341.364ZM652.114 338.591L656.028 341.702L656.028 341.702L652.114 338.591ZM653.568 334.545L658.567 334.645L658.569 334.542L658.567 334.439L653.568 334.545ZM652.159 330.818L648.265 333.955L648.313 334.014L648.363 334.072L652.159 330.818ZM647.795 327.909L645.809 332.498L645.838 332.51L645.867 332.522L647.795 327.909ZM639.568 325.455L640.639 320.571L640.631 320.569L640.622 320.567L639.568 325.455ZM630.295 323.455L629.236 328.341L629.241 328.342L630.295 323.455ZM610.795 314.5L607.469 318.233L607.482 318.244L607.494 318.255L610.795 314.5ZM603.75 297.273L608.75 297.294L608.75 297.27L608.75 297.247L603.75 297.273ZM608.477 281.773L604.422 278.848L604.418 278.853L608.477 281.773ZM621.795 271.364L619.796 266.781L619.788 266.785L621.795 271.364ZM660.886 271.409L658.802 275.954L658.802 275.954L660.886 271.409ZM673.568 282.045L669.374 284.767L669.385 284.784L669.395 284.8L673.568 282.045ZM678.114 298V303H683.139L683.114 297.975L678.114 298ZM658.916 297.601C658.584 293.45 656.945 289.761 653.729 287.073L647.316 294.745C648.161 295.452 648.795 296.49 648.948 298.399L658.916 297.601ZM653.758 287.097C650.468 284.305 646.032 283.364 641.386 283.364V293.364C644.923 293.364 646.577 294.119 647.288 294.722L653.758 287.097ZM641.386 283.364C638.427 283.364 635.628 283.718 633.194 284.647L636.761 293.989C637.66 293.646 639.134 293.364 641.386 293.364V283.364ZM633.241 284.629C630.982 285.466 628.851 286.785 627.327 288.837L635.355 294.8C635.407 294.73 635.7 294.382 636.714 294.007L633.241 284.629ZM627.327 288.837C625.901 290.757 625.167 292.98 625.115 295.343L635.112 295.566C635.12 295.202 635.206 295 635.355 294.8L627.327 288.837ZM625.121 295.185C625.019 297.079 625.35 298.972 626.232 300.736L635.177 296.264C635.15 296.21 635.088 296.072 635.106 295.724L625.121 295.185ZM626.327 300.915C627.258 302.604 628.6 303.939 630.094 304.994L635.861 296.824C635.294 296.424 635.12 296.153 635.082 296.085L626.327 300.915ZM630.176 305.051C631.654 306.05 633.379 306.856 635.245 307.525L638.619 298.111C637.272 297.629 636.362 297.162 635.779 296.768L630.176 305.051ZM635.245 307.525C637.131 308.201 639.279 308.773 641.653 309.261L643.665 299.466C641.615 299.045 639.945 298.587 638.619 298.111L635.245 307.525ZM641.611 309.253L649.248 310.889L651.343 301.111L643.707 299.475L641.611 309.253ZM649.26 310.892C654.12 311.921 658.121 313.247 661.331 314.812L665.714 305.824C661.592 303.814 656.774 302.261 651.331 301.108L649.26 310.892ZM661.331 314.812C664.58 316.396 667.07 318.181 668.92 320.104L676.125 313.169C673.309 310.243 669.799 307.816 665.714 305.824L661.331 314.812ZM668.942 320.126C670.805 322.037 672.123 324.134 672.96 326.436L682.358 323.019C681.013 319.321 678.908 316.024 676.103 313.146L668.942 320.126ZM672.976 326.478C673.872 328.876 674.361 331.564 674.387 334.588L684.386 334.503C684.351 330.436 683.689 326.579 682.343 322.977L672.976 326.478ZM674.386 334.521C674.36 339.793 673.057 343.922 670.727 347.185L678.864 352.997C682.595 347.775 684.352 341.54 684.386 334.57L674.386 334.521ZM670.727 347.185C668.345 350.519 664.853 353.201 659.969 355.118L663.622 364.427C670.011 361.92 675.185 358.147 678.864 352.997L670.727 347.185ZM659.96 355.122C655.088 357.044 649.002 358.091 641.568 358.091V368.091C649.892 368.091 657.291 366.925 663.631 364.424L659.96 355.122ZM641.568 358.091C633.958 358.091 627.549 356.964 622.231 354.853L618.541 364.147C625.284 366.824 632.996 368.091 641.568 368.091V358.091ZM622.239 354.856C617.097 352.804 613.265 349.735 610.539 345.669L602.234 351.24C606.174 357.114 611.675 361.408 618.533 364.144L622.239 354.856ZM610.558 345.699C607.931 341.721 606.414 336.356 606.386 329.253L596.386 329.292C596.419 337.766 598.236 345.188 602.214 351.211L610.558 345.699ZM601.386 334.273H625.386V324.273H601.386V334.273ZM620.393 329.538C620.581 333.068 621.485 336.367 623.342 339.198L631.703 333.711C631.015 332.664 630.495 331.174 630.379 329.007L620.393 329.538ZM623.342 339.198C625.194 342.019 627.775 344.095 630.895 345.45L634.878 336.277C633.391 335.632 632.397 334.769 631.703 333.711L623.342 339.198ZM630.917 345.459C634.014 346.787 637.488 347.364 641.205 347.364V337.364C638.496 337.364 636.425 336.941 634.856 336.268L630.917 345.459ZM641.205 347.364C644.275 347.364 647.159 346.989 649.699 346.058L646.256 336.669C645.159 337.071 643.528 337.364 641.205 337.364V347.364ZM649.699 346.058C652.139 345.163 654.376 343.78 656.028 341.702L648.2 335.48C647.972 335.766 647.452 336.231 646.256 336.669L649.699 346.058ZM656.028 341.702C657.652 339.659 658.515 337.252 658.567 334.645L648.569 334.445C648.561 334.87 648.454 335.159 648.2 335.48L656.028 341.702ZM658.567 334.439C658.513 331.883 657.634 329.522 655.955 327.564L648.363 334.072C648.503 334.236 648.563 334.359 648.569 334.652L658.567 334.439ZM656.053 327.682C654.436 325.675 652.125 324.299 649.723 323.296L645.867 332.522C647.526 333.216 648.124 333.78 648.265 333.955L656.053 327.682ZM649.782 323.32C647.335 322.262 644.245 321.361 640.639 320.571L638.497 330.338C641.8 331.063 644.195 331.799 645.809 332.498L649.782 323.32ZM640.622 320.567L631.35 318.567L629.241 328.342L638.514 330.342L640.622 320.567ZM631.355 318.568C623.678 316.903 618.038 314.209 614.096 310.745L607.494 318.255C613.068 323.154 620.428 326.43 629.236 328.341L631.355 318.568ZM614.122 310.767C610.629 307.655 608.725 303.369 608.75 297.294L598.75 297.252C598.715 305.722 601.507 312.921 607.469 318.233L614.122 310.767ZM608.75 297.247C608.725 292.3 610.024 288.185 612.537 284.692L604.418 278.853C600.567 284.209 598.715 290.427 598.75 297.298L608.75 297.247ZM612.533 284.697C615.159 281.056 618.849 278.115 623.803 275.943L619.788 266.785C613.409 269.582 608.22 273.581 604.422 278.848L612.533 284.697ZM623.794 275.947C628.755 273.783 634.585 272.636 641.386 272.636V262.636C633.46 262.636 626.229 263.975 619.796 266.781L623.794 275.947ZM641.386 272.636C648.354 272.636 654.111 273.803 658.802 275.954L662.971 266.864C656.692 263.985 649.449 262.636 641.386 262.636V272.636ZM658.802 275.954C663.52 278.117 666.975 281.07 669.374 284.767L677.762 279.323C674.222 273.869 669.223 269.731 662.971 266.864L658.802 275.954ZM669.395 284.8C671.798 288.441 673.088 292.786 673.114 298.025L683.114 297.975C683.079 291.032 681.338 284.741 677.741 279.291L669.395 284.8ZM678.114 293H653.932V303H678.114V293ZM686.455 289.273H681.455V294.273H686.455V289.273ZM686.455 268.909V263.909H681.455V268.909H686.455ZM767.364 268.909H772.364V263.909H767.364V268.909ZM767.364 289.273V294.273H772.364V289.273H767.364ZM739.364 289.273V284.273H734.364V289.273H739.364ZM739.364 362V367H744.364V362H739.364ZM714.455 362H709.455V367H714.455V362ZM714.455 289.273H719.455V284.273H714.455V289.273ZM691.455 289.273V268.909H681.455V289.273H691.455ZM686.455 273.909H767.364V263.909H686.455V273.909ZM762.364 268.909V289.273H772.364V268.909H762.364ZM767.364 284.273H739.364V294.273H767.364V284.273ZM734.364 289.273V362H744.364V289.273H734.364ZM739.364 357H714.455V367H739.364V357ZM719.455 362V289.273H709.455V362H719.455ZM714.455 284.273H686.455V294.273H714.455V284.273ZM802.557 362H797.557V367H802.557V362ZM802.557 343.818L799.37 339.966L797.557 341.465V343.818H802.557ZM837.284 315.091L840.471 318.944L840.475 318.94L837.284 315.091ZM843.193 309.727L839.626 306.224L839.625 306.224L843.193 309.727ZM847.011 304.5L842.554 302.234L842.539 302.264L842.524 302.294L847.011 304.5ZM846.83 292.409L842.522 294.948L842.539 294.976L842.556 295.004L846.83 292.409ZM842.648 288.5L840.322 292.926L840.352 292.942L840.382 292.957L842.648 288.5ZM830.284 288.5L827.958 284.074L827.943 284.082L827.927 284.09L830.284 288.5ZM826.193 292.636L821.781 290.283L821.781 290.283L826.193 292.636ZM824.739 299.273V304.273H829.739V299.273H824.739ZM800.739 299.273H795.739V304.273H800.739V299.273ZM805.148 282.364L800.902 279.723L800.902 279.723L805.148 282.364ZM817.602 271.455L819.746 275.972L819.746 275.972L817.602 271.455ZM855.83 271.227L853.82 275.806L853.835 275.812L853.851 275.819L855.83 271.227ZM868.511 281.227L864.396 284.067L864.403 284.077L864.41 284.087L868.511 281.227ZM870.784 307.045L875.39 308.991L875.393 308.984L875.396 308.977L870.784 307.045ZM862.784 318.727L866.499 322.074L866.499 322.074L862.784 318.727ZM846.375 334L849.576 337.841L846.375 334ZM837.648 341.273L834.447 337.432L832.648 338.931V341.273H837.648ZM837.648 341.818H832.648V346.818H837.648V341.818ZM874.011 341.818H879.011V336.818H874.011V341.818ZM874.011 362V367H879.011V362H874.011ZM807.557 362V343.818H797.557V362H807.557ZM805.744 347.671L840.471 318.944L834.097 311.238L799.37 339.966L805.744 347.671ZM840.475 318.94C842.875 316.951 844.977 315.047 846.761 313.23L839.625 306.224C838.136 307.741 836.299 309.413 834.093 311.242L840.475 318.94ZM846.76 313.231C848.731 311.225 850.344 309.055 851.499 306.706L842.524 302.294C841.921 303.521 840.989 304.836 839.626 306.224L846.76 313.231ZM851.468 306.766C852.765 304.216 853.375 301.444 853.375 298.545H843.375C843.375 300.01 843.076 301.208 842.554 302.234L851.468 306.766ZM853.375 298.545C853.375 295.426 852.698 292.441 851.103 289.814L842.556 295.004C843.022 295.771 843.375 296.877 843.375 298.545H853.375ZM851.137 289.871C849.644 287.337 847.535 285.376 844.914 284.043L840.382 292.957C841.336 293.442 842.015 294.087 842.522 294.948L851.137 289.871ZM844.973 284.074C842.364 282.703 839.483 282.091 836.466 282.091V292.091C838.115 292.091 839.356 292.418 840.322 292.926L844.973 284.074ZM836.466 282.091C833.449 282.091 830.568 282.703 827.958 284.074L832.61 292.926C833.576 292.418 834.816 292.091 836.466 292.091V282.091ZM827.927 284.09C825.265 285.513 823.2 287.623 821.781 290.283L830.605 294.989C831.125 294.014 831.788 293.366 832.641 292.91L827.927 284.09ZM821.781 290.283C820.337 292.993 819.739 296.058 819.739 299.273H829.739C829.739 297.275 830.11 295.917 830.605 294.989L821.781 290.283ZM824.739 294.273H800.739V304.273H824.739V294.273ZM805.739 299.273C805.739 293.494 807.028 288.808 809.394 285.004L800.902 279.723C797.388 285.374 795.739 291.961 795.739 299.273H805.739ZM809.394 285.004C811.793 281.146 815.188 278.135 819.746 275.972L815.459 266.937C809.289 269.865 804.381 274.127 800.902 279.723L809.394 285.004ZM819.746 275.972C824.311 273.805 829.839 272.636 836.466 272.636V262.636C828.669 262.636 821.62 264.013 815.459 266.937L819.746 275.972ZM836.466 272.636C843.397 272.636 849.137 273.75 853.82 275.806L857.839 266.649C851.613 263.916 844.444 262.636 836.466 262.636V272.636ZM853.851 275.819C858.599 277.865 862.033 280.643 864.396 284.067L872.626 278.387C869.051 273.206 864.03 269.317 857.808 266.635L853.851 275.819ZM864.41 284.087C866.765 287.465 868.011 291.488 868.011 296.364H878.011C878.011 289.664 876.258 283.596 872.613 278.368L864.41 284.087ZM868.011 296.364C868.011 299.228 867.42 302.134 866.172 305.114L875.396 308.977C877.118 304.866 878.011 300.651 878.011 296.364H868.011ZM866.178 305.1C864.991 307.911 862.714 311.334 859.069 315.381L866.499 322.074C870.551 317.575 873.608 313.21 875.39 308.991L866.178 305.1ZM859.069 315.381C855.446 319.404 850.177 324.323 843.174 330.159L849.576 337.841C856.755 331.859 862.426 326.596 866.499 322.074L859.069 315.381ZM843.174 330.159L834.447 337.432L840.849 345.114L849.576 337.841L843.174 330.159ZM832.648 341.273V341.818H842.648V341.273H832.648ZM837.648 346.818H874.011V336.818H837.648V346.818ZM869.011 341.818V362H879.011V341.818H869.011ZM874.011 357H802.557V367H874.011V357ZM925.852 364.545L925.834 369.545L925.843 369.545H925.852V364.545ZM903.943 358.682L901.276 362.911L901.276 362.911L903.943 358.682ZM889.716 341.909L885.167 343.985L885.167 343.985L889.716 341.909ZM884.761 315.636L889.761 315.651L889.761 315.651L884.761 315.636ZM889.761 289.545L885.229 287.433L885.226 287.441L885.222 287.449L889.761 289.545ZM903.943 273.227L901.352 268.951L901.343 268.957L903.943 273.227ZM947.761 273.273L945.155 277.54L945.163 277.544L945.17 277.549L947.761 273.273ZM961.989 289.591L966.521 287.479L966.521 287.479L961.989 289.591ZM966.943 315.636L961.943 315.622L961.943 315.629V315.636H966.943ZM961.943 342L966.492 344.076L966.492 344.076L961.943 342ZM947.716 358.773L950.377 363.006L950.383 363.002L947.716 358.773ZM936.58 337.182L932.322 334.56L932.317 334.568L936.58 337.182ZM940.761 315.636H935.761V315.644L935.761 315.652L940.761 315.636ZM938.852 299.955L943.623 298.459L943.623 298.459L938.852 299.955ZM933.58 290.955L930.28 294.711L930.294 294.724L930.309 294.736L933.58 290.955ZM915.17 294.636L910.927 291.992L910.927 291.992L915.17 294.636ZM910.943 315.636L905.943 315.605L905.943 315.613L910.943 315.636ZM912.807 331.727L908.021 333.173L908.023 333.183L912.807 331.727ZM918.08 341L914.751 344.731L914.764 344.743L914.776 344.754L918.08 341ZM925.87 359.545C918.198 359.518 911.846 357.754 906.61 354.452L901.276 362.911C908.343 367.367 916.597 369.512 925.834 369.545L925.87 359.545ZM906.61 354.452C901.367 351.146 897.237 346.346 894.265 339.833L885.167 343.985C888.861 352.078 894.217 358.46 901.276 362.911L906.61 354.452ZM894.265 339.833C891.301 333.339 889.733 325.332 889.761 315.651L879.761 315.622C879.73 326.365 881.465 335.873 885.167 343.985L894.265 339.833ZM889.761 315.651C889.79 305.921 891.375 297.976 894.301 291.642L885.222 287.449C881.541 295.418 879.793 304.867 879.761 315.622L889.761 315.651ZM894.293 291.658C897.254 285.306 901.349 280.661 906.544 277.498L901.343 268.957C894.294 273.248 888.936 279.481 885.229 287.433L894.293 291.658ZM906.534 277.504C911.776 274.327 918.149 272.636 925.852 272.636V262.636C916.646 262.636 908.413 264.673 901.352 268.951L906.534 277.504ZM925.852 272.636C933.548 272.636 939.915 274.339 945.155 277.54L950.368 269.006C943.304 264.691 935.065 262.636 925.852 262.636V272.636ZM945.17 277.549C950.393 280.714 954.499 285.359 957.457 291.703L966.521 287.479C962.811 279.52 957.433 273.286 950.352 268.996L945.17 277.549ZM957.457 291.703C960.402 298.023 961.972 305.936 961.943 315.622L971.943 315.651C971.975 304.912 970.242 295.462 966.521 287.479L957.457 291.703ZM961.943 315.636C961.943 325.386 960.36 333.428 957.395 339.924L966.492 344.076C970.193 335.966 971.943 326.432 971.943 315.636H961.943ZM957.395 339.924C954.422 346.437 950.293 351.237 945.049 354.543L950.383 363.002C957.442 358.551 962.798 352.169 966.492 344.076L957.395 339.924ZM945.055 354.54C939.858 357.807 933.527 359.545 925.852 359.545V369.545C935.086 369.545 943.332 367.435 950.377 363.006L945.055 354.54ZM925.852 349C932.36 349 937.379 345.442 940.842 339.796L932.317 334.568C930.204 338.013 928.072 339 925.852 339V349ZM940.837 339.804C944.4 334.018 945.792 325.684 945.761 315.621L935.761 315.652C935.791 325.165 934.395 331.194 932.322 334.56L940.837 339.804ZM945.761 315.636C945.761 308.963 945.104 303.182 943.623 298.459L934.081 301.45C935.146 304.849 935.761 309.522 935.761 315.636H945.761ZM943.623 298.459C942.187 293.877 940.038 289.93 936.85 287.173L930.309 294.736C931.606 295.858 932.972 297.91 934.081 301.45L943.623 298.459ZM936.879 287.198C933.75 284.45 930.01 283 925.852 283V293C927.513 293 928.924 293.52 930.28 294.711L936.879 287.198ZM925.852 283C919.404 283 914.391 286.435 910.927 291.992L919.414 297.281C921.465 293.989 923.573 293 925.852 293V283ZM910.927 291.992C907.421 297.617 906.006 305.765 905.943 315.605L915.943 315.668C916.002 306.356 917.405 300.504 919.414 297.281L910.927 291.992ZM905.943 315.613C905.912 322.411 906.553 328.315 908.021 333.173L917.593 330.281C916.516 326.715 915.914 321.892 915.943 315.66L905.943 315.613ZM908.023 333.183C909.449 337.867 911.581 341.904 914.751 344.731L921.408 337.269C920.093 336.096 918.71 333.951 917.59 330.271L908.023 333.183ZM914.776 344.754C917.921 347.521 921.674 349 925.852 349V339C924.212 339 922.783 338.479 921.383 337.246L914.776 344.754ZM978.807 362H973.807V367H978.807V362ZM978.807 343.818L975.62 339.966L973.807 341.465V343.818H978.807ZM1013.53 315.091L1016.72 318.944L1016.73 318.94L1013.53 315.091ZM1019.44 309.727L1015.88 306.224L1015.88 306.224L1019.44 309.727ZM1023.26 304.5L1018.8 302.234L1018.79 302.264L1018.77 302.294L1023.26 304.5ZM1023.08 292.409L1018.77 294.948L1018.79 294.976L1018.81 295.004L1023.08 292.409ZM1018.9 288.5L1016.57 292.926L1016.6 292.942L1016.63 292.957L1018.9 288.5ZM1006.53 288.5L1004.21 284.074L1004.19 284.082L1004.18 284.09L1006.53 288.5ZM1002.44 292.636L998.031 290.283L998.031 290.283L1002.44 292.636ZM1000.99 299.273V304.273H1005.99V299.273H1000.99ZM976.989 299.273H971.989V304.273H976.989V299.273ZM981.398 282.364L977.152 279.723L977.152 279.723L981.398 282.364ZM993.852 271.455L995.996 275.972L995.996 275.972L993.852 271.455ZM1032.08 271.227L1030.07 275.806L1030.09 275.812L1030.1 275.819L1032.08 271.227ZM1044.76 281.227L1040.65 284.067L1040.65 284.077L1040.66 284.087L1044.76 281.227ZM1047.03 307.045L1051.64 308.991L1051.64 308.984L1051.65 308.977L1047.03 307.045ZM1039.03 318.727L1042.75 322.074L1042.75 322.074L1039.03 318.727ZM1022.62 334L1025.83 337.841L1022.62 334ZM1013.9 341.273L1010.7 337.432L1008.9 338.931V341.273H1013.9ZM1013.9 341.818H1008.9V346.818H1013.9V341.818ZM1050.26 341.818H1055.26V336.818H1050.26V341.818ZM1050.26 362V367H1055.26V362H1050.26ZM983.807 362V343.818H973.807V362H983.807ZM981.994 347.671L1016.72 318.944L1010.35 311.238L975.62 339.966L981.994 347.671ZM1016.73 318.94C1019.13 316.951 1021.23 315.047 1023.01 313.23L1015.88 306.224C1014.39 307.741 1012.55 309.413 1010.34 311.242L1016.73 318.94ZM1023.01 313.231C1024.98 311.225 1026.59 309.055 1027.75 306.706L1018.77 302.294C1018.17 303.521 1017.24 304.836 1015.88 306.224L1023.01 313.231ZM1027.72 306.766C1029.02 304.216 1029.62 301.444 1029.62 298.545H1019.62C1019.62 300.01 1019.33 301.208 1018.8 302.234L1027.72 306.766ZM1029.62 298.545C1029.62 295.426 1028.95 292.441 1027.35 289.814L1018.81 295.004C1019.27 295.771 1019.62 296.877 1019.62 298.545H1029.62ZM1027.39 289.871C1025.89 287.337 1023.78 285.376 1021.16 284.043L1016.63 292.957C1017.59 293.442 1018.26 294.087 1018.77 294.948L1027.39 289.871ZM1021.22 284.074C1018.61 282.703 1015.73 282.091 1012.72 282.091V292.091C1014.37 292.091 1015.61 292.418 1016.57 292.926L1021.22 284.074ZM1012.72 282.091C1009.7 282.091 1006.82 282.703 1004.21 284.074L1008.86 292.926C1009.83 292.418 1011.07 292.091 1012.72 292.091V282.091ZM1004.18 284.09C1001.52 285.513 999.45 287.623 998.031 290.283L1006.85 294.989C1007.38 294.014 1008.04 293.366 1008.89 292.91L1004.18 284.09ZM998.031 290.283C996.587 292.993 995.989 296.058 995.989 299.273H1005.99C1005.99 297.275 1006.36 295.917 1006.85 294.989L998.031 290.283ZM1000.99 294.273H976.989V304.273H1000.99V294.273ZM981.989 299.273C981.989 293.494 983.278 288.808 985.644 285.004L977.152 279.723C973.638 285.374 971.989 291.961 971.989 299.273H981.989ZM985.644 285.004C988.043 281.146 991.438 278.135 995.996 275.972L991.709 266.937C985.539 269.865 980.631 274.127 977.152 279.723L985.644 285.004ZM995.996 275.972C1000.56 273.805 1006.09 272.636 1012.72 272.636V262.636C1004.92 262.636 997.87 264.013 991.709 266.937L995.996 275.972ZM1012.72 272.636C1019.65 272.636 1025.39 273.75 1030.07 275.806L1034.09 266.649C1027.86 263.916 1020.69 262.636 1012.72 262.636V272.636ZM1030.1 275.819C1034.85 277.865 1038.28 280.643 1040.65 284.067L1048.88 278.387C1045.3 273.206 1040.28 269.317 1034.06 266.635L1030.1 275.819ZM1040.66 284.087C1043.01 287.465 1044.26 291.488 1044.26 296.364H1054.26C1054.26 289.664 1052.51 283.596 1048.86 278.368L1040.66 284.087ZM1044.26 296.364C1044.26 299.228 1043.67 302.134 1042.42 305.114L1051.65 308.977C1053.37 304.866 1054.26 300.651 1054.26 296.364H1044.26ZM1042.43 305.1C1041.24 307.911 1038.96 311.334 1035.32 315.381L1042.75 322.074C1046.8 317.575 1049.86 313.21 1051.64 308.991L1042.43 305.1ZM1035.32 315.381C1031.7 319.404 1026.43 324.323 1019.42 330.159L1025.83 337.841C1033 331.859 1038.68 326.596 1042.75 322.074L1035.32 315.381ZM1019.42 330.159L1010.7 337.432L1017.1 345.114L1025.83 337.841L1019.42 330.159ZM1008.9 341.273V341.818H1018.9V341.273H1008.9ZM1013.9 346.818H1050.26V336.818H1013.9V346.818ZM1045.26 341.818V362H1055.26V341.818H1045.26ZM1050.26 357H978.807V367H1050.26V357ZM1058.65 347.455H1053.65V352.455H1058.65V347.455ZM1058.65 327.818L1054.43 325.135L1053.65 326.363V327.818H1058.65ZM1096.1 268.909V263.909H1093.36L1091.88 266.226L1096.1 268.909ZM1113.92 268.909H1118.92V263.909H1113.92V268.909ZM1113.92 295.091V300.091H1118.92V295.091H1113.92ZM1103.74 295.091V290.091H1100.98L1099.51 292.424L1103.74 295.091ZM1083.56 327.091L1079.33 324.424L1078.56 325.646V327.091H1083.56ZM1083.56 327.818H1078.56V332.818H1083.56V327.818ZM1138.83 327.818H1143.83V322.818H1138.83V327.818ZM1138.83 347.455V352.455H1143.83V347.455H1138.83ZM1103.92 362H1098.92V367H1103.92V362ZM1103.92 341.455L1098.93 341.136L1098.92 341.295V341.455H1103.92ZM1104.47 332.909L1109.46 333.228L1109.47 333.069V332.909H1104.47ZM1104.47 268.909V263.909H1099.47V268.909H1104.47ZM1128.1 268.909H1133.1V263.909H1128.1V268.909ZM1128.1 362V367H1133.1V362H1128.1ZM1063.65 347.455V327.818H1053.65V347.455H1063.65ZM1062.87 330.501L1100.32 271.592L1091.88 266.226L1054.43 325.135L1062.87 330.501ZM1096.1 273.909H1113.92V263.909H1096.1V273.909ZM1108.92 268.909V295.091H1118.92V268.909H1108.92ZM1113.92 290.091H1103.74V300.091H1113.92V290.091ZM1099.51 292.424L1079.33 324.424L1087.79 329.758L1107.97 297.758L1099.51 292.424ZM1078.56 327.091V327.818H1088.56V327.091H1078.56ZM1083.56 332.818H1138.83V322.818H1083.56V332.818ZM1133.83 327.818V347.455H1143.83V327.818H1133.83ZM1138.83 342.455H1058.65V352.455H1138.83V342.455ZM1108.92 362V341.455H1098.92V362H1108.92ZM1108.91 341.773L1109.46 333.228L1099.48 332.591L1098.93 341.136L1108.91 341.773ZM1109.47 332.909V268.909H1099.47V332.909H1109.47ZM1104.47 273.909H1128.1V263.909H1104.47V273.909ZM1123.1 268.909V362H1133.1V268.909H1123.1ZM1128.1 357H1103.92V367H1128.1V357Z" fill="url(#paint6_linear_133_120)" mask="url(#path-7-outside-1_133_120)"/>
<path d="M63.5234 34.8515L56 54.625H64.0948L67.8088 43.9341L63.5234 34.8515Z" fill="white"/>
<path d="M74.4751 54.625L64.8566 34H72.7609L82.3794 54.625H74.4751Z" fill="white"/>
<path d="M79.1073 39.0143L76.917 34H84.5356L87.0116 39.0143H79.1073Z" fill="white"/>
<path d="M86.2498 54.625L79.4883 40.3389H87.4878L94.4398 54.625H86.2498Z" fill="white"/>
<path d="M90.882 39.0143L88.6916 34H101.643L104.024 39.0143H90.882Z" fill="white"/>
<path d="M100.405 54.625L93.8342 40.3389H101.643L108.5 54.625H100.405Z" fill="white"/>
<path d="M140.648 39.3636V35.5455H155.818V39.3636H150.568V53H145.898V39.3636H140.648ZM157.602 53V35.5455H170.181V39.3636H162.34V42.3636H169.533V46.1818H162.34V49.1818H170.147V53H157.602ZM188.827 42.0909H184.02C183.986 41.6932 183.895 41.3324 183.747 41.0085C183.605 40.6847 183.406 40.4062 183.151 40.1733C182.901 39.9347 182.597 39.7528 182.239 39.6278C181.881 39.4972 181.474 39.4318 181.02 39.4318C180.224 39.4318 179.551 39.625 179 40.0114C178.455 40.3977 178.04 40.9517 177.756 41.6733C177.477 42.3949 177.338 43.2614 177.338 44.2727C177.338 45.3409 177.48 46.2358 177.764 46.9574C178.054 47.6733 178.472 48.2131 179.017 48.5767C179.563 48.9347 180.219 49.1136 180.986 49.1136C181.423 49.1136 181.815 49.0597 182.162 48.9517C182.509 48.8381 182.81 48.6761 183.065 48.4659C183.321 48.2557 183.528 48.0028 183.688 47.7074C183.852 47.4062 183.963 47.0682 184.02 46.6932L188.827 46.7273C188.77 47.4659 188.563 48.2187 188.205 48.9858C187.847 49.7472 187.338 50.4517 186.679 51.0994C186.026 51.7415 185.216 52.2585 184.25 52.6506C183.284 53.0426 182.162 53.2386 180.884 53.2386C179.281 53.2386 177.844 52.8949 176.571 52.2074C175.304 51.5199 174.301 50.5085 173.562 49.1733C172.83 47.8381 172.463 46.2045 172.463 44.2727C172.463 42.3295 172.838 40.6932 173.588 39.3636C174.338 38.0284 175.349 37.0199 176.622 36.3381C177.895 35.6506 179.315 35.3068 180.884 35.3068C181.986 35.3068 183 35.4574 183.926 35.7585C184.852 36.0597 185.665 36.5 186.364 37.0795C187.063 37.6534 187.625 38.3608 188.051 39.2017C188.477 40.0426 188.736 41.0057 188.827 42.0909ZM190.977 53V35.5455H195.715V42.3636H201.988V35.5455H206.727V53H201.988V46.1818H195.715V53H190.977ZM224.079 35.5455V53H220.124L213.817 43.8295H213.715V53H208.977V35.5455H212.999L219.204 44.6818H219.34V35.5455H224.079ZM243.229 44.2727C243.229 46.2159 242.852 47.8551 242.096 49.1903C241.34 50.5199 240.32 51.5284 239.036 52.2159C237.752 52.8977 236.32 53.2386 234.741 53.2386C233.15 53.2386 231.712 52.8949 230.428 52.2074C229.15 51.5142 228.133 50.5028 227.377 49.1733C226.627 47.8381 226.252 46.2045 226.252 44.2727C226.252 42.3295 226.627 40.6932 227.377 39.3636C228.133 38.0284 229.15 37.0199 230.428 36.3381C231.712 35.6506 233.15 35.3068 234.741 35.3068C236.32 35.3068 237.752 35.6506 239.036 36.3381C240.32 37.0199 241.34 38.0284 242.096 39.3636C242.852 40.6932 243.229 42.3295 243.229 44.2727ZM238.354 44.2727C238.354 43.2273 238.215 42.3466 237.937 41.6307C237.664 40.9091 237.258 40.3636 236.718 39.9943C236.184 39.6193 235.525 39.4318 234.741 39.4318C233.957 39.4318 233.295 39.6193 232.755 39.9943C232.221 40.3636 231.815 40.9091 231.536 41.6307C231.263 42.3466 231.127 43.2273 231.127 44.2727C231.127 45.3182 231.263 46.2017 231.536 46.9233C231.815 47.6392 232.221 48.1847 232.755 48.5597C233.295 48.929 233.957 49.1136 234.741 49.1136C235.525 49.1136 236.184 48.929 236.718 48.5597C237.258 48.1847 237.664 47.6392 237.937 46.9233C238.215 46.2017 238.354 45.3182 238.354 44.2727ZM254.831 41C254.786 40.4318 254.572 39.9886 254.192 39.6705C253.817 39.3523 253.246 39.1932 252.479 39.1932C251.99 39.1932 251.589 39.2528 251.277 39.3722C250.97 39.4858 250.743 39.642 250.595 39.8409C250.447 40.0398 250.371 40.267 250.365 40.5227C250.354 40.733 250.391 40.9233 250.476 41.0938C250.567 41.2585 250.709 41.4091 250.902 41.5455C251.095 41.6761 251.342 41.7955 251.643 41.9034C251.945 42.0114 252.303 42.108 252.717 42.1932L254.149 42.5C255.115 42.7045 255.942 42.9744 256.629 43.3097C257.317 43.6449 257.879 44.0398 258.317 44.4943C258.754 44.9432 259.075 45.4489 259.28 46.0114C259.49 46.5739 259.598 47.1875 259.604 47.8523C259.598 49 259.311 49.9716 258.743 50.767C258.175 51.5625 257.362 52.1676 256.305 52.5824C255.254 52.9972 253.99 53.2045 252.513 53.2045C250.996 53.2045 249.672 52.9801 248.541 52.5312C247.416 52.0824 246.541 51.392 245.916 50.4602C245.297 49.5227 244.984 48.3239 244.979 46.8636H249.479C249.507 47.3977 249.641 47.8466 249.879 48.2102C250.118 48.5739 250.453 48.8494 250.885 49.0369C251.322 49.2244 251.842 49.3182 252.445 49.3182C252.95 49.3182 253.374 49.2557 253.714 49.1307C254.055 49.0057 254.314 48.8324 254.49 48.6108C254.666 48.3892 254.757 48.1364 254.763 47.8523C254.757 47.5852 254.669 47.3523 254.499 47.1534C254.334 46.9489 254.061 46.767 253.68 46.608C253.3 46.4432 252.786 46.2898 252.138 46.1477L250.399 45.7727C248.854 45.4375 247.635 44.8778 246.743 44.0938C245.857 43.304 245.416 42.2273 245.422 40.8636C245.416 39.7557 245.712 38.7869 246.308 37.9574C246.911 37.1222 247.743 36.4716 248.805 36.0057C249.874 35.5398 251.098 35.3068 252.479 35.3068C253.888 35.3068 255.107 35.5426 256.135 36.0142C257.163 36.4858 257.956 37.1506 258.513 38.0085C259.075 38.8608 259.359 39.858 259.365 41H254.831ZM261.406 53V35.5455H268.94C270.236 35.5455 271.369 35.8011 272.341 36.3125C273.313 36.8239 274.068 37.5426 274.608 38.4688C275.148 39.3949 275.418 40.4773 275.418 41.7159C275.418 42.9659 275.139 44.0483 274.582 44.9631C274.031 45.8778 273.256 46.5824 272.256 47.0767C271.261 47.571 270.099 47.8182 268.77 47.8182H264.27V44.1364H267.815C268.372 44.1364 268.847 44.0398 269.239 43.8466C269.636 43.6477 269.94 43.3665 270.151 43.0028C270.366 42.6392 270.474 42.2102 270.474 41.7159C270.474 41.2159 270.366 40.7898 270.151 40.4375C269.94 40.0795 269.636 39.8068 269.239 39.6193C268.847 39.4261 268.372 39.3295 267.815 39.3295H266.145V53H261.406ZM279.511 53H274.397L280.158 35.5455H286.636L292.397 53H287.283L283.465 40.3523H283.329L279.511 53ZM278.556 46.1136H288.17V49.6591H278.556V46.1136ZM294.078 53V35.5455H301.612C302.908 35.5455 304.041 35.7812 305.013 36.2528C305.984 36.7244 306.74 37.4034 307.28 38.2898C307.82 39.1761 308.089 40.2386 308.089 41.4773C308.089 42.7273 307.811 43.7812 307.254 44.6392C306.703 45.4972 305.928 46.1449 304.928 46.5824C303.933 47.0199 302.771 47.2386 301.442 47.2386H296.942V43.5568H300.487C301.044 43.5568 301.518 43.4886 301.911 43.3523C302.308 43.2102 302.612 42.9858 302.822 42.679C303.038 42.3722 303.146 41.9716 303.146 41.4773C303.146 40.9773 303.038 40.571 302.822 40.2585C302.612 39.9403 302.308 39.7074 301.911 39.5597C301.518 39.4062 301.044 39.3295 300.487 39.3295H298.817V53H294.078ZM304.305 44.9886L308.669 53H303.521L299.26 44.9886H304.305ZM315.189 35.5455L318.053 40.625H318.189L321.087 35.5455H326.371L321.155 44.2727L326.575 53H321.155L318.189 47.8182H318.053L315.087 53H309.7L315.053 44.2727L309.871 35.5455H315.189Z" fill="white"/>
<path opacity="0.42" d="M142.656 583.004L195.581 504.897L234.306 590.932L142.656 583.004Z" stroke="url(#paint7_linear_133_120)" stroke-width="3"/>
<path opacity="0.42" d="M-53.7515 603.335L90.1896 503.375L99.7649 678.359L-53.7515 603.335Z" stroke="url(#paint8_linear_133_120)" stroke-width="3"/>
</g>
<defs>
<linearGradient id="paint0_linear_133_120" x1="1133.25" y1="43.8011" x2="1133.25" y2="87.701" gradientUnits="userSpaceOnUse">
<stop stop-color="#FF9E0B"/>
<stop offset="1" stop-color="#F24E52"/>
</linearGradient>
<linearGradient id="paint1_linear_133_120" x1="1133.63" y1="0" x2="1133.63" y2="264" gradientUnits="userSpaceOnUse">
<stop stop-color="#FF9E0B"/>
<stop offset="1" stop-color="#F24E52"/>
</linearGradient>
<linearGradient id="paint2_linear_133_120" x1="-63.757" y1="-34.0071" x2="-63.757" y2="347.166" gradientUnits="userSpaceOnUse">
<stop stop-color="#FF9E0B"/>
<stop offset="1" stop-color="#EC4899"/>
</linearGradient>
<linearGradient id="paint3_linear_133_120" x1="1173" y1="695.827" x2="1173" y2="969.442" gradientUnits="userSpaceOnUse">
<stop stop-color="#FF9E0B"/>
<stop offset="1" stop-color="#F24E52"/>
</linearGradient>
<linearGradient id="paint4_linear_133_120" x1="882.5" y1="530" x2="882.5" y2="919" gradientUnits="userSpaceOnUse">
<stop stop-color="#FF9E0B"/>
<stop offset="1" stop-color="#9C67E7"/>
</linearGradient>
<linearGradient id="paint5_linear_133_120" x1="1034" y1="11" x2="1034" y2="207" gradientUnits="userSpaceOnUse">
<stop stop-color="#FF9E0B"/>
<stop offset="1" stop-color="#DA46EB"/>
</linearGradient>
<linearGradient id="paint6_linear_133_120" x1="600" y1="238" x2="600" y2="393" gradientUnits="userSpaceOnUse">
<stop stop-color="#FF9E0B"/>
<stop offset="0.49" stop-color="#F24E52"/>
</linearGradient>
<linearGradient id="paint7_linear_133_120" x1="195.846" y1="501.832" x2="185.854" y2="617.339" gradientUnits="userSpaceOnUse">
<stop stop-color="#4A74F4"/>
<stop offset="1" stop-color="#DA46EB"/>
</linearGradient>
<linearGradient id="paint8_linear_133_120" x1="91.5405" y1="500.611" x2="-0.71607" y2="689.389" gradientUnits="userSpaceOnUse">
<stop stop-color="#4A74F4"/>
<stop offset="1" stop-color="#DA46EB"/>
</linearGradient>
<clipPath id="clip0_133_120">
<rect width="1200" height="630" fill="white"/>
</clipPath>
</defs>
</svg>
